<svg width="320" height="220" viewBox="0 0 320 220" fill="none" xmlns="http://www.w3.org/2000/svg">
<g opacity="0.1">
<path d="M48.9879 218.501H36.3481L39.1917 101.532H46.1429L48.9879 218.501Z" fill="#404040"/>
<path d="M23.7157 49.54C17.3752 38.7997 27.1112 90.8917 42.091 101.531C42.091 101.537 54.1862 101.19 23.7157 49.54Z" fill="#404040"/>
<path d="M0.911193 140.744C-7.06903 151.674 39.8698 118.188 44.3649 99.2746C44.362 99.2746 39.2782 88.195 0.911193 140.744Z" fill="#404040"/>
<path d="M95.5687 127.627C108.364 132.033 62.5277 97.0475 43.1379 98.3355C43.1393 98.337 34.0581 106.466 95.5687 127.627Z" fill="#404040"/>
<path d="M57.1311 220.001H29.3809L32.2274 213.601H54.2846L57.1311 220.001Z" fill="#404040"/>
<path d="M48.8969 101.542C48.8969 102.775 48.5316 103.979 47.8472 105.004C47.1627 106.029 46.1899 106.828 45.0518 107.299C43.9136 107.771 42.6612 107.894 41.4529 107.654C40.2446 107.413 39.1347 106.82 38.2636 105.948C37.3925 105.077 36.7992 103.967 36.5589 102.758C36.3186 101.549 36.4419 100.296 36.9134 99.1574C37.3848 98.0187 38.1832 97.0455 39.2075 96.3608C40.2318 95.676 41.4361 95.3105 42.6681 95.3105C44.3201 95.3105 45.9044 95.9671 47.0726 97.1357C48.2407 98.3044 48.8969 99.8894 48.8969 101.542Z" fill="#404040"/>
<path d="M281.661 218.233H266.807L270.15 80.7959H278.318L281.661 218.233Z" fill="#404040"/>
<path d="M251.967 19.704C244.515 7.08379 255.954 68.2918 273.557 80.8004C273.557 80.8004 287.771 80.3921 251.967 19.704Z" fill="#404040"/>
<path d="M225.178 126.871C215.799 139.713 270.955 100.368 276.234 78.1427C276.228 78.1427 270.247 65.1274 225.178 126.871Z" fill="#404040"/>
<path d="M336.398 111.458C351.429 116.625 297.574 75.5229 274.789 77.04C274.789 77.04 264.125 86.5863 336.398 111.458Z" fill="#404040"/>
<path d="M291.231 220H258.623L261.967 212.478H287.884L291.231 220Z" fill="#404040"/>
<path d="M281.551 80.8032C281.551 82.2513 281.122 83.667 280.318 84.8712C279.514 86.0755 278.371 87.0141 277.034 87.5684C275.697 88.1227 274.225 88.2678 272.805 87.9854C271.386 87.7029 270.082 87.0056 269.058 85.9816C268.034 84.9576 267.337 83.653 267.055 82.2326C266.773 80.8123 266.918 79.3401 267.472 78.0023C268.026 76.6644 268.964 75.521 270.168 74.7166C271.372 73.9123 272.787 73.4831 274.234 73.4834C276.174 73.4842 278.035 74.2556 279.407 75.6282C280.779 77.0007 281.55 78.8621 281.551 80.8032Z" fill="#404040"/>
</g>
<circle opacity="0.2" cx="160" cy="100" r="100" fill="#4AA29A"/>
<circle cx="160" cy="100" r="90" fill="#89BDB9"/>
<mask id="mask0" mask-type="alpha" maskUnits="userSpaceOnUse" x="70" y="10" width="180" height="180">
<circle cx="160" cy="100" r="90" fill="#89BDB9"/>
</mask>
<g mask="url(#mask0)">
<path opacity="0.5" d="M263.689 152.235H56.3133C56.3133 152.235 55.8654 131.529 71.8394 131.626C87.8135 131.722 89.4614 133.108 97.2197 125.779C104.978 118.451 105.032 97.4622 120.78 104.199C126.558 106.67 128.854 109.749 137.829 104.753C146.804 99.7566 142.704 88.0633 157.5 87.6817C172.295 87.3001 207.32 83.9928 218.301 104.199C226.316 118.955 226.962 131.798 241.069 130.66C255.176 129.522 262.121 148.207 263.689 152.235Z" fill="#86D7D0"/>
<path opacity="0.5" d="M250.232 152.235H81.439C81.439 152.235 81.9458 140.089 94.9495 140.169C107.953 140.249 97.5568 116.905 103.872 110.94C110.188 104.976 116.655 93.0142 129.472 98.4981C134.187 100.507 144.397 114.5 151.703 110.432C159.008 106.364 151.757 99.9986 163.803 99.69C175.85 99.3814 217.28 91.5231 226.219 107.97C232.747 119.984 225.859 139.474 237.342 138.548C248.825 137.623 248.957 148.956 250.232 152.235Z" fill="#86D7D0"/>
<path d="M80.9371 148.679C80.9371 148.679 73.5031 142.212 77.2008 137.549C80.8984 132.885 85.6365 139.754 86.9074 136.056C88.1783 132.358 74.56 115.553 89.1202 112.408C103.68 109.264 96.0599 124.324 98.2705 126.701C100.755 129.373 108.613 122.266 105.435 133.588C102.941 142.475 106.86 138.174 108.324 140.984C110.153 144.496 106.628 148.676 106.628 148.676L80.9371 148.679Z" fill="#5FBAB2"/>
<path opacity="0.1" d="M108.845 143.097C108.845 143.027 108.841 142.956 108.837 142.885C107.354 143.322 105.879 142.984 105.435 142.862C106.061 141.884 106.784 140.962 107.607 140.183C107.547 140.144 107.485 140.109 107.422 140.077C106.02 141.419 104.913 143.163 104.065 144.884C104.114 143.93 104.376 141.605 105.743 139.681C105.672 139.664 105.603 139.644 105.535 139.621C103.781 142.142 103.848 145.29 103.85 145.331C103.343 146.419 102.901 147.536 102.525 148.676H102.74C103.282 147.05 104.122 144.952 105.318 143.04C105.946 143.215 106.596 143.304 107.248 143.305C107.788 143.309 108.325 143.239 108.845 143.097Z" fill="black"/>
<path opacity="0.1" d="M99.7638 140.43C100.224 140.408 102.259 140.235 104.771 138.89C104.746 138.825 104.725 138.758 104.708 138.69C102.285 139.997 100.312 140.193 99.7982 140.222C99.9624 139.25 100.161 138.275 100.399 137.324C100.857 137.271 103.04 136.979 104.867 135.903C104.885 135.811 104.904 135.717 104.925 135.621C103.195 136.694 101.041 137.033 100.454 137.109C101.14 134.457 102.146 132.016 103.623 130.398C104.401 129.547 105.087 128.569 105.689 127.525C105.644 127.47 105.595 127.418 105.543 127.369C104.938 128.422 104.251 129.405 103.47 130.26C102.474 131.35 101.69 132.809 101.072 134.451C100.962 133.159 100.733 129.249 101.771 127.186C101.689 127.199 101.606 127.213 101.524 127.225C100.333 129.788 100.88 134.654 100.909 134.9C99.2997 139.48 98.9093 145.319 98.8271 148.679H99.0322C99.0846 146.588 99.2568 143.535 99.7638 140.43Z" fill="black"/>
<path opacity="0.1" d="M86.893 146.07C86.893 145.665 86.8813 140.303 85.3116 137.187C85.2301 137.179 85.1464 137.167 85.0605 137.151C86.4607 139.807 86.6561 144.396 86.6826 145.719C85.4298 143.675 83.7918 141.852 82.1268 140.308C82.1798 140.011 82.4854 138.067 82.0277 136.123C81.953 136.101 81.8783 136.081 81.8031 136.061C82.2433 137.809 82.0288 139.597 81.9456 140.14C80.6476 138.961 79.2743 137.869 77.8342 136.868C77.7812 136.915 77.732 136.962 77.6816 137.012C79.1872 138.059 81.0276 139.481 82.7731 141.208C82.256 141.553 79.8865 142.985 76.5713 142.633C76.5967 142.705 76.6243 142.776 76.6502 142.845C76.9797 142.877 77.3013 142.893 77.6117 142.893C80.4983 142.893 82.5029 141.64 82.9219 141.357C83.2514 141.687 83.5758 142.028 83.8951 142.38C83.5714 142.812 81.7178 145.06 78.0763 145.453C78.1213 145.517 78.1669 145.581 78.2119 145.644C81.7697 145.22 83.636 143.055 84.0355 142.537C85.6459 144.339 87.0672 146.411 87.9154 148.683H88.132C87.7964 147.777 87.3818 146.903 86.893 146.07Z" fill="black"/>
<path opacity="0.1" d="M93.7834 148.679C93.7834 147.416 93.758 146 93.6855 144.472H93.6902C93.7082 144.343 95.3764 132.836 100.067 127.357C99.9805 127.357 99.8941 127.352 99.8093 127.347C95.9236 132.009 94.1315 140.712 93.6356 143.534C93.4614 140.559 93.1059 137.227 92.4416 133.853C92.4686 133.816 92.503 133.765 92.5528 133.694C93.9032 131.701 96.0767 128.658 98.1253 126.501C98.0886 126.439 98.0566 126.373 98.0294 126.306C95.9523 128.478 93.7506 131.56 92.3854 133.575C92.2276 132.794 92.0526 132.012 91.8605 131.229C91.0902 128.114 90.7575 125.009 90.6807 122.139C91.3694 122.136 95.1025 122.053 98.2084 120.682C98.2159 120.604 98.2228 120.526 98.2302 120.448C95.1375 121.851 91.3434 121.932 90.6749 121.932C90.6415 120.464 90.6749 119.06 90.7496 117.749C91.3715 117.541 95.4294 116.145 97.6406 114.501C97.6093 114.439 97.5775 114.376 97.5436 114.316C95.458 115.873 91.577 117.249 90.7628 117.528C90.8931 115.398 91.1336 113.527 91.3715 112.048C91.3016 112.055 91.2316 112.062 91.1596 112.07C90.7596 114.563 90.5295 117.081 90.4709 119.605C87.6818 119.247 84.8439 117.566 83.073 116.325C83.0417 116.387 83.0089 116.448 82.9797 116.51C84.7766 117.765 87.6415 119.456 90.4672 119.812C90.4105 122.86 90.6108 126.28 91.3201 129.759C90.4725 129.489 86.5333 128.181 83.777 126.321C83.8178 126.434 83.8591 126.547 83.9004 126.66C86.8114 128.555 90.7994 129.815 91.3699 129.99C91.46 130.419 91.5576 130.848 91.6629 131.277C92.3929 134.228 92.8585 137.211 93.1462 140.011C92.6016 139.253 91.0023 137.506 86.9756 135.74C86.967 135.81 86.9541 135.879 86.937 135.948C91.7762 138.087 93.0588 140.218 93.1912 140.464C93.49 143.533 93.5795 146.367 93.5784 148.679H93.7834Z" fill="black"/>
<path d="M241.488 110.65C241.034 110.591 240.502 109.863 240.502 109.863C240.502 109.863 241.08 109.28 241.534 109.338C241.988 109.396 242.267 109.728 242.254 110.09C242.242 110.452 241.942 110.709 241.488 110.65Z" fill="#9FE6E0"/>
<path d="M239.058 108.027C238.973 108.69 238.301 109.337 238.301 109.337C238.301 109.337 237.838 108.364 237.923 107.701C238.008 107.039 238.317 106.689 238.63 106.778C238.943 106.868 239.145 107.364 239.058 108.027Z" fill="#9FE6E0"/>
<path d="M236.152 108.884C236.324 109.85 235.726 111.223 235.726 111.223C235.726 111.223 234.706 110.237 234.534 109.271C234.361 108.305 234.614 107.603 235.061 107.496C235.507 107.389 235.98 107.918 236.152 108.884Z" fill="#9FE6E0"/>
<path d="M233.171 110.561C233.772 111.527 233.722 113.521 233.722 113.521C233.722 113.521 232.205 113.158 231.603 112.193C231.001 111.228 230.967 110.247 231.403 109.797C231.838 109.347 232.57 109.596 233.171 110.561Z" fill="#9FE6E0"/>
<path d="M230.628 114.208C231.423 114.556 232.139 116.112 232.139 116.112C232.139 116.112 230.923 116.817 230.13 116.468C229.338 116.12 228.945 115.392 229.083 114.768C229.22 114.144 229.836 113.86 230.628 114.208Z" fill="#9FE6E0"/>
<path d="M229.488 118.409C230.093 118.313 230.935 118.965 230.935 118.965C230.935 118.965 230.299 119.854 229.693 119.951C229.088 120.047 228.656 119.764 228.603 119.338C228.55 118.912 228.883 118.506 229.488 118.409Z" fill="#9FE6E0"/>
<path d="M239.803 112.669C239.267 112.491 238.731 111.504 238.731 111.504C238.731 111.504 239.505 110.952 240.042 111.13C240.579 111.308 240.866 111.766 240.801 112.19C240.735 112.614 240.339 112.847 239.803 112.669Z" fill="#9FE6E0"/>
<path d="M237.747 115.029C237.111 114.525 236.726 113.016 236.726 113.016C236.726 113.016 237.892 112.738 238.527 113.242C239.163 113.746 239.392 114.466 239.177 114.959C238.962 115.452 238.381 115.533 237.747 115.029Z" fill="#9FE6E0"/>
<path d="M235.038 118.249C234.498 117.431 234.499 115.697 234.499 115.697C234.499 115.697 235.82 115.958 236.36 116.775C236.901 117.592 236.949 118.443 236.584 118.85C236.219 119.256 235.578 119.066 235.038 118.249Z" fill="#9FE6E0"/>
<path d="M232.869 120.362C232.692 119.744 232.989 118.769 232.989 118.769C232.989 118.769 233.719 119.303 233.896 119.92C234.073 120.538 233.956 121.033 233.672 121.153C233.389 121.272 233.046 120.979 232.869 120.362Z" fill="#9FE6E0"/>
<path d="M228.937 136.506L228.765 136.47C228.778 134.095 228.918 131.722 229.185 129.362C229.601 125.662 230.525 120.453 232.566 116.655C234.607 112.856 236.486 111.154 237.699 110.398C239.023 109.571 239.888 109.88 239.888 109.88C239.888 109.88 239.054 109.802 237.764 110.611C236.57 111.359 234.724 113.038 232.708 116.79C230.685 120.555 229.768 125.729 229.355 129.407C229.088 131.764 228.948 134.134 228.937 136.506Z" fill="#9FE6E0"/>
<path d="M233.342 148.964C233.342 148.964 231.977 143.867 228.66 140.01C224.451 135.117 225.681 130.907 229.409 131.148C233.554 131.416 234.116 132.453 234.925 129.608C235.733 126.762 235.531 114.297 244.119 114.277C252.708 114.258 246.344 130.815 242.705 136.506C239.066 142.197 241.492 142.675 243.411 142.198C245.33 141.722 247.15 143.697 246.341 145.837C245.533 147.976 243.866 148.962 243.866 148.962L233.342 148.964Z" fill="#459991"/>
<path opacity="0.1" d="M237.601 135.189C237.177 133.659 235.747 132.073 234.441 130.88C234.412 130.93 234.382 130.977 234.352 131.021C235.698 132.258 237.165 133.909 237.484 135.466C236.61 137.565 236.021 139.526 236.021 141.267C236.024 143.857 236.317 146.439 236.895 148.964H237.077C236.497 146.44 236.202 143.858 236.199 141.267C236.199 140.171 236.436 138.984 236.835 137.729C237.119 137.526 240.543 135.119 244.079 134.08C244.111 134.017 244.144 133.955 244.176 133.891C240.931 134.807 237.759 136.894 236.918 137.473C237.677 135.176 238.943 132.656 240.256 130.045C240.309 129.939 240.362 129.833 240.415 129.727C242.773 129.631 244.865 129.186 246.401 128.753C246.423 128.693 246.444 128.633 246.466 128.573C244.521 129.136 242.516 129.47 240.493 129.569C240.722 129.114 240.95 128.656 241.178 128.197C241.636 128.144 244.732 127.762 247.002 127.009C247.022 126.946 247.041 126.884 247.062 126.821C244.943 127.544 241.964 127.944 241.259 128.032C242.494 125.525 243.643 122.999 244.284 120.593C244.703 120.576 246.902 120.425 248.394 119.059C248.391 118.986 248.386 118.915 248.381 118.843C246.983 120.224 244.832 120.412 244.323 120.437C244.355 120.314 244.388 120.191 244.417 120.066C245.037 117.44 245.203 115.622 245.163 114.369C245.103 114.357 245.042 114.348 244.981 114.339C245.025 115.575 244.866 117.39 244.239 120.036C243.978 121.106 243.644 122.158 243.241 123.183C242.63 123.003 238.796 121.792 237.184 119.339C237.157 119.401 237.131 119.464 237.104 119.527C238.788 121.951 242.568 123.147 243.184 123.328C242.327 125.525 241.196 127.778 240.088 129.982C239.189 131.776 238.31 133.524 237.601 135.189Z" fill="black"/>
<path opacity="0.1" d="M245.694 142.821C245.652 142.781 245.608 142.743 245.563 142.706C244.836 143.113 244.148 143.587 243.509 144.122C242.833 144.682 242.219 145.312 241.679 146.004C241.576 145.49 241.362 143.931 242.118 142.326C242.057 142.32 241.996 142.312 241.937 142.302C241.075 144.163 241.479 145.957 241.538 146.19C240.902 147.039 240.388 147.973 240.011 148.964H240.198C240.671 147.733 241.555 146.11 243.202 144.61C243.783 144.738 244.376 144.805 244.971 144.808C245.477 144.808 246.025 144.755 246.53 144.588C246.526 144.535 246.521 144.478 246.513 144.423C245.319 144.828 243.812 144.577 243.343 144.482C243.438 144.398 243.534 144.315 243.634 144.232C244.273 143.697 244.963 143.224 245.694 142.821Z" fill="black"/>
<path opacity="0.1" d="M227.086 131.778C228.427 132.311 229.891 133.187 231.069 134.628C231.635 135.316 232.137 136.185 232.585 137.149C231.826 136.968 228.729 136.27 226.406 136.33C226.424 136.38 226.44 136.431 226.458 136.481C228.928 136.428 232.272 137.232 232.666 137.329C233.461 139.084 234.077 141.144 234.566 143.089C234.087 142.927 232.583 142.501 230.593 142.708C230.622 142.757 230.651 142.806 230.68 142.854C232.812 142.646 234.355 143.176 234.612 143.272C234.694 143.6 234.772 143.924 234.846 144.243C233.686 143.851 232.455 143.713 231.237 143.841C231.263 143.889 231.29 143.938 231.314 143.987C232.523 143.868 233.743 144.017 234.888 144.422C235.114 145.396 235.308 146.312 235.476 147.108C235.635 147.861 235.769 148.489 235.886 148.965H236.07C235.952 148.488 235.817 147.852 235.653 147.08C234.893 143.491 233.62 137.483 231.215 134.54C230.037 133.1 228.579 132.216 227.232 131.671C227.184 131.705 227.134 131.741 227.086 131.778Z" fill="black"/>
<path d="M57.0761 147.974C57.0761 147.974 51.7532 177.329 57.006 190.141C64.0191 207.205 250.777 213.324 262.451 193.191C268.922 182.03 262.388 147.974 262.388 147.974H57.0761Z" fill="#4AA29A"/>
<path opacity="0.5" d="M126.928 70.2549H108.814C108.762 70.2558 108.711 70.243 108.665 70.2178C108.62 70.1926 108.582 70.1559 108.556 70.1114C108.529 70.0669 108.515 70.0161 108.514 69.9643C108.514 69.9125 108.527 69.8615 108.553 69.8164C108.7 69.5217 108.884 69.2463 109.099 68.9963C109.27 68.7962 109.484 68.636 109.724 68.5271C109.993 68.4063 110.23 68.2264 110.419 68.0009C110.858 67.5294 111.268 66.9045 112.221 66.5383C113.627 65.9902 115.226 66.8497 117.997 65.7578C120.768 64.6658 121.946 67.536 123.889 67.9811C124.241 68.0634 124.585 68.1749 124.918 68.3144C125.355 68.5021 125.774 68.7304 126.169 68.9963C126.5 69.2199 126.816 69.4653 127.114 69.7309C127.164 69.7683 127.2 69.8204 127.218 69.8798C127.235 69.9392 127.234 70.0028 127.213 70.0612C127.192 70.1196 127.153 70.1699 127.102 70.2047C127.051 70.2396 126.99 70.2571 126.928 70.2549Z" fill="#9FE6E0"/>
<path opacity="0.5" d="M179.252 44.7004H160.344C160.078 43.683 159.894 43.4177 159.993 43.1655C160.185 42.6678 160.46 42.206 160.806 41.7995C161.039 41.5193 161.327 41.2896 161.652 41.1245C161.977 40.9593 162.332 40.8622 162.695 40.8391C164.907 40.7163 165.091 38.8109 167.364 38.4118C169.636 38.0128 171.723 39.7954 172.89 39.7274C174.057 39.6594 175.724 40.0256 176.821 41.0189C177.521 41.6416 178.269 41.8148 178.894 42.317C179.171 42.5394 179.402 42.8134 179.574 43.1239C179.723 43.3738 179.539 43.683 179.252 44.7004Z" fill="#9FE6E0"/>
<path opacity="0.8" d="M219.595 57.2886H195.641C195.562 57.2882 195.486 57.2641 195.421 57.2193C195.357 57.1746 195.308 57.1113 195.28 57.038C195.252 56.9646 195.247 56.8845 195.266 56.8083C195.284 56.7321 195.326 56.6634 195.384 56.6111C196.01 56.0485 196.698 55.5593 197.435 55.153C198.13 54.7659 198.876 54.478 199.651 54.2978C202.233 53.7058 203.78 49.9125 207.446 51.3553C211.111 52.7981 213.228 51.6645 215.087 52.388C216.414 52.9033 216.951 53.787 217.561 54.4184C217.792 54.6747 218.075 54.8795 218.39 55.0192C219.112 55.3152 219.647 56.155 219.941 56.7251C219.971 56.7843 219.986 56.8502 219.983 56.9165C219.98 56.9828 219.961 57.0473 219.926 57.1038C219.891 57.1603 219.842 57.207 219.784 57.2393C219.726 57.2717 219.661 57.2887 219.595 57.2886Z" fill="white"/>
<path d="M217.561 54.4228C216.01 54.9096 214.4 55.1832 212.774 55.2363C208.168 55.4424 204.93 54.322 201.832 54.6421C200.467 54.7824 198.837 54.9951 197.444 55.153C198.139 54.7659 198.885 54.478 199.66 54.2978C202.242 53.7058 203.789 49.9125 207.455 51.3553C211.12 52.7981 213.237 51.6645 215.096 52.388C216.414 52.9033 216.943 53.7869 217.561 54.4228Z" fill="white"/>
<path opacity="0.8" d="M138.103 47.8169H115.068C115.025 47.8164 114.982 47.8056 114.943 47.7854C114.905 47.7652 114.871 47.7362 114.846 47.7007C114.821 47.6652 114.804 47.6243 114.798 47.5812C114.792 47.5381 114.795 47.4942 114.809 47.4529C115.165 46.396 116.253 46.0255 117.045 45.1396C117.111 45.0651 117.181 44.9949 117.249 44.9204C118.085 44.0959 119.1 43.7582 120.866 43.6859C123.87 43.5653 123.499 41.5195 127.112 41.5195C130.725 41.5195 129.9 43.0149 133.463 43.4798C135.163 43.699 136.396 44.6989 137.221 45.6724C137.667 46.2048 138.049 46.7877 138.359 47.409C138.384 47.4519 138.397 47.5009 138.396 47.5505C138.395 47.6001 138.381 47.6486 138.355 47.6906C138.328 47.7326 138.291 47.7666 138.246 47.7889C138.202 47.8111 138.152 47.8208 138.103 47.8169Z" fill="white"/>
<path d="M137.21 45.6878C135.565 45.7861 133.914 45.6734 132.298 45.3523C129.856 44.802 128.066 45.3523 123.043 45.8676C120.386 46.1417 118.462 45.5497 117.238 44.9291C118.074 44.1047 119.089 43.767 120.855 43.6947C123.859 43.5741 123.488 41.5283 127.101 41.5283C130.714 41.5283 129.889 43.0237 133.452 43.4886C135.152 43.71 136.385 44.7077 137.21 45.6878Z" fill="white"/>
<path opacity="0.8" d="M117.413 57.3859H97.1231C97.1041 57.3855 97.0856 57.3803 97.0691 57.3709C97.0526 57.3616 97.0387 57.3482 97.0287 57.3321C97.0186 57.316 97.0128 57.2976 97.0117 57.2787C97.0105 57.2597 97.0142 57.2408 97.0222 57.2236C97.3918 56.522 98.0121 55.985 98.7597 55.7195C99.109 55.5894 99.4729 55.5025 99.8434 55.4607C102.184 55.1844 102.461 53.825 104.387 53.472C106.313 53.119 108.103 54.0903 110.029 53.779C111.955 53.4676 113.405 55.0441 114.366 55.3906C114.805 55.5484 115.391 55.6931 115.952 55.9409C116.594 56.1874 117.139 56.6332 117.508 57.2127C117.518 57.2297 117.524 57.2492 117.524 57.2692C117.525 57.2891 117.52 57.3089 117.51 57.3264C117.501 57.344 117.487 57.3587 117.47 57.3691C117.453 57.3796 117.433 57.3853 117.413 57.3859Z" fill="white"/>
<path d="M115.952 55.9404C114.335 56.1912 112.691 56.2281 111.064 56.0501C108.195 55.6758 105.287 55.7105 102.428 56.1531C101.188 56.3613 99.9149 56.2091 98.7595 55.7146C99.1089 55.5845 99.4728 55.4976 99.8432 55.4558C102.184 55.1796 102.46 53.8201 104.387 53.4671C106.313 53.1141 108.103 54.0854 110.029 53.7741C111.955 53.4627 113.405 55.0392 114.366 55.3857C114.814 55.5479 115.395 55.6927 115.952 55.9404Z" fill="white"/>
<path d="M229.716 70.1671C230.309 70.1671 230.789 69.6868 230.789 69.0943C230.789 68.5018 230.309 68.0215 229.716 68.0215C229.124 68.0215 228.644 68.5018 228.644 69.0943C228.644 69.6868 229.124 70.1671 229.716 70.1671Z" fill="#9FE7E0"/>
<path d="M229.716 74.1144C230.309 74.1144 230.789 73.6341 230.789 73.0416C230.789 72.4491 230.309 71.9688 229.716 71.9688C229.124 71.9688 228.644 72.4491 228.644 73.0416C228.644 73.6341 229.124 74.1144 229.716 74.1144Z" fill="#9FE7E0"/>
<path d="M229.716 78.0626C230.309 78.0626 230.789 77.5823 230.789 76.9898C230.789 76.3973 230.309 75.917 229.716 75.917C229.124 75.917 228.644 76.3973 228.644 76.9898C228.644 77.5823 229.124 78.0626 229.716 78.0626Z" fill="#9FE7E0"/>
<path d="M229.716 82.0099C230.309 82.0099 230.789 81.5296 230.789 80.9371C230.789 80.3446 230.309 79.8643 229.716 79.8643C229.124 79.8643 228.644 80.3446 228.644 80.9371C228.644 81.5296 229.124 82.0099 229.716 82.0099Z" fill="#9FE7E0"/>
<path d="M229.716 85.9581C230.309 85.9581 230.789 85.4778 230.789 84.8853C230.789 84.2928 230.309 83.8125 229.716 83.8125C229.124 83.8125 228.644 84.2928 228.644 84.8853C228.644 85.4778 229.124 85.9581 229.716 85.9581Z" fill="#9FE7E0"/>
<path d="M229.716 89.9054C230.309 89.9054 230.789 89.4251 230.789 88.8326C230.789 88.2401 230.309 87.7598 229.716 87.7598C229.124 87.7598 228.644 88.2401 228.644 88.8326C228.644 89.4251 229.124 89.9054 229.716 89.9054Z" fill="#9FE7E0"/>
<path d="M229.716 93.8537C230.309 93.8537 230.789 93.3733 230.789 92.7808C230.789 92.1883 230.309 91.708 229.716 91.708C229.124 91.708 228.644 92.1883 228.644 92.7808C228.644 93.3733 229.124 93.8537 229.716 93.8537Z" fill="#9FE7E0"/>
<path d="M225.917 70.1671C226.509 70.1671 226.99 69.6868 226.99 69.0943C226.99 68.5018 226.509 68.0215 225.917 68.0215C225.325 68.0215 224.844 68.5018 224.844 69.0943C224.844 69.6868 225.325 70.1671 225.917 70.1671Z" fill="#9FE7E0"/>
<path d="M225.917 74.1144C226.509 74.1144 226.99 73.6341 226.99 73.0416C226.99 72.4491 226.509 71.9688 225.917 71.9688C225.325 71.9688 224.844 72.4491 224.844 73.0416C224.844 73.6341 225.325 74.1144 225.917 74.1144Z" fill="#9FE7E0"/>
<path d="M225.917 78.0626C226.509 78.0626 226.99 77.5823 226.99 76.9898C226.99 76.3973 226.509 75.917 225.917 75.917C225.325 75.917 224.844 76.3973 224.844 76.9898C224.844 77.5823 225.325 78.0626 225.917 78.0626Z" fill="#9FE7E0"/>
<path d="M225.917 82.0099C226.509 82.0099 226.99 81.5296 226.99 80.9371C226.99 80.3446 226.509 79.8643 225.917 79.8643C225.325 79.8643 224.844 80.3446 224.844 80.9371C224.844 81.5296 225.325 82.0099 225.917 82.0099Z" fill="#9FE7E0"/>
<path d="M225.917 85.9581C226.509 85.9581 226.99 85.4778 226.99 84.8853C226.99 84.2928 226.509 83.8125 225.917 83.8125C225.325 83.8125 224.844 84.2928 224.844 84.8853C224.844 85.4778 225.325 85.9581 225.917 85.9581Z" fill="#9FE7E0"/>
<path d="M225.917 89.9054C226.509 89.9054 226.99 89.4251 226.99 88.8326C226.99 88.2401 226.509 87.7598 225.917 87.7598C225.325 87.7598 224.844 88.2401 224.844 88.8326C224.844 89.4251 225.325 89.9054 225.917 89.9054Z" fill="#9FE7E0"/>
<path d="M225.917 93.8537C226.509 93.8537 226.99 93.3733 226.99 92.7808C226.99 92.1883 226.509 91.708 225.917 91.708C225.325 91.708 224.844 92.1883 224.844 92.7808C224.844 93.3733 225.325 93.8537 225.917 93.8537Z" fill="#9FE7E0"/>
<path d="M222.118 70.1681C222.71 70.1681 223.19 69.6878 223.19 69.0953C223.19 68.5028 222.71 68.0225 222.118 68.0225C221.525 68.0225 221.045 68.5028 221.045 69.0953C221.045 69.6878 221.525 70.1681 222.118 70.1681Z" fill="#9FE7E0"/>
<path d="M222.118 74.1144C222.71 74.1144 223.19 73.6341 223.19 73.0416C223.19 72.4491 222.71 71.9688 222.118 71.9688C221.525 71.9688 221.045 72.4491 221.045 73.0416C221.045 73.6341 221.525 74.1144 222.118 74.1144Z" fill="#9FE7E0"/>
<path d="M222.118 78.0626C222.71 78.0626 223.19 77.5823 223.19 76.9898C223.19 76.3973 222.71 75.917 222.118 75.917C221.525 75.917 221.045 76.3973 221.045 76.9898C221.045 77.5823 221.525 78.0626 222.118 78.0626Z" fill="#9FE7E0"/>
<path d="M222.118 82.0099C222.71 82.0099 223.19 81.5296 223.19 80.9371C223.19 80.3446 222.71 79.8643 222.118 79.8643C221.525 79.8643 221.045 80.3446 221.045 80.9371C221.045 81.5296 221.525 82.0099 222.118 82.0099Z" fill="#9FE7E0"/>
<path d="M222.118 85.9581C222.71 85.9581 223.19 85.4778 223.19 84.8853C223.19 84.2928 222.71 83.8125 222.118 83.8125C221.525 83.8125 221.045 84.2928 221.045 84.8853C221.045 85.4778 221.525 85.9581 222.118 85.9581Z" fill="#9FE7E0"/>
<path d="M222.118 89.9054C222.71 89.9054 223.19 89.4251 223.19 88.8326C223.19 88.2401 222.71 87.7598 222.118 87.7598C221.525 87.7598 221.045 88.2401 221.045 88.8326C221.045 89.4251 221.525 89.9054 222.118 89.9054Z" fill="#9FE7E0"/>
<path d="M222.118 93.8537C222.71 93.8537 223.19 93.3733 223.19 92.7808C223.19 92.1883 222.71 91.708 222.118 91.708C221.525 91.708 221.045 92.1883 221.045 92.7808C221.045 93.3733 221.525 93.8537 222.118 93.8537Z" fill="#9FE7E0"/>
<path d="M151.771 148.521C151.771 148.521 150.406 143.424 147.09 139.568C142.88 134.674 144.11 130.465 147.838 130.706C151.983 130.973 152.546 132.011 153.354 129.166C154.162 126.32 153.961 113.855 162.549 113.835C171.137 113.815 164.774 130.373 161.134 136.064C157.495 141.755 159.922 142.233 161.841 141.756C163.759 141.279 165.579 143.255 164.771 145.394C163.962 147.533 162.295 148.52 162.295 148.52L151.771 148.521Z" fill="#459991"/>
<path opacity="0.1" d="M156.03 134.747C155.606 133.217 154.176 131.63 152.871 130.438C152.842 130.488 152.811 130.535 152.781 130.579C154.128 131.816 155.594 133.467 155.914 135.024C155.04 137.123 154.45 139.084 154.45 140.825C154.453 143.415 154.747 145.997 155.325 148.522H155.507C154.926 145.997 154.632 143.415 154.628 140.825C154.628 139.729 154.866 138.542 155.264 137.286C155.549 137.083 158.972 134.677 162.509 133.638C162.541 133.575 162.573 133.513 162.605 133.449C159.361 134.365 156.189 136.451 155.348 137.03C156.106 134.733 157.373 132.214 158.685 129.602C158.738 129.496 158.791 129.39 158.844 129.284C161.202 129.188 163.294 128.744 164.83 128.311C164.853 128.251 164.874 128.191 164.896 128.13C162.95 128.693 160.946 129.028 158.923 129.127C159.152 128.671 159.38 128.214 159.608 127.755C160.065 127.702 163.161 127.319 165.431 126.567C165.451 126.504 165.471 126.441 165.491 126.379C163.372 127.102 160.394 127.502 159.689 127.589C160.923 125.083 162.073 122.556 162.714 120.15C163.132 120.134 165.332 119.982 166.824 118.617C166.821 118.544 166.815 118.472 166.811 118.4C165.412 119.782 163.261 119.97 162.753 119.995C162.785 119.872 162.817 119.749 162.847 119.624C163.467 116.998 163.633 115.18 163.592 113.927C163.533 113.915 163.472 113.905 163.41 113.896C163.455 115.132 163.296 116.948 162.669 119.594C162.407 120.664 162.074 121.715 161.67 122.74C161.06 122.561 157.225 121.35 155.614 118.896C155.586 118.959 155.561 119.022 155.533 119.085C157.218 121.509 160.998 122.704 161.614 122.885C160.757 125.083 159.625 127.336 158.517 129.54C157.618 131.334 156.74 133.082 156.03 134.747Z" fill="black"/>
<path opacity="0.1" d="M164.123 142.379C164.081 142.339 164.037 142.301 163.992 142.264C163.265 142.67 162.577 143.145 161.938 143.68C161.262 144.239 160.649 144.87 160.109 145.562C160.006 145.048 159.791 143.488 160.547 141.884C160.486 141.878 160.426 141.869 160.367 141.859C159.505 143.721 159.909 145.515 159.967 145.748C159.331 146.596 158.817 147.53 158.441 148.522H158.628C159.1 147.29 159.984 145.668 161.631 144.168C162.212 144.296 162.805 144.362 163.4 144.365C163.907 144.365 164.455 144.312 164.96 144.145C164.956 144.092 164.95 144.035 164.943 143.981C163.749 144.386 162.241 144.135 161.773 144.039C161.868 143.956 161.964 143.873 162.063 143.79C162.703 143.254 163.393 142.782 164.123 142.379Z" fill="black"/>
<path opacity="0.1" d="M145.516 131.336C146.856 131.869 148.321 132.744 149.499 134.185C150.064 134.874 150.566 135.742 151.014 136.707C150.255 136.526 147.158 135.828 144.835 135.887C144.854 135.938 144.87 135.988 144.888 136.039C147.358 135.986 150.702 136.789 151.096 136.887C151.89 138.641 152.506 140.701 152.996 142.647C152.516 142.485 151.012 142.059 149.023 142.266C149.052 142.314 149.08 142.363 149.11 142.411C151.242 142.204 152.785 142.733 153.041 142.829C153.124 143.158 153.202 143.482 153.275 143.801C152.115 143.408 150.884 143.271 149.666 143.398C149.693 143.447 149.719 143.496 149.743 143.545C150.952 143.426 152.173 143.575 153.318 143.98C153.544 144.954 153.737 145.869 153.906 146.666C154.065 147.418 154.199 148.047 154.315 148.522H154.499C154.381 148.046 154.246 147.41 154.083 146.638C153.322 143.048 152.05 137.04 149.645 134.098C148.467 132.658 147.008 131.774 145.662 131.229C145.613 131.263 145.563 131.298 145.516 131.336Z" fill="black"/>
<path d="M210.104 158.292C209.6 158.521 206.783 158.413 204.499 158.426C202.728 158.438 202.314 157.922 202.685 157.521C202.819 157.388 202.982 157.288 203.161 157.228C203.862 156.948 204.544 156.621 205.202 156.251V140.651H207.212L207.234 141.62L207.58 156.251C207.58 156.251 211.458 157.681 210.104 158.292Z" fill="#3C857E"/>
<path d="M210.104 158.292C209.6 158.521 206.783 158.413 204.499 158.426C202.728 158.438 202.314 157.922 202.685 157.522C204.641 158.085 207.927 157.843 207.927 157.573C207.927 157.245 207.191 157.121 206.946 156.67C206.701 156.22 206.636 141.66 206.636 141.66L207.238 141.617L207.584 156.248C207.584 156.248 211.458 157.681 210.104 158.292Z" fill="#34726C"/>
<path d="M217.328 143.185L190.545 142.484L195.404 117.387H221.893L217.328 143.185Z" fill="#34726C"/>
<path d="M216.849 142.628L191.221 141.957L195.87 117.941H221.218L216.849 142.628Z" fill="#5FBAB2"/>
<path d="M194.941 142.264C194.928 142.265 194.914 142.265 194.901 142.264C194.849 142.254 194.804 142.223 194.774 142.179C194.745 142.135 194.734 142.081 194.745 142.029L199.658 117.908C199.662 117.881 199.672 117.855 199.686 117.832C199.7 117.809 199.719 117.789 199.741 117.773C199.763 117.757 199.789 117.746 199.815 117.741C199.842 117.735 199.87 117.735 199.896 117.74C199.923 117.746 199.948 117.756 199.971 117.772C199.993 117.788 200.012 117.807 200.027 117.831C200.041 117.854 200.051 117.879 200.055 117.906C200.059 117.933 200.057 117.961 200.05 117.987L195.137 142.104C195.128 142.149 195.103 142.19 195.068 142.219C195.032 142.248 194.987 142.264 194.941 142.264Z" fill="#71D3CA"/>
<path d="M199.21 142.421C199.197 142.423 199.183 142.423 199.17 142.421C199.144 142.416 199.119 142.406 199.098 142.391C199.076 142.377 199.057 142.358 199.043 142.336C199.028 142.314 199.018 142.29 199.013 142.264C199.009 142.238 199.009 142.212 199.014 142.186L203.958 117.902C203.962 117.875 203.971 117.849 203.985 117.826C204 117.803 204.018 117.783 204.041 117.767C204.063 117.751 204.088 117.74 204.115 117.735C204.142 117.729 204.169 117.729 204.196 117.734C204.223 117.74 204.248 117.751 204.27 117.766C204.293 117.782 204.312 117.802 204.326 117.825C204.341 117.848 204.35 117.874 204.354 117.901C204.358 117.927 204.357 117.955 204.35 117.981L199.404 142.262C199.395 142.307 199.371 142.347 199.336 142.376C199.3 142.405 199.256 142.421 199.21 142.421Z" fill="#71D3CA"/>
<path d="M203.496 142.499C203.483 142.5 203.47 142.5 203.456 142.499C203.431 142.494 203.406 142.484 203.384 142.469C203.362 142.454 203.344 142.436 203.329 142.414C203.315 142.392 203.305 142.367 203.3 142.341C203.295 142.316 203.295 142.289 203.3 142.263L208.261 117.908C208.264 117.881 208.274 117.855 208.288 117.832C208.302 117.809 208.321 117.789 208.343 117.773C208.366 117.757 208.391 117.746 208.418 117.741C208.444 117.735 208.472 117.735 208.499 117.74C208.525 117.746 208.551 117.756 208.573 117.772C208.595 117.788 208.614 117.807 208.629 117.831C208.643 117.854 208.653 117.879 208.657 117.906C208.661 117.933 208.66 117.961 208.653 117.987L203.692 142.343C203.682 142.387 203.657 142.427 203.622 142.455C203.586 142.484 203.542 142.499 203.496 142.499Z" fill="#71D3CA"/>
<path d="M207.798 142.498C207.784 142.5 207.771 142.5 207.757 142.498C207.731 142.493 207.707 142.483 207.685 142.468C207.663 142.454 207.645 142.435 207.63 142.413C207.616 142.391 207.606 142.367 207.601 142.341C207.596 142.315 207.596 142.288 207.602 142.263L212.562 117.907C212.575 117.858 212.607 117.815 212.65 117.788C212.694 117.761 212.746 117.752 212.796 117.762C212.846 117.772 212.89 117.801 212.92 117.843C212.949 117.884 212.962 117.936 212.954 117.987L207.994 142.342C207.984 142.386 207.959 142.426 207.923 142.455C207.888 142.483 207.843 142.498 207.798 142.498Z" fill="#71D3CA"/>
<path d="M212.058 142.703C212.044 142.705 212.031 142.705 212.017 142.703C211.965 142.693 211.919 142.662 211.89 142.618C211.861 142.574 211.85 142.52 211.861 142.468L216.878 117.835C216.889 117.783 216.92 117.737 216.964 117.708C217.008 117.679 217.063 117.668 217.115 117.679C217.141 117.684 217.165 117.694 217.187 117.709C217.209 117.724 217.227 117.743 217.242 117.765C217.256 117.787 217.266 117.811 217.271 117.837C217.276 117.863 217.276 117.89 217.27 117.915L212.253 142.543C212.244 142.588 212.22 142.629 212.184 142.658C212.148 142.687 212.104 142.703 212.058 142.703Z" fill="#71D3CA"/>
<path d="M217.694 138.056H192.37C192.317 138.056 192.266 138.035 192.229 137.998C192.191 137.961 192.17 137.91 192.17 137.857C192.17 137.805 192.191 137.754 192.229 137.717C192.266 137.679 192.317 137.658 192.37 137.658H217.694C217.747 137.658 217.798 137.679 217.835 137.717C217.873 137.754 217.894 137.805 217.894 137.857C217.894 137.91 217.873 137.961 217.835 137.998C217.798 138.035 217.747 138.056 217.694 138.056Z" fill="#71D3CA"/>
<path d="M218.4 134.058H192.752C192.699 134.058 192.649 134.037 192.611 134C192.574 133.963 192.553 133.912 192.553 133.859C192.553 133.806 192.574 133.756 192.611 133.718C192.649 133.681 192.699 133.66 192.752 133.66H218.4C218.453 133.66 218.504 133.681 218.541 133.718C218.579 133.756 218.6 133.806 218.6 133.859C218.6 133.912 218.579 133.963 218.541 134C218.504 134.037 218.453 134.058 218.4 134.058Z" fill="#71D3CA"/>
<path d="M219.056 130.067H193.566C193.515 130.063 193.468 130.04 193.434 130.004C193.4 129.967 193.381 129.918 193.381 129.868C193.381 129.818 193.4 129.769 193.434 129.733C193.468 129.696 193.515 129.673 193.566 129.669H219.065C219.092 129.667 219.12 129.671 219.145 129.68C219.171 129.689 219.195 129.704 219.215 129.722C219.235 129.741 219.251 129.763 219.262 129.789C219.273 129.814 219.279 129.841 219.279 129.868C219.279 129.895 219.273 129.923 219.262 129.948C219.251 129.973 219.235 129.995 219.215 130.014C219.195 130.033 219.171 130.047 219.145 130.056C219.12 130.065 219.092 130.069 219.065 130.067H219.056Z" fill="#71D3CA"/>
<path d="M219.807 126.072H194.335C194.282 126.072 194.231 126.051 194.194 126.014C194.156 125.976 194.135 125.926 194.135 125.873C194.135 125.82 194.156 125.769 194.194 125.732C194.231 125.695 194.282 125.674 194.335 125.674H219.807C219.86 125.674 219.911 125.695 219.948 125.732C219.985 125.769 220.006 125.82 220.006 125.873C220.006 125.926 219.985 125.976 219.948 126.014C219.911 126.051 219.86 126.072 219.807 126.072Z" fill="#71D3CA"/>
<path d="M220.414 122.077H195.016C194.963 122.077 194.913 122.056 194.875 122.019C194.838 121.981 194.817 121.931 194.817 121.878C194.817 121.825 194.838 121.774 194.875 121.737C194.913 121.7 194.963 121.679 195.016 121.679H220.414C220.467 121.679 220.517 121.7 220.555 121.737C220.592 121.774 220.613 121.825 220.613 121.878C220.613 121.931 220.592 121.981 220.555 122.019C220.517 122.056 220.467 122.077 220.414 122.077Z" fill="#71D3CA"/>
<path opacity="0.3" d="M196.835 118.84C196.068 119.234 194.66 127.699 194.929 128.03C195.198 128.36 197.353 121.655 198.347 120.724C199.341 119.793 204.768 119.975 205.514 119.606C206.259 119.238 206.321 118.778 206.321 118.778C206.321 118.778 197.601 118.447 196.835 118.84Z" fill="white"/>
<path opacity="0.3" d="M215.158 141.241C215.934 140.867 217.554 132.44 217.294 132.101C217.033 131.763 214.71 138.418 213.694 139.32C212.677 140.223 207.256 139.904 206.5 140.258C205.745 140.612 205.672 141.065 205.672 141.065C205.672 141.065 214.382 141.614 215.158 141.241Z" fill="white"/>
<path d="M169.503 159.207C170.114 159.484 173.521 159.353 176.284 159.369C178.427 159.383 178.927 158.759 178.479 158.275C178.317 158.114 178.12 157.992 177.903 157.92C177.055 157.581 176.23 157.186 175.434 156.737V137.867H173.003L172.976 139.039L172.557 156.737C172.557 156.737 167.866 158.467 169.503 159.207Z" fill="#3C857E"/>
<path d="M169.503 159.207C170.114 159.484 173.521 159.353 176.284 159.369C178.427 159.383 178.927 158.759 178.479 158.274C176.112 158.956 172.137 158.663 172.137 158.337C172.137 157.94 173.027 157.79 173.324 157.245C173.621 156.7 173.699 139.087 173.699 139.087L172.97 139.035L172.552 156.733C172.552 156.733 167.866 158.467 169.503 159.207Z" fill="#34726C"/>
<path d="M160.765 140.933L193.164 140.084L187.286 109.725H155.243L160.765 140.933Z" fill="#34726C"/>
<path d="M161.345 140.26L192.346 139.449L186.723 110.397H156.06L161.345 140.26Z" fill="#5FBAB2"/>
<path d="M187.846 139.818C187.862 139.819 187.878 139.819 187.894 139.818C187.957 139.805 188.012 139.768 188.048 139.714C188.083 139.661 188.096 139.596 188.084 139.533L182.14 110.354C182.135 110.321 182.124 110.29 182.107 110.262C182.089 110.234 182.067 110.21 182.04 110.191C182.013 110.172 181.982 110.158 181.95 110.152C181.918 110.145 181.884 110.145 181.852 110.151C181.82 110.158 181.789 110.171 181.762 110.19C181.735 110.208 181.712 110.233 181.694 110.26C181.677 110.288 181.665 110.32 181.66 110.352C181.656 110.385 181.657 110.418 181.666 110.45L187.609 139.623C187.62 139.678 187.65 139.727 187.693 139.763C187.736 139.798 187.791 139.818 187.846 139.818Z" fill="#71D3CA"/>
<path d="M182.682 140.009C182.698 140.011 182.715 140.011 182.731 140.009C182.762 140.003 182.792 139.99 182.818 139.973C182.845 139.955 182.867 139.932 182.885 139.906C182.902 139.879 182.914 139.849 182.92 139.818C182.926 139.787 182.926 139.755 182.919 139.724L176.939 110.348C176.934 110.316 176.923 110.284 176.906 110.256C176.889 110.228 176.866 110.204 176.839 110.185C176.812 110.166 176.781 110.153 176.749 110.146C176.717 110.139 176.684 110.139 176.651 110.145C176.619 110.152 176.588 110.165 176.561 110.184C176.534 110.203 176.511 110.227 176.494 110.255C176.476 110.283 176.465 110.314 176.46 110.346C176.455 110.379 176.456 110.412 176.465 110.444L182.447 139.816C182.459 139.87 182.488 139.918 182.531 139.954C182.573 139.989 182.627 140.008 182.682 140.009Z" fill="#71D3CA"/>
<path d="M177.498 140.101C177.514 140.103 177.53 140.103 177.546 140.101C177.577 140.095 177.606 140.083 177.633 140.065C177.659 140.047 177.682 140.025 177.7 139.998C177.717 139.972 177.729 139.942 177.735 139.911C177.741 139.88 177.741 139.848 177.735 139.816L171.734 110.354C171.729 110.321 171.718 110.29 171.701 110.262C171.684 110.234 171.661 110.21 171.634 110.191C171.607 110.172 171.576 110.158 171.544 110.152C171.512 110.145 171.478 110.145 171.446 110.151C171.414 110.158 171.383 110.171 171.356 110.19C171.329 110.208 171.306 110.233 171.289 110.26C171.271 110.288 171.26 110.32 171.255 110.352C171.25 110.385 171.251 110.418 171.26 110.45L177.26 139.912C177.273 139.966 177.303 140.014 177.346 140.048C177.389 140.083 177.442 140.101 177.498 140.101Z" fill="#71D3CA"/>
<path d="M172.294 140.101C172.31 140.103 172.327 140.103 172.343 140.101C172.374 140.095 172.404 140.082 172.43 140.065C172.456 140.047 172.479 140.024 172.497 139.998C172.514 139.971 172.526 139.942 172.532 139.91C172.538 139.879 172.537 139.847 172.531 139.816L166.53 110.354C166.514 110.294 166.477 110.242 166.424 110.21C166.371 110.177 166.308 110.165 166.248 110.178C166.187 110.19 166.133 110.225 166.098 110.275C166.062 110.326 166.047 110.388 166.056 110.45L172.057 139.912C172.069 139.966 172.099 140.014 172.142 140.048C172.185 140.082 172.239 140.101 172.294 140.101Z" fill="#71D3CA"/>
<path d="M167.141 140.35C167.157 140.352 167.174 140.352 167.19 140.35C167.253 140.337 167.308 140.3 167.344 140.246C167.379 140.193 167.392 140.128 167.379 140.065L161.31 110.267C161.297 110.204 161.259 110.149 161.206 110.114C161.152 110.078 161.087 110.065 161.023 110.078C160.992 110.084 160.963 110.097 160.936 110.115C160.91 110.132 160.887 110.155 160.87 110.182C160.852 110.209 160.84 110.238 160.834 110.27C160.829 110.301 160.829 110.333 160.836 110.364L166.905 140.155C166.916 140.21 166.945 140.259 166.988 140.295C167.031 140.33 167.085 140.35 167.141 140.35Z" fill="#71D3CA"/>
<path d="M160.322 134.729H190.957C191.021 134.729 191.082 134.703 191.127 134.658C191.173 134.613 191.198 134.552 191.198 134.488C191.198 134.424 191.173 134.363 191.127 134.318C191.082 134.272 191.021 134.247 190.957 134.247H160.322C160.258 134.247 160.197 134.272 160.152 134.318C160.107 134.363 160.081 134.424 160.081 134.488C160.081 134.552 160.107 134.613 160.152 134.658C160.197 134.703 160.258 134.729 160.322 134.729Z" fill="#71D3CA"/>
<path d="M159.468 129.892H190.494C190.558 129.892 190.62 129.867 190.665 129.821C190.71 129.776 190.735 129.715 190.735 129.651C190.735 129.587 190.71 129.526 190.665 129.481C190.62 129.436 190.558 129.41 190.494 129.41H159.468C159.404 129.41 159.343 129.436 159.298 129.481C159.253 129.526 159.227 129.587 159.227 129.651C159.227 129.715 159.253 129.776 159.298 129.821C159.343 129.867 159.404 129.892 159.468 129.892Z" fill="#71D3CA"/>
<path d="M158.675 125.063H189.51C189.571 125.059 189.628 125.031 189.669 124.987C189.711 124.942 189.734 124.884 189.734 124.823C189.734 124.762 189.711 124.704 189.669 124.659C189.628 124.614 189.571 124.587 189.51 124.583H158.665C158.631 124.58 158.598 124.585 158.567 124.596C158.536 124.607 158.507 124.624 158.483 124.646C158.458 124.669 158.439 124.696 158.426 124.727C158.413 124.757 158.406 124.79 158.406 124.823C158.406 124.856 158.413 124.889 158.426 124.919C158.439 124.95 158.458 124.977 158.483 124.999C158.507 125.022 158.536 125.039 158.567 125.05C158.598 125.061 158.631 125.066 158.665 125.063H158.675Z" fill="#71D3CA"/>
<path d="M157.766 120.232H188.58C188.644 120.232 188.705 120.206 188.75 120.161C188.796 120.116 188.821 120.055 188.821 119.991C188.821 119.927 188.796 119.866 188.75 119.821C188.705 119.775 188.644 119.75 188.58 119.75H157.766C157.702 119.75 157.641 119.775 157.596 119.821C157.551 119.866 157.525 119.927 157.525 119.991C157.525 120.055 157.551 120.116 157.596 120.161C157.641 120.206 157.702 120.232 157.766 120.232Z" fill="#71D3CA"/>
<path d="M157.033 115.399H187.756C187.819 115.399 187.881 115.373 187.926 115.328C187.971 115.283 187.997 115.222 187.997 115.158C187.997 115.094 187.971 115.033 187.926 114.988C187.881 114.942 187.819 114.917 187.756 114.917H157.033C156.969 114.917 156.907 114.942 156.862 114.988C156.817 115.033 156.792 115.094 156.792 115.158C156.792 115.222 156.817 115.283 156.862 115.328C156.907 115.373 156.969 115.399 157.033 115.399Z" fill="#71D3CA"/>
<path opacity="0.3" d="M185.555 111.484C186.483 111.96 188.186 122.2 187.861 122.6C187.535 123 184.929 114.89 183.726 113.763C182.524 112.636 175.959 112.856 175.057 112.411C174.155 111.965 174.08 111.409 174.08 111.409C174.08 111.409 184.628 111.008 185.555 111.484Z" fill="white"/>
<path opacity="0.3" d="M163.39 138.582C162.452 138.13 160.492 127.935 160.807 127.526C161.122 127.117 163.932 135.167 165.162 136.258C166.392 137.35 172.95 136.964 173.863 137.393C174.777 137.821 174.865 138.369 174.865 138.369C174.865 138.369 164.33 139.034 163.39 138.582Z" fill="white"/>
<path d="M98.2323 118.611C98.2323 118.611 96.8341 118.166 96.5558 118.186C96.5558 118.186 96.3688 118.186 96.44 118.364C96.5113 118.542 98.1388 118.97 98.1388 118.97L98.2323 118.611Z" fill="#FF8C79"/>
<path d="M98.0941 119.001C98.0941 119.001 96.6714 118.645 96.3976 118.678C96.3976 118.678 96.2106 118.691 96.2929 118.863C96.3753 119.034 98.0251 119.366 98.0251 119.366L98.0941 119.001Z" fill="#FF8C79"/>
<path d="M98.1499 119.51C98.1499 119.51 96.7272 119.154 96.4511 119.188C96.429 119.187 96.407 119.192 96.3876 119.203C96.3683 119.214 96.3523 119.23 96.3415 119.249C96.3306 119.269 96.3254 119.29 96.3263 119.313C96.3272 119.335 96.3341 119.356 96.3465 119.375C96.4422 119.573 98.0787 119.875 98.0787 119.875L98.1499 119.51Z" fill="#FF8C79"/>
<path d="M104.74 125.541C104.74 125.677 104.762 125.806 104.778 125.924C104.8 126.088 104.829 126.233 104.854 126.344C104.889 126.509 104.92 126.604 104.92 126.604C105.041 126.569 105.159 126.535 105.274 126.498C105.426 126.453 105.573 126.404 105.72 126.355L105.806 126.324C105.922 126.284 106.029 126.246 106.149 126.204C106.27 126.162 106.408 126.108 106.535 126.059C106.556 126.053 106.577 126.044 106.597 126.033C106.724 125.986 106.851 125.935 106.973 125.883C107.323 125.737 107.654 125.583 107.973 125.438L108.195 125.329L108.418 125.218C108.487 125.18 108.556 125.145 108.625 125.105C109.215 124.784 109.781 124.421 110.317 124.016C110.391 123.963 110.462 123.91 110.529 123.856L110.633 123.772C110.7 123.72 110.763 123.669 110.823 123.618L111.023 123.447L111.192 123.293C111.252 123.238 111.31 123.184 111.364 123.131C111.417 123.077 111.473 123.024 111.524 122.973C112.192 122.285 112.615 121.638 112.757 121.119C113.174 119.621 112.052 119.964 112.052 119.964C111.219 119.644 112.942 117.739 111.217 118.391C108.1 119.555 105.998 122.643 105.239 123.396L105.09 123.545C104.807 124.17 104.687 124.857 104.74 125.541Z" fill="#E2581D"/>
<path d="M109.224 122.748L108.863 124.951L108.24 125.292L108.576 124.219C108.79 123.538 109.05 123.249 109.224 122.748Z" fill="#8A3511"/>
<path d="M97.9805 119.956C97.9805 119.956 96.805 119.663 96.5779 119.689C96.5779 119.689 96.422 119.7 96.491 119.843C96.56 119.985 97.9226 120.259 97.9226 120.259L97.9805 119.956Z" fill="#FF8C79"/>
<path d="M97.4885 120.034C100.557 123.903 104.918 126.609 104.918 126.609C105.065 126.255 105.182 125.889 105.268 125.514C105.283 125.443 105.297 125.372 105.31 125.305C105.441 124.733 105.454 124.14 105.348 123.563C105.31 123.502 105.269 123.444 105.225 123.387C104.037 121.787 98.9535 118.131 98.9535 118.131C98.4629 118.432 98.0593 118.855 97.7824 119.359C97.7423 119.43 97.7067 119.499 97.6756 119.566C97.5997 119.716 97.5372 119.873 97.4885 120.034Z" fill="#E2581D"/>
<path opacity="0.2" d="M97.4885 120.033C100.557 123.903 104.918 126.609 104.918 126.609C105.038 126.573 105.156 126.54 105.272 126.502C105.424 126.457 105.571 126.408 105.717 126.36L105.804 126.328C105.92 126.288 106.027 126.25 106.147 126.208C106.267 126.166 106.405 126.113 106.532 126.064C106.554 126.057 106.575 126.048 106.595 126.037C106.722 125.99 106.849 125.939 106.971 125.888C107.321 125.741 107.652 125.587 107.971 125.443L108.193 125.334L108.416 125.222L108.623 125.109C109.213 124.789 109.779 124.425 110.315 124.021C110.389 123.967 110.46 123.914 110.527 123.86L110.631 123.776C110.698 123.725 110.76 123.674 110.82 123.622L111.021 123.451L111.19 123.297C111.25 123.242 111.308 123.188 111.362 123.135C111.415 123.082 111.471 123.028 111.522 122.977L111.328 122.018C109.648 122.56 108.071 123.381 106.664 124.446C106.361 124.668 104.949 125.236 104.337 124.944C103.224 124.415 99.9354 121.528 97.6845 119.588C97.6068 119.73 97.5412 119.879 97.4885 120.033Z" fill="black"/>
<path d="M103.92 158.226H95.8596L97.6729 83.6357H102.106L103.92 158.226Z" fill="#3C857E"/>
<path d="M121.882 161.929C122.919 161.706 124.397 159.819 124.315 159.441C124.266 159.245 124.192 159.056 124.092 158.88C123.963 158.638 123.832 158.435 123.832 158.435C123.743 158.425 123.654 158.425 123.565 158.435C123.39 158.445 123.222 158.504 123.081 158.606C122.939 158.708 122.83 158.849 122.765 159.012C122.776 159.026 122.784 159.042 122.79 159.058C122.819 159.138 122.832 159.319 122.672 159.697C122.512 160.075 121.83 161.09 121.648 161.535C121.632 161.572 121.619 161.61 121.61 161.649C121.519 162.027 121.882 161.929 121.882 161.929Z" fill="#FF8C79"/>
<path d="M121.879 161.92C122.917 161.698 124.397 159.813 124.317 159.435C124.267 159.239 124.192 159.05 124.095 158.874C124.041 158.771 123.986 158.678 123.941 158.604C123.674 159.177 123.195 159.625 122.605 159.853C122.365 160.318 121.815 161.141 121.652 161.54C121.636 161.576 121.623 161.614 121.614 161.653C121.516 162.018 121.879 161.92 121.879 161.92Z" fill="#2E2E2E"/>
<path d="M109.872 161.174C110.936 161.23 112.927 159.804 112.965 159.419C112.972 159.218 112.953 159.016 112.909 158.82C112.889 158.709 112.864 158.598 112.842 158.522C112.82 158.446 112.793 158.333 112.793 158.333C112.711 158.3 112.625 158.276 112.537 158.262C112.364 158.226 112.184 158.24 112.017 158.3C111.851 158.361 111.705 158.467 111.595 158.606C111.602 158.623 111.606 158.64 111.606 158.658C111.606 158.742 111.566 158.918 111.299 159.241C111.268 159.278 111.228 159.321 111.183 159.367C110.812 159.75 110.035 160.398 109.756 160.738C109.73 160.769 109.707 160.802 109.687 160.836C109.494 161.174 109.872 161.174 109.872 161.174Z" fill="#FF8C79"/>
<path d="M109.872 161.175C110.936 161.231 112.927 159.804 112.965 159.419C112.972 159.218 112.953 159.017 112.909 158.821C112.889 158.709 112.865 158.598 112.842 158.522C112.415 159.003 111.825 159.308 111.186 159.377C110.814 159.76 110.037 160.407 109.759 160.748C109.733 160.778 109.71 160.811 109.69 160.846C109.494 161.175 109.872 161.175 109.872 161.175Z" fill="#2E2E2E"/>
<path d="M111.486 158.408C111.531 158.491 111.569 158.557 111.595 158.604C111.602 158.62 111.606 158.638 111.607 158.655H111.624C111.949 158.576 112.257 158.441 112.535 158.255C112.626 158.193 112.706 158.118 112.773 158.032L111.486 158.408Z" fill="#2E2E2E"/>
<path d="M105.633 146.615C105.608 148.539 108.4 155.293 109.418 157.67C109.641 158.195 109.776 158.509 109.776 158.509C110.74 158.688 111.736 158.564 112.626 158.153C113.027 157.985 113.407 157.772 113.76 157.519L111.117 146.837C110.994 146.599 110.8 146.406 110.562 146.283C110.452 146.217 110.338 146.158 110.222 146.105C109.679 145.871 109.115 145.694 108.536 145.575C106.958 145.217 105.633 146.615 105.633 146.615Z" fill="#404040"/>
<path d="M105.633 146.615C107.087 147.661 108.893 147.471 110.021 147.189L110.322 147.109C110.59 147.032 110.852 146.94 111.108 146.831C111.648 145.936 112.143 145.015 112.591 144.071C112.967 143.283 113.325 142.458 113.651 141.623C114.817 138.628 115.525 135.564 114.955 133.924C114.02 131.253 108.145 131.819 108.145 131.819C107.34 134.745 106.714 137.718 106.27 140.72C105.967 142.798 105.76 144.77 105.633 146.615Z" fill="#404040"/>
<path opacity="0.1" d="M109.411 157.676C109.634 158.202 109.77 158.515 109.77 158.515C110.734 158.694 111.729 158.57 112.619 158.159C113.023 157.99 113.405 157.775 113.759 157.518L111.117 146.837C111.657 145.943 112.152 145.022 112.599 144.077C112.976 143.29 113.334 142.464 113.659 141.63L109.701 137.217C109.716 137.539 109.402 137.542 109.42 138.185C109.442 138.997 109.794 140.517 109.816 141.536C109.865 143.864 109.908 146.296 109.932 146.835C109.986 148.116 111.117 151.543 110.943 154.227C110.803 156.281 109.992 157.245 109.411 157.676Z" fill="black"/>
<path d="M113.835 148.931V148.96C114.481 150.844 119.31 156.592 121.044 158.618C121.427 159.063 121.661 159.334 121.661 159.334C122.622 159.28 123.539 158.918 124.277 158.302C124.61 158.043 124.91 157.744 125.168 157.411L119.156 147.802C119.141 147.784 119.125 147.767 119.107 147.751L119.085 147.729L119.061 147.709C118.878 147.566 118.668 147.463 118.444 147.406C118.317 147.369 118.189 147.339 118.059 147.317L117.856 147.286C117.33 147.222 116.799 147.199 116.269 147.217C114.65 147.262 113.835 148.931 113.835 148.931Z" fill="#404040"/>
<path d="M107.862 135.176C108.501 136.987 113.12 147.335 113.844 148.96L113.94 149.169C115.196 149.354 116.475 149.039 117.502 148.292C117.678 148.17 117.841 148.045 117.983 147.927C118.023 147.897 118.062 147.865 118.099 147.831C118.177 147.765 118.248 147.698 118.321 147.635C118.6 147.373 118.94 147.607 119.063 147.709C119.071 147.715 119.08 147.722 119.087 147.729C119.096 147.735 119.105 147.743 119.112 147.751C119.09 146.83 118.747 145.105 118.606 144.028C118.495 143.183 118.264 141.456 118.139 140.583C117.916 139.086 117.82 136.609 117.533 134.562L117.52 134.459C117.469 133.968 117.35 133.486 117.164 133.029C116.718 132.125 115.545 134.626 114.995 134.163C112.686 132.216 107.862 135.176 107.862 135.176Z" fill="#404040"/>
<path opacity="0.3" d="M115.002 149.483H114.984C114.972 149.478 114.962 149.469 114.957 149.457C114.951 149.446 114.951 149.432 114.955 149.42C115.242 148.688 114.942 148.265 114.937 148.261C114.934 148.256 114.931 148.25 114.929 148.243C114.928 148.237 114.928 148.231 114.929 148.224C114.93 148.218 114.932 148.212 114.935 148.206C114.939 148.201 114.943 148.196 114.948 148.192C114.954 148.188 114.96 148.185 114.966 148.184C114.972 148.182 114.979 148.182 114.985 148.183C114.992 148.184 114.998 148.187 115.003 148.19C115.009 148.193 115.014 148.198 115.017 148.203C115.031 148.223 115.351 148.675 115.046 149.454C115.043 149.463 115.037 149.47 115.029 149.476C115.021 149.481 115.011 149.483 115.002 149.483Z" fill="black"/>
<path opacity="0.1" d="M116.117 135.078C116.117 135.078 116.311 137.693 116.54 139.598C116.654 140.544 117.097 147.146 117.306 147.798C117.331 147.877 117.36 147.957 117.393 148.039C117.426 148.121 117.464 148.208 117.506 148.297C118.37 150.157 120.748 152.545 121.396 154.944C121.935 156.947 121.472 158.059 121.055 158.622C121.438 159.067 121.672 159.339 121.672 159.339C122.634 159.285 123.552 158.922 124.29 158.304C124.619 158.045 124.914 157.746 125.168 157.414L119.156 147.805C119.141 147.787 119.125 147.77 119.107 147.754C119.085 146.832 118.742 145.108 118.602 144.031C118.491 143.185 118.259 141.458 118.134 140.586C117.912 139.088 117.816 136.612 117.529 134.564L117.515 134.462L116.117 135.078Z" fill="black"/>
<path d="M117.518 119.715C117.518 119.715 116.022 118.308 115.147 117.803C114.957 117.693 114.746 117.622 114.528 117.595C114.31 117.568 114.089 117.586 113.878 117.647C113.878 117.647 113.225 117.603 111.335 118.622C111.335 118.622 109.917 120.222 110.28 122.1C110.643 123.978 108.801 134.88 108.801 134.88C108.801 134.88 113.884 135.548 117.391 134.464C117.391 134.464 116.69 131.765 117.326 127.397C117.322 127.397 119.386 120.629 117.518 119.715Z" fill="#FF8C79"/>
<path d="M113.103 118.302L114.915 118.006L114.51 116.163L113.069 116.622L113.076 116.951V117.009L113.08 117.193L113.083 117.291L113.103 118.302Z" fill="#FF8C79"/>
<path d="M113.092 117.193C113.298 117.182 113.499 117.126 113.682 117.031C113.865 116.936 114.026 116.803 114.154 116.642C114.035 116.739 113.907 116.823 113.771 116.893C113.561 117.003 113.322 117.044 113.087 117.011L113.092 117.193Z" fill="#2E2E2E"/>
<path d="M112.395 114.792C112.029 115.74 112.172 116.675 112.896 116.96C113.619 117.244 114.392 116.65 114.759 115.7C115.126 114.75 114.957 113.802 114.22 113.519C113.483 113.237 112.762 113.84 112.395 114.792Z" fill="#FF8C79"/>
<path d="M107.314 135.321C108.276 135.147 109.257 135.103 110.231 135.19C112.067 135.381 114.354 136.04 116.442 135.139C116.86 134.942 117.266 134.719 117.656 134.471C117.656 134.471 117.035 130.508 116.781 128.387C116.487 125.919 116.267 123.338 116.429 122C116.501 121.172 116.65 120.353 116.874 119.553C117.015 119.141 117.113 119.145 117.13 119.15C116.802 118.878 116.459 118.626 116.102 118.393C115.988 118.324 115.879 118.26 115.779 118.211C115.779 118.211 113.775 119.168 112.065 118.173C111.567 118.241 111.084 118.392 110.636 118.618L109.431 121.8L108.518 126.854L107.314 135.321Z" fill="#E2581D"/>
<path d="M113.417 114.305C113.706 114.527 113.902 114.837 113.862 115.108C113.788 115.553 113.891 115.675 113.998 115.669C114.104 115.662 114.185 115.404 114.185 115.404C114.185 115.404 114.499 115.335 114.45 115.611C114.439 115.701 114.448 115.793 114.476 115.88C114.504 115.966 114.549 116.046 114.61 116.114C114.911 115.972 115.176 115.765 115.387 115.509C114.835 114.986 114.18 114.663 113.417 114.305Z" fill="#2E2E2E"/>
<path d="M113.724 112.928C113.468 113.05 113.232 113.208 112.991 113.101C112.399 112.836 112.35 112.747 112.197 113.101C112.043 113.455 112.25 113.949 112.816 114.038C113.035 114.077 113.241 114.168 113.417 114.305C114.18 114.663 114.835 114.986 115.38 115.509C115.675 115.156 115.819 114.701 115.781 114.243C115.701 113.099 114.868 112.95 114.53 112.805C114.287 112.701 113.927 112.832 113.724 112.928Z" fill="#E2581D"/>
<path d="M114.114 115.804C114.154 115.85 114.208 115.882 114.267 115.896C114.326 115.91 114.388 115.906 114.445 115.885C114.502 115.863 114.551 115.825 114.585 115.774C114.62 115.724 114.638 115.665 114.638 115.604C114.638 115.543 114.62 115.484 114.585 115.434C114.551 115.384 114.502 115.345 114.445 115.323C114.388 115.302 114.326 115.298 114.267 115.312C114.208 115.327 114.154 115.359 114.114 115.404C114.061 115.457 114.031 115.529 114.031 115.604C114.031 115.679 114.061 115.751 114.114 115.804Z" fill="#FF8C79"/>
<path d="M116.182 138.022C116.182 138.022 117.193 136.155 118.103 134.755C119.014 133.356 119.359 129.21 118.747 127.634C118.747 127.634 117.792 126.704 117.188 128.938C116.585 131.173 116.298 134.967 116.051 135.919C115.903 136.493 115.688 137.047 115.409 137.57C115.409 137.57 115.367 138.283 116.182 138.022Z" fill="#FF8C79"/>
<path d="M119.945 127.083C119.945 127.099 119.945 127.375 119.945 127.751V127.778C119.939 128.442 119.9 129.106 119.827 129.767C119.605 131.152 119.266 132.516 118.816 133.844C118.431 134.965 117.985 136.063 117.48 137.135C117.315 137.179 117.147 137.21 116.977 137.229C116.96 137.228 116.943 137.228 116.925 137.229H116.877L116.743 137.24H116.625C116.289 137.248 115.954 137.205 115.632 137.111C115.455 137.054 115.284 136.979 115.122 136.888C115.122 136.888 115.944 132.03 116.83 128.768C116.861 128.646 116.894 128.525 116.928 128.407C116.943 128.354 116.959 128.298 116.974 128.247C117.064 127.936 116.885 127.916 116.974 127.638C117.064 127.359 117.38 126.819 117.507 126.538C117.74 126.009 118.203 126.013 118.328 125.811C118.328 125.811 118.551 125.951 118.865 126.189C119.009 126.296 119.176 126.411 119.355 126.563C119.564 126.717 119.764 126.885 119.953 127.063L119.945 127.083Z" fill="#E2581D"/>
<path d="M119.94 127.079C119.94 127.301 119.925 127.535 119.907 127.771C119.907 127.829 119.896 127.884 119.893 127.942C119.891 128 119.893 128.025 119.893 128.067H119.876C119.735 128.107 118.745 128.376 118.615 128.323C118.566 128.314 118.516 128.318 118.468 128.334C118.074 128.423 117.09 128.85 116.957 128.723C116.957 128.723 116.839 128.835 116.834 128.801V128.77C116.816 128.703 116.801 128.625 116.781 128.548C116.772 128.505 116.763 128.46 116.754 128.414C116.469 127.061 115.881 124.072 115.432 122.802C115.235 122.228 115.078 121.641 114.962 121.046C114.766 119.488 115.133 118.689 115.14 118.687C115.603 118.673 116.067 118.686 116.529 118.725C116.572 118.728 116.614 118.737 116.654 118.752C116.687 118.774 116.901 118.905 117.099 119.052C117.184 119.109 117.265 119.17 117.342 119.237C118.138 119.957 118.749 120.858 119.123 121.865C119.156 121.952 119.19 122.041 119.221 122.13C119.252 122.219 119.265 122.257 119.286 122.319C119.78 123.855 120.001 125.466 119.94 127.079Z" fill="#E2581D"/>
<path opacity="0.2" d="M119.933 127.75L119.907 127.775C119.907 127.775 119.907 127.775 119.933 127.775C119.928 128.439 119.889 129.103 119.815 129.764C119.593 131.149 119.255 132.513 118.805 133.841C118.42 134.962 117.974 136.06 117.469 137.132C117.469 136.743 117.48 136.242 117.515 135.697C117.698 133.026 118.308 128.97 118.459 128.353C118.484 128.251 118.511 128.148 118.535 128.046C118.575 127.884 118.613 127.719 118.649 127.554C118.744 127.15 118.809 126.74 118.845 126.326C118.845 126.288 118.845 126.248 118.845 126.21C118.903 125.32 118.818 124.239 118.424 122.719C118.005 121.099 116.99 119.436 116.505 118.735C116.547 118.739 116.589 118.748 116.629 118.762C116.663 118.784 116.876 118.916 117.075 119.062C117.128 119.107 117.161 119.14 117.168 119.147C117.22 119.178 117.269 119.211 117.317 119.247C118.114 119.967 118.725 120.869 119.098 121.875C119.132 121.962 119.165 122.051 119.196 122.14C119.228 122.229 119.239 122.269 119.261 122.329C119.759 123.861 119.985 125.468 119.929 127.078C119.945 127.098 119.942 127.374 119.933 127.75Z" fill="black"/>
<path d="M114.67 139.894C114.776 139.556 114.907 139.228 115.062 138.91C115.056 138.892 115.043 138.877 115.026 138.868C114.891 139.139 114.646 139.611 114.552 139.629C114.459 139.647 114.459 139.54 114.459 139.54C114.582 139.211 114.731 138.891 114.904 138.585C114.936 138.53 114.954 138.468 114.957 138.405C114.768 138.458 114.639 138.683 114.441 138.732C114.312 138.765 114.318 138.663 114.318 138.663L115.481 137.446C115.926 137.357 116.253 137.875 116.253 137.875C116.134 138.317 115.985 138.749 115.808 139.17L115.788 139.206C115.692 139.429 115.507 139.851 115.429 139.874C115.351 139.896 115.347 139.802 115.347 139.802C115.407 139.59 115.486 139.384 115.583 139.186L115.554 139.153H115.541C115.429 139.424 115.198 139.956 115.095 139.983C114.993 140.009 114.995 139.898 114.995 139.898C115.085 139.598 115.2 139.305 115.338 139.024C115.331 139.015 115.322 139.008 115.311 139.004C115.301 139 115.289 138.999 115.278 139.001C115.278 139.001 114.904 139.949 114.773 139.985C114.641 140.021 114.67 139.894 114.67 139.894Z" fill="#FF8C79"/>
<path d="M112.114 145.07L109.529 139.271C109.529 139.271 110.502 142.15 110.818 143.249C111.135 144.349 111.535 146.102 111.535 146.102L112.114 145.07Z" fill="#2E2E2E"/>
<path d="M112.116 115.883C112.176 115.858 112.352 115.916 112.635 115.925C112.789 115.925 112.807 116.128 112.68 116.148C112.493 116.157 112.306 116.138 112.125 116.092C112.065 116.065 112.063 115.905 112.116 115.883Z" fill="#2E2E2E"/>
<path d="M116.431 123.313C116.753 124.477 116.961 125.67 117.052 126.874C117.121 128.505 115.405 135.455 115.405 135.455C115.513 134.412 115.474 133.36 115.289 132.328C114.979 130.733 115.721 129.624 115.957 128.296C116.193 126.967 116.431 123.313 116.431 123.313Z" fill="#8A3511"/>
<path d="M112.822 116.432C112.675 116.43 112.53 116.403 112.392 116.352C112.387 116.351 112.383 116.349 112.378 116.346C112.374 116.343 112.371 116.34 112.368 116.335C112.365 116.331 112.364 116.326 112.363 116.321C112.362 116.316 112.363 116.31 112.365 116.306C112.366 116.301 112.369 116.296 112.372 116.293C112.376 116.289 112.38 116.286 112.385 116.284C112.39 116.282 112.395 116.281 112.4 116.281C112.405 116.282 112.41 116.283 112.415 116.285C113.083 116.508 113.35 116.149 113.361 116.134C113.364 116.13 113.368 116.128 113.373 116.126C113.377 116.124 113.382 116.123 113.387 116.123C113.391 116.123 113.396 116.124 113.4 116.126C113.405 116.128 113.409 116.13 113.412 116.134C113.416 116.137 113.418 116.141 113.42 116.146C113.422 116.15 113.423 116.155 113.423 116.159C113.423 116.164 113.422 116.169 113.42 116.173C113.418 116.178 113.416 116.182 113.412 116.185C113.339 116.268 113.248 116.333 113.145 116.376C113.043 116.419 112.933 116.438 112.822 116.432Z" fill="#2E2E2E"/>
<path d="M112.548 115.834C112.495 115.82 112.446 115.792 112.407 115.753C112.368 115.714 112.34 115.665 112.326 115.611C112.324 115.603 112.325 115.595 112.328 115.588C112.332 115.58 112.338 115.575 112.346 115.571C112.492 115.484 112.613 115.36 112.695 115.211C112.7 115.202 112.708 115.196 112.718 115.193C112.727 115.19 112.737 115.191 112.746 115.195C112.75 115.197 112.754 115.201 112.757 115.204C112.76 115.208 112.762 115.212 112.763 115.217C112.765 115.221 112.765 115.226 112.764 115.231C112.764 115.236 112.762 115.24 112.76 115.244C112.675 115.397 112.554 115.527 112.406 115.62C112.419 115.653 112.44 115.682 112.466 115.706C112.493 115.729 112.525 115.745 112.559 115.754C112.568 115.757 112.575 115.763 112.58 115.772C112.584 115.78 112.585 115.789 112.584 115.798C112.584 115.808 112.58 115.817 112.573 115.823C112.567 115.83 112.558 115.834 112.548 115.834Z" fill="#2E2E2E"/>
<path d="M112.726 114.837C112.721 114.837 112.715 114.836 112.71 114.833C112.705 114.83 112.7 114.826 112.697 114.821C112.584 114.671 112.438 114.548 112.27 114.463C112.261 114.459 112.255 114.451 112.252 114.442C112.249 114.433 112.25 114.423 112.254 114.414C112.259 114.406 112.266 114.399 112.276 114.396C112.285 114.393 112.295 114.394 112.303 114.399C112.479 114.491 112.631 114.621 112.749 114.781C112.752 114.785 112.755 114.789 112.757 114.793C112.758 114.797 112.759 114.802 112.759 114.807C112.759 114.812 112.758 114.816 112.757 114.821C112.755 114.825 112.752 114.829 112.749 114.833C112.745 114.835 112.742 114.836 112.738 114.837C112.734 114.838 112.73 114.838 112.726 114.837Z" fill="#2E2E2E"/>
<path d="M96.7227 118.246C96.8391 118.283 96.9473 118.342 97.0411 118.42C97.0527 118.432 97.0611 118.448 97.0653 118.465C97.0695 118.481 97.0695 118.499 97.0654 118.516C97.0612 118.532 97.0529 118.548 97.0413 118.561C97.0297 118.573 97.0151 118.583 96.9988 118.589C96.8825 118.586 96.7681 118.56 96.6626 118.511L96.7227 118.246Z" fill="#FF8C79"/>
<path d="M96.6937 118.767C96.6937 118.767 96.9564 118.86 97.0098 118.942C97.0221 118.955 97.0309 118.97 97.0354 118.987C97.04 119.004 97.0402 119.022 97.036 119.039C97.0317 119.056 97.0232 119.071 97.0112 119.084C96.9992 119.097 96.9842 119.106 96.9675 119.112C96.8513 119.107 96.7371 119.08 96.6313 119.031L96.6937 118.767Z" fill="#FF8C79"/>
<path d="M96.7027 119.261C96.8191 119.298 96.9272 119.358 97.0211 119.437C97.0327 119.449 97.041 119.465 97.0453 119.481C97.0495 119.498 97.0495 119.516 97.0453 119.532C97.0411 119.549 97.0329 119.565 97.0213 119.577C97.0096 119.59 96.995 119.6 96.9788 119.606C96.8625 119.601 96.7483 119.574 96.6426 119.526L96.7027 119.261Z" fill="#FF8C79"/>
<path d="M96.6826 119.708C96.7798 119.74 96.8698 119.791 96.9475 119.857C96.9577 119.868 96.9651 119.88 96.969 119.894C96.9729 119.908 96.9732 119.923 96.9699 119.937C96.9666 119.952 96.9597 119.965 96.95 119.976C96.9402 119.986 96.9279 119.995 96.9142 120C96.8158 119.996 96.719 119.973 96.6292 119.933L96.6826 119.708Z" fill="#FF8C79"/>
<path d="M87.8041 50.4804C83.7609 43.6314 89.9694 76.8501 99.522 83.6345C99.522 83.6382 107.235 83.4172 87.8041 50.4804Z" fill="#34726C"/>
<path d="M73.2617 108.64C68.1728 115.61 98.1054 94.2568 100.972 82.1958C100.97 82.1958 97.7281 75.1304 73.2617 108.64Z" fill="#34726C"/>
<path d="M133.624 100.275C141.784 103.085 112.554 80.775 100.189 81.5964C100.19 81.5973 94.3992 86.7811 133.624 100.275Z" fill="#34726C"/>
<path d="M109.113 159.182H91.4167L93.232 155.101H107.298L109.113 159.182Z" fill="#3C857E"/>
<path d="M103.862 83.6408C103.862 84.4267 103.629 85.195 103.192 85.8485C102.756 86.502 102.135 87.0113 101.41 87.3121C100.684 87.6129 99.8852 87.6916 99.1147 87.5382C98.3442 87.3849 97.6364 87.0064 97.0809 86.4507C96.5254 85.895 96.1471 85.1869 95.9938 84.416C95.8405 83.6452 95.9192 82.8462 96.2198 82.1201C96.5205 81.394 97.0296 80.7733 97.6828 80.3367C98.336 79.9001 99.104 79.667 99.8896 79.667C100.943 79.667 101.953 80.0857 102.698 80.8309C103.443 81.5761 103.862 82.5869 103.862 83.6408Z" fill="#459991"/>
<path d="M139.311 158.056H129.839L131.971 70.4131H137.179L139.311 158.056Z" fill="#3C857E"/>
<path d="M120.375 31.4548C115.624 23.407 122.918 62.4389 134.143 70.4155C134.143 70.4155 143.207 70.1551 120.375 31.4548Z" fill="#34726C"/>
<path d="M103.293 99.7951C97.3116 107.984 132.484 82.8941 135.85 68.7212C135.847 68.7212 132.033 60.4214 103.293 99.7951Z" fill="#34726C"/>
<path d="M174.217 89.9655C183.802 93.2603 149.459 67.0499 134.929 68.0174C134.929 68.0174 128.129 74.105 174.217 89.9655Z" fill="#34726C"/>
<path d="M145.414 159.183H124.62L126.753 154.386H143.28L145.414 159.183Z" fill="#3C857E"/>
<path d="M139.241 70.4178C139.241 71.3413 138.968 72.244 138.455 73.0119C137.942 73.7799 137.213 74.3784 136.361 74.7319C135.508 75.0854 134.569 75.1779 133.664 74.9978C132.759 74.8177 131.927 74.373 131.274 73.72C130.622 73.067 130.177 72.235 129.997 71.3293C129.817 70.4236 129.91 69.4848 130.263 68.6316C130.616 67.7785 131.215 67.0494 131.982 66.5364C132.75 66.0235 133.652 65.7498 134.575 65.75C135.812 65.7505 136.999 66.2424 137.874 67.1177C138.749 67.993 139.24 69.18 139.241 70.4178Z" fill="#459991"/>
<path d="M202.77 126.258C202.77 126.258 204.473 127.505 205.729 128.589C206.984 129.673 211.02 130.567 212.665 130.18C212.665 130.18 213.709 129.366 211.592 128.462C209.476 127.558 205.777 126.78 204.87 126.405C204.325 126.183 203.808 125.898 203.331 125.554C203.331 125.554 202.616 125.434 202.77 126.258Z" fill="#FF8C79"/>
<path d="M201.01 126.254C201.003 126.245 200.998 126.235 200.996 126.224C200.995 126.213 200.996 126.202 201 126.192C201.005 126.182 201.011 126.173 201.02 126.166C201.029 126.16 201.04 126.156 201.051 126.155C201.27 126.144 201.49 126.155 201.707 126.186L201.729 126.148V126.136C201.44 126.114 200.866 126.059 200.81 125.975C200.801 125.965 200.795 125.953 200.792 125.94C200.79 125.926 200.791 125.913 200.796 125.9C200.801 125.888 200.81 125.877 200.821 125.869C200.832 125.862 200.845 125.857 200.858 125.857C201.17 125.847 201.482 125.864 201.791 125.907C201.797 125.898 201.8 125.887 201.8 125.876C201.8 125.865 201.797 125.855 201.791 125.845C201.791 125.845 200.779 125.787 200.704 125.672C200.63 125.557 200.755 125.554 200.755 125.554C201.106 125.549 201.458 125.571 201.806 125.619C201.82 125.606 201.829 125.589 201.832 125.571C201.537 125.528 201.015 125.444 200.967 125.36C200.918 125.275 201.024 125.244 201.024 125.244C201.373 125.261 201.721 125.303 202.063 125.372C202.125 125.387 202.189 125.387 202.251 125.372C202.143 125.208 201.89 125.158 201.77 124.987C201.698 124.874 201.796 124.848 201.796 124.848L203.307 125.569C203.533 125.968 203.141 126.431 203.141 126.431C202.687 126.452 202.232 126.444 201.779 126.405H201.739C201.508 126.364 201.056 126.321 201.01 126.254Z" fill="#FF8C79"/>
<path d="M203.915 125.94C203.671 126.171 203.525 126.487 203.509 126.822L203.749 126.993L203.915 125.94Z" fill="#2E2E2E"/>
<path d="M212.42 130.103C212.381 130.398 212.361 130.696 212.362 130.994C212.362 130.994 207.792 130.18 203.639 127.817C203.62 127.687 203.611 127.555 203.612 127.423C203.605 127.315 203.605 127.207 203.612 127.099C203.641 126.546 203.814 126.01 204.112 125.544C204.112 125.544 210.868 127.166 212.258 128C212.257 128.004 212.257 128.008 212.258 128.012C212.197 128.567 212.243 129.128 212.393 129.665C212.425 129.809 212.434 129.957 212.42 130.103Z" fill="#D9811A"/>
<path d="M229.404 163.164C229.306 163.347 229.143 163.485 228.947 163.551C228.751 163.618 228.537 163.607 228.349 163.523C228.342 163.513 228.336 163.502 228.332 163.491C228.332 163.479 228.317 163.462 228.305 163.443L228.207 163.251C227.935 162.722 227.324 161.497 226.648 159.983C226.571 159.814 226.494 159.639 226.408 159.461C225.296 156.914 224.104 153.727 224.022 151.636C224.392 151.342 224.837 151.158 225.306 151.103C225.779 151.077 226.246 151.213 226.631 151.487C226.631 151.487 227.735 152.609 228.207 154.768C228.644 156.76 229.27 161.434 229.383 162.881C229.397 162.994 229.404 163.09 229.404 163.164Z" fill="#FF8C79"/>
<path d="M226.718 165.986C227.697 166.041 229.53 164.626 229.563 164.243C229.57 164.044 229.553 163.843 229.513 163.647C229.467 163.386 229.407 163.167 229.407 163.167C229.33 163.133 229.249 163.109 229.166 163.095C229.005 163.062 228.837 163.077 228.683 163.138C228.53 163.198 228.397 163.302 228.301 163.436C228.304 163.453 228.304 163.47 228.301 163.486C228.271 163.704 228.173 163.906 228.019 164.063C227.75 164.412 226.884 165.174 226.6 165.551C226.575 165.581 226.553 165.614 226.535 165.649C226.369 165.986 226.718 165.986 226.718 165.986Z" fill="#FF8C79"/>
<path d="M226.718 165.986C227.697 166.041 229.53 164.626 229.563 164.243C229.57 164.043 229.553 163.843 229.513 163.647C229.513 163.647 229 164.729 227.266 165.505C227.117 165.57 226.66 165.794 226.615 165.56C226.59 165.591 226.568 165.624 226.55 165.659C226.369 165.986 226.718 165.986 226.718 165.986Z" fill="#2E2E2E"/>
<path d="M228.815 158.709C228.691 158.88 228.541 159.031 228.37 159.156C227.854 159.53 227.274 159.806 226.658 159.971H226.646C226.569 159.802 226.492 159.627 226.405 159.449L228.815 158.709Z" fill="#2E2E2E"/>
<path d="M225.583 124.859C225.583 124.859 224.082 122.881 222.348 121.975C222.027 121.772 221.655 121.662 221.275 121.658C220.568 121.617 220.554 121.699 220.554 121.699C219.311 121.882 218.113 122.294 217.021 122.912C217.021 122.912 216.412 124.059 216.751 125.924C217.09 127.789 214.892 138.803 214.892 138.803C214.892 138.803 220.094 139.266 223.348 138.204C223.348 138.204 222.699 135.522 223.291 131.184C223.291 131.184 223.702 128.868 224.286 127.834C224.294 127.837 225.816 126.178 225.583 124.859Z" fill="#FF8C79"/>
<path d="M229.568 157.829C229.568 157.829 228.914 159.92 225.585 159.47C225.585 159.47 225.366 159.047 225.006 158.322C223.803 155.918 221.054 150.235 219.404 145.476C219.252 145.036 219.111 144.606 218.981 144.186C218.61 143.06 218.336 141.905 218.163 140.732C218.163 140.732 218.192 138.855 219.217 137.337C219.398 137.064 219.61 136.811 219.847 136.584C220.605 135.882 221.593 135.478 222.627 135.448C222.965 135.428 223.305 135.434 223.642 135.467C223.642 135.467 223.714 135.815 223.839 136.428C224.099 137.683 224.602 140.033 225.249 142.734C226.1 146.243 229.568 157.829 229.568 157.829Z" fill="#404040"/>
<path opacity="0.5" d="M223.269 152.457H223.255C223.243 152.454 223.234 152.445 223.228 152.435C223.223 152.424 223.222 152.411 223.226 152.4C223.57 151.35 223.057 150.855 223.053 150.85C223.048 150.845 223.045 150.84 223.043 150.835C223.04 150.829 223.039 150.823 223.039 150.817C223.039 150.811 223.04 150.805 223.043 150.8C223.045 150.794 223.048 150.789 223.053 150.785C223.057 150.781 223.062 150.777 223.067 150.775C223.072 150.773 223.078 150.771 223.084 150.771C223.09 150.771 223.096 150.773 223.101 150.775C223.106 150.777 223.111 150.781 223.115 150.785C223.139 150.804 223.678 151.318 223.315 152.429C223.311 152.438 223.305 152.445 223.297 152.451C223.288 152.456 223.279 152.458 223.269 152.457Z" fill="#2E2E2E"/>
<path d="M219.209 125.028C219.118 125.547 218.776 126.229 218.204 126.95C218.158 127.01 218.108 127.068 218.057 127.133C217.915 127.299 217.761 127.47 217.598 127.64C216.195 129.039 214.523 130.139 212.682 130.872L212.364 131C212.332 130.917 212.304 130.833 212.28 130.748C212.251 130.639 212.215 130.507 212.182 130.334C212.182 130.279 212.158 130.221 212.148 130.161C212.013 129.448 212.053 128.712 212.266 128.017C212.265 128.014 212.265 128.009 212.266 128.005C212.271 127.985 212.278 127.965 212.285 127.945C212.285 127.945 215.325 123.992 216.778 123.052C218.23 122.113 217.776 123.088 218.57 123.35C218.57 123.35 219.488 123.511 219.209 125.028Z" fill="#D9811A"/>
<path d="M218.81 161.905C218.712 162.087 218.549 162.226 218.353 162.292C218.157 162.359 217.943 162.35 217.754 162.266L217.737 162.232C217.737 162.232 217.723 162.206 217.711 162.184L217.612 161.992C217.413 161.602 217.03 160.841 216.571 159.862C216.513 159.733 216.451 159.598 216.383 159.461C215.157 156.791 213.533 152.831 213.437 150.374C213.808 150.082 214.252 149.898 214.721 149.843C215.194 149.816 215.661 149.951 216.047 150.225C216.047 150.225 217.151 151.35 217.622 153.508C218.06 155.498 218.685 160.175 218.798 161.622C218.803 161.735 218.81 161.833 218.81 161.905Z" fill="#FF8C79"/>
<path d="M216.123 164.727C217.102 164.782 218.935 163.366 218.969 162.984C218.975 162.785 218.959 162.586 218.921 162.391C218.872 162.126 218.812 161.91 218.812 161.91C218.734 161.879 218.654 161.855 218.572 161.838C218.409 161.805 218.241 161.821 218.087 161.882C217.933 161.943 217.8 162.047 217.704 162.182C217.708 162.198 217.708 162.216 217.704 162.232C217.675 162.45 217.576 162.654 217.422 162.811C217.153 163.16 216.287 163.919 216.003 164.299C215.979 164.329 215.957 164.361 215.938 164.395C215.775 164.727 216.123 164.727 216.123 164.727Z" fill="#FF8C79"/>
<path d="M216.123 164.727C217.102 164.782 218.935 163.366 218.969 162.984C218.976 162.785 218.959 162.586 218.918 162.391C218.918 162.391 218.406 163.47 216.672 164.246C216.523 164.313 216.066 164.537 216.02 164.304C215.996 164.334 215.974 164.366 215.955 164.4C215.775 164.727 216.123 164.727 216.123 164.727Z" fill="#2E2E2E"/>
<path d="M218.269 158.865C218.174 159 218.057 159.118 217.923 159.214C217.521 159.508 217.067 159.724 216.585 159.851H216.568C216.511 159.721 216.448 159.586 216.381 159.449L218.269 158.865Z" fill="#2E2E2E"/>
<path d="M218.731 158.526C218.432 158.776 218.105 158.989 217.756 159.161C217.008 159.565 216.14 159.69 215.308 159.514L215.068 158.836L215.012 158.682C214.144 156.32 212.557 152.194 212.578 150.271C212.578 150.271 213.718 148.877 215.068 149.233C215.567 149.354 216.051 149.531 216.511 149.759C216.612 149.812 216.709 149.871 216.802 149.937C217.014 150.067 217.182 150.259 217.283 150.487L218.731 158.526Z" fill="#404040"/>
<path d="M212.566 150.273C213.817 151.314 215.368 151.124 216.34 150.843C216.431 150.819 216.518 150.79 216.597 150.764C216.83 150.688 217.057 150.596 217.276 150.487C217.704 149.677 218.137 148.743 218.548 147.748C218.873 146.967 219.18 146.145 219.459 145.318C220.462 142.345 221.073 139.31 220.58 137.673C219.779 135.018 214.724 135.583 214.724 135.583C214.315 137.58 212.566 150.273 212.566 150.273Z" fill="#404040"/>
<path opacity="0.5" d="M213.435 151.11C213.424 151.11 213.413 151.105 213.406 151.098C213.401 151.094 213.398 151.089 213.396 151.084C213.394 151.078 213.392 151.072 213.392 151.067C213.392 151.061 213.394 151.055 213.396 151.05C213.398 151.044 213.401 151.039 213.406 151.035C213.923 150.466 213.855 149.971 213.855 149.966C213.854 149.96 213.855 149.954 213.856 149.949C213.857 149.943 213.859 149.938 213.863 149.933C213.866 149.928 213.87 149.924 213.875 149.921C213.88 149.918 213.886 149.916 213.892 149.915C213.904 149.914 213.916 149.917 213.926 149.924C213.935 149.931 213.942 149.942 213.944 149.954C213.944 149.975 214.019 150.495 213.463 151.095C213.456 151.103 213.446 151.108 213.435 151.11Z" fill="#2E2E2E"/>
<path opacity="0.2" d="M218.548 147.75C218.137 148.742 217.704 149.672 217.275 150.489L218.731 158.526C218.432 158.775 218.105 158.988 217.757 159.16C217.008 159.564 216.14 159.689 215.308 159.513L215.068 158.836C215.635 158.473 216.698 158.187 216.802 156.332C216.925 154.491 216.773 152.641 216.352 150.845C216.299 150.605 216.265 150.489 216.265 150.489L216.518 149.768L218.129 142.282L218.981 144.178C218.981 144.178 219.423 145.416 219.404 145.469C219.142 146.25 218.851 147.017 218.548 147.75Z" fill="black"/>
<path d="M220.101 119.394C220.101 119.394 219.426 119.35 219.317 118.745C219.209 118.139 219.503 117.961 219.44 117.543C219.378 117.125 219.2 116.563 219.625 116.241C220.051 115.919 219.998 115.652 220.241 115.118C220.484 114.585 220.821 114.21 221.328 114.299C221.836 114.388 222.018 114.477 222.309 114.059C222.6 113.64 222.978 113.299 223.512 113.797C224.149 114.376 224.351 114.037 224.751 114.061C225.15 114.085 225.448 114.455 225.59 114.885C225.732 115.315 225.984 115.436 226.376 115.573C226.699 115.688 226.942 116.248 226.708 116.712C226.475 117.176 226.725 117.512 226.826 117.887C226.927 118.262 226.785 118.723 226.48 118.865C226.174 119.007 226.239 119.562 226.102 119.951C225.965 120.341 225.477 120.42 225.171 120.362C224.866 120.305 224.731 120.542 224.496 120.958C224.26 121.374 223.986 121.648 223.647 121.482C223.307 121.316 222.86 121.042 222.564 121.29C222.268 121.537 221.417 121.386 221.285 121.172C221.153 120.958 220.101 119.394 220.101 119.394Z" fill="white"/>
<path d="M220.527 122.073L222.348 121.972L222.168 120.326L220.672 120.413L220.643 120.737L220.614 121.074L220.527 122.073Z" fill="#FF8C79"/>
<path d="M220.623 120.957C220.853 120.996 221.089 120.98 221.311 120.908C221.533 120.837 221.735 120.712 221.898 120.546C221.771 120.63 221.634 120.699 221.492 120.753C221.356 120.807 221.211 120.834 221.066 120.832C220.92 120.829 220.776 120.797 220.643 120.738L220.623 120.957Z" fill="#2E2E2E"/>
<path d="M220.496 118.436C219.921 119.27 219.832 120.202 220.477 120.644C221.121 121.086 221.994 120.692 222.567 119.861C223.139 119.029 223.199 118.073 222.567 117.631C221.934 117.188 221.068 117.604 220.496 118.436Z" fill="#FF8C79"/>
<path d="M221.739 117.325C221.739 117.325 222.064 119.64 222.629 119.76C223.194 119.88 223.63 118.587 223.291 117.998C222.951 117.409 221.739 117.325 221.739 117.325Z" fill="white"/>
<path d="M221.172 114.641C221.164 114.64 221.157 114.637 221.151 114.633C221.145 114.628 221.14 114.622 221.138 114.614C221.136 114.605 221.138 114.596 221.143 114.589C221.148 114.581 221.156 114.576 221.164 114.573C222.126 114.357 222.273 113.175 222.273 113.163C222.275 113.154 222.28 113.146 222.287 113.141C222.294 113.136 222.303 113.133 222.312 113.134C222.316 113.135 222.32 113.136 222.324 113.138C222.328 113.14 222.331 113.144 222.334 113.147C222.337 113.151 222.339 113.155 222.34 113.159C222.341 113.163 222.341 113.168 222.34 113.172C222.34 113.172 222.182 114.412 221.179 114.638L221.172 114.641Z" fill="white"/>
<path d="M227.242 117.693C226.607 117.494 226.482 116.732 226.477 116.694C226.477 116.689 226.477 116.685 226.478 116.68C226.479 116.676 226.481 116.672 226.484 116.668C226.486 116.665 226.49 116.662 226.494 116.659C226.498 116.657 226.502 116.656 226.506 116.655C226.511 116.654 226.515 116.654 226.52 116.655C226.524 116.656 226.529 116.658 226.532 116.661C226.536 116.663 226.539 116.667 226.541 116.671C226.543 116.675 226.545 116.679 226.545 116.684C226.545 116.684 226.667 117.441 227.266 117.628C227.271 117.629 227.275 117.631 227.279 117.633C227.282 117.636 227.285 117.639 227.287 117.643C227.289 117.647 227.291 117.652 227.291 117.656C227.291 117.661 227.29 117.665 227.288 117.669C227.287 117.674 227.286 117.679 227.283 117.683C227.28 117.688 227.276 117.691 227.271 117.693C227.267 117.696 227.262 117.697 227.257 117.697C227.252 117.697 227.247 117.696 227.242 117.693Z" fill="white"/>
<path d="M224.681 121.572C224.676 121.572 224.672 121.571 224.668 121.57C224.664 121.568 224.66 121.566 224.657 121.563C224.654 121.56 224.651 121.557 224.65 121.553C224.648 121.549 224.647 121.545 224.647 121.54C224.594 120.605 225.128 120.098 225.268 120.086C225.272 120.086 225.276 120.086 225.281 120.087C225.285 120.088 225.289 120.09 225.293 120.093C225.296 120.095 225.299 120.099 225.302 120.103C225.304 120.106 225.305 120.111 225.306 120.115C225.307 120.124 225.304 120.133 225.298 120.141C225.292 120.148 225.284 120.152 225.275 120.154C225.188 120.154 224.661 120.617 224.712 121.535C224.713 121.54 224.712 121.545 224.711 121.549C224.71 121.553 224.708 121.557 224.705 121.561C224.702 121.564 224.698 121.567 224.694 121.569C224.69 121.571 224.685 121.572 224.681 121.572Z" fill="white"/>
<path d="M222.699 119.8C222.482 119.766 222.28 119.668 222.118 119.519C221.957 119.37 221.842 119.177 221.79 118.964C221.665 118.474 221.646 117.963 221.735 117.464C221.737 117.456 221.742 117.448 221.75 117.443C221.757 117.438 221.767 117.437 221.775 117.438C221.784 117.44 221.791 117.446 221.796 117.453C221.8 117.461 221.802 117.47 221.8 117.479C221.715 117.966 221.734 118.465 221.855 118.945C221.903 119.145 222.01 119.327 222.161 119.467C222.313 119.608 222.502 119.7 222.706 119.733C222.715 119.734 222.724 119.739 222.73 119.746C222.735 119.753 222.738 119.762 222.738 119.772C222.737 119.776 222.735 119.78 222.733 119.784C222.731 119.788 222.728 119.791 222.724 119.794C222.721 119.797 222.717 119.799 222.712 119.8C222.708 119.801 222.703 119.801 222.699 119.8Z" fill="white"/>
<path d="M223.846 136.438C223.894 136.767 223.928 136.964 223.928 136.964C223.928 136.964 223.567 137.027 222.966 137.096C222.365 137.166 221.451 137.262 220.433 137.308C220.041 137.325 219.633 137.337 219.212 137.337C217.628 137.375 216.045 137.207 214.505 136.837C214.505 136.837 215.099 130.627 215.914 128.442C216.73 126.258 216.583 123.189 216.583 123.189C216.583 123.189 217.733 122.196 219.996 121.795L220.859 123.979L222.783 122.235C223.328 122.601 223.849 123.002 224.342 123.436C224.841 123.878 225.31 124.352 225.746 124.857C224.768 126.334 224.072 127.98 223.695 129.711C223.568 130.331 223.493 130.961 223.471 131.593C223.413 133.261 223.697 135.438 223.844 136.428C223.845 136.431 223.846 136.434 223.846 136.438Z" fill="#F7931E"/>
<path opacity="0.2" d="M229.568 157.83C229.568 157.83 228.914 159.921 225.585 159.471C225.585 159.471 225.366 159.048 225.005 158.322C225.852 158.298 226.905 158.027 227.293 156.909C227.625 155.948 225.77 149.541 224.322 143.297C223.82 141.134 223.36 139.003 222.966 137.097C222.848 136.525 222.725 135.975 222.632 135.448C221.994 132.288 221.597 130.082 221.597 130.082L223.695 129.712C223.568 130.332 223.493 130.961 223.471 131.594C223.413 133.261 223.697 135.439 223.844 136.429C224.104 137.683 224.606 140.034 225.253 142.735C226.1 146.244 229.568 157.83 229.568 157.83Z" fill="black"/>
<path d="M212.968 123.932C212.968 123.932 213.834 125.855 214.392 127.419C214.95 128.984 218.016 131.745 219.64 132.226C219.64 132.226 220.951 132.031 219.553 130.202C218.156 128.373 215.33 125.864 214.724 125.098C214.359 124.636 214.05 124.133 213.805 123.598C213.805 123.598 213.254 123.134 212.968 123.932Z" fill="#FF8C79"/>
<path d="M214.12 124.203C213.795 124.288 213.516 124.496 213.341 124.782L213.476 125.001L214.12 124.203Z" fill="#2E2E2E"/>
<path d="M218.87 131.223C218.875 131.742 218.956 132.258 219.111 132.754C223.384 131.204 225.789 128.462 226.105 126.957C226.405 125.515 225.804 124.91 225.749 124.859C224.96 124.578 224.219 124.915 222.74 125.821C221.261 126.727 219.125 129.699 219.125 129.699C218.943 130.186 218.856 130.704 218.87 131.223Z" fill="#F79F39"/>
<path d="M219.743 131.295C219.723 131.413 219.698 131.53 219.666 131.646C219.56 132.023 219.349 132.297 219.118 132.754C219.002 132.662 215.375 129.764 212.958 125.719C213.016 125.577 213.084 125.439 213.163 125.306C213.201 125.236 213.247 125.164 213.297 125.087C213.596 124.621 214.01 124.239 214.5 123.979C214.5 123.979 218.447 127.654 219.483 129.204C219.529 129.276 219.572 129.339 219.606 129.401C219.775 130.017 219.822 130.661 219.743 131.295Z" fill="#F79F39"/>
<path opacity="0.1" d="M226.114 126.957C225.799 128.464 223.394 131.204 219.118 132.754C219.002 132.663 215.375 129.764 212.958 125.72C213.016 125.577 213.084 125.439 213.163 125.306C214.861 127.111 217.492 130.49 218.87 131.259C219.005 131.343 219.155 131.397 219.313 131.418C219.463 131.41 219.611 131.368 219.743 131.295C220.854 130.793 223.317 128.851 224.2 127.787C225.114 126.686 225.474 125.58 225.758 124.859C225.813 124.91 226.417 125.518 226.114 126.957Z" fill="#020544"/>
<path d="M212.071 122.012C212.114 121.928 212.177 122 212.177 122C212.294 122.185 212.393 122.382 212.473 122.586H212.516H212.528C212.403 122.324 212.167 121.798 212.213 121.709C212.217 121.696 212.225 121.684 212.235 121.675C212.246 121.666 212.259 121.661 212.272 121.659C212.286 121.657 212.3 121.659 212.312 121.665C212.325 121.671 212.335 121.68 212.343 121.692C212.503 121.959 212.642 122.239 212.756 122.528C212.768 122.529 212.779 122.526 212.788 122.521C212.798 122.515 212.806 122.507 212.812 122.497C212.812 122.497 212.364 121.589 212.427 121.471C212.431 121.458 212.439 121.447 212.449 121.439C212.46 121.431 212.472 121.425 212.485 121.423C212.499 121.422 212.512 121.424 212.524 121.429C212.536 121.434 212.547 121.443 212.554 121.454C212.732 121.758 212.886 122.074 213.016 122.401C213.034 122.407 213.053 122.407 213.071 122.401C212.961 122.122 212.778 121.627 212.831 121.543C212.836 121.531 212.845 121.52 212.857 121.513C212.868 121.506 212.881 121.502 212.895 121.502C212.908 121.502 212.921 121.506 212.933 121.513C212.944 121.52 212.953 121.531 212.958 121.543C213.117 121.852 213.251 122.174 213.36 122.504C213.379 122.564 213.412 122.618 213.456 122.663C213.545 122.49 213.468 122.245 213.562 122.067C213.627 121.949 213.697 122.021 213.697 122.021L213.815 123.689C213.574 124.081 212.98 123.968 212.98 123.968C212.738 123.582 212.522 123.181 212.333 122.766C212.332 122.753 212.332 122.741 212.333 122.728C212.218 122.499 212.032 122.084 212.071 122.012Z" fill="#FF8C79"/>
<path d="M219.404 145.476L217.882 141.687C217.882 141.687 217.947 144.33 218.312 145.135C218.678 145.94 219.125 146.224 219.034 146.527L219.404 145.476Z" fill="#2E2E2E"/>
<path d="M220.905 120.188C220.751 120.184 220.599 120.152 220.457 120.091C220.449 120.088 220.443 120.082 220.439 120.074C220.435 120.066 220.435 120.056 220.438 120.048C220.442 120.04 220.449 120.033 220.457 120.029C220.466 120.026 220.475 120.026 220.484 120.029C221.097 120.269 221.376 119.938 221.386 119.923C221.389 119.92 221.393 119.917 221.397 119.916C221.401 119.914 221.405 119.913 221.41 119.913C221.414 119.913 221.419 119.914 221.423 119.916C221.427 119.917 221.431 119.92 221.434 119.923C221.437 119.926 221.44 119.93 221.441 119.934C221.443 119.938 221.444 119.943 221.444 119.947C221.444 119.952 221.443 119.956 221.441 119.96C221.44 119.964 221.437 119.968 221.434 119.971C221.366 120.043 221.284 120.099 221.193 120.137C221.102 120.174 221.003 120.191 220.905 120.188Z" fill="#2E2E2E"/>
<path d="M220.631 119.608C220.583 119.592 220.54 119.565 220.506 119.528C220.472 119.491 220.448 119.445 220.436 119.397C220.435 119.389 220.436 119.381 220.439 119.374C220.443 119.367 220.448 119.362 220.455 119.358C220.599 119.282 220.719 119.17 220.804 119.031C220.809 119.025 220.817 119.022 220.825 119.021C220.833 119.02 220.841 119.021 220.848 119.026C220.855 119.03 220.86 119.036 220.863 119.044C220.866 119.051 220.866 119.06 220.864 119.067C220.775 119.208 220.654 119.325 220.51 119.409C220.522 119.44 220.541 119.468 220.565 119.492C220.589 119.515 220.618 119.533 220.65 119.543C220.654 119.544 220.659 119.546 220.662 119.549C220.666 119.552 220.669 119.555 220.671 119.559C220.674 119.564 220.675 119.568 220.675 119.573C220.676 119.577 220.675 119.582 220.674 119.586C220.671 119.595 220.664 119.602 220.656 119.606C220.648 119.61 220.639 119.61 220.631 119.608Z" fill="#2E2E2E"/>
<path d="M220.84 118.671C220.834 118.67 220.829 118.668 220.824 118.666C220.819 118.663 220.815 118.659 220.811 118.654C220.711 118.506 220.578 118.383 220.422 118.296C220.416 118.289 220.412 118.281 220.412 118.272C220.412 118.263 220.416 118.255 220.422 118.248C220.426 118.24 220.433 118.235 220.442 118.233C220.45 118.23 220.46 118.232 220.467 118.236C220.634 118.329 220.776 118.46 220.883 118.618C220.886 118.621 220.889 118.624 220.891 118.628C220.892 118.632 220.893 118.637 220.893 118.641C220.893 118.645 220.892 118.649 220.891 118.653C220.889 118.657 220.886 118.661 220.883 118.664C220.881 118.668 220.879 118.671 220.875 118.674C220.872 118.676 220.868 118.678 220.864 118.679C220.859 118.68 220.855 118.679 220.851 118.678C220.847 118.676 220.843 118.674 220.84 118.671Z" fill="#2E2E2E"/>
</g>
</svg>
