<svg width="768" height="486" viewBox="0 0 768 486" fill="none" xmlns="http://www.w3.org/2000/svg">
<g opacity="0.1">
<path d="M119.723 490.008H88.832L95.7815 204.146H112.77L119.723 490.008Z" fill="#404040"/>
<path d="M57.9594 77.0802C42.4638 50.8316 66.2578 178.141 102.867 204.141C102.867 204.156 132.427 203.309 57.9594 77.0802Z" fill="#404040"/>
<path d="M2.22689 299.975C-17.2762 326.686 97.4388 244.85 108.425 198.627C108.417 198.627 95.993 171.55 2.22689 299.975Z" fill="#404040"/>
<path d="M233.562 267.918C264.833 278.686 152.812 193.185 105.425 196.333C105.429 196.337 83.2351 216.203 233.562 267.918Z" fill="#404040"/>
<path d="M139.624 493.672H71.8044L78.7611 478.03H132.667L139.624 493.672Z" fill="#404040"/>
<path d="M119.5 204.168C119.5 207.18 118.607 210.124 116.934 212.629C115.262 215.133 112.884 217.085 110.103 218.238C107.321 219.391 104.26 219.692 101.307 219.105C98.3543 218.517 95.6418 217.067 93.5129 214.937C91.3839 212.807 89.9341 210.093 89.3467 207.139C88.7593 204.185 89.0608 201.123 90.213 198.34C91.3652 195.557 93.3163 193.179 95.8197 191.505C98.3231 189.832 101.266 188.938 104.277 188.938C108.314 188.938 112.186 190.543 115.041 193.399C117.896 196.255 119.5 200.129 119.5 204.168Z" fill="#404040"/>
<path d="M688.358 489.354H652.057L660.226 153.468H680.188L688.358 489.354Z" fill="#404040"/>
<path d="M615.788 4.16447C597.577 -26.6784 625.532 122.909 668.553 153.479C668.553 153.479 703.29 152.482 615.788 4.16447Z" fill="#404040"/>
<path d="M550.319 266.073C527.397 297.458 662.193 201.301 675.094 146.984C675.08 146.984 660.463 115.176 550.319 266.073Z" fill="#404040"/>
<path d="M822.131 228.406C858.866 241.033 727.249 140.583 671.564 144.291C671.564 144.291 645.502 167.621 822.131 228.406Z" fill="#404040"/>
<path d="M711.747 493.672H632.055L640.228 475.288H703.567L711.747 493.672Z" fill="#404040"/>
<path d="M688.089 153.487C688.09 157.026 687.041 160.486 685.076 163.429C683.111 166.372 680.318 168.666 677.05 170.02C673.782 171.375 670.185 171.73 666.716 171.039C663.246 170.349 660.059 168.645 657.557 166.142C655.056 163.64 653.352 160.451 652.662 156.98C651.972 153.509 652.327 149.911 653.681 146.641C655.035 143.372 657.328 140.577 660.27 138.612C663.211 136.646 666.67 135.597 670.207 135.598C674.949 135.6 679.496 137.485 682.849 140.839C686.202 144.194 688.087 148.743 688.089 153.487Z" fill="#404040"/>
</g>
<circle opacity="0.2" cx="384" cy="226" r="200" fill="#4AA29A"/>
<circle cx="384" cy="226" r="180" fill="#89BDB9"/>
<mask id="mask0" mask-type="alpha" maskUnits="userSpaceOnUse" x="204" y="46" width="360" height="360">
<circle cx="384" cy="226" r="180" fill="#89BDB9"/>
</mask>
<g mask="url(#mask0)">
<path opacity="0.5" d="M591.377 330.47H176.626C176.626 330.47 175.731 289.059 207.679 289.252C239.627 289.445 242.923 292.215 258.439 277.558C273.956 262.902 274.064 220.924 305.56 234.399C317.116 239.341 321.708 245.498 339.658 235.506C357.608 225.513 349.408 202.127 378.999 201.363C408.59 200.6 478.639 193.986 500.601 234.399C516.632 263.91 517.924 289.596 546.138 287.32C574.351 285.045 588.242 322.414 591.377 330.47Z" fill="#86D7D0"/>
<path opacity="0.5" d="M564.464 330.469H226.878C226.878 330.469 227.891 306.178 253.899 306.338C279.906 306.498 259.113 259.81 271.745 247.881C284.376 235.952 297.309 212.028 322.944 222.996C332.373 227.015 352.794 255 367.405 246.863C382.017 238.727 367.514 225.997 391.607 225.38C415.7 224.763 498.559 209.046 516.438 241.94C529.494 265.967 515.717 304.948 538.683 303.097C561.649 301.245 561.913 323.911 564.464 330.469Z" fill="#86D7D0"/>
<path d="M225.874 323.358C225.874 323.358 211.006 310.424 218.401 301.097C225.796 291.771 235.273 305.508 237.814 298.112C240.356 290.716 213.12 257.107 242.24 250.817C271.36 244.527 256.119 274.649 260.541 279.402C265.51 284.746 281.225 270.531 274.869 293.177C269.882 310.949 277.719 302.349 280.647 307.969C284.306 314.993 277.256 323.353 277.256 323.353L225.874 323.358Z" fill="#5FBAB2"/>
<path opacity="0.1" d="M281.69 312.193C281.69 312.053 281.682 311.912 281.673 311.769C278.707 312.643 275.758 311.968 274.869 311.724C276.123 309.769 277.568 307.924 279.213 306.365C279.094 306.288 278.97 306.218 278.844 306.153C276.039 308.837 273.826 312.327 272.131 315.767C272.227 313.86 272.751 309.21 275.486 305.363C275.343 305.328 275.205 305.288 275.071 305.242C271.563 310.284 271.696 316.58 271.699 316.661C270.686 318.838 269.802 321.072 269.051 323.352H269.481C270.564 320.1 272.243 315.905 274.635 312.08C275.892 312.43 277.191 312.608 278.496 312.609C279.575 312.618 280.65 312.478 281.69 312.193Z" fill="black"/>
<path opacity="0.1" d="M263.527 306.86C264.448 306.815 268.519 306.471 273.542 303.779C273.492 303.649 273.451 303.516 273.417 303.381C268.569 305.995 264.623 306.386 263.596 306.444C263.925 304.5 264.321 302.549 264.798 300.647C265.714 300.541 270.079 299.957 273.733 297.805C273.769 297.622 273.808 297.434 273.85 297.243C270.39 299.387 266.082 300.067 264.908 300.218C266.279 294.914 268.292 290.031 271.246 286.796C272.802 285.094 274.173 283.139 275.378 281.049C275.287 280.939 275.19 280.836 275.085 280.739C273.876 282.843 272.502 284.81 270.94 286.52C268.948 288.7 267.38 291.618 266.144 294.902C265.923 292.318 265.466 284.497 267.542 280.371C267.377 280.399 267.212 280.425 267.047 280.451C264.665 285.576 265.76 295.308 265.818 295.8C262.599 304.961 261.818 316.639 261.654 323.358H262.064C262.169 319.175 262.513 313.071 263.527 306.86Z" fill="black"/>
<path opacity="0.1" d="M237.786 318.14C237.786 317.33 237.762 306.606 234.623 300.375C234.46 300.359 234.292 300.333 234.121 300.302C236.921 305.613 237.312 314.792 237.365 317.438C234.859 313.35 231.583 309.703 228.253 306.617C228.359 306.022 228.971 302.134 228.055 298.246C227.906 298.203 227.756 298.161 227.606 298.121C228.486 301.618 228.057 305.194 227.891 306.28C225.295 303.923 222.548 301.737 219.668 299.737C219.562 299.829 219.464 299.925 219.363 300.024C222.374 302.118 226.055 304.962 229.546 308.416C228.512 309.107 223.773 311.971 217.142 311.266C217.193 311.409 217.248 311.551 217.3 311.69C217.959 311.754 218.602 311.787 219.223 311.787C224.996 311.787 229.006 309.28 229.844 308.714C230.503 309.374 231.151 310.057 231.79 310.761C231.143 311.624 227.435 316.119 220.152 316.906C220.242 317.035 220.334 317.162 220.424 317.288C227.539 316.44 231.272 312.111 232.071 311.074C235.292 314.677 238.134 318.821 239.83 323.366H240.264C239.593 321.554 238.763 319.806 237.786 318.14Z" fill="black"/>
<path opacity="0.1" d="M251.567 323.358C251.567 320.832 251.516 317.999 251.371 314.944H251.38C251.416 314.686 254.752 291.672 264.134 280.713C263.961 280.713 263.788 280.705 263.618 280.693C255.847 290.018 252.263 307.423 251.271 313.069C250.922 307.118 250.211 300.455 248.883 293.706C248.937 293.633 249.006 293.53 249.105 293.388C251.806 289.402 256.153 283.316 260.25 279.002C260.177 278.877 260.113 278.747 260.058 278.612C255.904 282.957 251.501 289.12 248.771 293.15C248.455 291.587 248.105 290.023 247.721 288.458C246.18 282.228 245.515 276.017 245.361 270.278C246.738 270.271 254.205 270.106 260.417 267.364C260.431 267.208 260.445 267.052 260.46 266.896C254.275 269.701 246.686 269.863 245.349 269.863C245.283 266.927 245.349 264.119 245.499 261.499C246.743 261.081 254.858 258.289 259.281 255.003C259.218 254.878 259.155 254.753 259.087 254.632C254.916 257.746 247.154 260.498 245.525 261.056C245.786 256.795 246.267 253.054 246.743 250.096C246.603 250.109 246.463 250.123 246.319 250.139C245.519 255.126 245.059 260.161 244.941 265.211C239.363 264.493 233.687 261.131 230.146 258.651C230.083 258.774 230.017 258.896 229.959 259.021C233.553 261.531 239.283 264.912 244.934 265.625C244.821 271.721 245.221 278.56 246.64 285.518C244.945 284.978 237.066 282.362 231.554 278.643C231.635 278.869 231.718 279.093 231.801 279.319C237.622 283.109 245.598 285.631 246.739 285.98C246.92 286.837 247.115 287.695 247.325 288.554C248.785 294.456 249.717 300.422 250.292 306.022C249.203 304.505 246.004 301.012 237.951 297.479C237.934 297.619 237.908 297.759 237.874 297.896C247.552 302.173 250.117 306.437 250.382 306.929C250.98 313.067 251.159 318.733 251.157 323.358H251.567Z" fill="black"/>
<path d="M546.975 247.3C546.067 247.182 545.004 245.726 545.004 245.726C545.004 245.726 546.16 244.561 547.068 244.676C547.976 244.792 548.534 245.457 548.508 246.181C548.483 246.904 547.883 247.418 546.975 247.3Z" fill="#9FE6E0"/>
<path d="M542.115 242.053C541.945 243.38 540.602 244.674 540.602 244.674C540.602 244.674 539.675 242.728 539.846 241.403C540.016 240.077 540.633 239.378 541.259 239.557C541.885 239.736 542.289 240.728 542.115 242.053Z" fill="#9FE6E0"/>
<path d="M536.304 243.768C536.648 245.7 535.451 248.445 535.451 248.445C535.451 248.445 533.412 246.473 533.067 244.542C532.722 242.61 533.228 241.206 534.121 240.992C535.014 240.778 535.959 241.837 536.304 243.768Z" fill="#9FE6E0"/>
<path d="M530.342 247.123C531.543 249.053 531.444 253.043 531.444 253.043C531.444 253.043 528.41 252.317 527.206 250.386C526.001 248.456 525.934 246.494 526.805 245.594C527.676 244.693 529.14 245.192 530.342 247.123Z" fill="#9FE6E0"/>
<path d="M525.255 254.416C526.845 255.112 528.277 258.223 528.277 258.223C528.277 258.223 525.845 259.634 524.26 258.936C522.675 258.239 521.89 256.784 522.165 255.536C522.439 254.288 523.671 253.72 525.255 254.416Z" fill="#9FE6E0"/>
<path d="M522.976 262.818C524.186 262.625 525.869 263.931 525.869 263.931C525.869 263.931 524.597 265.709 523.386 265.902C522.175 266.094 521.311 265.528 521.205 264.676C521.099 263.824 521.766 263.011 522.976 262.818Z" fill="#9FE6E0"/>
<path d="M543.606 251.338C542.534 250.982 541.462 249.007 541.462 249.007C541.462 249.007 543.01 247.904 544.084 248.26C545.157 248.616 545.732 249.532 545.601 250.379C545.469 251.227 544.678 251.694 543.606 251.338Z" fill="#9FE6E0"/>
<path d="M539.493 256.058C538.221 255.05 537.452 252.032 537.452 252.032C537.452 252.032 539.783 251.476 541.054 252.484C542.326 253.492 542.784 254.933 542.353 255.918C541.923 256.903 540.762 257.066 539.493 256.058Z" fill="#9FE6E0"/>
<path d="M534.076 262.498C532.995 260.863 532.998 257.395 532.998 257.395C532.998 257.395 535.639 257.916 536.72 259.55C537.801 261.184 537.897 262.885 537.167 263.699C536.437 264.513 535.156 264.131 534.076 262.498Z" fill="#9FE6E0"/>
<path d="M529.737 266.723C529.383 265.488 529.978 263.537 529.978 263.537C529.978 263.537 531.437 264.605 531.791 265.841C532.145 267.076 531.911 268.066 531.344 268.305C530.777 268.545 530.091 267.959 529.737 266.723Z" fill="#9FE6E0"/>
<path d="M521.873 299.013L521.53 298.94C521.556 294.19 521.836 289.444 522.37 284.724C523.202 277.323 525.05 266.906 529.132 259.309C533.214 251.712 536.972 248.308 539.397 246.795C542.046 245.142 543.775 245.759 543.775 245.759C543.775 245.759 542.109 245.604 539.528 247.221C537.141 248.717 533.448 252.076 529.416 259.579C525.371 267.11 523.536 277.458 522.71 284.813C522.175 289.528 521.895 294.268 521.873 299.013Z" fill="#9FE6E0"/>
<path d="M530.683 323.928C530.683 323.928 527.953 313.733 521.32 306.021C512.901 296.233 515.361 287.814 522.817 288.296C531.108 288.831 532.232 290.907 533.849 285.216C535.465 279.525 535.062 254.594 552.238 254.555C569.415 254.516 556.688 287.631 549.409 299.013C542.131 310.395 546.984 311.35 550.822 310.397C554.659 309.443 558.299 313.394 556.682 317.673C555.065 321.952 551.731 323.925 551.731 323.925L530.683 323.928Z" fill="#459991"/>
<path opacity="0.1" d="M539.201 296.379C538.353 293.319 535.493 290.145 532.882 287.76C532.824 287.861 532.764 287.955 532.703 288.043C535.396 290.516 538.329 293.819 538.968 296.933C537.22 301.13 536.042 305.052 536.042 308.534C536.047 313.715 536.634 318.879 537.79 323.929H538.154C536.993 318.879 536.404 313.715 536.398 308.534C536.398 306.343 536.872 303.968 537.669 301.457C538.238 301.051 545.086 296.239 552.158 294.161C552.222 294.035 552.287 293.91 552.352 293.783C545.862 295.615 539.518 299.787 537.836 300.945C539.354 296.351 541.886 291.312 544.511 286.089C544.617 285.877 544.723 285.665 544.829 285.453C549.545 285.262 553.729 284.373 556.801 283.506C556.846 283.386 556.888 283.266 556.932 283.146C553.041 284.271 549.032 284.94 544.986 285.139C545.444 284.227 545.9 283.313 546.356 282.394C547.271 282.288 553.463 281.523 558.003 280.019C558.043 279.893 558.082 279.768 558.123 279.643C553.885 281.088 547.928 281.888 546.518 282.064C548.987 277.051 551.286 271.998 552.568 267.185C553.405 267.152 557.804 266.849 560.788 264.119C560.782 263.972 560.771 263.829 560.762 263.685C557.965 266.449 553.663 266.825 552.646 266.875C552.71 266.629 552.775 266.382 552.834 266.133C554.074 260.881 554.406 257.244 554.325 254.738C554.206 254.715 554.084 254.696 553.961 254.678C554.05 257.15 553.732 260.78 552.478 266.072C551.955 268.213 551.288 270.315 550.482 272.365C549.26 272.006 541.591 269.585 538.368 264.677C538.313 264.802 538.262 264.928 538.207 265.054C541.576 269.903 549.136 272.293 550.368 272.656C548.654 277.05 546.391 281.556 544.175 285.964C542.377 289.552 540.62 293.048 539.201 296.379Z" fill="black"/>
<path opacity="0.1" d="M555.387 311.643C555.303 311.562 555.215 311.486 555.126 311.412C553.671 312.226 552.295 313.174 551.017 314.244C549.665 315.363 548.438 316.625 547.358 318.008C547.152 316.98 546.723 313.862 548.236 310.652C548.113 310.641 547.992 310.624 547.874 310.604C546.151 314.327 546.958 317.915 547.075 318.38C545.803 320.078 544.775 321.946 544.022 323.929H544.396C545.341 321.465 547.109 318.221 550.403 315.22C551.565 315.477 552.751 315.609 553.941 315.615C554.954 315.615 556.051 315.509 557.06 315.176C557.052 315.07 557.041 314.955 557.026 314.846C554.638 315.657 551.623 315.154 550.686 314.964C550.876 314.796 551.068 314.63 551.267 314.465C552.546 313.394 553.926 312.449 555.387 311.643Z" fill="black"/>
<path opacity="0.1" d="M518.172 289.557C520.854 290.622 523.782 292.373 526.138 295.255C527.269 296.633 528.273 298.369 529.169 300.299C527.651 299.937 521.458 298.54 516.811 298.66C516.848 298.76 516.88 298.861 516.916 298.963C521.856 298.857 528.544 300.463 529.332 300.658C530.921 304.167 532.153 308.287 533.132 312.179C532.173 311.855 529.165 311.003 525.186 311.416C525.244 311.514 525.301 311.611 525.36 311.707C529.624 311.292 532.71 312.352 533.223 312.543C533.388 313.2 533.544 313.848 533.692 314.487C531.372 313.701 528.909 313.427 526.473 313.681C526.526 313.779 526.579 313.876 526.627 313.974C529.045 313.737 531.486 314.034 533.776 314.845C534.228 316.792 534.615 318.623 534.952 320.216C535.27 321.722 535.538 322.978 535.771 323.93H536.139C535.903 322.976 535.633 321.705 535.306 320.161C533.785 312.981 531.24 300.965 526.43 295.08C524.074 292.201 521.157 290.432 518.464 289.342C518.367 289.411 518.267 289.482 518.172 289.557Z" fill="black"/>
<path d="M178.152 321.947C178.152 321.947 167.506 380.658 178.012 406.282C192.038 440.41 565.553 452.648 588.902 412.383C601.844 390.061 588.776 321.947 588.776 321.947H178.152Z" fill="#4AA29A"/>
<path opacity="0.5" d="M317.855 166.51H281.627C281.523 166.512 281.421 166.486 281.331 166.436C281.24 166.385 281.164 166.312 281.111 166.223C281.058 166.134 281.03 166.032 281.029 165.929C281.028 165.825 281.054 165.723 281.105 165.633C281.401 165.043 281.768 164.493 282.197 163.993C282.541 163.592 282.968 163.272 283.448 163.054C283.985 162.813 284.461 162.453 284.839 162.002C285.716 161.059 286.537 159.809 288.441 159.077C291.253 157.98 294.452 159.699 299.993 157.516C305.535 155.332 307.891 161.072 311.778 161.962C312.482 162.127 313.17 162.35 313.836 162.629C314.711 163.004 315.548 163.461 316.337 163.993C316.999 164.44 317.631 164.931 318.228 165.462C318.327 165.537 318.4 165.641 318.435 165.76C318.471 165.878 318.468 166.006 318.426 166.122C318.384 166.239 318.307 166.34 318.204 166.409C318.101 166.479 317.979 166.514 317.855 166.51Z" fill="#9FE6E0"/>
<path opacity="0.5" d="M422.503 115.401H384.687C384.156 113.366 383.787 112.835 383.985 112.331C384.37 111.336 384.92 110.412 385.612 109.599C386.078 109.039 386.653 108.579 387.303 108.249C387.952 107.919 388.663 107.724 389.39 107.678C393.813 107.433 394.181 103.622 398.727 102.824C403.272 102.026 407.445 105.591 409.779 105.455C412.113 105.319 415.448 106.051 417.642 108.038C419.041 109.283 420.537 109.63 421.788 110.634C422.341 111.079 422.803 111.627 423.148 112.248C423.446 112.748 423.078 113.366 422.503 115.401Z" fill="#9FE6E0"/>
<path opacity="0.8" d="M503.189 140.577H455.282C455.125 140.576 454.972 140.528 454.843 140.439C454.714 140.349 454.615 140.223 454.559 140.076C454.504 139.929 454.494 139.769 454.531 139.617C454.569 139.464 454.651 139.327 454.768 139.222C456.02 138.097 457.396 137.119 458.871 136.306C460.261 135.532 461.752 134.956 463.302 134.596C468.466 133.412 471.559 125.825 478.891 128.711C486.223 131.596 490.457 129.329 494.173 130.776C496.827 131.807 497.902 133.574 499.122 134.837C499.584 135.349 500.149 135.759 500.781 136.038C502.224 136.63 503.295 138.31 503.883 139.45C503.943 139.569 503.971 139.7 503.966 139.833C503.96 139.966 503.921 140.095 503.851 140.208C503.782 140.321 503.685 140.414 503.569 140.479C503.453 140.543 503.322 140.577 503.189 140.577Z" fill="white"/>
<path d="M499.122 134.846C496.019 135.819 492.799 136.366 489.548 136.473C480.335 136.885 473.859 134.644 467.663 135.284C464.934 135.565 461.674 135.99 458.888 136.306C460.278 135.532 461.77 134.956 463.32 134.596C468.484 133.412 471.577 125.825 478.909 128.711C486.24 131.596 490.474 129.329 494.19 130.776C496.827 131.807 497.885 133.574 499.122 134.846Z" fill="white"/>
<path opacity="0.8" d="M340.205 121.634H294.136C294.049 121.633 293.963 121.611 293.886 121.571C293.809 121.53 293.742 121.472 293.692 121.401C293.641 121.33 293.608 121.249 293.595 121.162C293.583 121.076 293.59 120.988 293.618 120.906C294.329 118.792 296.505 118.051 298.089 116.279C298.221 116.13 298.361 115.99 298.497 115.841C300.169 114.192 302.2 113.516 305.732 113.372C311.739 113.131 310.997 109.039 318.224 109.039C325.45 109.039 323.8 112.03 330.925 112.96C334.326 113.398 336.792 115.398 338.441 117.345C339.334 118.41 340.098 119.575 340.719 120.818C340.769 120.904 340.794 121.002 340.792 121.101C340.791 121.2 340.762 121.297 340.709 121.381C340.656 121.465 340.581 121.533 340.492 121.578C340.404 121.622 340.304 121.642 340.205 121.634Z" fill="white"/>
<path d="M338.42 117.376C335.13 117.572 331.828 117.347 328.596 116.705C323.712 115.604 320.132 116.705 310.085 117.735C304.771 118.283 300.923 117.099 298.475 115.858C300.147 114.209 302.178 113.534 305.71 113.389C311.717 113.148 310.975 109.057 318.202 109.057C325.428 109.057 323.778 112.047 330.904 112.977C334.304 113.42 336.77 115.415 338.42 117.376Z" fill="white"/>
<path opacity="0.8" d="M298.826 140.772H258.246C258.208 140.771 258.171 140.761 258.138 140.742C258.105 140.723 258.077 140.696 258.057 140.664C258.037 140.632 258.025 140.595 258.023 140.557C258.021 140.519 258.028 140.482 258.044 140.447C258.783 139.044 260.024 137.97 261.519 137.439C262.218 137.179 262.946 137.005 263.686 136.921C268.368 136.369 268.921 133.65 272.773 132.944C276.625 132.238 280.206 134.181 284.058 133.558C287.91 132.935 290.81 136.088 292.732 136.781C293.61 137.097 294.781 137.386 295.904 137.882C297.187 138.375 298.277 139.266 299.015 140.425C299.036 140.459 299.047 140.498 299.048 140.538C299.049 140.578 299.04 140.618 299.021 140.653C299.001 140.688 298.973 140.717 298.939 140.738C298.905 140.759 298.866 140.771 298.826 140.772Z" fill="white"/>
<path d="M295.904 137.881C292.669 138.382 289.382 138.456 286.128 138.1C280.39 137.352 274.574 137.421 268.855 138.306C266.376 138.723 263.829 138.418 261.519 137.429C262.217 137.169 262.945 136.995 263.686 136.912C268.368 136.359 268.92 133.64 272.773 132.934C276.625 132.228 280.205 134.171 284.058 133.548C287.91 132.925 290.81 136.078 292.732 136.771C293.627 137.096 294.79 137.385 295.904 137.881Z" fill="white"/>
<path d="M523.433 166.334C524.618 166.334 525.578 165.374 525.578 164.189C525.578 163.004 524.618 162.043 523.433 162.043C522.248 162.043 521.287 163.004 521.287 164.189C521.287 165.374 522.248 166.334 523.433 166.334Z" fill="#9FE7E0"/>
<path d="M523.433 174.229C524.618 174.229 525.578 173.268 525.578 172.083C525.578 170.898 524.618 169.938 523.433 169.938C522.248 169.938 521.287 170.898 521.287 172.083C521.287 173.268 522.248 174.229 523.433 174.229Z" fill="#9FE7E0"/>
<path d="M523.433 182.125C524.618 182.125 525.578 181.165 525.578 179.98C525.578 178.795 524.618 177.834 523.433 177.834C522.248 177.834 521.287 178.795 521.287 179.98C521.287 181.165 522.248 182.125 523.433 182.125Z" fill="#9FE7E0"/>
<path d="M523.433 190.02C524.618 190.02 525.578 189.059 525.578 187.874C525.578 186.689 524.618 185.729 523.433 185.729C522.248 185.729 521.287 186.689 521.287 187.874C521.287 189.059 522.248 190.02 523.433 190.02Z" fill="#9FE7E0"/>
<path d="M523.433 197.916C524.618 197.916 525.578 196.956 525.578 195.771C525.578 194.586 524.618 193.625 523.433 193.625C522.248 193.625 521.287 194.586 521.287 195.771C521.287 196.956 522.248 197.916 523.433 197.916Z" fill="#9FE7E0"/>
<path d="M523.433 205.811C524.618 205.811 525.578 204.85 525.578 203.665C525.578 202.48 524.618 201.52 523.433 201.52C522.248 201.52 521.287 202.48 521.287 203.665C521.287 204.85 522.248 205.811 523.433 205.811Z" fill="#9FE7E0"/>
<path d="M523.433 213.707C524.618 213.707 525.578 212.747 525.578 211.562C525.578 210.377 524.618 209.416 523.433 209.416C522.248 209.416 521.287 210.377 521.287 211.562C521.287 212.747 522.248 213.707 523.433 213.707Z" fill="#9FE7E0"/>
<path d="M515.834 166.334C517.019 166.334 517.979 165.374 517.979 164.189C517.979 163.004 517.019 162.043 515.834 162.043C514.649 162.043 513.688 163.004 513.688 164.189C513.688 165.374 514.649 166.334 515.834 166.334Z" fill="#9FE7E0"/>
<path d="M515.834 174.229C517.019 174.229 517.979 173.268 517.979 172.083C517.979 170.898 517.019 169.938 515.834 169.938C514.649 169.938 513.688 170.898 513.688 172.083C513.688 173.268 514.649 174.229 515.834 174.229Z" fill="#9FE7E0"/>
<path d="M515.834 182.125C517.019 182.125 517.979 181.165 517.979 179.98C517.979 178.795 517.019 177.834 515.834 177.834C514.649 177.834 513.688 178.795 513.688 179.98C513.688 181.165 514.649 182.125 515.834 182.125Z" fill="#9FE7E0"/>
<path d="M515.834 190.02C517.019 190.02 517.979 189.059 517.979 187.874C517.979 186.689 517.019 185.729 515.834 185.729C514.649 185.729 513.688 186.689 513.688 187.874C513.688 189.059 514.649 190.02 515.834 190.02Z" fill="#9FE7E0"/>
<path d="M515.834 197.916C517.019 197.916 517.979 196.956 517.979 195.771C517.979 194.586 517.019 193.625 515.834 193.625C514.649 193.625 513.688 194.586 513.688 195.771C513.688 196.956 514.649 197.916 515.834 197.916Z" fill="#9FE7E0"/>
<path d="M515.834 205.811C517.019 205.811 517.979 204.85 517.979 203.665C517.979 202.48 517.019 201.52 515.834 201.52C514.649 201.52 513.688 202.48 513.688 203.665C513.688 204.85 514.649 205.811 515.834 205.811Z" fill="#9FE7E0"/>
<path d="M515.834 213.707C517.019 213.707 517.979 212.747 517.979 211.562C517.979 210.377 517.019 209.416 515.834 209.416C514.649 209.416 513.688 210.377 513.688 211.562C513.688 212.747 514.649 213.707 515.834 213.707Z" fill="#9FE7E0"/>
<path d="M508.236 166.336C509.421 166.336 510.381 165.376 510.381 164.191C510.381 163.006 509.421 162.045 508.236 162.045C507.051 162.045 506.09 163.006 506.09 164.191C506.09 165.376 507.051 166.336 508.236 166.336Z" fill="#9FE7E0"/>
<path d="M508.235 174.229C509.42 174.229 510.381 173.268 510.381 172.083C510.381 170.898 509.42 169.938 508.235 169.938C507.05 169.938 506.09 170.898 506.09 172.083C506.09 173.268 507.05 174.229 508.235 174.229Z" fill="#9FE7E0"/>
<path d="M508.235 182.125C509.42 182.125 510.381 181.165 510.381 179.98C510.381 178.795 509.42 177.834 508.235 177.834C507.05 177.834 506.09 178.795 506.09 179.98C506.09 181.165 507.05 182.125 508.235 182.125Z" fill="#9FE7E0"/>
<path d="M508.235 190.02C509.42 190.02 510.381 189.059 510.381 187.874C510.381 186.689 509.42 185.729 508.235 185.729C507.05 185.729 506.09 186.689 506.09 187.874C506.09 189.059 507.05 190.02 508.235 190.02Z" fill="#9FE7E0"/>
<path d="M508.235 197.916C509.42 197.916 510.381 196.956 510.381 195.771C510.381 194.586 509.42 193.625 508.235 193.625C507.05 193.625 506.09 194.586 506.09 195.771C506.09 196.956 507.05 197.916 508.235 197.916Z" fill="#9FE7E0"/>
<path d="M508.235 205.811C509.42 205.811 510.381 204.85 510.381 203.665C510.381 202.48 509.42 201.52 508.235 201.52C507.05 201.52 506.09 202.48 506.09 203.665C506.09 204.85 507.05 205.811 508.235 205.811Z" fill="#9FE7E0"/>
<path d="M508.235 213.707C509.42 213.707 510.381 212.747 510.381 211.562C510.381 210.377 509.42 209.416 508.235 209.416C507.05 209.416 506.09 210.377 506.09 211.562C506.09 212.747 507.05 213.707 508.235 213.707Z" fill="#9FE7E0"/>
<path d="M367.542 323.043C367.542 323.043 364.812 312.849 358.179 305.136C349.76 295.349 352.22 286.929 359.676 287.411C367.966 287.946 369.091 290.022 370.707 284.331C372.324 278.64 371.921 253.709 389.097 253.67C406.274 253.631 393.547 286.746 386.268 298.128C378.99 309.51 383.843 310.466 387.681 309.512C391.518 308.558 395.157 312.51 393.541 316.788C391.924 321.067 388.59 323.04 388.59 323.04L367.542 323.043Z" fill="#459991"/>
<path opacity="0.1" d="M376.06 295.494C375.212 292.434 372.352 289.26 369.741 286.875C369.683 286.976 369.622 287.07 369.562 287.158C372.255 289.631 375.188 292.934 375.827 296.048C374.079 300.245 372.901 304.168 372.901 307.649C372.906 312.83 373.493 317.994 374.649 323.044H375.013C373.852 317.995 373.263 312.831 373.257 307.649C373.257 305.458 373.731 303.084 374.528 300.572C375.097 300.167 381.944 295.354 389.017 293.276C389.081 293.15 389.146 293.025 389.21 292.898C382.721 294.73 376.377 298.903 374.695 300.061C376.213 295.466 378.745 290.427 381.37 285.204C381.476 284.992 381.582 284.78 381.688 284.569C386.404 284.377 390.588 283.488 393.66 282.621C393.705 282.501 393.747 282.382 393.791 282.261C389.9 283.387 385.891 284.055 381.845 284.254C382.303 283.343 382.759 282.428 383.215 281.51C384.13 281.404 390.322 280.639 394.862 279.134C394.902 279.008 394.941 278.883 394.982 278.758C390.744 280.203 384.787 281.003 383.377 281.179C385.845 276.166 388.145 271.113 389.427 266.3C390.264 266.267 394.663 265.964 397.647 263.234C397.641 263.088 397.63 262.945 397.621 262.8C394.824 265.564 390.522 265.94 389.505 265.99C389.569 265.744 389.634 265.497 389.693 265.248C390.933 259.996 391.265 256.359 391.184 253.853C391.065 253.83 390.943 253.811 390.82 253.793C390.909 256.265 390.591 259.895 389.337 265.188C388.814 267.328 388.147 269.43 387.34 271.481C386.119 271.121 378.45 268.7 375.227 263.792C375.172 263.917 375.121 264.043 375.066 264.169C378.435 269.018 385.995 271.409 387.227 271.771C385.513 276.165 383.25 280.671 381.034 285.079C379.236 288.667 377.479 292.164 376.06 295.494Z" fill="black"/>
<path opacity="0.1" d="M392.246 310.758C392.161 310.678 392.073 310.601 391.984 310.527C390.529 311.341 389.154 312.289 387.876 313.359C386.524 314.478 385.297 315.74 384.217 317.123C384.011 316.095 383.581 312.977 385.094 309.767C384.971 309.756 384.851 309.739 384.733 309.719C383.009 313.442 383.817 317.03 383.934 317.495C382.662 319.193 381.634 321.061 380.881 323.044H381.255C382.2 320.581 383.968 317.336 387.262 314.335C388.424 314.592 389.61 314.724 390.8 314.731C391.813 314.731 392.909 314.625 393.919 314.291C393.91 314.185 393.9 314.07 393.885 313.961C391.497 314.772 388.482 314.27 387.545 314.079C387.735 313.912 387.926 313.745 388.126 313.58C389.405 312.509 390.785 311.564 392.246 310.758Z" fill="black"/>
<path opacity="0.1" d="M355.031 288.672C357.713 289.737 360.641 291.488 362.997 294.371C364.128 295.748 365.132 297.485 366.028 299.414C364.51 299.052 358.317 297.655 353.67 297.775C353.707 297.876 353.739 297.976 353.776 298.078C358.715 297.972 365.404 299.578 366.191 299.773C367.78 303.283 369.012 307.402 369.991 311.294C369.032 310.97 366.024 310.118 362.045 310.531C362.103 310.629 362.16 310.726 362.219 310.823C366.483 310.407 369.569 311.467 370.082 311.659C370.247 312.316 370.403 312.963 370.551 313.602C368.231 312.817 365.768 312.542 363.332 312.797C363.385 312.894 363.438 312.992 363.486 313.089C365.904 312.852 368.345 313.149 370.635 313.96C371.087 315.908 371.474 317.739 371.811 319.331C372.129 320.837 372.397 322.093 372.63 323.045H372.998C372.762 322.091 372.492 320.82 372.165 319.276C370.644 312.096 368.099 300.081 363.289 294.196C360.933 291.316 358.016 289.547 355.323 288.457C355.226 288.526 355.126 288.597 355.031 288.672Z" fill="black"/>
<path d="M484.209 342.584C483.199 343.043 477.566 342.826 472.997 342.852C469.455 342.876 468.628 341.844 469.37 341.043C469.638 340.777 469.963 340.576 470.321 340.456C471.724 339.896 473.087 339.243 474.403 338.501V307.303H478.423L478.468 309.24L479.16 338.501C479.16 338.501 486.915 341.362 484.209 342.584Z" fill="#3C857E"/>
<path d="M484.209 342.585C483.199 343.043 477.566 342.827 472.997 342.852C469.455 342.876 468.628 341.844 469.37 341.043C473.282 342.169 479.854 341.685 479.854 341.146C479.854 340.491 478.382 340.242 477.892 339.341C477.401 338.439 477.272 309.32 477.272 309.32L478.477 309.234L479.169 338.495C479.169 338.495 486.915 341.362 484.209 342.585Z" fill="#34726C"/>
<path d="M498.656 312.37L445.09 310.968L454.808 260.773H507.786L498.656 312.37Z" fill="#34726C"/>
<path d="M497.698 311.255L446.442 309.915L455.74 261.883H506.436L497.698 311.255Z" fill="#5FBAB2"/>
<path d="M453.882 310.529C453.855 310.531 453.829 310.531 453.802 310.529C453.698 310.508 453.607 310.446 453.549 310.358C453.49 310.27 453.469 310.162 453.49 310.058L463.316 261.816C463.324 261.762 463.343 261.71 463.371 261.664C463.4 261.617 463.438 261.577 463.482 261.546C463.527 261.514 463.577 261.492 463.63 261.481C463.684 261.47 463.739 261.47 463.792 261.481C463.846 261.491 463.896 261.513 463.941 261.544C463.986 261.575 464.024 261.615 464.053 261.661C464.082 261.707 464.101 261.759 464.109 261.813C464.117 261.867 464.114 261.922 464.101 261.974L454.274 310.208C454.255 310.298 454.206 310.38 454.135 310.438C454.064 310.497 453.974 310.529 453.882 310.529Z" fill="#71D3CA"/>
<path d="M462.421 310.843C462.394 310.846 462.366 310.846 462.339 310.843C462.288 310.832 462.239 310.812 462.195 310.783C462.152 310.754 462.114 310.716 462.085 310.672C462.057 310.628 462.037 310.579 462.027 310.528C462.017 310.476 462.018 310.423 462.029 310.372L471.916 261.804C471.923 261.75 471.942 261.699 471.971 261.652C471.999 261.606 472.037 261.565 472.081 261.534C472.126 261.503 472.176 261.481 472.23 261.47C472.283 261.458 472.338 261.458 472.392 261.469C472.445 261.48 472.496 261.501 472.541 261.532C472.585 261.563 472.623 261.603 472.652 261.649C472.681 261.696 472.7 261.747 472.708 261.801C472.717 261.855 472.714 261.91 472.7 261.963L462.809 310.524C462.79 310.613 462.742 310.693 462.671 310.751C462.6 310.809 462.512 310.842 462.421 310.843Z" fill="#71D3CA"/>
<path d="M470.992 310.998C470.965 311.001 470.939 311.001 470.912 310.998C470.861 310.988 470.812 310.967 470.768 310.938C470.724 310.909 470.687 310.871 470.658 310.827C470.629 310.784 470.609 310.734 470.599 310.683C470.589 310.631 470.589 310.578 470.6 310.527L480.521 261.816C480.528 261.762 480.547 261.71 480.576 261.664C480.604 261.617 480.642 261.577 480.686 261.546C480.731 261.514 480.781 261.492 480.835 261.481C480.888 261.47 480.943 261.47 480.997 261.481C481.05 261.491 481.101 261.513 481.146 261.544C481.19 261.575 481.228 261.615 481.257 261.661C481.286 261.707 481.305 261.759 481.313 261.813C481.322 261.867 481.319 261.922 481.305 261.974L471.384 310.685C471.364 310.774 471.314 310.854 471.243 310.91C471.171 310.967 471.083 310.998 470.992 310.998Z" fill="#71D3CA"/>
<path d="M479.596 310.997C479.569 311 479.541 311 479.514 310.997C479.463 310.986 479.414 310.966 479.37 310.937C479.326 310.908 479.289 310.87 479.26 310.826C479.231 310.782 479.211 310.733 479.202 310.681C479.192 310.63 479.193 310.577 479.204 310.526L489.125 261.815C489.151 261.716 489.213 261.63 489.3 261.576C489.387 261.522 489.491 261.503 489.592 261.524C489.692 261.544 489.781 261.602 489.84 261.685C489.899 261.769 489.924 261.872 489.909 261.973L479.988 310.684C479.968 310.773 479.918 310.852 479.847 310.909C479.775 310.966 479.687 310.997 479.596 310.997Z" fill="#71D3CA"/>
<path d="M488.115 311.407C488.088 311.41 488.061 311.41 488.034 311.407C487.93 311.385 487.839 311.324 487.78 311.236C487.721 311.147 487.7 311.039 487.721 310.935L497.756 261.67C497.777 261.566 497.839 261.475 497.928 261.416C498.017 261.358 498.125 261.337 498.229 261.357C498.281 261.368 498.33 261.388 498.373 261.418C498.417 261.447 498.454 261.485 498.483 261.529C498.512 261.573 498.532 261.623 498.542 261.674C498.552 261.726 498.551 261.779 498.54 261.831L488.505 311.085C488.487 311.176 488.439 311.257 488.368 311.316C488.297 311.374 488.207 311.406 488.115 311.407Z" fill="#71D3CA"/>
<path d="M499.388 302.113H448.739C448.633 302.113 448.532 302.071 448.457 301.996C448.382 301.922 448.34 301.82 448.34 301.715C448.34 301.609 448.382 301.508 448.457 301.433C448.532 301.358 448.633 301.316 448.739 301.316H499.388C499.494 301.316 499.595 301.358 499.67 301.433C499.745 301.508 499.787 301.609 499.787 301.715C499.787 301.82 499.745 301.922 499.67 301.996C499.595 302.071 499.494 302.113 499.388 302.113Z" fill="#71D3CA"/>
<path d="M500.8 294.117H449.504C449.398 294.117 449.297 294.075 449.222 294C449.147 293.925 449.105 293.824 449.105 293.719C449.105 293.613 449.147 293.512 449.222 293.437C449.297 293.362 449.398 293.32 449.504 293.32H500.8C500.906 293.32 501.007 293.362 501.082 293.437C501.157 293.512 501.199 293.613 501.199 293.719C501.199 293.824 501.157 293.925 501.082 294C501.007 294.075 500.906 294.117 500.8 294.117Z" fill="#71D3CA"/>
<path d="M502.112 286.133H451.131C451.03 286.126 450.936 286.081 450.868 286.007C450.799 285.934 450.761 285.837 450.761 285.736C450.761 285.636 450.799 285.539 450.868 285.465C450.936 285.391 451.03 285.346 451.131 285.339H502.129C502.184 285.335 502.239 285.342 502.29 285.36C502.342 285.379 502.389 285.407 502.43 285.444C502.47 285.482 502.502 285.527 502.524 285.577C502.546 285.627 502.557 285.681 502.557 285.736C502.557 285.791 502.546 285.845 502.524 285.895C502.502 285.945 502.47 285.991 502.43 286.028C502.389 286.065 502.342 286.094 502.29 286.112C502.239 286.13 502.184 286.137 502.129 286.133H502.112Z" fill="#71D3CA"/>
<path d="M503.614 278.144H452.669C452.563 278.144 452.462 278.102 452.387 278.028C452.312 277.953 452.27 277.852 452.27 277.746C452.27 277.64 452.312 277.539 452.387 277.464C452.462 277.39 452.563 277.348 452.669 277.348H503.614C503.719 277.348 503.821 277.39 503.896 277.464C503.97 277.539 504.012 277.64 504.012 277.746C504.012 277.852 503.97 277.953 503.896 278.028C503.821 278.102 503.719 278.144 503.614 278.144Z" fill="#71D3CA"/>
<path d="M504.827 270.154H454.032C453.926 270.154 453.825 270.112 453.75 270.037C453.675 269.963 453.633 269.861 453.633 269.756C453.633 269.65 453.675 269.549 453.75 269.474C453.825 269.399 453.926 269.357 454.032 269.357H504.827C504.933 269.357 505.034 269.399 505.109 269.474C505.183 269.549 505.225 269.65 505.225 269.756C505.225 269.861 505.183 269.963 505.109 270.037C505.034 270.112 504.933 270.154 504.827 270.154Z" fill="#71D3CA"/>
<path opacity="0.3" d="M457.67 263.68C456.136 264.467 453.32 281.397 453.858 282.059C454.396 282.721 458.705 269.311 460.694 267.448C462.682 265.585 473.536 265.949 475.027 265.213C476.518 264.476 476.643 263.555 476.643 263.555C476.643 263.555 459.202 262.894 457.67 263.68Z" fill="white"/>
<path opacity="0.3" d="M494.316 308.482C495.867 307.734 499.107 290.879 498.587 290.203C498.066 289.526 493.42 302.835 491.387 304.64C489.353 306.445 478.511 305.807 477 306.516C475.489 307.225 475.344 308.13 475.344 308.13C475.344 308.13 492.763 309.229 494.316 308.482Z" fill="white"/>
<path d="M403.007 344.414C404.228 344.968 411.043 344.707 416.569 344.738C420.854 344.766 421.854 343.518 420.957 342.549C420.634 342.227 420.24 341.984 419.807 341.839C418.11 341.161 416.46 340.371 414.869 339.475V301.734H410.006L409.951 304.078L409.114 339.475C409.114 339.475 399.733 342.935 403.007 344.414Z" fill="#3C857E"/>
<path d="M403.007 344.414C404.228 344.968 411.043 344.706 416.569 344.737C420.854 344.766 421.854 343.517 420.957 342.549C416.224 343.911 408.274 343.326 408.274 342.673C408.274 341.88 410.055 341.58 410.649 340.49C411.242 339.399 411.398 304.174 411.398 304.174L409.941 304.07L409.104 339.466C409.104 339.466 399.733 342.935 403.007 344.414Z" fill="#34726C"/>
<path d="M385.531 307.865L450.328 306.169L438.573 245.449H374.486L385.531 307.865Z" fill="#34726C"/>
<path d="M386.69 306.52L448.693 304.898L437.446 246.795H376.119L386.69 306.52Z" fill="#5FBAB2"/>
<path d="M439.693 305.635C439.725 305.638 439.757 305.638 439.789 305.635C439.915 305.61 440.025 305.535 440.096 305.429C440.167 305.322 440.193 305.191 440.167 305.066L428.28 246.708C428.271 246.643 428.248 246.58 428.214 246.524C428.179 246.468 428.134 246.419 428.08 246.381C428.026 246.343 427.965 246.317 427.9 246.303C427.836 246.29 427.769 246.29 427.704 246.303C427.64 246.316 427.578 246.342 427.524 246.379C427.47 246.417 427.424 246.465 427.389 246.521C427.354 246.577 427.331 246.639 427.321 246.704C427.311 246.77 427.315 246.836 427.331 246.9L439.219 305.247C439.241 305.356 439.3 305.455 439.387 305.526C439.473 305.596 439.581 305.635 439.693 305.635Z" fill="#71D3CA"/>
<path d="M429.364 306.017C429.396 306.021 429.429 306.021 429.462 306.017C429.524 306.005 429.584 305.98 429.636 305.945C429.689 305.91 429.734 305.864 429.769 305.811C429.804 305.758 429.828 305.699 429.84 305.636C429.852 305.574 429.851 305.51 429.838 305.448L417.878 246.697C417.869 246.631 417.846 246.569 417.812 246.512C417.777 246.456 417.732 246.408 417.678 246.37C417.624 246.332 417.563 246.305 417.498 246.292C417.434 246.278 417.367 246.278 417.302 246.291C417.238 246.304 417.176 246.33 417.122 246.368C417.068 246.405 417.022 246.453 416.987 246.509C416.952 246.565 416.929 246.628 416.919 246.693C416.909 246.758 416.913 246.824 416.929 246.888L428.894 305.631C428.917 305.74 428.976 305.837 429.061 305.907C429.146 305.977 429.253 306.016 429.364 306.017Z" fill="#71D3CA"/>
<path d="M418.995 306.203C419.027 306.206 419.059 306.206 419.091 306.203C419.154 306.19 419.213 306.166 419.266 306.13C419.319 306.095 419.364 306.049 419.399 305.996C419.434 305.943 419.459 305.884 419.471 305.822C419.483 305.759 419.482 305.695 419.47 305.633L407.468 246.708C407.459 246.643 407.436 246.58 407.402 246.524C407.367 246.468 407.322 246.419 407.268 246.381C407.214 246.343 407.153 246.317 407.088 246.303C407.024 246.29 406.957 246.29 406.892 246.303C406.828 246.316 406.766 246.342 406.712 246.379C406.658 246.417 406.612 246.465 406.577 246.521C406.542 246.577 406.519 246.639 406.509 246.704C406.499 246.77 406.503 246.836 406.519 246.9L418.521 305.824C418.545 305.932 418.605 306.028 418.691 306.097C418.778 306.166 418.885 306.203 418.995 306.203Z" fill="#71D3CA"/>
<path d="M408.588 306.202C408.62 306.206 408.653 306.206 408.686 306.202C408.748 306.19 408.808 306.165 408.86 306.129C408.913 306.094 408.958 306.049 408.993 305.995C409.028 305.942 409.052 305.883 409.064 305.821C409.076 305.758 409.075 305.694 409.062 305.632L397.061 246.707C397.029 246.588 396.953 246.485 396.848 246.419C396.743 246.354 396.617 246.331 396.496 246.355C396.374 246.38 396.267 246.45 396.195 246.551C396.124 246.652 396.094 246.777 396.112 246.899L408.113 305.824C408.137 305.931 408.198 306.027 408.284 306.096C408.37 306.165 408.477 306.202 408.588 306.202Z" fill="#71D3CA"/>
<path d="M398.282 306.699C398.315 306.703 398.348 306.703 398.38 306.699C398.506 306.674 398.616 306.599 398.687 306.493C398.758 306.386 398.784 306.255 398.759 306.13L386.62 246.534C386.594 246.408 386.519 246.298 386.411 246.227C386.304 246.156 386.173 246.131 386.047 246.156C385.985 246.169 385.925 246.194 385.873 246.229C385.82 246.265 385.775 246.311 385.74 246.364C385.705 246.417 385.681 246.477 385.669 246.539C385.657 246.602 385.658 246.666 385.671 246.728L397.81 306.311C397.832 306.42 397.89 306.519 397.976 306.589C398.062 306.66 398.17 306.699 398.282 306.699Z" fill="#71D3CA"/>
<path d="M384.645 295.458H445.914C446.042 295.458 446.165 295.407 446.255 295.317C446.345 295.226 446.396 295.104 446.396 294.976C446.396 294.848 446.345 294.726 446.255 294.635C446.165 294.545 446.042 294.494 445.914 294.494H384.645C384.517 294.494 384.394 294.545 384.304 294.635C384.213 294.726 384.163 294.848 384.163 294.976C384.163 295.104 384.213 295.226 384.304 295.317C384.394 295.407 384.517 295.458 384.645 295.458Z" fill="#71D3CA"/>
<path d="M382.936 285.784H444.989C445.116 285.784 445.239 285.733 445.329 285.643C445.42 285.552 445.471 285.43 445.471 285.302C445.471 285.174 445.42 285.052 445.329 284.961C445.239 284.871 445.116 284.82 444.989 284.82H382.936C382.808 284.82 382.686 284.871 382.595 284.961C382.505 285.052 382.454 285.174 382.454 285.302C382.454 285.43 382.505 285.552 382.595 285.643C382.686 285.733 382.808 285.784 382.936 285.784Z" fill="#71D3CA"/>
<path d="M381.35 276.126H443.021C443.142 276.117 443.256 276.063 443.339 275.974C443.422 275.885 443.468 275.767 443.468 275.646C443.468 275.524 443.422 275.407 443.339 275.318C443.256 275.229 443.142 275.174 443.021 275.165H381.329C381.263 275.161 381.197 275.169 381.134 275.191C381.071 275.213 381.014 275.248 380.966 275.293C380.917 275.338 380.878 275.393 380.852 275.453C380.825 275.514 380.812 275.58 380.812 275.646C380.812 275.712 380.825 275.778 380.852 275.838C380.878 275.899 380.917 275.954 380.966 275.999C381.014 276.044 381.071 276.078 381.134 276.1C381.197 276.122 381.263 276.131 381.329 276.126H381.35Z" fill="#71D3CA"/>
<path d="M379.533 266.464H441.16C441.288 266.464 441.411 266.413 441.501 266.322C441.592 266.232 441.642 266.11 441.642 265.982C441.642 265.854 441.592 265.731 441.501 265.641C441.411 265.551 441.288 265.5 441.16 265.5H379.533C379.405 265.5 379.283 265.551 379.192 265.641C379.102 265.731 379.051 265.854 379.051 265.982C379.051 266.11 379.102 266.232 379.192 266.322C379.283 266.413 379.405 266.464 379.533 266.464Z" fill="#71D3CA"/>
<path d="M378.066 256.798H439.511C439.639 256.798 439.762 256.747 439.852 256.656C439.943 256.566 439.993 256.444 439.993 256.316C439.993 256.188 439.943 256.065 439.852 255.975C439.762 255.885 439.639 255.834 439.511 255.834H378.066C377.938 255.834 377.815 255.885 377.725 255.975C377.634 256.065 377.583 256.188 377.583 256.316C377.583 256.444 377.634 256.566 377.725 256.656C377.815 256.747 377.938 256.798 378.066 256.798Z" fill="#71D3CA"/>
<path opacity="0.3" d="M435.11 248.967C436.966 249.92 440.372 270.4 439.721 271.201C439.071 272.001 433.858 255.779 431.453 253.526C429.047 251.272 415.918 251.713 414.114 250.822C412.31 249.931 412.16 248.817 412.16 248.817C412.16 248.817 433.257 248.017 435.11 248.967Z" fill="white"/>
<path opacity="0.3" d="M390.78 303.163C388.903 302.259 384.984 281.87 385.614 281.052C386.244 280.233 391.864 296.333 394.324 298.517C396.783 300.7 409.899 299.928 411.727 300.786C413.554 301.643 413.731 302.738 413.731 302.738C413.731 302.738 392.659 304.067 390.78 303.163Z" fill="white"/>
<path d="M260.464 263.222C260.464 263.222 257.668 262.332 257.111 262.372C257.111 262.372 256.737 262.372 256.88 262.728C257.022 263.085 260.277 263.939 260.277 263.939L260.464 263.222Z" fill="#FF8C79"/>
<path d="M260.188 264.001C260.188 264.001 257.343 263.289 256.795 263.356C256.795 263.356 256.421 263.383 256.586 263.725C256.75 264.068 260.05 264.731 260.05 264.731L260.188 264.001Z" fill="#FF8C79"/>
<path d="M260.299 265.021C260.299 265.021 257.454 264.309 256.902 264.376C256.857 264.374 256.813 264.384 256.775 264.406C256.736 264.428 256.704 264.46 256.682 264.498C256.661 264.537 256.65 264.581 256.652 264.625C256.654 264.67 256.668 264.713 256.692 264.749C256.884 265.145 260.157 265.751 260.157 265.751L260.299 265.021Z" fill="#FF8C79"/>
<path d="M273.48 277.082C273.48 277.353 273.525 277.611 273.556 277.847C273.6 278.176 273.658 278.466 273.707 278.688C273.778 279.018 273.841 279.209 273.841 279.209C274.081 279.138 274.317 279.071 274.549 278.995C274.852 278.906 275.145 278.808 275.439 278.711L275.613 278.648C275.845 278.568 276.058 278.492 276.299 278.408C276.539 278.323 276.815 278.216 277.069 278.119C277.112 278.105 277.154 278.087 277.194 278.065C277.448 277.972 277.701 277.869 277.946 277.767C278.645 277.473 279.309 277.166 279.946 276.877L280.391 276.659L280.836 276.436C280.974 276.361 281.112 276.289 281.25 276.209C282.431 275.569 283.562 274.841 284.635 274.033C284.781 273.926 284.924 273.819 285.058 273.712L285.267 273.543C285.4 273.441 285.525 273.339 285.645 273.236L286.046 272.894L286.385 272.586C286.505 272.475 286.621 272.368 286.727 272.262C286.834 272.155 286.946 272.048 287.048 271.946C288.384 270.57 289.23 269.275 289.515 268.238C290.348 265.243 288.103 265.928 288.103 265.928C286.438 265.287 289.885 261.478 286.434 262.782C280.199 265.109 275.996 271.287 274.477 272.791L274.179 273.089C273.614 274.34 273.374 275.713 273.48 277.082Z" fill="#E2581D"/>
<path d="M282.448 271.496L281.727 275.902L280.48 276.583L281.152 274.438C281.58 273.076 282.101 272.497 282.448 271.496Z" fill="#8A3511"/>
<path d="M259.961 265.913C259.961 265.913 257.61 265.325 257.156 265.378C257.156 265.378 256.844 265.401 256.982 265.686C257.12 265.97 259.845 266.518 259.845 266.518L259.961 265.913Z" fill="#FF8C79"/>
<path d="M258.977 266.067C265.113 273.807 273.836 279.219 273.836 279.219C274.13 278.51 274.364 277.777 274.535 277.029C274.566 276.887 274.593 276.744 274.62 276.611C274.882 275.466 274.907 274.28 274.696 273.126C274.62 273.005 274.538 272.887 274.451 272.774C272.073 269.574 261.907 262.262 261.907 262.262C260.926 262.863 260.118 263.71 259.565 264.718C259.484 264.861 259.413 264.999 259.351 265.132C259.199 265.432 259.074 265.745 258.977 266.067Z" fill="#E2581D"/>
<path opacity="0.2" d="M258.977 266.066C265.113 273.806 273.836 279.218 273.836 279.218C274.077 279.146 274.313 279.08 274.544 279.004C274.847 278.915 275.141 278.817 275.435 278.719L275.608 278.657C275.84 278.577 276.054 278.501 276.294 278.416C276.535 278.332 276.811 278.225 277.064 278.127C277.108 278.114 277.15 278.096 277.189 278.074C277.443 277.98 277.697 277.878 277.942 277.776C278.641 277.482 279.304 277.175 279.941 276.885L280.386 276.667L280.832 276.445L281.246 276.218C282.426 275.577 283.557 274.85 284.63 274.041C284.777 273.935 284.919 273.828 285.053 273.721L285.262 273.552C285.396 273.45 285.521 273.347 285.641 273.245L286.042 272.902L286.38 272.595C286.5 272.484 286.616 272.377 286.723 272.27C286.83 272.163 286.941 272.056 287.043 271.954L286.656 270.036C283.296 271.12 280.142 272.762 277.327 274.892C276.722 275.337 273.898 276.471 272.674 275.888C270.447 274.829 263.871 269.057 259.369 265.176C259.213 265.461 259.082 265.759 258.977 266.066Z" fill="black"/>
<path d="M271.839 342.452H255.719L259.345 193.271H268.211L271.839 342.452Z" fill="#3C857E"/>
<path d="M307.763 349.858C309.838 349.413 312.795 345.639 312.63 344.882C312.533 344.49 312.383 344.113 312.185 343.761C311.926 343.275 311.664 342.87 311.664 342.87C311.486 342.85 311.307 342.85 311.129 342.87C310.78 342.89 310.444 343.008 310.161 343.213C309.878 343.417 309.659 343.698 309.531 344.023C309.552 344.052 309.568 344.083 309.58 344.117C309.638 344.277 309.664 344.637 309.344 345.394C309.023 346.151 307.66 348.18 307.295 349.07C307.263 349.143 307.237 349.219 307.22 349.297C307.037 350.054 307.763 349.858 307.763 349.858Z" fill="#FF8C79"/>
<path d="M307.759 349.84C309.834 349.395 312.795 345.626 312.634 344.869C312.534 344.478 312.385 344.101 312.189 343.748C312.082 343.543 311.971 343.356 311.882 343.209C311.347 344.355 310.39 345.25 309.21 345.706C308.729 346.636 307.629 348.283 307.304 349.079C307.272 349.152 307.246 349.228 307.229 349.306C307.033 350.036 307.759 349.84 307.759 349.84Z" fill="#2E2E2E"/>
<path d="M283.744 348.349C285.872 348.46 289.853 345.607 289.929 344.837C289.944 344.435 289.906 344.033 289.818 343.64C289.778 343.418 289.729 343.195 289.684 343.044C289.64 342.892 289.586 342.665 289.586 342.665C289.421 342.6 289.249 342.553 289.074 342.523C288.727 342.452 288.367 342.479 288.034 342.601C287.702 342.723 287.41 342.935 287.19 343.213C287.204 343.245 287.211 343.28 287.213 343.315C287.213 343.484 287.133 343.836 286.598 344.481C286.536 344.557 286.456 344.642 286.367 344.735C285.623 345.5 284.069 346.796 283.512 347.477C283.461 347.538 283.414 347.603 283.374 347.672C282.987 348.349 283.744 348.349 283.744 348.349Z" fill="#FF8C79"/>
<path d="M283.744 348.35C285.872 348.461 289.853 345.608 289.929 344.839C289.944 344.436 289.906 344.034 289.818 343.641C289.778 343.419 289.729 343.196 289.684 343.045C288.83 344.006 287.649 344.615 286.371 344.754C285.628 345.519 284.073 346.815 283.517 347.496C283.465 347.557 283.419 347.622 283.379 347.691C282.987 348.35 283.744 348.35 283.744 348.35Z" fill="#2E2E2E"/>
<path d="M286.972 342.817C287.061 342.981 287.137 343.115 287.191 343.208C287.204 343.241 287.212 343.275 287.213 343.311H287.248C287.898 343.152 288.514 342.881 289.07 342.51C289.251 342.387 289.411 342.237 289.546 342.064L286.972 342.817Z" fill="#2E2E2E"/>
<path d="M275.266 319.229C275.217 323.079 280.801 336.587 282.836 341.34C283.281 342.39 283.552 343.018 283.552 343.018C285.48 343.376 287.472 343.127 289.252 342.306C290.053 341.97 290.814 341.544 291.519 341.037L286.233 319.674C285.988 319.199 285.6 318.811 285.124 318.566C284.904 318.435 284.677 318.316 284.443 318.21C283.359 317.743 282.229 317.388 281.072 317.151C277.915 316.434 275.266 319.229 275.266 319.229Z" fill="#404040"/>
<path d="M275.266 319.229C278.173 321.321 281.785 320.943 284.042 320.378L284.643 320.217C285.179 320.065 285.704 319.879 286.215 319.661C287.296 317.872 288.286 316.03 289.181 314.142C289.934 312.567 290.65 310.916 291.301 309.247C293.634 303.256 295.05 297.128 293.91 293.847C292.04 288.507 280.289 289.637 280.289 289.637C278.68 295.49 277.428 301.435 276.539 307.44C275.934 311.597 275.519 315.54 275.266 319.229Z" fill="#404040"/>
<path opacity="0.1" d="M282.822 341.353C283.267 342.403 283.539 343.031 283.539 343.031C285.467 343.389 287.458 343.14 289.239 342.319C290.045 341.979 290.81 341.549 291.519 341.037L286.233 319.674C287.314 317.885 288.304 316.043 289.199 314.155C289.951 312.579 290.668 310.928 291.318 309.259L283.401 300.434C283.432 301.079 282.804 301.083 282.84 302.37C282.885 303.994 283.588 307.034 283.633 309.072C283.731 313.728 283.815 318.592 283.864 319.669C283.971 322.233 286.233 329.087 285.886 334.454C285.605 338.562 283.984 340.489 282.822 341.353Z" fill="black"/>
<path d="M291.67 323.861V323.919C292.961 327.689 302.62 339.185 306.089 343.235C306.854 344.125 307.322 344.668 307.322 344.668C309.243 344.56 311.078 343.836 312.554 342.603C313.22 342.087 313.819 341.489 314.335 340.823L302.312 321.605C302.282 321.569 302.249 321.534 302.215 321.503L302.17 321.458L302.121 321.418C301.757 321.132 301.336 320.926 300.888 320.813C300.635 320.738 300.377 320.679 300.117 320.635L299.712 320.572C298.659 320.443 297.597 320.397 296.537 320.434C293.3 320.523 291.67 323.861 291.67 323.861Z" fill="#404040"/>
<path d="M279.723 296.352C281.001 299.975 290.241 320.67 291.688 323.919L291.879 324.337C294.392 324.708 296.95 324.078 299.004 322.584C299.356 322.339 299.681 322.09 299.966 321.854C300.047 321.795 300.124 321.731 300.197 321.663C300.353 321.529 300.496 321.396 300.643 321.271C301.199 320.746 301.881 321.213 302.125 321.418C302.142 321.43 302.159 321.444 302.174 321.458C302.193 321.471 302.209 321.486 302.223 321.502C302.179 319.66 301.493 316.211 301.213 314.056C300.99 312.365 300.527 308.912 300.277 307.167C299.832 304.172 299.641 299.218 299.066 295.124L299.04 294.919C298.939 293.936 298.699 292.972 298.327 292.057C297.437 290.25 295.09 295.253 293.99 294.327C289.372 290.433 279.723 296.352 279.723 296.352Z" fill="#404040"/>
<path opacity="0.3" d="M294.003 324.965H293.968C293.944 324.956 293.924 324.938 293.913 324.915C293.902 324.892 293.901 324.865 293.91 324.841C294.484 323.376 293.883 322.531 293.874 322.522C293.867 322.511 293.861 322.499 293.858 322.487C293.855 322.474 293.855 322.461 293.857 322.448C293.859 322.436 293.863 322.423 293.87 322.412C293.877 322.401 293.886 322.392 293.897 322.384C293.907 322.376 293.919 322.371 293.932 322.368C293.944 322.365 293.957 322.364 293.97 322.366C293.983 322.369 293.995 322.373 294.006 322.38C294.017 322.387 294.027 322.396 294.035 322.406C294.061 322.446 294.703 323.35 294.093 324.907C294.086 324.925 294.074 324.941 294.058 324.951C294.041 324.962 294.023 324.967 294.003 324.965Z" fill="black"/>
<path opacity="0.1" d="M296.234 296.157C296.234 296.157 296.622 301.386 297.08 305.196C297.307 307.087 298.194 320.292 298.612 321.596C298.663 321.754 298.72 321.914 298.786 322.077C298.853 322.242 298.928 322.415 299.013 322.593C300.741 326.314 305.496 331.09 306.792 335.887C307.87 339.893 306.943 342.118 306.111 343.244C306.877 344.134 307.344 344.677 307.344 344.677C309.267 344.57 311.104 343.844 312.581 342.608C313.238 342.09 313.827 341.492 314.335 340.828L302.312 321.61C302.282 321.574 302.249 321.539 302.215 321.507C302.17 319.665 301.484 316.216 301.204 314.062C300.981 312.37 300.518 308.917 300.269 307.172C299.823 304.177 299.632 299.223 299.057 295.129L299.031 294.924L296.234 296.157Z" fill="black"/>
<path d="M299.035 265.429C299.035 265.429 296.043 262.617 294.293 261.606C293.913 261.385 293.492 261.244 293.056 261.19C292.619 261.137 292.177 261.172 291.755 261.295C291.755 261.295 290.45 261.206 286.669 263.244C286.669 263.244 283.833 266.444 284.559 270.2C285.285 273.957 281.602 295.76 281.602 295.76C281.602 295.76 291.768 297.096 298.781 294.928C298.781 294.928 297.379 289.53 298.652 280.793C298.643 280.793 302.771 267.259 299.035 265.429Z" fill="#FF8C79"/>
<path d="M290.205 262.603L293.83 262.011L293.019 258.326L290.138 259.243L290.152 259.902V260.017L290.16 260.387L290.165 260.583L290.205 262.603Z" fill="#FF8C79"/>
<path d="M290.183 260.387C290.595 260.363 290.997 260.252 291.363 260.062C291.729 259.872 292.051 259.606 292.307 259.283C292.07 259.478 291.814 259.646 291.541 259.786C291.121 260.005 290.643 260.088 290.174 260.022L290.183 260.387Z" fill="#2E2E2E"/>
<path d="M288.789 255.584C288.059 257.48 288.344 259.349 289.791 259.919C291.238 260.489 292.783 259.3 293.518 257.4C294.253 255.5 293.914 253.604 292.44 253.038C290.967 252.473 289.524 253.679 288.789 255.584Z" fill="#FF8C79"/>
<path d="M278.627 296.642C280.551 296.294 282.513 296.206 284.461 296.38C288.134 296.762 292.708 298.08 296.884 296.277C297.72 295.883 298.531 295.438 299.311 294.942C299.311 294.942 298.069 287.016 297.561 282.774C296.973 277.838 296.533 272.676 296.858 270.001C297.001 268.345 297.3 266.706 297.748 265.105C298.029 264.282 298.225 264.291 298.26 264.3C297.604 263.757 296.917 263.252 296.203 262.786C295.976 262.648 295.758 262.519 295.557 262.421C295.557 262.421 291.55 264.335 288.13 262.346C287.134 262.482 286.168 262.783 285.271 263.236L282.862 269.6L281.036 279.708L278.627 296.642Z" fill="#E2581D"/>
<path d="M290.833 254.609C291.412 255.054 291.804 255.673 291.724 256.216C291.577 257.106 291.781 257.351 291.995 257.338C292.209 257.324 292.369 256.808 292.369 256.808C292.369 256.808 292.997 256.67 292.899 257.222C292.879 257.403 292.897 257.586 292.952 257.759C293.007 257.932 293.098 258.092 293.22 258.228C293.821 257.944 294.352 257.531 294.774 257.017C293.669 255.971 292.36 255.326 290.833 254.609Z" fill="#2E2E2E"/>
<path d="M291.447 251.855C290.935 252.1 290.463 252.416 289.982 252.202C288.798 251.673 288.7 251.495 288.393 252.202C288.085 252.91 288.5 253.898 289.631 254.076C290.069 254.154 290.482 254.337 290.833 254.61C292.36 255.327 293.669 255.972 294.76 257.018C295.349 256.311 295.637 255.402 295.562 254.485C295.402 252.198 293.736 251.9 293.059 251.61C292.574 251.401 291.853 251.664 291.447 251.855Z" fill="#E2581D"/>
<path d="M292.227 257.609C292.308 257.7 292.415 257.763 292.533 257.792C292.651 257.821 292.776 257.813 292.889 257.77C293.003 257.726 293.101 257.649 293.17 257.549C293.239 257.449 293.276 257.33 293.276 257.208C293.276 257.087 293.239 256.968 293.17 256.868C293.101 256.767 293.003 256.69 292.889 256.647C292.776 256.604 292.651 256.596 292.533 256.624C292.415 256.653 292.308 256.717 292.227 256.808C292.121 256.914 292.062 257.058 292.062 257.208C292.062 257.358 292.121 257.502 292.227 257.609Z" fill="#FF8C79"/>
<path d="M296.364 302.044C296.364 302.044 298.385 298.31 300.206 295.511C302.028 292.711 302.718 284.42 301.493 281.269C301.493 281.269 299.583 279.408 298.376 283.877C297.17 288.345 296.595 295.934 296.101 297.839C295.806 298.986 295.375 300.095 294.818 301.141C294.818 301.141 294.734 302.565 296.364 302.044Z" fill="#FF8C79"/>
<path d="M303.889 280.167C303.889 280.198 303.889 280.75 303.889 281.502V281.555C303.879 282.885 303.8 284.213 303.653 285.534C303.209 288.304 302.533 291.031 301.631 293.688C300.862 295.929 299.971 298.127 298.96 300.27C298.629 300.358 298.293 300.421 297.953 300.457C297.919 300.455 297.885 300.455 297.851 300.457H297.753L297.486 300.48H297.25C296.578 300.497 295.908 300.41 295.264 300.221C294.91 300.107 294.568 299.958 294.244 299.776C294.244 299.776 295.887 290.061 297.659 283.536C297.722 283.291 297.788 283.051 297.855 282.815C297.886 282.708 297.918 282.597 297.949 282.495C298.127 281.871 297.771 281.831 297.949 281.275C298.127 280.719 298.759 279.637 299.013 279.076C299.481 278.017 300.407 278.026 300.656 277.621C300.656 277.621 301.101 277.901 301.729 278.378C302.019 278.591 302.353 278.823 302.709 279.125C303.128 279.435 303.528 279.769 303.907 280.127L303.889 280.167Z" fill="#E2581D"/>
<path d="M303.88 280.158C303.88 280.603 303.849 281.07 303.813 281.542C303.813 281.657 303.791 281.769 303.786 281.884C303.782 282 303.786 282.049 303.786 282.134H303.751C303.47 282.214 301.489 282.752 301.23 282.646C301.132 282.628 301.031 282.636 300.937 282.668C300.148 282.846 298.18 283.7 297.913 283.447C297.913 283.447 297.677 283.669 297.668 283.602V283.54C297.633 283.407 297.601 283.251 297.561 283.095C297.543 283.009 297.526 282.92 297.508 282.828C296.938 280.122 295.762 274.145 294.863 271.603C294.47 270.456 294.156 269.283 293.923 268.092C293.531 264.976 294.266 263.379 294.28 263.374C295.206 263.346 296.134 263.372 297.058 263.45C297.143 263.457 297.227 263.475 297.307 263.503C297.374 263.548 297.802 263.81 298.198 264.104C298.367 264.218 298.529 264.341 298.683 264.474C300.276 265.914 301.498 267.717 302.246 269.73C302.313 269.903 302.379 270.081 302.442 270.259C302.504 270.437 302.531 270.513 302.571 270.638C303.559 273.71 304.002 276.932 303.88 280.158Z" fill="#E2581D"/>
<path opacity="0.2" d="M303.867 281.5L303.813 281.549C303.813 281.549 303.813 281.549 303.867 281.549C303.856 282.879 303.778 284.207 303.631 285.528C303.187 288.298 302.51 291.025 301.609 293.682C300.84 295.923 299.948 298.121 298.937 300.264C298.937 299.485 298.96 298.484 299.031 297.393C299.396 292.053 300.616 283.939 300.919 282.706C300.968 282.502 301.021 282.297 301.07 282.092C301.15 281.767 301.226 281.438 301.297 281.109C301.488 280.3 301.619 279.479 301.689 278.652C301.689 278.576 301.689 278.496 301.689 278.42C301.805 276.64 301.636 274.477 300.848 271.437C300.01 268.197 297.98 264.873 297.009 263.471C297.094 263.478 297.178 263.495 297.259 263.524C297.325 263.569 297.753 263.831 298.149 264.125C298.256 264.214 298.323 264.281 298.336 264.294C298.439 264.356 298.539 264.423 298.634 264.494C300.227 265.935 301.449 267.738 302.197 269.751C302.264 269.924 302.33 270.102 302.393 270.28C302.455 270.458 302.477 270.538 302.522 270.658C303.517 273.722 303.969 276.937 303.858 280.156C303.889 280.196 303.884 280.748 303.867 281.5Z" fill="black"/>
<path d="M293.34 305.787C293.552 305.113 293.814 304.455 294.124 303.82C294.111 303.784 294.086 303.754 294.052 303.736C293.781 304.279 293.291 305.222 293.104 305.258C292.917 305.293 292.917 305.08 292.917 305.08C293.164 304.421 293.462 303.783 293.807 303.17C293.872 303.061 293.908 302.937 293.914 302.81C293.536 302.917 293.278 303.366 292.881 303.464C292.623 303.531 292.636 303.326 292.636 303.326L294.961 300.892C295.851 300.714 296.506 301.751 296.506 301.751C296.268 302.633 295.97 303.498 295.615 304.341L295.575 304.412C295.384 304.857 295.014 305.703 294.858 305.747C294.702 305.792 294.694 305.605 294.694 305.605C294.813 305.181 294.971 304.768 295.166 304.372L295.108 304.305H295.081C294.858 304.848 294.395 305.912 294.19 305.965C293.986 306.019 293.99 305.796 293.99 305.796C294.169 305.195 294.399 304.61 294.676 304.047C294.662 304.03 294.643 304.016 294.622 304.008C294.601 304 294.578 303.998 294.556 304.003C294.556 304.003 293.807 305.899 293.545 305.97C293.282 306.041 293.34 305.787 293.34 305.787Z" fill="#FF8C79"/>
<path d="M288.228 316.139L283.058 304.541C283.058 304.541 285.004 310.3 285.636 312.499C286.269 314.697 287.07 318.204 287.07 318.204L288.228 316.139Z" fill="#2E2E2E"/>
<path d="M288.232 257.766C288.353 257.717 288.704 257.833 289.27 257.85C289.577 257.85 289.613 258.255 289.359 258.296C288.986 258.314 288.612 258.277 288.25 258.184C288.13 258.131 288.126 257.81 288.232 257.766Z" fill="#2E2E2E"/>
<path d="M296.862 272.627C297.507 274.955 297.923 277.34 298.105 279.748C298.243 283.01 294.809 296.91 294.809 296.91C295.026 294.825 294.948 292.72 294.578 290.656C293.959 287.465 295.442 285.249 295.914 282.592C296.386 279.935 296.862 272.627 296.862 272.627Z" fill="#8A3511"/>
<path d="M289.644 258.864C289.35 258.86 289.06 258.806 288.785 258.704C288.774 258.702 288.765 258.698 288.756 258.693C288.748 258.687 288.741 258.679 288.735 258.67C288.73 258.662 288.727 258.652 288.726 258.642C288.725 258.631 288.726 258.621 288.729 258.611C288.732 258.602 288.737 258.593 288.744 258.585C288.752 258.578 288.76 258.572 288.77 258.568C288.779 258.564 288.789 258.562 288.8 258.563C288.81 258.563 288.82 258.566 288.829 258.57C290.165 259.016 290.699 258.299 290.722 258.268C290.728 258.261 290.736 258.255 290.745 258.252C290.754 258.248 290.763 258.246 290.773 258.246C290.782 258.246 290.792 258.248 290.801 258.252C290.809 258.255 290.817 258.261 290.824 258.268C290.831 258.274 290.836 258.282 290.84 258.291C290.844 258.3 290.846 258.309 290.846 258.319C290.846 258.329 290.844 258.338 290.84 258.347C290.836 258.356 290.831 258.364 290.824 258.37C290.677 258.536 290.495 258.667 290.291 258.752C290.086 258.838 289.865 258.876 289.644 258.864Z" fill="#2E2E2E"/>
<path d="M289.096 257.668C288.989 257.64 288.891 257.584 288.813 257.505C288.735 257.427 288.679 257.33 288.651 257.223C288.647 257.207 288.65 257.19 288.657 257.175C288.664 257.161 288.676 257.149 288.691 257.142C288.984 256.968 289.225 256.719 289.39 256.421C289.4 256.405 289.416 256.392 289.435 256.386C289.454 256.381 289.475 256.382 289.493 256.39C289.501 256.395 289.508 256.401 289.514 256.409C289.52 256.416 289.524 256.425 289.526 256.434C289.529 256.443 289.53 256.452 289.528 256.462C289.527 256.471 289.524 256.48 289.519 256.488C289.351 256.795 289.107 257.053 288.811 257.24C288.838 257.306 288.879 257.365 288.933 257.411C288.986 257.458 289.05 257.491 289.119 257.507C289.136 257.514 289.15 257.527 289.159 257.543C289.168 257.559 289.171 257.578 289.167 257.596C289.167 257.615 289.16 257.633 289.147 257.647C289.133 257.66 289.115 257.668 289.096 257.668Z" fill="#2E2E2E"/>
<path d="M289.453 255.674C289.441 255.674 289.43 255.671 289.419 255.666C289.409 255.661 289.401 255.653 289.395 255.643C289.168 255.342 288.876 255.097 288.54 254.926C288.523 254.917 288.51 254.902 288.504 254.884C288.498 254.865 288.5 254.845 288.508 254.828C288.517 254.811 288.533 254.798 288.551 254.792C288.569 254.787 288.589 254.788 288.606 254.797C288.958 254.981 289.263 255.243 289.497 255.563C289.504 255.569 289.509 255.577 289.513 255.586C289.517 255.595 289.519 255.604 289.519 255.614C289.519 255.623 289.517 255.633 289.513 255.642C289.509 255.65 289.504 255.658 289.497 255.665C289.491 255.669 289.483 255.673 289.476 255.674C289.468 255.676 289.46 255.676 289.453 255.674Z" fill="#2E2E2E"/>
<path d="M257.445 262.492C257.678 262.565 257.894 262.683 258.082 262.839C258.105 262.865 258.122 262.896 258.13 262.929C258.139 262.963 258.139 262.998 258.13 263.031C258.122 263.065 258.105 263.096 258.082 263.121C258.059 263.147 258.03 263.166 257.997 263.178C257.765 263.173 257.536 263.119 257.325 263.022L257.445 262.492Z" fill="#FF8C79"/>
<path d="M257.387 263.533C257.387 263.533 257.913 263.72 258.02 263.885C258.044 263.91 258.062 263.941 258.071 263.974C258.08 264.008 258.08 264.044 258.072 264.078C258.063 264.111 258.046 264.143 258.022 264.168C257.998 264.194 257.968 264.213 257.935 264.223C257.703 264.214 257.474 264.16 257.263 264.063L257.387 263.533Z" fill="#FF8C79"/>
<path d="M257.405 264.521C257.638 264.597 257.854 264.716 258.042 264.873C258.065 264.899 258.082 264.929 258.09 264.963C258.099 264.996 258.099 265.031 258.09 265.065C258.082 265.098 258.065 265.129 258.042 265.155C258.019 265.18 257.99 265.2 257.957 265.211C257.725 265.202 257.496 265.148 257.285 265.051L257.405 264.521Z" fill="#FF8C79"/>
<path d="M257.365 265.416C257.559 265.48 257.739 265.581 257.895 265.714C257.915 265.735 257.93 265.761 257.938 265.789C257.946 265.817 257.946 265.847 257.94 265.875C257.933 265.903 257.919 265.93 257.9 265.951C257.88 265.973 257.856 265.989 257.828 265.999C257.631 265.991 257.438 265.946 257.258 265.866L257.365 265.416Z" fill="#FF8C79"/>
<path d="M239.608 126.961C231.521 113.263 243.938 179.7 263.043 193.269C263.043 193.276 278.469 192.834 239.608 126.961Z" fill="#34726C"/>
<path d="M210.523 243.281C200.345 257.221 260.21 214.514 265.943 190.392C265.94 190.392 259.456 176.261 210.523 243.281Z" fill="#34726C"/>
<path d="M331.248 226.55C347.567 232.169 289.108 187.55 264.378 189.193C264.38 189.195 252.798 199.562 331.248 226.55Z" fill="#34726C"/>
<path d="M282.225 344.364H246.833L250.463 336.201H278.595L282.225 344.364Z" fill="#3C857E"/>
<path d="M271.723 193.282C271.723 194.853 271.257 196.39 270.384 197.697C269.511 199.004 268.271 200.023 266.819 200.624C265.367 201.226 263.77 201.383 262.229 201.076C260.688 200.77 259.273 200.013 258.162 198.901C257.051 197.79 256.294 196.374 255.987 194.832C255.681 193.29 255.838 191.692 256.439 190.24C257.041 188.788 258.059 187.547 259.365 186.673C260.672 185.8 262.208 185.334 263.779 185.334C265.886 185.334 267.907 186.171 269.396 187.662C270.886 189.152 271.723 191.174 271.723 193.282Z" fill="#459991"/>
<path d="M342.622 342.112H323.678L327.941 166.826H338.359L342.622 342.112Z" fill="#3C857E"/>
<path d="M304.751 88.9096C295.247 72.814 309.836 150.878 332.287 166.831C332.287 166.831 350.414 166.31 304.751 88.9096Z" fill="#34726C"/>
<path d="M270.585 225.59C258.623 241.969 328.967 191.788 335.7 163.442C335.693 163.442 328.065 146.843 270.585 225.59Z" fill="#34726C"/>
<path d="M412.433 205.931C431.603 212.521 362.918 160.1 333.858 162.035C333.858 162.035 320.257 174.21 412.433 205.931Z" fill="#34726C"/>
<path d="M354.827 344.366H313.24L317.505 334.771H350.559L354.827 344.366Z" fill="#3C857E"/>
<path d="M342.482 166.836C342.482 168.683 341.935 170.488 340.91 172.024C339.884 173.56 338.426 174.757 336.721 175.464C335.015 176.171 333.139 176.356 331.328 175.996C329.517 175.635 327.854 174.746 326.549 173.44C325.243 172.134 324.354 170.47 323.994 168.659C323.634 166.847 323.819 164.97 324.526 163.263C325.232 161.557 326.429 160.099 327.964 159.073C329.499 158.047 331.304 157.5 333.15 157.5C335.625 157.501 337.998 158.485 339.747 160.235C341.497 161.986 342.481 164.36 342.482 166.836Z" fill="#459991"/>
<path d="M469.541 278.516C469.541 278.516 472.946 281.011 475.457 283.179C477.968 285.346 486.039 287.134 489.33 286.36C489.33 286.36 491.417 284.731 487.184 282.924C482.951 281.117 475.553 279.559 473.74 278.809C472.65 278.366 471.616 277.795 470.661 277.108C470.661 277.108 469.233 276.868 469.541 278.516Z" fill="#FF8C79"/>
<path d="M466.019 278.507C466.005 278.49 465.996 278.47 465.993 278.448C465.989 278.426 465.992 278.404 466 278.384C466.009 278.363 466.023 278.346 466.04 278.333C466.058 278.32 466.079 278.312 466.101 278.31C466.54 278.288 466.98 278.309 467.414 278.373L467.458 278.296V278.272C466.88 278.228 465.731 278.118 465.62 277.95C465.602 277.93 465.589 277.906 465.584 277.879C465.579 277.853 465.582 277.826 465.592 277.801C465.602 277.776 465.619 277.754 465.641 277.739C465.663 277.724 465.689 277.715 465.716 277.714C466.34 277.694 466.965 277.727 467.583 277.815C467.593 277.796 467.599 277.774 467.599 277.752C467.599 277.731 467.593 277.709 467.583 277.69C467.583 277.69 465.558 277.575 465.409 277.344C465.259 277.113 465.51 277.108 465.51 277.108C466.213 277.098 466.915 277.141 467.612 277.238C467.639 277.213 467.657 277.179 467.665 277.142C467.073 277.056 466.029 276.887 465.933 276.719C465.837 276.551 466.048 276.488 466.048 276.488C466.746 276.521 467.441 276.606 468.126 276.743C468.25 276.773 468.378 276.773 468.502 276.743C468.285 276.416 467.78 276.315 467.539 275.974C467.395 275.748 467.592 275.695 467.592 275.695L470.613 277.137C471.065 277.935 470.281 278.863 470.281 278.863C469.374 278.905 468.464 278.887 467.559 278.81H467.477C467.015 278.728 466.111 278.642 466.019 278.507Z" fill="#FF8C79"/>
<path d="M471.83 277.881C471.341 278.342 471.05 278.974 471.017 279.645L471.498 279.986L471.83 277.881Z" fill="#2E2E2E"/>
<path d="M488.839 286.206C488.761 286.797 488.722 287.393 488.724 287.989C488.724 287.989 479.584 286.36 471.277 281.635C471.239 281.374 471.221 281.11 471.224 280.847C471.21 280.63 471.21 280.414 471.224 280.198C471.282 279.092 471.627 278.02 472.225 277.088C472.225 277.088 485.736 280.332 488.517 282C488.514 282.008 488.514 282.016 488.517 282.024C488.394 283.133 488.485 284.256 488.786 285.331C488.85 285.618 488.868 285.913 488.839 286.206Z" fill="#D9811A"/>
<path d="M522.809 352.329C522.613 352.693 522.286 352.969 521.894 353.102C521.502 353.235 521.074 353.215 520.697 353.045C520.684 353.025 520.672 353.004 520.663 352.983C520.663 352.959 520.634 352.925 520.61 352.886L520.413 352.502C519.87 351.444 518.648 348.993 517.296 345.965C517.142 345.629 516.988 345.278 516.815 344.922C514.593 339.827 512.207 333.454 512.043 329.272C512.784 328.685 513.673 328.315 514.612 328.205C515.557 328.155 516.492 328.426 517.263 328.974C517.263 328.974 519.47 331.219 520.413 335.535C521.289 339.52 522.539 348.868 522.765 351.762C522.794 351.988 522.809 352.18 522.809 352.329Z" fill="#FF8C79"/>
<path d="M517.436 357.972C519.394 358.082 523.059 355.251 523.126 354.487C523.14 354.087 523.106 353.687 523.025 353.295C522.934 352.771 522.814 352.334 522.814 352.334C522.66 352.266 522.498 352.218 522.333 352.189C522.009 352.125 521.673 352.155 521.366 352.276C521.059 352.397 520.793 352.604 520.601 352.872C520.608 352.905 520.608 352.94 520.601 352.973C520.543 353.408 520.345 353.813 520.038 354.126C519.499 354.823 517.768 356.347 517.2 357.102C517.15 357.163 517.107 357.229 517.07 357.299C516.738 357.972 517.436 357.972 517.436 357.972Z" fill="#FF8C79"/>
<path d="M517.436 357.972C519.393 358.082 523.059 355.251 523.126 354.487C523.14 354.087 523.106 353.687 523.025 353.295C523.025 353.295 522.001 355.458 518.532 357.01C518.234 357.14 517.32 357.587 517.229 357.121C517.179 357.182 517.135 357.248 517.099 357.318C516.738 357.972 517.436 357.972 517.436 357.972Z" fill="#2E2E2E"/>
<path d="M521.63 343.418C521.382 343.761 521.082 344.063 520.74 344.312C519.708 345.06 518.547 345.612 517.315 345.941H517.291C517.137 345.605 516.983 345.254 516.81 344.898L521.63 343.418Z" fill="#2E2E2E"/>
<path d="M515.165 275.718C515.165 275.718 512.164 271.762 508.696 269.95C508.053 269.544 507.311 269.325 506.55 269.316C505.136 269.234 505.107 269.398 505.107 269.398C502.622 269.765 500.227 270.588 498.041 271.825C498.041 271.825 496.824 274.118 497.502 277.847C498.181 281.577 493.784 303.605 493.784 303.605C493.784 303.605 504.189 304.533 510.697 302.408C510.697 302.408 509.398 297.044 510.581 288.369C510.581 288.369 511.404 283.735 512.573 281.668C512.587 281.673 515.632 278.357 515.165 275.718Z" fill="#FF8C79"/>
<path d="M523.136 341.658C523.136 341.658 521.827 345.839 515.17 344.941C515.17 344.941 514.732 344.095 514.011 342.643C511.606 337.837 506.108 326.469 502.808 316.953C502.503 316.071 502.221 315.211 501.961 314.372C501.22 312.12 500.673 309.809 500.326 307.465C500.326 307.465 500.384 303.711 502.433 300.673C502.797 300.127 503.219 299.623 503.693 299.169C505.21 297.763 507.186 296.956 509.254 296.895C509.93 296.856 510.609 296.869 511.284 296.934C511.284 296.934 511.428 297.631 511.678 298.856C512.197 301.365 513.203 306.066 514.497 311.468C516.2 318.486 523.136 341.658 523.136 341.658Z" fill="#404040"/>
<path opacity="0.5" d="M510.538 330.915H510.509C510.486 330.907 510.467 330.891 510.456 330.869C510.445 330.848 510.443 330.823 510.451 330.8C511.139 328.699 510.114 327.709 510.105 327.699C510.096 327.691 510.089 327.681 510.085 327.67C510.08 327.659 510.078 327.647 510.078 327.635C510.078 327.622 510.08 327.611 510.085 327.599C510.089 327.588 510.096 327.578 510.105 327.57C510.113 327.561 510.123 327.555 510.133 327.55C510.144 327.545 510.156 327.543 510.167 327.543C510.179 327.543 510.191 327.545 510.201 327.55C510.212 327.555 510.222 327.561 510.23 327.57C510.278 327.608 511.355 328.637 510.629 330.857C510.622 330.875 510.609 330.891 510.593 330.901C510.576 330.911 510.557 330.916 510.538 330.915Z" fill="#2E2E2E"/>
<path d="M502.418 276.056C502.235 277.094 501.552 278.459 500.407 279.901C500.316 280.021 500.215 280.136 500.114 280.266C499.83 280.598 499.522 280.939 499.195 281.28C496.39 284.078 493.045 286.278 489.363 287.745L488.728 288C488.663 287.835 488.607 287.666 488.56 287.495C488.502 287.279 488.43 287.014 488.363 286.668C488.363 286.558 488.315 286.442 488.295 286.322C488.025 284.895 488.106 283.424 488.531 282.035C488.529 282.027 488.529 282.019 488.531 282.011C488.542 281.97 488.555 281.93 488.57 281.891C488.57 281.891 494.65 273.984 497.555 272.105C500.46 270.225 499.551 272.177 501.139 272.701C501.139 272.701 502.976 273.023 502.418 276.056Z" fill="#D9811A"/>
<path d="M501.62 349.81C501.424 350.174 501.097 350.451 500.706 350.585C500.314 350.719 499.886 350.699 499.508 350.531L499.474 350.464C499.474 350.464 499.446 350.411 499.422 350.368L499.224 349.983C498.825 349.205 498.06 347.681 497.142 345.725C497.026 345.465 496.901 345.196 496.766 344.922C494.313 339.582 491.066 331.661 490.874 326.749C491.615 326.164 492.504 325.796 493.442 325.687C494.387 325.632 495.322 325.902 496.093 326.451C496.093 326.451 498.301 328.7 499.244 333.016C500.119 336.996 501.37 346.35 501.596 349.243C501.605 349.469 501.62 349.666 501.62 349.81Z" fill="#FF8C79"/>
<path d="M496.247 355.453C498.204 355.564 501.87 352.733 501.937 351.969C501.95 351.571 501.918 351.172 501.841 350.782C501.745 350.253 501.625 349.82 501.625 349.82C501.469 349.757 501.308 349.709 501.144 349.676C500.819 349.611 500.482 349.641 500.174 349.763C499.865 349.885 499.599 350.094 499.407 350.363C499.416 350.396 499.416 350.431 499.407 350.464C499.349 350.901 499.152 351.307 498.844 351.623C498.305 352.32 496.574 353.838 496.006 354.598C495.958 354.659 495.915 354.723 495.876 354.79C495.549 355.453 496.247 355.453 496.247 355.453Z" fill="#FF8C79"/>
<path d="M496.247 355.453C498.204 355.564 501.87 352.733 501.937 351.968C501.951 351.57 501.917 351.172 501.836 350.781C501.836 350.781 500.812 352.939 497.343 354.492C497.045 354.626 496.131 355.073 496.04 354.607C495.992 354.668 495.948 354.732 495.91 354.799C495.549 355.453 496.247 355.453 496.247 355.453Z" fill="#2E2E2E"/>
<path d="M500.537 343.73C500.347 344 500.113 344.235 499.845 344.427C499.041 345.015 498.134 345.448 497.17 345.701H497.137C497.021 345.442 496.896 345.172 496.761 344.898L500.537 343.73Z" fill="#2E2E2E"/>
<path d="M501.461 343.052C500.865 343.552 500.211 343.978 499.513 344.321C498.016 345.129 496.281 345.38 494.616 345.028L494.135 343.672L494.025 343.365C492.288 338.64 489.113 330.387 489.157 326.542C489.157 326.542 491.437 323.754 494.135 324.466C495.133 324.709 496.101 325.062 497.021 325.518C497.223 325.623 497.418 325.742 497.603 325.874C498.029 326.134 498.364 326.518 498.565 326.975L501.461 343.052Z" fill="#404040"/>
<path d="M489.132 326.547C491.634 328.628 494.736 328.248 496.68 327.686C496.862 327.638 497.035 327.58 497.194 327.527C497.659 327.377 498.113 327.192 498.551 326.975C499.407 325.355 500.273 323.485 501.095 321.495C501.745 319.933 502.36 318.289 502.918 316.636C504.924 310.69 506.146 304.62 505.16 301.347C503.558 296.036 493.447 297.165 493.447 297.165C492.629 301.159 489.132 326.547 489.132 326.547Z" fill="#404040"/>
<path opacity="0.5" d="M490.869 328.22C490.847 328.219 490.827 328.21 490.811 328.196C490.803 328.187 490.796 328.178 490.791 328.167C490.787 328.156 490.784 328.145 490.784 328.133C490.784 328.121 490.787 328.11 490.791 328.099C490.796 328.088 490.803 328.079 490.811 328.071C491.845 326.931 491.711 325.941 491.711 325.932C491.709 325.92 491.709 325.909 491.711 325.897C491.714 325.886 491.719 325.875 491.725 325.866C491.732 325.857 491.741 325.849 491.751 325.843C491.76 325.837 491.771 325.833 491.783 325.831C491.807 325.828 491.831 325.834 491.851 325.848C491.87 325.863 491.884 325.884 491.889 325.908C491.889 325.951 492.038 326.989 490.927 328.191C490.911 328.207 490.891 328.217 490.869 328.22Z" fill="#2E2E2E"/>
<path opacity="0.2" d="M501.095 321.499C500.273 323.484 499.407 325.344 498.551 326.979L501.461 343.051C500.865 343.551 500.21 343.977 499.513 344.32C498.016 345.128 496.28 345.379 494.616 345.027L494.135 343.671C495.27 342.946 497.396 342.374 497.603 338.663C497.849 334.981 497.546 331.283 496.704 327.69C496.598 327.209 496.53 326.979 496.53 326.979L497.036 325.537L500.258 310.564L501.961 314.357C501.961 314.357 502.846 316.832 502.808 316.938C502.283 318.5 501.701 320.033 501.095 321.499Z" fill="black"/>
<path d="M504.203 264.787C504.203 264.787 502.851 264.701 502.635 263.49C502.418 262.279 503.005 261.923 502.88 261.087C502.755 260.25 502.399 259.125 503.25 258.481C504.102 257.837 503.996 257.304 504.482 256.237C504.968 255.17 505.641 254.42 506.656 254.598C507.671 254.776 508.036 254.953 508.618 254.117C509.2 253.281 509.956 252.598 511.024 253.593C512.298 254.752 512.702 254.074 513.501 254.122C514.299 254.17 514.896 254.91 515.18 255.771C515.463 256.631 515.968 256.871 516.752 257.145C517.397 257.376 517.883 258.496 517.416 259.423C516.95 260.351 517.45 261.024 517.652 261.774C517.854 262.524 517.57 263.446 516.959 263.73C516.348 264.014 516.478 265.124 516.204 265.903C515.93 266.681 514.953 266.84 514.343 266.724C513.732 266.609 513.462 267.085 512.991 267.917C512.52 268.748 511.971 269.296 511.293 268.964C510.615 268.633 509.72 268.085 509.128 268.58C508.537 269.075 506.834 268.772 506.569 268.344C506.305 267.916 504.203 264.787 504.203 264.787Z" fill="white"/>
<path d="M505.054 270.147L508.695 269.945L508.335 266.652L505.343 266.825L505.285 267.474L505.227 268.147L505.054 270.147Z" fill="#FF8C79"/>
<path d="M505.247 267.914C505.706 267.993 506.178 267.959 506.622 267.816C507.066 267.673 507.469 267.424 507.796 267.092C507.541 267.26 507.269 267.398 506.983 267.505C506.713 267.614 506.423 267.668 506.131 267.663C505.839 267.658 505.552 267.595 505.285 267.476L505.247 267.914Z" fill="#2E2E2E"/>
<path d="M504.991 262.871C503.842 264.539 503.664 266.404 504.953 267.288C506.242 268.173 507.988 267.385 509.133 265.722C510.278 264.058 510.398 262.145 509.133 261.261C507.868 260.377 506.136 261.208 504.991 262.871Z" fill="#FF8C79"/>
<path d="M507.479 260.65C507.479 260.65 508.128 265.279 509.258 265.519C510.389 265.76 511.259 263.174 510.581 261.996C509.903 260.819 507.479 260.65 507.479 260.65Z" fill="white"/>
<path d="M506.343 255.282C506.328 255.28 506.314 255.275 506.302 255.265C506.29 255.256 506.281 255.243 506.276 255.229C506.273 255.211 506.277 255.193 506.286 255.178C506.296 255.162 506.311 255.151 506.329 255.147C508.253 254.714 508.546 252.35 508.546 252.326C508.55 252.308 508.56 252.293 508.574 252.282C508.588 252.271 508.606 252.266 508.623 252.268C508.632 252.269 508.641 252.272 508.648 252.276C508.656 252.281 508.663 252.287 508.668 252.294C508.674 252.301 508.678 252.31 508.68 252.318C508.682 252.327 508.682 252.336 508.681 252.345C508.681 252.345 508.364 254.825 506.358 255.277L506.343 255.282Z" fill="white"/>
<path d="M518.484 261.387C517.214 260.988 516.964 259.464 516.955 259.387C516.953 259.378 516.954 259.369 516.956 259.361C516.958 259.352 516.962 259.344 516.967 259.337C516.973 259.329 516.979 259.323 516.987 259.319C516.995 259.314 517.003 259.311 517.012 259.31C517.021 259.308 517.031 259.308 517.04 259.31C517.049 259.312 517.057 259.316 517.064 259.321C517.072 259.327 517.078 259.334 517.082 259.342C517.086 259.35 517.089 259.359 517.089 259.368C517.089 259.368 517.335 260.882 518.532 261.257C518.541 261.258 518.55 261.262 518.557 261.267C518.564 261.272 518.57 261.279 518.575 261.287C518.579 261.295 518.581 261.304 518.581 261.313C518.581 261.322 518.58 261.33 518.576 261.339C518.575 261.349 518.571 261.358 518.565 261.367C518.559 261.375 518.552 261.382 518.543 261.387C518.534 261.391 518.524 261.394 518.513 261.394C518.503 261.394 518.493 261.391 518.484 261.387Z" fill="white"/>
<path d="M513.361 269.143C513.353 269.144 513.344 269.143 513.336 269.14C513.328 269.137 513.32 269.132 513.314 269.127C513.308 269.121 513.303 269.114 513.299 269.106C513.296 269.098 513.294 269.089 513.294 269.081C513.188 267.211 514.256 266.197 514.535 266.173C514.544 266.171 514.553 266.172 514.562 266.174C514.57 266.176 514.579 266.18 514.586 266.185C514.593 266.191 514.599 266.197 514.603 266.205C514.608 266.213 514.611 266.221 514.612 266.23C514.613 266.249 514.608 266.267 514.596 266.281C514.584 266.296 514.568 266.305 514.55 266.307C514.376 266.307 513.323 267.235 513.424 269.071C513.425 269.08 513.425 269.089 513.422 269.098C513.42 269.107 513.415 269.115 513.409 269.121C513.403 269.128 513.396 269.134 513.388 269.138C513.379 269.141 513.37 269.143 513.361 269.143Z" fill="white"/>
<path d="M509.398 265.601C508.964 265.531 508.56 265.336 508.236 265.038C507.913 264.741 507.684 264.355 507.579 263.928C507.329 262.948 507.291 261.925 507.469 260.929C507.473 260.911 507.484 260.896 507.499 260.887C507.514 260.877 507.533 260.873 507.551 260.876C507.568 260.881 507.582 260.892 507.591 260.907C507.6 260.922 507.603 260.94 507.599 260.958C507.43 261.932 507.467 262.931 507.709 263.89C507.806 264.291 508.02 264.654 508.322 264.935C508.625 265.215 509.004 265.4 509.412 265.466C509.43 265.469 509.447 265.478 509.459 265.492C509.47 265.506 509.476 265.525 509.475 265.543C509.473 265.552 509.47 265.56 509.466 265.568C509.461 265.576 509.455 265.583 509.448 265.588C509.441 265.593 509.433 265.597 509.424 265.599C509.416 265.602 509.406 265.602 509.398 265.601Z" fill="white"/>
<path d="M511.692 298.876C511.788 299.534 511.856 299.928 511.856 299.928C511.856 299.928 511.134 300.053 509.932 300.193C508.729 300.332 506.901 300.524 504.867 300.616C504.083 300.649 503.265 300.673 502.423 300.673C499.255 300.75 496.091 300.414 493.01 299.674C493.01 299.674 494.198 287.254 495.828 282.885C497.459 278.515 497.166 272.378 497.166 272.378C497.166 272.378 499.465 270.393 503.991 269.59L505.718 273.959L509.566 270.469C510.657 271.202 511.698 272.004 512.683 272.873C513.682 273.756 514.621 274.705 515.492 275.713C513.535 278.668 512.144 281.96 511.389 285.422C511.136 286.662 510.987 287.921 510.942 289.186C510.826 292.521 511.394 296.876 511.687 298.856C511.691 298.862 511.692 298.869 511.692 298.876Z" fill="#F7931E"/>
<path opacity="0.2" d="M523.136 341.659C523.136 341.659 521.827 345.841 515.17 344.942C515.17 344.942 514.732 344.096 514.011 342.645C515.704 342.597 517.811 342.054 518.585 339.819C519.249 337.896 515.54 325.082 512.645 312.595C511.639 308.269 510.72 304.006 509.932 300.194C509.696 299.05 509.451 297.949 509.263 296.897C507.988 290.576 507.195 286.164 507.195 286.164L511.389 285.424C511.136 286.664 510.986 287.923 510.942 289.187C510.826 292.523 511.394 296.878 511.687 298.858C512.207 301.367 513.212 306.068 514.506 311.47C516.199 318.488 523.136 341.659 523.136 341.659Z" fill="black"/>
<path d="M489.936 273.864C489.936 273.864 491.667 277.709 492.783 280.838C493.899 283.967 500.032 289.49 503.279 290.451C503.279 290.451 505.901 290.062 503.106 286.404C500.311 282.746 494.659 277.728 493.447 276.195C492.717 275.272 492.1 274.265 491.61 273.196C491.61 273.196 490.508 272.268 489.936 273.864Z" fill="#FF8C79"/>
<path d="M492.24 274.406C491.59 274.576 491.031 274.991 490.681 275.565L490.951 276.002L492.24 274.406Z" fill="#2E2E2E"/>
<path d="M501.74 288.446C501.751 289.485 501.913 290.516 502.221 291.508C510.769 288.408 515.579 282.923 516.209 279.915C516.81 277.031 515.608 275.819 515.497 275.719C513.919 275.156 512.438 275.829 509.48 277.641C506.521 279.453 502.25 285.399 502.25 285.399C501.886 286.373 501.713 287.407 501.74 288.446Z" fill="#F79F39"/>
<path d="M503.486 288.59C503.447 288.826 503.395 289.06 503.332 289.292C503.12 290.046 502.697 290.594 502.235 291.507C502.004 291.325 494.751 285.528 489.917 277.439C490.032 277.153 490.168 276.877 490.325 276.612C490.402 276.473 490.494 276.329 490.595 276.175C491.192 275.242 492.021 274.478 493 273.959C493 273.959 500.893 281.308 502.967 284.408C503.058 284.552 503.144 284.677 503.212 284.802C503.551 286.035 503.644 287.322 503.486 288.59Z" fill="#F79F39"/>
<path opacity="0.1" d="M516.228 279.915C515.598 282.928 510.788 288.408 502.235 291.508C502.004 291.325 494.751 285.529 489.917 277.439C490.032 277.154 490.168 276.878 490.325 276.613C493.721 280.222 498.984 286.98 501.74 288.518C502.009 288.685 502.311 288.793 502.625 288.836C502.927 288.82 503.221 288.737 503.486 288.59C505.708 287.586 510.634 283.702 512.399 281.573C514.227 279.372 514.949 277.161 515.516 275.719C515.627 275.82 516.834 277.036 516.228 279.915Z" fill="#020544"/>
<path d="M488.142 270.023C488.228 269.855 488.353 269.999 488.353 269.999C488.587 270.371 488.785 270.763 488.945 271.172H489.032H489.056C488.806 270.648 488.334 269.595 488.426 269.418C488.434 269.391 488.449 269.368 488.47 269.35C488.492 269.333 488.517 269.321 488.545 269.318C488.572 269.314 488.6 269.319 488.625 269.33C488.65 269.342 488.671 269.361 488.685 269.384C489.007 269.918 489.284 270.477 489.513 271.057C489.535 271.058 489.557 271.052 489.577 271.041C489.596 271.03 489.612 271.014 489.623 270.994C489.623 270.994 488.729 269.177 488.854 268.942C488.862 268.917 488.878 268.895 488.899 268.878C488.919 268.861 488.944 268.85 488.971 268.847C488.997 268.843 489.024 268.847 489.048 268.858C489.073 268.869 489.093 268.886 489.109 268.908C489.464 269.515 489.772 270.148 490.032 270.802C490.068 270.814 490.107 270.814 490.143 270.802C489.921 270.244 489.556 269.254 489.662 269.086C489.673 269.061 489.691 269.04 489.713 269.026C489.736 269.011 489.762 269.003 489.789 269.003C489.816 269.003 489.843 269.011 489.865 269.026C489.888 269.04 489.906 269.061 489.917 269.086C490.234 269.705 490.503 270.348 490.72 271.009C490.759 271.128 490.824 271.236 490.912 271.326C491.09 270.98 490.936 270.489 491.124 270.134C491.254 269.898 491.393 270.042 491.393 270.042L491.629 273.378C491.148 274.162 489.96 273.936 489.96 273.936C489.476 273.164 489.044 272.361 488.666 271.533C488.665 271.507 488.665 271.481 488.666 271.456C488.435 270.999 488.065 270.167 488.142 270.023Z" fill="#FF8C79"/>
<path d="M502.808 316.953L499.763 309.373C499.763 309.373 499.893 314.66 500.624 316.27C501.355 317.881 502.25 318.448 502.067 319.053L502.808 316.953Z" fill="#2E2E2E"/>
<path d="M505.809 266.375C505.502 266.369 505.198 266.303 504.915 266.183C504.898 266.176 504.885 266.164 504.878 266.147C504.87 266.131 504.87 266.113 504.876 266.096C504.884 266.079 504.897 266.066 504.914 266.059C504.931 266.052 504.95 266.051 504.968 266.058C506.194 266.538 506.752 265.875 506.771 265.846C506.778 265.84 506.785 265.835 506.793 265.831C506.802 265.828 506.811 265.826 506.819 265.826C506.828 265.826 506.837 265.828 506.846 265.831C506.854 265.835 506.861 265.84 506.868 265.846C506.874 265.853 506.879 265.86 506.883 265.868C506.886 265.877 506.888 265.885 506.888 265.894C506.888 265.903 506.886 265.912 506.883 265.92C506.879 265.929 506.874 265.936 506.868 265.942C506.732 266.086 506.568 266.199 506.385 266.273C506.203 266.348 506.006 266.383 505.809 266.375Z" fill="#2E2E2E"/>
<path d="M505.261 265.216C505.165 265.184 505.08 265.129 505.011 265.055C504.943 264.981 504.895 264.891 504.871 264.793C504.869 264.778 504.871 264.762 504.878 264.748C504.885 264.734 504.896 264.723 504.91 264.716C505.197 264.565 505.438 264.339 505.607 264.062C505.619 264.051 505.634 264.044 505.65 264.042C505.666 264.04 505.682 264.043 505.696 264.051C505.71 264.06 505.72 264.072 505.726 264.087C505.732 264.103 505.732 264.119 505.728 264.135C505.551 264.416 505.308 264.65 505.021 264.817C505.044 264.88 505.081 264.937 505.129 264.983C505.178 265.03 505.236 265.065 505.3 265.086C505.309 265.088 505.317 265.092 505.324 265.098C505.332 265.104 505.338 265.111 505.343 265.119C505.347 265.127 505.35 265.136 505.351 265.145C505.352 265.155 505.351 265.164 505.348 265.173C505.341 265.189 505.329 265.203 505.313 265.211C505.297 265.219 505.278 265.221 505.261 265.216Z" fill="#2E2E2E"/>
<path d="M505.68 263.342C505.668 263.341 505.657 263.337 505.647 263.331C505.637 263.325 505.629 263.317 505.622 263.308C505.422 263.011 505.155 262.766 504.843 262.592C504.831 262.579 504.824 262.562 504.824 262.544C504.824 262.526 504.831 262.509 504.843 262.496C504.852 262.481 504.866 262.47 504.883 262.465C504.9 262.461 504.919 262.463 504.934 262.472C505.267 262.659 505.552 262.92 505.766 263.236C505.772 263.242 505.777 263.249 505.781 263.257C505.784 263.265 505.786 263.273 505.786 263.282C505.786 263.29 505.784 263.299 505.781 263.307C505.777 263.314 505.772 263.321 505.766 263.327C505.763 263.335 505.757 263.342 505.75 263.347C505.743 263.353 505.735 263.356 505.727 263.358C505.718 263.359 505.709 263.358 505.701 263.356C505.693 263.353 505.685 263.348 505.68 263.342Z" fill="#2E2E2E"/>
</g>
</svg>
