<svg width="1051" height="603" viewBox="0 0 1051 603" fill="none" xmlns="http://www.w3.org/2000/svg">
<g opacity="0.1">
<path d="M120.463 599.008H89.5728L96.5222 313.146H113.51L120.463 599.008Z" fill="#404040"/>
<path d="M58.7002 186.08C43.2047 159.832 66.9987 287.141 103.608 313.141C103.608 313.156 133.168 312.309 58.7002 186.08Z" fill="#404040"/>
<path d="M2.96773 408.975C-16.5353 435.686 98.1796 353.85 109.165 307.627C109.158 307.627 96.7338 280.55 2.96773 408.975Z" fill="#404040"/>
<path d="M234.303 376.918C265.574 387.686 153.553 302.185 106.166 305.333C106.17 305.337 83.9759 325.203 234.303 376.918Z" fill="#404040"/>
<path d="M140.365 602.672H72.5453L79.502 587.03H133.408L140.365 602.672Z" fill="#404040"/>
<path d="M120.241 313.168C120.241 316.18 119.348 319.124 117.675 321.629C116.003 324.133 113.625 326.085 110.844 327.238C108.062 328.391 105.001 328.692 102.048 328.105C99.0953 327.517 96.3828 326.067 94.2538 323.937C92.1249 321.807 90.6751 319.093 90.0877 316.139C89.5003 313.185 89.8018 310.123 90.954 307.34C92.1061 304.557 94.0573 302.179 96.5607 300.505C99.0641 298.832 102.007 297.938 105.018 297.938C109.055 297.938 112.927 299.543 115.782 302.399C118.637 305.255 120.241 309.129 120.241 313.168Z" fill="#404040"/>
<path d="M256.099 598.354H219.798L227.967 262.468H247.929L256.099 598.354Z" fill="#404040"/>
<path d="M183.529 113.164C165.317 82.3216 193.273 231.909 236.294 262.479C236.294 262.479 271.031 261.482 183.529 113.164Z" fill="#404040"/>
<path d="M118.06 375.073C95.1375 406.458 229.933 310.301 242.835 255.984C242.821 255.984 228.204 224.176 118.06 375.073Z" fill="#404040"/>
<path d="M389.872 337.406C426.607 350.033 294.99 249.583 239.304 253.291C239.304 253.291 213.243 276.621 389.872 337.406Z" fill="#404040"/>
<path d="M279.487 602.672H199.796L207.969 584.288H271.307L279.487 602.672Z" fill="#404040"/>
<path d="M255.83 262.487C255.83 266.026 254.782 269.486 252.817 272.429C250.852 275.372 248.059 277.666 244.791 279.02C241.522 280.375 237.926 280.73 234.456 280.039C230.987 279.349 227.799 277.645 225.298 275.142C222.796 272.64 221.093 269.451 220.403 265.98C219.713 262.509 220.068 258.911 221.422 255.641C222.776 252.372 225.069 249.577 228.01 247.612C230.952 245.646 234.411 244.597 237.948 244.598C242.69 244.6 247.237 246.485 250.59 249.839C253.943 253.194 255.828 257.743 255.83 262.487Z" fill="#404040"/>
</g>
<circle opacity="0.2" cx="781" cy="270" r="270" fill="#4AA29A"/>
<circle cx="781" cy="270" r="243" fill="#89BDB9"/>
<mask id="mask0" mask-type="alpha" maskUnits="userSpaceOnUse" x="538" y="27" width="486" height="486">
<circle cx="781" cy="270" r="243" fill="#89BDB9"/>
</mask>
<g mask="url(#mask0)">
<path opacity="0.5" d="M1060.96 411.035H501.046C501.046 411.035 499.836 355.129 542.966 355.39C586.096 355.651 590.546 359.39 611.493 339.604C632.441 319.817 632.587 263.148 675.106 281.338C690.707 288.01 696.907 296.323 721.139 282.833C745.37 269.343 734.302 237.771 774.249 236.741C814.196 235.71 908.763 226.781 938.412 281.338C960.053 321.178 961.797 355.854 999.886 352.782C1037.97 349.71 1056.73 400.159 1060.96 411.035Z" fill="#86D7D0"/>
<path opacity="0.5" d="M1024.63 411.034H568.885C568.885 411.034 570.253 378.241 605.363 378.457C640.473 378.673 612.403 315.644 629.455 299.54C646.507 283.436 663.967 251.139 698.574 265.946C711.304 271.371 738.871 309.15 758.597 298.166C778.322 287.182 758.743 269.997 791.269 269.164C823.795 268.331 935.655 247.113 959.792 291.52C977.417 323.957 958.818 376.581 989.822 374.081C1020.83 371.582 1021.18 402.181 1024.63 411.034Z" fill="#86D7D0"/>
<path d="M567.53 401.433C567.53 401.433 547.458 383.972 557.442 371.381C567.425 358.79 580.218 377.336 583.649 367.352C587.081 357.367 550.311 311.994 589.624 303.503C628.936 295.011 608.361 335.676 614.33 342.093C621.038 349.307 642.254 330.117 633.674 360.689C626.941 384.681 637.521 373.07 641.473 380.657C646.414 390.14 636.896 401.426 636.896 401.426L567.53 401.433Z" fill="#5FBAB2"/>
<path opacity="0.1" d="M642.882 386.36C642.882 386.171 642.871 385.981 642.859 385.788C638.854 386.968 634.874 386.057 633.674 385.727C635.366 383.087 637.317 380.597 639.538 378.493C639.377 378.389 639.21 378.293 639.039 378.207C635.253 381.83 632.265 386.54 629.976 391.185C630.106 388.61 630.814 382.334 634.506 377.14C634.313 377.092 634.127 377.038 633.945 376.977C629.209 383.783 629.39 392.282 629.394 392.392C628.026 395.33 626.832 398.346 625.818 401.424H626.399C627.861 397.034 630.128 391.371 633.357 386.207C635.054 386.68 636.808 386.921 638.57 386.922C640.026 386.935 641.477 386.745 642.882 386.36Z" fill="black"/>
<path opacity="0.1" d="M618.362 379.161C619.605 379.101 625.1 378.636 631.881 375.003C631.815 374.827 631.758 374.647 631.712 374.465C625.169 377.994 619.841 378.521 618.455 378.6C618.898 375.975 619.433 373.342 620.077 370.774C621.314 370.631 627.207 369.843 632.14 366.938C632.189 366.69 632.241 366.437 632.297 366.178C627.626 369.073 621.81 369.99 620.226 370.195C622.076 363.034 624.794 356.443 628.782 352.076C630.883 349.777 632.734 347.138 634.36 344.317C634.238 344.169 634.106 344.029 633.965 343.898C632.333 346.739 630.478 349.393 628.368 351.702C625.679 354.646 623.562 358.584 621.895 363.018C621.596 359.53 620.979 348.971 623.781 343.401C623.56 343.439 623.336 343.474 623.113 343.509C619.898 350.428 621.375 363.566 621.454 364.23C617.109 376.598 616.055 392.362 615.833 401.434H616.386C616.528 395.787 616.993 387.546 618.362 379.161Z" fill="black"/>
<path opacity="0.1" d="M583.611 394.389C583.611 393.296 583.579 378.818 579.341 370.406C579.121 370.384 578.895 370.35 578.663 370.307C582.443 377.478 582.971 389.868 583.043 393.442C579.66 387.923 575.237 382.999 570.742 378.833C570.885 378.03 571.71 372.78 570.474 367.532C570.273 367.473 570.071 367.418 569.868 367.363C571.057 372.084 570.477 376.911 570.253 378.378C566.748 375.195 563.04 372.245 559.152 369.545C559.009 369.669 558.876 369.798 558.74 369.932C562.805 372.759 567.774 376.598 572.487 381.261C571.091 382.194 564.693 386.061 555.742 385.109C555.811 385.302 555.885 385.494 555.955 385.681C556.845 385.767 557.713 385.812 558.551 385.812C566.345 385.812 571.757 382.427 572.889 381.663C573.778 382.555 574.654 383.476 575.516 384.427C574.642 385.593 569.638 391.661 559.806 392.724C559.927 392.897 560.05 393.068 560.172 393.238C569.778 392.094 574.817 386.249 575.895 384.85C580.244 389.714 584.081 395.308 586.371 401.443H586.956C586.05 398.998 584.931 396.637 583.611 394.389Z" fill="black"/>
<path opacity="0.1" d="M602.215 401.433C602.215 398.023 602.146 394.198 601.95 390.074H601.963C602.012 389.725 606.516 358.656 619.181 343.862C618.947 343.862 618.714 343.851 618.485 343.835C607.993 356.423 603.155 379.921 601.816 387.542C601.345 379.509 600.385 370.513 598.592 361.402C598.665 361.304 598.758 361.165 598.892 360.973C602.538 355.592 608.407 347.375 613.938 341.552C613.839 341.383 613.752 341.207 613.679 341.026C608.071 346.89 602.126 355.211 598.44 360.651C598.014 358.542 597.541 356.431 597.023 354.317C594.943 345.906 594.045 337.523 593.837 329.774C595.697 329.765 605.776 329.542 614.162 325.84C614.182 325.63 614.201 325.42 614.221 325.209C605.871 328.996 595.627 329.215 593.822 329.215C593.732 325.251 593.822 321.46 594.023 317.923C595.703 317.359 606.659 313.59 612.629 309.153C612.545 308.984 612.459 308.815 612.367 308.652C606.736 312.856 596.258 316.571 594.059 317.325C594.411 311.573 595.06 306.522 595.703 302.528C595.514 302.547 595.325 302.566 595.13 302.587C594.05 309.319 593.429 316.117 593.271 322.934C585.74 321.965 578.078 317.426 573.297 314.078C573.212 314.244 573.123 314.408 573.045 314.577C577.896 317.966 585.632 322.53 593.261 323.493C593.108 331.722 593.649 340.956 595.564 350.348C593.275 349.62 582.639 346.088 575.197 341.067C575.308 341.372 575.419 341.675 575.531 341.98C583.39 347.096 594.158 350.501 595.698 350.972C595.941 352.129 596.205 353.288 596.489 354.447C598.46 362.415 599.717 370.468 600.494 378.028C599.024 375.981 594.706 371.265 583.834 366.496C583.81 366.685 583.776 366.873 583.729 367.058C596.795 372.833 600.258 378.589 600.616 379.253C601.422 387.539 601.664 395.189 601.661 401.433H602.215Z" fill="black"/>
<path d="M1001.02 298.755C999.791 298.596 998.356 296.631 998.356 296.631C998.356 296.631 999.917 295.057 1001.14 295.213C1002.37 295.369 1003.12 296.267 1003.09 297.244C1003.05 298.221 1002.24 298.915 1001.02 298.755Z" fill="#9FE6E0"/>
<path d="M994.455 291.672C994.225 293.463 992.413 295.21 992.413 295.21C992.413 295.21 991.161 292.583 991.392 290.794C991.622 289.004 992.454 288.06 993.3 288.302C994.145 288.544 994.69 289.883 994.455 291.672Z" fill="#9FE6E0"/>
<path d="M986.61 293.987C987.075 296.594 985.459 300.301 985.459 300.301C985.459 300.301 982.707 297.639 982.24 295.031C981.774 292.423 982.458 290.528 983.664 290.239C984.869 289.95 986.145 291.379 986.61 293.987Z" fill="#9FE6E0"/>
<path d="M978.562 298.516C980.184 301.122 980.049 306.508 980.049 306.508C980.049 306.508 975.954 305.528 974.328 302.921C972.702 300.315 972.611 297.667 973.787 296.452C974.963 295.236 976.94 295.909 978.562 298.516Z" fill="#9FE6E0"/>
<path d="M971.695 308.362C973.84 309.302 975.774 313.502 975.774 313.502C975.774 313.502 972.491 315.406 970.352 314.465C968.212 313.523 967.152 311.559 967.522 309.874C967.893 308.189 969.556 307.423 971.695 308.362Z" fill="#9FE6E0"/>
<path d="M968.618 319.705C970.252 319.445 972.523 321.207 972.523 321.207C972.523 321.207 970.807 323.607 969.172 323.867C967.537 324.128 966.37 323.363 966.227 322.212C966.084 321.062 966.985 319.965 968.618 319.705Z" fill="#9FE6E0"/>
<path d="M996.468 304.206C995.02 303.725 993.574 301.059 993.574 301.059C993.574 301.059 995.664 299.57 997.113 300.051C998.562 300.531 999.339 301.767 999.161 302.911C998.984 304.056 997.915 304.687 996.468 304.206Z" fill="#9FE6E0"/>
<path d="M990.915 310.578C989.199 309.218 988.161 305.143 988.161 305.143C988.161 305.143 991.307 304.393 993.024 305.753C994.74 307.114 995.358 309.059 994.777 310.389C994.197 311.72 992.629 311.939 990.915 310.578Z" fill="#9FE6E0"/>
<path d="M983.602 319.272C982.143 317.065 982.148 312.383 982.148 312.383C982.148 312.383 985.713 313.087 987.172 315.292C988.631 317.498 988.761 319.795 987.776 320.894C986.79 321.993 985.061 321.478 983.602 319.272Z" fill="#9FE6E0"/>
<path d="M977.745 324.976C977.267 323.308 978.071 320.675 978.071 320.675C978.071 320.675 980.041 322.117 980.518 323.785C980.996 325.452 980.68 326.788 979.915 327.112C979.149 327.435 978.223 326.644 977.745 324.976Z" fill="#9FE6E0"/>
<path d="M967.129 368.568L966.666 368.469C966.7 362.057 967.079 355.65 967.8 349.278C968.923 339.287 971.417 325.224 976.928 314.968C982.439 304.712 987.513 300.117 990.787 298.074C994.363 295.843 996.697 296.675 996.697 296.675C996.697 296.675 994.447 296.467 990.963 298.649C987.74 300.669 982.755 305.204 977.312 315.333C971.851 325.499 969.373 339.468 968.259 349.399C967.536 355.763 967.159 362.162 967.129 368.568Z" fill="#9FE6E0"/>
<path d="M979.022 402.203C979.022 402.203 975.337 388.441 966.382 378.029C955.017 364.816 958.338 353.45 968.403 354.101C979.595 354.823 981.113 357.625 983.296 349.942C985.478 342.26 984.933 308.603 1008.12 308.55C1031.31 308.497 1014.13 353.202 1004.3 368.568C994.476 383.934 1001.03 385.224 1006.21 383.937C1011.39 382.649 1016.3 387.983 1014.12 393.76C1011.94 399.536 1007.44 402.199 1007.44 402.199L979.022 402.203Z" fill="#459991"/>
<path opacity="0.1" d="M990.522 365.012C989.377 360.881 985.515 356.597 981.991 353.377C981.912 353.513 981.831 353.64 981.749 353.759C985.385 357.097 989.344 361.556 990.207 365.76C987.847 371.426 986.256 376.722 986.256 381.422C986.264 388.416 987.056 395.387 988.616 402.205H989.108C987.541 395.388 986.746 388.417 986.737 381.422C986.737 378.464 987.378 375.258 988.453 371.868C989.221 371.32 998.466 364.823 1008.01 362.018C1008.1 361.848 1008.19 361.679 1008.27 361.508C999.514 363.981 990.949 369.614 988.679 371.177C990.728 364.975 994.146 358.172 997.69 351.121C997.833 350.835 997.976 350.549 998.119 350.263C1004.49 350.004 1010.13 348.804 1014.28 347.634C1014.34 347.472 1014.4 347.31 1014.46 347.147C1009.21 348.667 1003.79 349.57 998.331 349.838C998.949 348.608 999.566 347.373 1000.18 346.133C1001.42 345.99 1009.78 344.957 1015.9 342.926C1015.96 342.756 1016.01 342.587 1016.07 342.418C1010.34 344.369 1002.3 345.449 1000.4 345.687C1003.73 338.919 1006.84 332.098 1008.57 325.601C1009.7 325.556 1015.64 325.147 1019.66 321.461C1019.66 321.264 1019.64 321.071 1019.63 320.876C1015.85 324.607 1010.05 325.114 1008.67 325.182C1008.76 324.85 1008.85 324.516 1008.93 324.18C1010.6 317.09 1011.05 312.18 1010.94 308.797C1010.78 308.766 1010.61 308.74 1010.45 308.716C1010.57 312.053 1010.14 316.954 1008.44 324.099C1007.74 326.988 1006.84 329.826 1005.75 332.594C1004.1 332.109 993.748 328.841 989.397 322.215C989.323 322.384 989.254 322.554 989.18 322.724C993.728 329.27 1003.93 332.497 1005.6 332.986C1003.28 338.918 1000.23 345.002 997.237 350.952C994.81 355.796 992.437 360.516 990.522 365.012Z" fill="black"/>
<path opacity="0.1" d="M1012.37 385.619C1012.26 385.51 1012.14 385.407 1012.02 385.307C1010.06 386.406 1008.2 387.686 1006.47 389.131C1004.65 390.641 1002.99 392.345 1001.53 394.212C1001.25 392.824 1000.68 388.614 1002.72 384.282C1002.55 384.266 1002.39 384.243 1002.23 384.216C999.903 389.242 1000.99 394.086 1001.15 394.714C999.434 397.006 998.047 399.527 997.03 402.205H997.535C998.81 398.879 1001.2 394.499 1005.64 390.448C1007.21 390.795 1008.81 390.973 1010.42 390.982C1011.79 390.982 1013.27 390.839 1014.63 390.388C1014.62 390.245 1014.61 390.091 1014.59 389.943C1011.36 391.038 1007.29 390.36 1006.03 390.102C1006.28 389.876 1006.54 389.651 1006.81 389.428C1008.54 387.982 1010.4 386.707 1012.37 385.619Z" fill="black"/>
<path opacity="0.1" d="M962.132 355.802C965.753 357.24 969.706 359.604 972.887 363.495C974.413 365.355 975.769 367.699 976.978 370.304C974.93 369.815 966.568 367.929 960.294 368.091C960.344 368.227 960.389 368.363 960.437 368.5C967.106 368.357 976.135 370.526 977.198 370.789C979.343 375.526 981.007 381.088 982.329 386.342C981.034 385.904 976.973 384.754 971.601 385.312C971.68 385.444 971.757 385.575 971.836 385.705C977.593 385.145 981.759 386.575 982.452 386.834C982.674 387.721 982.885 388.595 983.084 389.457C979.952 388.397 976.628 388.026 973.339 388.37C973.411 388.502 973.482 388.633 973.546 388.765C976.811 388.445 980.106 388.846 983.198 389.941C983.808 392.57 984.331 395.042 984.786 397.192C985.215 399.224 985.577 400.921 985.892 402.205H986.388C986.069 400.918 985.704 399.202 985.264 397.117C983.21 387.425 979.774 371.204 973.28 363.259C970.101 359.371 966.162 356.984 962.527 355.512C962.396 355.605 962.261 355.701 962.132 355.802Z" fill="black"/>
<path d="M503.105 399.529C503.105 399.529 488.733 478.789 502.916 513.381C521.851 559.454 1026.1 575.975 1057.62 521.617C1075.09 491.483 1057.45 399.529 1057.45 399.529H503.105Z" fill="#4AA29A"/>
<path opacity="0.5" d="M691.704 189.688H642.797C642.657 189.691 642.518 189.656 642.396 189.588C642.274 189.52 642.172 189.421 642.1 189.301C642.029 189.181 641.99 189.044 641.989 188.904C641.987 188.764 642.023 188.626 642.092 188.504C642.491 187.709 642.986 186.965 643.567 186.29C644.03 185.75 644.606 185.318 645.255 185.023C645.98 184.697 646.622 184.212 647.132 183.603C648.317 182.33 649.425 180.642 651.995 179.654C655.792 178.174 660.11 180.494 667.591 177.546C675.072 174.598 678.253 182.347 683.501 183.549C684.45 183.771 685.379 184.072 686.279 184.449C687.459 184.956 688.59 185.572 689.655 186.29C690.549 186.894 691.402 187.556 692.208 188.274C692.341 188.375 692.439 188.515 692.487 188.676C692.535 188.836 692.531 189.008 692.475 189.165C692.419 189.323 692.314 189.459 692.175 189.553C692.037 189.647 691.872 189.694 691.704 189.688Z" fill="#9FE6E0"/>
<path opacity="0.5" d="M832.979 120.691H781.927C781.21 117.944 780.713 117.228 780.979 116.547C781.5 115.203 782.242 113.956 783.177 112.859C783.805 112.102 784.582 111.482 785.459 111.036C786.336 110.59 787.295 110.328 788.276 110.266C794.247 109.934 794.745 104.79 800.881 103.712C807.018 102.635 812.65 107.448 815.802 107.264C818.953 107.081 823.454 108.069 826.416 110.751C828.306 112.433 830.325 112.9 832.013 114.256C832.761 114.857 833.384 115.596 833.85 116.435C834.252 117.11 833.755 117.944 832.979 120.691Z" fill="#9FE6E0"/>
<path opacity="0.8" d="M941.906 154.679H877.23C877.018 154.678 876.812 154.612 876.638 154.492C876.464 154.371 876.33 154.2 876.255 154.002C876.18 153.804 876.167 153.588 876.217 153.382C876.268 153.176 876.379 152.991 876.537 152.849C878.227 151.33 880.085 150.01 882.075 148.913C883.952 147.867 885.966 147.09 888.058 146.604C895.029 145.005 899.205 134.763 909.103 138.659C919.001 142.554 924.717 139.494 929.734 141.447C933.317 142.838 934.768 145.224 936.415 146.929C937.039 147.621 937.802 148.174 938.654 148.551C940.603 149.351 942.048 151.618 942.842 153.157C942.923 153.317 942.961 153.495 942.954 153.674C942.947 153.853 942.893 154.027 942.8 154.18C942.706 154.332 942.574 154.458 942.418 154.546C942.261 154.633 942.085 154.679 941.906 154.679Z" fill="white"/>
<path d="M936.415 146.941C932.226 148.255 927.878 148.994 923.491 149.138C911.052 149.694 902.309 146.669 893.946 147.533C890.261 147.912 885.86 148.486 882.099 148.913C883.976 147.867 885.989 147.09 888.082 146.604C895.053 145.005 899.229 134.763 909.127 138.659C919.024 142.554 924.74 139.494 929.757 141.447C933.317 142.838 934.745 145.224 936.415 146.941Z" fill="white"/>
<path opacity="0.8" d="M721.877 129.105H659.683C659.566 129.104 659.45 129.075 659.346 129.02C659.242 128.966 659.152 128.887 659.084 128.792C659.016 128.696 658.971 128.585 658.954 128.469C658.937 128.353 658.947 128.234 658.984 128.123C659.944 125.269 662.882 124.269 665.02 121.877C665.198 121.675 665.387 121.486 665.571 121.285C667.828 119.059 670.57 118.147 675.338 117.952C683.447 117.626 682.446 112.103 692.202 112.103C701.957 112.103 699.73 116.14 709.349 117.395C713.94 117.987 717.269 120.687 719.496 123.315C720.7 124.753 721.732 126.327 722.57 128.004C722.637 128.12 722.672 128.252 722.67 128.386C722.667 128.52 722.628 128.651 722.557 128.764C722.486 128.878 722.384 128.97 722.265 129.03C722.145 129.09 722.011 129.116 721.877 129.105Z" fill="white"/>
<path d="M719.466 123.358C715.025 123.623 710.568 123.319 706.204 122.452C699.612 120.966 694.778 122.452 681.214 123.843C674.041 124.583 668.847 122.985 665.541 121.309C667.798 119.083 670.541 118.171 675.309 117.976C683.418 117.65 682.417 112.127 692.172 112.127C701.928 112.127 699.701 116.165 709.32 117.42C713.91 118.018 717.239 120.711 719.466 123.358Z" fill="white"/>
<path opacity="0.8" d="M666.016 154.942H611.232C611.181 154.941 611.13 154.927 611.086 154.902C611.041 154.877 611.004 154.841 610.977 154.797C610.95 154.754 610.934 154.704 610.931 154.653C610.928 154.602 610.938 154.551 610.959 154.504C611.957 152.61 613.632 151.16 615.651 150.443C616.594 150.092 617.576 149.857 618.577 149.744C624.897 148.999 625.643 145.328 630.844 144.375C636.044 143.422 640.877 146.044 646.078 145.204C651.279 144.363 655.194 148.62 657.788 149.555C658.973 149.981 660.554 150.372 662.071 151.041C663.802 151.706 665.275 152.91 666.27 154.475C666.298 154.521 666.314 154.573 666.315 154.627C666.316 154.681 666.303 154.734 666.278 154.782C666.252 154.829 666.214 154.869 666.168 154.897C666.122 154.925 666.069 154.941 666.016 154.942Z" fill="white"/>
<path d="M662.07 151.04C657.703 151.717 653.266 151.817 648.873 151.336C641.126 150.326 633.275 150.419 625.554 151.614C622.207 152.177 618.77 151.766 615.65 150.43C616.593 150.079 617.576 149.844 618.576 149.732C624.896 148.986 625.643 145.315 630.843 144.362C636.044 143.409 640.877 146.032 646.078 145.191C651.278 144.35 655.193 148.607 657.788 149.542C658.996 149.98 660.566 150.371 662.07 151.04Z" fill="white"/>
<path d="M969.234 189.451C970.834 189.451 972.131 188.155 972.131 186.555C972.131 184.955 970.834 183.658 969.234 183.658C967.635 183.658 966.338 184.955 966.338 186.555C966.338 188.155 967.635 189.451 969.234 189.451Z" fill="#9FE7E0"/>
<path d="M969.234 200.11C970.834 200.11 972.131 198.813 972.131 197.213C972.131 195.613 970.834 194.316 969.234 194.316C967.635 194.316 966.338 195.613 966.338 197.213C966.338 198.813 967.635 200.11 969.234 200.11Z" fill="#9FE7E0"/>
<path d="M969.234 210.769C970.834 210.769 972.131 209.472 972.131 207.872C972.131 206.272 970.834 204.976 969.234 204.976C967.635 204.976 966.338 206.272 966.338 207.872C966.338 209.472 967.635 210.769 969.234 210.769Z" fill="#9FE7E0"/>
<path d="M969.234 221.427C970.834 221.427 972.131 220.13 972.131 218.53C972.131 216.931 970.834 215.634 969.234 215.634C967.635 215.634 966.338 216.931 966.338 218.53C966.338 220.13 967.635 221.427 969.234 221.427Z" fill="#9FE7E0"/>
<path d="M969.234 232.087C970.834 232.087 972.131 230.79 972.131 229.191C972.131 227.591 970.834 226.294 969.234 226.294C967.635 226.294 966.338 227.591 966.338 229.191C966.338 230.79 967.635 232.087 969.234 232.087Z" fill="#9FE7E0"/>
<path d="M969.234 242.745C970.834 242.745 972.131 241.449 972.131 239.849C972.131 238.249 970.834 236.952 969.234 236.952C967.635 236.952 966.338 238.249 966.338 239.849C966.338 241.449 967.635 242.745 969.234 242.745Z" fill="#9FE7E0"/>
<path d="M969.234 253.405C970.834 253.405 972.131 252.108 972.131 250.508C972.131 248.908 970.834 247.611 969.234 247.611C967.635 247.611 966.338 248.908 966.338 250.508C966.338 252.108 967.635 253.405 969.234 253.405Z" fill="#9FE7E0"/>
<path d="M958.976 189.451C960.576 189.451 961.872 188.155 961.872 186.555C961.872 184.955 960.576 183.658 958.976 183.658C957.376 183.658 956.08 184.955 956.08 186.555C956.08 188.155 957.376 189.451 958.976 189.451Z" fill="#9FE7E0"/>
<path d="M958.976 200.11C960.576 200.11 961.872 198.813 961.872 197.213C961.872 195.613 960.576 194.316 958.976 194.316C957.376 194.316 956.08 195.613 956.08 197.213C956.08 198.813 957.376 200.11 958.976 200.11Z" fill="#9FE7E0"/>
<path d="M958.976 210.769C960.576 210.769 961.872 209.472 961.872 207.872C961.872 206.272 960.576 204.976 958.976 204.976C957.376 204.976 956.08 206.272 956.08 207.872C956.08 209.472 957.376 210.769 958.976 210.769Z" fill="#9FE7E0"/>
<path d="M958.976 221.427C960.576 221.427 961.872 220.13 961.872 218.53C961.872 216.931 960.576 215.634 958.976 215.634C957.376 215.634 956.08 216.931 956.08 218.53C956.08 220.13 957.376 221.427 958.976 221.427Z" fill="#9FE7E0"/>
<path d="M958.976 232.087C960.576 232.087 961.872 230.79 961.872 229.191C961.872 227.591 960.576 226.294 958.976 226.294C957.376 226.294 956.08 227.591 956.08 229.191C956.08 230.79 957.376 232.087 958.976 232.087Z" fill="#9FE7E0"/>
<path d="M958.976 242.745C960.576 242.745 961.872 241.449 961.872 239.849C961.872 238.249 960.576 236.952 958.976 236.952C957.376 236.952 956.08 238.249 956.08 239.849C956.08 241.449 957.376 242.745 958.976 242.745Z" fill="#9FE7E0"/>
<path d="M958.976 253.405C960.576 253.405 961.872 252.108 961.872 250.508C961.872 248.908 960.576 247.611 958.976 247.611C957.376 247.611 956.08 248.908 956.08 250.508C956.08 252.108 957.376 253.405 958.976 253.405Z" fill="#9FE7E0"/>
<path d="M948.718 189.453C950.318 189.453 951.614 188.157 951.614 186.557C951.614 184.957 950.318 183.66 948.718 183.66C947.118 183.66 945.822 184.957 945.822 186.557C945.822 188.157 947.118 189.453 948.718 189.453Z" fill="#9FE7E0"/>
<path d="M948.718 200.11C950.317 200.11 951.614 198.813 951.614 197.213C951.614 195.613 950.317 194.316 948.718 194.316C947.118 194.316 945.821 195.613 945.821 197.213C945.821 198.813 947.118 200.11 948.718 200.11Z" fill="#9FE7E0"/>
<path d="M948.718 210.769C950.317 210.769 951.614 209.472 951.614 207.872C951.614 206.272 950.317 204.976 948.718 204.976C947.118 204.976 945.821 206.272 945.821 207.872C945.821 209.472 947.118 210.769 948.718 210.769Z" fill="#9FE7E0"/>
<path d="M948.718 221.427C950.317 221.427 951.614 220.13 951.614 218.53C951.614 216.931 950.317 215.634 948.718 215.634C947.118 215.634 945.821 216.931 945.821 218.53C945.821 220.13 947.118 221.427 948.718 221.427Z" fill="#9FE7E0"/>
<path d="M948.718 232.087C950.317 232.087 951.614 230.79 951.614 229.191C951.614 227.591 950.317 226.294 948.718 226.294C947.118 226.294 945.821 227.591 945.821 229.191C945.821 230.79 947.118 232.087 948.718 232.087Z" fill="#9FE7E0"/>
<path d="M948.718 242.745C950.317 242.745 951.614 241.449 951.614 239.849C951.614 238.249 950.317 236.952 948.718 236.952C947.118 236.952 945.821 238.249 945.821 239.849C945.821 241.449 947.118 242.745 948.718 242.745Z" fill="#9FE7E0"/>
<path d="M948.718 253.405C950.317 253.405 951.614 252.108 951.614 250.508C951.614 248.908 950.317 247.611 948.718 247.611C947.118 247.611 945.821 248.908 945.821 250.508C945.821 252.108 947.118 253.405 948.718 253.405Z" fill="#9FE7E0"/>
<path d="M758.781 401.008C758.781 401.008 755.097 387.246 746.141 376.834C734.776 363.621 738.097 352.255 748.162 352.905C759.355 353.628 760.872 356.43 763.055 348.747C765.238 341.064 764.693 307.407 787.881 307.355C811.07 307.302 793.889 352.007 784.062 367.373C774.236 382.739 780.788 384.029 785.969 382.741C791.15 381.454 796.063 386.788 793.88 392.564C791.697 398.34 787.196 401.004 787.196 401.004L758.781 401.008Z" fill="#459991"/>
<path opacity="0.1" d="M770.281 363.817C769.137 359.686 765.275 355.402 761.751 352.182C761.672 352.317 761.59 352.445 761.509 352.564C765.145 355.902 769.104 360.361 769.966 364.565C767.606 370.231 766.016 375.526 766.016 380.227C766.023 387.221 766.815 394.192 768.376 401.01H768.868C767.301 394.193 766.505 387.221 766.496 380.227C766.496 377.269 767.137 374.063 768.213 370.673C768.981 370.125 778.225 363.628 787.773 360.823C787.86 360.653 787.947 360.484 788.034 360.312C779.274 362.785 770.709 368.418 768.439 369.982C770.487 363.78 773.905 356.976 777.45 349.926C777.593 349.64 777.736 349.354 777.879 349.068C784.245 348.809 789.894 347.609 794.042 346.438C794.102 346.277 794.159 346.115 794.218 345.952C788.965 347.472 783.552 348.375 778.091 348.643C778.709 347.413 779.325 346.178 779.94 344.938C781.176 344.795 789.535 343.762 795.664 341.731C795.718 341.561 795.771 341.392 795.825 341.223C790.104 343.174 782.063 344.254 780.159 344.492C783.492 337.724 786.595 330.902 788.326 324.405C789.456 324.361 795.395 323.952 799.424 320.266C799.415 320.068 799.401 319.875 799.388 319.681C795.612 323.411 789.805 323.919 788.432 323.986C788.518 323.654 788.606 323.321 788.685 322.985C790.36 315.894 790.808 310.985 790.699 307.602C790.537 307.571 790.373 307.545 790.207 307.521C790.327 310.858 789.898 315.758 788.204 322.903C787.499 325.793 786.599 328.631 785.51 331.399C783.861 330.914 773.508 327.645 769.157 321.02C769.082 321.188 769.014 321.359 768.939 321.529C773.488 328.074 783.693 331.302 785.357 331.791C783.042 337.723 779.987 343.806 776.996 349.757C774.569 354.6 772.196 359.321 770.281 363.817Z" fill="black"/>
<path opacity="0.1" d="M792.132 384.424C792.018 384.315 791.899 384.212 791.779 384.112C789.815 385.211 787.958 386.491 786.232 387.935C784.407 389.446 782.751 391.149 781.293 393.016C781.014 391.629 780.435 387.419 782.478 383.086C782.312 383.071 782.149 383.048 781.99 383.021C779.663 388.047 780.753 392.891 780.911 393.518C779.194 395.81 777.806 398.332 776.789 401.01H777.294C778.57 397.684 780.957 393.304 785.404 389.253C786.973 389.599 788.574 389.778 790.18 389.786C791.547 389.786 793.028 389.643 794.391 389.193C794.379 389.05 794.365 388.895 794.345 388.748C791.121 389.842 787.05 389.164 785.786 388.907C786.042 388.681 786.301 388.456 786.57 388.233C788.297 386.787 790.16 385.511 792.132 384.424Z" fill="black"/>
<path opacity="0.1" d="M741.892 354.607C745.512 356.044 749.465 358.409 752.647 362.3C754.173 364.159 755.529 366.504 756.737 369.109C754.689 368.619 746.327 366.734 740.054 366.896C740.104 367.032 740.148 367.167 740.197 367.305C746.865 367.162 755.895 369.33 756.957 369.593C759.103 374.331 760.766 379.893 762.088 385.147C760.794 384.709 756.733 383.559 751.361 384.117C751.439 384.248 751.517 384.38 751.595 384.51C757.352 383.949 761.519 385.38 762.211 385.639C762.433 386.526 762.644 387.4 762.843 388.262C759.711 387.202 756.387 386.831 753.098 387.175C753.17 387.307 753.242 387.438 753.306 387.57C756.57 387.25 759.865 387.651 762.958 388.746C763.567 391.375 764.091 393.847 764.545 395.996C764.974 398.029 765.336 399.726 765.651 401.01H766.147C765.828 399.723 765.464 398.006 765.023 395.922C762.969 386.229 759.534 370.008 753.04 362.064C749.86 358.176 745.921 355.788 742.287 354.316C742.155 354.409 742.021 354.505 741.892 354.607Z" fill="black"/>
<path d="M916.281 427.389C914.919 428.008 907.314 427.716 901.146 427.75C896.365 427.782 895.248 426.389 896.249 425.308C896.61 424.949 897.05 424.678 897.533 424.516C899.427 423.759 901.268 422.878 903.044 421.877V379.759H908.471L908.532 382.375L909.466 421.877C909.466 421.877 919.935 425.739 916.281 427.389Z" fill="#3C857E"/>
<path d="M916.281 427.389C914.919 428.008 907.314 427.716 901.146 427.751C896.365 427.782 895.248 426.389 896.249 425.308C901.531 426.828 910.403 426.175 910.403 425.447C910.403 424.562 908.416 424.227 907.754 423.01C907.091 421.793 906.918 382.482 906.918 382.482L908.543 382.366L909.478 421.868C909.478 421.868 919.935 425.739 916.281 427.389Z" fill="#34726C"/>
<path d="M935.785 386.6L863.472 384.707L876.59 316.944H948.111L935.785 386.6Z" fill="#34726C"/>
<path d="M934.492 385.095L865.297 383.286L877.849 318.442H946.289L934.492 385.095Z" fill="#5FBAB2"/>
<path d="M875.34 384.114C875.305 384.116 875.269 384.116 875.233 384.114C875.093 384.085 874.97 384.002 874.89 383.883C874.811 383.764 874.783 383.618 874.811 383.478L888.077 318.351C888.088 318.278 888.113 318.208 888.151 318.146C888.19 318.083 888.241 318.029 888.301 317.986C888.361 317.944 888.429 317.914 888.501 317.899C888.573 317.884 888.647 317.884 888.72 317.898C888.792 317.913 888.86 317.942 888.921 317.984C888.981 318.026 889.032 318.08 889.071 318.142C889.11 318.205 889.136 318.274 889.147 318.347C889.158 318.42 889.154 318.494 889.136 318.565L875.87 383.68C875.845 383.802 875.779 383.912 875.682 383.991C875.586 384.07 875.465 384.113 875.34 384.114Z" fill="#71D3CA"/>
<path d="M886.868 384.537C886.832 384.542 886.795 384.542 886.758 384.537C886.689 384.524 886.622 384.496 886.564 384.457C886.505 384.417 886.454 384.366 886.415 384.307C886.376 384.248 886.349 384.182 886.336 384.112C886.323 384.042 886.324 383.971 886.339 383.901L899.686 318.335C899.696 318.263 899.722 318.193 899.76 318.13C899.799 318.067 899.85 318.013 899.91 317.971C899.97 317.928 900.038 317.899 900.11 317.884C900.182 317.869 900.256 317.868 900.329 317.883C900.401 317.897 900.469 317.927 900.53 317.968C900.59 318.01 900.641 318.064 900.68 318.127C900.719 318.189 900.745 318.259 900.756 318.331C900.767 318.404 900.763 318.478 900.745 318.549L887.392 384.107C887.367 384.227 887.301 384.336 887.206 384.414C887.111 384.493 886.991 384.536 886.868 384.537Z" fill="#71D3CA"/>
<path d="M898.439 384.747C898.403 384.751 898.367 384.751 898.332 384.747C898.262 384.733 898.196 384.705 898.137 384.666C898.078 384.626 898.027 384.576 897.988 384.517C897.949 384.457 897.922 384.391 897.908 384.322C897.895 384.252 897.895 384.18 897.91 384.111L911.303 318.351C911.314 318.278 911.339 318.208 911.377 318.146C911.416 318.083 911.467 318.029 911.527 317.986C911.587 317.944 911.655 317.914 911.727 317.899C911.799 317.884 911.874 317.884 911.946 317.898C912.018 317.913 912.086 317.942 912.147 317.984C912.207 318.026 912.258 318.08 912.297 318.142C912.336 318.205 912.362 318.274 912.373 318.347C912.384 318.42 912.38 318.494 912.362 318.565L898.968 384.325C898.941 384.445 898.874 384.552 898.778 384.629C898.682 384.705 898.562 384.747 898.439 384.747Z" fill="#71D3CA"/>
<path d="M910.054 384.746C910.017 384.75 909.981 384.75 909.944 384.746C909.874 384.732 909.808 384.704 909.749 384.665C909.691 384.625 909.64 384.575 909.601 384.515C909.562 384.456 909.535 384.39 909.522 384.32C909.509 384.251 909.51 384.179 909.525 384.11L922.918 318.35C922.953 318.216 923.038 318.101 923.155 318.028C923.272 317.955 923.413 317.93 923.549 317.957C923.684 317.984 923.804 318.063 923.884 318.175C923.963 318.288 923.997 318.427 923.977 318.564L910.583 384.324C910.556 384.444 910.489 384.551 910.393 384.628C910.297 384.704 910.177 384.746 910.054 384.746Z" fill="#71D3CA"/>
<path d="M921.556 385.299C921.519 385.303 921.482 385.303 921.446 385.299C921.305 385.27 921.182 385.187 921.103 385.068C921.024 384.949 920.995 384.803 921.023 384.663L934.57 318.154C934.599 318.014 934.683 317.891 934.803 317.812C934.923 317.733 935.069 317.704 935.21 317.732C935.279 317.746 935.345 317.774 935.404 317.814C935.463 317.854 935.514 317.905 935.553 317.964C935.592 318.024 935.618 318.09 935.632 318.16C935.645 318.23 935.644 318.302 935.629 318.371L922.082 384.865C922.058 384.987 921.992 385.097 921.896 385.176C921.8 385.255 921.68 385.298 921.556 385.299Z" fill="#71D3CA"/>
<path d="M936.774 372.752H868.398C868.255 372.752 868.118 372.695 868.017 372.595C867.916 372.494 867.86 372.357 867.86 372.214C867.86 372.072 867.916 371.935 868.017 371.834C868.118 371.733 868.255 371.677 868.398 371.677H936.774C936.917 371.677 937.054 371.733 937.155 371.834C937.256 371.935 937.312 372.072 937.312 372.214C937.312 372.357 937.256 372.494 937.155 372.595C937.054 372.695 936.917 372.752 936.774 372.752Z" fill="#71D3CA"/>
<path d="M938.681 361.958H869.43C869.288 361.958 869.151 361.901 869.05 361.801C868.949 361.7 868.892 361.563 868.892 361.42C868.892 361.278 868.949 361.141 869.05 361.04C869.151 360.939 869.288 360.883 869.43 360.883H938.681C938.823 360.883 938.96 360.939 939.061 361.04C939.162 361.141 939.219 361.278 939.219 361.42C939.219 361.563 939.162 361.7 939.061 361.801C938.96 361.901 938.823 361.958 938.681 361.958Z" fill="#71D3CA"/>
<path d="M940.451 351.179H871.626C871.491 351.169 871.364 351.109 871.272 351.009C871.179 350.91 871.128 350.779 871.128 350.643C871.128 350.507 871.179 350.377 871.272 350.277C871.364 350.178 871.491 350.117 871.626 350.107H940.474C940.548 350.101 940.622 350.111 940.692 350.136C940.762 350.16 940.826 350.199 940.88 350.249C940.934 350.3 940.977 350.361 941.007 350.428C941.037 350.496 941.052 350.569 941.052 350.643C941.052 350.717 941.037 350.79 941.007 350.858C940.977 350.926 940.934 350.987 940.88 351.037C940.826 351.087 940.762 351.126 940.692 351.15C940.622 351.175 940.548 351.185 940.474 351.179H940.451Z" fill="#71D3CA"/>
<path d="M942.479 340.395H873.703C873.56 340.395 873.423 340.338 873.322 340.237C873.222 340.136 873.165 340 873.165 339.857C873.165 339.714 873.222 339.578 873.322 339.477C873.423 339.376 873.56 339.319 873.703 339.319H942.479C942.621 339.319 942.758 339.376 942.859 339.477C942.96 339.578 943.017 339.714 943.017 339.857C943.017 340 942.96 340.136 942.859 340.237C942.758 340.338 942.621 340.395 942.479 340.395Z" fill="#71D3CA"/>
<path d="M944.116 329.608H875.543C875.4 329.608 875.264 329.552 875.163 329.451C875.062 329.35 875.005 329.213 875.005 329.071C875.005 328.928 875.062 328.792 875.163 328.691C875.264 328.59 875.4 328.533 875.543 328.533H944.116C944.259 328.533 944.396 328.59 944.497 328.691C944.598 328.792 944.654 328.928 944.654 329.071C944.654 329.213 944.598 329.35 944.497 329.451C944.396 329.552 944.259 329.608 944.116 329.608Z" fill="#71D3CA"/>
<path opacity="0.3" d="M880.455 320.868C878.384 321.932 874.582 344.787 875.309 345.68C876.035 346.573 881.852 328.47 884.536 325.955C887.221 323.44 901.873 323.932 903.886 322.937C905.9 321.943 906.067 320.7 906.067 320.7C906.067 320.7 882.523 319.807 880.455 320.868Z" fill="white"/>
<path opacity="0.3" d="M929.927 381.351C932.021 380.342 936.395 357.588 935.692 356.674C934.989 355.761 928.718 373.728 925.972 376.165C923.227 378.602 908.59 377.741 906.55 378.697C904.511 379.654 904.314 380.877 904.314 380.877C904.314 380.877 927.83 382.36 929.927 381.351Z" fill="white"/>
<path d="M806.66 429.859C808.308 430.607 817.508 430.254 824.968 430.296C830.753 430.334 832.103 428.649 830.893 427.341C830.455 426.907 829.924 426.579 829.339 426.383C827.048 425.468 824.821 424.401 822.673 423.191V372.241H816.108L816.034 375.406L814.904 423.191C814.904 423.191 802.24 427.862 806.66 429.859Z" fill="#3C857E"/>
<path d="M806.66 429.858C808.308 430.606 817.508 430.253 824.968 430.295C830.753 430.333 832.103 428.648 830.893 427.34C824.503 429.18 813.77 428.389 813.77 427.508C813.77 426.438 816.174 426.033 816.976 424.561C817.777 423.088 817.987 375.534 817.987 375.534L816.02 375.395L814.89 423.179C814.89 423.179 802.24 427.861 806.66 429.858Z" fill="#34726C"/>
<path d="M783.067 380.518L870.543 378.227L854.673 296.256H768.156L783.067 380.518Z" fill="#34726C"/>
<path d="M784.631 378.701L868.335 376.512L853.152 298.072H770.361L784.631 378.701Z" fill="#5FBAB2"/>
<path d="M856.186 377.508C856.229 377.511 856.272 377.511 856.315 377.508C856.485 377.473 856.634 377.373 856.73 377.229C856.825 377.084 856.86 376.908 856.826 376.739L840.778 297.956C840.765 297.868 840.735 297.784 840.688 297.708C840.642 297.632 840.58 297.566 840.507 297.515C840.435 297.464 840.352 297.428 840.265 297.41C840.178 297.391 840.088 297.391 840.001 297.408C839.913 297.426 839.831 297.461 839.757 297.512C839.684 297.563 839.622 297.628 839.575 297.703C839.528 297.779 839.497 297.863 839.483 297.951C839.47 298.039 839.475 298.129 839.497 298.215L855.545 376.983C855.575 377.131 855.655 377.264 855.772 377.36C855.889 377.455 856.035 377.508 856.186 377.508Z" fill="#71D3CA"/>
<path d="M842.241 378.024C842.285 378.029 842.33 378.029 842.374 378.024C842.458 378.007 842.538 377.974 842.609 377.926C842.68 377.878 842.741 377.817 842.789 377.745C842.836 377.674 842.868 377.593 842.884 377.509C842.9 377.425 842.899 377.338 842.881 377.254L826.735 297.94C826.723 297.852 826.692 297.768 826.646 297.692C826.599 297.616 826.538 297.551 826.465 297.499C826.392 297.448 826.31 297.412 826.222 297.394C826.135 297.376 826.045 297.375 825.958 297.393C825.871 297.41 825.788 297.446 825.715 297.496C825.642 297.547 825.58 297.612 825.532 297.688C825.485 297.763 825.454 297.847 825.441 297.935C825.427 298.023 825.432 298.113 825.455 298.199L841.608 377.503C841.638 377.649 841.717 377.78 841.832 377.875C841.948 377.969 842.092 378.022 842.241 378.024Z" fill="#71D3CA"/>
<path d="M828.243 378.274C828.286 378.279 828.33 378.279 828.373 378.274C828.457 378.257 828.537 378.224 828.609 378.176C828.68 378.128 828.741 378.067 828.789 377.995C828.836 377.924 828.869 377.843 828.885 377.759C828.902 377.675 828.901 377.588 828.884 377.504L812.682 297.956C812.669 297.868 812.639 297.784 812.592 297.708C812.546 297.632 812.484 297.566 812.411 297.515C812.338 297.464 812.256 297.428 812.169 297.41C812.082 297.391 811.992 297.391 811.905 297.408C811.817 297.426 811.734 297.461 811.661 297.512C811.588 297.563 811.526 297.628 811.479 297.703C811.432 297.779 811.401 297.863 811.387 297.951C811.374 298.039 811.379 298.129 811.401 298.215L827.603 377.763C827.636 377.908 827.717 378.038 827.833 378.131C827.95 378.224 828.094 378.274 828.243 378.274Z" fill="#71D3CA"/>
<path d="M814.193 378.273C814.237 378.278 814.282 378.278 814.326 378.273C814.41 378.256 814.49 378.223 814.562 378.175C814.633 378.127 814.694 378.066 814.741 377.994C814.788 377.922 814.821 377.842 814.837 377.758C814.852 377.674 814.851 377.587 814.834 377.503L798.632 297.955C798.589 297.794 798.487 297.654 798.345 297.566C798.203 297.477 798.033 297.447 797.869 297.48C797.705 297.513 797.56 297.607 797.464 297.744C797.367 297.88 797.327 298.049 797.351 298.214L813.553 377.762C813.585 377.907 813.667 378.037 813.783 378.13C813.9 378.223 814.044 378.273 814.193 378.273Z" fill="#71D3CA"/>
<path d="M800.28 378.944C800.325 378.949 800.369 378.949 800.413 378.944C800.583 378.909 800.732 378.809 800.828 378.665C800.924 378.52 800.958 378.344 800.924 378.174L784.537 297.721C784.501 297.551 784.4 297.402 784.255 297.306C784.111 297.211 783.934 297.176 783.763 297.21C783.679 297.227 783.599 297.261 783.528 297.309C783.457 297.357 783.396 297.419 783.349 297.491C783.301 297.563 783.269 297.643 783.253 297.728C783.237 297.812 783.238 297.899 783.256 297.983L799.643 378.419C799.673 378.567 799.752 378.7 799.868 378.795C799.984 378.891 800.13 378.943 800.28 378.944Z" fill="#71D3CA"/>
<path d="M781.87 363.768H864.584C864.757 363.768 864.922 363.699 865.044 363.577C865.166 363.455 865.235 363.29 865.235 363.117C865.235 362.945 865.166 362.779 865.044 362.657C864.922 362.535 864.757 362.467 864.584 362.467H781.87C781.698 362.467 781.532 362.535 781.41 362.657C781.288 362.779 781.219 362.945 781.219 363.117C781.219 363.29 781.288 363.455 781.41 363.577C781.532 363.699 781.698 363.768 781.87 363.768Z" fill="#71D3CA"/>
<path d="M779.564 350.708H863.335C863.507 350.708 863.673 350.639 863.795 350.517C863.917 350.395 863.986 350.23 863.986 350.058C863.986 349.885 863.917 349.72 863.795 349.598C863.673 349.476 863.507 349.407 863.335 349.407H779.564C779.392 349.407 779.226 349.476 779.104 349.598C778.982 349.72 778.913 349.885 778.913 350.058C778.913 350.23 778.982 350.395 779.104 350.517C779.226 350.639 779.392 350.708 779.564 350.708Z" fill="#71D3CA"/>
<path d="M777.422 337.67H860.678C860.842 337.658 860.996 337.584 861.108 337.464C861.219 337.344 861.282 337.186 861.282 337.021C861.282 336.857 861.219 336.699 861.108 336.579C860.996 336.458 860.842 336.385 860.678 336.373H777.394C777.305 336.366 777.215 336.378 777.131 336.408C777.047 336.437 776.969 336.484 776.904 336.545C776.838 336.606 776.786 336.68 776.75 336.762C776.714 336.844 776.696 336.932 776.696 337.021C776.696 337.111 776.714 337.199 776.75 337.281C776.786 337.363 776.838 337.437 776.904 337.498C776.969 337.559 777.047 337.605 777.131 337.635C777.215 337.665 777.305 337.677 777.394 337.67H777.422Z" fill="#71D3CA"/>
<path d="M774.969 324.625H858.166C858.339 324.625 858.504 324.556 858.626 324.434C858.748 324.313 858.817 324.147 858.817 323.975C858.817 323.802 858.748 323.637 858.626 323.515C858.504 323.393 858.339 323.324 858.166 323.324H774.969C774.797 323.324 774.631 323.393 774.509 323.515C774.387 323.637 774.319 323.802 774.319 323.975C774.319 324.147 774.387 324.313 774.509 324.434C774.631 324.556 774.797 324.625 774.969 324.625Z" fill="#71D3CA"/>
<path d="M772.988 311.576H855.94C856.113 311.576 856.278 311.508 856.4 311.386C856.522 311.264 856.591 311.098 856.591 310.926C856.591 310.753 856.522 310.588 856.4 310.466C856.278 310.344 856.113 310.275 855.94 310.275H772.988C772.816 310.275 772.65 310.344 772.528 310.466C772.406 310.588 772.337 310.753 772.337 310.926C772.337 311.098 772.406 311.264 772.528 311.386C772.65 311.508 772.816 311.576 772.988 311.576Z" fill="#71D3CA"/>
<path opacity="0.3" d="M849.999 301.005C852.504 302.292 857.102 329.94 856.224 331.02C855.346 332.101 848.308 310.201 845.061 307.159C841.814 304.117 824.089 304.711 821.654 303.509C819.218 302.306 819.015 300.802 819.015 300.802C819.015 300.802 847.497 299.722 849.999 301.005Z" fill="white"/>
<path opacity="0.3" d="M790.153 374.17C787.62 372.949 782.329 345.424 783.179 344.319C784.029 343.214 791.616 364.949 794.937 367.897C798.258 370.844 815.964 369.802 818.431 370.96C820.898 372.117 821.136 373.596 821.136 373.596C821.136 373.596 792.69 375.39 790.153 374.17Z" fill="white"/>
<path d="M614.227 320.251C614.227 320.251 610.451 319.049 609.7 319.103C609.7 319.103 609.195 319.103 609.387 319.584C609.58 320.065 613.974 321.218 613.974 321.218L614.227 320.251Z" fill="#FF8C79"/>
<path d="M613.854 321.302C613.854 321.302 610.013 320.341 609.273 320.431C609.273 320.431 608.768 320.467 608.991 320.929C609.213 321.392 613.667 322.287 613.667 322.287L613.854 321.302Z" fill="#FF8C79"/>
<path d="M614.004 322.678C614.004 322.678 610.163 321.717 609.417 321.807C609.358 321.804 609.298 321.819 609.246 321.848C609.194 321.877 609.151 321.92 609.121 321.973C609.092 322.025 609.078 322.084 609.08 322.144C609.083 322.204 609.102 322.262 609.135 322.311C609.393 322.846 613.812 323.663 613.812 323.663L614.004 322.678Z" fill="#FF8C79"/>
<path d="M631.798 338.96C631.798 339.327 631.858 339.675 631.9 339.994C631.96 340.438 632.039 340.829 632.105 341.129C632.201 341.574 632.285 341.832 632.285 341.832C632.61 341.736 632.928 341.646 633.241 341.544C633.65 341.424 634.046 341.292 634.443 341.159L634.678 341.075C634.99 340.967 635.279 340.865 635.603 340.751C635.928 340.637 636.301 340.492 636.643 340.36C636.702 340.342 636.758 340.318 636.812 340.288C637.154 340.162 637.497 340.024 637.828 339.886C638.771 339.489 639.667 339.075 640.527 338.684L641.128 338.39L641.729 338.089C641.915 337.987 642.102 337.891 642.288 337.783C643.882 336.918 645.409 335.936 646.857 334.845C647.055 334.7 647.247 334.556 647.428 334.412L647.71 334.184C647.891 334.046 648.059 333.907 648.221 333.769L648.762 333.306L649.219 332.892C649.381 332.742 649.538 332.597 649.682 332.453C649.826 332.309 649.977 332.165 650.115 332.027C651.918 330.17 653.06 328.422 653.445 327.022C654.569 322.978 651.54 323.903 651.54 323.903C649.291 323.038 653.944 317.895 649.285 319.655C640.869 322.798 635.194 331.137 633.145 333.168L632.742 333.571C631.979 335.26 631.655 337.113 631.798 338.96Z" fill="#E2581D"/>
<path d="M643.905 331.42L642.931 337.368L641.248 338.287L642.156 335.391C642.733 333.553 643.436 332.772 643.905 331.42Z" fill="#8A3511"/>
<path d="M613.547 323.881C613.547 323.881 610.373 323.088 609.76 323.16C609.76 323.16 609.339 323.19 609.526 323.574C609.712 323.959 613.391 324.698 613.391 324.698L613.547 323.881Z" fill="#FF8C79"/>
<path d="M612.219 324.09C620.502 334.539 632.279 341.845 632.279 341.845C632.676 340.888 632.992 339.899 633.223 338.889C633.265 338.697 633.301 338.504 633.337 338.324C633.69 336.779 633.725 335.178 633.439 333.62C633.337 333.456 633.226 333.297 633.108 333.145C629.898 328.825 616.174 318.953 616.174 318.953C614.85 319.765 613.76 320.908 613.012 322.27C612.904 322.462 612.808 322.648 612.724 322.829C612.519 323.234 612.35 323.656 612.219 324.09Z" fill="#E2581D"/>
<path opacity="0.2" d="M612.219 324.089C620.502 334.538 632.279 341.844 632.279 341.844C632.603 341.748 632.922 341.658 633.235 341.556C633.643 341.436 634.04 341.303 634.437 341.171L634.671 341.087C634.984 340.979 635.272 340.877 635.597 340.763C635.922 340.648 636.294 340.504 636.637 340.372C636.696 340.354 636.752 340.33 636.805 340.3C637.148 340.174 637.491 340.036 637.821 339.897C638.765 339.501 639.661 339.086 640.52 338.696L641.122 338.401L641.723 338.101L642.282 337.794C643.875 336.93 645.403 335.948 646.85 334.856C647.049 334.712 647.241 334.568 647.422 334.424L647.704 334.195C647.884 334.057 648.053 333.919 648.215 333.781L648.756 333.318L649.213 332.904C649.375 332.753 649.532 332.609 649.676 332.465C649.82 332.321 649.97 332.177 650.109 332.038L649.586 329.449C645.05 330.913 640.792 333.129 636.992 336.004C636.174 336.605 632.363 338.137 630.71 337.35C627.704 335.92 618.825 328.127 612.748 322.888C612.538 323.273 612.361 323.675 612.219 324.089Z" fill="black"/>
<path d="M629.583 427.21H607.82L612.716 225.816H624.684L629.583 427.21Z" fill="#3C857E"/>
<path d="M678.08 437.208C680.881 436.607 684.873 431.512 684.65 430.491C684.519 429.961 684.317 429.452 684.049 428.977C683.701 428.322 683.346 427.775 683.346 427.775C683.106 427.748 682.864 427.748 682.625 427.775C682.154 427.801 681.7 427.961 681.317 428.237C680.935 428.513 680.639 428.893 680.466 429.331C680.495 429.37 680.517 429.412 680.533 429.457C680.611 429.674 680.647 430.16 680.214 431.182C679.781 432.203 677.942 434.943 677.449 436.145C677.405 436.243 677.37 436.346 677.346 436.451C677.1 437.473 678.08 437.208 678.08 437.208Z" fill="#FF8C79"/>
<path d="M678.074 437.185C680.875 436.584 684.873 431.495 684.656 430.474C684.521 429.945 684.319 429.437 684.055 428.959C683.911 428.683 683.761 428.431 683.64 428.232C682.919 429.779 681.626 430.987 680.034 431.603C679.384 432.859 677.9 435.082 677.461 436.157C677.417 436.256 677.383 436.359 677.359 436.464C677.094 437.449 678.074 437.185 678.074 437.185Z" fill="#2E2E2E"/>
<path d="M645.654 435.171C648.528 435.321 653.902 431.47 654.004 430.43C654.024 429.887 653.974 429.344 653.854 428.814C653.8 428.514 653.734 428.213 653.673 428.009C653.613 427.805 653.541 427.498 653.541 427.498C653.318 427.41 653.086 427.346 652.85 427.306C652.381 427.21 651.895 427.247 651.446 427.411C650.997 427.576 650.603 427.862 650.307 428.237C650.325 428.281 650.336 428.328 650.337 428.376C650.337 428.604 650.229 429.079 649.508 429.95C649.423 430.052 649.315 430.166 649.195 430.292C648.191 431.326 646.093 433.074 645.342 433.993C645.272 434.076 645.209 434.164 645.155 434.258C644.632 435.171 645.654 435.171 645.654 435.171Z" fill="#FF8C79"/>
<path d="M645.654 435.173C648.528 435.323 653.902 431.472 654.004 430.432C654.024 429.889 653.974 429.346 653.854 428.816C653.8 428.515 653.734 428.215 653.674 428.011C652.521 429.308 650.927 430.13 649.201 430.318C648.197 431.351 646.099 433.1 645.348 434.019C645.278 434.101 645.215 434.19 645.161 434.283C644.632 435.173 645.654 435.173 645.654 435.173Z" fill="#2E2E2E"/>
<path d="M650.013 427.703C650.133 427.925 650.235 428.105 650.307 428.232C650.325 428.276 650.336 428.322 650.337 428.37H650.385C651.262 428.156 652.094 427.79 652.844 427.288C653.088 427.123 653.305 426.92 653.487 426.688L650.013 427.703Z" fill="#2E2E2E"/>
<path d="M634.209 395.859C634.142 401.056 641.681 419.292 644.428 425.709C645.029 427.127 645.396 427.974 645.396 427.974C647.998 428.457 650.687 428.121 653.09 427.012C654.172 426.559 655.198 425.985 656.15 425.3L649.015 396.46C648.684 395.818 648.16 395.295 647.518 394.964C647.22 394.787 646.913 394.626 646.598 394.483C645.134 393.852 643.609 393.373 642.047 393.053C637.785 392.086 634.209 395.859 634.209 395.859Z" fill="#404040"/>
<path d="M634.209 395.859C638.134 398.683 643.009 398.172 646.057 397.409L646.869 397.193C647.591 396.987 648.3 396.736 648.991 396.442C650.45 394.027 651.786 391.54 652.994 388.991C654.01 386.864 654.978 384.635 655.856 382.382C659.006 374.295 660.917 366.021 659.378 361.593C656.854 354.383 640.99 355.909 640.99 355.909C638.818 363.811 637.127 371.837 635.928 379.943C635.11 385.555 634.551 390.878 634.209 395.859Z" fill="#404040"/>
<path opacity="0.1" d="M644.41 425.726C645.011 427.144 645.378 427.991 645.378 427.991C647.98 428.475 650.669 428.139 653.072 427.03C654.161 426.572 655.194 425.992 656.15 425.3L649.015 396.459C650.473 394.045 651.81 391.558 653.018 389.009C654.034 386.882 655.002 384.653 655.88 382.4L645.191 370.485C645.233 371.357 644.386 371.363 644.434 373.099C644.494 375.292 645.444 379.396 645.504 382.148C645.636 388.432 645.75 394.999 645.817 396.453C645.961 399.914 649.015 409.167 648.546 416.413C648.167 421.959 645.979 424.561 644.41 425.726Z" fill="black"/>
<path d="M656.355 402.113V402.191C658.098 407.28 671.137 422.8 675.82 428.267C676.853 429.469 677.485 430.202 677.485 430.202C680.078 430.057 682.555 429.079 684.548 427.414C685.448 426.717 686.255 425.91 686.953 425.011L670.722 399.067C670.681 399.018 670.637 398.972 670.59 398.929L670.529 398.869L670.463 398.815C669.971 398.429 669.404 398.151 668.798 397.997C668.457 397.896 668.109 397.816 667.758 397.757L667.211 397.673C665.79 397.499 664.356 397.436 662.925 397.487C658.555 397.607 656.355 402.113 656.355 402.113Z" fill="#404040"/>
<path d="M640.226 364.975C641.951 369.866 654.425 397.805 656.379 402.191L656.637 402.756C660.03 403.256 663.483 402.406 666.255 400.389C666.73 400.058 667.169 399.722 667.554 399.403C667.663 399.323 667.767 399.237 667.866 399.145C668.077 398.965 668.269 398.784 668.468 398.616C669.219 397.907 670.139 398.538 670.469 398.815C670.492 398.831 670.514 398.849 670.536 398.869C670.56 398.886 670.582 398.906 670.602 398.929C670.542 396.441 669.616 391.785 669.237 388.877C668.936 386.594 668.311 381.931 667.975 379.576C667.373 375.532 667.115 368.845 666.34 363.317L666.303 363.041C666.167 361.714 665.843 360.413 665.342 359.177C664.139 356.738 660.971 363.491 659.487 362.242C653.253 356.984 640.226 364.975 640.226 364.975Z" fill="#404040"/>
<path opacity="0.3" d="M659.505 403.604H659.457C659.424 403.592 659.398 403.567 659.383 403.536C659.368 403.504 659.367 403.468 659.378 403.436C660.154 401.459 659.342 400.317 659.33 400.305C659.32 400.291 659.313 400.275 659.309 400.258C659.305 400.241 659.304 400.223 659.307 400.206C659.31 400.189 659.316 400.172 659.325 400.157C659.334 400.142 659.346 400.129 659.36 400.119C659.375 400.109 659.391 400.101 659.408 400.097C659.425 400.093 659.442 400.093 659.46 400.095C659.477 400.098 659.494 400.104 659.509 400.114C659.524 400.123 659.536 400.135 659.547 400.149C659.583 400.203 660.448 401.423 659.625 403.526C659.616 403.55 659.599 403.571 659.578 403.585C659.556 403.599 659.53 403.605 659.505 403.604Z" fill="black"/>
<path opacity="0.1" d="M662.516 364.711C662.516 364.711 663.039 371.771 663.658 376.914C663.965 379.468 665.161 397.294 665.726 399.055C665.794 399.267 665.873 399.484 665.961 399.704C666.051 399.926 666.153 400.16 666.267 400.401C668.6 405.424 675.02 411.871 676.769 418.348C678.224 423.755 676.974 426.759 675.85 428.28C676.884 429.481 677.515 430.214 677.515 430.214C680.111 430.07 682.591 429.09 684.584 427.42C685.471 426.722 686.267 425.914 686.953 425.017L670.722 399.073C670.681 399.024 670.637 398.978 670.59 398.935C670.529 396.447 669.604 391.791 669.225 388.883C668.924 386.6 668.299 381.937 667.963 379.582C667.361 375.538 667.103 368.851 666.327 363.323L666.291 363.047L662.516 364.711Z" fill="black"/>
<path d="M666.298 323.23C666.298 323.23 662.258 319.433 659.895 318.069C659.382 317.771 658.814 317.58 658.225 317.507C657.636 317.435 657.039 317.483 656.469 317.648C656.469 317.648 654.708 317.528 649.604 320.28C649.604 320.28 645.775 324.6 646.754 329.671C647.734 334.742 642.763 364.177 642.763 364.177C642.763 364.177 656.487 365.98 665.955 363.054C665.955 363.054 664.061 355.765 665.781 343.971C665.769 343.971 671.341 325.7 666.298 323.23Z" fill="#FF8C79"/>
<path d="M654.377 319.415L659.27 318.616L658.176 313.641L654.287 314.878L654.305 315.768V315.924L654.317 316.422L654.323 316.687L654.377 319.415Z" fill="#FF8C79"/>
<path d="M654.347 316.423C654.903 316.39 655.446 316.241 655.94 315.984C656.434 315.727 656.868 315.369 657.214 314.933C656.895 315.195 656.548 315.423 656.18 315.612C655.613 315.907 654.968 316.018 654.335 315.93L654.347 316.423Z" fill="#2E2E2E"/>
<path d="M652.465 309.939C651.479 312.499 651.864 315.022 653.818 315.791C655.772 316.56 657.858 314.956 658.849 312.391C659.841 309.825 659.384 307.266 657.395 306.502C655.405 305.739 653.457 307.368 652.465 309.939Z" fill="#FF8C79"/>
<path d="M638.747 365.367C641.344 364.897 643.993 364.778 646.622 365.012C651.581 365.529 657.755 367.308 663.394 364.874C664.523 364.342 665.617 363.74 666.67 363.072C666.67 363.072 664.993 352.371 664.308 346.645C663.514 339.982 662.919 333.012 663.358 329.401C663.552 327.165 663.954 324.952 664.56 322.792C664.939 321.68 665.203 321.692 665.251 321.704C664.365 320.971 663.438 320.289 662.474 319.661C662.168 319.475 661.873 319.301 661.603 319.169C661.603 319.169 656.192 321.752 651.575 319.066C650.231 319.251 648.927 319.657 647.716 320.268L644.464 328.86L641.999 342.505L638.747 365.367Z" fill="#E2581D"/>
<path d="M655.225 308.623C656.006 309.224 656.535 310.059 656.427 310.792C656.228 311.994 656.505 312.324 656.793 312.306C657.082 312.288 657.298 311.591 657.298 311.591C657.298 311.591 658.146 311.405 658.014 312.15C657.986 312.394 658.01 312.641 658.085 312.875C658.16 313.109 658.283 313.325 658.447 313.508C659.258 313.125 659.975 312.567 660.545 311.874C659.054 310.462 657.286 309.59 655.225 308.623Z" fill="#2E2E2E"/>
<path d="M656.054 304.904C655.363 305.235 654.725 305.661 654.076 305.373C652.477 304.658 652.345 304.417 651.93 305.373C651.515 306.328 652.074 307.662 653.601 307.902C654.193 308.007 654.75 308.255 655.224 308.623C657.286 309.591 659.054 310.462 660.527 311.874C661.321 310.92 661.71 309.692 661.609 308.455C661.392 305.367 659.144 304.964 658.23 304.574C657.575 304.291 656.601 304.646 656.054 304.904Z" fill="#E2581D"/>
<path d="M657.106 312.672C657.216 312.795 657.36 312.881 657.52 312.92C657.679 312.958 657.847 312.948 658.001 312.889C658.154 312.831 658.286 312.727 658.379 312.591C658.473 312.456 658.522 312.296 658.522 312.131C658.522 311.967 658.473 311.807 658.379 311.671C658.286 311.536 658.154 311.432 658.001 311.374C657.847 311.315 657.679 311.304 657.52 311.343C657.36 311.382 657.216 311.468 657.106 311.591C656.964 311.735 656.884 311.929 656.884 312.131C656.884 312.334 656.964 312.528 657.106 312.672Z" fill="#FF8C79"/>
<path d="M662.691 372.66C662.691 372.66 665.42 367.619 667.879 363.84C670.337 360.061 671.269 348.867 669.616 344.613C669.616 344.613 667.037 342.102 665.408 348.134C663.779 354.166 663.003 364.411 662.336 366.982C661.938 368.532 661.357 370.028 660.605 371.44C660.605 371.44 660.491 373.363 662.691 372.66Z" fill="#FF8C79"/>
<path d="M672.85 343.124C672.85 343.166 672.85 343.911 672.85 344.927V344.999C672.836 346.794 672.73 348.587 672.531 350.37C671.932 354.109 671.019 357.791 669.802 361.378C668.764 364.404 667.56 367.37 666.195 370.264C665.75 370.382 665.295 370.467 664.837 370.516C664.791 370.513 664.745 370.513 664.698 370.516H664.566L664.206 370.546H663.887C662.981 370.569 662.076 370.452 661.206 370.198C660.728 370.044 660.267 369.843 659.829 369.597C659.829 369.597 662.047 356.481 664.44 347.673C664.524 347.342 664.614 347.018 664.704 346.699C664.747 346.555 664.789 346.405 664.831 346.267C665.071 345.425 664.59 345.371 664.831 344.62C665.071 343.869 665.925 342.409 666.267 341.652C666.899 340.222 668.149 340.234 668.486 339.688C668.486 339.688 669.087 340.066 669.934 340.709C670.325 340.997 670.776 341.31 671.257 341.718C671.823 342.136 672.363 342.588 672.874 343.07L672.85 343.124Z" fill="#E2581D"/>
<path d="M672.838 343.113C672.838 343.714 672.796 344.344 672.748 344.981C672.748 345.138 672.718 345.288 672.712 345.444C672.706 345.6 672.712 345.666 672.712 345.78H672.664C672.285 345.889 669.61 346.616 669.261 346.471C669.128 346.448 668.992 346.458 668.864 346.501C667.8 346.742 665.143 347.895 664.783 347.553C664.783 347.553 664.464 347.853 664.452 347.763V347.679C664.404 347.499 664.362 347.289 664.308 347.078C664.284 346.962 664.26 346.842 664.236 346.718C663.466 343.065 661.879 334.995 660.665 331.565C660.134 330.015 659.71 328.431 659.396 326.824C658.867 322.618 659.859 320.461 659.877 320.455C661.129 320.418 662.381 320.452 663.628 320.557C663.743 320.567 663.856 320.591 663.965 320.629C664.055 320.69 664.632 321.044 665.167 321.441C665.395 321.594 665.614 321.76 665.823 321.939C667.973 323.884 669.623 326.318 670.632 329.035C670.722 329.27 670.812 329.51 670.896 329.75C670.98 329.991 671.016 330.093 671.071 330.261C672.405 334.409 673.003 338.759 672.838 343.113Z" fill="#E2581D"/>
<path opacity="0.2" d="M672.82 344.926L672.748 344.992C672.748 344.992 672.748 344.992 672.82 344.992C672.806 346.787 672.7 348.58 672.501 350.363C671.902 354.102 670.989 357.785 669.772 361.371C668.734 364.397 667.53 367.363 666.165 370.257C666.165 369.206 666.195 367.854 666.292 366.382C666.784 359.172 668.432 348.218 668.84 346.554C668.906 346.278 668.979 346.001 669.045 345.725C669.153 345.286 669.255 344.842 669.351 344.397C669.609 343.306 669.785 342.197 669.88 341.08C669.88 340.978 669.88 340.87 669.88 340.768C670.037 338.365 669.808 335.445 668.744 331.341C667.614 326.967 664.873 322.479 663.562 320.586C663.677 320.595 663.79 320.619 663.899 320.658C663.989 320.718 664.566 321.073 665.101 321.469C665.246 321.589 665.336 321.679 665.354 321.697C665.493 321.781 665.627 321.871 665.756 321.968C667.907 323.912 669.557 326.346 670.566 329.064C670.656 329.298 670.746 329.538 670.83 329.779C670.914 330.019 670.944 330.127 671.004 330.289C672.348 334.426 672.958 338.765 672.808 343.111C672.85 343.165 672.844 343.91 672.82 344.926Z" fill="black"/>
<path d="M658.609 377.713C658.895 376.803 659.248 375.915 659.667 375.057C659.65 375.009 659.616 374.968 659.571 374.943C659.204 375.676 658.543 376.95 658.29 376.998C658.038 377.046 658.038 376.758 658.038 376.758C658.371 375.869 658.773 375.007 659.24 374.18C659.327 374.032 659.376 373.865 659.384 373.694C658.873 373.838 658.525 374.445 657.99 374.577C657.641 374.667 657.659 374.39 657.659 374.39L660.797 371.104C661.999 370.864 662.883 372.264 662.883 372.264C662.561 373.455 662.16 374.623 661.681 375.76L661.627 375.857C661.368 376.457 660.869 377.599 660.659 377.659C660.448 377.719 660.436 377.467 660.436 377.467C660.598 376.894 660.811 376.337 661.074 375.802L660.995 375.712H660.959C660.659 376.445 660.034 377.881 659.757 377.953C659.481 378.026 659.487 377.725 659.487 377.725C659.728 376.914 660.038 376.124 660.412 375.364C660.393 375.34 660.368 375.322 660.34 375.311C660.311 375.301 660.28 375.298 660.25 375.304C660.25 375.304 659.24 377.863 658.885 377.959C658.531 378.056 658.609 377.713 658.609 377.713Z" fill="#FF8C79"/>
<path d="M651.708 391.688L644.729 376.03C644.729 376.03 647.356 383.805 648.209 386.773C649.063 389.741 650.145 394.476 650.145 394.476L651.708 391.688Z" fill="#2E2E2E"/>
<path d="M651.714 312.883C651.876 312.817 652.351 312.973 653.115 312.998C653.529 312.998 653.577 313.544 653.235 313.598C652.731 313.623 652.227 313.573 651.738 313.448C651.576 313.376 651.57 312.943 651.714 312.883Z" fill="#2E2E2E"/>
<path d="M663.364 332.946C664.234 336.089 664.796 339.308 665.041 342.56C665.227 346.964 660.593 365.728 660.593 365.728C660.885 362.913 660.78 360.072 660.28 357.286C659.444 352.978 661.446 349.986 662.083 346.399C662.721 342.812 663.364 332.946 663.364 332.946Z" fill="#8A3511"/>
<path d="M653.619 314.367C653.223 314.361 652.831 314.288 652.459 314.15C652.445 314.148 652.432 314.143 652.421 314.135C652.409 314.127 652.4 314.117 652.393 314.105C652.386 314.093 652.381 314.08 652.38 314.066C652.378 314.052 652.38 314.038 652.384 314.025C652.388 314.012 652.396 314 652.405 313.99C652.415 313.98 652.426 313.972 652.439 313.967C652.452 313.961 652.466 313.959 652.479 313.96C652.493 313.96 652.507 313.964 652.519 313.97C654.323 314.571 655.044 313.604 655.074 313.562C655.083 313.552 655.094 313.545 655.106 313.54C655.118 313.535 655.13 313.532 655.143 313.532C655.156 313.532 655.169 313.535 655.181 313.54C655.193 313.545 655.203 313.552 655.212 313.562C655.222 313.57 655.229 313.581 655.234 313.593C655.239 313.605 655.242 313.618 655.242 313.631C655.242 313.644 655.239 313.656 655.234 313.668C655.229 313.68 655.222 313.691 655.212 313.7C655.014 313.924 654.768 314.1 654.492 314.216C654.216 314.331 653.918 314.383 653.619 314.367Z" fill="#2E2E2E"/>
<path d="M652.88 312.751C652.735 312.713 652.604 312.638 652.498 312.532C652.392 312.427 652.317 312.295 652.279 312.15C652.274 312.129 652.277 312.106 652.287 312.087C652.297 312.067 652.313 312.051 652.333 312.042C652.728 311.807 653.054 311.471 653.277 311.069C653.29 311.046 653.312 311.029 653.338 311.021C653.363 311.014 653.391 311.015 653.415 311.027C653.426 311.033 653.436 311.041 653.444 311.051C653.452 311.061 653.457 311.073 653.461 311.085C653.464 311.098 653.465 311.11 653.463 311.123C653.462 311.136 653.457 311.148 653.451 311.159C653.223 311.573 652.895 311.922 652.495 312.174C652.531 312.263 652.587 312.342 652.659 312.405C652.731 312.467 652.817 312.512 652.91 312.535C652.933 312.544 652.952 312.561 652.965 312.583C652.977 312.605 652.981 312.63 652.976 312.655C652.976 312.68 652.966 312.705 652.948 312.723C652.93 312.741 652.905 312.751 652.88 312.751Z" fill="#2E2E2E"/>
<path d="M653.361 310.06C653.345 310.06 653.33 310.056 653.316 310.049C653.303 310.042 653.291 310.031 653.283 310.018C652.977 309.611 652.582 309.28 652.129 309.05C652.106 309.038 652.088 309.018 652.08 308.993C652.072 308.968 652.075 308.941 652.087 308.918C652.099 308.895 652.119 308.878 652.144 308.87C652.169 308.862 652.196 308.864 652.219 308.876C652.693 309.124 653.105 309.478 653.421 309.91C653.43 309.919 653.438 309.929 653.443 309.941C653.448 309.953 653.45 309.966 653.45 309.979C653.45 309.992 653.448 310.004 653.443 310.016C653.438 310.028 653.43 310.039 653.421 310.048C653.412 310.054 653.403 310.058 653.392 310.06C653.382 310.062 653.371 310.062 653.361 310.06Z" fill="#2E2E2E"/>
<path d="M610.151 319.265C610.465 319.363 610.757 319.523 611.01 319.733C611.042 319.768 611.064 319.809 611.076 319.855C611.087 319.9 611.087 319.947 611.076 319.992C611.065 320.037 611.042 320.079 611.011 320.114C610.98 320.148 610.94 320.174 610.896 320.19C610.582 320.183 610.273 320.111 609.989 319.98L610.151 319.265Z" fill="#FF8C79"/>
<path d="M610.073 320.67C610.073 320.67 610.782 320.922 610.926 321.145C610.959 321.178 610.983 321.22 610.996 321.266C611.008 321.311 611.008 321.359 610.997 321.405C610.985 321.451 610.962 321.493 610.93 321.527C610.898 321.561 610.857 321.587 610.812 321.601C610.498 321.589 610.19 321.516 609.904 321.385L610.073 320.67Z" fill="#FF8C79"/>
<path d="M610.097 322.004C610.411 322.105 610.703 322.267 610.956 322.479C610.988 322.513 611.01 322.555 611.022 322.6C611.033 322.645 611.033 322.692 611.022 322.738C611.011 322.783 610.988 322.824 610.957 322.859C610.926 322.893 610.886 322.92 610.842 322.935C610.528 322.923 610.22 322.85 609.934 322.719L610.097 322.004Z" fill="#FF8C79"/>
<path d="M610.043 323.212C610.305 323.298 610.548 323.435 610.758 323.614C610.786 323.643 610.805 323.677 610.816 323.715C610.827 323.753 610.827 323.793 610.818 323.831C610.809 323.87 610.791 323.905 610.765 323.934C610.738 323.964 610.705 323.986 610.668 323.999C610.402 323.989 610.141 323.928 609.898 323.819L610.043 323.212Z" fill="#FF8C79"/>
<path d="M586.07 136.298C575.154 117.805 591.917 207.496 617.709 225.814C617.709 225.824 638.534 225.227 586.07 136.298Z" fill="#34726C"/>
<path d="M546.806 293.329C533.066 312.147 613.884 254.493 621.623 221.928C621.618 221.928 612.865 202.852 546.806 293.329Z" fill="#34726C"/>
<path d="M709.785 270.743C731.815 278.329 652.895 218.093 619.511 220.311C619.513 220.313 603.877 234.31 709.785 270.743Z" fill="#34726C"/>
<path d="M643.604 429.793H595.825L600.726 418.772H638.703L643.604 429.793Z" fill="#3C857E"/>
<path d="M629.426 225.831C629.426 227.953 628.797 230.027 627.619 231.792C626.44 233.556 624.765 234.931 622.806 235.743C620.846 236.555 618.69 236.768 616.609 236.354C614.529 235.94 612.618 234.918 611.118 233.418C609.618 231.917 608.597 230.005 608.183 227.924C607.769 225.843 607.981 223.685 608.793 221.725C609.605 219.764 610.98 218.089 612.743 216.91C614.507 215.731 616.58 215.102 618.702 215.102C621.546 215.102 624.274 216.232 626.285 218.244C628.296 220.256 629.426 222.985 629.426 225.831Z" fill="#459991"/>
<path d="M725.14 426.751H699.565L705.321 190.115H719.384L725.14 426.751Z" fill="#3C857E"/>
<path d="M674.013 84.9281C661.183 63.1989 680.878 168.585 711.187 190.122C711.187 190.122 735.659 189.419 674.013 84.9281Z" fill="#34726C"/>
<path d="M627.89 269.447C611.741 291.558 706.706 223.814 715.795 185.547C715.785 185.547 705.488 163.138 627.89 269.447Z" fill="#34726C"/>
<path d="M819.384 242.908C845.265 251.804 752.539 181.036 713.308 183.648C713.308 183.648 694.947 200.084 819.384 242.908Z" fill="#34726C"/>
<path d="M741.617 429.794H685.474L691.232 416.842H735.854L741.617 429.794Z" fill="#3C857E"/>
<path d="M724.95 190.128C724.951 192.622 724.212 195.059 722.828 197.133C721.443 199.206 719.476 200.822 717.173 201.776C714.871 202.731 712.337 202.981 709.893 202.494C707.448 202.008 705.203 200.807 703.44 199.044C701.678 197.281 700.478 195.035 699.992 192.59C699.506 190.144 699.756 187.609 700.71 185.306C701.664 183.002 703.279 181.034 705.351 179.649C707.424 178.264 709.86 177.525 712.353 177.525C715.693 177.527 718.897 178.855 721.259 181.218C723.621 183.581 724.949 186.786 724.95 190.128Z" fill="#459991"/>
<path d="M896.48 340.897C896.48 340.897 901.077 344.265 904.467 347.191C907.857 350.118 918.753 352.532 923.195 351.487C923.195 351.487 926.013 349.287 920.299 346.847C914.584 344.408 904.597 342.305 902.149 341.293C900.677 340.695 899.282 339.924 897.993 338.996C897.993 338.996 896.064 338.672 896.48 340.897Z" fill="#FF8C79"/>
<path d="M891.726 340.885C891.707 340.862 891.695 340.834 891.69 340.805C891.685 340.776 891.689 340.746 891.7 340.718C891.712 340.691 891.731 340.667 891.755 340.649C891.779 340.632 891.807 340.621 891.837 340.619C892.429 340.589 893.023 340.618 893.609 340.703L893.668 340.599V340.567C892.889 340.508 891.337 340.359 891.187 340.132C891.162 340.106 891.145 340.073 891.138 340.037C891.132 340.002 891.135 339.965 891.149 339.931C891.163 339.897 891.186 339.869 891.216 339.848C891.246 339.827 891.281 339.815 891.317 339.814C892.159 339.787 893.002 339.832 893.837 339.95C893.851 339.925 893.858 339.896 893.858 339.866C893.858 339.837 893.851 339.808 893.837 339.782C893.837 339.782 891.103 339.626 890.901 339.314C890.7 339.003 891.038 338.997 891.038 338.997C891.987 338.982 892.936 339.041 893.876 339.172C893.913 339.137 893.938 339.092 893.947 339.042C893.148 338.925 891.739 338.698 891.609 338.471C891.479 338.244 891.765 338.16 891.765 338.16C892.708 338.204 893.645 338.319 894.57 338.503C894.737 338.544 894.911 338.544 895.077 338.503C894.785 338.062 894.103 337.926 893.778 337.465C893.583 337.16 893.85 337.089 893.85 337.089L897.928 339.035C898.538 340.113 897.48 341.365 897.48 341.365C896.254 341.422 895.026 341.398 893.804 341.294H893.694C893.07 341.183 891.85 341.066 891.726 340.885Z" fill="#FF8C79"/>
<path d="M899.571 340.04C898.911 340.662 898.518 341.516 898.473 342.421L899.123 342.882L899.571 340.04Z" fill="#2E2E2E"/>
<path d="M922.533 351.279C922.427 352.077 922.375 352.881 922.377 353.686C922.377 353.686 910.039 351.486 898.824 345.108C898.773 344.756 898.749 344.4 898.752 344.044C898.734 343.752 898.734 343.46 898.752 343.168C898.831 341.675 899.296 340.228 900.103 338.97C900.103 338.97 918.344 343.35 922.098 345.601C922.094 345.612 922.094 345.623 922.098 345.634C921.932 347.131 922.055 348.647 922.461 350.098C922.548 350.485 922.572 350.884 922.533 351.279Z" fill="#D9811A"/>
<path d="M968.392 440.545C968.127 441.036 967.686 441.409 967.157 441.589C966.628 441.768 966.05 441.741 965.541 441.512C965.523 441.485 965.508 441.457 965.495 441.427C965.495 441.395 965.457 441.349 965.424 441.297L965.158 440.778C964.424 439.351 962.775 436.042 960.95 431.954C960.742 431.499 960.534 431.026 960.3 430.546C957.3 423.668 954.079 415.064 953.859 409.418C954.858 408.625 956.059 408.127 957.326 407.978C958.602 407.91 959.864 408.276 960.904 409.016C960.904 409.016 963.885 412.046 965.158 417.873C966.34 423.252 968.028 435.873 968.333 439.779C968.372 440.084 968.392 440.344 968.392 440.545Z" fill="#FF8C79"/>
<path d="M961.138 448.162C963.781 448.312 968.729 444.49 968.82 443.458C968.839 442.918 968.793 442.378 968.684 441.849C968.561 441.142 968.398 440.551 968.398 440.551C968.191 440.46 967.973 440.394 967.749 440.356C967.312 440.269 966.859 440.31 966.444 440.473C966.03 440.637 965.671 440.916 965.411 441.278C965.421 441.323 965.421 441.369 965.411 441.414C965.332 442.001 965.066 442.548 964.651 442.971C963.924 443.912 961.586 445.969 960.82 446.988C960.753 447.07 960.694 447.159 960.645 447.254C960.197 448.162 961.138 448.162 961.138 448.162Z" fill="#FF8C79"/>
<path d="M961.138 448.162C963.781 448.311 968.729 444.49 968.82 443.458C968.839 442.918 968.793 442.378 968.684 441.849C968.684 441.849 967.301 444.769 962.619 446.864C962.216 447.04 960.982 447.643 960.859 447.014C960.791 447.096 960.733 447.185 960.684 447.28C960.197 448.162 961.138 448.162 961.138 448.162Z" fill="#2E2E2E"/>
<path d="M966.801 428.515C966.466 428.978 966.061 429.385 965.599 429.722C964.206 430.732 962.639 431.477 960.976 431.921H960.943C960.735 431.467 960.528 430.993 960.294 430.513L966.801 428.515Z" fill="#2E2E2E"/>
<path d="M958.073 337.12C958.073 337.12 954.021 331.78 949.339 329.334C948.472 328.786 947.469 328.489 946.443 328.477C944.534 328.367 944.495 328.587 944.495 328.587C941.14 329.083 937.906 330.194 934.955 331.864C934.955 331.864 933.312 334.959 934.228 339.995C935.144 345.03 929.208 374.768 929.208 374.768C929.208 374.768 943.254 376.02 952.04 373.152C952.04 373.152 950.287 365.911 951.885 354.198C951.885 354.198 952.995 347.943 954.573 345.153C954.593 345.16 958.703 340.682 958.073 337.12Z" fill="#FF8C79"/>
<path d="M968.833 426.139C968.833 426.139 967.067 431.784 958.08 430.571C958.08 430.571 957.489 429.429 956.515 427.469C953.268 420.981 945.845 405.635 941.391 392.787C940.979 391.597 940.598 390.436 940.248 389.303C939.247 386.263 938.508 383.144 938.04 379.978C938.04 379.978 938.118 374.911 940.884 370.81C941.375 370.073 941.946 369.392 942.586 368.779C944.634 366.882 947.301 365.791 950.092 365.71C951.006 365.657 951.922 365.674 952.833 365.762C952.833 365.762 953.027 366.702 953.365 368.357C954.066 371.744 955.424 378.09 957.171 385.383C959.469 394.857 968.833 426.139 968.833 426.139Z" fill="#404040"/>
<path opacity="0.5" d="M951.826 411.636H951.787C951.756 411.626 951.73 411.604 951.716 411.574C951.701 411.545 951.699 411.511 951.709 411.48C952.638 408.645 951.254 407.308 951.241 407.295C951.23 407.284 951.221 407.27 951.214 407.255C951.208 407.24 951.205 407.224 951.205 407.208C951.205 407.191 951.208 407.175 951.214 407.16C951.221 407.145 951.23 407.131 951.241 407.12C951.252 407.109 951.265 407.1 951.28 407.093C951.294 407.087 951.31 407.084 951.326 407.084C951.342 407.084 951.357 407.087 951.372 407.093C951.386 407.1 951.399 407.109 951.41 407.12C951.475 407.172 952.93 408.56 951.949 411.558C951.94 411.583 951.923 411.603 951.9 411.617C951.878 411.631 951.852 411.638 951.826 411.636Z" fill="#2E2E2E"/>
<path d="M940.865 337.576C940.618 338.977 939.696 340.82 938.15 342.767C938.027 342.929 937.89 343.085 937.754 343.26C937.371 343.708 936.955 344.168 936.514 344.629C932.727 348.407 928.211 351.376 923.24 353.357L922.383 353.7C922.295 353.478 922.219 353.25 922.156 353.019C922.078 352.727 921.981 352.37 921.89 351.903C921.89 351.754 921.825 351.598 921.799 351.436C921.433 349.509 921.543 347.523 922.117 345.648C922.114 345.637 922.114 345.626 922.117 345.615C922.131 345.56 922.149 345.506 922.169 345.453C922.169 345.453 930.377 334.779 934.299 332.242C938.222 329.705 936.994 332.34 939.137 333.047C939.137 333.047 941.618 333.482 940.865 337.576Z" fill="#D9811A"/>
<path d="M939.787 437.145C939.522 437.636 939.081 438.01 938.552 438.19C938.024 438.371 937.446 438.345 936.936 438.118L936.89 438.027C936.89 438.027 936.852 437.956 936.819 437.897L936.553 437.378C936.014 436.327 934.981 434.27 933.741 431.629C933.585 431.279 933.416 430.915 933.234 430.546C929.923 423.337 925.539 412.643 925.28 406.012C926.28 405.222 927.481 404.726 928.747 404.578C930.023 404.504 931.285 404.868 932.325 405.609C932.325 405.609 935.306 408.646 936.579 414.473C937.761 419.846 939.449 432.473 939.754 436.379C939.767 436.684 939.787 436.95 939.787 437.145Z" fill="#FF8C79"/>
<path d="M932.533 444.763C935.176 444.912 940.124 441.09 940.215 440.058C940.233 439.521 940.189 438.983 940.085 438.456C939.955 437.742 939.793 437.158 939.793 437.158C939.583 437.073 939.366 437.008 939.144 436.963C938.705 436.875 938.25 436.916 937.834 437.081C937.418 437.245 937.059 437.527 936.799 437.891C936.811 437.936 936.811 437.983 936.799 438.027C936.721 438.617 936.455 439.165 936.04 439.591C935.312 440.532 932.975 442.582 932.208 443.608C932.143 443.689 932.085 443.776 932.033 443.867C931.591 444.763 932.533 444.763 932.533 444.763Z" fill="#FF8C79"/>
<path d="M932.533 444.763C935.176 444.912 940.124 441.09 940.215 440.059C940.234 439.521 940.188 438.983 940.079 438.456C940.079 438.456 938.696 441.369 934.014 443.465C933.611 443.647 932.377 444.25 932.254 443.621C932.189 443.703 932.13 443.79 932.078 443.881C931.591 444.763 932.533 444.763 932.533 444.763Z" fill="#2E2E2E"/>
<path d="M938.326 428.937C938.069 429.3 937.753 429.618 937.39 429.877C936.305 430.671 935.08 431.255 933.78 431.597H933.734C933.579 431.247 933.41 430.883 933.228 430.513L938.326 428.937Z" fill="#2E2E2E"/>
<path d="M939.572 428.021C938.767 428.695 937.884 429.27 936.942 429.734C934.922 430.825 932.579 431.163 930.332 430.688L929.682 428.858L929.533 428.443C927.189 422.065 922.903 410.923 922.961 405.732C922.961 405.732 926.039 401.969 929.682 402.929C931.03 403.257 932.337 403.734 933.579 404.35C933.852 404.492 934.114 404.652 934.364 404.831C934.939 405.182 935.392 405.7 935.663 406.316L939.572 428.021Z" fill="#404040"/>
<path d="M922.929 405.739C926.305 408.548 930.494 408.036 933.117 407.277C933.364 407.212 933.598 407.134 933.812 407.063C934.44 406.859 935.052 406.61 935.643 406.316C936.799 404.13 937.968 401.606 939.079 398.919C939.955 396.81 940.787 394.591 941.54 392.359C944.248 384.333 945.897 376.137 944.566 371.718C942.403 364.548 928.754 366.073 928.754 366.073C927.65 371.465 922.929 405.739 922.929 405.739Z" fill="#404040"/>
<path opacity="0.5" d="M925.273 407.997C925.244 407.997 925.216 407.985 925.195 407.965C925.184 407.954 925.175 407.941 925.168 407.926C925.162 407.912 925.159 407.896 925.159 407.88C925.159 407.865 925.162 407.849 925.168 407.835C925.175 407.82 925.184 407.807 925.195 407.796C926.591 406.258 926.409 404.922 926.409 404.909C926.407 404.893 926.407 404.878 926.41 404.862C926.414 404.847 926.42 404.833 926.429 404.82C926.438 404.807 926.45 404.797 926.463 404.788C926.477 404.78 926.491 404.775 926.507 404.772C926.539 404.769 926.572 404.777 926.599 404.796C926.625 404.816 926.643 404.844 926.65 404.876C926.65 404.935 926.851 406.336 925.351 407.958C925.33 407.98 925.303 407.994 925.273 407.997Z" fill="#2E2E2E"/>
<path opacity="0.2" d="M939.079 398.925C937.968 401.605 936.799 404.116 935.644 406.322L939.572 428.02C938.767 428.694 937.884 429.269 936.942 429.734C934.922 430.824 932.579 431.162 930.332 430.687L929.682 428.858C931.215 427.878 934.085 427.106 934.364 422.096C934.697 417.125 934.287 412.133 933.15 407.282C933.007 406.634 932.916 406.322 932.916 406.322L933.598 404.376L937.949 384.163L940.248 389.283C940.248 389.283 941.442 392.624 941.391 392.767C940.683 394.876 939.897 396.946 939.079 398.925Z" fill="black"/>
<path d="M943.274 322.365C943.274 322.365 941.449 322.248 941.157 320.613C940.864 318.977 941.657 318.497 941.488 317.368C941.319 316.239 940.838 314.721 941.988 313.851C943.137 312.982 942.994 312.262 943.65 310.821C944.306 309.381 945.215 308.368 946.585 308.608C947.956 308.849 948.449 309.089 949.235 307.96C950.021 306.831 951.04 305.909 952.482 307.252C954.203 308.816 954.748 307.901 955.826 307.966C956.904 308.031 957.709 309.03 958.092 310.192C958.475 311.353 959.157 311.678 960.216 312.047C961.086 312.359 961.742 313.871 961.112 315.123C960.482 316.375 961.157 317.284 961.43 318.296C961.703 319.308 961.32 320.554 960.495 320.937C959.67 321.32 959.846 322.819 959.475 323.87C959.105 324.921 957.787 325.135 956.962 324.979C956.138 324.824 955.774 325.466 955.138 326.589C954.501 327.711 953.761 328.451 952.845 328.003C951.93 327.556 950.722 326.816 949.923 327.484C949.124 328.152 946.826 327.744 946.469 327.166C946.111 326.589 943.274 322.365 943.274 322.365Z" fill="white"/>
<path d="M944.423 329.599L949.339 329.327L948.852 324.882L944.813 325.115L944.735 325.991L944.657 326.9L944.423 329.599Z" fill="#FF8C79"/>
<path d="M944.683 326.584C945.303 326.691 945.941 326.646 946.54 326.453C947.14 326.259 947.683 325.924 948.124 325.475C947.781 325.701 947.413 325.888 947.027 326.033C946.662 326.18 946.271 326.253 945.877 326.246C945.483 326.239 945.095 326.154 944.735 325.994L944.683 326.584Z" fill="#2E2E2E"/>
<path d="M944.339 319.777C942.787 322.029 942.546 324.546 944.287 325.74C946.027 326.934 948.384 325.87 949.93 323.625C951.475 321.38 951.638 318.797 949.93 317.603C948.222 316.41 945.884 317.532 944.339 319.777Z" fill="#FF8C79"/>
<path d="M947.696 316.778C947.696 316.778 948.573 323.027 950.099 323.351C951.625 323.676 952.8 320.185 951.884 318.595C950.969 317.005 947.696 316.778 947.696 316.778Z" fill="white"/>
<path d="M946.163 309.531C946.143 309.529 946.123 309.522 946.107 309.509C946.091 309.496 946.079 309.479 946.072 309.459C946.068 309.435 946.073 309.411 946.087 309.39C946.1 309.37 946.12 309.355 946.144 309.349C948.741 308.765 949.137 305.573 949.137 305.54C949.142 305.517 949.155 305.496 949.175 305.481C949.194 305.467 949.217 305.46 949.241 305.462C949.253 305.464 949.265 305.468 949.275 305.474C949.286 305.48 949.295 305.488 949.302 305.498C949.309 305.507 949.315 305.519 949.318 305.53C949.321 305.542 949.321 305.554 949.319 305.566C949.319 305.566 948.891 308.914 946.183 309.524L946.163 309.531Z" fill="white"/>
<path d="M962.554 317.772C960.839 317.234 960.502 315.177 960.489 315.073C960.487 315.061 960.487 315.049 960.49 315.037C960.493 315.025 960.499 315.014 960.506 315.005C960.513 314.995 960.522 314.987 960.533 314.981C960.543 314.975 960.555 314.971 960.567 314.969C960.579 314.966 960.591 314.966 960.603 314.969C960.615 314.971 960.627 314.976 960.637 314.984C960.647 314.991 960.655 315.001 960.661 315.012C960.667 315.023 960.67 315.035 960.67 315.047C960.67 315.047 961.002 317.091 962.619 317.597C962.631 317.599 962.642 317.603 962.652 317.611C962.662 317.618 962.67 317.627 962.676 317.638C962.681 317.648 962.684 317.66 962.685 317.672C962.685 317.684 962.682 317.696 962.677 317.707C962.676 317.721 962.671 317.734 962.663 317.745C962.655 317.757 962.645 317.766 962.633 317.772C962.62 317.779 962.607 317.782 962.593 317.782C962.579 317.782 962.566 317.779 962.554 317.772Z" fill="white"/>
<path d="M955.638 328.243C955.626 328.244 955.614 328.243 955.603 328.239C955.592 328.235 955.582 328.229 955.574 328.221C955.565 328.213 955.558 328.204 955.554 328.193C955.549 328.182 955.547 328.171 955.547 328.159C955.404 325.635 956.845 324.266 957.222 324.233C957.234 324.232 957.246 324.232 957.258 324.235C957.27 324.238 957.281 324.243 957.29 324.251C957.3 324.258 957.308 324.267 957.314 324.277C957.32 324.288 957.324 324.299 957.326 324.311C957.328 324.336 957.32 324.361 957.304 324.38C957.289 324.399 957.266 324.412 957.242 324.415C957.008 324.415 955.586 325.667 955.722 328.146C955.724 328.158 955.723 328.171 955.72 328.182C955.716 328.194 955.71 328.205 955.702 328.214C955.694 328.224 955.684 328.231 955.673 328.236C955.662 328.241 955.65 328.244 955.638 328.243Z" fill="white"/>
<path d="M950.287 323.462C949.701 323.368 949.156 323.104 948.719 322.702C948.283 322.301 947.974 321.779 947.832 321.204C947.494 319.88 947.444 318.5 947.683 317.155C947.689 317.131 947.704 317.111 947.724 317.098C947.745 317.084 947.769 317.079 947.793 317.083C947.816 317.089 947.836 317.104 947.848 317.125C947.861 317.146 947.864 317.17 947.858 317.194C947.63 318.509 947.681 319.857 948.008 321.152C948.138 321.693 948.426 322.184 948.835 322.563C949.244 322.941 949.756 323.191 950.306 323.28C950.331 323.283 950.354 323.296 950.369 323.315C950.385 323.335 950.393 323.359 950.391 323.384C950.389 323.396 950.385 323.407 950.379 323.418C950.373 323.428 950.365 323.437 950.355 323.445C950.346 323.452 950.334 323.457 950.323 323.46C950.311 323.463 950.299 323.464 950.287 323.462Z" fill="white"/>
<path d="M953.384 368.383C953.514 369.271 953.605 369.804 953.605 369.804C953.605 369.804 952.631 369.972 951.008 370.16C949.384 370.349 946.917 370.608 944.17 370.731C943.111 370.777 942.007 370.809 940.871 370.809C936.594 370.913 932.322 370.459 928.163 369.46C928.163 369.46 929.767 352.693 931.968 346.795C934.169 340.896 933.773 332.61 933.773 332.61C933.773 332.61 936.877 329.93 942.988 328.847L945.319 334.745L950.514 330.034C951.986 331.023 953.392 332.106 954.722 333.278C956.071 334.47 957.338 335.752 958.514 337.113C955.872 341.102 953.994 345.547 952.975 350.221C952.634 351.895 952.432 353.594 952.371 355.301C952.216 359.804 952.982 365.683 953.378 368.357C953.382 368.365 953.385 368.373 953.384 368.383Z" fill="#F7931E"/>
<path opacity="0.2" d="M968.833 426.141C968.833 426.141 967.067 431.786 958.079 430.573C958.079 430.573 957.488 429.431 956.514 427.471C958.8 427.406 961.644 426.673 962.69 423.656C963.586 421.06 958.579 403.761 954.67 386.903C953.313 381.064 952.073 375.308 951.008 370.163C950.689 368.618 950.358 367.132 950.105 365.711C948.384 357.179 947.313 351.222 947.313 351.222L952.975 350.223C952.634 351.897 952.432 353.596 952.371 355.303C952.215 359.807 952.982 365.685 953.378 368.359C954.079 371.746 955.436 378.092 957.183 385.385C959.469 394.859 968.833 426.141 968.833 426.141Z" fill="black"/>
<path d="M924.013 334.616C924.013 334.616 926.351 339.807 927.858 344.032C929.364 348.256 937.644 355.711 942.027 357.009C942.027 357.009 945.566 356.483 941.793 351.546C938.02 346.608 930.39 339.833 928.754 337.763C927.768 336.517 926.936 335.158 926.273 333.714C926.273 333.714 924.786 332.462 924.013 334.616Z" fill="#FF8C79"/>
<path d="M927.124 335.349C926.246 335.578 925.492 336.138 925.02 336.912L925.383 337.503L927.124 335.349Z" fill="#2E2E2E"/>
<path d="M939.949 354.303C939.963 355.705 940.182 357.098 940.598 358.437C952.138 354.251 958.632 346.848 959.482 342.786C960.294 338.893 958.67 337.257 958.521 337.121C956.391 336.362 954.391 337.27 950.398 339.717C946.404 342.163 940.637 350.189 940.637 350.189C940.146 351.504 939.912 352.901 939.949 354.303Z" fill="#F79F39"/>
<path d="M942.306 354.498C942.253 354.817 942.184 355.133 942.098 355.445C941.813 356.464 941.241 357.204 940.618 358.436C940.306 358.19 930.513 350.364 923.987 339.444C924.143 339.059 924.327 338.685 924.539 338.328C924.643 338.14 924.767 337.945 924.903 337.737C925.709 336.478 926.828 335.447 928.15 334.746C928.15 334.746 938.806 344.667 941.605 348.853C941.728 349.047 941.845 349.216 941.936 349.385C942.394 351.048 942.52 352.786 942.306 354.498Z" fill="#F79F39"/>
<path opacity="0.1" d="M959.508 342.786C958.657 346.854 952.164 354.251 940.618 358.437C940.306 358.19 930.513 350.365 923.987 339.444C924.143 339.059 924.327 338.686 924.539 338.328C929.124 343.201 936.228 352.324 939.949 354.401C940.313 354.626 940.72 354.772 941.144 354.829C941.551 354.808 941.949 354.695 942.306 354.498C945.306 353.142 951.956 347.899 954.339 345.024C956.807 342.053 957.781 339.068 958.547 337.121C958.696 337.257 960.326 338.899 959.508 342.786Z" fill="#020544"/>
<path d="M921.591 329.432C921.708 329.204 921.877 329.399 921.877 329.399C922.192 329.901 922.46 330.431 922.676 330.982H922.792H922.825C922.487 330.275 921.851 328.854 921.974 328.614C921.985 328.578 922.006 328.547 922.035 328.523C922.063 328.499 922.098 328.484 922.135 328.479C922.172 328.474 922.209 328.48 922.243 328.496C922.277 328.512 922.305 328.537 922.325 328.569C922.759 329.289 923.133 330.044 923.442 330.827C923.472 330.828 923.502 330.821 923.529 330.806C923.555 330.791 923.577 330.769 923.591 330.742C923.591 330.742 922.383 328.29 922.552 327.972C922.564 327.938 922.585 327.908 922.613 327.885C922.641 327.863 922.675 327.848 922.71 327.843C922.746 327.839 922.782 327.844 922.815 327.859C922.848 327.873 922.876 327.897 922.896 327.926C923.376 328.746 923.792 329.6 924.143 330.483C924.192 330.499 924.244 330.499 924.293 330.483C923.994 329.73 923.5 328.393 923.643 328.166C923.658 328.133 923.682 328.105 923.713 328.085C923.743 328.065 923.779 328.054 923.815 328.054C923.852 328.054 923.887 328.065 923.918 328.085C923.948 328.105 923.973 328.133 923.987 328.166C924.416 329.002 924.779 329.87 925.072 330.762C925.124 330.923 925.213 331.069 925.332 331.19C925.572 330.723 925.364 330.061 925.617 329.581C925.793 329.263 925.981 329.457 925.981 329.457L926.299 333.961C925.65 335.018 924.046 334.713 924.046 334.713C923.392 333.672 922.809 332.588 922.299 331.469C922.297 331.434 922.297 331.4 922.299 331.365C921.987 330.749 921.487 329.626 921.591 329.432Z" fill="#FF8C79"/>
<path d="M941.391 392.787L937.28 382.555C937.28 382.555 937.455 389.692 938.442 391.866C939.429 394.04 940.637 394.805 940.39 395.623L941.391 392.787Z" fill="#2E2E2E"/>
<path d="M945.443 324.507C945.027 324.498 944.617 324.41 944.235 324.247C944.212 324.238 944.194 324.221 944.185 324.199C944.175 324.177 944.174 324.153 944.183 324.13C944.193 324.108 944.211 324.089 944.234 324.08C944.257 324.07 944.283 324.07 944.306 324.078C945.962 324.727 946.715 323.832 946.741 323.793C946.75 323.784 946.76 323.777 946.771 323.773C946.782 323.768 946.794 323.766 946.806 323.766C946.818 323.766 946.83 323.768 946.841 323.773C946.853 323.777 946.863 323.784 946.871 323.793C946.88 323.801 946.887 323.811 946.891 323.823C946.896 323.834 946.898 323.846 946.898 323.858C946.898 323.87 946.896 323.882 946.891 323.893C946.887 323.904 946.88 323.914 946.871 323.923C946.689 324.116 946.467 324.269 946.22 324.369C945.974 324.47 945.709 324.517 945.443 324.507Z" fill="#2E2E2E"/>
<path d="M944.702 322.943C944.573 322.9 944.457 322.825 944.365 322.725C944.273 322.625 944.208 322.504 944.176 322.372C944.173 322.351 944.176 322.33 944.185 322.311C944.195 322.293 944.21 322.277 944.228 322.268C944.616 322.064 944.941 321.759 945.17 321.385C945.185 321.37 945.205 321.36 945.227 321.357C945.249 321.354 945.271 321.359 945.289 321.37C945.308 321.382 945.323 321.399 945.33 321.419C945.338 321.44 945.339 321.462 945.332 321.483C945.093 321.863 944.766 322.179 944.378 322.404C944.409 322.489 944.459 322.566 944.525 322.629C944.59 322.692 944.668 322.739 944.754 322.768C944.767 322.77 944.778 322.776 944.788 322.784C944.798 322.791 944.806 322.801 944.812 322.812C944.819 322.823 944.822 322.835 944.823 322.847C944.825 322.86 944.823 322.872 944.819 322.884C944.811 322.907 944.794 322.925 944.772 322.936C944.75 322.947 944.726 322.949 944.702 322.943Z" fill="#2E2E2E"/>
<path d="M945.267 320.412C945.252 320.41 945.237 320.406 945.224 320.398C945.21 320.39 945.199 320.379 945.189 320.367C944.92 319.966 944.559 319.635 944.137 319.4C944.122 319.382 944.113 319.359 944.113 319.335C944.113 319.311 944.122 319.288 944.137 319.27C944.15 319.25 944.169 319.235 944.192 319.229C944.216 319.223 944.24 319.226 944.261 319.238C944.71 319.49 945.095 319.843 945.384 320.269C945.393 320.277 945.399 320.287 945.404 320.297C945.409 320.308 945.411 320.319 945.411 320.331C945.411 320.343 945.409 320.354 945.404 320.365C945.399 320.375 945.393 320.385 945.384 320.393C945.379 320.403 945.372 320.413 945.363 320.42C945.353 320.427 945.343 320.431 945.331 320.433C945.319 320.435 945.308 320.434 945.297 320.431C945.285 320.427 945.275 320.421 945.267 320.412Z" fill="#2E2E2E"/>
</g>
</svg>
