<svg width="319" height="242" viewBox="0 0 319 242" fill="none" xmlns="http://www.w3.org/2000/svg">
<path d="M86.224 23.56H83.212V31H82.132V23.56H79.108V22.6H86.224V23.56ZM88.9719 24.88C89.8039 24.88 90.4519 25.128 90.9159 25.624C91.3879 26.12 91.6239 26.816 91.6239 27.712V28.36H87.0279C87.0759 29.008 87.2679 29.488 87.6039 29.8C87.9399 30.104 88.4039 30.256 88.9959 30.256C89.5719 30.256 90.0439 30.156 90.4119 29.956C90.7799 29.756 91.0439 29.512 91.2039 29.224V30.388C91.0519 30.572 90.7919 30.74 90.4239 30.892C90.0639 31.044 89.5879 31.12 88.9959 31.12C88.0439 31.12 87.3079 30.86 86.7879 30.34C86.2679 29.82 86.0079 29.032 86.0079 27.976C86.0079 27.456 86.0839 27.004 86.2359 26.62C86.3879 26.228 86.5959 25.904 86.8599 25.648C87.1239 25.392 87.4359 25.2 87.7959 25.072C88.1559 24.944 88.5479 24.88 88.9719 24.88ZM88.9719 25.744C88.4039 25.744 87.9559 25.892 87.6279 26.188C87.2999 26.484 87.1039 26.924 87.0399 27.508H90.6279V27.496C90.6279 26.92 90.4719 26.484 90.1599 26.188C89.8479 25.892 89.4519 25.744 88.9719 25.744ZM97.153 25.888H94.081V31H93.085V25H98.149V31H97.153V25.888ZM103.981 25.888H101.653L101.641 26.344C101.617 27.088 101.573 27.724 101.509 28.252C101.445 28.772 101.365 29.208 101.269 29.56C101.173 29.912 101.065 30.188 100.945 30.388C100.825 30.588 100.697 30.74 100.561 30.844C100.425 30.94 100.285 31 100.141 31.024C99.9974 31.056 99.8534 31.072 99.7094 31.072C99.5254 31.072 99.3654 31.052 99.2294 31.012V29.944C99.3334 29.968 99.4334 29.98 99.5294 29.98C99.6334 29.98 99.7294 29.972 99.8174 29.956C99.9134 29.932 100.001 29.876 100.081 29.788C100.169 29.7 100.245 29.572 100.309 29.404C100.381 29.228 100.445 28.988 100.501 28.684C100.557 28.372 100.601 27.984 100.633 27.52C100.673 27.056 100.705 26.492 100.729 25.828L100.753 25H104.977V31H103.981V25.888ZM106.445 27.976C106.445 27.456 106.521 27.004 106.673 26.62C106.825 26.228 107.033 25.904 107.297 25.648C107.561 25.392 107.873 25.2 108.233 25.072C108.593 24.944 108.985 24.88 109.409 24.88C110.353 24.888 111.085 25.152 111.605 25.672C112.125 26.192 112.385 26.976 112.385 28.024C112.385 28.544 112.309 29 112.157 29.392C112.005 29.776 111.797 30.096 111.533 30.352C111.269 30.608 110.957 30.8 110.597 30.928C110.237 31.056 109.845 31.12 109.421 31.12C108.469 31.112 107.733 30.852 107.213 30.34C106.701 29.82 106.445 29.032 106.445 27.976ZM107.453 28.012C107.453 28.788 107.621 29.356 107.957 29.716C108.293 30.076 108.781 30.256 109.421 30.256C110.053 30.256 110.537 30.072 110.873 29.704C111.209 29.328 111.377 28.768 111.377 28.024V27.988C111.377 27.22 111.205 26.656 110.861 26.296C110.525 25.936 110.041 25.752 109.409 25.744C108.777 25.744 108.293 25.932 107.957 26.308C107.621 26.676 107.453 27.232 107.453 27.976V28.012Z" fill="#404040"/>
<path d="M87.316 94H86.14L85.204 91.756H81.088L80.188 94H79.06L82.528 85.6H83.812L87.316 94ZM84.808 90.796L83.128 86.716L81.484 90.796H84.808ZM89.3899 88.888H87.3859V88H92.3779V88.888H90.3859V94H89.3899V88.888ZM93.1798 90.976C93.1798 90.456 93.2558 90.004 93.4078 89.62C93.5598 89.228 93.7678 88.904 94.0318 88.648C94.2958 88.392 94.6078 88.2 94.9678 88.072C95.3278 87.944 95.7198 87.88 96.1438 87.88C97.0878 87.888 97.8198 88.152 98.3398 88.672C98.8598 89.192 99.1198 89.976 99.1198 91.024C99.1198 91.544 99.0438 92 98.8918 92.392C98.7398 92.776 98.5318 93.096 98.2678 93.352C98.0038 93.608 97.6918 93.8 97.3318 93.928C96.9718 94.056 96.5798 94.12 96.1558 94.12C95.2038 94.112 94.4678 93.852 93.9478 93.34C93.4358 92.82 93.1798 92.032 93.1798 90.976ZM94.1878 91.012C94.1878 91.788 94.3558 92.356 94.6918 92.716C95.0278 93.076 95.5158 93.256 96.1558 93.256C96.7878 93.256 97.2718 93.072 97.6078 92.704C97.9438 92.328 98.1118 91.768 98.1118 91.024V90.988C98.1118 90.22 97.9398 89.656 97.5958 89.296C97.2598 88.936 96.7758 88.752 96.1438 88.744C95.5118 88.744 95.0278 88.932 94.6918 89.308C94.3558 89.676 94.1878 90.232 94.1878 90.976V91.012ZM106.117 89.464L104.077 92.464H103.633L101.581 89.464V94H100.585V88H101.665L103.897 91.18L106.093 88H107.113V94H106.117V89.464Z" fill="#404040"/>
<path d="M85.792 148.56H81.28V156H80.2V147.6H85.792V148.56ZM86.0186 156V150H87.0146V154.464L90.3986 150H91.2746V156H90.2786V151.5L87.0146 155.856L86.9066 156H86.0186ZM93.1305 155.052C93.2345 154.828 93.3265 154.58 93.4065 154.308C93.4865 154.036 93.5545 153.728 93.6105 153.384C93.6745 153.032 93.7225 152.636 93.7545 152.196C93.7865 151.756 93.8025 151.252 93.8025 150.684V150H98.0265V155.052H98.9985V157.56H98.0505V156H93.3585V157.56H92.4105V155.052H93.1305ZM94.7385 151.38C94.7225 152.148 94.6665 152.824 94.5705 153.408C94.4825 153.992 94.3305 154.54 94.1145 155.052H97.0305V150.888H94.7505L94.7385 151.38ZM100.362 150H101.31V151.152C101.462 150.8 101.718 150.5 102.078 150.252C102.438 150.004 102.922 149.88 103.53 149.88C104.33 149.88 104.966 150.116 105.438 150.588C105.91 151.06 106.146 151.82 106.146 152.868C106.146 153.46 106.082 153.964 105.954 154.38C105.834 154.788 105.654 155.124 105.414 155.388C105.182 155.644 104.898 155.832 104.562 155.952C104.226 156.072 103.842 156.132 103.41 156.132C102.906 156.132 102.478 156.028 102.126 155.82C101.782 155.604 101.526 155.356 101.358 155.076V158.16H100.362V150ZM101.358 153.252C101.358 153.876 101.53 154.364 101.874 154.716C102.226 155.06 102.686 155.232 103.254 155.232C103.91 155.232 104.386 155.056 104.682 154.704C104.986 154.352 105.138 153.76 105.138 152.928C105.138 152.528 105.094 152.192 105.006 151.92C104.918 151.64 104.79 151.416 104.622 151.248C104.462 151.08 104.266 150.96 104.034 150.888C103.802 150.816 103.546 150.78 103.266 150.78C102.642 150.78 102.17 150.948 101.85 151.284C101.538 151.612 101.374 152.076 101.358 152.676V153.252ZM107.125 152.976C107.125 152.456 107.201 152.004 107.353 151.62C107.505 151.228 107.713 150.904 107.977 150.648C108.241 150.392 108.553 150.2 108.913 150.072C109.273 149.944 109.665 149.88 110.089 149.88C111.033 149.888 111.765 150.152 112.285 150.672C112.805 151.192 113.065 151.976 113.065 153.024C113.065 153.544 112.989 154 112.837 154.392C112.685 154.776 112.477 155.096 112.213 155.352C111.949 155.608 111.637 155.8 111.277 155.928C110.917 156.056 110.525 156.12 110.101 156.12C109.149 156.112 108.413 155.852 107.893 155.34C107.381 154.82 107.125 154.032 107.125 152.976ZM108.133 153.012C108.133 153.788 108.301 154.356 108.637 154.716C108.973 155.076 109.461 155.256 110.101 155.256C110.733 155.256 111.217 155.072 111.553 154.704C111.889 154.328 112.057 153.768 112.057 153.024V152.988C112.057 152.22 111.885 151.656 111.541 151.296C111.205 150.936 110.721 150.752 110.089 150.744C109.457 150.744 108.973 150.932 108.637 151.308C108.301 151.676 108.133 152.232 108.133 152.976V153.012Z" fill="#404040"/>
<path d="M300.324 24.64C300.084 24.304 299.764 24.028 299.364 23.812C298.964 23.596 298.52 23.5 298.032 23.524C297.32 23.556 296.756 23.832 296.34 24.352C295.924 24.864 295.712 25.644 295.704 26.692C295.704 26.828 295.708 26.96 295.716 27.088C295.724 27.216 295.736 27.34 295.752 27.46C295.88 26.932 296.156 26.5 296.58 26.164C297.012 25.828 297.552 25.66 298.2 25.66C298.608 25.66 298.976 25.728 299.304 25.864C299.64 25.992 299.92 26.172 300.144 26.404C300.376 26.636 300.552 26.908 300.672 27.22C300.8 27.532 300.864 27.872 300.864 28.24C300.864 28.712 300.784 29.128 300.624 29.488C300.464 29.84 300.248 30.136 299.976 30.376C299.712 30.616 299.4 30.796 299.04 30.916C298.688 31.036 298.32 31.096 297.936 31.096C297.44 31.096 296.992 31.008 296.592 30.832C296.2 30.648 295.864 30.384 295.584 30.04C295.312 29.688 295.1 29.256 294.948 28.744C294.804 28.232 294.732 27.648 294.732 26.992C294.732 26.216 294.812 25.548 294.972 24.988C295.132 24.428 295.356 23.968 295.644 23.608C295.932 23.24 296.276 22.968 296.676 22.792C297.084 22.616 297.528 22.52 298.008 22.504C298.304 22.496 298.572 22.52 298.812 22.576C299.06 22.632 299.28 22.704 299.472 22.792C299.672 22.872 299.84 22.964 299.976 23.068C300.12 23.172 300.236 23.272 300.324 23.368V24.64ZM297.972 26.584C297.364 26.584 296.876 26.76 296.508 27.112C296.14 27.456 295.936 27.916 295.896 28.492C296.04 28.972 296.276 29.36 296.604 29.656C296.932 29.944 297.372 30.088 297.924 30.088C298.5 30.088 298.96 29.928 299.304 29.608C299.656 29.28 299.832 28.84 299.832 28.288C299.832 27.76 299.668 27.344 299.34 27.04C299.012 26.736 298.556 26.584 297.972 26.584ZM302.209 23.368C302.417 23.152 302.733 22.952 303.157 22.768C303.589 22.584 304.121 22.492 304.753 22.492C305.577 22.508 306.205 22.704 306.637 23.08C307.069 23.456 307.285 23.96 307.285 24.592C307.285 25.112 307.157 25.548 306.901 25.9C306.645 26.244 306.277 26.492 305.797 26.644C306.373 26.732 306.821 26.948 307.141 27.292C307.469 27.636 307.633 28.096 307.633 28.672C307.633 29.016 307.569 29.336 307.441 29.632C307.321 29.92 307.137 30.172 306.889 30.388C306.641 30.604 306.329 30.776 305.953 30.904C305.577 31.024 305.141 31.088 304.645 31.096C304.333 31.096 304.041 31.068 303.769 31.012C303.505 30.964 303.269 30.9 303.061 30.82C302.853 30.732 302.673 30.636 302.521 30.532C302.369 30.428 302.245 30.328 302.149 30.232V28.96C302.405 29.296 302.749 29.568 303.181 29.776C303.613 29.984 304.093 30.084 304.621 30.076C305.277 30.068 305.773 29.932 306.109 29.668C306.453 29.396 306.625 29.04 306.625 28.6C306.625 28.136 306.465 27.78 306.145 27.532C305.833 27.276 305.325 27.148 304.621 27.148H303.613V26.332H304.369C304.993 26.332 305.465 26.208 305.785 25.96C306.113 25.704 306.277 25.344 306.277 24.88C306.277 24.424 306.125 24.084 305.821 23.86C305.525 23.628 305.105 23.512 304.561 23.512C304.041 23.52 303.585 23.616 303.193 23.8C302.809 23.984 302.481 24.244 302.209 24.58V23.368ZM308.996 24.436C308.996 23.812 309.184 23.332 309.56 22.996C309.936 22.652 310.46 22.48 311.132 22.48C311.716 22.48 312.188 22.644 312.548 22.972C312.908 23.3 313.088 23.788 313.088 24.436C313.088 25.068 312.896 25.556 312.512 25.9C312.128 26.244 311.612 26.416 310.964 26.416C310.38 26.416 309.904 26.244 309.536 25.9C309.176 25.556 308.996 25.068 308.996 24.436ZM309.86 24.436C309.86 24.78 309.964 25.052 310.172 25.252C310.388 25.452 310.688 25.552 311.072 25.552C311.44 25.552 311.724 25.46 311.924 25.276C312.124 25.092 312.224 24.812 312.224 24.436C312.224 24.084 312.128 23.816 311.936 23.632C311.752 23.44 311.456 23.344 311.048 23.344C310.64 23.344 310.34 23.44 310.148 23.632C309.956 23.816 309.86 24.084 309.86 24.436ZM313.916 29.14C313.916 28.828 313.968 28.552 314.072 28.312C314.184 28.072 314.328 27.868 314.504 27.7C314.688 27.532 314.9 27.404 315.14 27.316C315.38 27.228 315.632 27.184 315.896 27.184C316.56 27.184 317.076 27.356 317.444 27.7C317.82 28.036 318.008 28.516 318.008 29.14C318.008 29.772 317.82 30.26 317.444 30.604C317.076 30.948 316.596 31.12 316.004 31.12C315.316 31.12 314.796 30.936 314.444 30.568C314.092 30.2 313.916 29.724 313.916 29.14ZM314.78 29.14C314.78 29.484 314.884 29.756 315.092 29.956C315.308 30.156 315.608 30.256 315.992 30.256C316.36 30.256 316.644 30.164 316.844 29.98C317.044 29.796 317.144 29.516 317.144 29.14C317.144 28.788 317.048 28.52 316.856 28.336C316.672 28.144 316.376 28.048 315.968 28.048C315.56 28.048 315.26 28.144 315.068 28.336C314.876 28.52 314.78 28.788 314.78 29.14ZM311.036 31H309.956L316.04 22.6H317.084L311.036 31Z" fill="#404040"/>
<path d="M298.604 86.812L296.72 88V86.908L298.88 85.516H299.6V94H298.604V86.812ZM301.909 91.96C302.157 92.296 302.477 92.572 302.869 92.788C303.269 93.004 303.717 93.1 304.213 93.076C304.917 93.044 305.477 92.768 305.893 92.248C306.317 91.728 306.533 90.944 306.541 89.896C306.541 89.76 306.533 89.632 306.517 89.512C306.509 89.384 306.497 89.26 306.481 89.14C306.361 89.668 306.085 90.1 305.653 90.436C305.221 90.772 304.681 90.94 304.033 90.94C303.625 90.94 303.257 90.876 302.929 90.748C302.601 90.612 302.321 90.428 302.089 90.196C301.865 89.964 301.689 89.692 301.561 89.38C301.441 89.068 301.381 88.728 301.381 88.36C301.381 87.896 301.461 87.488 301.621 87.136C301.781 86.776 301.993 86.476 302.257 86.236C302.529 85.996 302.841 85.816 303.193 85.696C303.545 85.568 303.917 85.504 304.309 85.504C304.805 85.504 305.249 85.596 305.641 85.78C306.033 85.956 306.365 86.22 306.637 86.572C306.917 86.916 307.129 87.344 307.273 87.856C307.425 88.368 307.501 88.952 307.501 89.608C307.501 90.384 307.421 91.052 307.261 91.612C307.101 92.172 306.877 92.636 306.589 93.004C306.301 93.364 305.953 93.632 305.545 93.808C305.145 93.984 304.705 94.08 304.225 94.096C303.937 94.104 303.669 94.08 303.421 94.024C303.173 93.968 302.953 93.9 302.761 93.82C302.569 93.732 302.401 93.636 302.257 93.532C302.113 93.428 301.997 93.328 301.909 93.232V91.96ZM304.261 90.016C304.861 90.016 305.345 89.844 305.713 89.5C306.089 89.156 306.297 88.7 306.337 88.132C306.201 87.644 305.969 87.252 305.641 86.956C305.313 86.66 304.873 86.512 304.321 86.512C303.745 86.512 303.281 86.676 302.929 87.004C302.585 87.324 302.413 87.76 302.413 88.312C302.413 88.84 302.577 89.256 302.905 89.56C303.233 89.864 303.685 90.016 304.261 90.016ZM309.086 87.436C309.086 86.812 309.274 86.332 309.65 85.996C310.026 85.652 310.55 85.48 311.222 85.48C311.806 85.48 312.278 85.644 312.638 85.972C312.998 86.3 313.178 86.788 313.178 87.436C313.178 88.068 312.986 88.556 312.602 88.9C312.218 89.244 311.702 89.416 311.054 89.416C310.47 89.416 309.994 89.244 309.626 88.9C309.266 88.556 309.086 88.068 309.086 87.436ZM309.95 87.436C309.95 87.78 310.054 88.052 310.262 88.252C310.478 88.452 310.778 88.552 311.162 88.552C311.53 88.552 311.814 88.46 312.014 88.276C312.214 88.092 312.314 87.812 312.314 87.436C312.314 87.084 312.218 86.816 312.026 86.632C311.842 86.44 311.546 86.344 311.138 86.344C310.73 86.344 310.43 86.44 310.238 86.632C310.046 86.816 309.95 87.084 309.95 87.436ZM314.006 92.14C314.006 91.828 314.058 91.552 314.162 91.312C314.274 91.072 314.418 90.868 314.594 90.7C314.778 90.532 314.99 90.404 315.23 90.316C315.47 90.228 315.722 90.184 315.986 90.184C316.65 90.184 317.166 90.356 317.534 90.7C317.91 91.036 318.098 91.516 318.098 92.14C318.098 92.772 317.91 93.26 317.534 93.604C317.166 93.948 316.686 94.12 316.094 94.12C315.406 94.12 314.886 93.936 314.534 93.568C314.182 93.2 314.006 92.724 314.006 92.14ZM314.87 92.14C314.87 92.484 314.974 92.756 315.182 92.956C315.398 93.156 315.698 93.256 316.082 93.256C316.45 93.256 316.734 93.164 316.934 92.98C317.134 92.796 317.234 92.516 317.234 92.14C317.234 91.788 317.138 91.52 316.946 91.336C316.762 91.144 316.466 91.048 316.058 91.048C315.65 91.048 315.35 91.144 315.158 91.336C314.966 91.52 314.87 91.788 314.87 92.14ZM311.126 94H310.046L316.13 85.6H317.174L311.126 94Z" fill="#404040"/>
<path d="M299.604 148.812L297.72 150V148.908L299.88 147.516H300.6V156H299.604V148.812ZM301.72 147.6H307.24V148.296L304.132 156H303.004L306.028 148.68H301.72V147.6ZM308.528 149.436C308.528 148.812 308.716 148.332 309.092 147.996C309.468 147.652 309.992 147.48 310.664 147.48C311.248 147.48 311.72 147.644 312.08 147.972C312.44 148.3 312.62 148.788 312.62 149.436C312.62 150.068 312.428 150.556 312.044 150.9C311.66 151.244 311.144 151.416 310.496 151.416C309.912 151.416 309.436 151.244 309.068 150.9C308.708 150.556 308.528 150.068 308.528 149.436ZM309.392 149.436C309.392 149.78 309.496 150.052 309.704 150.252C309.92 150.452 310.22 150.552 310.604 150.552C310.972 150.552 311.256 150.46 311.456 150.276C311.656 150.092 311.756 149.812 311.756 149.436C311.756 149.084 311.66 148.816 311.468 148.632C311.284 148.44 310.988 148.344 310.58 148.344C310.172 148.344 309.872 148.44 309.68 148.632C309.488 148.816 309.392 149.084 309.392 149.436ZM313.448 154.14C313.448 153.828 313.5 153.552 313.604 153.312C313.716 153.072 313.86 152.868 314.036 152.7C314.22 152.532 314.432 152.404 314.672 152.316C314.912 152.228 315.164 152.184 315.428 152.184C316.092 152.184 316.608 152.356 316.976 152.7C317.352 153.036 317.54 153.516 317.54 154.14C317.54 154.772 317.352 155.26 316.976 155.604C316.608 155.948 316.128 156.12 315.536 156.12C314.848 156.12 314.328 155.936 313.976 155.568C313.624 155.2 313.448 154.724 313.448 154.14ZM314.312 154.14C314.312 154.484 314.416 154.756 314.624 154.956C314.84 155.156 315.14 155.256 315.524 155.256C315.892 155.256 316.176 155.164 316.376 154.98C316.576 154.796 316.676 154.516 316.676 154.14C316.676 153.788 316.58 153.52 316.388 153.336C316.204 153.144 315.908 153.048 315.5 153.048C315.092 153.048 314.792 153.144 314.6 153.336C314.408 153.52 314.312 153.788 314.312 154.14ZM310.568 156H309.488L315.572 147.6H316.616L310.568 156Z" fill="#404040"/>
<rect x="143" y="15" width="141" height="25" fill="#BDBDBD"/>
<rect x="143" y="78" width="56" height="25" fill="#BDBDBD"/>
<rect x="143" y="140" width="47" height="25" fill="#BDBDBD"/>
<rect width="1" height="180" transform="matrix(-1 0 0 1 144 0)" fill="#E0E0E0"/>
<path fill-rule="evenodd" clip-rule="evenodd" d="M52.9999 49H43.3028V47.5949H51.3881V44.8112C50.915 43.3088 50.3047 41.8533 49.565 40.4634C47.5568 36.2746 44.9146 30.8927 44.9146 28.0825V21.1365H31.9938V28.0825C31.4239 30.9915 30.6108 33.8472 29.563 36.6192L27.9512 36.2746C28.9467 33.6027 29.7589 30.8656 30.3821 28.0825V19.7314H46.5264V28.0825C46.5264 30.5216 49.1686 36.0359 50.9654 39.9331C51.9074 41.4352 52.5949 43.0836 52.9999 44.8112V49Z" fill="#BDBDBD"/>
<path d="M46.0241 27.3667H31.1217V28.9574H46.0241V27.3667Z" fill="#BDBDBD"/>
<path fill-rule="evenodd" clip-rule="evenodd" d="M22.244 35.9565H20.5529V30.8928H12.3354V35.9565H10.8293V29.5938H22.244V35.9565Z" fill="#BDBDBD"/>
<path fill-rule="evenodd" clip-rule="evenodd" d="M28.8231 49H1V37.8652H41.9024V43.4326H40.2378V39.2969H2.66463V47.7275H28.8231V49Z" fill="#BDBDBD"/>
<path d="M15.5852 23.8672H13.9999V30.2299H15.5852V23.8672Z" fill="#BDBDBD"/>
<path d="M18.7561 26.7305H17.4878V30.2299H18.7561V26.7305Z" fill="#BDBDBD"/>
<path fill-rule="evenodd" clip-rule="evenodd" d="M2.66463 36.5927H1V12.7324H9.11178V27.1016L12.0975 29.8323L10.935 30.8397L7.47356 27.6848V14.164H2.66463V36.5927Z" fill="#BDBDBD"/>
<path fill-rule="evenodd" clip-rule="evenodd" d="M7.34122 38.0245H24.7274V36.5929H7.34122V38.0245ZM26.2599 39.4561H5.75586V35.3203H26.3656L26.2599 39.4561Z" fill="#BDBDBD"/>
<path d="M15.5852 32.1387H13.9999V33.7294H15.5852V32.1387Z" fill="#BDBDBD"/>
<path d="M18.7561 32.1387H17.4878V33.7294H18.7561V32.1387Z" fill="#BDBDBD"/>
<path d="M5.75617 22.5947H4.17078V23.8673H5.75617V22.5947Z" fill="#BDBDBD"/>
<path d="M5.75617 25.1396H4.17078V26.7304H5.75617V25.1396Z" fill="#BDBDBD"/>
<path d="M5.75617 28.0029H4.17078V29.5936H5.75617V28.0029Z" fill="#BDBDBD"/>
<path d="M8.29264 15.5957H1.95117V16.8683H8.29264V15.5957Z" fill="#BDBDBD"/>
<path d="M8.29264 18.1406H1.95117V19.7313H8.29264V18.1406Z" fill="#BDBDBD"/>
<path d="M46.0241 22.5947H31.1217V23.8673H46.0241V22.5947Z" fill="#BDBDBD"/>
<path d="M52.3658 44.8643H43.4878V46.4549H52.3658V44.8643Z" fill="#BDBDBD"/>
<path d="M9.24397 44.8643H4.17078V46.4549H9.24397V44.8643Z" fill="#BDBDBD"/>
<path d="M15.5854 44.8643H10.8293V46.4549H15.5854V44.8643Z" fill="#BDBDBD"/>
<path d="M22.2439 44.8643H17.4878V46.4549H22.2439V44.8643Z" fill="#BDBDBD"/>
<path d="M28.5852 44.8643H23.8291V46.4549H28.5852V44.8643Z" fill="#BDBDBD"/>
<path fill-rule="evenodd" clip-rule="evenodd" d="M22.0852 11.1417C21.4729 11.1273 20.8735 10.9627 20.3392 10.6623C19.8049 10.362 19.3521 9.93491 19.0202 9.4185C18.7996 9.12752 18.5214 8.88545 18.2031 8.70752C17.8848 8.52958 17.5333 8.41963 17.1706 8.38456C16.457 8.51433 15.8065 8.87797 15.321 9.4185C14.9998 9.94499 14.5494 10.3799 14.0127 10.6817C13.476 10.9835 12.8711 11.1419 12.2559 11.1419C11.6407 11.1419 11.0358 10.9835 10.4992 10.6817C9.9625 10.3799 9.51203 9.94499 9.19089 9.4185C8.97031 9.12752 8.69213 8.88545 8.37383 8.70752C8.05553 8.52958 7.704 8.41963 7.34131 8.38456V7.00595C7.93682 7.00177 8.5249 7.13889 9.05756 7.40612C9.59022 7.67334 10.0524 8.0631 10.4064 8.54362C10.5601 8.90835 10.8175 9.21955 11.1464 9.43834C11.4754 9.65714 11.8613 9.77382 12.2559 9.77382C12.6506 9.77382 13.0365 9.65714 13.3655 9.43834C13.6944 9.21955 13.9518 8.90835 14.1055 8.54362C14.4624 8.06619 14.9252 7.67869 15.4572 7.4118C15.9892 7.14491 16.5758 7.00595 17.1706 7.00595C17.7654 7.00595 18.352 7.14491 18.884 7.4118C19.416 7.67869 19.8787 8.06619 20.2356 8.54362C20.3893 8.90835 20.6467 9.21955 20.9757 9.43834C21.3046 9.65714 21.6905 9.77382 22.0852 9.77382C22.4799 9.77382 22.8658 9.65714 23.1947 9.43834C23.5237 9.21955 23.7811 8.90835 23.9348 8.54362C24.2888 8.0631 24.7509 7.67334 25.2836 7.40612C25.8162 7.13889 26.4043 7.00177 26.9998 7.00595V8.38456C26.2863 8.51433 25.6357 8.87797 25.1502 9.4185C24.8183 9.93491 24.3654 10.362 23.8312 10.6623C23.2969 10.9627 22.6975 11.1273 22.0852 11.1417Z" fill="#BDBDBD"/>
<path fill-rule="evenodd" clip-rule="evenodd" d="M5.75609 9.86914H4.17072C4.18751 9.47089 4.28334 9.08002 4.4526 8.7194C4.62186 8.35879 4.86114 8.0357 5.15643 7.76904C5.45173 7.50239 5.79709 7.29755 6.17229 7.16652C6.54748 7.03548 6.94497 6.98087 7.34145 7.00592V8.43753C7.14281 8.42315 6.94332 8.44916 6.75493 8.51398C6.56654 8.57881 6.39314 8.68112 6.2451 8.81479C6.09707 8.94847 5.97744 9.11076 5.89341 9.29193C5.80938 9.4731 5.76268 9.66942 5.75609 9.86914Z" fill="#BDBDBD"/>
<path d="M5.75617 9.86914H4.17078V11.1417H5.75617V9.86914Z" fill="#BDBDBD"/>
<path fill-rule="evenodd" clip-rule="evenodd" d="M48.2439 18.0347C47.6478 18.0123 47.0662 17.8434 46.5503 17.543C46.0343 17.2426 45.5997 16.8197 45.2845 16.3115C45.0699 16.0266 44.8001 15.7882 44.4913 15.6105C44.1826 15.4328 43.8412 15.3195 43.4878 15.2775V13.8989C44.0714 13.8988 44.6467 14.0382 45.166 14.3056C45.6852 14.573 46.1334 14.9607 46.4736 15.4366C46.6134 15.7933 46.8571 16.0995 47.1729 16.3153C47.4886 16.5311 47.8618 16.6465 48.2439 16.6465C48.6259 16.6465 48.9991 16.5311 49.3149 16.3153C49.6306 16.0995 49.8743 15.7933 50.0142 15.4366C50.3573 14.9638 50.8062 14.5784 51.3248 14.3113C51.8433 14.0442 52.4171 13.903 53 13.8989V15.3836C52.2073 15.3836 51.4146 16.2584 51.2297 16.4175C50.8951 16.905 50.45 17.3058 49.9309 17.587C49.4118 17.8681 48.8336 18.0216 48.2439 18.0347Z" fill="#BDBDBD"/>
<path fill-rule="evenodd" clip-rule="evenodd" d="M41.6909 16.8684H39.947C39.9866 16.4498 40.1086 16.0433 40.3057 15.6723C40.5029 15.3013 40.7714 14.9732 41.0957 14.7069C41.4201 14.4407 41.7938 14.2416 42.1953 14.1211C42.5968 14.0007 43.0181 13.9613 43.4348 14.0052V15.3838C43.2223 15.362 43.0076 15.3834 42.8036 15.4469C42.5996 15.5104 42.4105 15.6146 42.2476 15.7533C42.0847 15.892 41.9514 16.0622 41.8558 16.2538C41.7601 16.4455 41.7041 16.6545 41.6909 16.8684Z" fill="#BDBDBD"/>
<path d="M41.9024 16.8682H40V18.1407H41.9024V16.8682Z" fill="#BDBDBD"/>
<path d="M43.4877 14.0049H38.7316V15.5956H43.4877V14.0049Z" fill="#BDBDBD"/>
<path fill-rule="evenodd" clip-rule="evenodd" d="M36.9877 16.8684H35.2438C35.2834 16.4498 35.4053 16.0433 35.6025 15.6723C35.7997 15.3013 36.0682 14.9732 36.3925 14.7069C36.7168 14.4407 37.0905 14.2416 37.492 14.1211C37.8935 14.0007 38.3148 13.9613 38.7316 14.0052V15.3838C38.5191 15.362 38.3044 15.3834 38.1004 15.4469C37.8964 15.5104 37.7072 15.6146 37.5444 15.7533C37.3815 15.892 37.2482 16.0622 37.1525 16.2538C37.0569 16.4455 37.0008 16.6545 36.9877 16.8684Z" fill="#BDBDBD"/>
<path d="M36.8291 16.8682H35.2438V18.1407H36.8291V16.8682Z" fill="#BDBDBD"/>
<path fill-rule="evenodd" clip-rule="evenodd" d="M32.1524 47.7275H40.0792V46.2959H32.1524V47.7275ZM41.9024 49H30.4878V44.8643H41.9024V49Z" fill="#BDBDBD"/>
<path fill-rule="evenodd" clip-rule="evenodd" d="M8.50343 109.566H32.3715V106.82C32.0368 105.061 31.5985 103.325 31.059 101.618C29.1031 95.854 27.7668 89.898 27.0729 83.8508V76.6806H13.802V83.8508C13.0963 89.896 11.7603 95.8508 9.81593 101.618C9.27641 103.325 8.83814 105.061 8.50343 106.82V109.566ZM33.052 111H7.82288C7.64445 110.977 7.4802 110.891 7.35983 110.757C7.23947 110.623 7.17093 110.451 7.16663 110.271V106.82C7.16663 106.285 7.67704 104.656 8.50343 101.254C10.3988 95.5986 11.7259 89.7689 12.4652 83.8508V75.9758C12.4703 75.7922 12.5423 75.6167 12.6676 75.4825C12.7929 75.3482 12.963 75.2643 13.1458 75.2466H27.7291C27.9119 75.2643 28.082 75.3482 28.2073 75.4825C28.3327 75.6167 28.4046 75.7922 28.4097 75.9758V83.8508C29.149 89.7689 30.4762 95.5986 32.3715 101.254C33.1979 104.656 33.7083 106.285 33.7083 106.82V110.392C33.6781 110.551 33.5982 110.695 33.4801 110.804C33.362 110.914 33.212 110.982 33.052 111Z" fill="#BDBDBD"/>
<path fill-rule="evenodd" clip-rule="evenodd" d="M40.1249 110.417H38.8124V107.524C38.8124 106.965 37.8401 103.879 37.1596 100.986C35.5407 96.2384 34.3371 91.3589 33.5624 86.4029V79.1112H29.6249V77.6528H34.2186C34.3991 77.671 34.5664 77.7557 34.6877 77.8906C34.8091 78.0254 34.8758 78.2006 34.8749 78.382V86.3542C35.6655 91.1581 36.8193 95.895 38.3263 100.524C39.1094 102.774 39.7109 105.082 40.1249 107.427V110.417Z" fill="#BDBDBD"/>
<path fill-rule="evenodd" clip-rule="evenodd" d="M46.8334 110.417H45.5209V107.524C44.9685 105.002 44.254 102.518 43.382 100.087C41.9887 96.6272 40.9465 93.0362 40.2709 89.3682V82.0765H36.3334V80.6182H40.9028C41.0812 80.6413 41.2455 80.7276 41.3659 80.8613C41.4862 80.995 41.5548 81.1675 41.5591 81.3473V89.3196C41.5591 90.4133 43.3577 95.6633 44.5243 99.6737C45.5121 102.203 46.2766 104.813 46.8091 107.476L46.8334 110.417Z" fill="#BDBDBD"/>
<path d="M48 109.542H6V111H48V109.542Z" fill="#BDBDBD"/>
<path d="M21.1667 80.6665H19.7084V82.1249H21.1667V80.6665Z" fill="#BDBDBD"/>
<path d="M23.7917 80.6665H22.3334V82.1249H23.7917V80.6665Z" fill="#BDBDBD"/>
<path d="M18.5418 80.6665H17.0835V82.1249H18.5418V80.6665Z" fill="#BDBDBD"/>
<path fill-rule="evenodd" clip-rule="evenodd" d="M34.1458 73.6666C33.6048 73.5869 33.0946 73.3649 32.6675 73.0232C32.2405 72.6816 31.9118 72.2326 31.7153 71.7222C31.5451 71.3333 30.8889 70.5555 30.2326 70.5555C29.5764 70.5555 28.9201 71.5278 28.75 71.7222C28.75 72.3668 28.4939 72.985 28.0381 73.4409C27.5823 73.8967 26.9641 74.1527 26.3194 74.1527C25.6748 74.1527 25.0566 73.8967 24.6008 73.4409C24.145 72.985 23.8889 72.3668 23.8889 71.7222C23.7188 71.3333 23.0625 70.5555 22.4062 70.5555V69C22.9302 69.0497 23.4316 69.238 23.8587 69.5456C24.2859 69.8531 24.6234 70.2688 24.8368 70.75C25.0069 71.1389 25.6632 72.1111 26.3194 72.1111C26.9757 72.1111 27.6319 71.1389 27.8021 70.75C27.9896 70.2573 28.3225 69.8332 28.7566 69.534C29.1907 69.2348 29.7054 69.0745 30.2326 69.0745C30.7599 69.0745 31.2746 69.2348 31.7087 69.534C32.1428 69.8332 32.4756 70.2573 32.6632 70.75C32.8333 71.1389 33.4896 72.1111 34.1458 72.1111C34.8021 72.1111 35.4583 71.1389 35.6285 70.75C35.8418 70.2688 36.1794 69.8531 36.6066 69.5456C37.0337 69.238 37.535 69.0497 38.059 69V70.5555C37.4028 70.5555 36.7465 71.5278 36.5764 71.7222C36.3798 72.2326 36.0512 72.6816 35.6241 73.0232C35.1971 73.3649 34.6869 73.5869 34.1458 73.6666Z" fill="#BDBDBD"/>
<path fill-rule="evenodd" clip-rule="evenodd" d="M21.0208 72.2083H19.7083C19.668 71.8249 19.7041 71.4374 19.8146 71.0681C19.925 70.6988 20.1075 70.355 20.3516 70.0567C20.5957 69.7583 20.8965 69.5113 21.2367 69.33C21.5768 69.1486 21.9495 69.0364 22.3333 69V70.6042C22.1414 70.6224 21.955 70.6784 21.785 70.7691C21.6149 70.8598 21.4645 70.9833 21.3424 71.1325C21.2204 71.2816 21.1291 71.4535 21.0739 71.6382C21.0187 71.8229 21.0006 72.0166 21.0208 72.2083Z" fill="#BDBDBD"/>
<path d="M21.1667 72.2085H19.7084V73.6668H21.1667V72.2085Z" fill="#BDBDBD"/>
<path d="M27.5834 77.75H13.2917V79.2084H27.5834V77.75Z" fill="#BDBDBD"/>
<path d="M34.2915 80.6665H29.6249V82.1249H34.2915V80.6665Z" fill="#BDBDBD"/>
<path d="M40.7084 83.5835H36.3334V85.0418H40.7084V83.5835Z" fill="#BDBDBD"/>
<path d="M32.8334 106.917H8.04175V108.083H32.8334V106.917Z" fill="#BDBDBD"/>
<path d="M39.5417 106.917H34.875V108.083H39.5417V106.917Z" fill="#BDBDBD"/>
<path fill-rule="evenodd" clip-rule="evenodd" d="M19.028 95.2501C19.0561 94.9987 19.1563 94.7607 19.3165 94.5649C19.4767 94.369 19.6901 94.2237 19.931 94.1463C20.1719 94.069 20.4301 94.0629 20.6743 94.1288C20.9186 94.1948 21.1386 94.3299 21.3079 94.518C21.4772 94.706 21.5885 94.939 21.6284 95.1889C21.6683 95.4387 21.6352 95.6948 21.5329 95.9262C21.4307 96.1577 21.2638 96.3547 21.0522 96.4934C20.8406 96.6322 20.5935 96.7069 20.3405 96.7084C20.1584 96.6991 19.98 96.654 19.8155 96.5756C19.651 96.4972 19.5035 96.3871 19.3816 96.2516C19.2597 96.1162 19.1657 95.958 19.105 95.7861C19.0443 95.6143 19.0181 95.4321 19.028 95.2501Z" fill="#BDBDBD"/>
<path fill-rule="evenodd" clip-rule="evenodd" d="M15.1633 95.2502H13.8751C13.8398 94.2035 14.0399 93.1622 14.4606 92.2031C14.8812 91.244 15.5117 90.3915 16.3056 89.7085L17.1077 90.7779C16.4695 91.3303 15.9636 92.0189 15.627 92.793C15.2905 93.567 15.132 94.4067 15.1633 95.2502Z" fill="#BDBDBD"/>
<path fill-rule="evenodd" clip-rule="evenodd" d="M20.4376 102.25C18.7905 102.208 17.2024 101.628 15.9167 100.597L16.9133 99.625C17.893 100.47 19.1438 100.935 20.4376 100.935C21.7314 100.935 22.9822 100.47 23.9619 99.625L24.9584 100.597C23.6727 101.628 22.0847 102.208 20.4376 102.25Z" fill="#BDBDBD"/>
<path fill-rule="evenodd" clip-rule="evenodd" d="M27 95.2502H25.7118C25.7582 94.4162 25.6186 93.5824 25.3034 92.809C24.9881 92.0356 24.505 91.3418 23.8889 90.7779L24.691 89.7085C25.4628 90.4031 26.0704 91.2607 26.4698 92.2192C26.8691 93.1777 27.0503 94.213 27 95.2502Z" fill="#BDBDBD"/>
<path fill-rule="evenodd" clip-rule="evenodd" d="M17.8369 95.25H16.5973C16.5459 94.5708 16.6738 93.89 16.9681 93.2758C17.2624 92.6616 17.7129 92.1354 18.2744 91.75L18.9307 92.8437C18.5854 93.1421 18.3089 93.5116 18.1201 93.927C17.9313 94.3424 17.8347 94.7937 17.8369 95.25Z" fill="#BDBDBD"/>
<path fill-rule="evenodd" clip-rule="evenodd" d="M20.4376 99.5275C19.5488 99.4909 18.6959 99.1668 18.0071 98.6039L18.7119 97.4858C19.2302 97.8543 19.8504 98.0522 20.4862 98.0522C21.1221 98.0522 21.7423 97.8543 22.2606 97.4858L22.9654 98.6039C22.2505 99.1869 21.36 99.5122 20.4376 99.5275Z" fill="#BDBDBD"/>
<path fill-rule="evenodd" clip-rule="evenodd" d="M24.375 95.2499H23.0382C23.0562 94.797 22.9765 94.3455 22.8045 93.9261C22.6326 93.5068 22.3724 93.1293 22.0417 92.8194L22.6979 91.7256C23.2385 92.1365 23.6728 92.6709 23.9646 93.284C24.2563 93.8972 24.3971 94.5712 24.375 95.2499Z" fill="#BDBDBD"/>
<path d="M11.6497 160.532C13.1003 154.588 16.5162 137.348 22.1317 160.532" stroke="#BDBDBD" stroke-width="1.38921"/>
<path d="M32.2394 160.532C33.69 154.588 37.1059 137.348 42.7214 160.532" stroke="#BDBDBD" stroke-width="1.38921"/>
<path d="M8.86902 149.682H22.4423M24.4193 149.682H22.4423M22.4423 149.682V144.012H11.1706V147.773" stroke="#BDBDBD" stroke-width="1.38921"/>
<path d="M44.6907 149.682H31.1174M29.1404 149.682H31.1174M31.1174 149.682V144.012H42.3891V147.773" stroke="#BDBDBD" stroke-width="1.38921"/>
<path d="M1.07385 157.364V136.21H5.37894V162.489" stroke="#BDBDBD" stroke-width="1.38921"/>
<path d="M53.298 157.364V136.21H48.9929V162.489" stroke="#BDBDBD" stroke-width="1.38921"/>
<path d="M7.81238 139.286H46.5121" stroke="#BDBDBD" stroke-width="1.38921"/>
<path fill-rule="evenodd" clip-rule="evenodd" d="M23.6653 167.63C22.9875 167.605 22.3315 167.477 21.7594 167.259C21.1873 167.04 20.718 166.738 20.3959 166.381C20.1797 166.176 19.8902 166.003 19.5484 165.873C19.2066 165.744 18.8209 165.661 18.4191 165.631C17.5447 165.631 16.6703 166.245 16.4423 166.381C16.1508 166.752 15.6886 167.066 15.1096 167.285C14.5306 167.505 13.8588 167.622 13.1729 167.622C12.4869 167.622 11.8151 167.505 11.2361 167.285C10.6572 167.066 10.1949 166.752 9.90346 166.381C9.68725 166.176 9.39781 166.003 9.05597 165.873C8.71413 165.744 8.32842 165.661 7.92664 165.631V164.632C8.58638 164.632 9.23473 164.735 9.80795 164.93C10.3812 165.125 10.8596 165.406 11.196 165.745C11.4241 165.995 12.2985 166.631 13.1729 166.631C14.0472 166.631 14.9216 165.995 15.1497 165.745C15.4863 165.406 15.9647 165.125 16.538 164.93C17.1112 164.735 17.7595 164.632 18.4191 164.632C19.0787 164.632 19.727 164.735 20.3002 164.93C20.8734 165.125 21.3519 165.406 21.6885 165.745C21.9166 165.995 22.791 166.631 23.6653 166.631C24.5397 166.631 25.4141 165.995 25.6422 165.745C25.9786 165.406 26.457 165.125 27.0302 164.93C27.6035 164.735 28.2518 164.632 28.9116 164.632V165.631C28.0372 165.631 27.1628 166.245 26.9347 166.381C26.6126 166.738 26.1433 167.04 25.5712 167.259C24.9991 167.477 24.3431 167.605 23.6653 167.63Z" fill="#BDBDBD"/>
<path fill-rule="evenodd" clip-rule="evenodd" d="M44.6503 167.63C43.9725 167.605 43.3165 167.477 42.7444 167.259C42.1723 167.04 41.703 166.738 41.3809 166.381C41.1647 166.176 40.8752 166.003 40.5334 165.873C40.1916 165.744 39.8059 165.661 39.4041 165.631C38.5297 165.631 37.6553 166.245 37.4272 166.381C37.1358 166.752 36.6735 167.066 36.0946 167.285C35.5156 167.505 34.8438 167.622 34.1578 167.622C33.4719 167.622 32.8001 167.505 32.2211 167.285C31.6421 167.066 31.1799 166.752 30.8884 166.381C30.6722 166.176 30.3828 166.003 30.041 165.873C29.6991 165.744 29.3134 165.661 28.9116 165.631V164.632C29.5714 164.632 30.2197 164.735 30.7929 164.93C31.3662 165.125 31.8445 165.406 32.181 165.745C32.4091 165.995 33.2835 166.631 34.1578 166.631C35.0322 166.631 35.9066 165.995 36.1347 165.745C36.4713 165.406 36.9497 165.125 37.5229 164.93C38.0962 164.735 38.7445 164.632 39.4041 164.632C40.0637 164.632 40.712 164.735 41.2852 164.93C41.8584 165.125 42.3368 165.406 42.6735 165.745C42.9016 165.995 43.7759 166.631 44.6503 166.631C45.5247 166.631 46.399 165.995 46.6271 165.745C46.9636 165.406 47.442 165.125 48.0152 164.93C48.5884 164.735 49.2368 164.632 49.8965 164.632V165.631C49.0222 165.631 48.1478 166.245 47.9197 166.381C47.5976 166.738 47.1283 167.04 46.5562 167.259C45.9841 167.477 45.3281 167.605 44.6503 167.63Z" fill="#BDBDBD"/>
<path fill-rule="evenodd" clip-rule="evenodd" d="M15.7387 163.093C15.0609 163.068 14.4049 162.94 13.8328 162.721C13.2607 162.503 12.7914 162.2 12.4693 161.843C12.2531 161.639 11.9636 161.465 11.6218 161.336C11.2799 161.206 10.8943 161.123 10.4925 161.094C9.6181 161.094 8.74371 161.707 8.51561 161.843C8.22418 162.214 7.76192 162.528 7.18294 162.748C6.60395 162.968 5.93218 163.084 5.24622 163.084C4.56026 163.084 3.88849 162.968 3.30951 162.748C2.73052 162.528 2.26826 162.214 1.97683 161.843C1.76061 161.639 1.47117 161.465 1.12933 161.336C0.78749 161.206 0.401779 161.123 0 161.094V160.094C0.659744 160.094 1.30809 160.197 1.88132 160.392C2.45455 160.587 2.93292 160.868 3.26939 161.207C3.49749 161.457 4.37185 162.093 5.24622 162.093C6.12059 162.093 6.99498 161.457 7.22308 161.207C7.55969 160.868 8.03811 160.588 8.61133 160.392C9.18455 160.197 9.83284 160.095 10.4925 160.095C11.1521 160.095 11.8004 160.197 12.3736 160.392C12.9468 160.588 13.4252 160.868 13.7618 161.207C13.9899 161.457 14.8643 162.093 15.7387 162.093C16.6131 162.093 17.4874 161.457 17.7155 161.207C18.052 160.868 18.5304 160.587 19.1036 160.392C19.6768 160.197 20.3252 160.094 20.9849 160.094V161.094C20.1105 161.094 19.2362 161.707 19.0081 161.843C18.686 162.2 18.2167 162.503 17.6446 162.721C17.0725 162.94 16.4165 163.068 15.7387 163.093Z" fill="#BDBDBD"/>
<path fill-rule="evenodd" clip-rule="evenodd" d="M36.7236 163.093C36.0457 163.068 35.3898 162.94 34.8177 162.721C34.2456 162.503 33.7763 162.2 33.4542 161.843C33.2379 161.639 32.9485 161.465 32.6066 161.336C32.2648 161.206 31.8791 161.123 31.4773 161.094C30.603 161.094 29.7286 161.707 29.5005 161.843C29.209 162.214 28.7468 162.528 28.1678 162.748C27.5888 162.968 26.917 163.084 26.2311 163.084C25.5451 163.084 24.8734 162.968 24.2944 162.748C23.7154 162.528 23.2531 162.214 22.9617 161.843C22.7455 161.639 22.456 161.465 22.1142 161.336C21.7724 161.206 21.3866 161.123 20.9849 161.094V160.094C21.6446 160.094 22.293 160.197 22.8662 160.392C23.4394 160.587 23.9178 160.868 24.2543 161.207C24.4824 161.457 25.3567 162.093 26.2311 162.093C27.1055 162.093 27.9798 161.457 28.2079 161.207C28.5446 160.868 29.023 160.588 29.5962 160.392C30.1694 160.197 30.8177 160.095 31.4773 160.095C32.137 160.095 32.7852 160.197 33.3584 160.392C33.9317 160.588 34.4101 160.868 34.7467 161.207C34.9748 161.457 35.8492 162.093 36.7236 162.093C37.5979 162.093 38.4723 161.457 38.7004 161.207C39.0369 160.868 39.5152 160.587 40.0885 160.392C40.6617 160.197 41.31 160.094 41.9698 160.094V161.094C41.0954 161.094 40.221 161.707 39.993 161.843C39.6709 162.2 39.2015 162.503 38.6294 162.721C38.0573 162.94 37.4014 163.068 36.7236 163.093Z" fill="#BDBDBD"/>
<path fill-rule="evenodd" clip-rule="evenodd" d="M47.2159 163.093C46.5381 163.068 45.8821 162.94 45.31 162.721C44.7379 162.503 44.2686 162.2 43.9465 161.843C43.7303 161.639 43.4408 161.465 43.099 161.336C42.7572 161.206 42.3715 161.123 41.9697 161.094C41.0953 161.094 40.2209 161.707 39.9928 161.843C39.7014 162.214 39.2392 162.528 38.6602 162.748C38.0812 162.968 37.4094 163.084 36.7235 163.084C36.0375 163.084 35.3657 162.968 34.7867 162.748C34.2078 162.528 33.7455 162.214 33.4541 161.843C33.2378 161.639 32.9484 161.465 32.6066 161.336C32.2647 161.206 31.879 161.123 31.4772 161.094V160.094C32.137 160.094 32.7853 160.197 33.3586 160.392C33.9318 160.587 34.4102 160.868 34.7466 161.207C34.9747 161.457 35.8491 162.093 36.7235 162.093C37.5978 162.093 38.4722 161.457 38.7003 161.207C39.0369 160.868 39.5153 160.588 40.0886 160.392C40.6618 160.197 41.3101 160.095 41.9697 160.095C42.6293 160.095 43.2776 160.197 43.8508 160.392C44.424 160.588 44.9025 160.868 45.2391 161.207C45.4672 161.457 46.3416 162.093 47.2159 162.093C48.0903 162.093 48.9647 161.457 49.1928 161.207C49.5292 160.868 50.0076 160.587 50.5808 160.392C51.1541 160.197 51.8024 160.094 52.4621 160.094V161.094C51.5878 161.094 50.7134 161.707 50.4853 161.843C50.1632 162.2 49.6939 162.503 49.1218 162.721C48.5497 162.94 47.8937 163.068 47.2159 163.093Z" fill="#BDBDBD"/>
<path d="M80.2 218V209.6H83.68C84.096 209.6 84.468 209.64 84.796 209.72C85.124 209.8 85.404 209.924 85.636 210.092C85.868 210.252 86.044 210.46 86.164 210.716C86.292 210.972 86.356 211.28 86.356 211.64C86.356 212.672 85.908 213.332 85.012 213.62C85.572 213.692 85.976 213.896 86.224 214.232C86.48 214.56 86.608 215 86.608 215.552C86.608 215.984 86.532 216.356 86.38 216.668C86.228 216.98 86.012 217.236 85.732 217.436C85.452 217.628 85.104 217.772 84.688 217.868C84.28 217.956 83.82 218 83.308 218H80.2ZM83.464 217.04C84.128 217.04 84.636 216.924 84.988 216.692C85.34 216.46 85.516 216.084 85.516 215.564C85.516 215.292 85.464 215.068 85.36 214.892C85.264 214.716 85.124 214.576 84.94 214.472C84.764 214.36 84.552 214.284 84.304 214.244C84.064 214.196 83.796 214.172 83.5 214.172H81.28V217.04H83.464ZM83.404 213.308C83.66 213.308 83.9 213.276 84.124 213.212C84.356 213.148 84.556 213.056 84.724 212.936C84.892 212.808 85.024 212.656 85.12 212.48C85.224 212.296 85.276 212.084 85.276 211.844C85.276 211.412 85.128 211.092 84.832 210.884C84.544 210.668 84.08 210.56 83.44 210.56H81.28V213.308H83.404ZM89.6706 216.464L94.9626 209.6H96.0906V218H95.0106V211.088L89.7186 218H88.5906V209.6H89.6706V216.464ZM98.025 210.332C98.129 210.236 98.273 210.14 98.457 210.044C98.641 209.948 98.857 209.86 99.105 209.78C99.353 209.692 99.633 209.62 99.945 209.564C100.257 209.508 100.593 209.48 100.953 209.48C101.633 209.48 102.245 209.58 102.789 209.78C103.333 209.98 103.793 210.268 104.169 210.644C104.553 211.02 104.845 211.476 105.045 212.012C105.253 212.54 105.357 213.14 105.357 213.812C105.357 214.436 105.257 215.012 105.057 215.54C104.857 216.06 104.565 216.512 104.181 216.896C103.805 217.28 103.345 217.58 102.801 217.796C102.257 218.012 101.645 218.12 100.965 218.12C100.589 218.12 100.237 218.084 99.909 218.012C99.589 217.948 99.297 217.864 99.033 217.76C98.769 217.656 98.541 217.54 98.349 217.412C98.157 217.284 98.009 217.156 97.905 217.028V215.468C98.025 215.692 98.181 215.908 98.373 216.116C98.565 216.316 98.793 216.496 99.057 216.656C99.321 216.808 99.617 216.932 99.945 217.028C100.273 217.116 100.633 217.16 101.025 217.16C101.489 217.152 101.909 217.076 102.285 216.932C102.669 216.788 102.997 216.588 103.269 216.332C103.541 216.068 103.757 215.756 103.917 215.396C104.085 215.028 104.185 214.616 104.217 214.16H99.657V213.2H104.193C104.137 212.8 104.025 212.432 103.857 212.096C103.697 211.76 103.481 211.472 103.209 211.232C102.937 210.984 102.613 210.792 102.237 210.656C101.861 210.512 101.433 210.44 100.953 210.44C100.617 210.44 100.297 210.488 99.993 210.584C99.697 210.672 99.421 210.792 99.165 210.944C98.917 211.088 98.693 211.256 98.493 211.448C98.301 211.632 98.145 211.824 98.025 212.024V210.332Z" fill="#404040"/>
<path d="M305.604 210.812L303.72 212V210.908L305.88 209.516H306.6V218H305.604V210.812ZM308.879 211.436C308.879 210.812 309.067 210.332 309.443 209.996C309.819 209.652 310.343 209.48 311.015 209.48C311.599 209.48 312.071 209.644 312.431 209.972C312.791 210.3 312.971 210.788 312.971 211.436C312.971 212.068 312.779 212.556 312.395 212.9C312.011 213.244 311.495 213.416 310.847 213.416C310.263 213.416 309.787 213.244 309.419 212.9C309.059 212.556 308.879 212.068 308.879 211.436ZM309.743 211.436C309.743 211.78 309.847 212.052 310.055 212.252C310.271 212.452 310.571 212.552 310.955 212.552C311.323 212.552 311.607 212.46 311.807 212.276C312.007 212.092 312.107 211.812 312.107 211.436C312.107 211.084 312.011 210.816 311.819 210.632C311.635 210.44 311.339 210.344 310.931 210.344C310.523 210.344 310.223 210.44 310.031 210.632C309.839 210.816 309.743 211.084 309.743 211.436ZM313.799 216.14C313.799 215.828 313.851 215.552 313.955 215.312C314.067 215.072 314.211 214.868 314.387 214.7C314.571 214.532 314.783 214.404 315.023 214.316C315.263 214.228 315.515 214.184 315.779 214.184C316.443 214.184 316.959 214.356 317.327 214.7C317.703 215.036 317.891 215.516 317.891 216.14C317.891 216.772 317.703 217.26 317.327 217.604C316.959 217.948 316.479 218.12 315.887 218.12C315.199 218.12 314.679 217.936 314.327 217.568C313.975 217.2 313.799 216.724 313.799 216.14ZM314.663 216.14C314.663 216.484 314.767 216.756 314.975 216.956C315.191 217.156 315.491 217.256 315.875 217.256C316.243 217.256 316.527 217.164 316.727 216.98C316.927 216.796 317.027 216.516 317.027 216.14C317.027 215.788 316.931 215.52 316.739 215.336C316.555 215.144 316.259 215.048 315.851 215.048C315.443 215.048 315.143 215.144 314.951 215.336C314.759 215.52 314.663 215.788 314.663 216.14ZM310.919 218H309.839L315.923 209.6H316.967L310.919 218Z" fill="#404040"/>
<rect x="143" y="202" width="9" height="25" fill="#4AA29A"/>
<rect width="1" height="64" transform="matrix(-1 0 0 1 144 178)" fill="#E0E0E0"/>
<path fill-rule="evenodd" clip-rule="evenodd" d="M31.0152 234.35L28.4648 216.625L29.6857 216.49L32.3717 234.215L31.0152 234.35Z" fill="#F3B36A"/>
<path fill-rule="evenodd" clip-rule="evenodd" d="M23.31 234.35L21.9534 234.215L24.5038 216.49L25.8604 216.625L23.31 234.35Z" fill="#F3B36A"/>
<path d="M48 233.701H6V235H48V233.701Z" fill="#F3B36A"/>
<path fill-rule="evenodd" clip-rule="evenodd" d="M26.9999 211.294C26.8231 211.287 26.6466 211.315 26.4807 211.377C26.3149 211.438 26.1631 211.533 26.0342 211.654C25.9054 211.775 25.802 211.92 25.7302 212.081C25.6584 212.243 25.6197 212.417 25.6162 212.593C25.6072 212.773 25.6376 212.953 25.7051 213.12C25.7727 213.287 25.8758 213.438 26.0074 213.561C26.1389 213.685 26.2958 213.778 26.4672 213.836C26.6386 213.893 26.8203 213.912 26.9999 213.892C27.1768 213.899 27.3533 213.871 27.5191 213.81C27.6849 213.748 27.8367 213.654 27.9656 213.533C28.0945 213.412 28.1978 213.266 28.2696 213.105C28.3414 212.944 28.3802 212.77 28.3836 212.593C28.3454 212.248 28.1851 211.928 27.9315 211.69C27.678 211.452 27.3477 211.311 26.9999 211.294ZM26.9999 215.191C26.2803 215.191 25.5902 214.906 25.0814 214.398C24.5726 213.891 24.2867 213.203 24.2867 212.485C24.2867 211.767 24.5726 211.079 25.0814 210.571C25.5902 210.064 26.2803 209.779 26.9999 209.779C27.7195 209.779 28.4096 210.064 28.9184 210.571C29.4272 211.079 29.7131 211.767 29.7131 212.485C29.7131 213.203 29.4272 213.891 28.9184 214.398C28.4096 214.906 27.7195 215.191 26.9999 215.191Z" fill="#F3B36A"/>
<path fill-rule="evenodd" clip-rule="evenodd" d="M28.465 209.021L27.7596 194.408H26.403L25.6976 209.021L24.3138 208.859L24.9921 193.758C24.9883 193.658 25.0054 193.557 25.0422 193.464C25.079 193.37 25.1349 193.285 25.2062 193.214C25.2775 193.143 25.3628 193.087 25.4567 193.05C25.5506 193.014 25.651 192.997 25.7518 193.001H28.465C28.6383 193.007 28.8033 193.076 28.9284 193.196C29.0536 193.316 29.1301 193.478 29.1433 193.65L29.8487 208.75L28.465 209.021Z" fill="#F3B36A"/>
<path fill-rule="evenodd" clip-rule="evenodd" d="M44.7441 222.335H44.4185L30.8526 216.571L31.341 215.462L44.527 220.874L45.1782 220.062L31.6123 211.944L32.2635 210.834L46.589 219.169C46.7518 219.169 46.7518 219.331 46.9146 219.467C47.0774 219.602 46.9146 219.954 46.7518 220.116L45.4495 222.037C45.3856 222.162 45.2799 222.26 45.151 222.314C45.022 222.368 44.878 222.376 44.7441 222.335Z" fill="#F3B36A"/>
<path fill-rule="evenodd" clip-rule="evenodd" d="M9.28288 222.335C8.95729 222.335 8.7945 222.335 8.60458 222.173L7.30225 220.251V219.602C7.31443 219.523 7.35335 219.45 7.41256 219.396C7.47176 219.342 7.5477 219.309 7.62783 219.304L22.1162 210.969L22.7674 212.079L8.7945 220.197L9.44566 221.009L22.7674 215.597L23.2557 216.706L9.4728 222.335H9.28288Z" fill="#F3B36A"/>
<path d="M27.8137 231.103H26.5114V232.077H27.8137V231.103Z" fill="#F3B36A"/>
<path d="M27.8137 228.505H26.5114V229.804H27.8137V228.505Z" fill="#F3B36A"/>
<path d="M27.8137 225.583H26.5114V226.882H27.8137V225.583Z" fill="#F3B36A"/>
<path fill-rule="evenodd" clip-rule="evenodd" d="M40.9457 211.294C39.524 211.323 38.1353 210.864 37.0116 209.995C36.607 209.579 36.1218 209.249 35.5854 209.026C35.049 208.803 34.4727 208.69 33.8915 208.696C32.7311 208.752 31.627 209.211 30.7713 209.995C29.7252 210.89 28.3769 211.355 27 211.294C25.5782 211.323 24.1896 210.864 23.0659 209.995C22.6573 209.584 22.1712 209.258 21.6357 209.036C21.1002 208.814 20.5258 208.699 19.9457 208.699C19.3656 208.699 18.7913 208.814 18.2557 209.036C17.7202 209.258 17.2342 209.584 16.8256 209.995C15.7166 210.892 14.3177 211.353 12.8915 211.294C11.5146 211.355 10.1663 210.89 9.12016 209.995C8.28244 209.184 7.1674 208.72 6 208.696V207.397C7.39897 207.381 8.75009 207.905 9.77132 208.859C10.6427 209.596 11.749 209.999 12.8915 209.995C13.4615 210.025 14.0318 209.94 14.568 209.745C15.1042 209.55 15.5953 209.248 16.0116 208.859C17.1133 207.931 18.5041 207.414 19.9457 207.397C21.3865 207.419 22.7759 207.935 23.8798 208.859C24.2962 209.248 24.7873 209.55 25.3235 209.745C25.8597 209.94 26.43 210.025 27 209.995C28.1468 210.024 29.2619 209.618 30.1202 208.859C31.1414 207.905 32.4925 207.381 33.8915 207.397C35.3383 207.386 36.7388 207.906 37.8256 208.859C38.6977 209.595 39.8032 209.999 40.9457 209.999C42.0883 209.999 43.1938 209.595 44.0659 208.859C45.1676 207.931 46.5584 207.414 48 207.397V208.696C47.4188 208.69 46.8425 208.803 46.3061 209.026C45.7697 209.249 45.2845 209.579 44.8799 209.995C43.7541 210.861 42.3668 211.319 40.9457 211.294Z" fill="#7BBEFD"/>
<path fill-rule="evenodd" clip-rule="evenodd" d="M40.9457 207.397C39.524 207.426 38.1353 206.967 37.0116 206.098C36.607 205.682 36.1218 205.352 35.5854 205.129C35.049 204.906 34.4727 204.794 33.8915 204.799C32.7311 204.855 31.627 205.315 30.7713 206.098C29.7252 206.993 28.3769 207.458 27 207.397C25.5782 207.426 24.1896 206.967 23.0659 206.098C22.6573 205.687 22.1712 205.362 21.6357 205.139C21.1002 204.917 20.5258 204.802 19.9457 204.802C19.3656 204.802 18.7913 204.917 18.2557 205.139C17.7202 205.362 17.2342 205.687 16.8256 206.098C15.7166 206.995 14.3177 207.457 12.8915 207.397C11.5146 207.458 10.1663 206.993 9.12016 206.098C8.28244 205.287 7.1674 204.823 6 204.799V203.5C7.39897 203.484 8.75009 204.008 9.77132 204.962C10.6427 205.699 11.749 206.102 12.8915 206.098C13.4615 206.128 14.0318 206.043 14.568 205.848C15.1042 205.653 15.5953 205.351 16.0116 204.962C17.1133 204.034 18.5041 203.517 19.9457 203.5C21.3865 203.522 22.7759 204.038 23.8798 204.962C24.2962 205.351 24.7873 205.653 25.3235 205.848C25.8597 206.043 26.43 206.128 27 206.098C28.1468 206.127 29.2619 205.721 30.1202 204.962C31.1414 204.008 32.4925 203.484 33.8915 203.5C35.3383 203.489 36.7388 204.009 37.8256 204.962C38.6977 205.698 39.8032 206.102 40.9457 206.102C42.0883 206.102 43.1938 205.698 44.0659 204.962C45.1676 204.034 46.5584 203.517 48 203.5V204.799C47.4188 204.794 46.8425 204.906 46.3061 205.129C45.7697 205.352 45.2845 205.682 44.8799 206.098C43.7541 206.964 42.3668 207.422 40.9457 207.397Z" fill="#7BBEFD"/>
</svg>
