<svg width="306" height="215" viewBox="0 0 306 215" fill="none" xmlns="http://www.w3.org/2000/svg">
<g opacity="0.1">
<path d="M121.324 188.261C119.684 186.8 118.816 184.313 119.14 182.207C119.345 180.89 123.045 178.598 123.045 178.598L117.523 172.593C117.523 172.593 114.932 176.106 113.604 176.198C111.577 176.349 109.284 175.304 108.052 173.61C107.268 172.535 108.284 168.297 108.284 168.297L100.124 167.945C100.124 167.945 100.763 172.259 99.896 173.257C98.6903 174.643 96.5485 175.346 94.7956 174.996C93.4889 174.735 91.3803 170.925 91.3803 170.925L85.1284 176.177C85.1284 176.177 88.5136 178.92 88.5467 180.248C88.6025 182.478 87.4178 184.936 85.5504 186.269C84.4637 187.042 80.2329 185.967 80.2329 185.967L79.7808 194.123C79.7808 194.123 84.0929 193.532 85.0786 194.414C86.7215 195.883 87.5911 198.368 87.2656 200.471C87.0636 201.786 83.3559 204.08 83.3559 204.08L88.8783 210.082C88.8783 210.082 91.4662 206.574 92.7971 206.48C94.8197 206.329 97.1212 207.385 98.3541 209.065C99.1364 210.144 98.1296 214.378 98.1296 214.378L106.282 214.73C106.282 214.73 105.637 210.419 106.504 209.417C107.709 208.035 109.862 207.329 111.615 207.68C112.915 207.946 115.027 211.752 115.027 211.752L121.276 206.5C121.276 206.5 117.897 203.755 117.856 202.429C117.805 200.2 118.986 197.744 120.855 196.409C121.941 195.64 126.176 196.711 126.176 196.711L126.628 188.556C126.628 188.556 122.322 189.144 121.324 188.261ZM102.635 204.668C99.9629 204.553 97.3852 203.648 95.2275 202.068C93.0698 200.488 91.429 198.303 90.5127 195.789C89.5964 193.276 89.4457 190.547 90.0797 187.948C90.7137 185.349 92.1039 182.996 94.0744 181.188C96.045 179.379 98.5074 178.196 101.15 177.788C103.793 177.379 106.498 177.764 108.922 178.894C111.346 180.023 113.381 181.846 114.769 184.133C116.157 186.419 116.837 189.067 116.721 191.739C116.645 193.514 116.22 195.255 115.471 196.865C114.721 198.475 113.662 199.922 112.354 201.122C111.046 202.323 109.515 203.254 107.847 203.862C106.179 204.47 104.408 204.744 102.635 204.668Z" fill="#404040"/>
<path d="M113.534 191.781C113.445 193.823 112.753 195.793 111.545 197.442C110.338 199.09 108.669 200.344 106.749 201.043C104.829 201.743 102.745 201.858 100.761 201.372C98.776 200.887 96.9797 199.824 95.5989 198.318C94.2181 196.811 93.3148 194.929 93.0032 192.909C92.6916 190.889 92.9857 188.822 93.8483 186.969C94.7109 185.116 96.1034 183.561 97.8495 182.5C99.5956 181.439 101.617 180.92 103.658 181.008C105.014 181.065 106.345 181.39 107.576 181.962C108.806 182.535 109.912 183.345 110.829 184.346C111.746 185.347 112.457 186.518 112.921 187.794C113.385 189.07 113.593 190.425 113.534 191.781Z" fill="#404040"/>
</g>
<g opacity="0.1">
<path d="M60.9561 149.807C58.5446 147.663 57.2755 144.016 57.7518 140.925C58.0532 138.993 63.4792 135.63 63.4792 135.63L55.3764 126.819C55.3764 126.819 51.5753 131.974 49.631 132.107C46.6557 132.325 43.2931 130.796 41.483 128.313C40.3345 126.733 41.8236 120.516 41.8236 120.516L29.8518 120C29.8518 120 30.7893 126.333 29.5187 127.794C27.7523 129.827 24.6052 130.858 22.0324 130.344C20.1167 129.962 17.0209 124.374 17.0209 124.374L7.85257 132.075C7.85257 132.075 12.8264 136.101 12.8686 138.045C12.9484 141.317 11.2106 144.925 8.47203 146.881C6.8774 148.014 0.669193 146.445 0.669193 146.445L0 158.411C0 158.411 6.33028 157.544 7.77268 158.838C10.1842 160.993 11.4593 164.639 10.9815 167.725C10.6801 169.655 5.24509 173.018 5.24509 173.018L13.3494 181.834C13.3494 181.834 17.14 176.68 19.0994 176.543C22.0671 176.332 25.4447 177.863 27.2534 180.337C28.4019 181.92 26.9248 188.133 26.9248 188.133L38.886 188.648C38.886 188.648 37.9395 182.315 39.2116 180.854C40.9841 178.826 44.1387 177.79 46.71 178.306C48.6181 178.695 51.7184 184.28 51.7184 184.28L60.8853 176.573C60.8853 176.573 55.9266 172.547 55.8693 170.599C55.7939 167.33 57.5272 163.725 60.2689 161.768C61.862 160.64 68.0747 162.209 68.0747 162.209L68.7364 150.246C68.7364 150.246 62.4136 151.103 60.9561 149.807ZM33.5249 173.88C28.2684 173.653 23.3174 171.346 19.7611 167.467C16.2049 163.587 14.3347 158.454 14.5619 153.195C14.7892 147.936 17.0953 142.983 20.9729 139.425C24.8505 135.867 29.982 133.996 35.2386 134.224C46.1719 134.7 54.6816 143.957 54.1933 154.907C54.0823 157.511 53.4594 160.068 52.3601 162.431C51.2609 164.794 49.7069 166.918 47.7871 168.68C45.8672 170.442 43.619 171.808 41.171 172.7C38.7231 173.593 36.1233 173.994 33.5204 173.88H33.5249Z" fill="#404040"/>
<path d="M49.5195 154.98C49.3894 157.976 48.3743 160.866 46.6025 163.285C44.8307 165.704 42.3817 167.543 39.5653 168.569C36.7489 169.596 33.6915 169.764 30.7796 169.052C27.8678 168.34 25.2323 166.781 23.2064 164.57C21.1806 162.36 19.8552 159.599 19.398 156.635C18.9409 153.671 19.3723 150.638 20.638 147.92C21.9036 145.202 23.9464 142.92 26.5083 141.363C29.0702 139.806 32.0359 139.044 35.0306 139.173C37.0198 139.258 38.9727 139.735 40.7776 140.575C42.5826 141.416 44.2042 142.604 45.5499 144.072C46.8955 145.54 47.9387 147.259 48.6198 149.131C49.3009 151.003 49.6066 152.99 49.5195 154.98Z" fill="#404040"/>
</g>
<g opacity="0.1">
<path d="M299.579 153.065C297.591 151.295 296.538 148.282 296.933 145.73C297.18 144.134 301.665 141.357 301.665 141.357L294.972 134.08C294.972 134.08 291.834 138.337 290.23 138.453C287.772 138.634 284.994 137.37 283.5 135.319C282.551 134.015 283.781 128.881 283.781 128.881L273.895 128.454C273.895 128.454 274.668 133.682 273.619 134.891C272.16 136.571 269.562 137.421 267.44 137.002C265.859 136.687 263.302 132.071 263.302 132.071L255.724 138.424C255.724 138.424 259.825 141.741 259.866 143.355C259.934 146.057 258.499 149.036 256.235 150.651C254.919 151.588 249.792 150.291 249.792 150.291L249.24 160.173C249.24 160.173 254.464 159.457 255.659 160.525C257.649 162.304 258.704 165.315 258.309 167.865C258.065 169.457 253.572 172.238 253.572 172.238L260.264 179.513C260.264 179.513 263.399 175.261 265.01 175.14C267.459 174.966 270.249 176.232 271.744 178.274C272.691 179.583 271.471 184.711 271.471 184.711L281.35 185.139C281.35 185.139 280.566 179.914 281.618 178.7C283.08 177.027 285.687 176.172 287.81 176.589C289.386 176.911 291.945 181.523 291.945 181.523L299.516 175.159C299.516 175.159 295.421 171.834 295.373 170.226C295.311 167.524 296.741 164.548 299.007 162.933C300.322 162.001 305.453 163.298 305.453 163.298L306 153.417C306 153.417 300.782 154.136 299.579 153.065ZM276.921 172.945C273.684 172.806 270.561 171.71 267.947 169.795C265.333 167.88 263.345 165.233 262.235 162.188C261.125 159.143 260.942 155.837 261.711 152.688C262.479 149.539 264.163 146.688 266.55 144.497C268.938 142.306 271.921 140.872 275.123 140.377C278.325 139.882 281.602 140.349 284.539 141.717C287.476 143.085 289.941 145.294 291.624 148.064C293.306 150.835 294.129 154.042 293.989 157.28C293.897 159.43 293.382 161.54 292.474 163.491C291.566 165.442 290.283 167.194 288.698 168.649C287.114 170.104 285.258 171.232 283.237 171.969C281.216 172.706 279.07 173.038 276.921 172.945Z" fill="#404040"/>
<path d="M290.132 157.336C290.023 159.809 289.185 162.193 287.722 164.189C286.259 166.184 284.238 167.701 281.913 168.547C279.589 169.393 277.066 169.532 274.663 168.944C272.26 168.356 270.086 167.069 268.414 165.245C266.742 163.421 265.649 161.142 265.271 158.697C264.894 156.251 265.249 153.748 266.293 151.505C267.337 149.262 269.022 147.378 271.136 146.093C273.25 144.807 275.697 144.177 278.168 144.283C279.811 144.353 281.423 144.746 282.914 145.441C284.404 146.135 285.744 147.116 286.855 148.328C287.966 149.541 288.827 150.96 289.39 152.506C289.952 154.052 290.204 155.693 290.132 157.336Z" fill="#404040"/>
</g>
<circle opacity="0.2" cx="155" cy="100" r="100" fill="#4AA29A"/>
<circle cx="155" cy="100" r="90" fill="#89BDB9"/>
<mask id="mask0" mask-type="alpha" maskUnits="userSpaceOnUse" x="65" y="10" width="180" height="180">
<circle cx="155" cy="100" r="90" fill="#89BDB9"/>
</mask>
<g mask="url(#mask0)">
<path d="M133.887 63.002C138.434 59.6768 139.209 52.9989 135.621 48.0885C132.726 44.124 127.876 42.5272 123.723 43.7992C123.369 43.1645 122.977 42.5517 122.55 41.9639C117.232 34.6848 107.459 32.7774 100.722 37.7049C97.422 40.1183 95.4648 43.7254 94.9519 47.6315C93.2963 47.5285 91.6391 47.9525 90.2406 48.9744C86.8833 51.4296 86.3098 56.3599 88.9609 59.9868C91.6121 63.6137 96.4825 64.5674 99.8387 62.1122C99.9042 62.0648 99.9581 62.0131 100.02 61.9641C105.544 67.4114 118.836 63.5912 124.848 59.1961C125.448 58.7556 121.137 63.1441 121.648 62.6298C125.319 65.3597 130.256 65.6576 133.887 63.002Z" fill="#5FBAB2"/>
<path d="M158.097 63.3966C161.352 61.019 161.986 56.3525 159.52 52.9778C157.53 50.2555 154.129 49.2061 151.182 50.1471C150.941 49.7085 150.673 49.2855 150.379 48.8806C146.724 43.8766 139.853 42.6779 135.033 46.2035C132.672 47.9297 131.243 50.4703 130.828 53.2008C129.633 53.1427 128.454 53.4954 127.486 54.2002C125.084 55.9566 124.614 59.4008 126.436 61.894C128.259 64.3872 131.682 64.9868 134.083 63.2314C134.13 63.1973 134.169 63.1598 134.213 63.1246C138.039 66.8484 143.97 67.4657 148.271 64.3211C148.694 64.0111 149.093 63.6697 149.466 63.2997C152.022 65.1558 155.499 65.2995 158.097 63.3966Z" fill="#5FBAB2"/>
<path d="M137.467 63.4062C140.093 61.4878 140.673 57.8158 138.767 55.2075C137.229 53.1036 134.543 52.3354 132.183 53.1212C131.999 52.7817 131.793 52.4548 131.566 52.1427C128.741 48.2746 123.298 47.446 119.409 50.2905C117.579 51.6239 116.34 53.6173 115.953 55.849C114.994 55.826 114.054 56.1208 113.28 56.6875C111.342 58.1043 110.913 60.8172 112.32 62.7444C113.728 64.6715 116.441 65.0867 118.378 63.6699C118.416 63.6424 118.448 63.6149 118.483 63.584C121.464 66.4473 126.17 66.8327 129.64 64.2954C129.981 64.0453 130.304 63.7709 130.606 63.4745C131.613 64.1829 132.817 64.5574 134.048 64.5452C135.278 64.5329 136.474 64.1346 137.467 63.4062Z" fill="#93D1CC"/>
<path d="M192.261 46.3886C195.029 44.3649 195.5 40.3005 193.316 37.312C191.555 34.8991 188.603 33.9273 186.075 34.7014C185.86 34.3153 185.621 33.9423 185.362 33.5844C182.125 29.1535 176.177 27.9933 172.076 30.992C170.068 32.4611 168.877 34.6565 168.565 37.0338C167.557 36.9711 166.548 37.2292 165.697 37.8512C163.654 39.3455 163.305 42.3458 164.918 44.5535C166.532 46.7613 169.496 47.3414 171.539 45.8471C171.578 45.8183 171.611 45.7868 171.649 45.7569C175.011 49.0723 183.101 46.7472 186.759 44.0723C187.125 43.8042 184.501 46.4751 184.812 46.1621C187.046 47.8236 190.051 48.0049 192.261 46.3886Z" fill="#5FBAB2"/>
<path d="M206.102 47.3378C208.023 45.934 208.398 43.179 206.942 41.1867C205.767 39.5782 203.76 38.9602 202.018 39.5155C201.876 39.2571 201.717 39.0079 201.544 38.7695C199.386 35.8151 195.33 35.1077 192.485 37.1888C191.09 38.2082 190.247 39.7082 190.002 41.3198C189.296 41.2856 188.6 41.4939 188.028 41.9099C186.61 42.9468 186.333 44.9803 187.409 46.4521C188.485 47.924 190.506 48.2782 191.923 47.2416C191.951 47.2215 191.974 47.1994 192 47.179C194.259 49.3774 197.761 49.7416 200.299 47.8851C200.549 47.7019 200.785 47.5003 201.005 47.2819C202.514 48.3764 204.568 48.4601 206.102 47.3378Z" fill="#5FBAB2"/>
<path d="M195.089 47.8986C196.786 46.6587 197.117 44.2254 195.831 42.4657C194.792 41.0461 193.02 40.4992 191.483 40.9912C191.357 40.7629 191.218 40.5428 191.065 40.332C189.159 37.7228 185.576 37.0978 183.063 38.9362C181.831 39.8364 181.086 41.1611 180.87 42.5847C180.247 42.5546 179.632 42.7386 179.128 43.1061C177.875 44.0217 177.63 45.8179 178.58 47.1178C179.531 48.4177 181.316 48.7304 182.567 47.8152C182.591 47.7974 182.612 47.7777 182.634 47.7596C184.629 49.7012 187.722 50.0233 189.964 48.3832C190.185 48.2216 190.393 48.0436 190.587 47.8507C191.92 48.8162 193.734 48.8899 195.089 47.8986Z" fill="#93D1CC"/>
<path d="M372.511 160.888C372.511 178.473 275.236 192.729 155.239 192.729C35.2423 192.729 -62.0325 178.473 -62.0325 160.888C-62.0325 143.303 35.2438 129.048 155.239 129.048C275.235 129.048 372.511 143.317 372.511 160.888Z" fill="#53A69E"/>
<g opacity="0.2">
<path d="M172.875 98.9019C172.276 98.3683 171.959 97.4604 172.078 96.6911C172.153 96.2105 173.504 95.3735 173.504 95.3735L171.487 93.1804C171.487 93.1804 170.541 94.4633 170.056 94.4969C169.316 94.552 168.479 94.1704 168.029 93.5521C167.742 93.1595 168.113 91.6117 168.113 91.6117L165.134 91.4834C165.134 91.4834 165.367 93.0587 165.05 93.4232C164.61 93.9292 163.828 94.1858 163.188 94.0581C162.711 93.9628 161.941 92.5714 161.941 92.5714L159.658 94.4892C159.658 94.4892 160.894 95.4908 160.906 95.9759C160.926 96.7903 160.494 97.6878 159.812 98.1745C159.415 98.457 157.87 98.0644 157.87 98.0644L157.705 101.043C157.705 101.043 159.28 100.827 159.64 101.149C160.24 101.685 160.557 102.593 160.438 103.361C160.365 103.841 159.011 104.678 159.011 104.678L161.027 106.87C161.027 106.87 161.972 105.589 162.458 105.555C163.197 105.5 164.037 105.885 164.487 106.499C164.773 106.893 164.405 108.439 164.405 108.439L167.382 108.567C167.382 108.567 167.147 106.993 167.463 106.628C167.904 106.123 168.69 105.865 169.33 105.993C169.805 106.09 170.576 107.48 170.576 107.48L172.858 105.562C172.858 105.562 171.624 104.56 171.609 104.075C171.59 103.262 172.022 102.365 172.704 101.877C173.1 101.597 174.647 101.988 174.647 101.988L174.812 99.0098C174.812 99.0098 173.24 99.2245 172.875 98.9019ZM166.051 104.893C165.075 104.851 164.134 104.521 163.346 103.944C162.558 103.367 161.959 102.569 161.624 101.651C161.289 100.733 161.234 99.7368 161.466 98.7877C161.697 97.8386 162.205 96.9796 162.925 96.3191C163.644 95.6587 164.543 95.2266 165.508 95.0775C166.474 94.9284 167.461 95.0689 168.346 95.4813C169.232 95.8938 169.975 96.5596 170.482 97.3946C170.989 98.2295 171.237 99.1961 171.194 100.172C171.167 100.82 171.011 101.456 170.738 102.044C170.464 102.632 170.078 103.16 169.6 103.598C169.122 104.037 168.563 104.377 167.954 104.599C167.345 104.821 166.698 104.921 166.051 104.893Z" fill="#E8F2FF"/>
<path d="M170.03 100.188C169.998 100.933 169.745 101.653 169.304 102.255C168.863 102.857 168.254 103.314 167.553 103.57C166.852 103.825 166.091 103.867 165.366 103.69C164.641 103.513 163.985 103.125 163.481 102.575C162.977 102.025 162.647 101.337 162.533 100.6C162.42 99.8619 162.527 99.1071 162.842 98.4305C163.157 97.7539 163.665 97.186 164.303 96.7985C164.941 96.411 165.679 96.2213 166.424 96.2535C166.919 96.2745 167.406 96.393 167.855 96.6022C168.304 96.8114 168.708 97.1071 169.043 97.4725C169.378 97.8379 169.637 98.2658 169.807 98.7317C169.976 99.1976 170.052 99.6924 170.03 100.188Z" fill="#E8F2FF"/>
</g>
<g opacity="0.3">
<path d="M150.831 84.8602C149.95 84.0772 149.487 82.7453 149.661 81.6165C149.771 80.9112 151.752 79.6833 151.752 79.6833L148.793 76.4655C148.793 76.4655 147.405 78.348 146.695 78.3965C145.609 78.4763 144.381 77.918 143.72 77.0111C143.301 76.4341 143.844 74.1639 143.844 74.1639L139.473 73.9756C139.473 73.9756 139.815 76.2882 139.351 76.8217C138.706 77.564 137.557 77.9406 136.617 77.7528C135.918 77.6135 134.787 75.5729 134.787 75.5729L131.439 78.3849C131.439 78.3849 133.256 79.8551 133.271 80.5648C133.3 81.7597 132.666 83.0773 131.665 83.7915C131.083 84.2055 128.816 83.6323 128.816 83.6323L128.572 88.002C128.572 88.002 130.883 87.6854 131.41 88.1579C132.291 88.9447 132.756 90.2761 132.582 91.4032C132.472 92.108 130.487 93.3359 130.487 93.3359L133.447 96.5554C133.447 96.5554 134.831 94.6733 135.546 94.6232C136.63 94.5461 137.863 95.105 138.524 96.0086C138.943 96.5867 138.404 98.8553 138.404 98.8553L142.772 99.0436C142.772 99.0436 142.426 96.731 142.891 96.1975C143.538 95.4569 144.69 95.0786 145.629 95.2669C146.325 95.409 147.458 97.4485 147.458 97.4485L150.805 94.6342C150.805 94.6342 148.994 93.1641 148.973 92.4527C148.946 91.259 149.579 89.9424 150.58 89.2277C151.162 88.8159 153.43 89.3891 153.43 89.3891L153.672 85.0204C153.672 85.0204 151.363 85.3332 150.831 84.8602ZM140.814 93.6508C138.894 93.5678 137.086 92.7254 135.788 91.3088C134.489 89.8922 133.806 88.0175 133.889 86.0972C133.972 84.1768 134.814 82.3681 136.23 81.069C137.646 79.7698 139.52 79.0866 141.44 79.1696C145.432 79.3436 148.54 82.7238 148.361 86.7224C148.321 87.6734 148.093 88.607 147.692 89.47C147.291 90.3329 146.723 91.1083 146.022 91.7517C145.321 92.3952 144.5 92.8941 143.606 93.2199C142.712 93.5458 141.763 93.6922 140.812 93.6508H140.814Z" fill="#E8F2FF"/>
<path d="M146.655 86.749C146.607 87.843 146.236 88.8984 145.589 89.7816C144.942 90.6649 144.048 91.3364 143.02 91.7112C141.991 92.0861 140.875 92.1474 139.812 91.8875C138.748 91.6276 137.786 91.058 137.046 90.251C136.306 89.4439 135.822 88.4355 135.655 87.3532C135.488 86.271 135.646 85.1635 136.108 84.1709C136.57 83.1782 137.316 82.3449 138.252 81.7764C139.187 81.2079 140.27 80.9296 141.364 80.9768C142.09 81.0079 142.803 81.1819 143.462 81.4889C144.122 81.7958 144.714 82.2298 145.205 82.7658C145.696 83.3019 146.077 83.9296 146.326 84.6131C146.575 85.2965 146.686 86.0223 146.655 86.749Z" fill="#E8F2FF"/>
</g>
<g opacity="0.3">
<path d="M186.71 79.1835C185.984 78.5371 185.599 77.4369 185.744 76.5047C185.834 75.9222 187.472 74.9079 187.472 74.9079L185.028 72.2506C185.028 72.2506 183.882 73.805 183.296 73.8474C182.398 73.9135 181.384 73.4521 180.839 72.7033C180.492 72.227 180.941 70.3521 180.941 70.3521L177.331 70.1963C177.331 70.1963 177.613 72.1053 177.23 72.5469C176.698 73.1603 175.749 73.4708 174.974 73.3177C174.396 73.2027 173.463 71.5172 173.463 71.5172L170.696 73.837C170.696 73.837 172.193 75.0483 172.208 75.6375C172.233 76.6242 171.709 77.7122 170.882 78.302C170.402 78.6439 168.529 78.1704 168.529 78.1704L168.328 81.7791C168.328 81.7791 170.236 81.5176 170.672 81.9074C171.398 82.5571 171.784 83.6567 171.64 84.5878C171.55 85.1693 169.91 86.1846 169.91 86.1846L172.353 88.8413C172.353 88.8413 173.498 87.2886 174.087 87.2446C174.981 87.1807 176 87.6432 176.546 88.3887C176.891 88.8667 176.446 90.7393 176.446 90.7393L180.053 90.8957C180.053 90.8957 179.767 88.9878 180.151 88.5446C180.685 87.9334 181.637 87.6212 182.412 87.7737C182.988 87.891 183.922 89.5753 183.922 89.5753L186.687 87.2512C186.687 87.2512 185.192 86.037 185.174 85.4501C185.151 84.4634 185.674 83.3765 186.501 82.7867C186.981 82.4465 188.855 82.92 188.855 82.92L189.055 79.3118C189.055 79.3118 187.149 79.5744 186.71 79.1835ZM178.436 86.4429C177.254 86.3921 176.114 85.9918 175.159 85.2926C174.205 84.5933 173.479 83.6266 173.073 82.5147C172.668 81.4027 172.601 80.1954 172.882 79.0456C173.162 77.8957 173.777 76.8548 174.649 76.0547C175.521 75.2545 176.61 74.731 177.779 74.5503C178.949 74.3695 180.145 74.5398 181.218 75.0394C182.29 75.5391 183.191 76.3457 183.805 77.3573C184.419 78.3689 184.72 79.54 184.669 80.7225C184.635 81.5075 184.447 82.2782 184.116 82.9905C183.784 83.7029 183.316 84.3429 182.737 84.8741C182.158 85.4053 181.48 85.8172 180.742 86.0864C180.005 86.3556 179.221 86.4767 178.436 86.4429Z" fill="#E8F2FF"/>
<path d="M183.26 80.7435C183.221 81.6463 182.914 82.517 182.38 83.2457C181.846 83.9744 181.108 84.5282 180.259 84.8373C179.41 85.1464 178.489 85.1968 177.612 84.9822C176.734 84.7675 175.94 84.2975 175.33 83.6315C174.719 82.9654 174.32 82.1333 174.182 81.2403C174.044 80.3472 174.174 79.4333 174.555 78.6141C174.936 77.7948 175.552 77.1071 176.324 76.6377C177.095 76.1682 177.989 75.9383 178.891 75.9768C179.491 76.0024 180.08 76.1461 180.624 76.3996C181.169 76.6531 181.658 77.0114 182.064 77.4541C182.469 77.8968 182.784 78.4152 182.989 78.9797C183.195 79.5441 183.287 80.1435 183.26 80.7435Z" fill="#E8F2FF"/>
</g>
<path d="M158.294 111.927L158.176 111.445C190.909 103.35 201.484 85.0263 201.588 84.8428L202.021 85.0853C201.917 85.2711 191.232 103.782 158.294 111.927Z" fill="#459991"/>
<path d="M179.681 113.322C178.885 113.322 178.062 113.299 177.208 113.247L177.238 112.751C189.127 113.461 195.302 108.852 195.364 108.806L195.666 109.201C195.607 109.246 190.143 113.322 179.681 113.322Z" fill="#459991"/>
<path d="M160.05 111.686C160.05 111.878 159.974 112.062 159.838 112.197C159.703 112.333 159.519 112.409 159.328 112.41H157.143C156.951 112.41 156.767 112.334 156.632 112.198C156.496 112.062 156.42 111.878 156.419 111.686C156.419 111.494 156.496 111.31 156.631 111.174C156.767 111.039 156.951 110.962 157.143 110.962H159.328C159.52 110.962 159.703 111.039 159.839 111.175C159.974 111.31 160.05 111.494 160.05 111.686Z" fill="#5BD595"/>
<path d="M160.05 113C160.05 113.191 159.974 113.375 159.838 113.511C159.703 113.646 159.519 113.722 159.328 113.722H157.143C156.952 113.722 156.768 113.646 156.632 113.511C156.496 113.375 156.42 113.191 156.419 113C156.419 112.904 156.438 112.81 156.474 112.722C156.51 112.634 156.564 112.554 156.631 112.487C156.698 112.42 156.778 112.366 156.866 112.33C156.954 112.293 157.048 112.274 157.143 112.274H159.328C159.52 112.275 159.704 112.351 159.839 112.487C159.975 112.623 160.051 112.808 160.05 113Z" fill="#5BD595"/>
<path d="M160.05 114.313C160.05 114.505 159.974 114.689 159.838 114.824C159.703 114.96 159.519 115.036 159.328 115.036H157.143C156.952 115.036 156.768 114.96 156.632 114.825C156.496 114.689 156.42 114.505 156.419 114.313C156.419 114.121 156.495 113.937 156.631 113.801C156.767 113.665 156.951 113.589 157.143 113.589H159.328C159.423 113.589 159.517 113.608 159.604 113.644C159.692 113.681 159.772 113.734 159.839 113.801C159.906 113.869 159.959 113.948 159.996 114.036C160.032 114.124 160.05 114.218 160.05 114.313Z" fill="#5BD595"/>
<path d="M160.05 115.628C160.05 115.82 159.974 116.003 159.838 116.139C159.703 116.274 159.519 116.351 159.328 116.351H157.143C157.048 116.351 156.954 116.332 156.866 116.296C156.779 116.26 156.699 116.207 156.632 116.139C156.564 116.072 156.511 115.993 156.475 115.905C156.438 115.817 156.419 115.723 156.419 115.628C156.419 115.533 156.438 115.439 156.474 115.351C156.511 115.263 156.564 115.183 156.631 115.116C156.699 115.049 156.778 114.995 156.866 114.959C156.954 114.923 157.048 114.904 157.143 114.904H159.328C159.519 114.904 159.703 114.981 159.839 115.117C159.974 115.252 160.05 115.436 160.05 115.628Z" fill="#5BD595"/>
<path d="M179.038 111.686C179.038 111.878 178.962 112.062 178.826 112.198C178.69 112.333 178.506 112.41 178.315 112.41H176.133C175.941 112.41 175.757 112.334 175.621 112.198C175.485 112.062 175.409 111.878 175.408 111.686C175.409 111.494 175.485 111.31 175.621 111.174C175.757 111.039 175.941 110.962 176.133 110.962H178.315C178.41 110.962 178.504 110.981 178.592 111.017C178.679 111.053 178.759 111.107 178.826 111.174C178.894 111.241 178.947 111.321 178.983 111.409C179.02 111.497 179.038 111.591 179.038 111.686Z" fill="#5BD595"/>
<path d="M179.038 113C179.038 113.095 179.019 113.189 178.983 113.276C178.947 113.364 178.893 113.444 178.826 113.511C178.759 113.578 178.679 113.631 178.591 113.668C178.504 113.704 178.41 113.723 178.315 113.722H176.133C175.941 113.722 175.757 113.646 175.621 113.511C175.485 113.375 175.409 113.191 175.408 113C175.408 112.904 175.427 112.81 175.463 112.722C175.5 112.634 175.553 112.554 175.62 112.487C175.688 112.42 175.767 112.366 175.855 112.33C175.943 112.293 176.037 112.274 176.133 112.274H178.315C178.41 112.274 178.504 112.293 178.592 112.33C178.68 112.366 178.76 112.42 178.827 112.487C178.894 112.554 178.947 112.634 178.983 112.722C179.02 112.81 179.038 112.904 179.038 113Z" fill="#5BD595"/>
<path d="M179.038 114.313C179.038 114.408 179.019 114.502 178.983 114.59C178.947 114.678 178.893 114.758 178.826 114.825C178.759 114.892 178.679 114.945 178.591 114.981C178.504 115.018 178.41 115.036 178.315 115.036H176.133C175.941 115.036 175.757 114.96 175.621 114.825C175.485 114.689 175.409 114.505 175.408 114.313C175.408 114.121 175.485 113.937 175.621 113.801C175.756 113.665 175.941 113.589 176.133 113.589H178.315C178.41 113.589 178.504 113.607 178.592 113.644C178.68 113.68 178.759 113.734 178.827 113.801C178.894 113.868 178.947 113.948 178.983 114.036C179.02 114.124 179.038 114.218 179.038 114.313Z" fill="#5BD595"/>
<path d="M179.038 115.628C179.038 115.723 179.019 115.817 178.983 115.905C178.947 115.993 178.893 116.072 178.826 116.139C178.759 116.207 178.679 116.26 178.591 116.296C178.504 116.332 178.41 116.351 178.315 116.351H176.133C176.038 116.351 175.943 116.332 175.856 116.296C175.768 116.26 175.688 116.207 175.621 116.139C175.554 116.072 175.5 115.993 175.464 115.905C175.427 115.817 175.409 115.723 175.408 115.628C175.408 115.533 175.427 115.439 175.464 115.351C175.5 115.263 175.553 115.183 175.621 115.116C175.688 115.049 175.768 114.995 175.856 114.959C175.943 114.923 176.038 114.904 176.133 114.904H178.315C178.41 114.904 178.504 114.923 178.592 114.959C178.679 114.996 178.759 115.049 178.826 115.116C178.894 115.183 178.947 115.263 178.983 115.351C179.02 115.439 179.038 115.533 179.038 115.628Z" fill="#5BD595"/>
<path d="M232.195 138.766H207.467V140.282H232.195V138.766Z" fill="#34726C"/>
<path d="M206.531 91.8236L213.343 102.904L213.895 102.439L206.901 91.0645L206.531 91.8236Z" fill="#34726C"/>
<path d="M223.168 90.4308L215.976 102.58L215.368 102.087L222.755 89.6143L223.168 90.4308Z" fill="#34726C"/>
<path d="M206.531 79.3114L213.343 90.3922L213.895 89.9276L206.901 78.5537L206.531 79.3114Z" fill="#34726C"/>
<path d="M222.949 79.3114L216.135 90.3922L215.584 89.9276L222.578 78.5537L222.949 79.3114Z" fill="#34726C"/>
<path d="M214.584 90.5901L198.491 114.88L197.896 114.486L213.989 90.1973L214.584 90.5901Z" fill="#34726C"/>
<path d="M214.965 89.8834L230.424 115.479L230.93 114.996L215.471 89.3984L214.965 89.8834Z" fill="#34726C"/>
<path d="M222.925 68.329L196.604 102.973L196.037 102.541L222.358 67.8984L222.925 68.329Z" fill="#34726C"/>
<path d="M206.828 68.329L233.148 102.973L233.716 102.541L207.395 67.8984L206.828 68.329Z" fill="#34726C"/>
<path d="M216.376 66.8018H213.344V109.266H216.376V66.8018Z" fill="#459991"/>
<path d="M215.387 53.9746H214.327V68.6971H215.387V53.9746Z" fill="#459991"/>
<path d="M205.447 67.5794L204.448 67.034L214.833 52.2881L215.272 53.7082L205.447 67.5794Z" fill="#459991"/>
<path d="M224.266 67.5794L225.266 67.034L214.833 52.2881L214.444 53.7082L224.266 67.5794Z" fill="#459991"/>
<path d="M207.467 66.8018H204.435V102.896H207.467V66.8018Z" fill="#459991"/>
<path d="M206.828 66.8018H205.026V102.896H206.828V66.8018Z" fill="#3C857E"/>
<path d="M225.279 66.8018H222.247V102.896H225.279V66.8018Z" fill="#459991"/>
<path d="M207.467 144.526H204.435L213.243 102.896L216.42 102.439L207.467 144.526Z" fill="#459991"/>
<path d="M206.43 144.525H205.439L214.259 102.993L214.373 107.031L206.43 144.525Z" fill="#3C857E"/>
<path d="M224.737 89.1689H204.435V90.6858H224.737V89.1689Z" fill="#459991"/>
<path d="M234.944 101.681H194.778V103.197H234.944V101.681Z" fill="#459991"/>
<path d="M229.115 124.358H200.053V125.874H229.115V124.358Z" fill="#459991"/>
<path d="M222.247 141.04H196.571V142.558H222.247V141.04Z" fill="#34726C"/>
<path d="M231.815 114.121H196.571V115.638H231.815V114.121Z" fill="#459991"/>
<path d="M224.69 105.816L196.604 142.782L196.037 142.35L224.122 105.385L224.69 105.816Z" fill="#34726C"/>
<path d="M204.768 105.474L232.848 143.094L233.474 142.608L205.393 104.988L204.768 105.474Z" fill="#34726C"/>
<path d="M196.57 102.973H196.037V106.327H196.57V102.973Z" fill="#459991"/>
<path d="M202.071 78.5547H201.539V81.9079H202.071V78.5547Z" fill="#459991"/>
<path d="M228.221 78.5547H227.689V81.9079H228.221V78.5547Z" fill="#459991"/>
<path d="M233.716 102.973H233.185V106.327H233.716V102.973Z" fill="#459991"/>
<path d="M201.32 78.2089L200.692 77.7806L206.88 68.6963L207.423 69.2477L201.32 78.2089Z" fill="#459991"/>
<path d="M198.718 143.265H195.612L204.438 101.681L207.467 102.008L198.718 143.265Z" fill="#459991"/>
<path d="M197.896 143.264H196.305L205.006 102.993H206.643L197.896 143.264Z" fill="#3C857E"/>
<path d="M230.591 143.264H233.716L224.809 101.379L221.844 102.007L230.591 143.264Z" fill="#459991"/>
<path d="M231.282 143.265H233.059L224.596 103.197H222.949L231.282 143.265Z" fill="#3C857E"/>
<path d="M222.183 144.525H225.262L216.306 102.204L213.276 102.535L222.183 144.525Z" fill="#459991"/>
<path d="M215.557 67.5791H214.373V102.895H215.557V67.5791Z" fill="#3C857E"/>
<path d="M223.538 144.526H224.513L215.556 102.749L214.373 102.896L223.538 144.526Z" fill="#3C857E"/>
<path d="M224.665 101.681H222.947L222.864 67.252H224.665V101.681Z" fill="#3C857E"/>
<path d="M228.857 77.7959H200.692V79.3112H228.857V77.7959Z" fill="#459991"/>
<path d="M228.194 78.4308L228.857 78.0577L223.473 68.4756H222.578L228.194 78.4308Z" fill="#459991"/>
<path d="M225.279 66.8018H204.435V68.697H225.279V66.8018Z" fill="#459991"/>
<path d="M224.615 67.252H205.026V68.0821H224.615V67.252Z" fill="#3C857E"/>
<path d="M203.118 82.1143C203.118 82.183 203.104 82.2509 203.078 82.3143C203.051 82.3777 203.013 82.4352 202.964 82.4837C202.916 82.5322 202.858 82.5706 202.795 82.5968C202.731 82.623 202.663 82.6364 202.595 82.6363H201.015C200.946 82.6364 200.878 82.623 200.815 82.5968C200.752 82.5706 200.694 82.5321 200.646 82.4837C200.597 82.4352 200.558 82.3776 200.532 82.3142C200.506 82.2509 200.492 82.1829 200.492 82.1143C200.492 82.0456 200.506 81.9775 200.532 81.914C200.558 81.8505 200.597 81.7928 200.645 81.7442C200.694 81.6956 200.751 81.657 200.815 81.6307C200.878 81.6044 200.946 81.5908 201.015 81.5908H202.595C202.733 81.5908 202.866 81.646 202.965 81.7441C203.063 81.8423 203.118 81.9755 203.118 82.1143Z" fill="#5BD595"/>
<path d="M203.118 83.0645C203.118 83.2033 203.063 83.3365 202.965 83.4347C202.866 83.5328 202.733 83.588 202.595 83.588H201.015C200.876 83.5878 200.743 83.5325 200.645 83.4344C200.547 83.3362 200.492 83.2032 200.492 83.0645C200.492 82.9258 200.547 82.7928 200.645 82.6946C200.743 82.5965 200.876 82.5412 201.015 82.541H202.595C202.733 82.541 202.866 82.5962 202.965 82.6943C203.063 82.7925 203.118 82.9257 203.118 83.0645Z" fill="#5BD595"/>
<path d="M203.118 84.0145C203.118 84.1532 203.062 84.2861 202.964 84.3841C202.866 84.4822 202.733 84.5372 202.595 84.5372H201.015C200.876 84.537 200.744 84.4819 200.646 84.3839C200.548 84.2859 200.493 84.153 200.492 84.0145C200.492 83.9457 200.506 83.8776 200.532 83.8141C200.558 83.7505 200.597 83.6928 200.645 83.6441C200.694 83.5954 200.751 83.5568 200.815 83.5304C200.878 83.504 200.946 83.4903 201.015 83.4902H202.595C202.733 83.4904 202.866 83.5458 202.965 83.644C203.063 83.7423 203.118 83.8756 203.118 84.0145Z" fill="#5BD595"/>
<path d="M203.118 84.9649C203.118 85.0335 203.104 85.1015 203.078 85.1649C203.051 85.2283 203.013 85.2858 202.964 85.3343C202.916 85.3828 202.858 85.4212 202.795 85.4474C202.731 85.4736 202.663 85.487 202.595 85.4869H201.015C200.877 85.4869 200.744 85.4319 200.646 85.334C200.548 85.2362 200.493 85.1034 200.492 84.9649C200.492 84.8962 200.506 84.8281 200.532 84.7646C200.558 84.7011 200.597 84.6434 200.645 84.5948C200.694 84.5462 200.751 84.5076 200.815 84.4813C200.878 84.455 200.946 84.4414 201.015 84.4414H202.595C202.663 84.4413 202.731 84.4548 202.795 84.4811C202.858 84.5073 202.916 84.5459 202.965 84.5945C203.013 84.6431 203.052 84.7009 203.078 84.7645C203.104 84.828 203.118 84.8961 203.118 84.9649Z" fill="#5BD595"/>
<path d="M229.266 82.0635C229.266 82.2022 229.211 82.335 229.113 82.433C229.015 82.5309 228.882 82.5861 228.743 82.5863H227.164C227.026 82.5863 226.893 82.5312 226.795 82.4332C226.697 82.3352 226.641 82.2022 226.641 82.0635C226.641 81.9247 226.696 81.7915 226.794 81.6934C226.893 81.5952 227.026 81.54 227.164 81.54H228.743C228.882 81.5402 229.015 81.5955 229.113 81.6936C229.211 81.7917 229.266 81.9247 229.266 82.0635Z" fill="#5BD595"/>
<path d="M229.266 83.0157C229.266 83.1544 229.211 83.2875 229.113 83.3856C229.015 83.4837 228.882 83.539 228.743 83.5392H227.164C227.026 83.5392 226.893 83.484 226.794 83.3858C226.696 83.2877 226.641 83.1545 226.641 83.0157C226.641 82.8768 226.696 82.7437 226.794 82.6455C226.893 82.5473 227.026 82.4922 227.164 82.4922H228.743C228.882 82.4924 229.015 82.5476 229.113 82.6457C229.211 82.7439 229.266 82.8769 229.266 83.0157Z" fill="#5BD595"/>
<path d="M229.266 83.9661C229.266 84.0348 229.253 84.1028 229.227 84.1663C229.2 84.2298 229.162 84.2874 229.113 84.336C229.065 84.3845 229.007 84.423 228.943 84.4492C228.88 84.4755 228.812 84.4889 228.743 84.4888H227.164C227.096 84.4889 227.028 84.4755 226.964 84.4492C226.901 84.423 226.843 84.3845 226.794 84.336C226.746 84.2874 226.707 84.2298 226.681 84.1663C226.655 84.1028 226.641 84.0348 226.641 83.9661C226.641 83.8974 226.655 83.8293 226.681 83.7659C226.707 83.7024 226.746 83.6447 226.794 83.5962C226.843 83.5476 226.901 83.5092 226.964 83.4829C227.028 83.4567 227.096 83.4433 227.164 83.4434H228.743C228.812 83.4433 228.88 83.4567 228.943 83.4829C229.007 83.5092 229.065 83.5476 229.113 83.5962C229.162 83.6447 229.2 83.7024 229.227 83.7659C229.253 83.8293 229.266 83.8974 229.266 83.9661Z" fill="#5BD595"/>
<path d="M229.266 84.9153C229.266 85.0541 229.211 85.1871 229.113 85.2852C229.015 85.3834 228.882 85.4386 228.743 85.4388H227.164C227.026 85.4388 226.893 85.3836 226.794 85.2855C226.696 85.1873 226.641 85.0541 226.641 84.9153C226.641 84.8466 226.655 84.7786 226.681 84.7151C226.707 84.6516 226.746 84.594 226.794 84.5454C226.843 84.4969 226.901 84.4584 226.964 84.4322C227.028 84.4059 227.096 84.3925 227.164 84.3926H228.743C228.882 84.3926 229.015 84.4476 229.113 84.5456C229.211 84.6436 229.266 84.7766 229.266 84.9153Z" fill="#5BD595"/>
<path d="M197.616 105.631C197.616 105.77 197.561 105.903 197.463 106.001C197.365 106.099 197.232 106.154 197.094 106.155H195.515C195.446 106.155 195.378 106.141 195.315 106.115C195.251 106.088 195.194 106.05 195.145 106.001C195.097 105.953 195.058 105.895 195.032 105.831C195.006 105.768 194.992 105.7 194.992 105.631C194.992 105.492 195.047 105.36 195.145 105.261C195.243 105.163 195.376 105.108 195.515 105.108H197.095C197.233 105.109 197.366 105.164 197.464 105.262C197.562 105.36 197.617 105.493 197.617 105.631H197.616Z" fill="#5BD595"/>
<path d="M197.616 106.58C197.616 106.649 197.603 106.717 197.577 106.781C197.551 106.844 197.512 106.902 197.464 106.95C197.415 106.999 197.357 107.038 197.294 107.064C197.23 107.09 197.162 107.104 197.094 107.104H195.515C195.446 107.104 195.378 107.09 195.315 107.064C195.251 107.038 195.194 106.999 195.145 106.95C195.097 106.902 195.058 106.844 195.032 106.781C195.006 106.717 194.992 106.649 194.992 106.58C194.992 106.442 195.047 106.309 195.145 106.211C195.243 106.113 195.376 106.058 195.515 106.058H197.095C197.233 106.058 197.366 106.113 197.464 106.211C197.562 106.309 197.617 106.442 197.617 106.58H197.616Z" fill="#5BD595"/>
<path d="M197.616 107.531C197.616 107.67 197.561 107.803 197.463 107.901C197.365 107.999 197.232 108.055 197.094 108.055H195.515C195.446 108.055 195.378 108.041 195.315 108.015C195.251 107.989 195.194 107.95 195.145 107.901C195.097 107.853 195.058 107.795 195.032 107.732C195.006 107.668 194.992 107.6 194.992 107.531C194.992 107.463 195.006 107.395 195.032 107.331C195.058 107.268 195.097 107.21 195.145 107.161C195.194 107.113 195.251 107.074 195.315 107.048C195.378 107.021 195.446 107.008 195.515 107.008H197.095C197.233 107.008 197.366 107.063 197.464 107.161C197.562 107.26 197.617 107.393 197.617 107.531H197.616Z" fill="#5BD595"/>
<path d="M197.616 108.481C197.616 108.619 197.561 108.752 197.463 108.85C197.365 108.948 197.232 109.003 197.094 109.003H195.515C195.376 109.003 195.243 108.948 195.145 108.85C195.047 108.752 194.992 108.619 194.992 108.481C194.992 108.342 195.047 108.209 195.145 108.111C195.243 108.013 195.376 107.958 195.515 107.958H197.095C197.233 107.958 197.366 108.013 197.464 108.111C197.562 108.209 197.617 108.342 197.617 108.481H197.616Z" fill="#5BD595"/>
<path d="M234.763 105.68C234.763 105.818 234.708 105.951 234.61 106.049C234.512 106.147 234.379 106.202 234.24 106.202H232.664C232.526 106.202 232.393 106.147 232.295 106.049C232.197 105.951 232.142 105.818 232.142 105.68C232.142 105.611 232.155 105.543 232.181 105.479C232.208 105.416 232.246 105.358 232.295 105.31C232.343 105.261 232.401 105.222 232.464 105.196C232.528 105.17 232.596 105.156 232.664 105.156H234.243C234.382 105.156 234.515 105.212 234.613 105.31C234.711 105.408 234.766 105.541 234.766 105.68H234.763Z" fill="#5BD595"/>
<path d="M234.763 106.629C234.763 106.768 234.708 106.901 234.61 106.999C234.512 107.097 234.379 107.152 234.24 107.152H232.664C232.596 107.152 232.528 107.139 232.464 107.113C232.401 107.086 232.343 107.048 232.295 106.999C232.246 106.95 232.208 106.893 232.181 106.829C232.155 106.766 232.142 106.698 232.142 106.629C232.142 106.56 232.155 106.492 232.181 106.429C232.208 106.365 232.246 106.307 232.295 106.259C232.343 106.21 232.401 106.172 232.464 106.145C232.528 106.119 232.596 106.105 232.664 106.105H234.243C234.382 106.106 234.515 106.161 234.613 106.259C234.711 106.357 234.766 106.49 234.766 106.629H234.763Z" fill="#5BD595"/>
<path d="M234.763 107.58C234.763 107.649 234.749 107.717 234.723 107.781C234.697 107.844 234.658 107.902 234.61 107.951C234.561 107.999 234.504 108.038 234.44 108.064C234.377 108.091 234.309 108.104 234.24 108.105H232.664C232.596 108.104 232.528 108.091 232.464 108.064C232.401 108.038 232.343 107.999 232.295 107.951C232.246 107.902 232.208 107.844 232.181 107.781C232.155 107.717 232.142 107.649 232.142 107.58C232.142 107.442 232.197 107.309 232.295 107.211C232.393 107.113 232.526 107.058 232.664 107.058H234.243C234.382 107.058 234.515 107.113 234.613 107.211C234.711 107.309 234.766 107.442 234.766 107.58H234.763Z" fill="#5BD595"/>
<path d="M234.763 108.53C234.763 108.668 234.708 108.801 234.61 108.899C234.512 108.998 234.379 109.053 234.24 109.053H232.664C232.596 109.053 232.528 109.039 232.464 109.013C232.401 108.987 232.343 108.948 232.295 108.9C232.246 108.851 232.208 108.793 232.181 108.73C232.155 108.666 232.142 108.598 232.142 108.53C232.142 108.391 232.197 108.258 232.295 108.16C232.393 108.062 232.526 108.007 232.664 108.007H234.243C234.382 108.007 234.515 108.062 234.613 108.16C234.711 108.258 234.766 108.391 234.766 108.53H234.763Z" fill="#5BD595"/>
<path d="M188.125 115.85H143.616V142.559H188.125V115.85Z" fill="#71D3CA"/>
<path d="M155.66 115.85H143.616V142.559H155.66V115.85Z" fill="#4AA29A"/>
<path d="M152.393 118.933H142.34V120.549H152.393V118.933Z" fill="#34726C"/>
<path d="M152.392 118.933H150.323V120.549H152.392V118.933Z" fill="#3C857E"/>
<path d="M140.899 121.355H153.982L153.538 119.747H141.342L140.899 121.355Z" fill="#3C857E"/>
<path d="M150.544 121.355H140.899V132.797H150.544V121.355Z" fill="#459991"/>
<path d="M153.981 121.355H149.674V132.797H153.981V121.355Z" fill="#459991"/>
<path d="M149.674 121.355L150.008 119.747H153.538L153.982 121.355H149.674Z" fill="#34726C"/>
<path d="M144.242 127.325H147.2L145.721 124.368L144.242 127.325Z" fill="#4CA1BF"/>
<path d="M146.914 127.125L145.721 124.803L144.528 127.125H146.914Z" fill="#FFCF03"/>
<path d="M145.963 126.932L145.986 125.884L145.715 126.246L145.643 125.323L145.637 126.527L145.855 126.225L145.963 126.932Z" fill="#6D76A1"/>
<path d="M153.353 122.778H150.323V124.589H153.353V122.778Z" fill="#3C857E"/>
<path d="M152.978 123.009H150.697V123.231H152.978V123.009Z" fill="#34726C"/>
<path d="M152.978 123.397H150.697V123.619H152.978V123.397Z" fill="#34726C"/>
<path d="M152.978 123.795H150.697V124.018H152.978V123.795Z" fill="#34726C"/>
<path d="M152.978 124.183H150.697V124.404H152.978V124.183Z" fill="#34726C"/>
<path d="M157.956 137.858L157.976 120.918L186.536 120.953L186.515 137.896L157.956 137.858Z" fill="#3C857E"/>
<path d="M182.235 135.797L182.248 123.04L183.49 123.042L183.474 135.799L182.235 135.797Z" fill="#34726C"/>
<path d="M184.254 135.797L184.268 123.04L185.51 123.042L185.493 135.799L184.254 135.797Z" fill="#464F72"/>
<path d="M180.065 135.796L180.081 123.038L181.324 123.04L181.308 135.796H180.065Z" fill="#34726C"/>
<path d="M177.856 123.031L177.84 135.788L179.082 135.79L179.097 123.033L177.856 123.031Z" fill="#34726C"/>
<path d="M175.677 135.791L175.694 123.033L176.935 123.035L176.918 135.793L175.677 135.791Z" fill="#34726C"/>
<path d="M173.469 135.786L173.485 123.029L174.726 123.031L174.711 135.788L173.469 135.786Z" fill="#34726C"/>
<path d="M171.302 135.784L171.316 123.026L172.557 123.029L172.543 135.784H171.302Z" fill="#34726C"/>
<path d="M168.914 122.905V135.663H170.156V122.905H168.914Z" fill="#34726C"/>
<path d="M166.912 135.776L166.928 123.021L168.169 123.022L168.154 135.78L166.912 135.776Z" fill="#34726C"/>
<path d="M164.276 135.776L164.291 123.019L165.534 123.02L165.517 135.777L164.276 135.776Z" fill="#34726C"/>
<path d="M162.054 135.774L162.072 123.016L163.312 123.018L163.296 135.776L162.054 135.774Z" fill="#34726C"/>
<path d="M159.886 135.769L159.902 123.012L161.144 123.014L161.127 135.772L159.886 135.769Z" fill="#34726C"/>
<path d="M189.918 113.412C189.941 113.076 190.339 112.149 191.291 112.053C192.565 111.923 194.978 112.921 196.409 111.886C197.839 110.85 197.714 109.657 197.734 108.85C197.753 108.042 197.379 107.712 197.442 107.244C197.506 106.775 198.058 106.873 198.34 108.175C198.476 108.798 199.51 111.793 198.031 113.344C196.095 115.376 189.803 115.404 189.918 113.412Z" fill="#FBC6B4"/>
<path d="M189.807 112.753C189.807 112.753 189.45 114.113 191.454 114.698C193.458 115.284 194.412 115.263 194.412 115.263C194.412 115.263 195.167 114.124 194.968 111.988C194.968 111.988 190.034 110.769 189.807 112.753Z" fill="#EDA503"/>
<path d="M185.128 113.972C185.155 114.689 185.072 115.407 184.88 116.099C184.807 116.366 184.717 116.629 184.612 116.885C184.256 117.736 184.037 119.022 183.44 120.013C183.934 120.354 183.509 121.062 183.474 121.111C181.795 123.174 189.632 123.133 191.308 121.54C191.885 120.992 191.678 120.072 192.051 118.843C192.144 118.57 192.219 118.289 192.289 118.012C192.627 116.745 192.839 115.479 192.862 114.587C192.929 111.885 190.541 111.183 189.021 111.037C188.331 110.969 187.435 110.874 186.669 111.106V111.112C185.775 111.399 185.075 112.145 185.128 113.972Z" fill="#FFB502"/>
<path d="M191.795 128.067C189.454 129.842 184.949 134.04 185.905 134.881C186.861 135.722 187.683 135.851 187.26 135.208C186.837 134.564 186.878 134.477 187.044 134.316C188.084 133.303 190.793 132.072 192.556 130.832C194.598 129.391 193.839 126.512 191.795 128.067Z" fill="#FBC6B4"/>
<path d="M185.887 134.057C185.887 134.057 186.429 135.139 187.261 135.204C187.261 135.204 188.104 136.145 187.288 135.899C186.472 135.653 185.126 134.899 185.887 134.057Z" fill="#FFB502"/>
<path d="M187.339 113.15C187.334 114.498 187.575 116.625 184.278 117.595C184.278 117.595 188.155 124.859 191.879 122.301C191.879 122.301 192.614 116.597 192.32 114.188C192.234 113.498 192.083 111.62 190.662 111.404C190.662 111.404 192.114 115.014 191.011 115.624C189.907 116.235 189.218 115.336 188.967 114.617C188.566 113.463 187.664 110.96 187.664 110.96L186.784 111.076C187.136 111.711 187.326 112.423 187.339 113.15Z" fill="#2E2E2E"/>
<path d="M188.238 108.945C188.238 108.945 188.888 110.029 188.15 110.72C187.39 111.428 190.763 112.8 190.614 112.141C190.425 111.292 189.934 110.827 190.251 109.8L188.238 108.945Z" fill="#F7B2A0"/>
<path d="M189.83 106.596C190.635 107.212 191.73 110.163 191.032 110.91C190.724 111.234 189.313 111.048 188.306 109.802C187.891 109.294 187.343 108.312 187.79 107.225C187.995 106.731 188.899 105.881 189.83 106.596Z" fill="#FBC6B4"/>
<path d="M190.614 106.884C190.815 107.249 190.777 107.337 189.65 107.631C188.523 107.925 188.318 107.868 188.463 108.128C188.888 108.896 188.055 108.823 188.573 109.735C189.09 110.648 188.068 110.168 187.565 109.428C187.467 109.277 186.907 108.558 187.339 107.313C187.847 105.858 189.873 105.549 190.614 106.884Z" fill="#404040"/>
<path d="M189.067 108.577C189.067 108.577 191.785 107.903 191.651 106.817C191.568 106.149 189.551 106.364 189.551 106.364L189.067 108.577Z" fill="#EDA503"/>
<path d="M190.72 107.047C190.418 108.084 189.648 108.547 187.339 109.097C187.339 109.097 186.243 107.006 187.759 105.954C189.097 105.028 190.915 106.387 190.72 107.047Z" fill="#FFB502"/>
<path d="M191.399 120.907C191.399 120.907 197.073 124.199 197.735 126.175C198.397 128.15 187.8 134.418 187.8 134.418C187.8 134.418 186.56 133.182 187.133 132.055C189.278 127.825 190.063 126.474 190.063 126.474L184.805 122.092L191.399 120.907Z" fill="#2E2E2E"/>
<path d="M183.807 131.276C183.023 134.107 181.984 140.178 183.254 140.265C184.524 140.353 185.257 139.963 184.531 139.703C183.806 139.443 183.784 139.354 183.818 139.125C184.031 137.689 185.437 135.066 186.083 133.014C186.839 130.63 184.491 128.801 183.807 131.276Z" fill="#FBC6B4"/>
<path d="M182.742 139.624C182.742 139.624 183.83 140.157 184.531 139.7C184.531 139.7 185.772 139.938 184.974 140.235C184.176 140.533 182.648 140.757 182.742 139.624Z" fill="#FFB502"/>
<path d="M184.278 117.595C184.278 117.595 183.106 119.984 182.39 123.416C181.526 127.552 182.314 137.706 182.314 137.706C182.314 137.706 182.135 138.031 184.665 137.714C185.344 137.627 188.49 123.796 188.49 123.796L187.65 119.925L184.278 117.595Z" fill="#2E2E2E"/>
<path d="M183.132 137.858C182.062 130.757 184.864 119.722 184.892 119.611L185.029 119.646C185.001 119.756 182.206 130.765 183.27 137.837L183.132 137.858Z" fill="white"/>
<path d="M185.535 112.103C185.662 111.805 186.208 111.283 187.093 111.508C188.279 111.81 190.118 113.486 191.738 113.018C193.357 112.551 193.632 111.445 193.913 110.728C194.194 110.011 193.965 109.595 194.173 109.194C194.38 108.793 194.847 109.062 194.676 110.321C194.594 110.921 194.549 113.947 192.719 114.853C190.323 116.056 184.782 113.852 185.535 112.103Z" fill="#FBC6B4"/>
<path d="M185.593 111.797C185.593 111.797 184.831 112.901 186.44 114.079C188.049 115.256 188.908 115.548 188.908 115.548C188.908 115.548 189.953 114.768 190.47 112.79C190.47 112.79 186.442 110.095 185.593 111.797Z" fill="#EDA503"/>
<path d="M186.577 145.178L186.056 144.967L195.604 121.419H190.013L180.379 145.178L179.859 144.967L189.634 120.856H196.439L186.577 145.178Z" fill="#464F72"/>
<path d="M191.73 131.442H185.532V132.005H191.73V131.442Z" fill="#464F72"/>
<path d="M190.488 134.348H184.291V134.91H190.488V134.348Z" fill="#464F72"/>
<path d="M189.416 137.283H183.218V137.846H189.416V137.283Z" fill="#464F72"/>
<path d="M188.07 140.276H181.873V140.839H188.07V140.276Z" fill="#464F72"/>
<path d="M199.434 145.17L193.002 128.035L193.528 127.837L199.961 144.973L199.434 145.17Z" fill="#464F72"/>
<path d="M187.098 128.28L186.571 128.478L193.003 145.615L193.53 145.417L187.098 128.28Z" fill="#464F72"/>
<path opacity="0.5" d="M120.917 90.9646C120.68 90.9644 120.448 90.894 120.251 90.7621C120.054 90.6302 119.9 90.4428 119.81 90.2236C119.719 90.0044 119.696 89.7632 119.742 89.5306C119.788 89.2979 119.902 89.0842 120.07 88.9165C120.238 88.7488 120.452 88.6347 120.684 88.5884C120.917 88.5422 121.158 88.566 121.377 88.6568C121.596 88.7476 121.783 88.9014 121.915 89.0986C122.047 89.2959 122.117 89.5278 122.117 89.765C122.116 90.0831 121.99 90.3882 121.765 90.6131C121.54 90.838 121.235 90.9644 120.917 90.9646ZM120.917 89.1002C120.786 89.1002 120.657 89.1391 120.548 89.2122C120.439 89.2853 120.353 89.3891 120.303 89.5106C120.253 89.6321 120.24 89.7657 120.265 89.8947C120.291 90.0237 120.354 90.1421 120.447 90.2351C120.54 90.3281 120.659 90.3914 120.787 90.4171C120.916 90.4427 121.05 90.4296 121.171 90.3792C121.293 90.3289 121.397 90.2437 121.47 90.1344C121.543 90.025 121.582 89.8965 121.582 89.765C121.582 89.6775 121.565 89.5908 121.532 89.5098C121.498 89.4289 121.45 89.3553 121.388 89.2933C121.326 89.2313 121.253 89.1821 121.172 89.1485C121.091 89.1149 121.005 89.0975 120.917 89.0974V89.1002Z" fill="white"/>
<path d="M130.001 93.1436L129.994 93.5583L130.978 93.5766L130.986 93.1625L130.001 93.1436Z" fill="#1C2745"/>
<path d="M128.535 93.1152L128.527 93.53L129.512 93.5483L129.52 93.1335L128.535 93.1152Z" fill="#1C2745"/>
<path d="M127.069 93.0869L127.061 93.5017L128.046 93.5207L128.054 93.1066L127.069 93.0869Z" fill="#1C2745"/>
<path d="M125.6 93.058L125.592 93.4727L126.576 93.4916L126.584 93.0769L125.6 93.058Z" fill="#1C2745"/>
<path d="M124.125 93.0287L124.117 93.4434L125.102 93.463L125.11 93.0483L124.125 93.0287Z" fill="#1C2745"/>
<path d="M122.67 93.0039L122.662 93.418L123.646 93.437L123.655 93.0229L122.67 93.0039Z" fill="#1C2745"/>
<path d="M121.209 92.9502L121.201 93.3643L122.185 93.384L122.193 92.9699L121.209 92.9502Z" fill="#1C2745"/>
<path d="M119.729 92.9447L119.721 93.3594L120.706 93.379L120.714 92.9643L119.729 92.9447Z" fill="#1C2745"/>
<path d="M118.27 92.919L118.262 93.333L119.246 93.3526L119.254 92.9386L118.27 92.919Z" fill="#1C2745"/>
<path d="M116.805 92.892L116.797 93.3066L117.782 93.3256L117.79 92.9109L116.805 92.892Z" fill="#1C2745"/>
<path d="M115.34 92.8643L115.332 93.2783L116.316 93.2965L116.324 92.8825L115.34 92.8643Z" fill="#1C2745"/>
<path d="M113.877 92.8105L113.869 93.2246L114.854 93.2443L114.862 92.8302L113.877 92.8105Z" fill="#1C2745"/>
<path d="M112.402 92.8067L112.394 93.2207L113.378 93.2396L113.386 92.8256L112.402 92.8067Z" fill="#1C2745"/>
<path d="M110.937 92.7777L110.928 93.1924L111.913 93.212L111.921 92.7973L110.937 92.7777Z" fill="#1C2745"/>
<g opacity="0.5">
<path d="M133.404 122.007L129.884 118.539L130.615 117.795L134.135 121.262L133.404 122.007Z" fill="white"/>
<path d="M133.364 117.797L129.911 121.257L130.649 121.994L134.102 118.533L133.364 117.797Z" fill="white"/>
</g>
<g opacity="0.5">
<path d="M103.442 91.7021H97.6755V92.1488H103.442V91.7021Z" fill="#404040"/>
<path d="M103.106 90.2451H99.9265V90.6904H103.106V90.2451Z" fill="#404040"/>
</g>
<path d="M106.227 155.412L106.525 155.133L107.715 156.394C107.886 156.574 108.121 156.68 108.369 156.688C108.618 156.696 108.859 156.606 109.042 156.437L110.058 155.488C110.187 155.367 110.34 155.272 110.506 155.21C110.672 155.148 110.849 155.119 111.026 155.125C111.204 155.132 111.378 155.173 111.539 155.247C111.701 155.321 111.846 155.426 111.967 155.556L112.749 156.398C112.834 156.49 112.937 156.563 113.05 156.615C113.164 156.666 113.287 156.694 113.412 156.698C113.536 156.701 113.661 156.68 113.777 156.635C113.894 156.591 114 156.523 114.09 156.437L114.978 155.583C115.111 155.456 115.269 155.357 115.442 155.293C115.615 155.229 115.799 155.201 115.983 155.211C116.167 155.221 116.347 155.268 116.512 155.35C116.677 155.432 116.823 155.547 116.942 155.688L117.427 156.264C117.515 156.367 117.624 156.451 117.746 156.509C117.869 156.567 118.003 156.598 118.138 156.599C118.274 156.6 118.409 156.573 118.532 156.517C118.656 156.462 118.767 156.381 118.857 156.279L119.933 155.05L120.239 155.321L119.164 156.551C119.035 156.698 118.877 156.815 118.699 156.894C118.522 156.973 118.329 157.013 118.134 157.011C117.939 157.009 117.748 156.965 117.572 156.881C117.396 156.798 117.24 156.677 117.115 156.528L116.633 155.952C116.55 155.853 116.447 155.773 116.332 155.715C116.216 155.658 116.09 155.624 115.962 155.618C115.833 155.611 115.704 155.631 115.583 155.676C115.462 155.721 115.352 155.79 115.259 155.879L114.369 156.733C114.24 156.857 114.088 156.954 113.921 157.018C113.754 157.083 113.576 157.114 113.398 157.109C113.219 157.104 113.043 157.063 112.88 156.989C112.717 156.915 112.571 156.81 112.449 156.678L111.667 155.837C111.497 155.654 111.26 155.546 111.01 155.537C110.886 155.532 110.762 155.551 110.646 155.594C110.53 155.637 110.423 155.703 110.333 155.789L109.317 156.737C109.055 156.979 108.709 157.108 108.354 157.097C107.998 157.086 107.661 156.935 107.416 156.677L106.227 155.412Z" fill="#FFB502"/>
<g opacity="0.5">
<path d="M132.454 103.376L132.09 103.745L133.838 105.467L134.202 105.097L132.454 103.376Z" fill="white"/>
<path d="M132.473 105.461L132.107 105.095L133.82 103.377L134.187 103.743L132.473 105.461Z" fill="white"/>
</g>
<g opacity="0.5">
<path d="M130.995 111.394C130.831 111.394 130.671 111.345 130.535 111.254C130.399 111.163 130.293 111.033 130.231 110.882C130.168 110.731 130.152 110.564 130.184 110.403C130.216 110.243 130.295 110.095 130.41 109.98C130.526 109.864 130.674 109.785 130.834 109.753C130.995 109.721 131.161 109.738 131.313 109.8C131.464 109.863 131.593 109.969 131.684 110.105C131.775 110.242 131.823 110.402 131.823 110.565C131.823 110.785 131.735 110.996 131.58 111.151C131.425 111.306 131.214 111.393 130.995 111.394ZM130.995 110.106C130.904 110.106 130.815 110.133 130.74 110.183C130.665 110.234 130.606 110.305 130.571 110.389C130.536 110.473 130.527 110.565 130.545 110.654C130.563 110.743 130.606 110.825 130.671 110.889C130.735 110.953 130.816 110.997 130.905 111.015C130.994 111.032 131.087 111.023 131.17 110.989C131.254 110.954 131.326 110.895 131.376 110.82C131.427 110.744 131.454 110.656 131.454 110.565C131.453 110.443 131.404 110.327 131.319 110.241C131.233 110.155 131.116 110.107 130.995 110.107V110.106Z" fill="white"/>
<path d="M135.209 110.649L135.419 110.416C135.419 110.416 135.316 110.311 135.211 110.209C135.106 110.107 135.016 109.985 135.016 109.985L134.773 110.182C134.773 110.182 134.877 110.303 134.982 110.423L135.209 110.649Z" fill="white"/>
<path d="M136.074 111.125L136.142 110.817C136.053 110.797 135.967 110.767 135.885 110.729C135.826 110.704 135.769 110.673 135.716 110.637L135.641 110.589L135.464 110.848L135.551 110.903C135.615 110.947 135.683 110.984 135.754 111.014C135.857 111.062 135.964 111.099 136.074 111.125Z" fill="white"/>
<path d="M137.063 110.996L136.938 110.708C136.852 110.747 136.763 110.778 136.671 110.802C136.583 110.826 136.492 110.839 136.4 110.842L136.41 111.157C136.524 111.152 136.638 111.136 136.748 111.106C136.856 111.078 136.961 111.041 137.063 110.996Z" fill="white"/>
<path d="M137.876 110.527L137.707 110.264L137.449 110.427L137.193 110.581L137.345 110.852L137.616 110.691L137.876 110.527Z" fill="white"/>
<path d="M138.646 110.124L138.552 109.825C138.448 109.86 138.346 109.901 138.247 109.949C138.102 110.02 137.966 110.101 137.966 110.101L138.126 110.372C138.126 110.372 138.254 110.296 138.384 110.23C138.469 110.19 138.557 110.154 138.646 110.124Z" fill="white"/>
<path d="M139.423 110.163L139.552 109.878C139.448 109.829 139.337 109.795 139.224 109.774C139.11 109.754 138.993 109.749 138.878 109.759L138.907 110.073C138.995 110.063 139.083 110.067 139.169 110.083C139.256 110.1 139.342 110.127 139.423 110.163Z" fill="white"/>
<path d="M140.077 110.691L140.313 110.483C140.313 110.483 140.204 110.367 140.09 110.252C140.028 110.199 139.966 110.145 139.919 110.106C139.892 110.084 139.864 110.064 139.835 110.046L139.655 110.303C139.655 110.303 139.684 110.321 139.726 110.354C139.768 110.387 139.822 110.435 139.875 110.482C139.977 110.581 140.077 110.691 140.077 110.691Z" fill="white"/>
</g>
<path d="M82.9427 93.3845L83.4853 93.3825L83.4792 92.0928L82.9373 92.0948L82.9427 93.3845Z" fill="#1C2745"/>
<path d="M83.4858 94.0139L82.9438 94.0166L82.9504 95.3063L83.4923 95.3035L83.4858 94.0139Z" fill="#1C2745"/>
<path d="M82.9624 97.226L83.505 97.2233L83.4982 95.9336L82.9563 95.9363L82.9624 97.226Z" fill="#1C2745"/>
<path d="M83.5101 97.854L82.9675 97.8564L82.9734 99.1461L83.516 99.1437L83.5101 97.854Z" fill="#1C2745"/>
<path d="M82.9812 101.068L83.5239 101.066L83.5178 99.7764L82.9758 99.7784L82.9812 101.068Z" fill="#1C2745"/>
<path d="M82.9914 102.989L83.5341 102.986L83.5273 101.696L82.9854 101.699L82.9914 102.989Z" fill="#1C2745"/>
<path d="M83.001 104.907L83.5436 104.906L83.5368 103.616L82.9949 103.619L83.001 104.907Z" fill="#1C2745"/>
<path d="M100.82 95.3906H85.604V151.439H100.82V95.3906Z" fill="#4AA29A"/>
<path d="M127.684 95.3896H100.819V151.438H127.684V95.3896Z" fill="#71D3CA"/>
<path d="M96.7841 136.795H89.6411V148.849H96.7841V136.795Z" fill="#459991"/>
<path d="M95.9013 138.082H90.5225V138.606H95.9013V138.082Z" fill="#34726C"/>
<path d="M95.9013 138.996H90.5225V139.52H95.9013V138.996Z" fill="#34726C"/>
<path d="M95.9013 139.932H90.5225V140.457H95.9013V139.932Z" fill="#34726C"/>
<path d="M95.9013 140.847H90.5225V141.372H95.9013V140.847Z" fill="#34726C"/>
<path d="M95.9013 141.78H90.5225V142.304H95.9013V141.78Z" fill="#34726C"/>
<path d="M95.9013 142.694H90.5225V143.218H95.9013V142.694Z" fill="#34726C"/>
<path d="M95.9013 143.631H90.5225V144.154H95.9013V143.631Z" fill="#34726C"/>
<path d="M95.9013 144.545H90.5225V145.07H95.9013V144.545Z" fill="#34726C"/>
<path d="M95.9013 145.659H90.5225V146.184H95.9013V145.659Z" fill="#34726C"/>
<path d="M95.9013 146.596H90.5225V147.119H95.9013V146.596Z" fill="#34726C"/>
<path d="M95.9013 147.511H90.5225V148.035H95.9013V147.511Z" fill="#34726C"/>
<path d="M96.8737 110.507H89.5496L93.2123 103.179L96.8737 110.507Z" fill="#3C857E"/>
<path d="M90.2583 110.009L93.2123 104.256L96.1655 110.009H90.2583Z" fill="#E2581D"/>
<path d="M92.611 109.531L92.5552 106.933L93.2246 107.838L93.4064 105.552L93.4179 108.532L92.8766 107.779L92.611 109.531Z" fill="white"/>
<path d="M124.665 100.024H104.147V108.596H124.665V100.024Z" fill="#3C857E"/>
<path d="M123.619 101.037H108.753V105.324H123.619V101.037Z" fill="#34726C"/>
<path d="M124.665 110.706H104.147V113.035H124.665V110.706Z" fill="#3C857E"/>
<path d="M105.683 115.808H104.147V124.34H105.683V115.808Z" fill="#3C857E"/>
<path d="M108.417 115.808H106.879V124.34H108.417V115.808Z" fill="#3C857E"/>
<path d="M111.149 115.808H109.613V124.34H111.149V115.808Z" fill="#3C857E"/>
<path d="M113.883 115.808H112.345V124.34H113.883V115.808Z" fill="#3C857E"/>
<path d="M116.189 115.808H114.651V124.34H116.189V115.808Z" fill="#3C857E"/>
<path d="M118.922 115.808H117.384V124.34H118.922V115.808Z" fill="#3C857E"/>
<path d="M121.654 115.808H120.117V124.34H121.654V115.808Z" fill="#3C857E"/>
<path d="M124.387 115.808H122.85V124.34H124.387V115.808Z" fill="#3C857E"/>
<path d="M123.716 123.413H123.522V140.457H123.716V123.413Z" fill="#3C857E"/>
<path d="M120.983 123.413H120.79V140.457H120.983V123.413Z" fill="#3C857E"/>
<path d="M118.25 123.413H118.056V140.457H118.25V123.413Z" fill="#3C857E"/>
<path d="M115.516 123.413H115.323V140.457H115.516V123.413Z" fill="#3C857E"/>
<path d="M113.211 123.413H113.018V140.457H113.211V123.413Z" fill="#3C857E"/>
<path d="M110.478 123.413H110.285V140.457H110.478V123.413Z" fill="#3C857E"/>
<path d="M107.745 123.413H107.552V140.457H107.745V123.413Z" fill="#3C857E"/>
<path d="M105.013 123.413H104.819V140.457H105.013V123.413Z" fill="#3C857E"/>
<path d="M124.665 140.272H104.147V141.305H124.665V140.272Z" fill="#3C857E"/>
<path d="M104.848 116.836L104.859 115.341C104.859 115.16 104.931 114.985 105.058 114.856C105.165 114.749 105.309 114.688 105.46 114.687H105.464L108.023 114.707C108.148 114.706 108.271 114.681 108.386 114.632C108.501 114.583 108.604 114.51 108.69 114.42C108.867 114.232 108.965 113.984 108.964 113.727L108.978 111.873H108.591L108.578 113.727C108.578 113.886 108.518 114.04 108.41 114.156C108.361 114.209 108.303 114.251 108.237 114.28C108.172 114.309 108.102 114.325 108.03 114.325H108.026L105.467 114.306H105.459C105.207 114.307 104.965 114.408 104.786 114.585C104.586 114.787 104.473 115.06 104.472 115.345L104.46 116.836H104.848Z" fill="#3C857E"/>
<path d="M110.366 116.836L110.376 115.341C110.375 115.166 110.441 114.998 110.56 114.871C110.613 114.813 110.678 114.767 110.75 114.735C110.821 114.704 110.899 114.687 110.977 114.686H110.982L113.54 114.706H113.549C113.673 114.706 113.795 114.68 113.909 114.63C114.022 114.58 114.124 114.507 114.208 114.415C114.384 114.228 114.482 113.982 114.483 113.725L114.495 111.869H114.109L114.096 113.724C114.096 113.884 114.036 114.037 113.927 114.154C113.879 114.208 113.819 114.25 113.753 114.279C113.687 114.309 113.615 114.323 113.543 114.323L110.985 114.304H110.977C110.846 114.304 110.716 114.331 110.596 114.384C110.476 114.436 110.368 114.513 110.279 114.609C110.093 114.808 109.989 115.07 109.989 115.342L109.978 116.838L110.366 116.836Z" fill="#3C857E"/>
<path d="M115.547 116.836L115.558 115.34C115.558 114.979 115.802 114.686 116.095 114.686L118.441 114.704H118.447C118.663 114.702 118.868 114.614 119.02 114.461C119.213 114.263 119.321 113.997 119.32 113.721L119.335 111.867H118.947L118.933 113.721C118.935 113.895 118.869 114.062 118.748 114.188C118.709 114.229 118.662 114.261 118.61 114.284C118.558 114.307 118.502 114.319 118.446 114.32L116.1 114.301H116.094C115.588 114.301 115.174 114.766 115.169 115.34L115.159 116.836H115.547Z" fill="#3C857E"/>
<path d="M120.906 116.835L120.916 115.342C120.914 115.168 120.967 114.998 121.067 114.855C121.099 114.807 121.141 114.767 121.191 114.738C121.24 114.709 121.296 114.691 121.353 114.687L123.385 114.7H123.391C123.573 114.697 123.746 114.622 123.873 114.492C124.07 114.283 124.178 114.005 124.173 113.718L124.188 111.863H123.801L123.786 113.718C123.791 113.902 123.725 114.082 123.601 114.219C123.546 114.277 123.47 114.312 123.39 114.316L121.358 114.302H121.352C121.234 114.305 121.119 114.336 121.015 114.392C120.911 114.448 120.822 114.527 120.755 114.624C120.604 114.832 120.525 115.083 120.526 115.34L120.515 116.834L120.906 116.835Z" fill="#3C857E"/>
<path d="M124.665 142.954H104.147V146.182H124.665V142.954Z" fill="#3C857E"/>
<path d="M105.683 127.767H104.147V129.986H105.683V127.767Z" fill="#3C857E"/>
<path d="M108.417 134.055H106.879V136.274H108.417V134.055Z" fill="#3C857E"/>
<path d="M111.149 128.877H109.613V131.095H111.149V128.877Z" fill="#3C857E"/>
<path d="M113.882 137.233H112.345V139.453H113.882V137.233Z" fill="#3C857E"/>
<path d="M116.189 126.657H114.651V128.877H116.189V126.657Z" fill="#3C857E"/>
<path d="M121.478 127.767H119.94V129.986H121.478V127.767Z" fill="#3C857E"/>
<path d="M124.387 136.123H122.85V138.343H124.387V136.123Z" fill="#3C857E"/>
<path d="M101.559 100.797H100.574V114.344H101.559V100.797Z" fill="#71D3CA"/>
<path d="M101.559 131.865H100.574V145.415H101.559V131.865Z" fill="#71D3CA"/>
<path d="M161.799 173.059H166.212L162.31 162.334H157.899L161.799 173.059Z" fill="#34726C"/>
<path d="M172.433 171.92H156.838V174.199H172.433V171.92Z" fill="#34726C"/>
<path d="M138.509 165.351H179.385H180.59L189.751 140.17L188.701 139.742H147.826L138.509 165.351Z" fill="#34726C"/>
<path d="M160.525 173.059H164.938L161.034 162.334H156.623L160.525 173.059Z" fill="#3C857E"/>
<path d="M137.303 165.352H179.384L188.7 139.743H146.62L137.303 165.352Z" fill="#3C857E"/>
<path d="M175.899 148.525H182.745L185.195 141.797H178.347L175.899 148.525Z" fill="#5FBAB2"/>
<path d="M173.229 155.864H180.076L182.524 149.137H175.676L173.229 155.864Z" fill="#5FBAB2"/>
<path d="M170.558 163.204H177.406L179.854 156.476H173.007L170.558 163.204Z" fill="#5FBAB2"/>
<path d="M168.478 148.585H175.327L177.774 141.855H170.926L168.478 148.585Z" fill="#5FBAB2"/>
<path d="M165.808 155.926H172.656L175.104 149.197H168.256L165.808 155.926Z" fill="#5FBAB2"/>
<path d="M163.138 163.266H169.985L172.433 156.538H165.585L163.138 163.266Z" fill="#5FBAB2"/>
<path d="M161.03 148.555H167.878L170.327 141.826H163.478L161.03 148.555Z" fill="#5FBAB2"/>
<path d="M158.359 155.894H165.207L167.656 149.167H160.809L158.359 155.894Z" fill="#5FBAB2"/>
<path d="M155.69 163.236H162.536L164.985 156.507H158.138L155.69 163.236Z" fill="#5FBAB2"/>
<path d="M153.61 148.616H160.458L162.906 141.888H156.059L153.61 148.616Z" fill="#5FBAB2"/>
<path d="M150.94 155.956H157.787L160.236 149.228H153.387L150.94 155.956Z" fill="#5FBAB2"/>
<path d="M148.27 163.296H155.117L157.565 156.567H150.717L148.27 163.296Z" fill="#5FBAB2"/>
<path d="M146.151 148.616H152.999L155.446 141.888H148.599L146.151 148.616Z" fill="#5FBAB2"/>
<path d="M143.48 155.956H150.327L152.777 149.228H145.928L143.48 155.956Z" fill="#5FBAB2"/>
<path d="M140.811 163.296H147.659L150.106 156.567H143.258L140.811 163.296Z" fill="#5FBAB2"/>
<path d="M168.028 171.92H155.562V174.199H168.028V171.92Z" fill="#3C857E"/>
<path d="M126.345 174.897H130.087L126.777 165.802H123.037L126.345 174.897Z" fill="#34726C"/>
<path d="M135.363 173.932H122.137V175.863H135.363V173.932Z" fill="#34726C"/>
<path d="M106.594 168.361H141.257H142.28L150.049 147.007L149.157 146.644H114.494L106.594 168.361Z" fill="#2A5E59"/>
<path d="M125.263 174.897H129.004L125.696 165.802H121.954L125.263 174.897Z" fill="#3C857E"/>
<path d="M105.57 168.361H141.257L149.157 146.644H113.472L105.57 168.361Z" fill="#34726C"/>
<path d="M138.301 154.09H144.107L146.184 148.385H140.376L138.301 154.09Z" fill="#5FBAB2"/>
<path d="M136.036 160.317H141.843L143.92 154.609H138.112L136.036 160.317Z" fill="#5FBAB2"/>
<path d="M133.772 166.54H139.579L141.655 160.834H135.847L133.772 166.54Z" fill="#5FBAB2"/>
<path d="M132.009 154.142H137.815L139.891 148.437H134.084L132.009 154.142Z" fill="#5FBAB2"/>
<path d="M129.744 160.368H135.551L137.626 154.661H131.819L129.744 160.368Z" fill="#5FBAB2"/>
<path d="M127.478 166.591H133.286L135.363 160.886H129.555L127.478 166.591Z" fill="#5FBAB2"/>
<path d="M125.692 154.118H131.499L133.575 148.412H127.768L125.692 154.118Z" fill="#5FBAB2"/>
<path d="M123.427 160.343H129.234L131.31 154.636H125.504L123.427 160.343Z" fill="#5FBAB2"/>
<path d="M121.163 166.566H126.97L129.046 160.86H123.239L121.163 166.566Z" fill="#5FBAB2"/>
<path d="M119.399 154.168H125.206L127.282 148.463H121.476L119.399 154.168Z" fill="#5FBAB2"/>
<path d="M117.135 160.395H122.941L125.018 154.688H119.211L117.135 160.395Z" fill="#5FBAB2"/>
<path d="M114.871 166.618H120.677L122.754 160.912H116.946L114.871 166.618Z" fill="#5FBAB2"/>
<path d="M113.073 154.168H118.882L120.956 148.463H115.149L113.073 154.168Z" fill="#5FBAB2"/>
<path d="M110.808 160.395H116.616L118.692 154.688H112.885L110.808 160.395Z" fill="#5FBAB2"/>
<path d="M108.544 166.618H114.352L116.427 160.912H110.62L108.544 166.618Z" fill="#5FBAB2"/>
<path d="M131.627 173.932H121.054V175.863H131.627V173.932Z" fill="#3C857E"/>
<path d="M165.797 136.66C165.797 136.66 165.369 135.586 164.445 135.298C163.619 135.04 164.166 136.076 165.029 137.151L165.797 136.66Z" fill="#F7B2A0"/>
<path d="M175.161 142.379C175.833 142.755 175.87 143.433 175.203 144.24C174.183 145.478 172.91 144.734 170.472 143.643C167.702 142.403 164.873 137.049 164.873 137.049C164.873 137.049 165.011 136.346 165.7 136.462C165.7 136.462 167.841 139.302 170.574 140.562C171.917 141.183 173.746 141.589 175.161 142.379Z" fill="#EDA503"/>
<path d="M170.819 141.686C169.563 142.643 168.497 144.978 167.996 152.617C167.887 154.296 177.626 154.702 177.662 153.016C177.75 148.539 176.983 146.695 175.703 142.65C175.35 141.556 173.299 139.773 170.819 141.686Z" fill="#FFB502"/>
<path d="M181.294 174.344C181.8 173.767 181.78 173.68 181.64 173.497C181.512 173.33 181.372 173.175 181.22 173.03L182.332 172.354C182.532 172.695 182.694 173.057 182.813 173.434C182.728 173.541 182.073 174.404 181.294 174.344Z" fill="#FBC6B4"/>
<path d="M182.816 173.436C182.817 173.428 182.821 173.42 182.826 173.414C183.457 174.356 182.016 174.914 181.17 175.037C180.324 175.16 181.297 174.346 181.297 174.346C182.073 174.403 182.728 173.54 182.816 173.436Z" fill="#FFB502"/>
<path d="M182.674 172.149C182.824 172.691 181.621 173.56 181.278 173.272C178.368 170.798 175.255 165.414 174.094 163.21C174.04 163.113 173.99 163.021 173.943 162.94C173.362 161.989 173.03 162.185 171.062 157.787C170.422 156.368 170.037 153.88 170.037 153.88L171.991 153.074L176.487 151.182C178.046 152.668 178.572 156.964 178.911 158.707C179.19 160.178 179.515 162.555 179.823 163.7C180.909 167.7 181.693 168.513 182.674 172.149Z" fill="#2E2E2E"/>
<path d="M169.902 175.422C170.604 175.113 170.622 175.021 170.574 174.796C170.525 174.594 170.462 174.395 170.387 174.201L171.68 174.05C171.717 174.444 171.712 174.841 171.662 175.233C171.545 175.294 170.591 175.801 169.902 175.422Z" fill="#FBC6B4"/>
<path d="M171.662 175.233C171.669 175.227 171.677 175.22 171.684 175.215C171.866 176.34 170.322 176.241 169.504 176C168.685 175.758 169.902 175.422 169.902 175.422C170.591 175.801 171.545 175.294 171.662 175.233Z" fill="#FFB502"/>
<path d="M174.259 160.217C173.897 161.675 173.091 163.176 173.091 165.221C173.091 169.377 172.699 170.299 172.08 174.008C172.011 174.439 171.101 174.711 170.611 174.612C170.543 174.602 170.478 174.576 170.422 174.537C170.383 174.519 170.352 174.488 170.334 174.449C168.729 170.987 167.652 165.096 167.507 162.616C167.419 161.151 167.463 161.331 167.516 156.111C167.531 154.55 168.209 152.13 168.209 152.13L174.692 152.341C175.487 154.344 174.675 158.498 174.259 160.217Z" fill="#404040"/>
<path d="M170.611 174.607C170.543 174.597 170.478 174.571 170.422 174.531C169.441 171.794 169.018 168.881 168.658 166.362C168.348 164.228 168.003 161.797 167.993 159.417C167.986 156.806 168.408 154.506 169.245 152.576C169.254 152.557 169.269 152.543 169.288 152.536C169.306 152.528 169.327 152.528 169.346 152.536C169.364 152.544 169.378 152.559 169.386 152.577C169.394 152.596 169.396 152.616 169.389 152.635C168.558 154.542 168.137 156.829 168.145 159.417C168.153 161.793 168.496 164.214 168.808 166.348C169.178 168.891 169.607 171.849 170.611 174.607Z" fill="white"/>
<path d="M169.782 142.408C169.782 142.408 171.841 144.567 170.934 148.378C170.934 148.378 170.278 150.786 168.156 150.557L167.751 154.097C167.751 154.097 171.669 156.17 177.667 153.269C177.667 153.269 178.545 147.354 175.534 142.295C175.534 142.295 174.903 141.33 174.195 141.108C174.195 141.108 177.698 146.965 175.026 147.473C172.354 147.982 170.814 141.691 170.814 141.691L169.782 142.408Z" fill="#404040"/>
<path d="M173.436 139.747C173.436 139.747 173.894 141.685 173.515 142.139C173.136 142.594 171.118 142.132 171.214 141.411C171.295 140.809 171.423 140.215 171.598 139.634L173.436 139.747Z" fill="#FBC6B4"/>
<path d="M174.567 137.753C174.567 139.458 173.614 140.841 172.439 140.841C171.913 140.841 170.738 140.984 170.366 140.525C169.909 139.96 169.907 138.506 170.17 137.607C170.776 135.523 171.662 134.837 172.833 134.837C174.005 134.837 174.567 136.048 174.567 137.753Z" fill="#FBC6B4"/>
<path d="M172.554 141.037C173.292 141.076 174.528 140.819 175.212 139.302C175.837 137.915 175.475 135.603 174.08 134.894C173.25 134.474 172.119 134.404 171.21 134.836C169.924 135.451 170.09 136.231 170.35 136.359C170.891 136.622 171.315 136.202 171.21 136.942C171.122 137.512 171.17 138.77 171.701 138.847C172.232 138.923 172.681 138.925 172.554 139.692C172.461 140.274 171.808 140.999 172.554 141.037Z" fill="#404040"/>
<path d="M171.501 137.335C171.501 137.335 168.6 135.65 169.428 134.819C170.103 134.144 172.397 135.035 172.397 135.035L171.501 137.335Z" fill="#EDA503"/>
<path d="M170.564 135.824C170.842 137.37 172.169 138.212 175.502 139.104C175.502 139.104 177.179 136.112 175.015 134.523C173.108 133.122 170.38 134.802 170.564 135.824Z" fill="#FFB502"/>
<path d="M168.36 158.294C164.448 158.294 161.271 152.399 161.271 148.55C161.273 146.669 162.021 144.866 163.35 143.537C164.679 142.207 166.48 141.459 168.36 141.456C172.147 141.456 176.305 145.863 176.305 149.875C176.305 153.887 172.147 158.294 168.36 158.294ZM168.36 141.827C166.578 141.83 164.87 142.539 163.61 143.8C162.351 145.061 161.642 146.77 161.64 148.552C161.64 152.254 164.651 157.925 168.36 157.925C171.972 157.925 175.937 153.711 175.937 149.878C175.937 146.045 171.972 141.827 168.36 141.827Z" fill="#C1E4FA"/>
<path d="M168.438 155.28C165.103 155.28 162.6 150.42 162.6 147.269C162.601 145.721 163.217 144.236 164.312 143.14C165.406 142.045 166.89 141.429 168.438 141.427C171.555 141.427 174.977 145.053 174.977 148.354C174.977 151.654 171.555 155.28 168.438 155.28ZM168.438 141.795C166.988 141.797 165.597 142.374 164.572 143.401C163.546 144.427 162.97 145.818 162.968 147.269C162.968 150.286 165.419 154.912 168.438 154.912C171.379 154.912 174.608 151.48 174.608 148.354C174.608 145.227 171.379 141.795 168.438 141.795Z" fill="#C1E4FA"/>
<path d="M168.672 154.281C165.338 154.281 162.833 149.422 162.833 146.271C162.835 144.723 163.451 143.238 164.546 142.143C165.64 141.048 167.124 140.432 168.672 140.43C171.789 140.43 175.211 144.054 175.211 147.356C175.211 150.657 171.789 154.281 168.672 154.281ZM168.672 140.798C167.222 140.799 165.831 141.377 164.806 142.403C163.78 143.429 163.203 144.82 163.202 146.271C163.202 149.289 165.653 153.909 168.672 153.909C171.613 153.909 174.842 150.477 174.842 147.352C174.842 144.227 171.613 140.798 168.672 140.798Z" fill="#C1E4FA"/>
<path d="M161.053 138.448C161.053 138.448 161.382 136.001 160.818 136.658C160.255 137.316 159.649 137.425 160.175 138.701L161.053 138.448Z" fill="#F7B2A0"/>
<path d="M170.558 142.563C171.556 143.951 170.909 145.035 170.042 145.619C168.713 146.517 166.338 147.655 163.549 146.472C160.76 145.29 160.053 138.557 160.053 138.557C160.053 138.557 160.384 137.926 161.014 138.231C161.014 138.231 162.479 143.28 165.16 143.754C166.453 143.98 169.612 141.246 170.558 142.563Z" fill="#FFB502"/>
<path d="M185.39 176.917C182.055 176.917 179.422 175.925 177.53 173.951C171.396 167.536 175.166 153.178 175.33 152.569L175.681 152.666C175.642 152.813 171.8 167.432 177.788 173.698C180.42 176.445 184.574 177.21 190.149 175.974L190.228 176.333C188.483 176.721 186.87 176.916 185.39 176.917Z" fill="#C1E4FA"/>
</g>
</svg>
