<svg width="1067" height="540" viewBox="0 0 1067 540" fill="none" xmlns="http://www.w3.org/2000/svg">
<g opacity="0.1">
<path d="M329.061 416.21C324.613 412.247 322.258 405.503 323.137 399.79C323.693 396.219 333.729 390.003 333.729 390.003L318.751 373.714C318.751 373.714 311.724 383.243 308.122 383.492C302.624 383.901 296.406 381.067 293.062 376.474C290.937 373.558 293.692 362.062 293.692 362.062L271.56 361.109C271.56 361.109 273.293 372.81 270.943 375.517C267.672 379.276 261.863 381.182 257.109 380.233C253.565 379.525 247.846 369.191 247.846 369.191L230.889 383.435C230.889 383.435 240.071 390.874 240.16 394.477C240.312 400.526 237.099 407.192 232.034 410.807C229.086 412.905 217.611 409.989 217.611 409.989L216.385 432.11C216.385 432.11 228.081 430.507 230.754 432.9C235.21 436.883 237.569 443.623 236.686 449.328C236.138 452.894 226.082 459.115 226.082 459.115L241.06 475.396C241.06 475.396 248.079 465.879 251.688 465.625C257.174 465.216 263.417 468.079 266.761 472.635C268.882 475.563 266.152 487.047 266.152 487.047L288.263 488C288.263 488 286.514 476.308 288.864 473.592C292.134 469.842 297.972 467.928 302.726 468.881C306.254 469.6 311.981 479.923 311.981 479.923L328.93 465.678C328.93 465.678 319.765 458.235 319.654 454.636C319.515 448.592 322.72 441.93 327.789 438.31C330.733 436.225 342.22 439.128 342.22 439.128L343.446 417.011C343.446 417.011 331.767 418.606 329.061 416.21ZM278.37 460.71C271.124 460.399 264.133 457.945 258.28 453.658C252.428 449.372 247.978 443.446 245.493 436.629C243.008 429.812 242.599 422.411 244.318 415.362C246.038 408.312 249.808 401.932 255.153 397.027C260.498 392.121 267.176 388.912 274.344 387.804C281.512 386.697 288.848 387.74 295.422 390.804C301.997 393.867 307.517 398.812 311.282 405.014C315.047 411.216 316.89 418.395 316.576 425.645C316.369 430.457 315.217 435.181 313.185 439.548C311.152 443.914 308.28 447.837 304.733 451.093C301.185 454.35 297.031 456.875 292.508 458.525C287.984 460.175 283.18 460.917 278.37 460.71Z" fill="#404040"/>
<path d="M307.931 425.758C307.69 431.296 305.814 436.639 302.538 441.11C299.263 445.582 294.736 448.981 289.529 450.879C284.323 452.776 278.671 453.087 273.288 451.771C267.905 450.455 263.033 447.572 259.288 443.486C255.543 439.4 253.093 434.295 252.247 428.817C251.402 423.338 252.2 417.731 254.54 412.706C256.879 407.681 260.656 403.463 265.392 400.584C270.128 397.706 275.61 396.298 281.147 396.537C284.824 396.693 288.435 397.573 291.772 399.127C295.109 400.68 298.107 402.877 300.595 405.591C303.083 408.305 305.011 411.483 306.27 414.944C307.529 418.404 308.093 422.079 307.931 425.758Z" fill="#404040"/>
</g>
<g opacity="0.1">
<path d="M165.328 311.915C158.787 306.1 155.345 296.207 156.637 287.823C157.455 282.584 172.171 273.464 172.171 273.464L150.195 249.564C150.195 249.564 139.885 263.546 134.611 263.906C126.542 264.499 117.422 260.352 112.512 253.617C109.397 249.331 113.436 232.469 113.436 232.469L80.9655 231.07C80.9655 231.07 83.5082 248.247 80.0621 252.21C75.271 257.723 66.7354 260.52 59.7573 259.126C54.5616 258.091 46.165 242.934 46.165 242.934L21.2981 263.82C21.2981 263.82 34.7882 274.74 34.9027 280.012C35.1194 288.886 30.406 298.673 22.9782 303.977C18.6532 307.053 1.81502 302.795 1.81502 302.795L0 335.251C0 335.251 17.1693 332.899 21.0814 336.408C27.6221 342.252 31.0805 352.141 29.7846 360.513C28.9671 365.748 14.226 374.868 14.226 374.868L36.2068 398.78C36.2068 398.78 46.4879 384.801 51.8022 384.429C59.8513 383.857 69.0124 388.008 73.9179 394.719C77.0329 399.013 73.0267 415.863 73.0267 415.863L105.469 417.261C105.469 417.261 102.901 400.085 106.352 396.122C111.159 390.621 119.715 387.811 126.689 389.21C131.864 390.265 140.273 405.413 140.273 405.413L165.136 384.511C165.136 384.511 151.687 373.592 151.531 368.308C151.327 359.441 156.028 349.663 163.464 344.355C167.785 341.295 184.635 345.553 184.635 345.553L186.43 313.105C186.43 313.105 169.281 315.428 165.328 311.915ZM90.9278 377.207C76.6707 376.59 63.2425 370.333 53.597 359.811C43.9516 349.29 38.8792 335.366 39.4955 321.103C40.1119 306.839 46.3666 293.405 56.8837 283.756C67.4007 274.106 81.3187 269.032 95.5758 269.648C125.23 270.941 148.31 296.047 146.986 325.746C146.684 332.81 144.995 339.744 142.014 346.154C139.032 352.563 134.818 358.322 129.61 363.101C124.403 367.88 118.305 371.586 111.666 374.006C105.027 376.427 97.9753 377.514 90.9155 377.207H90.9278Z" fill="#404040"/>
<path d="M134.309 325.945C133.956 334.07 131.203 341.909 126.397 348.469C121.592 355.03 114.95 360.017 107.311 362.802C99.6719 365.586 91.3795 366.041 83.4819 364.111C75.5843 362.18 68.4362 357.95 62.9415 351.955C57.4468 345.961 53.8522 338.471 52.6122 330.433C51.3722 322.394 52.5425 314.169 55.9751 306.796C59.4078 299.423 64.9486 293.234 71.897 289.011C78.8453 284.788 86.8893 282.722 95.0117 283.072C100.407 283.303 105.703 284.595 110.599 286.875C115.494 289.155 119.893 292.378 123.542 296.36C127.192 300.342 130.021 305.004 131.869 310.08C133.716 315.157 134.545 320.547 134.309 325.945Z" fill="#404040"/>
</g>
<g opacity="0.1">
<path d="M431.817 269.752C426.425 264.951 423.568 256.779 424.639 249.856C425.309 245.529 437.475 237.995 437.475 237.995L419.321 218.259C419.321 218.259 410.81 229.804 406.46 230.119C399.793 230.609 392.259 227.182 388.207 221.62C385.632 218.083 388.968 204.157 388.968 204.157L362.155 203C362.155 203 364.252 217.179 361.407 220.459C357.45 225.015 350.402 227.321 344.646 226.184C340.358 225.33 333.425 212.811 333.425 212.811L312.871 230.041C312.871 230.041 323.994 239.038 324.105 243.414C324.289 250.743 320.397 258.824 314.257 263.204C310.688 265.744 296.781 262.227 296.781 262.227L295.285 289.031C295.285 289.031 309.453 287.088 312.695 289.983C318.091 294.809 320.953 302.976 319.882 309.892C319.219 314.211 307.033 321.752 307.033 321.752L325.184 341.485C325.184 341.485 333.687 329.952 338.057 329.625C344.7 329.15 352.266 332.586 356.322 338.123C358.889 341.673 355.582 355.582 355.582 355.582L382.374 356.743C382.374 356.743 380.248 342.573 383.102 339.281C387.067 334.741 394.139 332.422 399.895 333.555C404.171 334.426 411.112 346.936 411.112 346.936L431.646 329.674C431.646 329.674 420.539 320.656 420.408 316.296C420.24 308.968 424.12 300.895 430.264 296.515C433.833 293.987 447.748 297.504 447.748 297.504L449.232 270.705C449.232 270.705 435.08 272.655 431.817 269.752ZM370.364 323.67C361.584 323.293 353.114 320.32 346.024 315.127C338.933 309.933 333.542 302.753 330.531 294.494C327.52 286.235 327.025 277.268 329.108 268.727C331.191 260.187 335.759 252.456 342.235 246.513C348.71 240.57 356.801 236.681 365.486 235.339C374.17 233.997 383.057 235.261 391.024 238.972C398.99 242.683 405.677 248.674 410.239 256.188C414.802 263.701 417.034 272.399 416.655 281.182C416.405 287.013 415.008 292.737 412.546 298.028C410.084 303.319 406.604 308.073 402.306 312.018C398.007 315.964 392.974 319.024 387.493 321.023C382.012 323.022 376.192 323.922 370.364 323.67Z" fill="#404040"/>
<path d="M406.194 281.338C405.899 288.043 403.624 294.51 399.657 299.922C395.689 305.334 390.207 309.448 383.902 311.744C377.598 314.039 370.755 314.414 364.238 312.82C357.721 311.226 351.823 307.734 347.289 302.788C342.755 297.841 339.789 291.66 338.765 285.027C337.741 278.394 338.706 271.606 341.537 265.521C344.368 259.437 348.939 254.328 354.672 250.842C360.404 247.355 367.041 245.647 373.744 245.933C378.2 246.124 382.574 247.191 386.616 249.073C390.659 250.956 394.291 253.618 397.305 256.906C400.319 260.194 402.655 264.044 404.18 268.237C405.706 272.429 406.39 276.881 406.194 281.338Z" fill="#404040"/>
</g>
<circle opacity="0.2" cx="797" cy="270" r="270" fill="#4AA29A"/>
<circle cx="797" cy="270" r="243" fill="#89BDB9"/>
<mask id="mask0" mask-type="alpha" maskUnits="userSpaceOnUse" x="554" y="27" width="486" height="486">
<circle cx="797" cy="270" r="243" fill="#89BDB9"/>
</mask>
<g mask="url(#mask0)">
<path d="M739.995 170.105C752.271 161.127 754.363 143.096 744.676 129.838C736.861 119.134 723.766 114.823 712.551 118.257C711.595 116.543 710.539 114.889 709.385 113.302C695.027 93.648 668.64 88.4982 650.448 101.802C641.539 108.318 636.255 118.058 634.87 128.604C630.4 128.326 625.925 129.471 622.149 132.23C613.085 138.859 611.536 152.171 618.694 161.964C625.853 171.756 639.002 174.331 648.064 167.702C648.241 167.574 648.387 167.434 648.553 167.302C663.469 182.01 699.358 171.695 715.588 159.829C717.209 158.639 705.569 170.488 706.948 169.1C716.86 176.47 730.19 177.275 739.995 170.105Z" fill="#5FBAB2"/>
<path d="M805.363 171.17C814.149 164.75 815.863 152.151 809.204 143.039C803.832 135.689 794.65 132.855 786.691 135.396C786.041 134.212 785.317 133.07 784.524 131.977C774.655 118.466 756.104 115.229 743.09 124.749C736.715 129.409 732.857 136.269 731.737 143.641C728.509 143.484 725.325 144.436 722.712 146.339C716.227 151.082 714.957 160.381 719.878 167.113C724.8 173.844 734.042 175.463 740.524 170.724C740.652 170.632 740.757 170.531 740.875 170.435C751.204 180.49 767.219 182.156 778.831 173.666C779.974 172.829 781.052 171.907 782.057 170.908C788.958 175.92 798.347 176.308 805.363 171.17Z" fill="#5FBAB2"/>
<path d="M749.66 171.196C756.75 166.016 758.316 156.101 753.17 149.059C749.018 143.378 741.765 141.305 735.394 143.426C734.897 142.509 734.34 141.627 733.727 140.784C726.1 130.34 711.403 128.103 700.905 135.783C695.964 139.383 692.617 144.766 691.572 150.791C688.983 150.729 686.445 151.525 684.355 153.055C679.122 156.88 677.965 164.205 681.764 169.409C685.564 174.612 692.89 175.733 698.12 171.908C698.222 171.833 698.308 171.759 698.404 171.676C706.453 179.406 719.159 180.447 728.527 173.597C729.449 172.921 730.321 172.18 731.136 171.38C733.855 173.293 737.105 174.304 740.428 174.271C743.751 174.238 746.98 173.162 749.66 171.196Z" fill="#93D1CC"/>
<path d="M897.604 125.249C905.077 119.785 906.35 108.811 900.453 100.742C895.697 94.2276 887.727 91.6036 880.902 93.6938C880.32 92.6513 879.677 91.6443 878.976 90.678C870.236 78.7145 854.176 75.582 843.104 83.6783C837.682 87.6451 834.466 93.5725 833.624 99.9913C830.903 99.8221 828.179 100.519 825.882 102.198C820.365 106.233 819.423 114.334 823.779 120.295C828.136 126.255 836.138 127.822 841.654 123.787C841.761 123.709 841.85 123.624 841.951 123.544C851.029 132.495 872.872 126.217 882.75 118.995C883.738 118.271 876.652 125.483 877.492 124.638C883.524 129.124 891.637 129.613 897.604 125.249Z" fill="#5FBAB2"/>
<path d="M934.975 127.813C940.163 124.022 941.174 116.584 937.243 111.205C934.071 106.861 928.651 105.193 923.948 106.692C923.564 105.994 923.137 105.322 922.668 104.678C916.843 96.7012 905.89 94.7911 898.208 100.41C894.444 103.163 892.166 107.213 891.504 111.564C889.598 111.472 887.719 112.034 886.176 113.157C882.348 115.957 881.598 121.447 884.503 125.421C887.408 129.395 892.865 130.351 896.691 127.553C896.767 127.499 896.829 127.439 896.899 127.384C902.998 133.319 912.455 134.303 919.307 129.29C919.982 128.796 920.619 128.251 921.212 127.661C925.287 130.617 930.833 130.843 934.975 127.813Z" fill="#5FBAB2"/>
<path d="M905.241 129.326C909.822 125.978 910.715 119.409 907.243 114.657C904.439 110.825 899.654 109.348 895.503 110.676C895.164 110.06 894.787 109.466 894.374 108.896C889.228 101.852 879.555 100.164 872.769 105.128C869.444 107.558 867.433 111.135 866.848 114.979C865.166 114.897 863.507 115.394 862.145 116.387C858.763 118.858 858.101 123.708 860.667 127.218C863.232 130.728 868.052 131.572 871.429 129.101C871.496 129.053 871.551 129 871.61 128.951C876.997 134.193 885.349 135.063 891.403 130.635C891.999 130.198 892.561 129.718 893.085 129.197C896.684 131.804 901.582 132.003 905.241 129.326Z" fill="#93D1CC"/>
<path d="M1384.28 434.399C1384.28 481.879 1121.64 520.368 797.646 520.368C473.654 520.368 211.012 481.879 211.012 434.399C211.012 386.919 473.658 348.43 797.646 348.43C1121.63 348.43 1384.28 386.958 1384.28 434.399Z" fill="#53A69E"/>
<g opacity="0.2">
<path d="M845.263 267.036C843.646 265.595 842.79 263.144 843.11 261.067C843.312 259.769 846.96 257.509 846.96 257.509L841.515 251.588C841.515 251.588 838.961 255.052 837.652 255.142C835.653 255.291 833.393 254.261 832.177 252.591C831.404 251.531 832.406 247.352 832.406 247.352L824.361 247.006C824.361 247.006 824.991 251.259 824.136 252.243C822.947 253.61 820.836 254.302 819.107 253.958C817.819 253.7 815.74 249.944 815.74 249.944L809.576 255.122C809.576 255.122 812.914 257.826 812.946 259.136C813.001 261.334 811.833 263.758 809.992 265.072C808.921 265.835 804.749 264.775 804.749 264.775L804.304 272.816C804.304 272.816 808.555 272.233 809.527 273.103C811.147 274.551 812.004 277.001 811.683 279.075C811.484 280.371 807.828 282.632 807.828 282.632L813.273 288.551C813.273 288.551 815.825 285.091 817.137 284.999C819.131 284.851 821.4 285.891 822.616 287.547C823.387 288.612 822.395 292.786 822.395 292.786L830.432 293.133C830.432 293.133 829.796 288.882 830.651 287.895C831.84 286.532 833.962 285.836 835.69 286.183C836.973 286.444 839.054 290.197 839.054 290.197L845.216 285.019C845.216 285.019 841.884 282.313 841.844 281.005C841.793 278.807 842.958 276.385 844.801 275.07C845.871 274.312 850.047 275.367 850.047 275.367L850.492 267.327C850.492 267.327 846.247 267.907 845.263 267.036ZM826.836 283.212C824.202 283.099 821.661 282.207 819.533 280.649C817.406 279.091 815.788 276.937 814.885 274.458C813.981 271.98 813.833 269.29 814.458 266.728C815.083 264.165 816.453 261.846 818.396 260.062C820.339 258.279 822.767 257.113 825.373 256.71C827.978 256.307 830.645 256.687 833.035 257.8C835.425 258.914 837.431 260.712 838.8 262.966C840.169 265.22 840.839 267.83 840.725 270.466C840.649 272.215 840.231 273.932 839.492 275.519C838.753 277.107 837.709 278.533 836.419 279.717C835.13 280.9 833.62 281.818 831.975 282.418C830.331 283.018 828.585 283.288 826.836 283.212Z" fill="#E8F2FF"/>
<path d="M837.582 270.507C837.495 272.52 836.812 274.462 835.622 276.088C834.431 277.713 832.785 278.949 830.893 279.639C829 280.329 826.945 280.441 824.989 279.963C823.032 279.485 821.261 278.437 819.899 276.951C818.538 275.466 817.647 273.61 817.34 271.619C817.033 269.627 817.323 267.589 818.173 265.762C819.024 263.936 820.397 262.402 822.118 261.356C823.84 260.31 825.833 259.798 827.845 259.884C829.182 259.941 830.495 260.261 831.708 260.826C832.921 261.391 834.011 262.189 834.915 263.176C835.82 264.162 836.521 265.318 836.978 266.576C837.436 267.834 837.641 269.169 837.582 270.507Z" fill="#E8F2FF"/>
</g>
<g opacity="0.3">
<path d="M785.743 229.123C783.366 227.009 782.115 223.413 782.584 220.365C782.881 218.46 788.231 215.145 788.231 215.145L780.242 206.457C780.242 206.457 776.494 211.54 774.577 211.671C771.644 211.886 768.329 210.379 766.544 207.93C765.412 206.372 766.88 200.243 766.88 200.243L755.076 199.734C755.076 199.734 756 205.978 754.748 207.419C753.006 209.423 749.903 210.44 747.367 209.933C745.478 209.557 742.426 204.047 742.426 204.047L733.386 211.64C733.386 211.64 738.29 215.609 738.332 217.525C738.41 220.751 736.697 224.309 733.997 226.237C732.425 227.355 726.304 225.808 726.304 225.808L725.644 237.606C725.644 237.606 731.885 236.751 733.307 238.027C735.685 240.151 736.942 243.746 736.471 246.789C736.174 248.692 730.815 252.007 730.815 252.007L738.806 260.7C738.806 260.7 742.543 255.618 744.475 255.483C747.401 255.275 750.731 256.784 752.514 259.224C753.647 260.785 752.19 266.91 752.19 266.91L763.983 267.418C763.983 267.418 763.05 261.174 764.304 259.733C766.052 257.734 769.162 256.713 771.697 257.221C773.579 257.605 776.636 263.111 776.636 263.111L785.674 255.513C785.674 255.513 780.785 251.543 780.728 249.623C780.654 246.399 782.363 242.845 785.066 240.915C786.637 239.803 792.762 241.351 792.762 241.351L793.414 229.556C793.414 229.556 787.18 230.4 785.743 229.123ZM758.698 252.858C753.515 252.633 748.634 250.359 745.127 246.534C741.621 242.709 739.777 237.648 740.001 232.463C740.225 227.278 742.499 222.394 746.322 218.886C750.145 215.379 755.205 213.534 760.387 213.758C771.167 214.228 779.557 223.355 779.076 234.151C778.966 236.718 778.352 239.239 777.268 241.569C776.184 243.899 774.652 245.993 772.759 247.73C770.866 249.467 768.65 250.814 766.236 251.694C763.823 252.574 761.26 252.969 758.693 252.858H758.698Z" fill="#E8F2FF"/>
<path d="M774.467 234.223C774.339 237.177 773.338 240.026 771.591 242.411C769.844 244.796 767.43 246.609 764.653 247.621C761.876 248.633 758.862 248.799 755.991 248.097C753.12 247.395 750.522 245.857 748.524 243.678C746.527 241.499 745.22 238.776 744.769 235.854C744.318 232.932 744.744 229.942 745.992 227.262C747.24 224.582 749.254 222.332 751.78 220.797C754.305 219.262 757.23 218.51 760.182 218.638C762.143 218.722 764.069 219.192 765.848 220.02C767.628 220.849 769.227 222.021 770.554 223.468C771.88 224.916 772.909 226.61 773.58 228.456C774.252 230.301 774.553 232.261 774.467 234.223Z" fill="#E8F2FF"/>
</g>
<g opacity="0.3">
<path d="M882.617 213.796C880.657 212.05 879.618 209.08 880.007 206.563C880.251 204.99 884.674 202.252 884.674 202.252L878.074 195.077C878.074 195.077 874.98 199.274 873.399 199.388C870.975 199.567 868.237 198.321 866.764 196.299C865.828 195.013 867.04 189.951 867.04 189.951L857.293 189.53C857.293 189.53 858.056 194.685 857.022 195.877C855.583 197.533 853.021 198.372 850.929 197.958C849.37 197.647 846.85 193.097 846.85 193.097L839.378 199.36C839.378 199.36 843.421 202.631 843.461 204.222C843.528 206.886 842.114 209.823 839.882 211.416C838.584 212.339 833.529 211.06 833.529 211.06L832.985 220.804C832.985 220.804 838.136 220.098 839.314 221.15C841.276 222.905 842.316 225.873 841.926 228.387C841.686 229.957 837.256 232.699 837.256 232.699L843.854 239.872C843.854 239.872 846.945 235.68 848.533 235.561C850.948 235.388 853.699 236.637 855.173 238.65C856.106 239.94 854.904 244.996 854.904 244.996L864.643 245.419C864.643 245.419 863.871 240.267 864.908 239.071C866.349 237.42 868.92 236.577 871.013 236.989C872.567 237.306 875.09 241.854 875.09 241.854L882.555 235.578C882.555 235.578 878.517 232.3 878.469 230.716C878.409 228.051 879.819 225.117 882.052 223.524C883.35 222.606 888.408 223.884 888.408 223.884L888.947 214.142C888.947 214.142 883.803 214.851 882.617 213.796ZM860.277 233.396C857.086 233.259 854.007 232.178 851.429 230.29C848.852 228.402 846.892 225.792 845.798 222.79C844.703 219.788 844.523 216.528 845.28 213.423C846.038 210.319 847.698 207.508 850.052 205.348C852.406 203.188 855.347 201.774 858.504 201.286C861.661 200.798 864.892 201.258 867.788 202.607C870.684 203.956 873.114 206.134 874.773 208.865C876.431 211.596 877.243 214.758 877.105 217.951C877.014 220.071 876.507 222.151 875.612 224.075C874.717 225.998 873.452 227.726 871.889 229.16C870.326 230.595 868.497 231.707 866.504 232.434C864.512 233.16 862.396 233.487 860.277 233.396Z" fill="#E8F2FF"/>
<path d="M873.302 218.007C873.195 220.445 872.368 222.796 870.926 224.763C869.484 226.731 867.491 228.226 865.199 229.06C862.907 229.895 860.42 230.031 858.051 229.452C855.682 228.872 853.538 227.603 851.889 225.805C850.241 224.006 849.163 221.76 848.791 219.348C848.419 216.937 848.769 214.47 849.798 212.258C850.828 210.046 852.489 208.189 854.573 206.921C856.657 205.654 859.07 205.033 861.506 205.137C863.126 205.206 864.716 205.594 866.186 206.279C867.655 206.963 868.976 207.931 870.071 209.126C871.167 210.321 872.016 211.721 872.57 213.245C873.125 214.769 873.374 216.387 873.302 218.007Z" fill="#E8F2FF"/>
</g>
<path d="M805.894 302.203L805.573 300.9C893.954 279.044 922.508 229.571 922.787 229.075L923.957 229.73C923.676 230.232 894.827 280.211 805.894 302.203Z" fill="#459991"/>
<path d="M863.639 305.97C861.49 305.97 859.266 305.909 856.962 305.766L857.042 304.428C889.143 306.345 905.815 293.902 905.982 293.775L906.798 294.842C906.639 294.964 891.885 305.97 863.639 305.97Z" fill="#459991"/>
<path d="M810.635 301.553C810.634 302.07 810.428 302.566 810.063 302.932C809.697 303.298 809.202 303.505 808.684 303.507H802.786C802.268 303.506 801.772 303.3 801.405 302.934C801.039 302.567 800.832 302.071 800.831 301.553C800.832 301.034 801.038 300.537 801.405 300.17C801.771 299.803 802.268 299.597 802.786 299.597H808.684C809.202 299.598 809.698 299.804 810.064 300.171C810.43 300.538 810.635 301.035 810.635 301.553Z" fill="#5BD595"/>
<path d="M810.635 305.1C810.635 305.617 810.429 306.113 810.063 306.479C809.698 306.845 809.202 307.051 808.684 307.051H802.786C802.269 307.051 801.772 306.846 801.405 306.48C801.039 306.114 800.832 305.618 800.831 305.1C800.831 304.843 800.881 304.588 800.98 304.35C801.078 304.113 801.222 303.897 801.403 303.715C801.585 303.533 801.8 303.389 802.038 303.291C802.275 303.192 802.53 303.142 802.786 303.142H808.684C809.203 303.143 809.699 303.35 810.065 303.717C810.431 304.084 810.636 304.581 810.635 305.1Z" fill="#5BD595"/>
<path d="M810.635 308.646C810.635 309.164 810.429 309.66 810.063 310.026C809.698 310.392 809.202 310.598 808.684 310.598H802.786C802.269 310.598 801.772 310.393 801.405 310.027C801.039 309.661 800.832 309.164 800.831 308.646C800.831 308.128 801.037 307.63 801.404 307.263C801.771 306.897 802.268 306.69 802.786 306.69H808.684C808.941 306.691 809.195 306.742 809.432 306.84C809.668 306.938 809.884 307.083 810.065 307.264C810.246 307.446 810.39 307.661 810.487 307.898C810.585 308.136 810.636 308.39 810.635 308.646Z" fill="#5BD595"/>
<path d="M810.635 312.195C810.635 312.713 810.429 313.209 810.063 313.575C809.698 313.941 809.202 314.146 808.684 314.147H802.786C802.53 314.147 802.276 314.097 802.039 313.999C801.802 313.901 801.586 313.757 801.405 313.576C801.223 313.395 801.079 313.18 800.981 312.943C800.882 312.706 800.832 312.452 800.831 312.195C800.831 311.938 800.882 311.684 800.98 311.447C801.079 311.21 801.223 310.994 801.404 310.813C801.586 310.631 801.801 310.487 802.038 310.389C802.276 310.291 802.53 310.241 802.786 310.241H808.684C809.202 310.242 809.698 310.448 810.064 310.814C810.43 311.181 810.635 311.677 810.635 312.195Z" fill="#5BD595"/>
<path d="M861.902 301.553C861.901 302.071 861.696 302.567 861.329 302.934C860.963 303.3 860.467 303.506 859.949 303.507H854.057C853.539 303.506 853.043 303.3 852.676 302.934C852.31 302.567 852.103 302.071 852.102 301.553C852.103 301.034 852.309 300.537 852.675 300.17C853.042 299.803 853.539 299.597 854.057 299.597H859.949C860.206 299.597 860.46 299.647 860.697 299.746C860.934 299.844 861.149 299.988 861.331 300.17C861.512 300.351 861.656 300.567 861.754 300.804C861.852 301.042 861.902 301.296 861.902 301.553Z" fill="#5BD595"/>
<path d="M861.902 305.1C861.902 305.356 861.851 305.61 861.753 305.847C861.655 306.084 861.511 306.299 861.33 306.48C861.148 306.662 860.933 306.805 860.696 306.903C860.459 307.001 860.205 307.052 859.949 307.051H854.057C853.539 307.051 853.043 306.846 852.676 306.48C852.31 306.114 852.103 305.618 852.102 305.1C852.102 304.843 852.152 304.588 852.25 304.35C852.348 304.113 852.492 303.897 852.674 303.715C852.856 303.533 853.071 303.389 853.309 303.291C853.546 303.192 853.8 303.142 854.057 303.142H859.949C860.206 303.142 860.46 303.192 860.697 303.291C860.935 303.389 861.15 303.533 861.331 303.715C861.513 303.897 861.657 304.113 861.755 304.351C861.852 304.588 861.903 304.843 861.902 305.1Z" fill="#5BD595"/>
<path d="M861.902 308.646C861.902 308.903 861.851 309.157 861.753 309.394C861.655 309.631 861.511 309.846 861.33 310.027C861.148 310.209 860.933 310.352 860.696 310.45C860.459 310.548 860.205 310.598 859.949 310.598H854.057C853.539 310.598 853.043 310.393 852.676 310.027C852.31 309.661 852.103 309.164 852.102 308.646C852.102 308.128 852.308 307.63 852.675 307.263C853.041 306.897 853.539 306.69 854.057 306.69H859.949C860.206 306.69 860.46 306.741 860.697 306.839C860.934 306.937 861.15 307.081 861.331 307.263C861.513 307.445 861.657 307.66 861.754 307.898C861.852 308.135 861.903 308.39 861.902 308.646Z" fill="#5BD595"/>
<path d="M861.902 312.195C861.902 312.452 861.851 312.706 861.753 312.943C861.655 313.179 861.511 313.395 861.33 313.576C861.148 313.757 860.933 313.901 860.696 313.999C860.459 314.097 860.205 314.147 859.949 314.147H854.057C853.801 314.147 853.547 314.097 853.31 313.999C853.073 313.901 852.857 313.757 852.676 313.576C852.494 313.395 852.35 313.18 852.252 312.943C852.153 312.706 852.102 312.452 852.102 312.195C852.102 311.938 852.153 311.684 852.251 311.447C852.349 311.21 852.493 310.994 852.675 310.813C852.856 310.631 853.072 310.487 853.309 310.389C853.546 310.291 853.801 310.241 854.057 310.241H859.949C860.206 310.241 860.46 310.291 860.697 310.389C860.934 310.487 861.149 310.631 861.331 310.813C861.512 310.994 861.656 311.21 861.754 311.447C861.852 311.684 861.902 311.938 861.902 312.195Z" fill="#5BD595"/>
<path d="M1005.42 374.667H938.66V378.762H1005.42V374.667Z" fill="#34726C"/>
<path d="M936.134 247.924L954.527 277.84L956.017 276.586L937.133 245.874L936.134 247.924Z" fill="#34726C"/>
<path d="M981.054 244.164L961.634 276.968L959.993 275.636L979.937 241.959L981.054 244.164Z" fill="#34726C"/>
<path d="M936.134 214.14L954.527 244.059L956.017 242.804L937.133 212.095L936.134 214.14Z" fill="#34726C"/>
<path d="M980.461 214.14L962.064 244.059L960.578 242.804L979.46 212.095L980.461 214.14Z" fill="#34726C"/>
<path d="M957.877 244.593L914.425 310.177L912.818 309.112L956.27 243.532L957.877 244.593Z" fill="#34726C"/>
<path d="M958.904 242.685L1000.64 311.793L1002.01 310.488L960.27 241.376L958.904 242.685Z" fill="#34726C"/>
<path d="M980.398 184.488L909.33 278.028L907.801 276.859L978.867 183.325L980.398 184.488Z" fill="#34726C"/>
<path d="M936.935 184.488L1008 278.028L1009.53 276.859L938.466 183.325L936.935 184.488Z" fill="#34726C"/>
<path d="M962.714 180.365H954.527V295.018H962.714V180.365Z" fill="#459991"/>
<path d="M960.044 145.73H957.182V185.481H960.044V145.73Z" fill="#459991"/>
<path d="M933.207 182.464L930.51 180.992L958.548 141.178L959.734 145.012L933.207 182.464Z" fill="#459991"/>
<path d="M984.019 182.464L986.718 180.992L958.548 141.178L957.498 145.012L984.019 182.464Z" fill="#459991"/>
<path d="M938.66 180.365H930.475V277.819H938.66V180.365Z" fill="#459991"/>
<path d="M936.936 180.365H932.069V277.819H936.936V180.365Z" fill="#3C857E"/>
<path d="M986.752 180.365H978.567V277.819H986.752V180.365Z" fill="#459991"/>
<path d="M938.66 390.219H930.475L954.256 277.818L962.835 276.586L938.66 390.219Z" fill="#459991"/>
<path d="M935.859 390.217H933.184L956.998 278.081L957.306 288.982L935.859 390.217Z" fill="#3C857E"/>
<path d="M985.289 240.756H930.475V244.851H985.289V240.756Z" fill="#459991"/>
<path d="M1012.85 274.538H904.4V278.633H1012.85V274.538Z" fill="#459991"/>
<path d="M997.111 335.768H918.642V339.859H997.111V335.768Z" fill="#459991"/>
<path d="M978.567 380.809H909.24V384.906H978.567V380.809Z" fill="#34726C"/>
<path d="M1004.4 308.127H909.24V312.222H1004.4V308.127Z" fill="#459991"/>
<path d="M985.162 285.704L909.33 385.511L907.801 384.344L983.629 284.539L985.162 285.704Z" fill="#34726C"/>
<path d="M931.372 284.779L1007.19 386.353L1008.88 385.041L933.06 283.468L931.372 284.779Z" fill="#34726C"/>
<path d="M909.24 278.026H907.801V287.082H909.24V278.026Z" fill="#459991"/>
<path d="M924.092 212.097H922.655V221.15H924.092V212.097Z" fill="#459991"/>
<path d="M994.697 212.097H993.26V221.15H994.697V212.097Z" fill="#459991"/>
<path d="M1009.53 278.026H1008.1V287.082H1009.53V278.026Z" fill="#459991"/>
<path d="M922.063 211.165L920.367 210.008L937.076 185.48L938.542 186.969L922.063 211.165Z" fill="#459991"/>
<path d="M915.038 386.815H906.651L930.481 274.538L938.66 275.421L915.038 386.815Z" fill="#459991"/>
<path d="M912.818 386.813H908.523L932.014 278.081H936.436L912.818 386.813Z" fill="#3C857E"/>
<path d="M1001.09 386.814H1009.53L985.482 273.724L977.477 275.421L1001.09 386.814Z" fill="#459991"/>
<path d="M1002.96 386.814H1007.76L984.91 278.633H980.461L1002.96 386.814Z" fill="#3C857E"/>
<path d="M978.394 390.219H986.708L962.527 275.951L954.344 276.844L978.394 390.219Z" fill="#459991"/>
<path d="M960.503 182.464H957.306V277.817H960.503V182.464Z" fill="#3C857E"/>
<path d="M982.051 390.219H984.685L960.5 277.422L957.306 277.818L982.051 390.219Z" fill="#3C857E"/>
<path d="M985.095 274.539H980.455L980.231 181.58H985.095V274.539Z" fill="#3C857E"/>
<path d="M996.414 210.049H920.367V214.14H996.414V210.049Z" fill="#459991"/>
<path d="M994.624 211.763L996.414 210.755L981.876 184.884H979.46L994.624 211.763Z" fill="#459991"/>
<path d="M986.753 180.365H930.475V185.482H986.753V180.365Z" fill="#459991"/>
<path d="M984.961 181.58H932.069V183.822H984.961V181.58Z" fill="#3C857E"/>
<path d="M926.917 221.708C926.917 221.894 926.88 222.077 926.809 222.248C926.738 222.419 926.634 222.575 926.503 222.706C926.372 222.837 926.216 222.94 926.045 223.011C925.873 223.082 925.69 223.118 925.505 223.118H921.24C921.055 223.118 920.871 223.082 920.7 223.011C920.529 222.94 920.373 222.837 920.242 222.706C920.111 222.575 920.007 222.419 919.936 222.248C919.866 222.077 919.829 221.894 919.829 221.708C919.829 221.523 919.865 221.339 919.936 221.168C920.007 220.996 920.11 220.84 920.241 220.709C920.373 220.578 920.528 220.474 920.699 220.403C920.871 220.331 921.054 220.295 921.24 220.295H925.505C925.879 220.295 926.239 220.444 926.504 220.709C926.769 220.974 926.917 221.333 926.917 221.708Z" fill="#5BD595"/>
<path d="M926.917 224.274C926.917 224.649 926.769 225.008 926.504 225.273C926.239 225.538 925.879 225.687 925.505 225.687H921.24C920.865 225.687 920.507 225.537 920.242 225.272C919.978 225.007 919.829 224.648 919.829 224.274C919.829 223.899 919.978 223.54 920.242 223.275C920.507 223.01 920.865 222.861 921.24 222.86H925.505C925.879 222.86 926.239 223.009 926.504 223.274C926.769 223.539 926.917 223.899 926.917 224.274Z" fill="#5BD595"/>
<path d="M926.917 226.838C926.917 227.213 926.768 227.572 926.503 227.836C926.238 228.101 925.879 228.25 925.505 228.25H921.24C920.866 228.249 920.507 228.1 920.243 227.836C919.978 227.571 919.83 227.212 919.829 226.838C919.829 226.653 919.865 226.469 919.936 226.297C920.006 226.126 920.11 225.97 920.241 225.838C920.372 225.707 920.528 225.602 920.699 225.531C920.871 225.46 921.054 225.423 921.24 225.423H925.505C925.88 225.423 926.239 225.573 926.504 225.838C926.769 226.104 926.917 226.463 926.917 226.838Z" fill="#5BD595"/>
<path d="M926.917 229.405C926.917 229.59 926.88 229.773 926.809 229.945C926.738 230.116 926.634 230.271 926.503 230.402C926.372 230.533 926.216 230.637 926.045 230.707C925.873 230.778 925.69 230.814 925.505 230.814H921.24C920.866 230.814 920.507 230.666 920.243 230.401C919.978 230.137 919.83 229.779 919.829 229.405C919.829 229.219 919.865 229.035 919.936 228.864C920.007 228.692 920.11 228.537 920.241 228.405C920.373 228.274 920.528 228.17 920.699 228.099C920.871 228.028 921.054 227.991 921.24 227.991H925.505C925.69 227.991 925.874 228.027 926.046 228.098C926.217 228.169 926.373 228.273 926.504 228.405C926.635 228.536 926.74 228.692 926.81 228.863C926.881 229.035 926.918 229.219 926.917 229.405Z" fill="#5BD595"/>
<path d="M997.519 221.572C997.518 221.946 997.369 222.305 997.104 222.569C996.839 222.834 996.48 222.982 996.106 222.983H991.843C991.469 222.983 991.11 222.834 990.845 222.57C990.58 222.305 990.431 221.946 990.431 221.572C990.431 221.197 990.579 220.837 990.844 220.572C991.109 220.307 991.469 220.158 991.843 220.158H996.106C996.481 220.159 996.84 220.308 997.105 220.573C997.369 220.838 997.518 221.197 997.519 221.572Z" fill="#5BD595"/>
<path d="M997.519 224.143C997.518 224.518 997.369 224.877 997.105 225.142C996.84 225.407 996.481 225.556 996.106 225.556H991.843C991.469 225.556 991.109 225.407 990.844 225.142C990.579 224.877 990.431 224.518 990.431 224.143C990.431 223.768 990.579 223.409 990.844 223.143C991.109 222.878 991.469 222.729 991.843 222.729H996.106C996.481 222.73 996.84 222.879 997.105 223.144C997.369 223.409 997.518 223.768 997.519 224.143Z" fill="#5BD595"/>
<path d="M997.519 226.708C997.519 226.894 997.482 227.077 997.411 227.249C997.34 227.42 997.236 227.576 997.105 227.707C996.974 227.838 996.818 227.942 996.647 228.013C996.475 228.084 996.292 228.12 996.106 228.12H991.843C991.658 228.12 991.474 228.084 991.303 228.013C991.131 227.942 990.976 227.838 990.844 227.707C990.713 227.576 990.609 227.42 990.538 227.249C990.467 227.077 990.431 226.894 990.431 226.708C990.431 226.523 990.467 226.339 990.538 226.168C990.609 225.996 990.713 225.841 990.844 225.71C990.976 225.578 991.131 225.475 991.303 225.404C991.474 225.333 991.658 225.297 991.843 225.297H996.106C996.292 225.297 996.475 225.333 996.647 225.404C996.818 225.475 996.974 225.578 997.105 225.71C997.236 225.841 997.34 225.996 997.411 226.168C997.482 226.339 997.519 226.523 997.519 226.708Z" fill="#5BD595"/>
<path d="M997.519 229.272C997.518 229.646 997.369 230.006 997.105 230.271C996.84 230.536 996.481 230.685 996.106 230.685H991.843C991.469 230.685 991.109 230.536 990.844 230.271C990.579 230.006 990.431 229.647 990.431 229.272C990.431 229.086 990.467 228.903 990.538 228.731C990.609 228.56 990.713 228.404 990.844 228.273C990.976 228.142 991.131 228.038 991.303 227.967C991.474 227.896 991.658 227.86 991.843 227.86H996.106C996.481 227.86 996.84 228.009 997.104 228.274C997.369 228.538 997.518 228.897 997.519 229.272Z" fill="#5BD595"/>
<path d="M912.064 285.204C912.064 285.579 911.915 285.938 911.65 286.203C911.386 286.468 911.027 286.617 910.653 286.618H906.39C906.205 286.618 906.021 286.581 905.85 286.51C905.678 286.439 905.523 286.335 905.392 286.204C905.261 286.072 905.157 285.916 905.086 285.745C905.015 285.574 904.979 285.39 904.979 285.204C904.979 284.83 905.128 284.471 905.392 284.206C905.657 283.942 906.016 283.793 906.39 283.793H910.655C911.029 283.794 911.387 283.942 911.652 284.207C911.916 284.471 912.065 284.83 912.066 285.204H912.064Z" fill="#5BD595"/>
<path d="M912.064 287.767C912.064 287.952 912.028 288.136 911.957 288.308C911.886 288.479 911.782 288.635 911.651 288.766C911.52 288.897 911.364 289.002 911.193 289.073C911.022 289.144 910.838 289.18 910.653 289.18H906.39C906.205 289.18 906.021 289.144 905.85 289.073C905.678 289.002 905.523 288.897 905.392 288.766C905.261 288.635 905.157 288.479 905.086 288.308C905.015 288.136 904.979 287.952 904.979 287.767C904.979 287.393 905.128 287.034 905.392 286.769C905.657 286.504 906.016 286.355 906.39 286.355H910.655C911.029 286.356 911.387 286.505 911.652 286.769C911.916 287.034 912.065 287.393 912.066 287.767H912.064Z" fill="#5BD595"/>
<path d="M912.064 290.334C912.064 290.709 911.915 291.068 911.65 291.333C911.386 291.598 911.027 291.747 910.653 291.748H906.39C906.205 291.748 906.021 291.711 905.85 291.64C905.678 291.569 905.523 291.465 905.392 291.334C905.261 291.202 905.157 291.047 905.086 290.875C905.015 290.704 904.979 290.52 904.979 290.334C904.979 290.149 905.015 289.965 905.086 289.794C905.157 289.622 905.261 289.466 905.392 289.335C905.523 289.204 905.678 289.1 905.85 289.029C906.021 288.957 906.205 288.921 906.39 288.921H910.655C911.029 288.921 911.388 289.071 911.653 289.336C911.917 289.601 912.066 289.96 912.066 290.334H912.064Z" fill="#5BD595"/>
<path d="M912.064 292.898C912.064 293.272 911.915 293.631 911.65 293.896C911.386 294.16 911.027 294.309 910.653 294.309H906.39C906.016 294.309 905.657 294.16 905.392 293.896C905.128 293.631 904.979 293.272 904.979 292.898C904.979 292.523 905.128 292.164 905.392 291.9C905.657 291.635 906.016 291.486 906.39 291.486H910.655C911.029 291.486 911.388 291.635 911.652 291.9C911.917 292.164 912.066 292.523 912.066 292.898H912.064Z" fill="#5BD595"/>
<path d="M1012.36 285.335C1012.36 285.71 1012.21 286.069 1011.95 286.333C1011.68 286.598 1011.32 286.747 1010.95 286.747H1006.69C1006.32 286.747 1005.96 286.598 1005.7 286.333C1005.43 286.069 1005.28 285.71 1005.28 285.335C1005.28 285.15 1005.32 284.966 1005.39 284.795C1005.46 284.623 1005.56 284.467 1005.69 284.336C1005.83 284.205 1005.98 284.101 1006.15 284.03C1006.32 283.958 1006.51 283.922 1006.69 283.922H1010.96C1011.33 283.922 1011.69 284.072 1011.95 284.337C1012.22 284.602 1012.37 284.961 1012.37 285.335H1012.36Z" fill="#5BD595"/>
<path d="M1012.36 287.898C1012.36 288.272 1012.21 288.631 1011.95 288.896C1011.68 289.161 1011.32 289.311 1010.95 289.311H1006.69C1006.51 289.311 1006.32 289.275 1006.15 289.204C1005.98 289.132 1005.83 289.028 1005.69 288.897C1005.56 288.766 1005.46 288.61 1005.39 288.438C1005.32 288.267 1005.28 288.083 1005.28 287.898C1005.28 287.712 1005.32 287.529 1005.39 287.357C1005.46 287.186 1005.56 287.03 1005.69 286.898C1005.83 286.767 1005.98 286.663 1006.15 286.592C1006.32 286.521 1006.51 286.484 1006.69 286.484H1010.96C1011.33 286.485 1011.69 286.634 1011.95 286.899C1012.22 287.164 1012.37 287.523 1012.37 287.898H1012.36Z" fill="#5BD595"/>
<path d="M1012.36 290.466C1012.36 290.652 1012.32 290.836 1012.25 291.007C1012.18 291.179 1012.08 291.335 1011.95 291.466C1011.82 291.598 1011.66 291.702 1011.49 291.773C1011.32 291.844 1011.13 291.881 1010.95 291.882H1006.69C1006.51 291.881 1006.32 291.844 1006.15 291.773C1005.98 291.702 1005.83 291.598 1005.69 291.466C1005.56 291.335 1005.46 291.179 1005.39 291.007C1005.32 290.836 1005.28 290.652 1005.28 290.466C1005.28 290.092 1005.43 289.733 1005.7 289.468C1005.96 289.203 1006.32 289.055 1006.69 289.055H1010.96C1011.33 289.055 1011.69 289.203 1011.95 289.468C1012.22 289.733 1012.37 290.092 1012.37 290.466H1012.36Z" fill="#5BD595"/>
<path d="M1012.36 293.03C1012.36 293.404 1012.21 293.763 1011.95 294.028C1011.68 294.293 1011.32 294.442 1010.95 294.443H1006.69C1006.51 294.443 1006.32 294.406 1006.15 294.335C1005.98 294.264 1005.83 294.16 1005.69 294.029C1005.56 293.898 1005.46 293.742 1005.39 293.57C1005.32 293.399 1005.28 293.215 1005.28 293.03C1005.28 292.655 1005.43 292.296 1005.7 292.032C1005.96 291.767 1006.32 291.618 1006.69 291.618H1010.96C1011.33 291.618 1011.69 291.767 1011.95 292.032C1012.22 292.296 1012.37 292.655 1012.37 293.03H1012.36Z" fill="#5BD595"/>
<path d="M886.437 312.793H766.264V384.907H886.437V312.793Z" fill="#71D3CA"/>
<path d="M798.78 312.793H766.264V384.907H798.78V312.793Z" fill="#4AA29A"/>
<path d="M789.959 321.118H762.816V325.483H789.959V321.118Z" fill="#34726C"/>
<path d="M789.959 321.118H784.373V325.483H789.959V321.118Z" fill="#3C857E"/>
<path d="M758.926 327.66H794.251L793.052 323.317H760.123L758.926 327.66Z" fill="#3C857E"/>
<path d="M784.969 327.66H758.926V358.553H784.969V327.66Z" fill="#459991"/>
<path d="M794.248 327.66H782.62V358.553H794.248V327.66Z" fill="#459991"/>
<path d="M782.62 327.66L783.521 323.317H793.052L794.25 327.66H782.62Z" fill="#34726C"/>
<path d="M767.953 343.779H775.939L771.945 335.794L767.953 343.779Z" fill="#4CA1BF"/>
<path d="M775.166 343.236L771.945 336.967L768.726 343.236H775.166Z" fill="#FFCF03"/>
<path d="M772.6 342.716L772.661 339.885L771.931 340.864L771.735 338.372L771.719 341.621L772.308 340.807L772.6 342.716Z" fill="#6D76A1"/>
<path d="M792.552 331.501H784.373V336.39H792.552V331.501Z" fill="#3C857E"/>
<path d="M791.539 332.123H785.38V332.723H791.539V332.123Z" fill="#34726C"/>
<path d="M791.539 333.173H785.38V333.771H791.539V333.173Z" fill="#34726C"/>
<path d="M791.539 334.246H785.38V334.848H791.539V334.246Z" fill="#34726C"/>
<path d="M791.539 335.293H785.38V335.891H791.539V335.293Z" fill="#34726C"/>
<path d="M804.98 372.215L805.035 326.479L882.146 326.574L882.091 372.319L804.98 372.215Z" fill="#3C857E"/>
<path d="M870.534 366.652L870.57 332.208L873.924 332.212L873.879 366.656L870.534 366.652Z" fill="#34726C"/>
<path d="M875.985 366.652L876.022 332.208L879.375 332.212L879.33 366.656L875.985 366.652Z" fill="#464F72"/>
<path d="M864.674 366.649L864.717 332.203L868.073 332.207L868.03 366.649H864.674Z" fill="#34726C"/>
<path d="M858.711 332.184L858.669 366.628L862.02 366.632L862.062 332.188L858.711 332.184Z" fill="#34726C"/>
<path d="M852.826 366.635L852.873 332.189L856.224 332.194L856.177 366.641L852.826 366.635Z" fill="#34726C"/>
<path d="M846.867 366.623L846.91 332.179L850.261 332.183L850.22 366.627L846.867 366.623Z" fill="#34726C"/>
<path d="M841.014 366.617L841.052 332.171L844.404 332.177L844.365 366.617H841.014Z" fill="#34726C"/>
<path d="M834.567 331.844V366.29H837.921V331.844H834.567Z" fill="#34726C"/>
<path d="M829.161 366.596L829.206 332.158L832.555 332.16L832.514 366.606L829.161 366.596Z" fill="#34726C"/>
<path d="M822.044 366.595L822.086 332.149L825.44 332.153L825.395 366.597L822.044 366.595Z" fill="#34726C"/>
<path d="M816.046 366.59L816.093 332.142L819.442 332.148L819.399 366.596L816.046 366.59Z" fill="#34726C"/>
<path d="M810.191 366.575L810.236 332.131L813.587 332.137L813.542 366.583L810.191 366.575Z" fill="#34726C"/>
<path d="M891.277 306.213C891.338 305.305 892.413 302.803 894.984 302.541C898.423 302.191 904.938 304.887 908.802 302.091C912.665 299.295 912.326 296.074 912.379 293.894C912.432 291.713 911.421 290.822 911.593 289.558C911.764 288.293 913.254 288.556 914.017 292.072C914.383 293.753 917.174 301.842 913.183 306.029C907.956 311.516 890.967 311.591 891.277 306.213Z" fill="#FBC6B4"/>
<path d="M890.977 304.433C890.977 304.433 890.013 308.104 895.424 309.685C900.834 311.265 903.411 311.21 903.411 311.21C903.411 311.21 905.45 308.135 904.912 302.367C904.912 302.367 891.591 299.075 890.977 304.433Z" fill="#EDA503"/>
<path d="M878.344 307.723C878.419 309.66 878.193 311.598 877.675 313.466C877.477 314.188 877.235 314.897 876.951 315.589C875.991 317.886 875.4 321.359 873.787 324.035C875.121 324.955 873.973 326.868 873.879 327.001C869.347 332.571 890.505 332.458 895.03 328.157C896.588 326.678 896.029 324.194 897.037 320.876C897.289 320.14 897.491 319.381 897.679 318.632C898.592 315.21 899.165 311.792 899.228 309.385C899.407 302.09 892.959 300.193 888.855 299.799C886.994 299.616 884.574 299.361 882.507 299.987V300.003C880.091 300.778 878.201 302.791 878.344 307.723Z" fill="#FFB502"/>
<path d="M896.345 345.781C890.025 350.574 877.863 361.908 880.444 364.178C883.025 366.448 885.243 366.799 884.101 365.061C882.959 363.323 883.069 363.089 883.518 362.652C886.327 359.917 893.64 356.593 898.4 353.246C903.913 349.356 901.866 341.582 896.345 345.781Z" fill="#FBC6B4"/>
<path d="M880.393 361.953C880.393 361.953 881.857 364.876 884.103 365.051C884.103 365.051 886.38 367.592 884.177 366.928C881.973 366.263 878.34 364.227 880.393 361.953Z" fill="#FFB502"/>
<path d="M884.313 305.504C884.301 309.145 884.951 314.886 876.048 317.507C876.048 317.507 886.517 337.119 896.572 330.214C896.572 330.214 898.557 314.813 897.762 308.309C897.532 306.445 897.122 301.374 893.287 300.791C893.287 300.791 897.208 310.538 894.227 312.186C891.247 313.834 889.387 311.407 888.711 309.465C887.626 306.351 885.192 299.592 885.192 299.592L882.817 299.904C883.765 301.62 884.279 303.543 884.313 305.504Z" fill="#2E2E2E"/>
<path d="M886.741 294.152C886.741 294.152 888.496 297.077 886.505 298.943C884.452 300.854 893.558 304.56 893.157 302.782C892.647 300.487 891.322 299.233 892.178 296.459L886.741 294.152Z" fill="#F7B2A0"/>
<path d="M891.041 287.81C893.212 289.472 896.17 297.44 894.284 299.457C893.452 300.332 889.644 299.829 886.925 296.465C885.805 295.093 884.325 292.441 885.532 289.506C886.085 288.175 888.525 285.878 891.041 287.81Z" fill="#FBC6B4"/>
<path d="M893.157 288.587C893.699 289.572 893.597 289.811 890.553 290.604C887.51 291.398 886.957 291.245 887.349 291.946C888.496 294.018 886.248 293.821 887.644 296.284C889.041 298.748 886.282 297.453 884.925 295.454C884.66 295.046 883.147 293.107 884.313 289.744C885.685 285.815 891.155 284.983 893.157 288.587Z" fill="#404040"/>
<path d="M888.98 293.158C888.98 293.158 896.319 291.339 895.956 288.406C895.734 286.603 890.286 287.182 890.286 287.182L888.98 293.158Z" fill="#EDA503"/>
<path d="M893.444 289.026C892.629 291.826 890.547 293.077 884.313 294.561C884.313 294.561 881.355 288.916 885.449 286.075C889.061 283.574 893.968 287.246 893.444 289.026Z" fill="#FFB502"/>
<path d="M895.277 326.449C895.277 326.449 910.596 335.338 912.384 340.671C914.171 346.004 885.559 362.929 885.559 362.929C885.559 362.929 882.211 359.592 883.757 356.549C889.55 345.127 891.669 341.479 891.669 341.479L877.471 329.649L895.277 326.449Z" fill="#2E2E2E"/>
<path d="M874.778 354.445C872.662 362.088 869.857 378.479 873.286 378.716C876.715 378.953 878.693 377.9 876.733 377.199C874.774 376.497 874.715 376.254 874.807 375.636C875.384 371.761 879.18 364.678 880.923 359.136C882.964 352.702 876.625 347.762 874.778 354.445Z" fill="#FBC6B4"/>
<path d="M871.902 376.984C871.902 376.984 874.84 378.424 876.733 377.188C876.733 377.188 880.083 377.831 877.928 378.634C875.773 379.438 871.647 380.044 871.902 376.984Z" fill="#FFB502"/>
<path d="M876.048 317.506C876.048 317.506 872.884 323.957 870.952 333.225C868.619 344.391 870.748 371.807 870.748 371.807C870.748 371.807 870.265 372.684 877.094 371.827C878.929 371.593 887.422 334.249 887.422 334.249L885.153 323.798L876.048 317.506Z" fill="#2E2E2E"/>
<path d="M872.956 372.215C870.067 353.044 877.633 323.25 877.708 322.95L878.077 323.044C878.002 323.342 870.454 353.064 873.329 372.16L872.956 372.215Z" fill="white"/>
<path d="M879.443 302.677C879.785 301.873 881.261 300.464 883.65 301.07C886.851 301.886 891.817 306.411 896.19 305.149C900.563 303.886 901.305 300.901 902.064 298.965C902.822 297.029 902.204 295.906 902.765 294.823C903.326 293.74 904.585 294.466 904.125 297.866C903.902 299.485 903.782 307.656 898.84 310.103C892.37 313.35 877.41 307.399 879.443 302.677Z" fill="#FBC6B4"/>
<path d="M879.6 301.853C879.6 301.853 877.543 304.833 881.887 308.012C886.232 311.192 888.552 311.979 888.552 311.979C888.552 311.979 891.371 309.872 892.767 304.533C892.767 304.533 881.891 297.256 879.6 301.853Z" fill="#EDA503"/>
<path d="M882.258 391.979L880.85 391.41L906.631 327.831H891.534L865.523 391.979L864.118 391.41L890.511 326.312H908.883L882.258 391.979Z" fill="#464F72"/>
<path d="M896.17 354.894H879.435V356.413H896.17V354.894Z" fill="#464F72"/>
<path d="M892.817 362.737H876.083V364.257H892.817V362.737Z" fill="#464F72"/>
<path d="M889.922 370.663H873.186V372.183H889.922V370.663Z" fill="#464F72"/>
<path d="M886.289 378.745H869.555V380.265H886.289V378.745Z" fill="#464F72"/>
<path d="M916.971 391.958L899.605 345.693L901.024 345.158L918.394 391.425L916.971 391.958Z" fill="#464F72"/>
<path d="M883.663 346.355L882.241 346.889L899.607 393.159L901.029 392.625L883.663 346.355Z" fill="#464F72"/>
<path opacity="0.5" d="M704.976 245.605C704.335 245.604 703.71 245.414 703.178 245.058C702.645 244.702 702.231 244.196 701.986 243.604C701.741 243.012 701.677 242.361 701.803 241.733C701.928 241.105 702.236 240.528 702.689 240.075C703.142 239.622 703.719 239.314 704.347 239.189C704.975 239.064 705.625 239.128 706.217 239.374C706.808 239.619 707.314 240.034 707.669 240.567C708.025 241.099 708.215 241.725 708.215 242.366C708.214 243.225 707.872 244.048 707.265 244.656C706.658 245.263 705.834 245.604 704.976 245.605ZM704.976 240.571C704.621 240.571 704.274 240.676 703.979 240.873C703.684 241.07 703.454 241.351 703.318 241.679C703.182 242.007 703.147 242.368 703.216 242.716C703.285 243.064 703.456 243.384 703.707 243.635C703.958 243.886 704.278 244.057 704.626 244.126C704.974 244.196 705.334 244.16 705.662 244.024C705.99 243.888 706.27 243.658 706.468 243.363C706.665 243.068 706.77 242.721 706.77 242.366C706.771 242.129 706.725 241.895 706.635 241.677C706.545 241.458 706.413 241.26 706.246 241.092C706.08 240.925 705.882 240.792 705.664 240.701C705.446 240.61 705.212 240.564 704.976 240.563V240.571Z" fill="white"/>
<path d="M729.503 251.488L729.483 252.608L732.14 252.658L732.162 251.54L729.503 251.488Z" fill="#1C2745"/>
<path d="M725.545 251.411L725.523 252.531L728.182 252.58L728.203 251.461L725.545 251.411Z" fill="#1C2745"/>
<path d="M721.587 251.335L721.565 252.455L724.223 252.506L724.244 251.388L721.587 251.335Z" fill="#1C2745"/>
<path d="M717.619 251.257L717.598 252.377L720.255 252.428L720.276 251.308L717.619 251.257Z" fill="#1C2745"/>
<path d="M713.638 251.178L713.615 252.298L716.274 252.351L716.297 251.231L713.638 251.178Z" fill="#1C2745"/>
<path d="M709.707 251.111L709.687 252.229L712.345 252.281L712.366 251.163L709.707 251.111Z" fill="#1C2745"/>
<path d="M705.764 250.966L705.741 252.084L708.399 252.137L708.421 251.019L705.764 250.966Z" fill="#1C2745"/>
<path d="M701.768 250.952L701.746 252.071L704.405 252.124L704.427 251.005L701.768 250.952Z" fill="#1C2745"/>
<path d="M697.828 250.882L697.806 252L700.463 252.053L700.486 250.935L697.828 250.882Z" fill="#1C2745"/>
<path d="M693.874 250.809L693.852 251.929L696.511 251.98L696.533 250.86L693.874 250.809Z" fill="#1C2745"/>
<path d="M689.917 250.734L689.897 251.852L692.554 251.901L692.574 250.783L689.917 250.734Z" fill="#1C2745"/>
<path d="M685.969 250.589L685.946 251.707L688.606 251.76L688.628 250.642L685.969 250.589Z" fill="#1C2745"/>
<path d="M681.984 250.578L681.962 251.696L684.62 251.747L684.641 250.63L681.984 250.578Z" fill="#1C2745"/>
<path d="M678.029 250.5L678.006 251.62L680.663 251.673L680.686 250.553L678.029 250.5Z" fill="#1C2745"/>
<g opacity="0.5">
<path d="M738.689 329.418L729.185 320.056L731.16 318.047L740.664 327.409L738.689 329.418Z" fill="white"/>
<path d="M738.582 318.051L729.26 327.394L731.252 329.383L740.575 320.04L738.582 318.051Z" fill="white"/>
</g>
<g opacity="0.5">
<path d="M657.794 247.597H642.223V248.803H657.794V247.597Z" fill="#404040"/>
<path d="M656.886 243.662H648.301V244.864H656.886V243.662Z" fill="#404040"/>
</g>
<path d="M665.312 419.614L666.116 418.86L669.33 422.263C669.791 422.751 670.426 423.037 671.097 423.059C671.767 423.081 672.419 422.837 672.911 422.38L675.655 419.819C676.005 419.491 676.416 419.236 676.865 419.068C677.314 418.899 677.791 418.822 678.27 418.839C678.749 418.856 679.22 418.967 679.656 419.167C680.091 419.366 680.483 419.65 680.809 420.002L682.922 422.276C683.152 422.523 683.428 422.721 683.735 422.86C684.042 422.998 684.374 423.075 684.711 423.085C685.048 423.094 685.383 423.037 685.698 422.916C686.012 422.795 686.3 422.613 686.543 422.38L688.939 420.075C689.299 419.731 689.725 419.464 690.192 419.291C690.659 419.118 691.156 419.043 691.653 419.069C692.15 419.096 692.636 419.224 693.082 419.446C693.527 419.667 693.923 419.978 694.244 420.358L695.553 421.912C695.789 422.192 696.083 422.418 696.414 422.574C696.746 422.731 697.107 422.814 697.473 422.818C697.84 422.822 698.202 422.747 698.537 422.598C698.872 422.449 699.17 422.229 699.413 421.954L702.319 418.635L703.144 419.367L700.241 422.688C699.895 423.084 699.467 423.4 698.987 423.614C698.507 423.829 697.987 423.937 697.461 423.931C696.936 423.925 696.418 423.805 695.943 423.58C695.468 423.355 695.047 423.029 694.71 422.626L693.408 421.07C693.183 420.804 692.907 420.586 692.595 420.431C692.283 420.276 691.943 420.186 691.596 420.168C691.248 420.149 690.9 420.203 690.574 420.324C690.247 420.446 689.949 420.633 689.698 420.874L687.295 423.178C686.947 423.513 686.536 423.776 686.086 423.95C685.636 424.124 685.155 424.207 684.673 424.193C684.19 424.18 683.715 424.07 683.275 423.871C682.835 423.671 682.44 423.386 682.112 423.032L680.001 420.759C679.54 420.265 678.902 419.974 678.227 419.95C677.892 419.936 677.558 419.988 677.243 420.105C676.929 420.221 676.642 420.4 676.398 420.629L673.654 423.191C672.949 423.844 672.015 424.192 671.054 424.162C670.094 424.131 669.184 423.724 668.522 423.028L665.312 419.614Z" fill="#FFB502"/>
<g opacity="0.5">
<path d="M736.124 279.115L735.143 280.112L739.863 284.761L740.844 283.763L736.124 279.115Z" fill="white"/>
<path d="M736.176 284.742L735.187 283.754L739.813 279.115L740.804 280.103L736.176 284.742Z" fill="white"/>
</g>
<g opacity="0.5">
<path d="M732.185 300.763C731.743 300.763 731.311 300.631 730.944 300.385C730.577 300.139 730.291 299.79 730.122 299.382C729.953 298.973 729.909 298.523 729.995 298.09C730.082 297.656 730.295 297.258 730.607 296.945C730.92 296.633 731.318 296.42 731.752 296.334C732.185 296.248 732.635 296.292 733.043 296.461C733.451 296.631 733.8 296.917 734.046 297.285C734.291 297.653 734.422 298.085 734.422 298.527C734.421 299.12 734.185 299.688 733.765 300.107C733.346 300.526 732.778 300.762 732.185 300.763ZM732.185 297.286C731.94 297.286 731.701 297.359 731.497 297.495C731.294 297.631 731.135 297.825 731.041 298.051C730.948 298.278 730.923 298.527 730.971 298.767C731.019 299.007 731.137 299.228 731.31 299.401C731.483 299.574 731.704 299.692 731.944 299.74C732.184 299.788 732.433 299.763 732.659 299.67C732.886 299.576 733.079 299.417 733.215 299.213C733.351 299.01 733.424 298.77 733.424 298.525C733.422 298.197 733.291 297.883 733.059 297.652C732.827 297.42 732.513 297.289 732.185 297.288V297.286Z" fill="white"/>
<path d="M743.564 298.752L744.131 298.123C744.131 298.123 743.851 297.841 743.568 297.565C743.284 297.288 743.043 296.961 743.043 296.961L742.386 297.492C742.386 297.492 742.666 297.817 742.95 298.143L743.564 298.752Z" fill="white"/>
<path d="M745.9 300.038L746.083 299.206C745.843 299.152 745.61 299.073 745.388 298.97C745.229 298.901 745.076 298.818 744.932 298.721L744.731 298.591L744.252 299.29L744.486 299.44C744.659 299.557 744.842 299.657 745.035 299.738C745.312 299.868 745.602 299.968 745.9 300.038Z" fill="white"/>
<path d="M748.568 299.69L748.232 298.912C747.999 299.017 747.758 299.102 747.511 299.166C747.272 299.23 747.027 299.267 746.78 299.274L746.805 300.123C747.114 300.112 747.421 300.067 747.72 299.988C748.01 299.911 748.294 299.812 748.568 299.69Z" fill="white"/>
<path d="M750.765 298.424L750.31 297.712L749.611 298.153L748.919 298.568L749.331 299.3L750.063 298.865L750.765 298.424Z" fill="white"/>
<path d="M752.845 297.335L752.59 296.528C752.309 296.623 752.034 296.734 751.766 296.861C751.374 297.053 751.008 297.273 751.008 297.273L751.44 298.005C751.44 298.005 751.786 297.8 752.135 297.623C752.366 297.513 752.603 297.417 752.845 297.335Z" fill="white"/>
<path d="M754.941 297.442L755.29 296.671C755.008 296.54 754.709 296.446 754.403 296.391C754.095 296.335 753.781 296.322 753.47 296.351L753.549 297.196C753.784 297.171 754.022 297.181 754.255 297.226C754.491 297.27 754.721 297.342 754.941 297.442Z" fill="white"/>
<path d="M756.707 298.866L757.344 298.304C757.344 298.304 757.05 297.991 756.742 297.68C756.574 297.538 756.408 297.391 756.281 297.287C756.209 297.228 756.133 297.174 756.055 297.124L755.568 297.818C755.568 297.818 755.647 297.867 755.76 297.957C755.873 298.046 756.018 298.174 756.162 298.301C756.439 298.57 756.707 298.866 756.707 298.866Z" fill="white"/>
</g>
<path d="M602.445 252.138L603.91 252.133L603.893 248.65L602.43 248.656L602.445 252.138Z" fill="#1C2745"/>
<path d="M603.911 253.837L602.448 253.845L602.466 257.327L603.929 257.319L603.911 253.837Z" fill="#1C2745"/>
<path d="M602.498 262.51L603.963 262.503L603.945 259.021L602.481 259.028L602.498 262.51Z" fill="#1C2745"/>
<path d="M603.977 264.205L602.512 264.212L602.527 267.694L603.993 267.687L603.977 264.205Z" fill="#1C2745"/>
<path d="M602.549 272.883L604.014 272.878L603.998 269.396L602.534 269.401L602.549 272.883Z" fill="#1C2745"/>
<path d="M602.576 278.07L604.041 278.062L604.023 274.58L602.56 274.587L602.576 278.07Z" fill="#1C2745"/>
<path d="M602.602 283.249L604.067 283.246L604.049 279.764L602.586 279.771L602.602 283.249Z" fill="#1C2745"/>
<path d="M650.713 257.554H609.63V408.883H650.713V257.554Z" fill="#4AA29A"/>
<path d="M723.247 257.552H650.711V408.881H723.247V257.552Z" fill="#71D3CA"/>
<path d="M639.817 369.346H620.531V401.891H639.817V369.346Z" fill="#459991"/>
<path d="M637.433 372.82H622.91V374.234H637.433V372.82Z" fill="#34726C"/>
<path d="M637.433 375.289H622.91V376.703H637.433V375.289Z" fill="#34726C"/>
<path d="M637.433 377.815H622.91V379.233H637.433V377.815Z" fill="#34726C"/>
<path d="M637.433 380.286H622.91V381.704H637.433V380.286Z" fill="#34726C"/>
<path d="M637.433 382.807H622.91V384.22H637.433V382.807Z" fill="#34726C"/>
<path d="M637.433 385.274H622.91V386.688H637.433V385.274Z" fill="#34726C"/>
<path d="M637.433 387.803H622.91V389.216H637.433V387.803Z" fill="#34726C"/>
<path d="M637.433 390.271H622.91V391.689H637.433V390.271Z" fill="#34726C"/>
<path d="M637.433 393.279H622.91V394.697H637.433V393.279Z" fill="#34726C"/>
<path d="M637.433 395.809H622.91V397.222H637.433V395.809Z" fill="#34726C"/>
<path d="M637.433 398.279H622.91V399.695H637.433V398.279Z" fill="#34726C"/>
<path d="M640.058 298.368H620.283L630.173 278.582L640.058 298.368Z" fill="#3C857E"/>
<path d="M622.197 297.025L630.173 281.49L638.146 297.025H622.197Z" fill="#E2581D"/>
<path d="M628.549 295.734L628.398 288.72L630.206 291.162L630.697 284.989L630.728 293.036L629.266 291.002L628.549 295.734Z" fill="white"/>
<path d="M715.095 270.065H659.696V293.21H715.095V270.065Z" fill="#3C857E"/>
<path d="M712.271 272.8H672.133V284.374H712.271V272.8Z" fill="#34726C"/>
<path d="M715.095 298.906H659.696V305.193H715.095V298.906Z" fill="#3C857E"/>
<path d="M663.845 312.681H659.696V335.717H663.845V312.681Z" fill="#3C857E"/>
<path d="M671.225 312.681H667.073V335.717H671.225V312.681Z" fill="#3C857E"/>
<path d="M678.603 312.681H674.455V335.717H678.603V312.681Z" fill="#3C857E"/>
<path d="M685.984 312.681H681.832V335.717H685.984V312.681Z" fill="#3C857E"/>
<path d="M692.21 312.681H688.058V335.717H692.21V312.681Z" fill="#3C857E"/>
<path d="M699.589 312.681H695.436V335.717H699.589V312.681Z" fill="#3C857E"/>
<path d="M706.965 312.681H702.817V335.717H706.965V312.681Z" fill="#3C857E"/>
<path d="M714.345 312.681H710.193V335.717H714.345V312.681Z" fill="#3C857E"/>
<path d="M712.532 333.215H712.01V379.233H712.532V333.215Z" fill="#3C857E"/>
<path d="M705.154 333.215H704.632V379.233H705.154V333.215Z" fill="#3C857E"/>
<path d="M697.773 333.215H697.251V379.233H697.773V333.215Z" fill="#3C857E"/>
<path d="M690.393 333.215H689.871V379.233H690.393V333.215Z" fill="#3C857E"/>
<path d="M684.169 333.215H683.647V379.233H684.169V333.215Z" fill="#3C857E"/>
<path d="M676.79 333.215H676.268V379.233H676.79V333.215Z" fill="#3C857E"/>
<path d="M669.412 333.215H668.89V379.233H669.412V333.215Z" fill="#3C857E"/>
<path d="M662.033 333.215H661.511V379.233H662.033V333.215Z" fill="#3C857E"/>
<path d="M715.095 378.735H659.696V381.524H715.095V378.735Z" fill="#3C857E"/>
<path d="M661.589 315.456L661.618 311.42C661.619 310.93 661.813 310.46 662.157 310.111C662.444 309.822 662.834 309.658 663.241 309.655H663.253L670.162 309.707C670.499 309.707 670.832 309.638 671.142 309.505C671.452 309.372 671.731 309.178 671.963 308.933C672.44 308.427 672.705 307.757 672.704 307.061L672.74 302.057H671.697L671.66 307.061C671.661 307.492 671.499 307.907 671.206 308.222C671.075 308.364 670.917 308.478 670.741 308.557C670.564 308.635 670.374 308.676 670.181 308.678H670.169L663.261 308.626H663.24C662.558 308.629 661.906 308.9 661.422 309.38C660.881 309.925 660.577 310.662 660.574 311.43L660.543 315.456H661.589Z" fill="#3C857E"/>
<path d="M676.486 315.457L676.514 311.419C676.513 310.949 676.691 310.495 677.012 310.151C677.156 309.995 677.329 309.87 677.523 309.784C677.717 309.699 677.926 309.654 678.137 309.652H678.151L685.058 309.706H685.081C685.416 309.705 685.747 309.634 686.053 309.499C686.359 309.364 686.634 309.167 686.861 308.921C687.335 308.416 687.601 307.75 687.603 307.057L687.636 302.046H686.592L686.558 307.055C686.559 307.485 686.397 307.9 686.103 308.215C685.972 308.36 685.812 308.475 685.633 308.554C685.454 308.632 685.261 308.673 685.065 308.671L678.159 308.619H678.137C677.784 308.62 677.434 308.694 677.11 308.836C676.785 308.977 676.494 309.184 676.253 309.443C675.75 309.98 675.47 310.688 675.47 311.423L675.441 315.461L676.486 315.457Z" fill="#3C857E"/>
<path d="M690.478 315.456L690.507 311.418C690.507 310.442 691.164 309.651 691.957 309.651L698.291 309.701H698.307C698.889 309.695 699.445 309.458 699.853 309.044C700.376 308.511 700.668 307.793 700.665 307.046L700.704 302.041H699.658L699.619 307.046C699.624 307.515 699.445 307.968 699.121 308.307C699.015 308.417 698.888 308.505 698.747 308.566C698.607 308.627 698.456 308.66 698.303 308.663L691.97 308.612H691.953C690.588 308.612 689.471 309.867 689.457 311.418L689.428 315.456H690.478Z" fill="#3C857E"/>
<path d="M704.945 315.455L704.974 311.423C704.968 310.953 705.11 310.493 705.38 310.108C705.466 309.979 705.58 309.871 705.714 309.792C705.848 309.713 705.998 309.666 706.153 309.654L711.639 309.69H711.655C712.146 309.682 712.614 309.48 712.957 309.128C713.49 308.563 713.781 307.813 713.767 307.037L713.808 302.03H712.762L712.722 307.037C712.736 307.536 712.557 308.021 712.223 308.391C712.074 308.548 711.869 308.642 711.653 308.652L706.167 308.615H706.151C705.833 308.624 705.521 308.706 705.241 308.857C704.961 309.008 704.719 309.223 704.537 309.483C704.132 310.046 703.916 310.724 703.92 311.417L703.891 315.451L704.945 315.455Z" fill="#3C857E"/>
<path d="M715.095 385.977H659.696V394.693H715.095V385.977Z" fill="#3C857E"/>
<path d="M663.845 344.969H659.696V350.962H663.845V344.969Z" fill="#3C857E"/>
<path d="M671.225 361.947H667.073V367.94H671.225V361.947Z" fill="#3C857E"/>
<path d="M678.603 347.968H674.455V353.957H678.603V347.968Z" fill="#3C857E"/>
<path d="M685.982 370.529H681.832V376.522H685.982V370.529Z" fill="#3C857E"/>
<path d="M692.21 341.974H688.058V347.967H692.21V341.974Z" fill="#3C857E"/>
<path d="M706.489 344.969H702.337V350.962H706.489V344.969Z" fill="#3C857E"/>
<path d="M714.345 367.532H710.193V373.527H714.345V367.532Z" fill="#3C857E"/>
<path d="M652.708 272.151H650.05V308.729H652.708V272.151Z" fill="#71D3CA"/>
<path d="M652.708 356.035H650.05V392.618H652.708V356.035Z" fill="#71D3CA"/>
<path d="M815.358 467.262H827.271L816.737 438.303H804.826L815.358 467.262Z" fill="#34726C"/>
<path d="M844.067 464.185H801.962V470.338H844.067V464.185Z" fill="#34726C"/>
<path d="M752.473 446.448H862.837H866.093L890.827 378.459L887.99 377.305H777.631L752.473 446.448Z" fill="#34726C"/>
<path d="M811.918 467.262H823.831L813.292 438.303H801.381L811.918 467.262Z" fill="#3C857E"/>
<path d="M749.217 446.45H862.838L887.991 377.307H774.373L749.217 446.45Z" fill="#3C857E"/>
<path d="M853.427 401.019H871.912L878.525 382.853H860.037L853.427 401.019Z" fill="#5FBAB2"/>
<path d="M846.217 420.834H864.705L871.315 402.67H852.825L846.217 420.834Z" fill="#5FBAB2"/>
<path d="M839.007 440.651H857.495L864.105 422.484H845.617L839.007 440.651Z" fill="#5FBAB2"/>
<path d="M833.391 401.18H851.881L858.49 383.011H839.999L833.391 401.18Z" fill="#5FBAB2"/>
<path d="M826.181 421H844.669L851.28 402.833H832.792L826.181 421Z" fill="#5FBAB2"/>
<path d="M818.971 440.817H837.459L844.067 422.653H825.579L818.971 440.817Z" fill="#5FBAB2"/>
<path d="M813.28 401.101H831.771L838.381 382.932H819.891L813.28 401.101Z" fill="#5FBAB2"/>
<path d="M806.07 420.916H824.558L831.171 402.752H812.683L806.07 420.916Z" fill="#5FBAB2"/>
<path d="M798.863 440.738H817.348L823.959 422.569H805.473L798.863 440.738Z" fill="#5FBAB2"/>
<path d="M793.247 401.264H811.735L818.346 383.098H799.858L793.247 401.264Z" fill="#5FBAB2"/>
<path d="M786.037 421.082H804.525L811.136 402.915H792.645L786.037 421.082Z" fill="#5FBAB2"/>
<path d="M778.827 440.899H797.315L803.926 422.732H785.435L778.827 440.899Z" fill="#5FBAB2"/>
<path d="M773.108 401.264H791.596L798.204 383.098H779.716L773.108 401.264Z" fill="#5FBAB2"/>
<path d="M765.895 421.082H784.383L790.996 402.915H772.506L765.895 421.082Z" fill="#5FBAB2"/>
<path d="M758.688 440.899H777.178L783.786 422.732H765.296L758.688 440.899Z" fill="#5FBAB2"/>
<path d="M832.176 464.185H798.517V470.338H832.176V464.185Z" fill="#3C857E"/>
<path d="M719.632 472.223H729.734L720.797 447.666H710.699L719.632 472.223Z" fill="#34726C"/>
<path d="M743.979 469.617H708.27V474.832H743.979V469.617Z" fill="#34726C"/>
<path d="M666.302 454.574H759.894H762.654L783.63 396.92L781.223 395.938H687.633L666.302 454.574Z" fill="#2A5E59"/>
<path d="M716.71 472.223H726.811L717.878 447.666H707.775L716.71 472.223Z" fill="#3C857E"/>
<path d="M663.539 454.574H759.894L781.223 395.938H684.873L663.539 454.574Z" fill="#34726C"/>
<path d="M751.911 416.046H767.59L773.195 400.641H757.515L751.911 416.046Z" fill="#5FBAB2"/>
<path d="M745.796 432.856H761.477L767.083 417.446H751.402L745.796 432.856Z" fill="#5FBAB2"/>
<path d="M739.683 449.658H755.361L760.967 434.253H745.287L739.683 449.658Z" fill="#5FBAB2"/>
<path d="M734.923 416.184H750.601L756.204 400.779H740.526L734.923 416.184Z" fill="#5FBAB2"/>
<path d="M728.808 432.993H744.486L750.089 417.586H734.411L728.808 432.993Z" fill="#5FBAB2"/>
<path d="M722.69 449.798H738.371L743.979 434.393H728.299L722.69 449.798Z" fill="#5FBAB2"/>
<path d="M717.868 416.118H733.546L739.152 400.713H723.472L717.868 416.118Z" fill="#5FBAB2"/>
<path d="M711.753 432.927H727.431L733.037 417.518H717.359L711.753 432.927Z" fill="#5FBAB2"/>
<path d="M705.638 449.729H721.319L726.922 434.324H711.244L705.638 449.729Z" fill="#5FBAB2"/>
<path d="M700.878 416.257H716.556L722.162 400.852H706.484L700.878 416.257Z" fill="#5FBAB2"/>
<path d="M694.763 433.067H710.441L716.049 417.659H700.368L694.763 433.067Z" fill="#5FBAB2"/>
<path d="M688.65 449.868H704.328L709.933 434.463H694.253L688.65 449.868Z" fill="#5FBAB2"/>
<path d="M683.797 416.257H699.48L705.081 400.852H689.403L683.797 416.257Z" fill="#5FBAB2"/>
<path d="M677.682 433.067H693.362L698.968 417.659H683.288L677.682 433.067Z" fill="#5FBAB2"/>
<path d="M671.569 449.868H687.249L692.853 434.463H677.175L671.569 449.868Z" fill="#5FBAB2"/>
<path d="M733.893 469.617H705.347V474.832H733.893V469.617Z" fill="#3C857E"/>
<path d="M826.15 368.984C826.15 368.984 824.996 366.083 822.501 365.305C820.27 364.608 821.746 367.405 824.077 370.309L826.15 368.984Z" fill="#F7B2A0"/>
<path d="M851.434 384.425C853.249 385.44 853.348 387.27 851.548 389.45C848.794 392.793 845.357 390.783 838.774 387.836C831.294 384.489 823.656 370.032 823.656 370.032C823.656 370.032 824.028 368.136 825.89 368.449C825.89 368.449 831.669 376.117 839.049 379.519C842.674 381.194 847.612 382.292 851.434 384.425Z" fill="#EDA503"/>
<path d="M839.71 382.552C836.32 385.138 833.441 391.441 832.088 412.068C831.794 416.6 858.089 417.698 858.186 413.144C858.423 401.055 856.352 396.078 852.898 385.157C851.945 382.201 846.406 377.387 839.71 382.552Z" fill="#FFB502"/>
<path d="M867.993 470.729C869.358 469.172 869.306 468.937 868.927 468.442C868.583 467.993 868.204 467.572 867.794 467.183L870.796 465.355C871.337 466.277 871.772 467.255 872.095 468.273C871.865 468.563 870.097 470.893 867.993 470.729Z" fill="#FBC6B4"/>
<path d="M872.102 468.279C872.105 468.257 872.115 468.236 872.13 468.22C873.834 470.763 869.941 472.271 867.657 472.603C865.373 472.934 868 470.735 868 470.735C870.097 470.891 871.865 468.561 872.102 468.279Z" fill="#FFB502"/>
<path d="M871.718 464.804C872.123 466.269 868.875 468.613 867.951 467.836C860.094 461.156 851.687 446.618 848.553 440.669C848.408 440.406 848.271 440.159 848.145 439.939C846.577 437.372 845.681 437.9 840.367 426.027C838.639 422.197 837.599 415.479 837.599 415.479L842.873 413.301L855.014 408.192C859.224 412.205 860.644 423.806 861.558 428.511C862.312 432.482 863.188 438.901 864.02 441.992C866.953 452.793 869.069 454.986 871.718 464.804Z" fill="#2E2E2E"/>
<path d="M837.234 473.64C839.13 472.806 839.179 472.557 839.049 471.95C838.916 471.404 838.747 470.867 838.544 470.343L842.034 469.936C842.136 470.999 842.12 472.071 841.987 473.131C841.67 473.294 839.094 474.664 837.234 473.64Z" fill="#FBC6B4"/>
<path d="M841.987 473.131C842.006 473.113 842.025 473.096 842.046 473.081C842.537 476.12 838.369 475.852 836.159 475.2C833.948 474.548 837.234 473.64 837.234 473.64C839.094 474.664 841.67 473.294 841.987 473.131Z" fill="#FFB502"/>
<path d="M848.998 432.588C848.022 436.523 845.844 440.576 845.844 446.099C845.844 457.32 844.785 459.809 843.115 469.824C842.93 470.988 840.471 471.72 839.149 471.455C838.965 471.428 838.791 471.358 838.639 471.251C838.534 471.203 838.45 471.119 838.402 471.014C834.066 461.667 831.159 445.76 830.768 439.064C830.531 435.11 830.65 435.596 830.792 421.502C830.832 417.287 832.664 410.752 832.664 410.752L850.168 411.323C852.315 416.73 850.121 427.947 848.998 432.588Z" fill="#404040"/>
<path d="M839.149 471.44C838.965 471.413 838.791 471.343 838.639 471.236C835.99 463.845 834.848 455.981 833.874 449.18C833.038 443.418 832.107 436.854 832.081 430.428C832.062 423.379 833.201 417.168 835.462 411.956C835.484 411.906 835.525 411.867 835.575 411.848C835.626 411.828 835.682 411.828 835.732 411.849C835.781 411.871 835.82 411.911 835.842 411.96C835.864 412.01 835.867 412.065 835.85 412.117C833.607 417.265 832.469 423.44 832.491 430.428C832.512 436.842 833.438 443.38 834.282 449.14C835.279 456.007 836.438 463.995 839.149 471.44Z" fill="white"/>
<path d="M836.912 384.502C836.912 384.502 842.47 390.333 840.02 400.621C840.02 400.621 838.251 407.123 832.521 406.504L831.427 416.064C831.427 416.064 842.006 421.66 858.201 413.828C858.201 413.828 860.57 397.857 852.441 384.199C852.441 384.199 850.737 381.591 848.825 380.994C848.825 380.994 858.283 396.807 851.069 398.179C843.854 399.552 839.696 382.568 839.696 382.568L836.912 384.502Z" fill="#404040"/>
<path d="M846.776 377.318C846.776 377.318 848.013 382.55 846.989 383.778C845.965 385.006 840.516 383.759 840.777 381.81C840.995 380.186 841.341 378.582 841.812 377.013L846.776 377.318Z" fill="#FBC6B4"/>
<path d="M849.83 371.935C849.83 376.538 847.257 380.272 844.084 380.272C842.663 380.272 839.49 380.658 838.488 379.418C837.253 377.894 837.246 373.966 837.957 371.539C839.594 365.914 841.985 364.061 845.148 364.061C848.311 364.061 849.83 367.332 849.83 371.935Z" fill="#FBC6B4"/>
<path d="M844.394 380.802C846.387 380.906 849.725 380.214 851.571 376.118C853.261 372.373 852.282 366.13 848.515 364.217C846.276 363.081 843.222 362.894 840.767 364.06C837.293 365.719 837.744 367.824 838.445 368.17C839.905 368.882 841.051 367.746 840.767 369.744C840.53 371.285 840.658 374.682 842.091 374.888C843.525 375.094 844.738 375.099 844.394 377.171C844.143 378.742 842.38 380.698 844.394 380.802Z" fill="#404040"/>
<path d="M841.551 370.806C841.551 370.806 833.718 366.255 835.955 364.012C837.777 362.19 843.97 364.596 843.97 364.596L841.551 370.806Z" fill="#EDA503"/>
<path d="M839.021 366.727C839.772 370.899 843.354 373.172 852.353 375.581C852.353 375.581 856.883 367.502 851.041 363.212C845.89 359.431 838.526 363.966 839.021 366.727Z" fill="#FFB502"/>
<path d="M833.071 427.396C822.509 427.396 813.932 411.479 813.932 401.085C813.937 396.008 815.956 391.141 819.544 387.55C823.132 383.96 827.997 381.94 833.071 381.933C843.298 381.933 854.524 393.832 854.524 404.664C854.524 415.497 843.298 427.396 833.071 427.396ZM833.071 382.935C828.26 382.942 823.649 384.858 820.247 388.261C816.846 391.665 814.933 396.279 814.927 401.092C814.927 411.086 823.056 426.398 833.071 426.398C842.824 426.398 853.528 415.021 853.528 404.672C853.528 394.323 842.824 382.935 833.071 382.935Z" fill="#C1E4FA"/>
<path d="M833.282 419.258C824.279 419.258 817.519 406.136 817.519 397.628C817.523 393.447 819.185 389.438 822.14 386.48C825.096 383.523 829.102 381.859 833.282 381.854C841.698 381.854 850.936 391.643 850.936 400.556C850.936 409.468 841.698 419.258 833.282 419.258ZM833.282 382.849C829.366 382.853 825.611 384.412 822.843 387.183C820.074 389.954 818.517 393.71 818.514 397.628C818.514 405.773 825.132 418.262 833.282 418.262C841.222 418.262 849.941 408.997 849.941 400.556C849.941 392.115 841.222 382.849 833.282 382.849Z" fill="#C1E4FA"/>
<path d="M833.915 416.558C824.911 416.558 818.149 403.441 818.149 394.934C818.154 390.752 819.817 386.743 822.772 383.786C825.728 380.83 829.735 379.166 833.915 379.161C842.328 379.161 851.569 388.946 851.569 397.861C851.569 406.776 842.328 416.558 833.915 416.558ZM833.915 380.154C829.998 380.159 826.244 381.718 823.475 384.489C820.706 387.259 819.148 391.016 819.144 394.934C819.144 403.081 825.762 415.556 833.915 415.556C841.854 415.556 850.574 406.29 850.574 397.852C850.574 389.413 841.854 380.154 833.915 380.154Z" fill="#C1E4FA"/>
<path d="M813.342 373.812C813.342 373.812 814.23 367.203 812.709 368.979C811.188 370.754 809.551 371.048 810.972 374.495L813.342 373.812Z" fill="#F7B2A0"/>
<path d="M839.007 384.921C841.701 388.669 839.954 391.596 837.613 393.172C834.024 395.597 827.61 398.669 820.08 395.476C812.55 392.283 810.643 374.105 810.643 374.105C810.643 374.105 811.536 372.401 813.237 373.223C813.237 373.223 817.192 386.858 824.43 388.138C827.923 388.747 836.452 381.366 839.007 384.921Z" fill="#FFB502"/>
<path d="M879.051 477.676C870.047 477.676 862.939 475 857.829 469.669C841.267 452.349 851.448 413.581 851.891 411.938L852.839 412.199C852.732 412.597 842.359 452.069 858.525 468.986C865.633 476.403 876.85 478.468 891.9 475.13L892.116 476.1C887.402 477.149 883.047 477.674 879.051 477.676Z" fill="#C1E4FA"/>
</g>
</svg>
