<svg width="756" height="450" viewBox="0 0 756 450" fill="none" xmlns="http://www.w3.org/2000/svg">
<g opacity="0.1">
<path d="M255.061 378.21C250.613 374.247 248.258 367.503 249.137 361.79C249.693 358.219 259.729 352.003 259.729 352.003L244.751 335.714C244.751 335.714 237.724 345.243 234.122 345.492C228.624 345.901 222.406 343.067 219.062 338.474C216.937 335.558 219.692 324.062 219.692 324.062L197.56 323.109C197.56 323.109 199.293 334.81 196.943 337.517C193.672 341.276 187.863 343.182 183.109 342.233C179.565 341.525 173.846 331.191 173.846 331.191L156.889 345.435C156.889 345.435 166.071 352.874 166.16 356.477C166.312 362.526 163.099 369.192 158.034 372.807C155.086 374.905 143.611 371.989 143.611 371.989L142.385 394.11C142.385 394.11 154.081 392.507 156.754 394.9C161.21 398.883 163.569 405.623 162.686 411.328C162.138 414.894 152.082 421.115 152.082 421.115L167.06 437.396C167.06 437.396 174.079 427.879 177.688 427.625C183.174 427.216 189.417 430.079 192.761 434.635C194.882 437.563 192.152 449.047 192.152 449.047L214.263 450C214.263 450 212.514 438.308 214.864 435.592C218.134 431.842 223.972 429.928 228.726 430.881C232.254 431.6 237.981 441.923 237.981 441.923L254.93 427.678C254.93 427.678 245.765 420.235 245.654 416.636C245.515 410.592 248.72 403.93 253.789 400.31C256.733 398.225 268.22 401.128 268.22 401.128L269.446 379.011C269.446 379.011 257.767 380.606 255.061 378.21ZM204.37 422.71C197.124 422.399 190.133 419.945 184.28 415.658C178.428 411.372 173.978 405.446 171.493 398.629C169.008 391.812 168.599 384.411 170.318 377.362C172.038 370.312 175.808 363.932 181.153 359.027C186.498 354.121 193.176 350.912 200.344 349.804C207.512 348.697 214.848 349.74 221.422 352.804C227.997 355.867 233.517 360.812 237.282 367.014C241.047 373.216 242.89 380.395 242.576 387.645C242.369 392.457 241.217 397.181 239.185 401.548C237.152 405.914 234.28 409.837 230.733 413.093C227.185 416.35 223.031 418.875 218.508 420.525C213.984 422.175 209.18 422.917 204.37 422.71Z" fill="#404040"/>
<path d="M233.931 387.758C233.69 393.296 231.814 398.639 228.538 403.11C225.263 407.582 220.736 410.981 215.529 412.879C210.323 414.776 204.671 415.087 199.288 413.771C193.905 412.455 189.033 409.572 185.288 405.486C181.543 401.4 179.093 396.295 178.248 390.817C177.402 385.338 178.2 379.731 180.54 374.706C182.879 369.681 186.656 365.463 191.392 362.584C196.128 359.706 201.61 358.298 207.147 358.537C210.824 358.693 214.435 359.573 217.772 361.127C221.109 362.68 224.108 364.877 226.595 367.591C229.083 370.305 231.011 373.483 232.27 376.944C233.529 380.404 234.093 384.079 233.931 387.758Z" fill="#404040"/>
</g>
<g opacity="0.1">
<path d="M91.3281 273.915C84.7874 268.1 81.3454 258.207 82.6371 249.823C83.4547 244.584 98.1713 235.464 98.1713 235.464L76.1946 211.564C76.1946 211.564 65.8848 225.546 60.6114 225.906C52.5418 226.499 43.4216 222.352 38.512 215.617C35.397 211.331 39.4359 194.469 39.4359 194.469L6.96551 193.07C6.96551 193.07 9.50819 210.247 6.06207 214.21C1.27101 219.723 -7.26457 222.52 -14.2427 221.126C-19.4384 220.091 -27.835 204.934 -27.835 204.934L-52.7019 225.82C-52.7019 225.82 -39.2118 236.74 -39.0973 242.012C-38.8806 250.886 -43.594 260.673 -51.0218 265.977C-55.3468 269.053 -72.185 264.795 -72.185 264.795L-74 297.251C-74 297.251 -56.8307 294.899 -52.9186 298.408C-46.3779 304.252 -42.9195 314.141 -44.2154 322.513C-45.0329 327.748 -59.774 336.868 -59.774 336.868L-37.7932 360.78C-37.7932 360.78 -27.5121 346.801 -22.1978 346.429C-14.1487 345.857 -4.98762 350.008 -0.0820999 356.719C3.0329 361.013 -0.973267 377.863 -0.973267 377.863L31.4686 379.261C31.4686 379.261 28.9013 362.085 32.3515 358.122C37.1589 352.621 45.715 349.811 52.689 351.21C57.8643 352.265 66.2731 367.413 66.2731 367.413L91.1359 346.511C91.1359 346.511 77.6867 335.592 77.5313 330.308C77.3269 321.441 82.028 311.663 89.464 306.355C93.7849 303.295 110.635 307.553 110.635 307.553L112.43 275.105C112.43 275.105 95.2811 277.428 91.3281 273.915ZM16.9278 339.207C2.67074 338.59 -10.7575 332.333 -20.403 321.811C-30.0484 311.29 -35.1208 297.366 -34.5045 283.103C-33.8881 268.839 -27.6334 255.405 -17.1163 245.756C-6.59926 236.106 7.31871 231.032 21.5758 231.648C51.2296 232.941 74.31 258.047 72.9855 287.746C72.6844 294.81 70.9949 301.744 68.0136 308.154C65.0322 314.563 60.8175 320.322 55.6103 325.101C50.4031 329.88 44.3055 333.586 37.666 336.006C31.0265 338.427 23.9753 339.514 16.9155 339.207H16.9278Z" fill="#404040"/>
<path d="M60.3089 287.945C59.9562 296.07 57.2029 303.909 52.3973 310.469C47.5917 317.03 40.9496 322.017 33.3108 324.802C25.672 327.586 17.3795 328.041 9.48191 326.111C1.58431 324.18 -5.56374 319.95 -11.0585 313.955C-16.5532 307.961 -20.1478 300.471 -21.3878 292.433C-22.6278 284.394 -21.4575 276.169 -18.0248 268.796C-14.5922 261.423 -9.0514 255.234 -2.10301 251.011C4.84537 246.788 12.8893 244.722 21.0117 245.072C26.4067 245.303 31.7034 246.595 36.5989 248.875C41.4944 251.155 45.8927 254.378 49.5424 258.36C53.192 262.342 56.0214 267.004 57.8688 272.08C59.7162 277.157 60.5454 282.547 60.3089 287.945Z" fill="#404040"/>
</g>
<g opacity="0.1">
<path d="M738.533 282.752C733.141 277.951 730.283 269.779 731.354 262.856C732.025 258.529 744.191 250.995 744.191 250.995L726.036 231.259C726.036 231.259 717.525 242.804 713.175 243.119C706.508 243.609 698.974 240.182 694.923 234.62C692.347 231.083 695.683 217.157 695.683 217.157L668.87 216C668.87 216 670.967 230.179 668.122 233.459C664.165 238.015 657.118 240.321 651.362 239.184C647.074 238.33 640.14 225.811 640.14 225.811L619.586 243.041C619.586 243.041 630.71 252.038 630.82 256.414C631.004 263.743 627.112 271.824 620.972 276.204C617.403 278.744 603.496 275.227 603.496 275.227L602 302.031C602 302.031 616.169 300.088 619.411 302.983C624.807 307.809 627.668 315.976 626.597 322.892C625.935 327.211 613.749 334.752 613.749 334.752L631.899 354.485C631.899 354.485 640.402 342.952 644.772 342.625C651.415 342.15 658.982 345.586 663.037 351.123C665.604 354.673 662.297 368.582 662.297 368.582L689.089 369.743C689.089 369.743 686.964 355.573 689.817 352.281C693.782 347.741 700.854 345.422 706.61 346.555C710.886 347.426 717.827 359.936 717.827 359.936L738.361 342.674C738.361 342.674 727.254 333.656 727.123 329.296C726.956 321.968 730.835 313.895 736.979 309.515C740.548 306.987 754.463 310.504 754.463 310.504L755.947 283.705C755.947 283.705 741.795 285.655 738.533 282.752ZM677.079 336.67C668.3 336.293 659.829 333.32 652.739 328.127C645.649 322.933 640.257 315.753 637.246 307.494C634.235 299.235 633.74 290.268 635.823 281.727C637.907 273.187 642.475 265.456 648.95 259.513C655.425 253.57 663.517 249.681 672.201 248.339C680.886 246.997 689.773 248.261 697.739 251.972C705.705 255.683 712.392 261.674 716.955 269.188C721.517 276.701 723.75 285.399 723.371 294.182C723.12 300.013 721.724 305.737 719.262 311.028C716.8 316.319 713.32 321.073 709.021 325.018C704.722 328.964 699.689 332.024 694.208 334.023C688.728 336.022 682.907 336.922 677.079 336.67Z" fill="#404040"/>
<path d="M712.91 294.338C712.615 301.043 710.34 307.51 706.372 312.922C702.404 318.334 696.922 322.448 690.618 324.744C684.314 327.039 677.471 327.414 670.954 325.82C664.437 324.226 658.539 320.734 654.005 315.788C649.471 310.841 646.504 304.66 645.48 298.027C644.456 291.394 645.421 284.606 648.252 278.521C651.084 272.437 655.655 267.328 661.387 263.842C667.12 260.355 673.757 258.647 680.46 258.933C684.915 259.124 689.289 260.191 693.332 262.073C697.375 263.956 701.007 266.618 704.021 269.906C707.034 273.194 709.371 277.044 710.896 281.237C712.421 285.429 713.105 289.881 712.91 294.338Z" fill="#404040"/>
</g>
<circle opacity="0.2" cx="384" cy="200" r="200" fill="#4AA29A"/>
<circle cx="384" cy="200" r="180" fill="#89BDB9"/>
<mask id="mask0" mask-type="alpha" maskUnits="userSpaceOnUse" x="204" y="20" width="360" height="360">
<circle cx="384" cy="200" r="180" fill="#89BDB9"/>
</mask>
<g mask="url(#mask0)">
<path d="M341.774 126.004C350.867 119.354 352.417 105.998 345.241 96.177C339.452 88.2481 329.752 85.0545 321.445 87.5983C320.737 86.3291 319.954 85.1034 319.1 83.9279C308.465 69.3695 288.918 65.5548 275.443 75.4098C268.844 80.2365 264.929 87.4508 263.903 95.2629C260.592 95.057 257.278 95.905 254.481 97.9489C247.766 102.859 246.619 112.72 251.922 119.974C257.224 127.227 266.965 129.135 273.677 124.224C273.808 124.13 273.916 124.026 274.039 123.928C285.088 134.823 311.672 127.182 323.695 118.392C324.896 117.511 316.273 126.288 317.295 125.26C324.637 130.719 334.511 131.315 341.774 126.004Z" fill="#5FBAB2"/>
<path d="M390.194 126.793C396.703 122.038 397.972 112.705 393.04 105.956C389.061 100.511 382.259 98.4121 376.363 100.294C375.882 99.417 375.346 98.571 374.758 97.7613C367.448 87.7532 353.706 85.3558 344.067 92.4071C339.345 95.8594 336.487 100.941 335.657 106.402C333.266 106.285 330.907 106.991 328.972 108.4C324.168 111.913 323.227 118.802 326.873 123.788C330.519 128.774 337.364 129.974 342.166 126.463C342.26 126.395 342.339 126.32 342.426 126.249C350.077 133.697 361.94 134.931 370.541 128.642C371.388 128.022 372.187 127.339 372.931 126.599C378.043 130.312 384.998 130.599 390.194 126.793Z" fill="#5FBAB2"/>
<path d="M348.933 126.812C354.185 122.976 355.345 115.632 351.533 110.415C348.458 106.207 343.085 104.671 338.366 106.242C337.998 105.563 337.585 104.91 337.131 104.285C331.482 96.5493 320.595 94.8919 312.818 100.581C309.158 103.248 306.679 107.235 305.905 111.698C303.987 111.652 302.108 112.242 300.559 113.375C296.683 116.209 295.826 121.634 298.64 125.489C301.455 129.343 306.882 130.173 310.755 127.34C310.831 127.285 310.895 127.23 310.966 127.168C316.928 132.895 326.34 133.665 333.279 128.591C333.962 128.091 334.608 127.542 335.212 126.949C337.226 128.366 339.633 129.115 342.095 129.09C344.556 129.066 346.948 128.269 348.933 126.812Z" fill="#93D1CC"/>
<path d="M458.522 92.7773C464.057 88.7297 465 80.6011 460.632 74.6239C457.109 69.7982 451.205 67.8545 446.15 69.4028C445.719 68.6306 445.242 67.8847 444.723 67.1689C438.249 58.307 426.353 55.9867 418.151 61.9839C414.135 64.9223 411.753 69.313 411.129 74.0676C409.113 73.9423 407.096 74.4584 405.394 75.7023C401.307 78.6909 400.609 84.6915 403.836 89.1071C407.064 93.5226 412.991 94.6827 417.077 91.6942C417.156 91.6365 417.222 91.5735 417.297 91.5139C424.021 98.1445 440.201 93.4944 447.518 88.1446C448.25 87.6084 443.002 92.9502 443.623 92.3242C448.092 95.6472 454.101 96.0098 458.522 92.7773Z" fill="#5FBAB2"/>
<path d="M486.203 94.6757C490.046 91.868 490.795 86.358 487.884 82.3735C485.534 79.1563 481.519 77.9204 478.035 79.031C477.751 78.5141 477.434 78.0158 477.087 77.5391C472.772 71.6302 464.659 70.2154 458.969 74.3775C456.18 76.4164 454.493 79.4164 454.003 82.6396C452.591 82.5713 451.199 82.9877 450.056 83.8198C447.22 85.8935 446.665 89.9605 448.817 92.9042C450.969 95.8479 455.011 96.5563 457.845 94.4833C457.901 94.4431 457.948 94.3988 457.999 94.358C462.517 98.7547 469.522 99.4833 474.598 95.7702C475.098 95.4038 475.569 95.0006 476.009 94.5637C479.027 96.7527 483.136 96.9203 486.203 94.6757Z" fill="#5FBAB2"/>
<path d="M464.178 95.7973C467.571 93.3174 468.233 88.4508 465.661 84.9314C463.585 82.0923 460.04 80.9985 456.966 81.9824C456.714 81.5259 456.435 81.0856 456.129 80.664C452.317 75.4456 445.152 74.1956 440.125 77.8725C437.662 79.6727 436.172 82.3222 435.74 85.1693C434.493 85.1093 433.264 85.4772 432.256 86.2122C429.75 88.0433 429.26 91.6358 431.16 94.2356C433.061 96.8355 436.631 97.4608 439.133 95.6304C439.182 95.5949 439.223 95.5553 439.267 95.5191C443.257 99.4025 449.443 100.047 453.928 96.7664C454.369 96.4431 454.786 96.0871 455.174 95.7014C457.84 97.6324 461.468 97.7798 464.178 95.7973Z" fill="#93D1CC"/>
<path d="M819.022 321.777C819.022 356.947 624.472 385.457 384.478 385.457C144.484 385.457 -50.0652 356.947 -50.0652 321.777C-50.0652 286.606 144.487 258.096 384.478 258.096C624.469 258.096 819.022 286.635 819.022 321.777Z" fill="#53A69E"/>
<g opacity="0.2">
<path d="M419.75 197.804C418.553 196.737 417.919 194.921 418.155 193.382C418.305 192.421 421.008 190.747 421.008 190.747L416.974 186.361C416.974 186.361 415.082 188.927 414.112 188.994C412.632 189.104 410.958 188.341 410.057 187.104C409.485 186.319 410.227 183.223 410.227 183.223L404.267 182.967C404.267 182.967 404.734 186.117 404.101 186.846C403.22 187.858 401.656 188.372 400.376 188.116C399.422 187.926 397.882 185.143 397.882 185.143L393.316 188.978C393.316 188.978 395.788 190.982 395.812 191.952C395.853 193.581 394.988 195.376 393.624 196.349C392.83 196.914 389.74 196.129 389.74 196.129L389.41 202.085C389.41 202.085 392.559 201.654 393.279 202.298C394.479 203.371 395.114 205.185 394.876 206.722C394.729 207.682 392.021 209.357 392.021 209.357L396.054 213.741C396.054 213.741 397.944 211.178 398.916 211.11C400.393 211 402.074 211.771 402.975 212.998C403.546 213.786 402.811 216.878 402.811 216.878L408.765 217.135C408.765 217.135 408.294 213.986 408.927 213.255C409.807 212.245 411.379 211.73 412.659 211.987C413.609 212.18 415.151 214.96 415.151 214.96L419.715 211.124C419.715 211.124 417.247 209.12 417.218 208.151C417.18 206.523 418.043 204.729 419.408 203.755C420.201 203.193 423.294 203.975 423.294 203.975L423.624 198.02C423.624 198.02 420.479 198.449 419.75 197.804ZM406.101 209.786C404.15 209.703 402.267 209.042 400.691 207.888C399.115 206.733 397.917 205.138 397.248 203.302C396.579 201.466 396.469 199.474 396.932 197.575C397.395 195.677 398.41 193.959 399.849 192.638C401.288 191.317 403.087 190.453 405.017 190.155C406.947 189.857 408.922 190.138 410.693 190.963C412.463 191.788 413.949 193.119 414.963 194.789C415.977 196.459 416.473 198.392 416.389 200.344C416.333 201.64 416.023 202.912 415.475 204.088C414.928 205.264 414.155 206.32 413.2 207.197C412.244 208.074 411.126 208.754 409.908 209.198C408.69 209.642 407.396 209.842 406.101 209.786Z" fill="#E8F2FF"/>
<path d="M414.061 200.375C413.996 201.867 413.491 203.305 412.609 204.509C411.727 205.713 410.508 206.629 409.106 207.14C407.704 207.651 406.182 207.734 404.732 207.38C403.283 207.026 401.971 206.249 400.963 205.149C399.954 204.049 399.294 202.674 399.067 201.199C398.839 199.724 399.054 198.214 399.684 196.861C400.314 195.508 401.331 194.372 402.606 193.597C403.881 192.822 405.358 192.443 406.849 192.507C407.839 192.549 408.811 192.786 409.71 193.204C410.608 193.623 411.416 194.214 412.085 194.945C412.755 195.676 413.275 196.532 413.614 197.463C413.953 198.395 414.104 199.385 414.061 200.375Z" fill="#E8F2FF"/>
</g>
<g opacity="0.3">
<path d="M375.662 169.72C373.901 168.154 372.974 165.491 373.322 163.233C373.542 161.822 377.504 159.367 377.504 159.367L371.587 152.931C371.587 152.931 368.811 156.696 367.391 156.793C365.218 156.953 362.762 155.836 361.44 154.022C360.601 152.868 361.689 148.328 361.689 148.328L352.945 147.951C352.945 147.951 353.63 152.576 352.702 153.643C351.412 155.128 349.114 155.881 347.235 155.506C345.835 155.227 343.574 151.146 343.574 151.146L336.879 156.77C336.879 156.77 340.511 159.71 340.542 161.13C340.6 163.519 339.331 166.155 337.331 167.583C336.166 168.411 331.632 167.265 331.632 167.265L331.144 176.004C331.144 176.004 335.767 175.371 336.82 176.316C338.581 177.889 339.513 180.552 339.164 182.806C338.944 184.216 334.974 186.672 334.974 186.672L340.893 193.111C340.893 193.111 343.661 189.347 345.092 189.246C347.26 189.092 349.727 190.21 351.048 192.017C351.886 193.173 350.808 197.711 350.808 197.711L359.543 198.087C359.543 198.087 358.852 193.462 359.781 192.395C361.076 190.914 363.379 190.157 365.257 190.534C366.651 190.818 368.915 194.897 368.915 194.897L375.61 189.269C375.61 189.269 371.989 186.328 371.947 184.905C371.892 182.518 373.158 179.885 375.16 178.455C376.323 177.632 380.861 178.778 380.861 178.778L381.344 170.041C381.344 170.041 376.726 170.666 375.662 169.72ZM355.628 187.302C351.789 187.136 348.173 185.451 345.576 182.618C342.979 179.784 341.613 176.035 341.779 172.194C341.945 168.354 343.629 164.736 346.461 162.138C349.293 159.54 353.04 158.173 356.879 158.339C364.864 158.687 371.079 165.448 370.723 173.445C370.642 175.347 370.187 177.214 369.384 178.94C368.581 180.666 367.446 182.217 366.044 183.503C364.642 184.79 363 185.788 361.212 186.44C359.424 187.092 357.526 187.384 355.625 187.302H355.628Z" fill="#E8F2FF"/>
<path d="M367.309 173.498C367.214 175.686 366.473 177.797 365.179 179.563C363.885 181.33 362.096 182.673 360.039 183.422C357.982 184.172 355.749 184.295 353.623 183.775C351.496 183.255 349.572 182.116 348.092 180.502C346.612 178.888 345.644 176.871 345.311 174.706C344.977 172.542 345.292 170.327 346.216 168.342C347.14 166.356 348.632 164.69 350.503 163.553C352.374 162.416 354.54 161.859 356.728 161.954C358.18 162.016 359.607 162.364 360.925 162.978C362.243 163.592 363.427 164.46 364.41 165.532C365.393 166.604 366.155 167.859 366.652 169.226C367.15 170.593 367.373 172.045 367.309 173.498Z" fill="#E8F2FF"/>
</g>
<g opacity="0.3">
<path d="M447.42 158.367C445.968 157.074 445.199 154.874 445.487 153.009C445.668 151.844 448.943 149.816 448.943 149.816L444.055 144.501C444.055 144.501 441.763 147.61 440.592 147.695C438.797 147.827 436.768 146.904 435.677 145.407C434.984 144.454 435.882 140.704 435.882 140.704L428.662 140.393C428.662 140.393 429.227 144.211 428.46 145.094C427.395 146.321 425.497 146.942 423.947 146.635C422.793 146.405 420.926 143.034 420.926 143.034L415.391 147.674C415.391 147.674 418.386 150.097 418.416 151.275C418.465 153.248 417.418 155.424 415.764 156.604C414.803 157.288 411.058 156.341 411.058 156.341L410.656 163.558C410.656 163.558 414.471 163.035 415.344 163.815C416.797 165.114 417.567 167.313 417.279 169.176C417.1 170.339 413.819 172.369 413.819 172.369L418.707 177.683C418.707 177.683 420.996 174.577 422.173 174.489C423.962 174.361 425.999 175.286 427.091 176.777C427.782 177.733 426.892 181.479 426.892 181.479L434.106 181.791C434.106 181.791 433.534 177.976 434.302 177.089C435.37 175.867 437.274 175.242 438.824 175.547C439.975 175.782 441.845 179.151 441.845 179.151L447.374 174.502C447.374 174.502 444.383 172.074 444.348 170.9C444.303 168.927 445.347 166.753 447.002 165.573C447.963 164.893 451.71 165.84 451.71 165.84L452.109 158.624C452.109 158.624 448.298 159.149 447.42 158.367ZM430.872 172.886C428.508 172.784 426.227 171.984 424.318 170.585C422.409 169.187 420.957 167.253 420.146 165.029C419.336 162.805 419.202 160.391 419.763 158.091C420.324 155.791 421.554 153.71 423.298 152.109C425.041 150.509 427.22 149.462 429.559 149.101C431.897 148.739 434.29 149.08 436.435 150.079C438.58 151.078 440.381 152.691 441.61 154.715C442.838 156.738 443.439 159.08 443.337 161.445C443.27 163.015 442.894 164.556 442.231 165.981C441.568 167.406 440.631 168.686 439.473 169.748C438.316 170.811 436.96 171.634 435.485 172.173C434.009 172.711 432.442 172.953 430.872 172.886Z" fill="#E8F2FF"/>
<path d="M440.52 161.487C440.441 163.293 439.828 165.034 438.76 166.491C437.692 167.949 436.215 169.056 434.518 169.675C432.82 170.293 430.978 170.394 429.223 169.964C427.468 169.535 425.88 168.595 424.659 167.263C423.438 165.931 422.639 164.267 422.363 162.48C422.088 160.694 422.348 158.867 423.11 157.228C423.872 155.59 425.103 154.214 426.647 153.275C428.19 152.336 429.978 151.877 431.782 151.954C432.982 152.005 434.16 152.292 435.249 152.799C436.337 153.306 437.315 154.023 438.127 154.908C438.938 155.794 439.567 156.83 439.978 157.959C440.389 159.088 440.573 160.287 440.52 161.487Z" fill="#E8F2FF"/>
</g>
<path d="M390.588 223.854L390.351 222.889C455.818 206.7 476.969 170.053 477.176 169.686L478.042 170.171C477.834 170.542 456.464 207.564 390.588 223.854Z" fill="#459991"/>
<path d="M433.362 226.644C431.77 226.644 430.123 226.599 428.416 226.493L428.475 225.502C452.254 226.922 464.604 217.705 464.727 217.611L465.331 218.401C465.214 218.492 454.285 226.644 433.362 226.644Z" fill="#459991"/>
<path d="M394.1 223.373C394.099 223.756 393.947 224.123 393.676 224.395C393.405 224.666 393.038 224.819 392.655 224.82H388.286C387.903 224.82 387.535 224.667 387.263 224.396C386.992 224.124 386.839 223.757 386.838 223.373C386.838 222.989 386.991 222.62 387.263 222.349C387.534 222.077 387.902 221.924 388.286 221.924H392.655C393.039 221.925 393.406 222.078 393.677 222.349C393.948 222.621 394.1 222.989 394.1 223.373Z" fill="#5BD595"/>
<path d="M394.1 225.999C394.1 226.383 393.947 226.75 393.677 227.021C393.406 227.292 393.038 227.445 392.655 227.445H388.286C387.903 227.445 387.535 227.293 387.263 227.022C386.992 226.751 386.839 226.383 386.838 225.999C386.838 225.809 386.875 225.62 386.948 225.444C387.021 225.268 387.127 225.108 387.262 224.974C387.396 224.839 387.556 224.732 387.732 224.659C387.907 224.586 388.096 224.549 388.286 224.549H392.655C393.039 224.55 393.407 224.703 393.678 224.975C393.949 225.247 394.101 225.615 394.1 225.999Z" fill="#5BD595"/>
<path d="M394.1 228.627C394.1 229.01 393.947 229.377 393.677 229.648C393.406 229.92 393.038 230.072 392.655 230.072H388.286C387.903 230.072 387.535 229.92 387.263 229.649C386.992 229.378 386.839 229.01 386.838 228.627C386.838 228.242 386.991 227.874 387.262 227.602C387.534 227.33 387.902 227.178 388.286 227.178H392.655C392.845 227.178 393.033 227.216 393.209 227.288C393.384 227.361 393.543 227.468 393.678 227.603C393.812 227.737 393.918 227.897 393.991 228.073C394.063 228.248 394.1 228.437 394.1 228.627Z" fill="#5BD595"/>
<path d="M394.1 231.256C394.1 231.639 393.947 232.007 393.677 232.278C393.406 232.549 393.038 232.701 392.655 232.702H388.286C388.096 232.702 387.908 232.665 387.732 232.592C387.557 232.52 387.397 232.413 387.263 232.279C387.128 232.145 387.022 231.985 386.949 231.81C386.876 231.634 386.838 231.446 386.838 231.256C386.838 231.066 386.875 230.877 386.948 230.702C387.021 230.526 387.128 230.366 387.262 230.232C387.397 230.098 387.556 229.991 387.732 229.918C387.908 229.846 388.096 229.808 388.286 229.809H392.655C393.038 229.809 393.406 229.962 393.677 230.233C393.948 230.504 394.1 230.872 394.1 231.256Z" fill="#5BD595"/>
<path d="M432.076 223.373C432.075 223.756 431.923 224.124 431.651 224.396C431.38 224.667 431.012 224.82 430.629 224.82H426.265C425.881 224.82 425.513 224.667 425.242 224.396C424.97 224.124 424.817 223.757 424.816 223.373C424.817 222.989 424.97 222.62 425.241 222.349C425.513 222.077 425.881 221.924 426.265 221.924H430.629C430.819 221.924 431.007 221.961 431.183 222.034C431.358 222.107 431.518 222.214 431.652 222.348C431.787 222.483 431.893 222.643 431.966 222.818C432.039 222.994 432.076 223.182 432.076 223.373Z" fill="#5BD595"/>
<path d="M432.076 225.999C432.076 226.189 432.038 226.377 431.965 226.553C431.893 226.728 431.786 226.888 431.652 227.022C431.517 227.156 431.358 227.263 431.182 227.335C431.007 227.408 430.819 227.445 430.629 227.445H426.265C425.881 227.445 425.513 227.293 425.242 227.022C424.97 226.751 424.817 226.383 424.816 225.999C424.816 225.809 424.854 225.62 424.926 225.444C424.999 225.268 425.106 225.108 425.24 224.974C425.375 224.839 425.534 224.732 425.71 224.659C425.886 224.586 426.074 224.549 426.265 224.549H430.629C430.819 224.549 431.008 224.586 431.183 224.659C431.359 224.732 431.519 224.839 431.653 224.974C431.787 225.109 431.894 225.268 431.966 225.444C432.039 225.62 432.076 225.809 432.076 225.999Z" fill="#5BD595"/>
<path d="M432.076 228.627C432.076 228.817 432.038 229.005 431.965 229.18C431.893 229.356 431.786 229.515 431.652 229.649C431.517 229.784 431.358 229.89 431.182 229.963C431.007 230.035 430.819 230.073 430.629 230.072H426.265C425.881 230.072 425.513 229.92 425.242 229.649C424.97 229.378 424.817 229.01 424.816 228.627C424.816 228.242 424.969 227.874 425.241 227.602C425.512 227.33 425.881 227.178 426.265 227.178H430.629C430.819 227.178 431.007 227.215 431.183 227.288C431.359 227.36 431.518 227.467 431.653 227.602C431.787 227.736 431.894 227.896 431.966 228.072C432.039 228.248 432.076 228.436 432.076 228.627Z" fill="#5BD595"/>
<path d="M432.076 231.256C432.076 231.446 432.038 231.634 431.965 231.81C431.893 231.985 431.786 232.145 431.652 232.279C431.517 232.413 431.358 232.52 431.182 232.592C431.007 232.665 430.819 232.702 430.629 232.702H426.265C426.075 232.702 425.886 232.665 425.711 232.592C425.535 232.52 425.376 232.413 425.241 232.279C425.107 232.145 425 231.985 424.927 231.81C424.854 231.634 424.817 231.446 424.816 231.256C424.816 231.066 424.854 230.877 424.927 230.702C424.999 230.526 425.106 230.366 425.241 230.232C425.375 230.098 425.535 229.991 425.711 229.918C425.886 229.846 426.075 229.808 426.265 229.809H430.629C430.819 229.808 431.007 229.846 431.183 229.918C431.358 229.991 431.518 230.098 431.652 230.232C431.787 230.366 431.893 230.526 431.966 230.702C432.039 230.878 432.076 231.066 432.076 231.256Z" fill="#5BD595"/>
<path d="M538.388 277.531H488.933V280.565H538.388V277.531Z" fill="#34726C"/>
<path d="M487.062 183.647L500.687 205.807L501.791 204.878L487.802 182.129L487.062 183.647Z" fill="#34726C"/>
<path d="M520.336 180.862L505.951 205.161L504.735 204.174L519.509 179.229L520.336 180.862Z" fill="#34726C"/>
<path d="M487.062 158.623L500.687 180.784L501.791 179.855L487.802 157.107L487.062 158.623Z" fill="#34726C"/>
<path d="M519.897 158.623L506.27 180.784L505.169 179.855L519.156 157.107L519.897 158.623Z" fill="#34726C"/>
<path d="M503.168 181.18L470.981 229.761L469.791 228.972L501.978 180.395L503.168 181.18Z" fill="#34726C"/>
<path d="M503.929 179.767L534.848 230.958L535.859 229.991L504.941 178.797L503.929 179.767Z" fill="#34726C"/>
<path d="M519.85 136.658L467.207 205.947L466.074 205.081L518.716 135.797L519.85 136.658Z" fill="#34726C"/>
<path d="M487.656 136.658L540.296 205.947L541.431 205.081L488.79 135.797L487.656 136.658Z" fill="#34726C"/>
<path d="M506.751 133.604H500.687V218.532H506.751V133.604Z" fill="#459991"/>
<path d="M504.773 107.949H502.653V137.394H504.773V107.949Z" fill="#459991"/>
<path d="M484.894 135.159L482.896 134.068L503.665 104.576L504.544 107.416L484.894 135.159Z" fill="#459991"/>
<path d="M522.532 135.159L524.532 134.068L503.665 104.576L502.887 107.416L522.532 135.159Z" fill="#459991"/>
<path d="M488.934 133.604H482.87V205.791H488.934V133.604Z" fill="#459991"/>
<path d="M487.656 133.604H484.051V205.791H487.656V133.604Z" fill="#3C857E"/>
<path d="M524.557 133.604H518.494V205.791H524.557V133.604Z" fill="#459991"/>
<path d="M488.934 289.052H482.87L500.486 205.791L506.841 204.879L488.934 289.052Z" fill="#459991"/>
<path d="M486.859 289.05H484.877L502.517 205.986L502.745 214.061L486.859 289.05Z" fill="#3C857E"/>
<path d="M523.473 178.338H482.87V181.371H523.473V178.338Z" fill="#459991"/>
<path d="M543.887 203.361H463.556V206.395H543.887V203.361Z" fill="#459991"/>
<path d="M532.23 248.717H474.105V251.747H532.23V248.717Z" fill="#459991"/>
<path d="M518.494 282.08H467.141V285.115H518.494V282.08Z" fill="#34726C"/>
<path d="M537.631 228.242H467.141V231.276H537.631V228.242Z" fill="#459991"/>
<path d="M523.379 211.632L467.207 285.564L466.074 284.699L522.244 210.77L523.379 211.632Z" fill="#34726C"/>
<path d="M483.535 210.948L539.697 286.188L540.947 285.216L484.785 209.977L483.535 210.948Z" fill="#34726C"/>
<path d="M467.141 205.945H466.074V212.653H467.141V205.945Z" fill="#459991"/>
<path d="M478.142 157.109H477.078V163.816H478.142V157.109Z" fill="#459991"/>
<path d="M530.443 157.109H529.378V163.816H530.443V157.109Z" fill="#459991"/>
<path d="M541.432 205.945H540.369V212.653H541.432V205.945Z" fill="#459991"/>
<path d="M476.639 156.418L475.383 155.561L487.76 137.393L488.846 138.495L476.639 156.418Z" fill="#459991"/>
<path d="M471.436 286.53H465.223L482.875 203.361L488.933 204.015L471.436 286.53Z" fill="#459991"/>
<path d="M469.791 286.529H466.609L484.01 205.986H487.286L469.791 286.529Z" fill="#3C857E"/>
<path d="M535.181 286.529H541.432L523.617 202.758L517.686 204.015L535.181 286.529Z" fill="#459991"/>
<path d="M536.564 286.529H540.118L523.192 206.395H519.897L536.564 286.529Z" fill="#3C857E"/>
<path d="M518.366 289.051H524.524L506.613 204.408L500.551 205.07L518.366 289.051Z" fill="#459991"/>
<path d="M505.113 135.158H502.745V205.79H505.113V135.158Z" fill="#3C857E"/>
<path d="M521.075 289.052H523.026L505.111 205.498L502.745 205.791L521.075 289.052Z" fill="#3C857E"/>
<path d="M523.33 203.362H519.893L519.727 134.504H523.33V203.362Z" fill="#3C857E"/>
<path d="M531.714 155.592H475.383V158.622H531.714V155.592Z" fill="#459991"/>
<path d="M530.388 156.862L531.714 156.115L520.945 136.951H519.156L530.388 156.862Z" fill="#459991"/>
<path d="M524.557 133.604H482.87V137.394H524.557V133.604Z" fill="#459991"/>
<path d="M523.23 134.504H484.051V136.164H523.23V134.504Z" fill="#3C857E"/>
<path d="M480.235 164.229C480.235 164.366 480.208 164.502 480.155 164.629C480.102 164.755 480.025 164.87 479.928 164.967C479.831 165.064 479.715 165.141 479.589 165.194C479.462 165.246 479.326 165.273 479.189 165.273H476.029C475.892 165.273 475.756 165.246 475.63 165.194C475.503 165.141 475.388 165.064 475.291 164.967C475.194 164.87 475.117 164.755 475.064 164.628C475.011 164.502 474.984 164.366 474.984 164.229C474.984 164.091 475.011 163.955 475.063 163.828C475.116 163.701 475.193 163.586 475.29 163.488C475.387 163.391 475.502 163.314 475.629 163.261C475.756 163.209 475.892 163.182 476.029 163.182H479.189C479.466 163.182 479.732 163.292 479.929 163.488C480.125 163.685 480.235 163.951 480.235 164.229Z" fill="#5BD595"/>
<path d="M480.235 166.129C480.235 166.407 480.125 166.673 479.929 166.869C479.732 167.066 479.466 167.176 479.189 167.176H476.029C475.752 167.176 475.486 167.065 475.29 166.869C475.094 166.672 474.984 166.406 474.984 166.129C474.984 165.852 475.094 165.586 475.29 165.389C475.486 165.193 475.752 165.082 476.029 165.082H479.189C479.466 165.082 479.732 165.192 479.929 165.389C480.125 165.585 480.235 165.851 480.235 166.129Z" fill="#5BD595"/>
<path d="M480.235 168.029C480.235 168.306 480.124 168.572 479.928 168.768C479.732 168.964 479.466 169.074 479.189 169.074H476.029C475.752 169.074 475.487 168.964 475.291 168.768C475.095 168.572 474.985 168.306 474.984 168.029C474.984 167.891 475.011 167.755 475.063 167.628C475.116 167.501 475.193 167.386 475.29 167.288C475.387 167.191 475.502 167.114 475.629 167.061C475.756 167.008 475.892 166.981 476.029 166.98H479.189C479.466 166.981 479.732 167.092 479.929 167.288C480.125 167.485 480.235 167.751 480.235 168.029Z" fill="#5BD595"/>
<path d="M480.235 169.93C480.235 170.067 480.208 170.203 480.155 170.33C480.102 170.457 480.025 170.572 479.928 170.669C479.831 170.766 479.715 170.842 479.589 170.895C479.462 170.947 479.326 170.974 479.189 170.974H476.029C475.753 170.974 475.487 170.864 475.291 170.668C475.095 170.472 474.985 170.207 474.984 169.93C474.984 169.792 475.011 169.656 475.063 169.529C475.116 169.402 475.193 169.287 475.29 169.19C475.387 169.092 475.502 169.015 475.629 168.963C475.756 168.91 475.892 168.883 476.029 168.883H479.189C479.326 168.883 479.462 168.91 479.589 168.962C479.716 169.015 479.832 169.092 479.929 169.189C480.026 169.286 480.103 169.402 480.156 169.529C480.208 169.656 480.235 169.792 480.235 169.93Z" fill="#5BD595"/>
<path d="M532.533 164.127C532.532 164.404 532.421 164.67 532.225 164.866C532.029 165.062 531.763 165.172 531.486 165.173H528.328C528.051 165.173 527.785 165.062 527.589 164.866C527.393 164.67 527.282 164.404 527.282 164.127C527.282 163.849 527.392 163.583 527.589 163.387C527.785 163.19 528.051 163.08 528.328 163.08H531.486C531.764 163.08 532.03 163.191 532.226 163.387C532.422 163.583 532.532 163.85 532.533 164.127Z" fill="#5BD595"/>
<path d="M532.533 166.031C532.532 166.309 532.422 166.575 532.226 166.771C532.03 166.967 531.764 167.078 531.486 167.078H528.328C528.051 167.078 527.785 166.968 527.589 166.772C527.392 166.575 527.282 166.309 527.282 166.031C527.282 165.754 527.392 165.487 527.589 165.291C527.785 165.095 528.051 164.984 528.328 164.984H531.486C531.764 164.985 532.03 165.095 532.226 165.291C532.422 165.488 532.532 165.754 532.533 166.031Z" fill="#5BD595"/>
<path d="M532.533 167.932C532.533 168.07 532.506 168.206 532.453 168.333C532.4 168.46 532.323 168.575 532.226 168.672C532.129 168.769 532.013 168.846 531.887 168.898C531.76 168.951 531.624 168.978 531.486 168.978H528.328C528.191 168.978 528.055 168.951 527.928 168.898C527.801 168.846 527.686 168.769 527.589 168.672C527.491 168.575 527.414 168.46 527.362 168.333C527.309 168.206 527.282 168.07 527.282 167.932C527.282 167.795 527.309 167.659 527.362 167.532C527.414 167.405 527.491 167.289 527.589 167.192C527.686 167.095 527.801 167.018 527.928 166.966C528.055 166.913 528.191 166.887 528.328 166.887H531.486C531.624 166.887 531.76 166.913 531.887 166.966C532.013 167.018 532.129 167.095 532.226 167.192C532.323 167.289 532.4 167.405 532.453 167.532C532.506 167.659 532.533 167.795 532.533 167.932Z" fill="#5BD595"/>
<path d="M532.533 169.831C532.532 170.108 532.422 170.374 532.226 170.571C532.03 170.767 531.764 170.877 531.486 170.878H528.328C528.051 170.878 527.785 170.767 527.589 170.571C527.392 170.375 527.282 170.108 527.282 169.831C527.282 169.693 527.309 169.557 527.362 169.43C527.414 169.303 527.491 169.188 527.589 169.091C527.686 168.994 527.801 168.917 527.928 168.864C528.055 168.812 528.191 168.785 528.328 168.785H531.486C531.763 168.785 532.029 168.895 532.226 169.091C532.422 169.287 532.532 169.553 532.533 169.831Z" fill="#5BD595"/>
<path d="M469.232 211.262C469.232 211.54 469.122 211.806 468.926 212.002C468.73 212.198 468.465 212.309 468.187 212.309H465.03C464.892 212.309 464.756 212.282 464.629 212.229C464.502 212.177 464.387 212.1 464.29 212.002C464.193 211.905 464.116 211.79 464.064 211.663C464.011 211.536 463.984 211.4 463.985 211.262C463.985 210.985 464.095 210.719 464.291 210.523C464.487 210.327 464.752 210.217 465.03 210.217H468.189C468.466 210.217 468.731 210.327 468.927 210.523C469.123 210.719 469.233 210.985 469.234 211.262H469.232Z" fill="#5BD595"/>
<path d="M469.232 213.161C469.233 213.298 469.206 213.434 469.153 213.561C469.101 213.688 469.024 213.804 468.927 213.901C468.83 213.998 468.714 214.075 468.588 214.128C468.461 214.181 468.325 214.208 468.187 214.208H465.03C464.892 214.208 464.756 214.181 464.629 214.128C464.502 214.075 464.387 213.998 464.29 213.901C464.193 213.804 464.116 213.688 464.064 213.561C464.011 213.434 463.984 213.298 463.985 213.161C463.985 212.883 464.095 212.617 464.291 212.421C464.487 212.225 464.752 212.115 465.03 212.115H468.189C468.466 212.116 468.731 212.226 468.927 212.422C469.123 212.618 469.233 212.884 469.234 213.161H469.232Z" fill="#5BD595"/>
<path d="M469.232 215.063C469.232 215.34 469.122 215.606 468.926 215.802C468.73 215.999 468.465 216.109 468.187 216.11H465.03C464.892 216.11 464.756 216.083 464.629 216.03C464.502 215.977 464.387 215.9 464.29 215.803C464.193 215.706 464.116 215.59 464.064 215.463C464.011 215.336 463.984 215.2 463.985 215.063C463.984 214.925 464.011 214.789 464.064 214.662C464.116 214.535 464.193 214.42 464.29 214.322C464.387 214.225 464.502 214.148 464.629 214.095C464.756 214.043 464.892 214.016 465.03 214.016H468.189C468.466 214.016 468.732 214.127 468.928 214.323C469.124 214.519 469.234 214.785 469.234 215.063H469.232Z" fill="#5BD595"/>
<path d="M469.232 216.961C469.232 217.239 469.122 217.505 468.926 217.701C468.73 217.897 468.464 218.007 468.187 218.007H465.03C464.752 218.007 464.487 217.897 464.291 217.701C464.095 217.505 463.985 217.239 463.985 216.961C463.985 216.684 464.095 216.418 464.291 216.222C464.487 216.026 464.752 215.916 465.03 215.916H468.189C468.466 215.916 468.732 216.026 468.928 216.222C469.124 216.418 469.234 216.684 469.234 216.961H469.232Z" fill="#5BD595"/>
<path d="M543.525 211.359C543.525 211.637 543.415 211.903 543.219 212.099C543.023 212.295 542.757 212.405 542.48 212.405H539.328C539.051 212.405 538.785 212.295 538.589 212.099C538.393 211.903 538.283 211.637 538.283 211.359C538.283 211.222 538.31 211.086 538.362 210.959C538.415 210.832 538.492 210.716 538.589 210.619C538.686 210.522 538.801 210.445 538.928 210.392C539.055 210.34 539.191 210.312 539.328 210.313H542.486C542.763 210.313 543.029 210.423 543.225 210.62C543.421 210.816 543.531 211.082 543.531 211.359H543.525Z" fill="#5BD595"/>
<path d="M543.525 213.258C543.525 213.535 543.415 213.801 543.219 213.998C543.023 214.194 542.757 214.304 542.48 214.305H539.328C539.191 214.305 539.055 214.278 538.928 214.225C538.801 214.172 538.686 214.095 538.589 213.998C538.492 213.901 538.415 213.785 538.362 213.658C538.31 213.531 538.283 213.395 538.283 213.258C538.283 213.12 538.31 212.984 538.362 212.857C538.415 212.73 538.492 212.615 538.589 212.518C538.686 212.42 538.801 212.343 538.928 212.291C539.055 212.238 539.191 212.211 539.328 212.211H542.486C542.763 212.211 543.029 212.322 543.225 212.518C543.421 212.714 543.531 212.98 543.531 213.258H543.525Z" fill="#5BD595"/>
<path d="M543.525 215.161C543.525 215.298 543.498 215.434 543.446 215.561C543.393 215.689 543.316 215.804 543.219 215.901C543.122 215.999 543.007 216.076 542.88 216.129C542.753 216.182 542.617 216.209 542.48 216.209H539.328C539.191 216.209 539.055 216.182 538.928 216.129C538.801 216.076 538.686 215.999 538.589 215.901C538.492 215.804 538.415 215.689 538.362 215.561C538.31 215.434 538.283 215.298 538.283 215.161C538.283 214.883 538.393 214.618 538.589 214.421C538.785 214.225 539.051 214.115 539.328 214.115H542.486C542.763 214.115 543.029 214.225 543.225 214.421C543.421 214.618 543.531 214.883 543.531 215.161H543.525Z" fill="#5BD595"/>
<path d="M543.525 217.059C543.525 217.337 543.415 217.603 543.219 217.799C543.023 217.995 542.757 218.106 542.48 218.106H539.328C539.191 218.106 539.055 218.079 538.928 218.026C538.801 217.974 538.686 217.897 538.589 217.799C538.492 217.702 538.415 217.587 538.362 217.46C538.31 217.333 538.283 217.197 538.283 217.059C538.283 216.782 538.393 216.516 538.589 216.32C538.785 216.124 539.051 216.014 539.328 216.014H542.486C542.763 216.014 543.029 216.124 543.225 216.32C543.421 216.516 543.531 216.782 543.531 217.059H543.525Z" fill="#5BD595"/>
<path d="M450.25 231.699H361.232V285.117H450.25V231.699Z" fill="#71D3CA"/>
<path d="M385.319 231.699H361.232V285.117H385.319V231.699Z" fill="#4AA29A"/>
<path d="M378.784 237.865H358.678V241.098H378.784V237.865Z" fill="#34726C"/>
<path d="M378.784 237.865H374.647V241.098H378.784V237.865Z" fill="#3C857E"/>
<path d="M355.797 242.711H381.963L381.075 239.494H356.684L355.797 242.711Z" fill="#3C857E"/>
<path d="M375.088 242.711H355.797V265.595H375.088V242.711Z" fill="#459991"/>
<path d="M381.962 242.711H373.348V265.595H381.962V242.711Z" fill="#459991"/>
<path d="M373.348 242.711L374.015 239.494H381.075L381.963 242.711H373.348Z" fill="#34726C"/>
<path d="M362.484 254.651H368.399L365.441 248.736L362.484 254.651Z" fill="#4CA1BF"/>
<path d="M367.827 254.25L365.441 249.605L363.056 254.25H367.827Z" fill="#FFCF03"/>
<path d="M365.926 253.864L365.971 251.767L365.43 252.493L365.285 250.646L365.273 253.053L365.71 252.45L365.926 253.864Z" fill="#6D76A1"/>
<path d="M380.705 245.557H374.647V249.178H380.705V245.557Z" fill="#3C857E"/>
<path d="M379.955 246.018H375.393V246.462H379.955V246.018Z" fill="#34726C"/>
<path d="M379.955 246.795H375.393V247.238H379.955V246.795Z" fill="#34726C"/>
<path d="M379.955 247.59H375.393V248.035H379.955V247.59Z" fill="#34726C"/>
<path d="M379.955 248.365H375.393V248.808H379.955V248.365Z" fill="#34726C"/>
<path d="M389.911 275.715L389.952 241.836L447.071 241.907L447.03 275.792L389.911 275.715Z" fill="#3C857E"/>
<path d="M438.469 271.594L438.497 246.08L440.981 246.083L440.948 271.597L438.469 271.594Z" fill="#34726C"/>
<path d="M442.507 271.594L442.535 246.08L445.019 246.083L444.985 271.597L442.507 271.594Z" fill="#464F72"/>
<path d="M434.129 271.592L434.161 246.076L436.647 246.079L436.615 271.592H434.129Z" fill="#34726C"/>
<path d="M429.712 246.062L429.68 271.576L432.163 271.579L432.194 246.065L429.712 246.062Z" fill="#34726C"/>
<path d="M425.352 271.582L425.387 246.066L427.87 246.069L427.835 271.586L425.352 271.582Z" fill="#34726C"/>
<path d="M420.938 271.573L420.97 246.059L423.453 246.062L423.423 271.576L420.938 271.573Z" fill="#34726C"/>
<path d="M416.603 271.568L416.631 246.053L419.114 246.057L419.085 271.568H416.603Z" fill="#34726C"/>
<path d="M411.828 245.811V271.326H414.312V245.811H411.828Z" fill="#34726C"/>
<path d="M407.823 271.552L407.856 246.043L410.337 246.044L410.307 271.56L407.823 271.552Z" fill="#34726C"/>
<path d="M402.551 271.553L402.582 246.037L405.067 246.04L405.033 271.554L402.551 271.553Z" fill="#34726C"/>
<path d="M398.108 271.548L398.143 246.031L400.624 246.036L400.592 271.553L398.108 271.548Z" fill="#34726C"/>
<path d="M393.771 271.537L393.804 246.023L396.287 246.028L396.254 271.543L393.771 271.537Z" fill="#34726C"/>
<path d="M453.835 226.825C453.88 226.152 454.676 224.299 456.581 224.105C459.128 223.845 463.954 225.843 466.816 223.771C469.678 221.7 469.427 219.314 469.466 217.699C469.506 216.084 468.757 215.424 468.883 214.488C469.01 213.551 470.114 213.746 470.679 216.35C470.951 217.595 473.018 223.587 470.061 226.689C466.189 230.753 453.606 230.808 453.835 226.825Z" fill="#FBC6B4"/>
<path d="M453.613 225.506C453.613 225.506 452.899 228.225 456.907 229.396C460.914 230.567 462.823 230.526 462.823 230.526C462.823 230.526 464.333 228.248 463.935 223.976C463.935 223.976 454.068 221.537 453.613 225.506Z" fill="#EDA503"/>
<path d="M444.255 227.943C444.31 229.378 444.143 230.813 443.76 232.197C443.613 232.732 443.434 233.257 443.223 233.77C442.512 235.471 442.074 238.044 440.88 240.026C441.867 240.708 441.017 242.125 440.948 242.223C437.591 246.349 453.263 246.266 456.615 243.08C457.769 241.984 457.355 240.144 458.101 237.686C458.289 237.141 458.438 236.579 458.577 236.024C459.254 233.489 459.678 230.957 459.725 229.174C459.858 223.77 455.081 222.365 452.041 222.074C450.662 221.938 448.87 221.749 447.339 222.213V222.225C445.549 222.799 444.149 224.29 444.255 227.943Z" fill="#FFB502"/>
<path d="M457.589 256.134C452.908 259.685 443.898 268.08 445.81 269.762C447.722 271.443 449.365 271.703 448.519 270.416C447.674 269.129 447.755 268.955 448.087 268.632C450.168 266.606 455.585 264.143 459.111 261.664C463.195 258.783 461.679 253.024 457.589 256.134Z" fill="#FBC6B4"/>
<path d="M445.772 268.113C445.772 268.113 446.857 270.278 448.521 270.408C448.521 270.408 450.208 272.291 448.575 271.798C446.943 271.306 444.252 269.798 445.772 268.113Z" fill="#FFB502"/>
<path d="M448.677 226.3C448.667 228.996 449.149 233.249 442.554 235.191C442.554 235.191 450.309 249.718 457.757 244.603C457.757 244.603 459.228 233.195 458.639 228.377C458.468 226.996 458.165 223.24 455.324 222.808C455.324 222.808 458.228 230.028 456.02 231.249C453.812 232.47 452.435 230.672 451.934 229.234C451.13 226.927 449.327 221.92 449.327 221.92L447.568 222.151C448.271 223.423 448.651 224.847 448.677 226.3Z" fill="#2E2E2E"/>
<path d="M450.475 217.891C450.475 217.891 451.775 220.057 450.3 221.439C448.779 222.855 455.525 225.6 455.227 224.283C454.85 222.583 453.868 221.654 454.502 219.599L450.475 217.891Z" fill="#F7B2A0"/>
<path d="M453.66 213.192C455.268 214.424 457.459 220.326 456.063 221.82C455.446 222.469 452.625 222.095 450.611 219.604C449.782 218.587 448.686 216.623 449.58 214.449C449.989 213.463 451.796 211.762 453.66 213.192Z" fill="#FBC6B4"/>
<path d="M455.228 213.768C455.629 214.498 455.554 214.675 453.299 215.263C451.044 215.85 450.635 215.737 450.925 216.257C451.775 217.792 450.11 217.645 451.144 219.47C452.179 221.295 450.135 220.336 449.13 218.855C448.933 218.553 447.813 217.116 448.676 214.625C449.693 211.715 453.745 211.099 455.228 213.768Z" fill="#404040"/>
<path d="M452.133 217.154C452.133 217.154 457.57 215.807 457.301 213.634C457.136 212.299 453.101 212.728 453.101 212.728L452.133 217.154Z" fill="#EDA503"/>
<path d="M455.44 214.094C454.836 216.168 453.294 217.094 448.676 218.194C448.676 218.194 446.485 214.012 449.517 211.907C452.193 210.055 455.828 212.775 455.44 214.094Z" fill="#FFB502"/>
<path d="M456.798 241.814C456.798 241.814 468.145 248.398 469.469 252.349C470.794 256.3 449.599 268.836 449.599 268.836C449.599 268.836 447.119 266.365 448.264 264.111C452.556 255.65 454.125 252.947 454.125 252.947L443.608 244.185L456.798 241.814Z" fill="#2E2E2E"/>
<path d="M441.613 262.552C440.046 268.213 437.968 280.355 440.508 280.531C443.048 280.706 444.513 279.926 443.062 279.407C441.61 278.887 441.567 278.707 441.635 278.249C442.062 275.379 444.874 270.132 446.165 266.027C447.677 261.261 442.982 257.601 441.613 262.552Z" fill="#FBC6B4"/>
<path d="M439.483 279.248C439.483 279.248 441.659 280.315 443.062 279.399C443.062 279.399 445.543 279.875 443.947 280.47C442.351 281.065 439.294 281.514 439.483 279.248Z" fill="#FFB502"/>
<path d="M442.554 235.189C442.554 235.189 440.211 239.968 438.779 246.833C437.051 255.105 438.628 275.412 438.628 275.412C438.628 275.412 438.27 276.062 443.329 275.427C444.688 275.254 450.979 247.591 450.979 247.591L449.299 239.85L442.554 235.189Z" fill="#2E2E2E"/>
<path d="M440.264 275.715C438.124 261.514 443.728 239.445 443.784 239.223L444.057 239.292C444.001 239.513 438.411 261.529 440.54 275.675L440.264 275.715Z" fill="white"/>
<path d="M445.069 224.206C445.322 223.61 446.416 222.566 448.186 223.015C450.556 223.619 454.235 226.972 457.474 226.037C460.714 225.101 461.263 222.89 461.825 221.456C462.387 220.022 461.929 219.19 462.344 218.388C462.76 217.585 463.693 218.123 463.352 220.642C463.187 221.841 463.098 227.893 459.437 229.706C454.644 232.111 443.563 227.703 445.069 224.206Z" fill="#FBC6B4"/>
<path d="M445.185 223.595C445.185 223.595 443.661 225.802 446.88 228.157C450.098 230.513 451.816 231.096 451.816 231.096C451.816 231.096 453.905 229.535 454.939 225.58C454.939 225.58 446.883 220.19 445.185 223.595Z" fill="#EDA503"/>
<path d="M447.154 290.355L446.111 289.934L465.208 242.838H454.025L434.758 290.355L433.717 289.934L453.267 241.713H466.877L447.154 290.355Z" fill="#464F72"/>
<path d="M457.459 262.885H445.063V264.01H457.459V262.885Z" fill="#464F72"/>
<path d="M454.975 268.695H442.58V269.821H454.975V268.695Z" fill="#464F72"/>
<path d="M452.831 274.566H440.434V275.692H452.831V274.566Z" fill="#464F72"/>
<path d="M450.14 280.553H437.745V281.678H450.14V280.553Z" fill="#464F72"/>
<path d="M472.867 290.34L460.004 256.07L461.055 255.674L473.921 289.946L472.867 290.34Z" fill="#464F72"/>
<path d="M448.195 256.559L447.142 256.955L460.005 291.229L461.059 290.834L448.195 256.559Z" fill="#464F72"/>
<path opacity="0.5" d="M315.834 181.929C315.36 181.929 314.896 181.788 314.502 181.524C314.108 181.26 313.801 180.886 313.619 180.447C313.438 180.009 313.391 179.526 313.483 179.061C313.576 178.596 313.805 178.168 314.14 177.833C314.475 177.498 314.903 177.269 315.368 177.177C315.833 177.084 316.315 177.132 316.753 177.314C317.191 177.495 317.566 177.803 317.829 178.197C318.093 178.592 318.233 179.056 318.233 179.53C318.233 180.166 317.98 180.776 317.53 181.226C317.08 181.676 316.47 181.929 315.834 181.929ZM315.834 178.2C315.571 178.2 315.314 178.278 315.095 178.424C314.877 178.571 314.707 178.778 314.606 179.021C314.505 179.264 314.479 179.531 314.53 179.789C314.582 180.047 314.708 180.284 314.894 180.47C315.08 180.656 315.317 180.783 315.575 180.834C315.832 180.885 316.1 180.859 316.342 180.758C316.585 180.658 316.793 180.487 316.939 180.269C317.085 180.05 317.163 179.793 317.163 179.53C317.164 179.355 317.13 179.182 317.063 179.02C316.996 178.858 316.899 178.711 316.775 178.587C316.652 178.463 316.505 178.364 316.344 178.297C316.182 178.23 316.009 178.195 315.834 178.195V178.2Z" fill="white"/>
<path d="M334.002 186.286L333.987 187.116L335.956 187.152L335.972 186.324L334.002 186.286Z" fill="#1C2745"/>
<path d="M331.07 186.23L331.054 187.06L333.024 187.097L333.039 186.267L331.07 186.23Z" fill="#1C2745"/>
<path d="M328.138 186.174L328.122 187.003L330.091 187.041L330.107 186.213L328.138 186.174Z" fill="#1C2745"/>
<path d="M325.199 186.116L325.183 186.945L327.152 186.983L327.168 186.154L325.199 186.116Z" fill="#1C2745"/>
<path d="M322.25 186.056L322.234 186.886L324.203 186.925L324.22 186.096L322.25 186.056Z" fill="#1C2745"/>
<path d="M319.339 186.008L319.324 186.836L321.292 186.874L321.309 186.046L319.339 186.008Z" fill="#1C2745"/>
<path d="M316.418 185.899L316.401 186.728L318.37 186.767L318.386 185.939L316.418 185.899Z" fill="#1C2745"/>
<path d="M313.458 185.889L313.442 186.719L315.411 186.758L315.428 185.929L313.458 185.889Z" fill="#1C2745"/>
<path d="M310.54 185.838L310.523 186.666L312.491 186.705L312.508 185.877L310.54 185.838Z" fill="#1C2745"/>
<path d="M307.61 185.784L307.594 186.613L309.564 186.651L309.58 185.822L307.61 185.784Z" fill="#1C2745"/>
<path d="M304.679 185.728L304.664 186.556L306.632 186.592L306.648 185.764L304.679 185.728Z" fill="#1C2745"/>
<path d="M301.755 185.621L301.738 186.449L303.708 186.489L303.725 185.66L301.755 185.621Z" fill="#1C2745"/>
<path d="M298.803 185.613L298.787 186.441L300.755 186.479L300.771 185.651L298.803 185.613Z" fill="#1C2745"/>
<path d="M295.873 185.554L295.857 186.384L297.825 186.423L297.841 185.594L295.873 185.554Z" fill="#1C2745"/>
<g opacity="0.5">
<path d="M340.807 244.013L333.767 237.078L335.23 235.59L342.27 242.525L340.807 244.013Z" fill="white"/>
<path d="M340.728 235.593L333.822 242.514L335.298 243.987L342.203 237.067L340.728 235.593Z" fill="white"/>
</g>
<g opacity="0.5">
<path d="M280.884 183.404H269.35V184.298H280.884V183.404Z" fill="#404040"/>
<path d="M280.212 180.49H273.852V181.381H280.212V180.49Z" fill="#404040"/>
</g>
<path d="M286.453 310.825L287.049 310.266L289.43 312.787C289.771 313.149 290.242 313.36 290.738 313.377C291.235 313.393 291.718 313.212 292.083 312.874L294.115 310.977C294.374 310.734 294.679 310.545 295.011 310.42C295.343 310.296 295.697 310.238 296.052 310.251C296.407 310.263 296.756 310.346 297.078 310.494C297.401 310.641 297.691 310.852 297.933 311.112L299.498 312.797C299.668 312.979 299.873 313.126 300.1 313.229C300.328 313.332 300.573 313.389 300.823 313.396C301.072 313.403 301.321 313.361 301.554 313.271C301.787 313.181 302 313.047 302.18 312.874L303.955 311.166C304.222 310.912 304.537 310.714 304.883 310.586C305.229 310.458 305.597 310.402 305.965 310.422C306.333 310.441 306.693 310.536 307.023 310.7C307.353 310.865 307.646 311.095 307.884 311.376L308.854 312.527C309.029 312.735 309.247 312.902 309.492 313.018C309.738 313.134 310.005 313.195 310.276 313.198C310.548 313.201 310.817 313.145 311.065 313.035C311.312 312.925 311.534 312.762 311.713 312.558L313.866 310.1L314.477 310.642L312.327 313.102C312.07 313.395 311.753 313.629 311.398 313.788C311.043 313.947 310.657 314.027 310.268 314.023C309.878 314.018 309.495 313.93 309.143 313.763C308.791 313.596 308.479 313.355 308.23 313.056L307.265 311.904C307.099 311.706 306.894 311.545 306.663 311.43C306.432 311.315 306.18 311.249 305.923 311.235C305.665 311.222 305.407 311.261 305.166 311.351C304.924 311.441 304.703 311.58 304.517 311.759L302.737 313.465C302.48 313.713 302.175 313.908 301.842 314.037C301.508 314.166 301.152 314.227 300.795 314.217C300.437 314.207 300.085 314.126 299.759 313.978C299.434 313.83 299.141 313.619 298.897 313.357L297.334 311.673C296.993 311.307 296.52 311.092 296.02 311.074C295.772 311.063 295.524 311.102 295.291 311.188C295.059 311.275 294.846 311.407 294.665 311.577L292.633 313.475C292.11 313.958 291.418 314.216 290.707 314.194C289.996 314.171 289.322 313.87 288.831 313.354L286.453 310.825Z" fill="#FFB502"/>
<g opacity="0.5">
<path d="M338.907 206.751L338.18 207.49L341.676 210.933L342.403 210.194L338.907 206.751Z" fill="white"/>
<path d="M338.946 210.92L338.213 210.188L341.639 206.752L342.373 207.484L338.946 210.92Z" fill="white"/>
</g>
<g opacity="0.5">
<path d="M335.989 222.787C335.662 222.787 335.342 222.69 335.07 222.507C334.798 222.325 334.586 222.067 334.461 221.764C334.335 221.461 334.303 221.128 334.367 220.807C334.431 220.486 334.589 220.191 334.82 219.959C335.052 219.728 335.347 219.57 335.668 219.506C335.989 219.443 336.322 219.475 336.625 219.601C336.927 219.726 337.185 219.939 337.367 220.211C337.549 220.483 337.646 220.803 337.646 221.131C337.645 221.57 337.47 221.991 337.16 222.301C336.849 222.612 336.428 222.787 335.989 222.787ZM335.989 220.212C335.808 220.212 335.631 220.266 335.48 220.367C335.329 220.467 335.211 220.611 335.142 220.778C335.072 220.946 335.054 221.131 335.09 221.309C335.125 221.487 335.212 221.65 335.341 221.778C335.469 221.907 335.632 221.994 335.81 222.03C335.988 222.065 336.173 222.047 336.34 221.977C336.508 221.908 336.651 221.79 336.752 221.639C336.853 221.488 336.907 221.311 336.907 221.13C336.905 220.887 336.808 220.654 336.637 220.482C336.465 220.311 336.232 220.214 335.989 220.213V220.212Z" fill="white"/>
<path d="M344.418 221.298L344.838 220.831C344.838 220.831 344.631 220.623 344.421 220.418C344.211 220.213 344.032 219.971 344.032 219.971L343.545 220.364C343.545 220.364 343.753 220.605 343.963 220.846L344.418 221.298Z" fill="white"/>
<path d="M346.148 222.25L346.284 221.633C346.106 221.593 345.934 221.535 345.769 221.458C345.651 221.407 345.538 221.346 345.431 221.274L345.282 221.178L344.927 221.696L345.101 221.807C345.229 221.894 345.365 221.968 345.507 222.028C345.713 222.124 345.927 222.198 346.148 222.25Z" fill="white"/>
<path d="M348.125 221.992L347.876 221.416C347.703 221.493 347.525 221.556 347.342 221.604C347.165 221.652 346.983 221.679 346.8 221.684L346.819 222.313C347.048 222.305 347.275 222.271 347.496 222.213C347.711 222.156 347.921 222.082 348.125 221.992Z" fill="white"/>
<path d="M349.752 221.055L349.415 220.527L348.897 220.854L348.385 221.162L348.69 221.704L349.232 221.381L349.752 221.055Z" fill="white"/>
<path d="M351.292 220.248L351.104 219.65C350.896 219.72 350.692 219.803 350.493 219.897C350.203 220.039 349.932 220.202 349.932 220.202L350.252 220.744C350.252 220.744 350.508 220.592 350.767 220.461C350.938 220.38 351.113 220.309 351.292 220.248Z" fill="white"/>
<path d="M352.845 220.327L353.104 219.756C352.895 219.659 352.674 219.589 352.447 219.549C352.219 219.507 351.986 219.497 351.756 219.519L351.814 220.145C351.988 220.126 352.165 220.134 352.337 220.167C352.512 220.2 352.683 220.253 352.845 220.327Z" fill="white"/>
<path d="M354.154 221.382L354.625 220.966C354.625 220.966 354.407 220.734 354.18 220.504C354.055 220.398 353.932 220.29 353.838 220.212C353.785 220.169 353.728 220.129 353.67 220.092L353.31 220.606C353.31 220.606 353.368 220.642 353.452 220.709C353.536 220.775 353.643 220.87 353.75 220.963C353.955 221.163 354.154 221.382 354.154 221.382Z" fill="white"/>
</g>
<path d="M239.885 186.769L240.97 186.765L240.958 184.186L239.874 184.19L239.885 186.769Z" fill="#1C2745"/>
<path d="M240.971 188.028L239.887 188.033L239.901 190.613L240.984 190.607L240.971 188.028Z" fill="#1C2745"/>
<path d="M239.924 194.452L241.01 194.447L240.996 191.867L239.912 191.873L239.924 194.452Z" fill="#1C2745"/>
<path d="M241.02 195.708L239.935 195.713L239.946 198.292L241.031 198.287L241.02 195.708Z" fill="#1C2745"/>
<path d="M239.962 202.136L241.048 202.132L241.035 199.553L239.951 199.557L239.962 202.136Z" fill="#1C2745"/>
<path d="M239.983 205.977L241.068 205.972L241.054 203.393L239.97 203.398L239.983 205.977Z" fill="#1C2745"/>
<path d="M240.002 209.814L241.087 209.812L241.073 207.232L239.989 207.238L240.002 209.814Z" fill="#1C2745"/>
<path d="M275.64 190.781H245.208V302.877H275.64V190.781Z" fill="#4AA29A"/>
<path d="M329.368 190.779H275.638V302.875H329.368V190.779Z" fill="#71D3CA"/>
<path d="M267.568 273.59H253.282V297.697H267.568V273.59Z" fill="#459991"/>
<path d="M265.802 276.164H255.045V277.211H265.802V276.164Z" fill="#34726C"/>
<path d="M265.802 277.992H255.045V279.039H265.802V277.992Z" fill="#34726C"/>
<path d="M265.802 279.863H255.045V280.913H265.802V279.863Z" fill="#34726C"/>
<path d="M265.802 281.693H255.045V282.743H265.802V281.693Z" fill="#34726C"/>
<path d="M265.802 283.561H255.045V284.608H265.802V283.561Z" fill="#34726C"/>
<path d="M265.802 285.389H255.045V286.436H265.802V285.389Z" fill="#34726C"/>
<path d="M265.802 287.262H255.045V288.309H265.802V287.262Z" fill="#34726C"/>
<path d="M265.802 289.09H255.045V290.14H265.802V289.09Z" fill="#34726C"/>
<path d="M265.802 291.318H255.045V292.368H265.802V291.318Z" fill="#34726C"/>
<path d="M265.802 293.191H255.045V294.239H265.802V293.191Z" fill="#34726C"/>
<path d="M265.802 295.021H255.045V296.07H265.802V295.021Z" fill="#34726C"/>
<path d="M267.747 221.013H253.099L260.424 206.357L267.747 221.013Z" fill="#3C857E"/>
<path d="M254.516 220.019L260.424 208.512L266.331 220.019H254.516Z" fill="#E2581D"/>
<path d="M259.222 219.063L259.11 213.867L260.449 215.676L260.813 211.104L260.835 217.064L259.753 215.557L259.222 219.063Z" fill="white"/>
<path d="M323.33 200.049H282.294V217.193H323.33V200.049Z" fill="#3C857E"/>
<path d="M321.238 202.074H291.506V210.648H321.238V202.074Z" fill="#34726C"/>
<path d="M323.33 221.412H282.294V226.069H323.33V221.412Z" fill="#3C857E"/>
<path d="M285.366 231.615H282.294V248.679H285.366V231.615Z" fill="#3C857E"/>
<path d="M290.833 231.615H287.758V248.679H290.833V231.615Z" fill="#3C857E"/>
<path d="M296.299 231.615H293.226V248.679H296.299V231.615Z" fill="#3C857E"/>
<path d="M301.766 231.615H298.69V248.679H301.766V231.615Z" fill="#3C857E"/>
<path d="M306.378 231.615H303.302V248.679H306.378V231.615Z" fill="#3C857E"/>
<path d="M311.843 231.615H308.768V248.679H311.843V231.615Z" fill="#3C857E"/>
<path d="M317.307 231.615H314.234V248.679H317.307V231.615Z" fill="#3C857E"/>
<path d="M322.774 231.615H319.699V248.679H322.774V231.615Z" fill="#3C857E"/>
<path d="M321.431 246.826H321.045V280.914H321.431V246.826Z" fill="#3C857E"/>
<path d="M315.966 246.826H315.579V280.914H315.966V246.826Z" fill="#3C857E"/>
<path d="M310.499 246.826H310.112V280.914H310.499V246.826Z" fill="#3C857E"/>
<path d="M305.032 246.826H304.645V280.914H305.032V246.826Z" fill="#3C857E"/>
<path d="M300.421 246.826H300.035V280.914H300.421V246.826Z" fill="#3C857E"/>
<path d="M294.956 246.826H294.569V280.914H294.956V246.826Z" fill="#3C857E"/>
<path d="M289.49 246.826H289.104V280.914H289.49V246.826Z" fill="#3C857E"/>
<path d="M284.025 246.826H283.638V280.914H284.025V246.826Z" fill="#3C857E"/>
<path d="M323.33 280.545H282.294V282.611H323.33V280.545Z" fill="#3C857E"/>
<path d="M283.695 233.672L283.717 230.682C283.718 230.319 283.861 229.971 284.116 229.712C284.329 229.498 284.618 229.377 284.92 229.374H284.928L290.046 229.413C290.295 229.413 290.542 229.362 290.772 229.263C291.001 229.165 291.208 229.021 291.38 228.84C291.733 228.465 291.929 227.969 291.929 227.453L291.956 223.746H291.183L291.155 227.453C291.156 227.772 291.036 228.079 290.819 228.313C290.722 228.418 290.605 228.503 290.475 228.561C290.344 228.619 290.203 228.65 290.06 228.651H290.051L284.934 228.612H284.918C284.414 228.614 283.93 228.815 283.572 229.171C283.171 229.575 282.946 230.12 282.944 230.689L282.921 233.672H283.695Z" fill="#3C857E"/>
<path d="M294.731 233.673L294.751 230.682C294.75 230.333 294.883 229.997 295.12 229.742C295.226 229.626 295.355 229.534 295.499 229.471C295.642 229.407 295.797 229.374 295.954 229.372H295.964L301.08 229.412H301.097C301.345 229.412 301.59 229.359 301.817 229.259C302.044 229.159 302.248 229.013 302.416 228.831C302.767 228.457 302.963 227.963 302.965 227.45L302.99 223.738H302.217L302.191 227.448C302.192 227.767 302.072 228.075 301.854 228.308C301.757 228.415 301.638 228.501 301.506 228.559C301.373 228.617 301.23 228.647 301.085 228.646L295.969 228.607H295.954C295.692 228.608 295.432 228.663 295.192 228.768C294.952 228.873 294.736 229.026 294.557 229.218C294.185 229.615 293.978 230.14 293.978 230.684L293.956 233.676L294.731 233.673Z" fill="#3C857E"/>
<path d="M305.095 233.672L305.116 230.681C305.116 229.957 305.603 229.371 306.19 229.371L310.882 229.408H310.894C311.325 229.404 311.737 229.229 312.039 228.921C312.427 228.527 312.643 227.995 312.641 227.442L312.669 223.734H311.895L311.866 227.442C311.87 227.789 311.737 228.125 311.497 228.376C311.418 228.457 311.324 228.523 311.22 228.568C311.116 228.613 311.004 228.637 310.891 228.639L306.2 228.602H306.187C305.176 228.602 304.349 229.532 304.339 230.681L304.317 233.672H305.095Z" fill="#3C857E"/>
<path d="M315.811 233.671L315.833 230.684C315.828 230.336 315.934 229.995 316.133 229.71C316.197 229.614 316.282 229.534 316.381 229.476C316.48 229.418 316.591 229.383 316.706 229.373L320.77 229.401H320.781C321.145 229.395 321.492 229.245 321.746 228.984C322.141 228.566 322.356 228.01 322.346 227.435L322.376 223.727H321.602L321.572 227.435C321.582 227.805 321.45 228.164 321.202 228.438C321.092 228.555 320.94 228.624 320.78 228.631L316.716 228.604H316.705C316.469 228.61 316.238 228.672 316.03 228.784C315.823 228.895 315.644 229.054 315.509 229.247C315.209 229.664 315.049 230.166 315.052 230.68L315.031 233.668L315.811 233.671Z" fill="#3C857E"/>
<path d="M323.33 285.908H282.294V292.365H323.33V285.908Z" fill="#3C857E"/>
<path d="M285.366 255.533H282.294V259.972H285.366V255.533Z" fill="#3C857E"/>
<path d="M290.833 268.109H287.758V272.549H290.833V268.109Z" fill="#3C857E"/>
<path d="M296.299 257.754H293.226V262.19H296.299V257.754Z" fill="#3C857E"/>
<path d="M301.764 274.467H298.69V278.906H301.764V274.467Z" fill="#3C857E"/>
<path d="M306.378 253.314H303.302V257.754H306.378V253.314Z" fill="#3C857E"/>
<path d="M316.955 255.533H313.88V259.972H316.955V255.533Z" fill="#3C857E"/>
<path d="M322.774 272.246H319.699V276.687H322.774V272.246Z" fill="#3C857E"/>
<path d="M277.117 201.595H275.148V228.689H277.117V201.595Z" fill="#71D3CA"/>
<path d="M277.117 263.73H275.148V290.829H277.117V263.73Z" fill="#71D3CA"/>
<path d="M397.598 346.119H406.423L398.62 324.668H389.797L397.598 346.119Z" fill="#34726C"/>
<path d="M418.865 343.84H387.675V348.398H418.865V343.84Z" fill="#34726C"/>
<path d="M351.017 330.702H432.768H435.18L453.501 280.339L451.4 279.484H369.652L351.017 330.702Z" fill="#34726C"/>
<path d="M395.05 346.119H403.875L396.068 324.668H387.245L395.05 346.119Z" fill="#3C857E"/>
<path d="M348.606 330.704H432.769L451.4 279.486H367.239L348.606 330.704Z" fill="#3C857E"/>
<path d="M425.797 297.05H439.491L444.389 283.594H430.694L425.797 297.05Z" fill="#5FBAB2"/>
<path d="M420.457 311.728H434.152L439.048 298.273H425.352L420.457 311.728Z" fill="#5FBAB2"/>
<path d="M415.116 326.408H428.811L433.708 312.951H420.013L415.116 326.408Z" fill="#5FBAB2"/>
<path d="M410.956 297.169H424.653L429.548 283.711H415.851L410.956 297.169Z" fill="#5FBAB2"/>
<path d="M405.616 311.851H419.311L424.207 298.395H410.512L405.616 311.851Z" fill="#5FBAB2"/>
<path d="M400.275 326.531H413.97L418.865 313.076H405.17L400.275 326.531Z" fill="#5FBAB2"/>
<path d="M396.06 297.111H409.756L414.653 283.652H400.956L396.06 297.111Z" fill="#5FBAB2"/>
<path d="M390.719 311.789H404.413L409.312 298.334H395.617L390.719 311.789Z" fill="#5FBAB2"/>
<path d="M385.38 326.472H399.073L403.97 313.014H390.276L385.38 326.472Z" fill="#5FBAB2"/>
<path d="M381.22 297.232H394.915L399.812 283.775H386.117L381.22 297.232Z" fill="#5FBAB2"/>
<path d="M375.879 311.912H389.574L394.471 298.455H380.774L375.879 311.912Z" fill="#5FBAB2"/>
<path d="M370.539 326.591H384.234L389.13 313.135H375.434L370.539 326.591Z" fill="#5FBAB2"/>
<path d="M366.302 297.232H379.997L384.892 283.775H371.197L366.302 297.232Z" fill="#5FBAB2"/>
<path d="M360.959 311.912H374.654L379.553 298.455H365.856L360.959 311.912Z" fill="#5FBAB2"/>
<path d="M355.621 326.591H369.317L374.212 313.135H360.516L355.621 326.591Z" fill="#5FBAB2"/>
<path d="M410.056 343.84H385.123V348.398H410.056V343.84Z" fill="#3C857E"/>
<path d="M326.69 349.794H334.174L327.554 331.604H320.073L326.69 349.794Z" fill="#34726C"/>
<path d="M344.725 347.863H318.274V351.726H344.725V347.863Z" fill="#34726C"/>
<path d="M287.187 336.721H356.514H358.559L374.096 294.014L372.313 293.287H302.988L287.187 336.721Z" fill="#2A5E59"/>
<path d="M324.526 349.794H332.008L325.391 331.604H317.908L324.526 349.794Z" fill="#3C857E"/>
<path d="M285.14 336.721H356.514L372.313 293.287H300.943L285.14 336.721Z" fill="#34726C"/>
<path d="M350.601 308.181H362.215L366.367 296.77H354.752L350.601 308.181Z" fill="#5FBAB2"/>
<path d="M346.071 320.633H357.686L361.839 309.219H350.224L346.071 320.633Z" fill="#5FBAB2"/>
<path d="M341.543 333.079H353.157L357.309 321.668H345.694L341.543 333.079Z" fill="#5FBAB2"/>
<path d="M338.017 308.284H349.63L353.781 296.873H342.168L338.017 308.284Z" fill="#5FBAB2"/>
<path d="M333.487 320.735H345.101L349.251 309.322H337.638L333.487 320.735Z" fill="#5FBAB2"/>
<path d="M328.956 333.183H340.571L344.725 321.771H333.11L328.956 333.183Z" fill="#5FBAB2"/>
<path d="M325.384 308.235H336.997L341.15 296.824H329.535L325.384 308.235Z" fill="#5FBAB2"/>
<path d="M320.854 320.686H332.468L336.62 309.271H325.007L320.854 320.686Z" fill="#5FBAB2"/>
<path d="M316.325 333.132H327.94L332.09 321.721H320.477L316.325 333.132Z" fill="#5FBAB2"/>
<path d="M312.799 308.337H324.412L328.564 296.926H316.951L312.799 308.337Z" fill="#5FBAB2"/>
<path d="M308.269 320.79H319.882L324.036 309.377H312.421L308.269 320.79Z" fill="#5FBAB2"/>
<path d="M303.74 333.235H315.354L319.506 321.824H307.891L303.74 333.235Z" fill="#5FBAB2"/>
<path d="M300.146 308.337H311.763L315.912 296.926H304.299L300.146 308.337Z" fill="#5FBAB2"/>
<path d="M295.616 320.79H307.231L311.384 309.377H299.769L295.616 320.79Z" fill="#5FBAB2"/>
<path d="M291.088 333.235H302.703L306.854 321.824H295.241L291.088 333.235Z" fill="#5FBAB2"/>
<path d="M337.254 347.863H316.109V351.726H337.254V347.863Z" fill="#3C857E"/>
<path d="M405.593 273.321C405.593 273.321 404.738 271.171 402.89 270.596C401.237 270.079 402.33 272.151 404.057 274.302L405.593 273.321Z" fill="#F7B2A0"/>
<path d="M424.321 284.759C425.666 285.51 425.74 286.866 424.406 288.481C422.366 290.957 419.82 289.468 414.944 287.285C409.403 284.806 403.745 274.097 403.745 274.097C403.745 274.097 404.02 272.692 405.4 272.924C405.4 272.924 409.681 278.604 415.148 281.124C417.833 282.365 421.49 283.178 424.321 284.759Z" fill="#EDA503"/>
<path d="M415.637 283.371C413.126 285.287 410.993 289.955 409.991 305.235C409.773 308.592 429.251 309.405 429.323 306.032C429.499 297.077 427.965 293.39 425.406 285.301C424.7 283.111 420.597 279.545 415.637 283.371Z" fill="#FFB502"/>
<path d="M436.588 348.688C437.599 347.534 437.56 347.36 437.279 346.993C437.024 346.661 436.744 346.349 436.44 346.061L438.664 344.707C439.064 345.389 439.387 346.114 439.626 346.868C439.455 347.083 438.146 348.809 436.588 348.688Z" fill="#FBC6B4"/>
<path d="M439.631 346.872C439.633 346.856 439.64 346.84 439.652 346.828C440.914 348.712 438.03 349.829 436.338 350.075C434.646 350.32 436.593 348.691 436.593 348.691C438.146 348.807 439.455 347.081 439.631 346.872Z" fill="#FFB502"/>
<path d="M439.347 344.298C439.647 345.383 437.241 347.119 436.556 346.543C430.736 341.596 424.509 330.827 422.187 326.42C422.08 326.225 421.978 326.042 421.885 325.879C420.723 323.978 420.06 324.369 416.123 315.574C414.844 312.737 414.073 307.761 414.073 307.761L417.98 306.147L426.973 302.363C430.092 305.336 431.143 313.929 431.821 317.414C432.379 320.355 433.028 325.11 433.644 327.4C435.817 335.401 437.384 337.025 439.347 344.298Z" fill="#2E2E2E"/>
<path d="M413.803 350.844C415.207 350.226 415.244 350.042 415.147 349.592C415.049 349.188 414.924 348.79 414.774 348.402L417.359 348.1C417.434 348.887 417.423 349.681 417.324 350.466C417.089 350.588 415.181 351.602 413.803 350.844Z" fill="#FBC6B4"/>
<path d="M417.324 350.467C417.337 350.453 417.352 350.441 417.368 350.43C417.731 352.681 414.644 352.482 413.006 351.999C411.369 351.517 413.803 350.844 413.803 350.844C415.181 351.603 417.089 350.588 417.324 350.467Z" fill="#FFB502"/>
<path d="M422.517 320.434C421.794 323.349 420.181 326.352 420.181 330.443C420.181 338.755 419.397 340.598 418.159 348.017C418.022 348.879 416.201 349.421 415.221 349.225C415.085 349.205 414.956 349.153 414.844 349.074C414.766 349.039 414.704 348.976 414.668 348.898C411.457 341.975 409.303 330.192 409.014 325.231C408.838 322.303 408.926 322.663 409.031 312.222C409.061 309.101 410.418 304.26 410.418 304.26L423.384 304.683C424.974 308.688 423.349 316.997 422.517 320.434Z" fill="#404040"/>
<path d="M415.221 349.214C415.085 349.194 414.956 349.142 414.844 349.063C412.882 343.588 412.036 337.762 411.314 332.725C410.695 328.457 410.005 323.595 409.986 318.835C409.972 313.613 410.816 309.013 412.49 305.151C412.507 305.115 412.537 305.086 412.574 305.071C412.612 305.057 412.653 305.057 412.69 305.072C412.727 305.089 412.756 305.118 412.772 305.155C412.788 305.191 412.79 305.233 412.778 305.271C411.116 309.084 410.274 313.658 410.289 318.835C410.305 323.586 410.991 328.428 411.616 332.695C412.355 337.782 413.213 343.699 415.221 349.214Z" fill="white"/>
<path d="M413.564 284.815C413.564 284.815 417.682 289.135 415.867 296.755C415.867 296.755 414.556 301.571 410.312 301.113L409.501 308.194C409.501 308.194 417.338 312.34 429.334 306.539C429.334 306.539 431.089 294.708 425.067 284.591C425.067 284.591 423.805 282.659 422.389 282.217C422.389 282.217 429.395 293.93 424.051 294.947C418.707 295.963 415.627 283.383 415.627 283.383L413.564 284.815Z" fill="#404040"/>
<path d="M420.871 279.494C420.871 279.494 421.787 283.369 421.029 284.279C420.271 285.188 416.234 284.265 416.427 282.821C416.589 281.618 416.845 280.43 417.194 279.268L420.871 279.494Z" fill="#FBC6B4"/>
<path d="M423.133 275.507C423.133 278.917 421.227 281.682 418.877 281.682C417.824 281.682 415.474 281.968 414.732 281.05C413.817 279.921 413.812 277.011 414.338 275.213C415.551 271.047 417.322 269.674 419.665 269.674C422.008 269.674 423.133 272.097 423.133 275.507Z" fill="#FBC6B4"/>
<path d="M419.107 282.074C420.583 282.152 423.056 281.639 424.423 278.605C425.675 275.831 424.95 271.206 422.159 269.789C420.501 268.948 418.238 268.809 416.42 269.673C413.847 270.902 414.181 272.461 414.7 272.717C415.781 273.244 416.631 272.403 416.42 273.883C416.244 275.025 416.339 277.541 417.401 277.693C418.463 277.846 419.362 277.85 419.107 279.384C418.921 280.548 417.615 281.997 419.107 282.074Z" fill="#404040"/>
<path d="M417.001 274.671C417.001 274.671 411.199 271.299 412.855 269.638C414.205 268.288 418.793 270.07 418.793 270.07L417.001 274.671Z" fill="#EDA503"/>
<path d="M415.127 271.649C415.683 274.739 418.337 276.423 425.002 278.207C425.002 278.207 428.358 272.223 424.03 269.045C420.215 266.245 414.76 269.603 415.127 271.649Z" fill="#FFB502"/>
<path d="M410.72 316.589C402.895 316.589 396.542 304.799 396.542 297.099C396.546 293.338 398.041 289.733 400.699 287.073C403.357 284.414 406.96 282.917 410.72 282.912C418.294 282.912 426.61 291.726 426.61 299.751C426.61 307.775 418.294 316.589 410.72 316.589ZM410.72 283.655C407.156 283.66 403.74 285.079 401.22 287.6C398.701 290.121 397.283 293.539 397.279 297.104C397.279 304.507 403.301 315.85 410.72 315.85C417.943 315.85 425.873 307.422 425.873 299.756C425.873 292.09 417.943 283.655 410.72 283.655Z" fill="#C1E4FA"/>
<path d="M410.876 310.561C404.206 310.561 399.199 300.84 399.199 294.539C399.202 291.441 400.434 288.471 402.623 286.281C404.812 284.09 407.78 282.858 410.876 282.854C417.11 282.854 423.953 290.105 423.953 296.707C423.953 303.309 417.11 310.561 410.876 310.561ZM410.876 283.591C407.975 283.594 405.194 284.749 403.143 286.801C401.092 288.854 399.939 291.636 399.936 294.539C399.936 300.572 404.838 309.823 410.876 309.823C416.757 309.823 423.216 302.96 423.216 296.707C423.216 290.454 416.757 283.591 410.876 283.591Z" fill="#C1E4FA"/>
<path d="M411.344 308.561C404.675 308.561 399.666 298.844 399.666 292.543C399.669 289.445 400.901 286.476 403.09 284.285C405.28 282.095 408.248 280.863 411.344 280.859C417.576 280.859 424.421 288.107 424.421 294.711C424.421 301.315 417.576 308.561 411.344 308.561ZM411.344 281.595C408.443 281.599 405.662 282.753 403.611 284.806C401.56 286.858 400.406 289.64 400.403 292.543C400.403 298.577 405.305 307.818 411.344 307.818C417.225 307.818 423.684 300.955 423.684 294.704C423.684 288.453 417.225 281.595 411.344 281.595Z" fill="#C1E4FA"/>
<path d="M396.105 276.896C396.105 276.896 396.763 272.001 395.636 273.316C394.509 274.631 393.297 274.849 394.35 277.402L396.105 276.896Z" fill="#F7B2A0"/>
<path d="M415.116 285.126C417.111 287.902 415.818 290.071 414.084 291.238C411.425 293.034 406.674 295.31 401.096 292.945C395.519 290.58 394.106 277.114 394.106 277.114C394.106 277.114 394.768 275.852 396.028 276.461C396.028 276.461 398.957 286.561 404.319 287.509C406.906 287.96 413.224 282.492 415.116 285.126Z" fill="#FFB502"/>
<path d="M444.779 353.833C438.109 353.833 432.844 351.851 429.058 347.902C416.79 335.072 424.332 306.355 424.66 305.139L425.362 305.332C425.283 305.627 417.599 334.865 429.574 347.396C434.84 352.89 443.148 354.42 454.296 351.947L454.456 352.665C450.965 353.443 447.739 353.832 444.779 353.833Z" fill="#C1E4FA"/>
</g>
</svg>
