<svg width="55" height="56" viewBox="0 0 55 56" fill="none" xmlns="http://www.w3.org/2000/svg">
<path d="M16.0124 55.3797C14.8949 55.3793 13.8041 55.0379 12.8856 54.401C11.9672 53.7642 11.2648 52.8621 10.8723 51.8154C10.3552 50.4601 6.50796 38.1377 26.8716 22.101C33.594 16.8038 37.0018 14.0258 39.1323 11.6617C35.7969 12.4583 31.3756 14.1241 25.915 17.4401C14.0215 24.6824 10.6603 32.4421 10.6293 32.5249C10.3714 33.2081 9.97997 33.833 9.47784 34.3631C8.9757 34.8932 8.37296 35.3178 7.70486 35.6121C7.03675 35.9064 6.3167 36.0645 5.5868 36.0772C4.8569 36.0898 4.1318 35.9568 3.4539 35.6858C2.77601 35.4148 2.15893 35.0113 1.63874 34.4989C1.11855 33.9866 0.7057 33.3756 0.424325 32.7017C0.142949 32.0278 -0.00130007 31.3046 8.82826e-06 30.5743C0.00131773 29.844 0.148158 29.1213 0.431947 28.4484C0.887001 27.3155 5.28759 17.1141 20.2165 8.05084C38.8789 -3.27829 49.5985 0.51361 50.7568 0.984364C51.4399 1.26079 52.0603 1.67203 52.581 2.19354C53.1018 2.71506 53.5122 3.33616 53.7877 4.0198C54.0633 4.70344 54.1984 5.43561 54.185 6.17262C54.1715 6.90962 54.0098 7.63637 53.7095 8.3095C49.402 17.9677 47.4008 19.9128 33.6664 30.7298C25.553 37.1186 22.6727 42.0796 21.7006 45.1059C21.3801 46.0108 21.2225 46.9653 21.2352 47.9252C21.2352 47.9252 21.1576 47.9252 21.168 47.9614C21.4777 48.7935 21.5815 49.6882 21.4704 50.569C21.3593 51.4499 21.0366 52.2908 20.53 53.0198C20.0233 53.7488 19.3478 54.3442 18.5611 54.7551C17.7744 55.1661 16.8999 55.3804 16.0124 55.3797Z" fill="#99FFFF"/>
<path opacity="0.3" d="M26.5925 29.4679C27.5646 29.8249 26.8717 32.8097 25.0722 35.1583C23.2726 37.5069 18.5928 40.7039 18.5153 36.7465C18.4377 32.7891 21.7317 27.6884 26.5925 29.4679Z" fill="white"/>
<path opacity="0.3" d="M17.1501 16.1474C18.1222 16.5043 17.4293 19.4892 15.6298 21.8378C13.8303 24.1864 9.15044 27.3834 9.07287 23.4259C8.99531 19.4685 12.2893 14.3678 17.1501 16.1474Z" fill="white"/>
</svg>
