<svg width="44" height="53" viewBox="0 0 44 53" fill="none" xmlns="http://www.w3.org/2000/svg">
<path d="M0.657239 52.0248C0.140131 50.5763 -3.86228 37.39 16.4601 21.3844C29.8169 10.8778 30.0755 10.2829 33.2712 3.11814C33.8897 1.82801 34.9869 0.830167 36.3295 0.336854C37.6721 -0.156459 39.154 -0.106321 40.4602 0.476606C41.7664 1.05953 42.7937 2.12925 43.3237 3.45824C43.8536 4.78722 43.8444 6.27061 43.2979 7.59288C38.9904 17.2511 36.9892 19.1962 23.2342 30.0183C9.32914 40.9698 11.0201 48.476 11.0408 48.5485C11.0215 48.4671 10.9955 48.3875 10.9632 48.3105L0.657239 52.0248Z" fill="#99FFFF"/>
<path opacity="0.3" d="M16.3671 28.1359C17.3444 28.4876 16.6463 31.4777 14.8468 33.8263C13.0472 36.1749 8.37259 39.3667 8.28985 35.4144C8.20711 31.4622 11.5063 26.3563 16.3671 28.1359Z" fill="white"/>
</svg>
