<svg width="44" height="53" viewBox="0 0 44 53" fill="none" xmlns="http://www.w3.org/2000/svg">
<path d="M0.657239 52.0248C0.140132 50.5763 -3.86228 37.39 16.4601 21.3844C29.8169 10.8675 30.0755 10.2829 33.2712 3.11814C33.8897 1.82801 34.9869 0.830167 36.3295 0.336854C37.6721 -0.156459 39.1541 -0.106321 40.4602 0.476606C41.7664 1.05953 42.7938 2.12925 43.3237 3.45824C43.8537 4.78722 43.8444 6.27061 43.298 7.59288C38.9905 17.2511 36.9892 19.1962 23.2549 30.0132C9.34983 40.9647 11.0459 48.4657 11.0614 48.5433C11.0422 48.462 11.0162 48.3824 10.9839 48.3053L0.657239 52.0248Z" fill="#99FFFF"/>
<path opacity="0.3" d="M15.5861 29.2934C16.5582 29.6504 15.8653 32.6404 14.0658 34.9839C12.2663 37.3273 7.59158 40.5243 7.50885 36.572C7.42611 32.6197 10.7253 27.519 15.5861 29.2934Z" fill="white"/>
</svg>
