<svg width="44" height="56" viewBox="0 0 44 56" fill="none" xmlns="http://www.w3.org/2000/svg">
<path fill-rule="evenodd" clip-rule="evenodd" d="M2.67142 54.6519C3.59665 55.2999 4.69893 55.6469 5.82832 55.646L5.8128 55.6615C6.60956 55.66 7.39545 55.4855 8.11652 55.1511C8.63243 53.087 9.51806 50.7516 10.969 48.2076C10.8588 47.2922 10.5044 40.0565 23.2549 30.0132C36.9892 19.1962 38.9904 17.2511 43.298 7.59288C43.8444 6.27061 43.8536 4.78722 43.3237 3.45824C42.7937 2.12925 41.7664 1.05954 40.4602 0.476608C39.154 -0.106319 37.6721 -0.15646 36.3295 0.336853C34.9869 0.830166 33.8897 1.82801 33.2712 3.11814L33.2688 3.12354C30.0754 10.2832 29.8136 10.8701 16.4601 21.3844C-3.86228 37.39 0.140131 50.5763 0.657239 52.0248C1.04291 53.0867 1.74618 54.004 2.67142 54.6519Z" fill="#99FFFF"/>
<path opacity="0.3" d="M14.6916 29.8428C15.6638 30.1997 14.9657 33.1898 13.1713 35.5332C11.377 37.8766 6.69194 41.0788 6.61438 37.1213C6.53681 33.1639 9.83081 28.0684 14.6916 29.8428Z" fill="white"/>
</svg>
