<svg width="44" height="50" viewBox="0 0 44 50" fill="none" xmlns="http://www.w3.org/2000/svg">
<path fill-rule="evenodd" clip-rule="evenodd" d="M0.0686238 49.0937C1.98143 47.3344 7.33065 43.769 13.9076 39.6712C15.7156 36.9338 18.6177 33.6654 23.2548 30.0132C36.9892 19.1962 38.9904 17.2511 43.2979 7.59288C43.8444 6.2706 43.8536 4.78721 43.3237 3.45823C42.7937 2.12925 41.7664 1.05953 40.4602 0.476608C39.154 -0.106319 37.672 -0.15646 36.3295 0.336853C34.9869 0.830165 33.8897 1.828 33.2712 3.11813L33.2688 3.12354C30.0754 10.2832 29.8136 10.8701 16.46 21.3844C0.997685 33.5624 -0.383046 44.1082 0.0686238 49.0937Z" fill="#99FFFF"/>
<path opacity="0.3" d="M12.0785 31.3697C13.0507 31.7267 12.3578 34.7167 10.5583 37.0602C8.75873 39.4036 4.07891 42.6057 4.00134 38.6483C3.92378 34.6909 7.21776 29.5747 12.0785 31.3697Z" fill="white"/>
</svg>
