<svg width="200" height="200" viewBox="0 0 200 200" fill="none" xmlns="http://www.w3.org/2000/svg">
<rect x="-615" y="-174" width="1573" height="270" fill="#3C857E"/>
<rect x="-739" y="96" width="1622" height="270" fill="#3C857E"/>
<path d="M67.5548 99.8635C65.3432 99.832 63.1358 99.6593 60.9462 99.3462C59.5836 99.1692 58.3472 98.458 57.5088 97.369C56.6704 96.28 56.2988 94.9025 56.4758 93.5394C56.6527 92.1763 57.3636 90.9394 58.4522 90.1007C59.5408 89.262 60.9178 88.8902 62.2803 89.0672C69.375 89.9881 69.9542 90.0605 83.792 84.2925C105.371 75.2912 115.889 85.2547 116.323 85.684L109.084 93.0867L109.182 93.185C108.923 92.9574 102.615 87.6705 87.7892 93.8575C77.0696 98.3116 72.9224 99.8635 67.5548 99.8635Z" fill="#316D68"/>
<path d="M59.8497 86.9724C57.638 86.9408 55.4307 86.768 53.241 86.4551C51.8757 86.2802 50.6358 85.5698 49.7941 84.4803C48.9523 83.3909 48.5777 82.0115 48.7525 80.6457C48.9274 79.2799 49.6374 78.0395 50.7265 77.1974C51.8155 76.3553 53.1944 75.9805 54.5596 76.1554C61.6544 77.0762 62.2335 77.1486 76.0713 71.3806C94.1701 63.833 101.167 64.759 103.731 65.9799C105.003 66.4951 106.017 67.4944 106.552 68.758C107.087 70.0216 107.098 71.446 106.583 72.7179C106.068 73.9897 105.069 75.0048 103.806 75.5398C102.543 76.0749 101.119 76.086 99.8479 75.5709C99.1809 75.4881 94.0356 75.1156 80.0582 80.9457C69.3644 85.4153 65.2172 86.9672 59.8497 86.9724Z" fill="#316D68"/>
<path d="M52.1449 74.076C49.9332 74.0444 47.7258 73.8716 45.5362 73.5587C44.8616 73.471 44.2108 73.2513 43.621 72.9121C43.0312 72.5728 42.514 72.1207 42.0989 71.5815C41.6838 71.0423 41.3789 70.4265 41.2016 69.7694C41.0244 69.1124 40.9782 68.4268 41.0658 67.7518C41.1534 67.0769 41.3731 66.4259 41.7122 65.8358C42.0513 65.2458 42.5032 64.7284 43.0422 64.3131C43.5812 63.8979 44.1967 63.5928 44.8536 63.4155C45.5104 63.2382 46.1957 63.1921 46.8704 63.2797C53.9651 64.2005 54.5442 64.2729 68.382 58.5049C86.4808 50.9573 93.4772 51.8833 96.0421 53.1042C97.3134 53.6193 98.3281 54.6187 98.863 55.8823C99.3978 57.1459 99.4089 58.5703 98.894 59.8422C98.379 61.114 97.38 62.1291 96.1169 62.6641C94.8538 63.1992 93.43 63.2103 92.1586 62.6951C91.4916 62.6124 86.3463 62.2399 72.3689 68.07C61.6596 72.5189 57.5124 74.076 52.1449 74.076Z" fill="#316D68"/>
<path d="M44.44 61.179C42.2284 61.1474 40.021 60.9746 37.8314 60.6617C37.1567 60.5741 36.5059 60.3543 35.9161 60.0151C35.3264 59.6759 34.8091 59.2237 34.394 58.6845C33.9789 58.1453 33.674 57.5296 33.4968 56.8725C33.3195 56.2154 33.2734 55.5298 33.361 54.8549C33.4486 54.1799 33.6682 53.5289 34.0073 52.9389C34.3464 52.3489 34.7984 51.8314 35.3374 51.4162C35.8764 51.0009 36.4919 50.6959 37.1487 50.5186C37.8056 50.3412 38.4909 50.2951 39.1655 50.3827C46.2603 51.3035 46.8394 51.3759 60.6772 45.6079C78.776 38.0603 85.7673 38.9863 88.3321 40.2072C89.5944 40.728 90.5995 41.7271 91.1282 42.9864C91.6568 44.2458 91.6662 45.6632 91.1542 46.9295C90.6421 48.1957 89.6503 49.208 88.395 49.7454C87.1398 50.2828 85.723 50.3018 84.4538 49.7981C83.7868 49.7154 78.6415 49.3481 64.6641 55.173C53.9548 59.6219 49.8076 61.179 44.44 61.179Z" fill="#316D68"/>
<path d="M36.7351 48.2827C34.5234 48.2511 32.3161 48.0783 30.1264 47.7654C29.4521 47.6778 28.8017 47.4581 28.2122 47.119C27.6227 46.7799 27.1058 46.3279 26.6909 45.7889C26.276 45.25 25.9713 44.6345 25.7942 43.9778C25.6171 43.321 25.571 42.6357 25.6586 41.9611C25.7462 41.2866 25.9658 40.6358 26.3048 40.0461C26.6438 39.4564 27.0955 38.9393 27.6343 38.5243C28.1731 38.1092 28.7883 37.8044 29.4448 37.6272C30.1013 37.45 30.7863 37.4039 31.4606 37.4916C38.5553 38.4124 39.1345 38.49 52.9723 32.7168C71.071 25.1744 78.0623 26.0952 80.6272 27.3161C81.8894 27.8369 82.8945 28.8359 83.4232 30.0953C83.9519 31.3547 83.9612 32.7721 83.4492 34.0383C82.9372 35.3046 81.9453 36.3168 80.6901 36.8543C79.4348 37.3917 78.018 37.4106 76.7489 36.907C76.0818 36.8242 70.9366 36.4569 56.9592 42.2871C46.2499 46.7256 42.1027 48.2827 36.7351 48.2827Z" fill="#316D68"/>
<path d="M63.8677 117.328C63.3506 115.879 59.3482 102.693 79.6705 86.6874C93.0274 76.1704 93.2859 75.5859 96.4817 68.4211C97.1001 67.131 98.1974 66.1331 99.5399 65.6398C100.882 65.1465 102.364 65.1967 103.671 65.7796C104.977 66.3625 106.004 67.4322 106.534 68.7612C107.064 70.0902 107.055 71.5736 106.508 72.8959C102.201 82.5541 100.2 84.4992 86.4653 95.3161C72.5603 106.268 74.2564 113.769 74.2719 113.846C74.2558 113.764 74.2297 113.684 74.1943 113.608L63.8677 117.328Z" fill="#63BEB6"/>
<path d="M61.3493 108.068C60.2199 108.069 59.1176 107.722 58.1924 107.074C57.2672 106.426 56.5639 105.509 56.1782 104.447C55.6611 102.998 51.6587 89.8122 71.981 73.8065C85.3379 63.2896 85.5965 62.705 88.7922 55.5403C89.4107 54.2501 90.5079 53.2523 91.8505 52.759C93.1931 52.2657 94.675 52.3158 95.9812 52.8987C97.2874 53.4817 98.3147 54.5514 98.8447 55.8804C99.3746 57.2093 99.3654 58.6927 98.8189 60.015C94.5114 69.6732 92.5102 71.6183 78.7758 82.4353C65.1811 93.1437 66.4842 100.66 66.5049 100.727C66.8013 101.557 66.8942 102.446 66.7757 103.32C66.6573 104.193 66.331 105.025 65.8242 105.746C65.3175 106.467 64.6452 107.055 63.8637 107.462C63.0823 107.869 62.2147 108.082 61.3338 108.084L61.3493 108.068Z" fill="#63BEB6"/>
<path d="M48.4785 91.5353C47.9614 90.0868 43.959 76.9005 64.2813 60.8949C77.6382 50.378 77.8968 49.7934 81.0925 42.6286C81.711 41.3385 82.8082 40.3407 84.1508 39.8474C85.4934 39.354 86.9753 39.4042 88.2815 39.9871C89.5877 40.57 90.6151 41.6398 91.145 42.9687C91.675 44.2977 91.6657 45.7811 91.1193 47.1034C86.8117 56.7616 84.8105 58.7067 71.0761 69.5237C57.1711 80.4752 58.8672 87.9762 58.8827 88.0538C58.8635 87.9725 58.8375 87.8929 58.8052 87.8158L48.4785 91.5353Z" fill="#63BEB6"/>
<path d="M40.7737 78.6383C40.2566 77.1898 36.2542 64.0036 56.5765 47.9979C69.9334 37.4913 70.1919 36.8964 73.3877 29.7317C74.0062 28.4415 75.1034 27.4437 76.446 26.9504C77.7885 26.4571 79.2705 26.5072 80.5767 27.0901C81.8829 27.6731 82.9102 28.7428 83.4401 30.0718C83.9701 31.4007 83.9609 32.8841 83.4144 34.2064C79.1069 43.8646 77.1057 45.8097 63.3506 56.6319C49.4456 67.5834 51.1365 75.0896 51.1572 75.162C51.1379 75.0807 51.112 75.0011 51.0796 74.924L40.7737 78.6383Z" fill="#63BEB6"/>
<path d="M38.0124 68.3797C36.8949 68.3793 35.8041 68.0379 34.8856 67.401C33.9672 66.7642 33.2648 65.8621 32.8723 64.8154C32.3552 63.4601 28.508 51.1377 48.8716 35.101C55.594 29.8038 59.0018 27.0258 61.1323 24.6617C57.7969 25.4583 53.3756 27.1241 47.915 30.4401C36.0215 37.6824 32.6603 45.4421 32.6293 45.5249C32.3714 46.2081 31.98 46.833 31.4778 47.3631C30.9757 47.8932 30.373 48.3178 29.7049 48.6121C29.0368 48.9064 28.3167 49.0645 27.5868 49.0772C26.8569 49.0898 26.1318 48.9568 25.4539 48.6858C24.776 48.4148 24.1589 48.0113 23.6387 47.4989C23.1186 46.9866 22.7057 46.3756 22.4243 45.7017C22.1429 45.0278 21.9987 44.3046 22 43.5743C22.0013 42.844 22.1482 42.1213 22.4319 41.4484C22.887 40.3155 27.2876 30.1141 42.2165 21.0508C60.8789 9.72172 71.5985 13.5136 72.7568 13.9844C73.4399 14.2608 74.0603 14.672 74.581 15.1935C75.1018 15.7151 75.5122 16.3362 75.7877 17.0198C76.0633 17.7034 76.1984 18.4356 76.185 19.1726C76.1715 19.9096 76.0098 20.6364 75.7095 21.3095C71.402 30.9677 69.4008 32.9128 55.6664 43.7298C47.553 50.1186 44.6727 55.0796 43.7006 58.1059C43.3801 59.0108 43.2225 59.9653 43.2352 60.9252C43.2352 60.9252 43.1576 60.9252 43.168 60.9614C43.4777 61.7935 43.5815 62.6882 43.4704 63.569C43.3593 64.4499 43.0366 65.2908 42.53 66.0198C42.0233 66.7488 41.3478 67.3442 40.5611 67.7551C39.7744 68.1661 38.8999 68.3804 38.0124 68.3797V68.3797Z" fill="#63BEB6"/>
<path d="M132.059 126.288C132.059 126.288 144.624 142.842 145.726 157.378C146.957 173.456 125.155 185.277 112.75 175.37C111.063 173.922 109.506 172.33 108.096 170.611C101.374 162.82 92.5828 149.882 92.5828 149.882C103.959 144.756 116.706 136.686 124.556 131.44C129.147 128.383 132.059 126.288 132.059 126.288Z" fill="#316D68"/>
<path opacity="0.1" d="M132.059 126.288C132.059 126.288 144.624 142.842 145.726 157.378C146.957 173.456 125.155 185.277 112.75 175.37C111.063 173.922 109.506 172.33 108.096 170.611C113.681 171.858 124.442 172.68 131.366 163.446C138.657 153.731 129.551 138.47 124.535 131.44C129.147 128.383 132.059 126.288 132.059 126.288Z" fill="black"/>
<path d="M131.092 107.432C132.772 112.854 134.975 123.645 132.183 127.411C130.725 129.387 122.446 136.252 114.493 140.954C105.185 146.463 92.5827 149.883 92.5827 149.883C92.5827 149.883 84.159 147.193 78.1347 141.047C77.871 140.778 77.6176 140.504 77.3539 140.219C73.6359 136.081 62.7197 117.934 62.5232 115.388C62.3681 113.319 95.6181 93.4441 109.347 86.2897C112.321 84.7378 114.374 83.7911 114.968 83.7497C118.335 83.5324 130.347 105.001 131.092 107.432Z" fill="#63BEB6"/>
<path opacity="0.3" d="M77.8968 113.474C79.4171 112 84.2779 115.937 86.9669 121.312C89.6558 126.686 91.3778 138.129 84.0504 134.762C76.723 131.394 70.316 120.815 77.8968 113.474Z" fill="white"/>
<path opacity="0.05" d="M131.091 107.432C132.772 112.853 134.975 123.644 132.183 127.41C130.724 129.387 122.445 136.251 114.492 140.954C105.184 146.463 92.5825 149.882 92.5825 149.882C92.5825 149.882 84.1588 147.192 78.1345 141.047C86.672 142.599 102.832 142.759 115.568 126.252C126.649 111.886 117.89 96.2941 109.363 86.3048C112.336 84.7529 114.389 83.8062 114.984 83.7648C118.334 83.532 130.347 105 131.091 107.432Z" fill="black"/>
<path d="M92.5877 150.095C92.5359 150.094 92.4864 150.074 92.4485 150.038C92.4105 150.003 92.3867 149.955 92.3816 149.904C92.3766 149.852 92.3905 149.801 92.4208 149.759C92.4512 149.717 92.4958 149.687 92.5464 149.676C92.7791 149.634 115.816 145.103 132.012 127.292C132.229 126.826 135.265 119.848 130.9 107.505C130.828 107.36 122.658 91.0024 116.421 84.7429C116.402 84.7235 116.386 84.7006 116.376 84.6753C116.366 84.65 116.36 84.6228 116.36 84.5955C116.36 84.5681 116.366 84.541 116.376 84.5157C116.386 84.4904 116.402 84.4674 116.421 84.448C116.441 84.4287 116.464 84.4133 116.489 84.4028C116.514 84.3924 116.541 84.387 116.569 84.387C116.596 84.387 116.623 84.3924 116.648 84.4028C116.674 84.4133 116.697 84.4287 116.716 84.448C122.994 90.7592 131.195 107.179 131.278 107.344C135.844 120.277 132.4 127.442 132.364 127.519L132.333 127.566C116.049 145.506 92.8463 150.059 92.6136 150.105L92.5877 150.095Z" fill="#316D68"/>
<path d="M62.7147 115.223C62.6562 115.222 62.6004 115.198 62.5596 115.156C62.5214 115.116 62.5 115.063 62.5 115.008C62.5 114.953 62.5214 114.9 62.5596 114.861C62.6889 114.742 65.8691 111.845 83.761 100.686C83.8078 100.657 83.8643 100.647 83.9184 100.659C83.9725 100.67 84.0199 100.702 84.0506 100.749C84.0796 100.796 84.0888 100.853 84.0762 100.907C84.0636 100.961 84.0303 101.008 83.9833 101.038C66.1794 112.155 62.8905 115.135 62.8595 115.166C62.8404 115.185 62.8177 115.199 62.7928 115.209C62.768 115.219 62.7414 115.223 62.7147 115.223V115.223Z" fill="#316D68"/>
<path opacity="0.3" d="M78.6208 94.9132C79.5929 95.2701 78.9 98.2602 77.1005 100.604C75.301 102.947 70.6211 106.149 70.5436 102.192C70.466 98.2343 73.76 93.1181 78.6208 94.9132Z" fill="white"/>
<path opacity="0.3" d="M70.2126 82.2649C71.1848 82.6218 70.4867 85.6119 68.6923 87.9553C66.898 90.2987 62.2129 93.5009 62.1354 89.5435C62.0578 85.586 65.3518 80.4905 70.2126 82.2649Z" fill="white"/>
<path opacity="0.3" d="M63.4074 68.8039C64.3795 69.1609 63.6866 72.1509 61.8871 74.4944C60.0875 76.8378 55.4129 80.0348 55.3301 76.0825C55.2474 72.1302 58.5465 67.0295 63.4074 68.8039Z" fill="white"/>
<path opacity="0.3" d="M56.4835 54.7494C57.4609 55.1012 56.7628 58.0912 54.9632 60.4398C53.1637 62.7884 48.489 65.9802 48.4063 62.028C48.3236 58.0757 51.6227 52.9698 56.4835 54.7494Z" fill="white"/>
<path opacity="0.3" d="M48.5925 42.4679C49.5646 42.8249 48.8717 45.8097 47.0722 48.1583C45.2726 50.5069 40.5928 53.7039 40.5153 49.7465C40.4377 45.7891 43.7317 40.6884 48.5925 42.4679Z" fill="white"/>
<path opacity="0.3" d="M39.1501 29.1474C40.1222 29.5043 39.4293 32.4892 37.6298 34.8378C35.8303 37.1864 31.1504 40.3834 31.0729 36.4259C30.9953 32.4685 34.2893 27.3678 39.1501 29.1474Z" fill="white"/>
<path d="M63.966 107.396H63.9247C63.8706 107.384 63.8233 107.351 63.7926 107.305C63.7618 107.259 63.7499 107.202 63.7592 107.148C63.7592 107.091 64.9589 101.457 70.1506 95.2496C70.1902 95.2113 70.243 95.1899 70.298 95.1899C70.353 95.1899 70.4058 95.2113 70.4453 95.2496C70.4655 95.2684 70.4817 95.2913 70.4927 95.3166C70.5037 95.342 70.5093 95.3693 70.5093 95.397C70.5093 95.4246 70.5037 95.452 70.4927 95.4774C70.4817 95.5027 70.4655 95.5256 70.4453 95.5444C65.3208 101.659 64.1574 107.194 64.1419 107.251C64.1305 107.29 64.1077 107.325 64.0763 107.351C64.045 107.377 64.0065 107.392 63.966 107.396V107.396Z" fill="#316D68"/>
<path d="M56.0697 94.913H56.0283C55.9736 94.9018 55.9255 94.8694 55.8945 94.8229C55.8635 94.7764 55.8521 94.7196 55.8628 94.6647C55.8628 94.6078 57.0573 88.9743 62.2542 82.7666C62.2903 82.7247 62.3413 82.6985 62.3964 82.6937C62.4514 82.6889 62.5062 82.7057 62.549 82.7407C62.5703 82.7582 62.5879 82.7797 62.6008 82.8041C62.6137 82.8285 62.6216 82.8552 62.624 82.8827C62.6264 82.9101 62.6233 82.9378 62.6148 82.9641C62.6064 82.9903 62.5928 83.0146 62.5748 83.0356C57.4555 89.1398 56.2817 94.6854 56.2713 94.7423C56.2629 94.7898 56.2381 94.8329 56.2013 94.8641C56.1645 94.8953 56.1179 94.9126 56.0697 94.913V94.913Z" fill="#316D68"/>
<path d="M48.3908 82.1409H48.3546C48.3276 82.1354 48.302 82.1246 48.2793 82.1091C48.2566 82.0935 48.2372 82.0736 48.2223 82.0505C48.2074 82.0274 48.1972 82.0015 48.1924 81.9744C48.1876 81.9473 48.1882 81.9195 48.1943 81.8926C48.1943 81.8357 49.4095 76.2798 54.4306 69.9479C54.446 69.9215 54.4669 69.8988 54.4919 69.8812C54.517 69.8637 54.5455 69.8517 54.5755 69.8462C54.6056 69.8407 54.6365 69.8418 54.6661 69.8494C54.6957 69.8569 54.7233 69.8708 54.7471 69.89C54.7708 69.9093 54.7901 69.9334 54.8037 69.9608C54.8172 69.9882 54.8247 70.0182 54.8256 70.0487C54.8265 70.0793 54.8207 70.1097 54.8088 70.1378C54.7968 70.1659 54.779 70.1912 54.7564 70.2117C49.8025 76.4557 48.6131 81.9237 48.6028 81.9754C48.5912 82.0228 48.564 82.0649 48.5255 82.095C48.487 82.125 48.4396 82.1412 48.3908 82.1409V82.1409Z" fill="#316D68"/>
<path d="M40.5981 69.4151H40.5515C40.5248 69.4102 40.4993 69.3999 40.4766 69.3849C40.4539 69.3699 40.4345 69.3504 40.4196 69.3277C40.4046 69.305 40.3943 69.2795 40.3895 69.2527C40.3846 69.2259 40.3852 69.1985 40.3912 69.1719C40.3912 69.115 41.6064 63.5591 46.6276 57.2272C46.643 57.2008 46.6639 57.1781 46.6889 57.1605C46.7139 57.143 46.7425 57.131 46.7725 57.1255C46.8026 57.12 46.8335 57.1211 46.8631 57.1287C46.8927 57.1362 46.9203 57.1501 46.944 57.1693C46.9678 57.1885 46.9871 57.2127 47.0007 57.2401C47.0142 57.2675 47.0217 57.2975 47.0226 57.328C47.0234 57.3586 47.0177 57.389 47.0058 57.4171C46.9938 57.4452 46.9759 57.4705 46.9533 57.491C41.9943 63.7402 40.8101 69.203 40.7998 69.2547C40.7892 69.3003 40.7636 69.341 40.7269 69.3701C40.6903 69.3992 40.6449 69.4151 40.5981 69.4151V69.4151Z" fill="#316D68"/>
<path d="M33.8754 43.8289C33.8371 43.8284 33.7996 43.8177 33.7668 43.7979C33.7199 43.7681 33.6865 43.721 33.6739 43.6668C33.6614 43.6126 33.6706 43.5557 33.6996 43.5082C36.3261 39.6649 39.5444 36.262 43.235 33.4258C43.2791 33.392 43.3347 33.3769 43.3898 33.3837C43.4449 33.3904 43.4952 33.4186 43.5298 33.462C43.5472 33.4836 43.56 33.5084 43.5677 33.5351C43.5753 33.5617 43.5774 33.5896 43.5741 33.6171C43.5707 33.6446 43.5618 33.6712 43.548 33.6952C43.5342 33.7192 43.5157 33.7402 43.4936 33.7569C39.8353 36.5572 36.6477 39.9243 34.0512 43.7307C34.032 43.76 34.006 43.7843 33.9754 43.8014C33.9448 43.8185 33.9105 43.828 33.8754 43.8289V43.8289Z" fill="#316D68"/>
<path d="M67.8598 34.0513C67.8037 34.0507 67.7499 34.0285 67.7099 33.9892C67.6901 33.9695 67.6745 33.9461 67.6639 33.9204C67.6532 33.8946 67.6477 33.867 67.6477 33.8392C67.6477 33.8113 67.6532 33.7837 67.6639 33.758C67.6745 33.7322 67.6901 33.7088 67.7099 33.6891C67.7667 33.6374 73.398 28.2418 75.8801 20.4097C75.8968 20.3564 75.9339 20.3118 75.9833 20.2856C76.0327 20.2595 76.0904 20.2539 76.1439 20.2701C76.1962 20.2878 76.2396 20.3253 76.2647 20.3746C76.2899 20.4239 76.2947 20.4811 76.2783 20.5339C73.7859 28.4746 68.0511 33.9426 68.0046 33.984C67.9865 34.0047 67.9643 34.0214 67.9393 34.033C67.9144 34.0446 67.8873 34.0508 67.8598 34.0513V34.0513Z" fill="#316D68"/>
<path d="M75.6112 46.7355C75.5686 46.7372 75.5264 46.7256 75.4905 46.7024C75.4547 46.6791 75.4269 46.6453 75.411 46.6056C75.3952 46.5659 75.392 46.5223 75.4019 46.4807C75.4118 46.4391 75.4344 46.4016 75.4664 46.3734C75.5233 46.3217 81.1805 40.9261 83.6367 33.094C83.6545 33.0416 83.692 32.9982 83.7412 32.9731C83.7905 32.948 83.8476 32.9431 83.9004 32.9595C83.9266 32.9671 83.9509 32.98 83.972 32.9973C83.993 33.0146 84.0103 33.0359 84.0229 33.0601C84.0355 33.0843 84.043 33.1107 84.0451 33.1379C84.0471 33.1651 84.0437 33.1924 84.0349 33.2182C81.5424 41.1589 75.8077 46.6269 75.7612 46.6683C75.743 46.6902 75.72 46.7077 75.694 46.7193C75.668 46.731 75.6397 46.7365 75.6112 46.7355V46.7355Z" fill="#316D68"/>
<path d="M83.2698 59.7873C83.2131 59.7848 83.1594 59.7608 83.1198 59.72C83.1003 59.7008 83.0848 59.6778 83.0742 59.6525C83.0636 59.6272 83.0581 59.6 83.0581 59.5726C83.0581 59.5451 83.0636 59.518 83.0742 59.4927C83.0848 59.4674 83.1003 59.4444 83.1198 59.4251C83.1767 59.3682 88.808 53.9727 91.2901 46.1406C91.2986 46.1144 91.3122 46.0902 91.33 46.0693C91.3478 46.0484 91.3696 46.0312 91.3941 46.0187C91.4186 46.0062 91.4454 45.9987 91.4728 45.9965C91.5002 45.9943 91.5277 45.9976 91.5538 46.0061C91.58 46.0146 91.6042 46.0281 91.6251 46.046C91.646 46.0638 91.6632 46.0856 91.6757 46.1101C91.6882 46.1346 91.6957 46.1614 91.6979 46.1888C91.7 46.2162 91.6968 46.2438 91.6883 46.2699C89.1958 54.2055 83.4611 59.6735 83.4146 59.72C83.3763 59.7596 83.3247 59.7836 83.2698 59.7873V59.7873Z" fill="#316D68"/>
<path d="M91.0832 72.4823C91.0545 72.4828 91.026 72.4775 90.9994 72.4668C90.9728 72.4562 90.9485 72.4403 90.928 72.4203C90.8898 72.3807 90.8684 72.3278 90.8684 72.2728C90.8684 72.2178 90.8898 72.1649 90.928 72.1254C90.9849 72.0685 96.6162 66.6729 99.0983 58.8408C99.1161 58.7884 99.1535 58.745 99.2028 58.7199C99.2521 58.6948 99.3092 58.6899 99.362 58.7063C99.3882 58.714 99.4125 58.7268 99.4336 58.7441C99.4546 58.7614 99.4719 58.7828 99.4845 58.8069C99.497 58.8311 99.5046 58.8576 99.5067 58.8847C99.5087 58.9119 99.5053 58.9392 99.4965 58.965C97.004 66.9057 91.2693 72.3737 91.2228 72.4151C91.2059 72.4359 91.1847 72.4528 91.1605 72.4644C91.1364 72.4761 91.11 72.4822 91.0832 72.4823Z" fill="#316D68"/>
<path d="M98.5915 85.8086C98.5488 85.8102 98.5066 85.7987 98.4708 85.7754C98.4349 85.7521 98.4071 85.7183 98.3912 85.6786C98.3754 85.6389 98.3722 85.5953 98.3821 85.5537C98.392 85.5122 98.4146 85.4747 98.4467 85.4464C98.5036 85.3947 104.135 79.9991 106.617 72.167C106.633 72.1142 106.67 72.0701 106.719 72.0444C106.768 72.0187 106.825 72.0135 106.878 72.03C106.931 72.0464 106.975 72.0832 107.001 72.1322C107.026 72.1812 107.032 72.2384 107.015 72.2912C104.523 80.2319 98.788 85.6999 98.7414 85.7413C98.7235 85.7636 98.7006 85.7813 98.6745 85.7929C98.6484 85.8046 98.62 85.81 98.5915 85.8086V85.8086Z" fill="#316D68"/>
</svg>
