<svg width="1094" height="603" viewBox="0 0 1094 603" fill="none" xmlns="http://www.w3.org/2000/svg">
<g opacity="0.1">
<path d="M144.985 477.038C136.286 420.597 138.658 389.128 138.658 389.128H43.4016C43.4016 389.128 45.774 420.597 37.075 477.042C29.9176 523.472 0.519287 602.919 0.519287 602.919H181.539C181.539 602.919 152.142 523.468 144.985 477.038Z" fill="#404040"/>
<path d="M43.679 397.484C43.708 399.974 43.7064 403.006 43.6396 406.568H138.419C138.353 403.006 138.35 399.974 138.379 397.484H43.679Z" fill="#404040"/>
<path d="M132.392 515.581C125.9 481.669 122.426 447.248 122.012 412.722C121.998 411.523 120.137 411.576 120.151 412.775C120.578 447.468 124.079 482.054 130.612 516.128C130.837 517.301 132.616 516.75 132.392 515.581Z" fill="#404040"/>
<path d="M59.1476 397.044C58.6725 425.845 56.1776 454.576 51.6814 483.026C51.5206 484.049 52.8748 484.487 53.0373 483.459C57.5607 454.865 60.0723 425.988 60.5534 397.042C60.5711 395.999 59.1645 395.999 59.1476 397.044Z" fill="#404040"/>
<path d="M43.9251 523.202C40.7432 540.2 37.0613 557.053 32.8794 573.762C32.6277 574.768 33.9844 575.198 34.2353 574.194C38.4172 557.487 42.098 540.634 45.2778 523.636C45.4716 522.615 44.1165 522.18 43.9251 523.202Z" fill="#404040"/>
<path d="M82.8337 466.478C82.3125 498.659 81.7911 530.841 81.2695 563.023C81.2526 564.07 82.6583 564.07 82.6752 563.023C83.1974 530.841 83.7188 498.659 84.2394 466.478C84.2563 465.432 82.8505 465.432 82.8337 466.478Z" fill="#404040"/>
<g style="mix-blend-mode:overlay" opacity="0.2">
<path d="M139.114 477.038C131.361 420.597 133.475 389.128 133.475 389.128H102.101C102.101 389.128 100.29 420.597 106.926 477.042C112.387 523.472 121.08 602.919 121.08 602.919H171.695C171.695 602.919 145.495 523.468 139.114 477.038Z" fill="#404040"/>
</g>
<path d="M139.001 381.211H43.0564C41.1599 381.211 39.6224 382.75 39.6224 384.649V385.691C39.6224 387.59 41.1599 389.129 43.0564 389.129H139.001C140.897 389.129 142.435 387.59 142.435 385.691V384.649C142.435 382.75 140.897 381.211 139.001 381.211Z" fill="#404040"/>
<path d="M84.8595 405.829C84.775 404.639 82.9133 404.631 82.9985 405.829C84.0189 420.249 83.9315 434.727 82.7371 449.134C82.6382 450.328 84.5 450.322 84.5981 449.134C85.7929 434.727 85.8803 420.249 84.8595 405.829Z" fill="#404040"/>
<path d="M90.9769 419.343C74.7352 419.532 58.5057 419.114 42.2881 418.089C41.0915 418.013 41.0963 419.877 42.2881 419.953C58.4976 420.977 74.7272 421.395 90.9769 421.207C92.1735 421.193 92.1768 419.33 90.9769 419.343Z" fill="#404040"/>
<path d="M139.372 419.332C125.452 419.034 111.531 419.023 97.6084 419.298C96.4126 419.321 96.4085 421.185 97.6084 421.161C111.529 420.886 125.45 420.897 139.372 421.195C140.57 421.22 140.57 419.358 139.372 419.332Z" fill="#404040"/>
<path d="M67.3555 488.877C56.446 488.001 45.4975 487.712 34.557 488.01C33.362 488.043 33.3572 489.906 34.557 489.874C45.4975 489.575 56.4461 489.864 67.3555 490.74C68.5498 490.836 68.5433 488.972 67.3555 488.877Z" fill="#404040"/>
<path d="M110.88 488.895C98.5612 489.707 86.204 489.759 73.8788 489.05C72.6821 488.982 72.6862 490.845 73.8788 490.913C86.204 491.622 98.5612 491.57 110.88 490.758C112.069 490.68 112.078 488.816 110.88 488.895Z" fill="#404040"/>
<path d="M148.233 487.011C138.783 488.042 129.275 488.446 119.772 488.219C118.574 488.19 118.575 490.054 119.772 490.082C129.275 490.309 138.783 489.905 148.233 488.874C149.408 488.746 149.424 486.882 148.233 487.011Z" fill="#404040"/>
<path opacity="0.5" d="M73.5269 382.371C68.3558 382.384 63.1854 382.413 58.0154 382.459C53.3511 382.501 48.4792 382.166 43.8679 382.948C42.6898 383.148 43.1892 384.944 44.3625 384.745C49.1676 383.93 54.3467 384.353 59.2081 384.311C63.9796 384.271 68.7526 384.244 73.5269 384.231C74.7243 384.227 74.7267 382.364 73.5269 382.371Z" fill="#404040"/>
<path opacity="0.5" d="M98.3058 381.95L79.0241 382.141C77.8274 382.153 77.8242 384.017 79.0241 384.005L98.3058 383.813C99.5024 383.801 99.5057 381.938 98.3058 381.95Z" fill="#404040"/>
<g style="mix-blend-mode:overlay" opacity="0.2">
<path d="M70.857 480.007C58.2689 483.066 43.9605 494.418 30.4419 508.285C19.2419 552.323 0.519287 602.915 0.519287 602.915H181.539C181.539 602.915 157.172 537.07 147.408 490.235C127.247 505.782 98.7282 473.24 70.857 480.007Z" fill="#404040"/>
</g>
<path d="M248.981 309.673C247.373 303.37 241.318 297.39 235.23 294.269C231.937 292.579 228.684 292.229 224.966 292.397C221.247 292.564 218.638 292.269 216.152 289.337C215.187 288.197 214.383 286.936 213.293 285.881C207.832 280.602 200.042 283.783 193.168 283.266C188.144 282.89 183.405 280.922 178.495 280.015C174.002 279.187 169.387 278.901 164.828 279.422C157.398 280.271 150.218 283.254 145.286 288.47C142.903 290.989 141.638 294.481 138.972 296.747C134.689 300.385 128.564 297.895 123.428 298.556C114.136 299.754 111.17 306.336 107.344 313.004C105.925 315.477 104.389 317.377 101.399 318.421C99.2177 319.182 96.7777 319.186 94.5718 319.912C91.3791 320.958 88.7816 322.971 86.8635 325.488C81.2261 332.894 85.6621 341.992 80.824 349.361C78.3527 353.124 76.7226 361.013 85.4932 364.577C87.6476 365.452 89.7788 365.302 91.8399 364.358C96.1239 362.396 97.2747 358.821 102.765 361.42C108.511 364.139 114.506 363.755 118.789 358.827C119.821 357.64 120.49 356.386 121.138 355.002C122.312 352.492 123.112 351.202 125.627 349.631C128.536 347.814 130.848 345.923 133.285 343.583C136.676 340.331 140.098 337.873 145.39 339.104C149.467 340.052 153.009 342.412 156.882 343.846C163.739 346.385 170.504 345.186 176.118 340.919C180.368 337.689 183.072 335.651 188.86 337.275C192.823 338.386 196.493 339.346 200.69 339.117C204.32 338.925 207.883 338.064 211.2 336.576C215.096 334.812 217.666 331.638 221.356 329.689C225.925 327.273 228.359 330.625 232.716 330.556C235.903 330.507 238.864 328.793 241.19 326.961C246.626 322.68 250.685 316.355 248.981 309.673Z" fill="#404040"/>
<path d="M362.616 452.301C350.562 384.533 353.849 346.748 353.849 346.748H221.868C221.868 346.748 225.155 384.533 213.102 452.301C203.186 508.05 162.451 603.441 162.451 603.441H413.265C413.265 603.441 372.531 508.05 362.616 452.301Z" fill="#404040"/>
<path d="M354.826 392.82C354.394 387.354 354.085 382.354 353.872 377.828H221.842C221.628 382.354 221.319 387.359 220.888 392.82H354.826Z" fill="#404040"/>
<path d="M365.452 465.953C364.343 461.205 363.386 456.634 362.616 452.301C362.272 450.365 361.948 448.461 361.623 446.573H214.094C213.775 448.461 213.446 450.366 213.102 452.301C212.331 456.634 211.373 461.205 210.265 465.953H365.452Z" fill="#404040"/>
<path d="M257.176 356.253C256.513 390.891 253.053 425.418 246.831 459.497C246.609 460.724 248.484 461.251 248.71 460.016C254.969 425.767 258.451 391.067 259.124 356.256C259.149 354.997 257.2 354.997 257.176 356.253Z" fill="#404040"/>
<path d="M236.084 507.733C231.676 528.142 226.576 548.377 220.784 568.44C220.435 569.648 222.315 570.164 222.663 568.958C228.457 548.9 233.557 528.664 237.963 508.252C238.227 507.028 236.349 506.506 236.084 507.733Z" fill="#404040"/>
<path d="M283.339 439.62C282.617 478.261 281.895 516.901 281.172 555.542C281.149 556.797 283.098 556.797 283.121 555.542L285.287 439.62C285.311 438.365 283.363 438.364 283.339 439.62Z" fill="#404040"/>
<path opacity="0.2" d="M354.486 452.301C343.743 384.537 346.673 346.748 346.673 346.748H303.199C303.199 346.748 300.691 384.533 309.885 452.301C317.452 508.05 329.496 603.441 329.496 603.441H399.627C399.627 603.441 363.325 508.05 354.486 452.301Z" fill="#404040"/>
<path d="M354.656 337.241H221.062C218.616 337.241 216.632 339.226 216.632 341.675V342.314C216.632 344.763 218.616 346.748 221.062 346.748H354.656C357.102 346.748 359.085 344.763 359.085 342.314V341.675C359.085 339.226 357.102 337.241 354.656 337.241Z" fill="#404040"/>
<path d="M321.706 401.159L241.105 401.112C238.598 401.112 238.593 405.011 241.105 405.016L321.706 405.064C324.213 405.056 324.217 401.159 321.706 401.159Z" fill="#404040"/>
<path d="M355.615 400.906L333.516 400.382C331.008 400.322 331.009 404.223 333.516 404.286L355.615 404.809C358.123 404.865 358.122 400.965 355.615 400.906Z" fill="#404040"/>
<path d="M272.275 472.963C250.603 472.669 228.931 472.721 207.259 473.118C204.755 473.165 204.747 477.064 207.259 477.022C228.931 476.625 250.603 476.573 272.275 476.867C274.783 476.901 274.785 472.997 272.275 472.963Z" fill="#404040"/>
<path d="M367.73 472.732L283.714 472.823C281.208 472.823 281.203 476.727 283.714 476.727L367.73 476.635C370.237 476.63 370.241 472.729 367.73 472.732Z" fill="#404040"/>
<g style="mix-blend-mode:overlay" opacity="0.2">
<path d="M413.265 603.443C413.265 603.443 393.355 556.816 377.985 509.701C355.564 557.667 308.589 519.079 263.021 524.826C235.661 528.276 201.697 548.262 178.135 564.453C169.338 587.315 162.451 603.443 162.451 603.443H413.265Z" fill="#404040"/>
</g>
<path d="M505.162 199.296C495.948 192.17 485.126 191.868 473.768 194.579C466.947 196.207 460.139 198.689 453.001 198.69C445.466 198.69 438.981 194.815 431.568 194.228C418.9 193.224 408.128 200.029 400.026 208.224C397.777 210.5 395.361 213.407 392.163 214.543C387.247 216.293 385.133 213.625 381.366 211.88C377.433 210.056 373.732 210.392 369.815 212.195C363.248 215.219 359.023 219.899 350.958 219C344.709 218.307 339.412 216.76 333.08 218.149C319.247 221.184 310.421 232.244 305.691 243.75C304.667 246.24 304.131 249.244 302.405 251.415C298.541 256.283 293.284 254.334 288.219 256.316C283.707 258.083 281.346 262.086 279.955 266.142C279.104 268.623 278.755 271.217 277.923 273.702C277.246 275.721 276.636 277.16 275.049 278.667C272.685 280.917 269.708 280.786 266.596 281.534C261.687 282.709 257.645 286.126 255.931 290.466C253.669 296.191 257.085 301.695 255.256 307.533C255.145 307.883 255.05 308.234 254.962 308.583C253.089 312.188 253.572 316.614 257.525 319.807C265.679 326.375 274.975 317.933 282.839 315.637C290.491 313.406 295.782 318.993 303.033 319.438C307.193 319.693 310.603 318.118 313.68 315.681C318.008 312.253 321.146 307.308 327.035 305.893C333.832 304.26 341.193 306.981 347.903 307.747C352.102 308.227 356.371 308.245 360.324 306.659C365.328 304.651 368.148 300.482 371.758 296.984C377.869 291.062 383.306 292.988 390.722 295.002C396.141 296.472 401.137 296.34 406.053 293.544C410.838 290.823 412.576 286.953 415.848 283.122C422.234 275.643 432.047 281.854 440.027 282.601C452.104 283.732 463.802 277.784 471.247 269.378C474.942 265.206 477.801 260.482 480.017 255.541C481.571 252.083 482.654 246.068 486.54 244.368C489.167 243.219 492.669 243.587 495.509 243.141C506.053 241.468 516.04 234.953 517.369 224.755C518.6 215.304 512.917 205.293 505.162 199.296Z" fill="#404040"/>
</g>
<circle opacity="0.2" cx="824" cy="270" r="270" fill="#4AA29A"/>
<circle cx="824" cy="270" r="243" fill="#89BDB9"/>
<mask id="mask0" mask-type="alpha" maskUnits="userSpaceOnUse" x="581" y="27" width="487" height="486">
<circle cx="824.001" cy="270" r="243" fill="#936A83"/>
</mask>
<g mask="url(#mask0)">
<g clip-path="url(#clip0)">
<path opacity="0.1" d="M1017.58 381.8C1017.58 381.8 1056.78 318.585 1022.6 277.536C975.636 221.12 980.633 179.052 897.882 160.74C815.131 142.428 768.628 204.529 718.687 214.556C651.253 228.095 624.637 262.874 619.724 303.1C614.407 346.635 633.207 381.8 633.207 381.8H1017.58Z" fill="#34726C"/>
<path d="M763.268 306.948C754.463 249.819 756.864 217.967 756.864 217.967H660.447C660.447 217.967 662.849 249.819 654.044 306.952C646.799 353.948 617.043 434.362 617.043 434.362H800.267C800.267 434.362 770.513 353.944 763.268 306.948Z" fill="#4AA29A"/>
<path d="M660.728 226.426C660.757 228.946 660.756 232.014 660.688 235.62H756.622C756.555 232.014 756.553 228.946 756.582 226.426H660.728Z" fill="#F3B36A"/>
<path d="M750.521 345.961C743.951 311.636 740.435 276.796 740.015 241.849C740.001 240.635 738.117 240.689 738.132 241.903C738.564 277.018 742.107 312.026 748.72 346.514C748.948 347.702 750.749 347.144 750.521 345.961Z" fill="#71D3CA"/>
<path d="M676.385 225.981C675.904 255.132 673.379 284.213 668.828 313.01C668.665 314.045 670.036 314.488 670.2 313.448C674.779 284.505 677.321 255.277 677.808 225.978C677.826 224.922 676.402 224.922 676.385 225.981Z" fill="#71D3CA"/>
<path d="M660.977 353.675C657.756 370.88 654.03 387.939 649.797 404.851C649.542 405.869 650.915 406.304 651.169 405.288C655.402 388.378 659.128 371.32 662.346 354.114C662.542 353.08 661.171 352.64 660.977 353.675Z" fill="#71D3CA"/>
<path d="M700.36 296.259C699.832 328.832 699.304 361.406 698.776 393.98C698.759 395.039 700.182 395.039 700.199 393.98C700.728 361.406 701.256 328.832 701.782 296.259C701.8 295.2 700.377 295.2 700.36 296.259Z" fill="#71D3CA"/>
<g style="mix-blend-mode:overlay" opacity="0.2">
<path d="M757.326 306.948C749.478 249.819 751.618 217.967 751.618 217.967H719.861C719.861 217.967 718.029 249.819 724.745 306.952C730.273 353.948 739.072 434.362 739.072 434.362H790.304C790.304 434.362 763.784 353.944 757.326 306.948Z" fill="black"/>
</g>
<path d="M757.211 209.953H660.098C658.178 209.953 656.622 211.511 656.622 213.433V214.488C656.622 216.41 658.178 217.967 660.098 217.967H757.211C759.13 217.967 760.687 216.41 760.687 214.488V213.433C760.687 211.511 759.13 209.953 757.211 209.953Z" fill="#9CF9F0"/>
<path d="M702.41 234.872C702.325 233.668 700.44 233.659 700.526 234.872C701.559 249.468 701.471 264.122 700.262 278.704C700.162 279.913 702.046 279.907 702.146 278.704C703.355 264.122 703.443 249.468 702.41 234.872Z" fill="#71D3CA"/>
<path d="M708.602 248.551C692.163 248.742 675.735 248.319 659.32 247.282C658.109 247.205 658.114 249.091 659.32 249.168C675.727 250.205 692.154 250.628 708.602 250.438C709.813 250.423 709.817 248.537 708.602 248.551Z" fill="#5FBAB2"/>
<path d="M757.587 248.54C743.497 248.238 729.406 248.227 715.314 248.505C714.104 248.529 714.1 250.416 715.314 250.391C729.405 250.112 743.495 250.124 757.587 250.425C758.8 250.451 758.8 248.566 757.587 248.54Z" fill="#5FBAB2"/>
<path d="M684.693 318.932C673.651 318.045 662.569 317.752 651.495 318.055C650.285 318.088 650.28 319.974 651.495 319.941C662.569 319.638 673.651 319.931 684.693 320.818C685.902 320.915 685.895 319.029 684.693 318.932Z" fill="#5FBAB2"/>
<path d="M728.748 318.95C716.279 319.772 703.771 319.824 691.296 319.107C690.084 319.038 690.089 320.923 691.296 320.993C703.771 321.71 716.279 321.657 728.748 320.835C729.952 320.756 729.96 318.87 728.748 318.95Z" fill="#5FBAB2"/>
<path d="M766.555 317.043C756.991 318.086 747.367 318.494 737.748 318.265C736.535 318.236 736.536 320.122 737.748 320.151C747.367 320.38 756.991 319.972 766.555 318.928C767.745 318.799 767.761 316.911 766.555 317.043Z" fill="#5FBAB2"/>
<path opacity="0.5" d="M690.939 211.127C685.705 211.14 680.472 211.17 675.239 211.216C670.518 211.258 665.587 210.919 660.919 211.711C659.727 211.913 660.232 213.731 661.42 213.53C666.283 212.705 671.526 213.133 676.446 213.091C681.276 213.05 686.107 213.023 690.939 213.009C692.151 213.005 692.154 211.12 690.939 211.127Z" fill="white"/>
<path opacity="0.5" d="M716.02 210.702L696.504 210.895C695.292 210.908 695.289 212.794 696.504 212.782L716.02 212.588C717.231 212.576 717.235 210.69 716.02 210.702Z" fill="white"/>
<g style="mix-blend-mode:overlay" opacity="0.2">
<path d="M688.237 309.953C675.496 313.049 661.013 324.539 647.33 338.575C635.993 383.149 617.043 434.358 617.043 434.358H800.267C800.267 434.358 775.603 367.711 765.721 320.306C745.314 336.042 716.448 303.104 688.237 309.953Z" fill="black"/>
</g>
<path d="M868.531 137.544C866.903 131.165 860.775 125.112 854.612 121.953C851.279 120.242 847.987 119.888 844.223 120.058C840.459 120.227 837.818 119.928 835.302 116.961C834.326 115.807 833.512 114.531 832.409 113.463C826.881 108.12 818.996 111.34 812.038 110.816C806.953 110.435 802.156 108.443 797.186 107.525C792.638 106.687 787.968 106.398 783.353 106.925C775.833 107.785 768.564 110.804 763.573 116.083C761.16 118.634 759.881 122.168 757.181 124.462C752.847 128.144 746.647 125.623 741.449 126.293C732.043 127.505 729.041 134.167 725.169 140.916C723.733 143.42 722.177 145.342 719.151 146.399C716.943 147.169 714.474 147.173 712.241 147.908C709.009 148.968 706.38 151.005 704.439 153.552C698.732 161.049 703.222 170.257 698.325 177.717C695.824 181.525 694.174 189.51 703.052 193.118C705.232 194.004 707.389 193.851 709.476 192.896C713.812 190.91 714.977 187.291 720.534 189.922C726.35 192.675 732.418 192.285 736.753 187.298C737.798 186.096 738.475 184.826 739.13 183.426C740.319 180.886 741.129 179.579 743.674 177.99C746.618 176.15 748.958 174.236 751.426 171.868C754.858 168.576 758.322 166.088 763.678 167.334C767.804 168.294 771.39 170.682 775.31 172.134C782.25 174.704 789.097 173.491 794.78 169.172C799.082 165.902 801.819 163.839 807.678 165.483C811.688 166.607 815.403 167.579 819.652 167.347C823.326 167.153 826.932 166.281 830.29 164.775C834.234 162.99 836.834 159.777 840.57 157.804C845.194 155.359 847.657 158.752 852.067 158.683C855.293 158.633 858.29 156.897 860.645 155.043C866.147 150.711 870.255 144.308 868.531 137.544Z" fill="#79ADA9"/>
<path d="M983.55 267.897C971.35 199.303 974.677 161.058 974.677 161.058H841.087C841.087 161.058 844.414 199.303 832.214 267.897C822.178 324.324 780.947 420.877 780.947 420.877H1034.82C1034.82 420.877 993.586 324.324 983.55 267.897Z" fill="#71D3CA"/>
<path d="M975.665 207.691C975.228 202.159 974.915 197.097 974.7 192.517H841.061C840.844 197.097 840.532 202.163 840.096 207.691H975.665Z" fill="#4AA29A"/>
<path d="M986.421 281.715C985.299 276.91 984.33 272.283 983.55 267.897C983.202 265.937 982.874 264.01 982.546 262.1H833.219C832.896 264.01 832.563 265.938 832.214 267.897C831.434 272.283 830.465 276.91 829.343 281.715H986.421Z" fill="#4AA29A"/>
<path d="M876.826 170.679C876.154 205.738 872.653 240.686 866.355 275.181C866.13 276.423 868.028 276.956 868.257 275.706C874.591 241.039 878.117 205.917 878.797 170.682C878.822 169.407 876.85 169.407 876.826 170.679Z" fill="#5FBAB2"/>
<path d="M855.477 324.003C851.015 344.661 845.853 365.143 839.991 385.449C839.638 386.672 841.54 387.195 841.892 385.974C847.757 365.672 852.919 345.19 857.379 324.528C857.646 323.29 855.745 322.761 855.477 324.003Z" fill="#5FBAB2"/>
<path d="M903.308 255.061C902.577 294.172 901.846 333.284 901.114 372.395C901.091 373.665 903.063 373.665 903.087 372.395L905.279 255.061C905.303 253.791 903.332 253.79 903.308 255.061Z" fill="#5FBAB2"/>
<g style="mix-blend-mode:overlay" opacity="0.2">
<path d="M975.322 267.897C964.447 199.307 967.413 161.058 967.413 161.058H923.409C923.409 161.058 920.871 199.303 930.176 267.897C937.836 324.324 950.026 420.877 950.026 420.877H1021.01C1021.01 420.877 984.268 324.324 975.322 267.897Z" fill="black"/>
</g>
<path d="M975.493 151.435H840.272C837.796 151.435 835.788 153.444 835.788 155.923V156.57C835.788 159.048 837.796 161.058 840.272 161.058H975.493C977.969 161.058 979.976 159.048 979.976 156.57V155.923C979.976 153.444 977.969 151.435 975.493 151.435Z" fill="#9CF9F0"/>
<path d="M942.142 216.131L860.559 216.084C858.021 216.084 858.017 220.03 860.559 220.036L942.142 220.084C944.679 220.075 944.684 216.131 942.142 216.131Z" fill="#4AA29A"/>
<path d="M976.464 215.875L954.095 215.344C951.557 215.285 951.558 219.233 954.095 219.296L976.464 219.826C979.003 219.882 979.002 215.935 976.464 215.875Z" fill="#4AA29A"/>
<path d="M892.109 288.81C870.172 288.512 848.236 288.565 826.3 288.967C823.766 289.014 823.758 292.961 826.3 292.918C848.236 292.516 870.172 292.464 892.109 292.761C894.648 292.796 894.649 288.845 892.109 288.81Z" fill="#4AA29A"/>
<path d="M988.726 288.577L903.687 288.669C901.15 288.669 901.146 292.62 903.687 292.62L988.726 292.528C991.264 292.522 991.268 288.574 988.726 288.577Z" fill="#4AA29A"/>
<g style="mix-blend-mode:overlay" opacity="0.2">
<path d="M1034.82 420.879C1034.82 420.879 1014.66 373.684 999.107 325.995C976.412 374.545 928.865 335.487 882.742 341.304C855.049 344.796 820.671 365.026 796.822 381.414C787.917 404.554 780.947 420.879 780.947 420.879H1034.82Z" fill="black"/>
</g>
<path d="M1127.83 11.8092C1118.51 4.59675 1107.55 4.29077 1096.06 7.0344C1089.15 8.68284 1082.26 11.195 1075.04 11.1961C1067.41 11.1961 1060.85 7.27377 1053.34 6.67988C1040.52 5.66372 1029.62 12.551 1021.42 20.8463C1019.14 23.1496 1016.69 26.0919 1013.46 27.2425C1008.48 29.0128 1006.34 26.3132 1002.53 24.5462C998.548 22.7002 994.801 23.0401 990.837 24.8658C984.189 27.9267 979.914 32.6631 971.75 31.7531C965.426 31.0519 960.064 29.4859 953.654 30.8916C939.653 33.9638 930.72 45.1585 925.932 56.8048C924.895 59.3249 924.353 62.3655 922.606 64.5627C918.695 69.4899 913.373 67.5174 908.247 69.5238C903.68 71.3122 901.29 75.3644 899.882 79.4697C899.021 81.9808 898.667 84.6059 897.825 87.1214C897.14 89.165 896.522 90.6215 894.916 92.1469C892.524 94.4242 889.511 94.2921 886.36 95.0486C881.391 96.2386 877.301 99.697 875.566 104.09C873.276 109.885 876.733 115.455 874.882 121.365C874.77 121.719 874.674 122.074 874.585 122.427C872.689 126.077 873.178 130.557 877.179 133.788C885.432 140.436 894.842 131.891 902.801 129.568C910.547 127.309 915.902 132.964 923.241 133.414C927.452 133.673 930.903 132.079 934.019 129.612C938.399 126.142 941.575 121.137 947.536 119.705C954.416 118.052 961.866 120.806 968.658 121.582C972.908 122.067 977.23 122.085 981.23 120.48C986.295 118.447 989.15 114.228 992.804 110.687C998.989 104.693 1004.49 106.643 1012 108.681C1017.48 110.169 1022.54 110.036 1027.52 107.205C1032.36 104.451 1034.12 100.534 1037.43 96.6564C1043.89 89.086 1053.83 95.3727 1061.9 96.1291C1074.13 97.274 1085.97 91.2538 1093.5 82.7452C1097.24 78.5225 1100.14 73.7409 1102.38 68.7391C1103.95 65.239 1105.05 59.151 1108.98 57.4303C1111.64 56.2674 1115.19 56.64 1118.06 56.1884C1128.73 54.4948 1138.84 47.901 1140.19 37.5779C1141.43 28.0125 1135.68 17.8791 1127.83 11.8092Z" fill="#79ADA9"/>
<path d="M947.103 250.273H911.76V515.702H947.103V250.273Z" fill="#FFE6D6"/>
<path d="M947.103 264.369H911.76V282.713H947.103V264.369Z" fill="#F3B36A"/>
<path d="M947.103 287.802H911.76V306.146H947.103V287.802Z" fill="#F3B36A"/>
<g style="mix-blend-mode:overlay" opacity="0.5">
<path d="M943.177 250.273H932.5V515.702H943.177V250.273Z" fill="black"/>
</g>
<path d="M949.115 254.793H909.747V258.011H949.115V254.793Z" fill="#C9AA96"/>
<path d="M949.115 310.803H909.747V314.02H949.115V310.803Z" fill="#C9AA96"/>
<path d="M949.115 327.506H909.747V330.724H949.115V327.506Z" fill="#C9AA96"/>
<path d="M939.234 237.662H918.472V250.272H939.234V237.662Z" fill="#66564C"/>
<path d="M927.767 250.917C923.354 251.167 918.939 251.23 914.522 251.107C912.732 251.056 912.734 253.839 914.522 253.889C918.941 254.013 923.356 253.95 927.767 253.699C929.546 253.598 929.558 250.815 927.767 250.917Z" fill="#FFF6F0"/>
<path d="M917.559 262.011C917.658 260.221 914.877 260.227 914.779 262.011C914.483 267.354 914.516 272.71 914.878 278.049C914.999 279.826 917.78 279.839 917.659 278.049C917.296 272.71 917.263 267.354 917.559 262.011Z" fill="#FFF6F0"/>
<path d="M926.626 316.389C922.653 316.804 918.706 315.921 914.734 316.269C912.966 316.421 912.949 319.206 914.734 319.051C918.709 318.706 922.655 319.59 926.626 319.171C928.388 318.987 928.401 316.202 926.626 316.389Z" fill="#FFF6F0"/>
<path d="M915.764 337.307C914.571 343.181 914.359 349.212 915.138 355.156C915.368 356.907 918.15 356.929 917.917 355.156C917.148 349.463 917.326 343.681 918.444 338.046C918.792 336.297 916.113 335.549 915.764 337.307Z" fill="#FFF6F0"/>
<path d="M988.573 284.706H964.849V515.701H988.573V284.706Z" fill="#FFE6D6"/>
<path d="M988.573 296.973H964.849V304.329H988.573V296.973Z" fill="#F3B36A"/>
<path d="M988.573 308.88H964.849V316.236H988.573V308.88Z" fill="#F3B36A"/>
<path d="M982.478 272.498H970.945L967.486 284.703H985.937L982.478 272.498Z" fill="#80301A"/>
<g style="mix-blend-mode:overlay" opacity="0.5">
<path d="M985.936 284.706H978.771V515.701H985.936V284.706Z" fill="black"/>
</g>
<path d="M980.81 286.209C976.278 286.285 971.748 286.265 967.218 286.149C965.521 286.106 965.522 288.745 967.218 288.788C971.748 288.904 976.279 288.923 980.81 288.847C982.505 288.82 982.509 286.18 980.81 286.209Z" fill="#FFFAF7"/>
<path d="M970.004 313.682C970.079 311.984 967.443 311.988 967.369 313.682C967.027 321.52 967.003 329.356 967.297 337.19C967.361 338.882 969.997 338.89 969.934 337.19C969.639 329.35 969.663 321.514 970.004 313.682Z" fill="#FFFAF7"/>
<path d="M1001.36 354.846H879.189V389.94H1001.36V354.846Z" fill="#34726C"/>
<path d="M840.895 364.989V356.002H843.461V358.313H846.155V347.656H853.978V353.819H858.339V340.209H864.366V364.989H840.895Z" fill="#34726C"/>
<path d="M894.336 350.864H888.938V358.824H894.336V350.864Z" fill="#34726C"/>
<path d="M908.101 350.864H902.703V358.824H908.101V350.864Z" fill="#34726C"/>
<path d="M1006.62 363.062H797.032V389.938H1006.62V363.062Z" fill="#4AA29A"/>
<path d="M884.026 366.798C856.952 367.24 829.875 367.332 802.795 367.075C801.034 367.058 801.033 369.797 802.795 369.814C829.872 370.071 856.949 369.979 884.026 369.536C885.784 369.508 885.79 366.769 884.026 366.798Z" fill="#34726C"/>
<path d="M922.077 366.795L894.026 366.807C892.264 366.807 892.367 369.546 894.127 369.545L922.178 369.533C923.94 369.532 923.837 366.795 922.077 366.795Z" fill="#34726C"/>
<path d="M838.149 376.83C838.149 375.903 838.19 375.008 837.242 374.501C836.103 373.89 834.014 374.283 832.769 374.26C830.449 374.214 828.131 374.099 825.815 373.937C825.046 373.883 824.614 374.378 824.52 374.961C824.36 375.186 824.273 375.454 824.27 375.729C824.233 377.18 823.773 379.802 824.658 381.082C825.358 382.094 826.773 381.84 827.839 381.839C829.797 381.834 831.756 381.807 833.715 381.757C834.875 381.727 836.886 382.065 837.727 380.995C838.5 380.013 838.151 377.984 838.149 376.83ZM831.197 379.069C829.932 379.088 828.33 379.318 826.973 379.189C826.869 378.415 826.91 377.546 826.957 376.742C829.183 376.883 831.41 376.982 833.64 377.014C834.169 377.021 834.833 377.127 835.354 377.028C835.354 377.655 835.366 378.463 835.364 379.053C834.023 379.241 832.455 379.051 831.197 379.069Z" fill="#34726C"/>
<path d="M861.578 376.83C861.578 375.903 861.618 375.008 860.671 374.501C859.531 373.89 857.442 374.283 856.198 374.26C853.877 374.214 851.559 374.099 849.243 373.937C848.473 373.883 848.042 374.378 847.948 374.961C847.788 375.186 847.701 375.454 847.698 375.729C847.662 377.18 847.201 379.802 848.086 381.082C848.788 382.094 850.202 381.84 851.267 381.839C853.226 381.834 855.185 381.807 857.144 381.757C858.303 381.727 860.314 382.065 861.155 380.995C861.928 380.013 861.58 377.984 861.578 376.83ZM854.625 379.069C853.361 379.088 851.758 379.318 850.401 379.189C850.299 378.415 850.339 377.546 850.385 376.742C852.611 376.883 854.838 376.982 857.069 377.014C857.597 377.021 858.261 377.127 858.783 377.028C858.783 377.655 858.795 378.463 858.792 379.053C857.452 379.241 855.882 379.051 854.625 379.069Z" fill="#34726C"/>
<path d="M886.174 376.83C886.174 375.903 886.215 375.008 885.267 374.501C884.127 373.89 882.04 374.283 880.795 374.26C878.474 374.214 876.157 374.099 873.841 373.937C873.071 373.883 872.64 374.378 872.545 374.961C872.385 375.185 872.298 375.454 872.296 375.729C872.259 377.18 871.798 379.802 872.683 381.082C873.384 382.094 874.798 381.84 875.864 381.839C877.822 381.834 879.781 381.807 881.741 381.757C882.901 381.727 884.91 382.065 885.752 380.995C886.526 380.013 886.176 377.984 886.174 376.83ZM879.222 379.069C877.957 379.088 876.356 379.318 874.999 379.189C874.895 378.415 874.936 377.546 874.982 376.742C877.208 376.883 879.436 376.982 881.665 377.014C882.193 377.021 882.858 377.127 883.379 377.028C883.379 377.655 883.391 378.463 883.39 379.053C882.048 379.241 880.476 379.051 879.222 379.069Z" fill="#34726C"/>
<path d="M909.602 376.83C909.602 375.903 909.643 375.008 908.695 374.501C907.555 373.89 905.468 374.283 904.223 374.26C901.902 374.214 899.585 374.099 897.269 373.937C896.499 373.883 896.068 374.378 895.974 374.961C895.813 375.185 895.726 375.454 895.724 375.729C895.687 377.18 895.226 379.802 896.111 381.082C896.812 382.094 898.227 381.84 899.292 381.839C901.252 381.834 903.211 381.807 905.169 381.757C906.329 381.727 908.338 382.065 909.18 380.995C909.954 380.013 909.604 377.984 909.602 376.83ZM902.65 379.069C901.385 379.088 899.784 379.318 898.427 379.189C898.323 378.415 898.364 377.546 898.41 376.742C900.636 376.883 902.864 376.982 905.094 377.014C905.621 377.021 906.286 377.127 906.807 377.028C906.807 377.655 906.819 378.463 906.818 379.053C905.476 379.241 903.907 379.051 902.65 379.069Z" fill="#34726C"/>
<path d="M1025.31 504.664H634.722V515.701H1025.31V504.664Z" fill="#34726C"/>
<path d="M1016.33 393.365H643.703V504.665H1016.33V393.365Z" fill="#459991"/>
<path d="M1016.33 393.365H981.069V504.665H1016.33V393.365Z" fill="#3C857E"/>
<path d="M1016.33 393.365H643.703V397.817H1016.33V393.365Z" fill="#34726C"/>
<path d="M1020.43 386.518H639.605V393.365H1020.43V386.518Z" fill="#3C857E"/>
<path d="M679.046 426.289H666.277C665.567 426.288 664.886 426.005 664.383 425.502C663.881 424.999 663.598 424.317 663.598 423.606V414.364C663.598 413.653 663.881 412.971 664.383 412.468C664.886 411.966 665.567 411.683 666.277 411.682H679.046C679.757 411.682 680.438 411.965 680.941 412.468C681.443 412.971 681.726 413.653 681.726 414.364V423.606C681.726 424.317 681.443 424.999 680.941 425.502C680.438 426.005 679.757 426.288 679.046 426.289ZM678.99 414.364L666.28 414.421L666.336 423.606L678.99 423.55V414.364Z" fill="#5FBAB2"/>
<path d="M709.371 413.051H693.98V424.919H709.371V413.051Z" fill="#34726C"/>
<path d="M738.386 413.051H722.994V424.919H738.386V413.051Z" fill="#34726C"/>
<path d="M767.4 413.051H752.009V424.919H767.4V413.051Z" fill="#34726C"/>
<path d="M796.415 413.051H781.023V424.919H796.415V413.051Z" fill="#34726C"/>
<path d="M824.117 426.289H811.349C810.639 426.288 809.958 426.005 809.456 425.502C808.953 424.999 808.671 424.317 808.67 423.606V414.364C808.671 413.653 808.953 412.971 809.456 412.468C809.958 411.966 810.639 411.683 811.349 411.682H824.117C824.828 411.683 825.509 411.966 826.011 412.468C826.513 412.971 826.795 413.653 826.796 414.364V423.606C826.795 424.317 826.513 424.999 826.011 425.502C825.509 426.005 824.828 426.288 824.117 426.289ZM824.061 414.364L811.349 414.421L811.406 423.606L824.061 423.55V414.364Z" fill="#5FBAB2"/>
<path d="M853.132 426.289H840.364C839.653 426.288 838.972 426.005 838.47 425.502C837.967 424.999 837.685 424.317 837.684 423.606V414.364C837.685 413.653 837.967 412.971 838.47 412.468C838.972 411.966 839.653 411.683 840.364 411.682H853.132C853.842 411.683 854.523 411.966 855.025 412.468C855.528 412.971 855.81 413.653 855.811 414.364V423.606C855.81 424.317 855.528 424.999 855.025 425.502C854.523 426.005 853.842 426.288 853.132 426.289ZM853.075 414.364L840.364 414.421L840.42 423.606L853.075 423.55V414.364Z" fill="#5FBAB2"/>
<path d="M883.458 413.051H868.066V424.919H883.458V413.051Z" fill="#34726C"/>
<path d="M912.473 413.051H897.082V424.919H912.473V413.051Z" fill="#34726C"/>
<path d="M940.172 426.289H927.404C926.693 426.288 926.012 426.005 925.51 425.502C925.007 424.999 924.725 424.317 924.724 423.606V414.364C924.725 413.653 925.007 412.971 925.51 412.468C926.012 411.966 926.693 411.683 927.404 411.682H940.172C940.882 411.683 941.563 411.966 942.065 412.468C942.568 412.971 942.85 413.653 942.851 414.364V423.606C942.85 424.317 942.568 424.999 942.065 425.502C941.563 426.005 940.882 426.288 940.172 426.289ZM940.115 414.364L927.404 414.421L927.46 423.606L940.115 423.55V414.364Z" fill="#5FBAB2"/>
<path d="M970.501 413.051H955.11V424.919H970.501V413.051Z" fill="#34726C"/>
<path d="M679.046 466.16H666.277C665.567 466.159 664.886 465.876 664.384 465.374C663.881 464.871 663.598 464.189 663.598 463.478V454.236C663.598 453.525 663.881 452.843 664.384 452.341C664.886 451.838 665.567 451.555 666.277 451.555H679.046C679.757 451.555 680.438 451.838 680.941 452.34C681.443 452.843 681.726 453.525 681.726 454.236V463.478C681.726 464.189 681.443 464.871 680.941 465.374C680.438 465.877 679.757 466.159 679.046 466.16ZM678.99 454.236L666.28 454.293L666.336 463.478L678.99 463.422V454.236Z" fill="#5FBAB2"/>
<path d="M709.371 452.924H693.98V464.792H709.371V452.924Z" fill="#34726C"/>
<path d="M737.074 466.16H724.306C723.596 466.159 722.915 465.876 722.412 465.374C721.91 464.871 721.627 464.189 721.626 463.478V454.236C721.627 453.525 721.91 452.843 722.412 452.341C722.915 451.838 723.596 451.555 724.306 451.555H737.074C737.784 451.555 738.465 451.838 738.967 452.341C739.469 452.843 739.752 453.525 739.752 454.236V463.478C739.752 464.189 739.469 464.871 738.967 465.373C738.465 465.876 737.784 466.159 737.074 466.16ZM737.016 454.236L724.306 454.293L724.362 463.478L737.016 463.422V454.236Z" fill="#5FBAB2"/>
<path d="M766.087 466.16H753.321C752.61 466.159 751.929 465.876 751.427 465.374C750.925 464.871 750.642 464.189 750.641 463.478V454.236C750.642 453.525 750.925 452.843 751.427 452.341C751.929 451.838 752.61 451.555 753.321 451.555H766.087C766.798 451.555 767.479 451.838 767.982 452.34C768.484 452.843 768.767 453.525 768.767 454.236V463.478C768.767 464.189 768.484 464.871 767.982 465.374C767.479 465.877 766.798 466.159 766.087 466.16ZM766.032 454.236L753.321 454.293L753.377 463.478L766.032 463.422V454.236Z" fill="#5FBAB2"/>
<path d="M796.415 452.924H781.023V464.792H796.415V452.924Z" fill="#34726C"/>
<path d="M824.117 466.16H811.349C810.639 466.159 809.958 465.876 809.456 465.374C808.953 464.871 808.671 464.189 808.67 463.478V454.236C808.671 453.525 808.953 452.843 809.456 452.341C809.958 451.838 810.639 451.555 811.349 451.555H824.117C824.828 451.555 825.509 451.838 826.011 452.341C826.513 452.843 826.795 453.525 826.796 454.236V463.478C826.795 464.189 826.513 464.871 826.011 465.373C825.509 465.876 824.828 466.159 824.117 466.16ZM824.061 454.236L811.349 454.293L811.406 463.478L824.061 463.422V454.236Z" fill="#5FBAB2"/>
<path d="M854.444 452.924H839.052V464.792H854.444V452.924Z" fill="#34726C"/>
<path d="M882.147 466.16H869.379C868.668 466.159 867.987 465.876 867.485 465.374C866.983 464.871 866.7 464.189 866.699 463.478V454.236C866.7 453.525 866.983 452.843 867.485 452.341C867.987 451.838 868.668 451.555 869.379 451.555H882.147C882.857 451.555 883.538 451.838 884.04 452.341C884.542 452.843 884.825 453.525 884.825 454.236V463.478C884.825 464.189 884.542 464.871 884.04 465.373C883.538 465.876 882.857 466.159 882.147 466.16ZM882.09 454.236L869.379 454.293L869.435 463.478L882.09 463.422V454.236Z" fill="#5FBAB2"/>
<path d="M911.161 466.16H898.393C897.683 466.159 897.001 465.876 896.499 465.374C895.997 464.871 895.714 464.189 895.713 463.478V454.236C895.714 453.525 895.997 452.843 896.499 452.341C897.001 451.838 897.683 451.555 898.393 451.555H911.161C911.871 451.555 912.552 451.838 913.054 452.341C913.556 452.843 913.839 453.525 913.839 454.236V463.478C913.839 464.189 913.556 464.871 913.054 465.373C912.552 465.876 911.871 466.159 911.161 466.16ZM911.104 454.236L898.393 454.293L898.449 463.478L911.104 463.422V454.236Z" fill="#5FBAB2"/>
<path d="M940.172 466.16H927.404C926.693 466.159 926.012 465.876 925.51 465.374C925.007 464.871 924.725 464.189 924.724 463.478V454.236C924.725 453.525 925.007 452.843 925.51 452.341C926.012 451.838 926.693 451.555 927.404 451.555H940.172C940.882 451.555 941.563 451.838 942.065 452.341C942.568 452.843 942.85 453.525 942.851 454.236V463.478C942.85 464.189 942.568 464.871 942.065 465.374C941.563 465.876 940.882 466.159 940.172 466.16ZM940.115 454.236L927.404 454.293L927.46 463.478L940.115 463.422V454.236Z" fill="#5FBAB2"/>
<path d="M970.501 452.924H955.11V464.792H970.501V452.924Z" fill="#34726C"/>
<path d="M687.409 504.535L680.356 504.379V492.796H664.965V504.037L634.697 503.365C632.936 503.326 632.936 506.065 634.697 506.105L687.407 507.274C689.169 507.314 689.169 504.575 687.409 504.535Z" fill="#34726C"/>
<path d="M708.059 506.029H695.291C694.581 506.028 693.9 505.746 693.397 505.243C692.895 504.74 692.612 504.058 692.612 503.346V494.105C692.612 493.393 692.895 492.711 693.397 492.208C693.9 491.705 694.581 491.423 695.291 491.422H708.059C708.77 491.423 709.451 491.706 709.953 492.209C710.455 492.712 710.737 493.393 710.738 494.105V503.346C710.737 504.058 710.455 504.739 709.953 505.242C709.451 505.745 708.77 506.028 708.059 506.029ZM708.003 494.105L695.291 494.161L695.348 503.346L708.003 503.29V494.105Z" fill="#5FBAB2"/>
<path d="M771.524 504.217C770.148 504.258 768.774 504.27 767.399 504.27V492.796H752.009V503.761C747.466 503.53 742.925 503.303 738.385 503.243V492.796H722.994V503.964C722.754 503.994 722.502 504.015 722.257 504.047C720.536 504.274 720.513 507.016 722.257 506.786C738.652 504.622 755.081 507.454 771.524 506.956C773.28 506.902 773.288 504.163 771.524 504.217Z" fill="#34726C"/>
<path d="M801.259 492.796H776.179V515.7H801.259V492.796Z" fill="#34726C"/>
<path d="M825.429 492.796H810.038V504.664H825.429V492.796Z" fill="#34726C"/>
<path d="M853.132 506.029H840.364C839.653 506.028 838.972 505.745 838.47 505.242C837.967 504.739 837.685 504.058 837.684 503.346V494.105C837.685 493.393 837.967 492.712 838.47 492.209C838.972 491.706 839.653 491.423 840.364 491.422H853.132C853.842 491.423 854.523 491.706 855.025 492.209C855.528 492.712 855.81 493.393 855.811 494.105V503.346C855.81 504.058 855.528 504.739 855.025 505.242C854.523 505.745 853.842 506.028 853.132 506.029ZM853.075 494.105L840.364 494.161L840.42 503.346L853.075 503.29V494.105Z" fill="#5FBAB2"/>
<path d="M883.458 492.796H868.066V504.664H883.458V492.796Z" fill="#34726C"/>
<path d="M912.473 492.796H897.082V504.664H912.473V492.796Z" fill="#34726C"/>
<path d="M940.172 506.029H927.404C926.693 506.028 926.012 505.745 925.51 505.242C925.007 504.739 924.725 504.058 924.724 503.346V494.105C924.725 493.393 925.007 492.712 925.51 492.209C926.012 491.706 926.693 491.423 927.404 491.422H940.172C940.882 491.423 941.563 491.706 942.065 492.209C942.568 492.712 942.85 493.393 942.851 494.105V503.346C942.85 504.058 942.568 504.739 942.065 505.242C941.563 505.745 940.882 506.028 940.172 506.029ZM940.115 494.105L927.404 494.161L927.46 503.346L940.115 503.29V494.105Z" fill="#5FBAB2"/>
<path d="M969.19 506.029H956.422C955.712 506.028 955.031 505.745 954.528 505.242C954.026 504.739 953.743 504.058 953.743 503.346V494.105C953.743 493.393 954.026 492.712 954.528 492.209C955.031 491.706 955.712 491.423 956.422 491.422H969.19C969.9 491.423 970.581 491.706 971.084 492.209C971.586 492.712 971.868 493.393 971.869 494.105V503.346C971.868 504.058 971.586 504.739 971.084 505.242C970.581 505.745 969.9 506.028 969.19 506.029ZM969.134 494.105L956.422 494.161L956.479 503.346L969.134 503.29V494.105Z" fill="#5FBAB2"/>
<path d="M775.52 432.336C735.458 432.696 695.397 432.576 655.337 431.975C653.575 431.948 653.576 433.779 655.337 433.799C695.392 434.402 735.453 434.522 775.52 434.16C777.278 434.144 777.283 432.322 775.52 432.336Z" fill="#5FBAB2"/>
<path d="M936.35 432.209C889.497 433.041 842.64 432.894 795.78 431.767C794.019 431.725 794.021 433.549 795.78 433.592C842.617 434.718 889.474 434.865 936.35 434.033C938.107 434.003 938.115 432.177 936.35 432.209Z" fill="#5FBAB2"/>
<path d="M972.547 432.047C964.955 431.991 957.374 432.132 949.803 432.47C948.055 432.549 948.042 434.373 949.803 434.294C957.378 433.955 964.959 433.814 972.547 433.871C974.308 433.883 974.309 432.06 972.547 432.047Z" fill="#5FBAB2"/>
<path d="M741.663 472.922C718.922 472.742 696.177 472.752 673.428 472.951C671.67 472.966 671.665 474.79 673.428 474.776C696.17 474.578 718.915 474.568 741.663 474.746C743.427 474.759 743.427 472.935 741.663 472.922Z" fill="#5FBAB2"/>
<path d="M911.986 472.134C863.422 471.927 814.856 471.858 766.29 471.926C764.529 471.926 764.526 473.753 766.29 473.75C814.856 473.682 863.422 473.752 911.986 473.958C913.747 473.966 913.747 472.141 911.986 472.134Z" fill="#5FBAB2"/>
<path d="M981.86 403.805C981.769 402.051 979.033 402.04 979.123 403.805C980.465 430.038 980.641 456.288 979.651 482.556C979.585 484.319 982.321 484.315 982.387 482.556C983.377 456.307 983.201 430.057 981.86 403.805Z" fill="#34726C"/>
<path d="M982.818 490.676C982.963 488.92 980.227 488.929 980.082 490.676C979.678 495.544 980.802 500.343 980.626 505.21C980.563 506.973 983.299 506.97 983.362 505.21C983.532 500.343 982.414 495.544 982.818 490.676Z" fill="#34726C"/>
</g>
</g>
<defs>
<clipPath id="clip0">
<rect width="612.9" height="477.9" fill="white" transform="translate(581.001 35.0996)"/>
</clipPath>
</defs>
</svg>
