<svg width="314" height="220" viewBox="0 0 314 220" fill="none" xmlns="http://www.w3.org/2000/svg">
<g opacity="0.1">
<path d="M55.9641 171.033C52.5942 149.168 53.5133 136.978 53.5133 136.978H16.6121C16.6121 136.978 17.5311 149.168 14.1612 171.034C11.3885 189.021 0 219.797 0 219.797H70.1247C70.1247 219.797 58.7368 189.019 55.9641 171.033Z" fill="#404040"/>
<path d="M16.7196 140.214C16.7308 141.179 16.7302 142.353 16.7043 143.733H53.4205C53.395 142.353 53.394 141.179 53.4053 140.214H16.7196Z" fill="#404040"/>
<path d="M51.0857 185.964C48.5708 172.827 47.2252 159.493 47.0647 146.118C47.0591 145.653 46.3382 145.674 46.3438 146.138C46.5092 159.578 47.8653 172.976 50.3962 186.176C50.4835 186.63 51.1726 186.417 51.0857 185.964Z" fill="#404040"/>
<path d="M22.7119 140.043C22.5278 151.2 21.5614 162.33 19.8196 173.352C19.7573 173.748 20.2819 173.917 20.3448 173.519C22.0971 162.442 23.0701 151.256 23.2565 140.042C23.2633 139.638 22.7184 139.638 22.7119 140.043Z" fill="#404040"/>
<path d="M16.8149 188.915C15.5822 195.5 14.1559 202.029 12.5359 208.501C12.4384 208.891 12.964 209.058 13.0612 208.669C14.6812 202.197 16.1071 195.668 17.3389 189.083C17.414 188.688 16.889 188.519 16.8149 188.915Z" fill="#404040"/>
<path d="M31.8875 166.942C31.6856 179.408 31.4836 191.875 31.2816 204.342C31.275 204.747 31.8196 204.747 31.8261 204.342C32.0284 191.875 32.2304 179.408 32.4321 166.942C32.4386 166.536 31.894 166.536 31.8875 166.942Z" fill="#404040"/>
<g style="mix-blend-mode:overlay" opacity="0.2">
<path d="M53.6898 171.033C50.6863 149.168 51.5053 136.978 51.5053 136.978H39.3513C39.3513 136.978 38.65 149.168 41.2205 171.034C43.3362 189.021 46.7036 219.797 46.7036 219.797H66.3114C66.3114 219.797 56.1615 189.019 53.6898 171.033Z" fill="#404040"/>
</g>
<path d="M53.6461 133.91H16.4785C15.7438 133.91 15.1482 134.506 15.1482 135.242V135.646C15.1482 136.381 15.7438 136.977 16.4785 136.977H53.6461C54.3807 136.977 54.9763 136.381 54.9763 135.646V135.242C54.9763 134.506 54.3807 133.91 53.6461 133.91Z" fill="#404040"/>
<path d="M32.6723 143.448C32.6396 142.987 31.9183 142.983 31.9514 143.448C32.3467 149.034 32.3128 154.642 31.8501 160.223C31.8118 160.686 32.533 160.683 32.571 160.223C33.0339 154.642 33.0677 149.034 32.6723 143.448Z" fill="#404040"/>
<path d="M35.0421 148.682C28.7503 148.755 22.4632 148.593 16.1807 148.196C15.7171 148.167 15.719 148.889 16.1807 148.918C22.4601 149.315 28.7472 149.477 35.0421 149.404C35.5057 149.398 35.5069 148.677 35.0421 148.682Z" fill="#404040"/>
<path d="M53.7896 148.678C48.3972 148.562 43.0043 148.558 37.611 148.665C37.1477 148.674 37.1462 149.396 37.611 149.386C43.0036 149.28 48.3965 149.284 53.7896 149.4C54.2538 149.409 54.2538 148.688 53.7896 148.678Z" fill="#404040"/>
<path d="M25.8915 175.618C21.6653 175.279 17.424 175.167 13.1858 175.282C12.7229 175.295 12.721 176.017 13.1858 176.004C17.424 175.888 21.6653 176 25.8915 176.34C26.3542 176.377 26.3517 175.655 25.8915 175.618Z" fill="#404040"/>
<path d="M42.7524 175.626C37.9803 175.941 33.1933 175.961 28.4186 175.686C27.9551 175.66 27.9566 176.381 28.4186 176.408C33.1933 176.682 37.9803 176.662 42.7524 176.348C43.2132 176.317 43.2166 175.595 42.7524 175.626Z" fill="#404040"/>
<path d="M57.2224 174.896C53.5617 175.295 49.8785 175.452 46.1971 175.364C45.733 175.353 45.7333 176.075 46.1971 176.086C49.8785 176.173 53.5617 176.017 57.2224 175.618C57.6776 175.568 57.6838 174.846 57.2224 174.896Z" fill="#404040"/>
<path opacity="0.5" d="M28.2823 134.359C26.2792 134.364 24.2762 134.376 22.2734 134.393C20.4665 134.41 18.5792 134.28 16.7929 134.583C16.3365 134.66 16.5299 135.356 16.9845 135.279C18.8459 134.963 20.8522 135.127 22.7354 135.111C24.5839 135.095 26.4329 135.085 28.2823 135.08C28.7462 135.078 28.7472 134.357 28.2823 134.359Z" fill="#404040"/>
<path opacity="0.5" d="M37.8813 134.197L30.4119 134.271C29.9483 134.276 29.947 134.998 30.4119 134.993L37.8813 134.919C38.3449 134.914 38.3462 134.193 37.8813 134.197Z" fill="#404040"/>
<g style="mix-blend-mode:overlay" opacity="0.2">
<path d="M27.2479 172.182C22.3714 173.367 16.8286 177.765 11.5917 183.137C7.25288 200.196 0 219.795 0 219.795H70.1247C70.1247 219.795 60.6852 194.288 56.9028 176.145C49.0926 182.167 38.0449 169.561 27.2479 172.182Z" fill="#404040"/>
</g>
<path d="M96.2512 106.197C95.6281 103.755 93.2826 101.439 90.9239 100.23C89.6485 99.5751 88.3883 99.4398 86.9478 99.5046C85.5072 99.5695 84.4966 99.455 83.5337 98.3195C83.1598 97.8776 82.8483 97.3892 82.4261 96.9806C80.3105 94.9356 77.2926 96.1679 74.6296 95.9676C72.6835 95.8217 70.8476 95.0595 68.9456 94.708C67.2051 94.3874 65.4175 94.2767 63.6514 94.4784C60.7731 94.8075 57.9914 95.963 56.081 97.9833C55.1576 98.9595 54.6679 100.312 53.6348 101.19C51.9759 102.599 49.6029 101.634 47.6135 101.891C44.0137 102.355 42.8647 104.904 41.3827 107.488C40.8332 108.446 40.2378 109.181 39.0795 109.586C38.2347 109.881 37.2894 109.882 36.4349 110.164C35.1981 110.569 34.1918 111.349 33.4488 112.324C31.265 115.193 32.9834 118.717 31.1092 121.572C30.1518 123.03 29.5203 126.086 32.918 127.466C33.7526 127.805 34.5781 127.747 35.3766 127.382C37.0362 126.622 37.482 125.237 39.6088 126.243C41.8348 127.297 44.1573 127.148 45.8162 125.239C46.2162 124.779 46.4754 124.293 46.7262 123.757C47.1811 122.785 47.491 122.285 48.4652 121.676C49.592 120.973 50.4877 120.24 51.432 119.334C52.7454 118.074 54.0713 117.122 56.1212 117.598C57.7004 117.966 59.0727 118.88 60.5731 119.435C63.2292 120.419 65.8499 119.955 68.0247 118.302C69.6712 117.05 70.7186 116.261 72.961 116.89C74.496 117.32 75.9178 117.692 77.5438 117.603C78.9499 117.529 80.3302 117.195 81.6152 116.619C83.1246 115.936 84.12 114.706 85.5496 113.951C87.3195 113.015 88.2622 114.314 89.9501 114.287C91.1847 114.268 92.3318 113.604 93.2327 112.894C95.3387 111.236 96.911 108.786 96.2512 106.197Z" fill="#404040"/>
<path d="M279.541 161.45C274.872 135.197 276.145 120.56 276.145 120.56H225.017C225.017 120.56 226.29 135.197 221.621 161.45C217.78 183.046 202 219.999 202 219.999H299.162C299.162 219.999 283.382 183.046 279.541 161.45Z" fill="#404040"/>
<path d="M276.523 138.407C276.356 136.29 276.236 134.353 276.154 132.6H225.007C224.924 134.353 224.805 136.292 224.637 138.407H276.523Z" fill="#404040"/>
<path d="M280.64 166.739C280.21 164.9 279.84 163.129 279.541 161.45C279.408 160.7 279.282 159.963 279.157 159.231H222.006C221.882 159.963 221.755 160.701 221.621 161.45C221.323 163.129 220.952 164.9 220.522 166.739H280.64Z" fill="#404040"/>
<path d="M238.695 124.243C238.438 137.661 237.098 151.036 234.688 164.238C234.601 164.714 235.328 164.918 235.415 164.439C237.84 151.171 239.189 137.729 239.45 124.244C239.459 123.756 238.704 123.756 238.695 124.243Z" fill="#404040"/>
<path d="M230.524 182.923C228.817 190.83 226.841 198.669 224.597 206.44C224.462 206.908 225.19 207.108 225.325 206.641C227.57 198.871 229.545 191.032 231.252 183.124C231.354 182.65 230.627 182.448 230.524 182.923Z" fill="#404040"/>
<path d="M248.83 156.538C248.551 171.506 248.271 186.475 247.991 201.444C247.982 201.93 248.737 201.93 248.746 201.444L249.585 156.538C249.594 156.051 248.839 156.051 248.83 156.538Z" fill="#404040"/>
<path opacity="0.2" d="M276.392 161.45C272.23 135.199 273.365 120.56 273.365 120.56H256.524C256.524 120.56 255.552 135.197 259.114 161.45C262.045 183.046 266.711 219.999 266.711 219.999H293.878C293.878 219.999 279.816 183.046 276.392 161.45Z" fill="#404040"/>
<path d="M276.457 116.877H224.705C223.757 116.877 222.989 117.646 222.989 118.595V118.842C222.989 119.791 223.757 120.56 224.705 120.56H276.457C277.405 120.56 278.173 119.791 278.173 118.842V118.595C278.173 117.646 277.405 116.877 276.457 116.877Z" fill="#404040"/>
<path d="M263.693 141.638L232.469 141.62C231.498 141.62 231.496 143.13 232.469 143.133L263.693 143.151C264.664 143.148 264.666 141.638 263.693 141.638Z" fill="#404040"/>
<path d="M276.829 141.54L268.268 141.337C267.296 141.314 267.297 142.825 268.268 142.85L276.829 143.052C277.801 143.074 277.8 141.563 276.829 141.54Z" fill="#404040"/>
<path d="M244.544 169.454C236.148 169.341 227.753 169.361 219.357 169.514C218.388 169.533 218.385 171.043 219.357 171.027C227.753 170.873 236.148 170.853 244.544 170.967C245.516 170.98 245.516 169.468 244.544 169.454Z" fill="#404040"/>
<path d="M281.522 169.364L248.975 169.399C248.005 169.399 248.003 170.912 248.975 170.912L281.522 170.876C282.493 170.874 282.495 169.363 281.522 169.364Z" fill="#404040"/>
<g style="mix-blend-mode:overlay" opacity="0.2">
<path d="M299.162 220C299.162 220 291.449 201.937 285.495 183.686C276.809 202.267 258.612 187.318 240.959 189.545C230.36 190.881 217.203 198.624 208.076 204.896C204.668 213.752 202 220 202 220H299.162Z" fill="#404040"/>
</g>
<path d="M334.761 63.439C331.192 60.6786 327 60.5615 322.6 61.6115C319.957 62.2424 317.32 63.2039 314.555 63.2044C311.636 63.2044 309.124 61.7032 306.252 61.4759C301.345 61.087 297.172 63.7229 294.033 66.8977C293.162 67.7792 292.226 68.9053 290.987 69.3457C289.083 70.0232 288.264 68.99 286.804 68.3138C285.281 67.6072 283.847 67.7373 282.33 68.4361C279.786 69.6075 278.149 71.4203 275.025 71.072C272.604 70.8037 270.552 70.2043 268.099 70.7423C262.741 71.9181 259.321 76.2026 257.489 80.6599C257.092 81.6244 256.885 82.7881 256.216 83.629C254.719 85.5148 252.683 84.7599 250.721 85.5278C248.973 86.2123 248.058 87.7632 247.519 89.3344C247.189 90.2954 247.054 91.3001 246.732 92.2629C246.47 93.045 246.233 93.6024 245.619 94.1862C244.703 95.0578 243.55 95.0073 242.344 95.2968C240.442 95.7522 238.877 97.0758 238.213 98.7572C237.336 100.975 238.659 103.107 237.951 105.369C237.908 105.504 237.871 105.64 237.837 105.775C237.112 107.172 237.299 108.887 238.83 110.123C241.989 112.668 245.59 109.397 248.636 108.508C251.601 107.644 253.65 109.808 256.459 109.98C258.071 110.079 259.392 109.469 260.584 108.525C262.261 107.197 263.476 105.281 265.757 104.733C268.39 104.101 271.242 105.155 273.841 105.452C275.468 105.637 277.122 105.644 278.653 105.03C280.592 104.252 281.684 102.637 283.083 101.282C285.45 98.988 287.556 99.7342 290.429 100.514C292.528 101.084 294.464 101.033 296.368 99.9494C298.222 98.8955 298.895 97.396 300.162 95.9121C302.636 93.0147 306.438 95.4208 309.529 95.7103C314.207 96.1485 318.739 93.8444 321.623 90.5879C323.055 88.9718 324.162 87.1418 325.021 85.2275C325.622 83.8879 326.042 81.5579 327.548 80.8993C328.565 80.4542 329.922 80.5968 331.022 80.424C335.107 79.7758 338.976 77.2522 339.49 73.3013C339.967 69.6404 337.766 65.7621 334.761 63.439Z" fill="#404040"/>
</g>
<circle opacity="0.2" cx="154" cy="100" r="100" fill="#4AA29A"/>
<circle cx="154" cy="100" r="90" fill="#89BDB9"/>
<mask id="mask0" mask-type="alpha" maskUnits="userSpaceOnUse" x="64" y="10" width="181" height="180">
<circle cx="154" cy="100" r="90" fill="#936A83"/>
</mask>
<g mask="url(#mask0)">
<g clip-path="url(#clip0)">
<path opacity="0.1" d="M225.698 141.407C225.698 141.407 240.214 117.995 227.557 102.791C210.162 81.8966 212.012 66.3157 181.364 59.5335C150.715 52.7513 133.492 75.7515 114.995 79.4652C90.0196 84.4797 80.1617 97.3609 78.3423 112.259C76.373 128.383 83.3357 141.407 83.3357 141.407H225.698Z" fill="#34726C"/>
<path d="M131.507 113.684C128.246 92.5256 129.135 80.7285 129.135 80.7285H93.4249C93.4249 80.7285 94.3143 92.5256 91.0532 113.686C88.37 131.092 77.3491 160.875 77.3491 160.875H145.21C145.21 160.875 134.19 131.09 131.507 113.684Z" fill="#4AA29A"/>
<path d="M93.5289 83.8613C93.5398 84.7948 93.5392 85.9311 93.5142 87.2666H129.045C129.02 85.9311 129.019 84.7948 129.03 83.8613H93.5289Z" fill="#F3B36A"/>
<path d="M126.786 128.133C124.352 115.421 123.05 102.517 122.894 89.5736C122.889 89.1239 122.191 89.1438 122.197 89.5935C122.357 102.599 123.669 115.565 126.118 128.338C126.203 128.778 126.87 128.572 126.786 128.133Z" fill="#71D3CA"/>
<path d="M99.3278 83.6965C99.1497 94.4932 98.2144 105.264 96.5289 115.93C96.4686 116.313 96.9763 116.477 97.0372 116.092C98.7329 105.372 99.6745 94.547 99.8548 83.6956C99.8615 83.3044 99.3342 83.3044 99.3278 83.6965Z" fill="#71D3CA"/>
<path d="M93.6212 130.991C92.4283 137.363 91.0481 143.681 89.4804 149.945C89.386 150.322 89.8946 150.483 89.9887 150.107C91.5564 143.844 92.9362 137.526 94.1283 131.153C94.2009 130.771 93.6929 130.608 93.6212 130.991Z" fill="#71D3CA"/>
<path d="M108.207 109.726C108.012 121.79 107.816 133.854 107.621 145.919C107.615 146.311 108.142 146.311 108.148 145.919C108.344 133.854 108.539 121.79 108.734 109.726C108.741 109.334 108.214 109.334 108.207 109.726Z" fill="#71D3CA"/>
<g style="mix-blend-mode:overlay" opacity="0.2">
<path d="M129.306 113.684C126.399 92.5256 127.192 80.7285 127.192 80.7285H115.43C115.43 80.7285 114.752 92.5256 117.239 113.686C119.287 131.092 122.545 160.875 122.545 160.875H141.52C141.52 160.875 131.698 131.09 129.306 113.684Z" fill="black"/>
</g>
<path d="M129.263 77.7607H93.2954C92.5844 77.7607 92.0081 78.3377 92.0081 79.0495V79.4403C92.0081 80.152 92.5844 80.729 93.2954 80.729H129.263C129.974 80.729 130.551 80.152 130.551 79.4403V79.0495C130.551 78.3377 129.974 77.7607 129.263 77.7607Z" fill="#9CF9F0"/>
<path d="M108.967 86.9901C108.935 86.544 108.237 86.5407 108.269 86.9901C108.652 92.3959 108.619 97.8232 108.171 103.224C108.134 103.672 108.832 103.67 108.869 103.224C109.317 97.8232 109.349 92.3959 108.967 86.9901Z" fill="#71D3CA"/>
<path d="M111.26 92.056C105.171 92.1266 99.0873 91.9699 93.0076 91.5858C92.559 91.5574 92.5609 92.2561 93.0076 92.2845C99.0843 92.6684 105.168 92.8251 111.26 92.7547C111.709 92.7493 111.71 92.0509 111.26 92.056Z" fill="#5FBAB2"/>
<path d="M129.402 92.0519C124.184 91.9402 118.965 91.936 113.746 92.0392C113.298 92.048 113.296 92.7466 113.746 92.7376C118.965 92.6344 124.183 92.6386 129.402 92.7503C129.852 92.7599 129.852 92.0615 129.402 92.0519Z" fill="#5FBAB2"/>
<path d="M102.405 118.123C98.3152 117.795 94.2108 117.687 90.1094 117.799C89.6614 117.811 89.6596 118.509 90.1094 118.497C94.2108 118.385 98.3152 118.493 102.405 118.822C102.853 118.858 102.85 118.159 102.405 118.123Z" fill="#5FBAB2"/>
<path d="M118.721 118.13C114.103 118.434 109.471 118.454 104.85 118.188C104.402 118.162 104.403 118.861 104.85 118.886C109.471 119.152 114.103 119.133 118.721 118.828C119.167 118.799 119.171 118.1 118.721 118.13Z" fill="#5FBAB2"/>
<path d="M132.724 117.423C129.182 117.81 125.618 117.961 122.055 117.876C121.606 117.865 121.606 118.564 122.055 118.574C125.618 118.66 129.182 118.508 132.724 118.122C133.165 118.074 133.171 117.375 132.724 117.423Z" fill="#5FBAB2"/>
<path opacity="0.5" d="M104.718 78.1953C102.78 78.2001 100.842 78.2111 98.9035 78.2282C97.1549 78.2439 95.3286 78.1184 93.5999 78.4117C93.1582 78.4866 93.3454 79.1599 93.7853 79.0854C95.5866 78.7796 97.5282 78.9384 99.3506 78.9227C101.139 78.9076 102.929 78.8975 104.718 78.8925C105.167 78.891 105.168 78.1926 104.718 78.1953Z" fill="white"/>
<path opacity="0.5" d="M114.007 78.0381L106.779 78.1096C106.33 78.1142 106.329 78.8128 106.779 78.8083L114.007 78.7365C114.456 78.732 114.457 78.0336 114.007 78.0381Z" fill="white"/>
<g style="mix-blend-mode:overlay" opacity="0.2">
<path d="M103.717 114.797C98.9984 115.944 93.6345 120.2 88.5666 125.398C84.3679 141.907 77.3491 160.874 77.3491 160.874H145.21C145.21 160.874 136.075 136.189 132.415 118.632C124.857 124.46 114.166 112.261 103.717 114.797Z" fill="black"/>
</g>
<path d="M170.493 50.9425C169.89 48.5797 167.62 46.3379 165.338 45.1681C164.103 44.5343 162.884 44.4033 161.49 44.4661C160.096 44.5288 159.118 44.4181 158.186 43.3192C157.824 42.8915 157.523 42.4189 157.114 42.0235C155.067 40.0446 152.146 41.237 149.569 41.0432C147.686 40.902 145.909 40.1644 144.069 39.8242C142.384 39.514 140.655 39.4068 138.946 39.6021C136.16 39.9205 133.468 41.0387 131.62 42.9938C130.726 43.9385 130.252 45.2474 129.252 46.097C127.647 47.4609 125.351 46.5271 123.425 46.7752C119.942 47.2243 118.83 49.6916 117.396 52.1914C116.864 53.1186 116.288 53.8306 115.167 54.222C114.349 54.5072 113.435 54.5087 112.608 54.7809C111.411 55.1733 110.437 55.9278 109.718 56.8713C107.605 59.6479 109.267 63.0583 107.454 65.8211C106.527 67.2317 105.916 70.1892 109.204 71.5253C110.012 71.8533 110.811 71.7969 111.583 71.4432C113.189 70.7077 113.621 69.3673 115.679 70.3416C117.833 71.3611 120.081 71.2168 121.686 69.3697C122.073 68.9246 122.324 68.4544 122.567 67.9356C123.007 66.9948 123.307 66.511 124.25 65.9222C125.34 65.241 126.207 64.5321 127.121 63.655C128.392 62.4357 129.675 61.5143 131.658 61.9757C133.187 62.3313 134.515 63.2159 135.967 63.7534C138.537 64.7053 141.073 64.2559 143.178 62.6563C144.771 61.4452 145.785 60.6813 147.955 61.29C149.44 61.7065 150.816 62.0666 152.389 61.9806C153.75 61.9087 155.086 61.5857 156.329 61.0281C157.79 60.3668 158.753 59.1768 160.137 58.4461C161.85 57.5407 162.762 58.7971 164.395 58.7715C165.59 58.753 166.7 58.1102 167.572 57.4236C169.61 55.8189 171.132 53.4476 170.493 50.9425Z" fill="#79ADA9"/>
<path d="M213.093 99.2214C208.574 73.8161 209.806 59.6514 209.806 59.6514H160.329C160.329 59.6514 161.561 73.8161 157.043 99.2214C153.325 120.12 138.055 155.881 138.055 155.881H232.08C232.08 155.881 216.81 120.12 213.093 99.2214Z" fill="#71D3CA"/>
<path d="M210.173 76.9229C210.01 74.8739 209.895 72.9992 209.815 71.3027H160.319C160.239 72.9992 160.123 74.8756 159.961 76.9229H210.173Z" fill="#4AA29A"/>
<path d="M214.156 104.339C213.74 102.559 213.382 100.846 213.093 99.2215C212.964 98.4956 212.842 97.7818 212.721 97.0742H157.415C157.295 97.7818 157.172 98.496 157.043 99.2215C156.753 100.846 156.395 102.559 155.979 104.339H214.156Z" fill="#4AA29A"/>
<path d="M173.565 63.2143C173.317 76.1993 172.02 89.143 169.687 101.919C169.604 102.379 170.307 102.576 170.392 102.113C172.738 89.2738 174.043 76.2656 174.296 63.2156C174.305 62.7435 173.574 62.7435 173.565 63.2143Z" fill="#5FBAB2"/>
<path d="M165.658 120.002C164.006 127.653 162.094 135.238 159.923 142.759C159.792 143.212 160.497 143.406 160.627 142.954C162.799 135.434 164.711 127.848 166.363 120.196C166.462 119.737 165.758 119.542 165.658 120.002Z" fill="#5FBAB2"/>
<path d="M183.374 94.4672C183.103 108.953 182.832 123.438 182.561 137.924C182.552 138.395 183.283 138.395 183.292 137.924L184.104 94.4672C184.113 93.9968 183.382 93.9964 183.374 94.4672Z" fill="#5FBAB2"/>
<g style="mix-blend-mode:overlay" opacity="0.2">
<path d="M210.045 99.2214C206.017 73.8178 207.116 59.6514 207.116 59.6514H190.818C190.818 59.6514 189.878 73.8161 193.325 99.2214C196.161 120.12 200.677 155.881 200.677 155.881H226.967C226.967 155.881 213.358 120.12 210.045 99.2214Z" fill="black"/>
</g>
<path d="M210.109 56.0869H160.027C159.11 56.0869 158.366 56.8311 158.366 57.7492V57.9888C158.366 58.9068 159.11 59.651 160.027 59.651H210.109C211.026 59.651 211.769 58.9068 211.769 57.9888V57.7492C211.769 56.8311 211.026 56.0869 210.109 56.0869Z" fill="#9CF9F0"/>
<path d="M197.756 80.0488L167.54 80.0312C166.601 80.0312 166.599 81.4928 167.54 81.4949L197.756 81.5128C198.696 81.5095 198.698 80.0488 197.756 80.0488Z" fill="#4AA29A"/>
<path d="M210.468 79.9536L202.184 79.7571C201.243 79.7349 201.244 81.1973 202.184 81.2207L210.468 81.4168C211.408 81.4377 211.408 79.9758 210.468 79.9536Z" fill="#4AA29A"/>
<path d="M179.226 106.967C171.101 106.857 162.977 106.876 154.852 107.025C153.914 107.042 153.911 108.504 154.852 108.488C162.977 108.34 171.101 108.32 179.226 108.43C180.166 108.443 180.166 106.98 179.226 106.967Z" fill="#4AA29A"/>
<path d="M215.01 106.881L183.514 106.915C182.574 106.915 182.573 108.378 183.514 108.378L215.01 108.344C215.95 108.342 215.951 106.88 215.01 106.881Z" fill="#4AA29A"/>
<g style="mix-blend-mode:overlay" opacity="0.2">
<path d="M232.08 155.881C232.08 155.881 224.616 138.402 218.855 120.739C210.449 138.721 192.839 124.255 175.756 126.409C165.5 127.703 152.767 135.195 143.934 141.265C140.636 149.835 138.055 155.881 138.055 155.881H232.08Z" fill="black"/>
</g>
<path d="M266.531 4.37393C263.076 1.70264 259.02 1.58932 254.762 2.60548C252.204 3.21601 249.652 4.14645 246.976 4.14687C244.152 4.14687 241.721 2.69413 238.941 2.47417C234.192 2.09782 230.154 4.64867 227.117 7.72099C226.274 8.57407 225.368 9.66382 224.169 10.0899C222.326 10.7456 221.534 9.74579 220.122 9.09134C218.647 8.40763 217.26 8.5335 215.792 9.20969C213.329 10.3434 211.746 12.0976 208.722 11.7605C206.38 11.5009 204.394 10.9209 202.02 11.4415C196.835 12.5793 193.526 16.7255 191.753 21.039C191.369 21.9723 191.168 23.0985 190.521 23.9122C189.072 25.7371 187.101 25.0066 185.203 25.7497C183.511 26.4121 182.626 27.9129 182.105 29.4334C181.785 30.3634 181.655 31.3357 181.343 32.2673C181.089 33.0242 180.86 33.5637 180.265 34.1286C179.379 34.9721 178.263 34.9232 177.097 35.2033C175.256 35.6441 173.741 36.925 173.099 38.5521C172.251 40.6981 173.531 42.7614 172.845 44.9501C172.804 45.0814 172.768 45.2127 172.735 45.3436C172.033 46.6951 172.214 48.3545 173.696 49.5513C176.753 52.0135 180.238 48.8487 183.186 47.9881C186.055 47.1518 188.038 49.246 190.756 49.4129C192.316 49.5086 193.594 48.9182 194.748 48.0044C196.37 46.7194 197.546 44.8656 199.754 44.3354C202.302 43.7232 205.062 44.7431 207.577 45.0304C209.151 45.2102 210.752 45.2169 212.233 44.6223C214.109 43.8696 215.167 42.3068 216.52 40.9954C218.811 38.7754 220.849 39.4976 223.629 40.2524C225.661 40.8035 227.534 40.7542 229.377 39.7058C231.17 38.6859 231.822 37.2348 233.048 35.7988C235.442 32.995 239.121 35.3234 242.113 35.6035C246.64 36.0276 251.026 33.7979 253.816 30.6465C255.202 29.0825 256.273 27.3116 257.104 25.4591C257.687 24.1627 258.093 21.9079 259.55 21.2706C260.534 20.8399 261.847 20.9779 262.912 20.8106C266.865 20.1834 270.609 17.7413 271.107 13.9179C271.568 10.3751 269.438 6.62203 266.531 4.37393Z" fill="#79ADA9"/>
<path d="M199.594 92.6943H186.504V191.001H199.594V92.6943Z" fill="#FFE6D6"/>
<path d="M199.594 97.915H186.504V104.709H199.594V97.915Z" fill="#F3B36A"/>
<path d="M199.594 106.594H186.504V113.388H199.594V106.594Z" fill="#F3B36A"/>
<g style="mix-blend-mode:overlay" opacity="0.5">
<path d="M198.14 92.6943H194.186V191.001H198.14V92.6943Z" fill="black"/>
</g>
<path d="M200.339 94.3682H185.758V95.5599H200.339V94.3682Z" fill="#C9AA96"/>
<path d="M200.339 115.112H185.758V116.304H200.339V115.112Z" fill="#C9AA96"/>
<path d="M200.339 121.299H185.758V122.491H200.339V121.299Z" fill="#C9AA96"/>
<path d="M196.679 88.0234H188.99V92.6938H196.679V88.0234Z" fill="#66564C"/>
<path d="M192.432 92.9327C190.798 93.0253 189.163 93.0487 187.527 93.003C186.864 92.9843 186.864 94.0148 187.527 94.0335C189.164 94.0796 190.799 94.0561 192.432 93.9632C193.091 93.9258 193.095 92.8948 192.432 92.9327Z" fill="#FFF6F0"/>
<path d="M188.652 97.0411C188.688 96.3784 187.658 96.3806 187.622 97.0411C187.512 99.02 187.525 101.004 187.659 102.981C187.703 103.639 188.734 103.644 188.689 102.981C188.554 101.004 188.542 99.02 188.652 97.0411Z" fill="#FFF6F0"/>
<path d="M192.01 117.182C190.538 117.335 189.076 117.008 187.605 117.137C186.95 117.194 186.944 118.225 187.605 118.168C189.077 118.04 190.539 118.367 192.01 118.212C192.662 118.144 192.667 117.113 192.01 117.182Z" fill="#FFF6F0"/>
<path d="M187.986 124.929C187.545 127.105 187.466 129.339 187.755 131.54C187.84 132.188 188.87 132.197 188.784 131.54C188.499 129.431 188.565 127.29 188.979 125.203C189.108 124.555 188.116 124.278 187.986 124.929Z" fill="#FFF6F0"/>
<path d="M214.953 105.447H206.167V191.001H214.953V105.447Z" fill="#FFE6D6"/>
<path d="M214.953 109.99H206.167V112.715H214.953V109.99Z" fill="#F3B36A"/>
<path d="M214.953 114.4H206.167V117.125H214.953V114.4Z" fill="#F3B36A"/>
<path d="M212.696 100.926H208.424L207.143 105.446H213.977L212.696 100.926Z" fill="#80301A"/>
<g style="mix-blend-mode:overlay" opacity="0.5">
<path d="M213.977 105.447H211.323V191.001H213.977V105.447Z" fill="black"/>
</g>
<path d="M212.078 106.004C210.4 106.032 208.722 106.025 207.044 105.982C206.415 105.966 206.416 106.943 207.044 106.959C208.722 107.002 210.4 107.009 212.078 106.981C212.706 106.971 212.707 105.993 212.078 106.004Z" fill="#FFFAF7"/>
<path d="M208.076 116.179C208.103 115.55 207.127 115.552 207.1 116.179C206.973 119.082 206.964 121.984 207.073 124.886C207.097 125.512 208.073 125.515 208.05 124.886C207.94 121.982 207.949 119.08 208.076 116.179Z" fill="#FFFAF7"/>
<path d="M219.689 131.425H174.44V144.423H219.689V131.425Z" fill="#34726C"/>
<path d="M160.258 135.182V131.853H161.208V132.709H162.206V128.762H165.103V131.045H166.718V126.004H168.951V135.182H160.258Z" fill="#34726C"/>
<path d="M180.051 129.95H178.051V132.898H180.051V129.95Z" fill="#34726C"/>
<path d="M185.149 129.95H183.149V132.898H185.149V129.95Z" fill="#34726C"/>
<path d="M221.637 134.468H144.012V144.422H221.637V134.468Z" fill="#4AA29A"/>
<path d="M176.232 135.852C166.204 136.015 156.176 136.049 146.146 135.954C145.494 135.948 145.494 136.962 146.146 136.969C156.175 137.064 166.204 137.03 176.232 136.866C176.883 136.855 176.885 135.841 176.232 135.852Z" fill="#34726C"/>
<path d="M190.325 135.851L179.936 135.855C179.283 135.855 179.321 136.87 179.973 136.869L190.362 136.865C191.015 136.864 190.977 135.851 190.325 135.851Z" fill="#34726C"/>
<path d="M159.241 139.567C159.241 139.224 159.256 138.892 158.905 138.705C158.483 138.478 157.709 138.624 157.248 138.615C156.389 138.599 155.53 138.556 154.672 138.496C154.388 138.476 154.227 138.659 154.193 138.875C154.133 138.958 154.101 139.058 154.1 139.16C154.086 139.697 153.916 140.668 154.244 141.142C154.503 141.517 155.027 141.423 155.422 141.422C156.147 141.421 156.873 141.411 157.598 141.392C158.028 141.381 158.773 141.506 159.084 141.11C159.37 140.746 159.241 139.995 159.241 139.567ZM156.666 140.396C156.197 140.404 155.604 140.489 155.101 140.441C155.063 140.154 155.078 139.833 155.095 139.535C155.92 139.587 156.744 139.624 157.571 139.635C157.766 139.638 158.012 139.677 158.205 139.641C158.205 139.873 158.21 140.172 158.209 140.391C157.712 140.46 157.131 140.39 156.666 140.396Z" fill="#34726C"/>
<path d="M167.918 139.567C167.918 139.224 167.933 138.892 167.582 138.705C167.16 138.478 166.386 138.624 165.925 138.615C165.066 138.599 164.207 138.556 163.349 138.496C163.064 138.476 162.904 138.659 162.87 138.875C162.81 138.958 162.778 139.058 162.777 139.16C162.764 139.697 162.593 140.668 162.921 141.142C163.181 141.517 163.704 141.423 164.099 141.422C164.824 141.421 165.55 141.411 166.276 141.392C166.705 141.381 167.45 141.506 167.761 141.11C168.048 140.746 167.919 139.995 167.918 139.567ZM165.343 140.396C164.874 140.404 164.281 140.489 163.778 140.441C163.74 140.154 163.755 139.833 163.772 139.535C164.597 139.587 165.422 139.624 166.248 139.635C166.443 139.638 166.689 139.677 166.882 139.641C166.882 139.873 166.887 140.172 166.886 140.391C166.39 140.46 165.808 140.39 165.343 140.396Z" fill="#34726C"/>
<path d="M177.027 139.567C177.027 139.224 177.043 138.892 176.692 138.705C176.269 138.478 175.496 138.624 175.035 138.615C174.175 138.599 173.317 138.556 172.46 138.496C172.174 138.476 172.015 138.659 171.98 138.875C171.92 138.958 171.888 139.058 171.888 139.16C171.874 139.697 171.703 140.668 172.031 141.142C172.291 141.517 172.814 141.423 173.209 141.422C173.934 141.421 174.66 141.411 175.385 141.392C175.815 141.381 176.559 141.506 176.871 141.11C177.158 140.746 177.028 139.995 177.027 139.567ZM174.453 140.396C173.984 140.404 173.391 140.489 172.888 140.441C172.85 140.154 172.865 139.833 172.882 139.535C173.707 139.587 174.532 139.624 175.357 139.635C175.553 139.638 175.799 139.677 175.992 139.641C175.992 139.873 175.997 140.172 175.996 140.391C175.499 140.46 174.917 140.39 174.453 140.396Z" fill="#34726C"/>
<path d="M185.704 139.567C185.704 139.224 185.72 138.892 185.369 138.705C184.946 138.478 184.173 138.624 183.712 138.615C182.852 138.599 181.994 138.556 181.137 138.496C180.851 138.476 180.692 138.659 180.657 138.875C180.598 138.958 180.565 139.058 180.565 139.16C180.551 139.697 180.38 140.668 180.708 141.142C180.968 141.517 181.492 141.423 181.886 141.422C182.612 141.421 183.337 141.411 184.062 141.392C184.492 141.381 185.236 141.506 185.548 141.11C185.835 140.746 185.705 139.995 185.704 139.567ZM183.13 140.396C182.661 140.404 182.068 140.489 181.565 140.441C181.527 140.154 181.542 139.833 181.559 139.535C182.384 139.587 183.209 139.624 184.035 139.635C184.23 139.638 184.476 139.677 184.669 139.641C184.669 139.873 184.674 140.172 184.673 140.391C184.176 140.46 183.595 140.39 183.13 140.396Z" fill="#34726C"/>
<path d="M228.559 186.913H83.8972V191.001H228.559V186.913Z" fill="#34726C"/>
<path d="M225.234 145.691H87.2234V186.914H225.234V145.691Z" fill="#459991"/>
<path d="M225.233 145.691H212.174V186.914H225.233V145.691Z" fill="#3C857E"/>
<path d="M225.234 145.691H87.2234V147.34H225.234V145.691Z" fill="#34726C"/>
<path d="M226.751 143.155H85.7056V145.691H226.751V143.155Z" fill="#3C857E"/>
<path d="M100.314 157.886H95.5843C95.3212 157.885 95.0689 157.781 94.8829 157.594C94.6968 157.408 94.5921 157.155 94.5918 156.892V153.469C94.5921 153.206 94.6968 152.953 94.8829 152.767C95.0689 152.581 95.3212 152.476 95.5843 152.476H100.314C100.577 152.476 100.829 152.581 101.015 152.767C101.201 152.953 101.306 153.206 101.306 153.469V156.892C101.306 157.156 101.201 157.408 101.015 157.594C100.829 157.781 100.577 157.885 100.314 157.886ZM100.293 153.469L95.5852 153.49L95.6061 156.892L100.293 156.871V153.469Z" fill="#5FBAB2"/>
<path d="M111.545 152.982H105.844V157.378H111.545V152.982Z" fill="#34726C"/>
<path d="M122.291 152.982H116.591V157.378H122.291V152.982Z" fill="#34726C"/>
<path d="M133.037 152.982H127.337V157.378H133.037V152.982Z" fill="#34726C"/>
<path d="M143.783 152.982H138.083V157.378H143.783V152.982Z" fill="#34726C"/>
<path d="M154.044 157.886H149.315C149.052 157.885 148.799 157.781 148.613 157.594C148.427 157.408 148.323 157.155 148.322 156.892V153.469C148.323 153.206 148.427 152.953 148.613 152.767C148.799 152.581 149.052 152.476 149.315 152.476H154.044C154.307 152.476 154.559 152.581 154.745 152.767C154.931 152.953 155.035 153.206 155.036 153.469V156.892C155.035 157.155 154.931 157.408 154.745 157.594C154.559 157.78 154.307 157.885 154.044 157.886ZM154.023 153.469L149.315 153.49L149.336 156.892L154.023 156.871V153.469Z" fill="#5FBAB2"/>
<path d="M164.79 157.886H160.061C159.797 157.885 159.545 157.781 159.359 157.594C159.173 157.408 159.068 157.155 159.068 156.892V153.469C159.068 153.206 159.173 152.953 159.359 152.767C159.545 152.581 159.797 152.476 160.061 152.476H164.79C165.053 152.476 165.305 152.581 165.491 152.767C165.677 152.953 165.782 153.206 165.782 153.469V156.892C165.782 157.155 165.677 157.408 165.491 157.594C165.305 157.781 165.053 157.885 164.79 157.886ZM164.769 153.469L160.061 153.49L160.082 156.892L164.769 156.871V153.469Z" fill="#5FBAB2"/>
<path d="M176.022 152.982H170.321V157.378H176.022V152.982Z" fill="#34726C"/>
<path d="M186.768 152.982H181.067V157.378H186.768V152.982Z" fill="#34726C"/>
<path d="M197.027 157.886H192.298C192.035 157.885 191.782 157.781 191.596 157.594C191.41 157.408 191.306 157.155 191.305 156.892V153.469C191.306 153.206 191.41 152.953 191.596 152.767C191.782 152.581 192.035 152.476 192.298 152.476H197.027C197.29 152.476 197.542 152.581 197.728 152.767C197.914 152.953 198.019 153.206 198.019 153.469V156.892C198.019 157.155 197.914 157.408 197.728 157.594C197.542 157.781 197.29 157.885 197.027 157.886ZM197.006 153.469L192.298 153.49L192.319 156.892L197.006 156.871V153.469Z" fill="#5FBAB2"/>
<path d="M208.26 152.982H202.559V157.378H208.26V152.982Z" fill="#34726C"/>
<path d="M100.314 172.652H95.5843C95.3212 172.652 95.069 172.547 94.8829 172.361C94.6968 172.175 94.5922 171.923 94.5918 171.659V168.236C94.5922 167.973 94.6968 167.72 94.8829 167.534C95.069 167.348 95.3212 167.243 95.5843 167.243H100.314C100.577 167.243 100.829 167.348 101.015 167.534C101.201 167.72 101.306 167.973 101.306 168.236V171.659C101.306 171.923 101.201 172.175 101.015 172.361C100.829 172.548 100.577 172.652 100.314 172.652ZM100.293 168.236L95.5852 168.257L95.6061 171.659L100.293 171.638V168.236Z" fill="#5FBAB2"/>
<path d="M111.545 167.75H105.844V172.146H111.545V167.75Z" fill="#34726C"/>
<path d="M121.805 172.652H117.076C116.813 172.652 116.561 172.547 116.375 172.361C116.189 172.175 116.084 171.923 116.084 171.659V168.236C116.084 167.973 116.189 167.72 116.375 167.534C116.561 167.348 116.813 167.243 117.076 167.243H121.805C122.068 167.243 122.32 167.348 122.506 167.534C122.692 167.72 122.797 167.973 122.797 168.236V171.659C122.797 171.923 122.692 172.175 122.506 172.361C122.32 172.547 122.068 172.652 121.805 172.652ZM121.784 168.236L117.076 168.257L117.097 171.659L121.784 171.638V168.236Z" fill="#5FBAB2"/>
<path d="M132.551 172.652H127.823C127.559 172.652 127.307 172.547 127.121 172.361C126.935 172.175 126.83 171.923 126.83 171.659V168.236C126.83 167.973 126.935 167.72 127.121 167.534C127.307 167.348 127.559 167.243 127.823 167.243H132.551C132.814 167.243 133.066 167.348 133.252 167.534C133.439 167.72 133.543 167.973 133.543 168.236V171.659C133.543 171.923 133.439 172.175 133.252 172.361C133.066 172.548 132.814 172.652 132.551 172.652ZM132.531 168.236L127.823 168.257L127.843 171.659L132.531 171.638V168.236Z" fill="#5FBAB2"/>
<path d="M143.783 167.75H138.083V172.146H143.783V167.75Z" fill="#34726C"/>
<path d="M154.044 172.652H149.315C149.052 172.652 148.799 172.547 148.613 172.361C148.427 172.175 148.323 171.923 148.322 171.659V168.236C148.323 167.973 148.427 167.72 148.613 167.534C148.799 167.348 149.052 167.243 149.315 167.243H154.044C154.307 167.243 154.559 167.348 154.745 167.534C154.931 167.72 155.035 167.973 155.036 168.236V171.659C155.035 171.923 154.931 172.175 154.745 172.361C154.559 172.547 154.307 172.652 154.044 172.652ZM154.023 168.236L149.315 168.257L149.336 171.659L154.023 171.638V168.236Z" fill="#5FBAB2"/>
<path d="M165.275 167.75H159.575V172.146H165.275V167.75Z" fill="#34726C"/>
<path d="M175.536 172.652H170.807C170.544 172.652 170.292 172.547 170.106 172.361C169.919 172.175 169.815 171.923 169.814 171.659V168.236C169.815 167.973 169.919 167.72 170.106 167.534C170.292 167.348 170.544 167.243 170.807 167.243H175.536C175.799 167.243 176.051 167.348 176.237 167.534C176.423 167.72 176.528 167.973 176.528 168.236V171.659C176.528 171.923 176.423 172.175 176.237 172.361C176.051 172.547 175.799 172.652 175.536 172.652ZM175.515 168.236L170.807 168.257L170.828 171.659L175.515 171.638V168.236Z" fill="#5FBAB2"/>
<path d="M186.282 172.652H181.553C181.29 172.652 181.038 172.547 180.852 172.361C180.666 172.175 180.561 171.923 180.561 171.659V168.236C180.561 167.973 180.666 167.72 180.852 167.534C181.038 167.348 181.29 167.243 181.553 167.243H186.282C186.545 167.243 186.797 167.348 186.983 167.534C187.169 167.72 187.274 167.973 187.274 168.236V171.659C187.274 171.923 187.169 172.175 186.983 172.361C186.797 172.547 186.545 172.652 186.282 172.652ZM186.261 168.236L181.553 168.257L181.574 171.659L186.261 171.638V168.236Z" fill="#5FBAB2"/>
<path d="M197.027 172.652H192.298C192.035 172.652 191.782 172.547 191.596 172.361C191.41 172.175 191.306 171.923 191.305 171.659V168.236C191.306 167.973 191.41 167.72 191.596 167.534C191.782 167.348 192.035 167.243 192.298 167.243H197.027C197.29 167.243 197.542 167.348 197.728 167.534C197.914 167.72 198.019 167.973 198.019 168.236V171.659C198.019 171.923 197.914 172.175 197.728 172.361C197.542 172.547 197.29 172.652 197.027 172.652ZM197.006 168.236L192.298 168.257L192.319 171.659L197.006 171.638V168.236Z" fill="#5FBAB2"/>
<path d="M208.26 167.75H202.559V172.146H208.26V167.75Z" fill="#34726C"/>
<path d="M103.411 186.866L100.798 186.808V182.518H95.0984V186.681L83.8878 186.432C83.2356 186.417 83.2356 187.432 83.8878 187.447L103.41 187.88C104.063 187.895 104.063 186.88 103.411 186.866Z" fill="#34726C"/>
<path d="M111.059 187.419H106.33C106.067 187.419 105.815 187.314 105.629 187.128C105.443 186.941 105.338 186.689 105.338 186.425V183.002C105.338 182.739 105.443 182.486 105.629 182.3C105.815 182.114 106.067 182.009 106.33 182.009H111.059C111.322 182.009 111.574 182.114 111.76 182.3C111.946 182.486 112.051 182.739 112.051 183.002V186.425C112.051 186.689 111.946 186.941 111.76 187.127C111.574 187.314 111.322 187.418 111.059 187.419ZM111.038 183.002L106.33 183.023L106.351 186.425L111.038 186.404V183.002Z" fill="#5FBAB2"/>
<path d="M134.564 186.748C134.055 186.763 133.546 186.767 133.037 186.767V182.518H127.337V186.579C125.654 186.493 123.972 186.409 122.291 186.387V182.518H116.591V186.654C116.502 186.665 116.408 186.673 116.317 186.685C115.68 186.769 115.672 187.784 116.317 187.699C122.39 186.898 128.475 187.946 134.564 187.762C135.215 187.742 135.218 186.727 134.564 186.748Z" fill="#34726C"/>
<path d="M145.577 182.518H136.289V191H145.577V182.518Z" fill="#34726C"/>
<path d="M154.529 182.518H148.829V186.913H154.529V182.518Z" fill="#34726C"/>
<path d="M164.79 187.419H160.061C159.797 187.419 159.545 187.314 159.359 187.127C159.173 186.941 159.068 186.689 159.068 186.425V183.002C159.068 182.739 159.173 182.486 159.359 182.3C159.545 182.114 159.797 182.009 160.061 182.009H164.79C165.053 182.009 165.305 182.114 165.491 182.3C165.677 182.486 165.782 182.739 165.782 183.002V186.425C165.782 186.689 165.677 186.941 165.491 187.127C165.305 187.314 165.053 187.419 164.79 187.419ZM164.769 183.002L160.061 183.023L160.082 186.425L164.769 186.404V183.002Z" fill="#5FBAB2"/>
<path d="M176.022 182.518H170.321V186.913H176.022V182.518Z" fill="#34726C"/>
<path d="M186.768 182.518H181.067V186.913H186.768V182.518Z" fill="#34726C"/>
<path d="M197.027 187.419H192.298C192.035 187.419 191.782 187.314 191.596 187.127C191.41 186.941 191.306 186.689 191.305 186.425V183.002C191.306 182.739 191.41 182.486 191.596 182.3C191.782 182.114 192.035 182.009 192.298 182.009H197.027C197.29 182.009 197.542 182.114 197.728 182.3C197.914 182.486 198.019 182.739 198.019 183.002V186.425C198.019 186.689 197.914 186.941 197.728 187.127C197.542 187.314 197.29 187.419 197.027 187.419ZM197.006 183.002L192.298 183.023L192.319 186.425L197.006 186.404V183.002Z" fill="#5FBAB2"/>
<path d="M207.774 187.419H203.045C202.782 187.419 202.53 187.314 202.344 187.127C202.158 186.941 202.053 186.689 202.053 186.425V183.002C202.053 182.739 202.158 182.486 202.344 182.3C202.53 182.114 202.782 182.009 203.045 182.009H207.774C208.037 182.009 208.289 182.114 208.475 182.3C208.661 182.486 208.766 182.739 208.766 183.002V186.425C208.766 186.689 208.661 186.941 208.475 187.127C208.289 187.314 208.037 187.418 207.774 187.419ZM207.753 183.002L203.045 183.023L203.066 186.425L207.753 186.404V183.002Z" fill="#5FBAB2"/>
<path d="M136.045 160.125C121.207 160.259 106.37 160.214 91.5325 159.991C90.8799 159.982 90.8803 160.659 91.5325 160.667C106.367 160.89 121.205 160.935 136.045 160.8C136.696 160.795 136.698 160.12 136.045 160.125Z" fill="#5FBAB2"/>
<path d="M195.611 160.078C178.258 160.386 160.904 160.331 143.548 159.914C142.896 159.899 142.897 160.574 143.548 160.59C160.895 161.007 178.25 161.062 195.611 160.753C196.262 160.742 196.265 160.066 195.611 160.078Z" fill="#5FBAB2"/>
<path d="M209.018 160.018C206.206 159.997 203.398 160.05 200.594 160.175C199.946 160.204 199.942 160.879 200.594 160.85C203.399 160.725 206.207 160.673 209.018 160.694C209.67 160.698 209.67 160.023 209.018 160.018Z" fill="#5FBAB2"/>
<path d="M123.505 175.157C115.082 175.09 106.658 175.094 98.2328 175.167C97.5815 175.173 97.5797 175.849 98.2328 175.843C106.656 175.77 115.08 175.766 123.505 175.832C124.158 175.837 124.158 175.162 123.505 175.157Z" fill="#5FBAB2"/>
<path d="M186.588 174.865C168.601 174.788 150.613 174.762 132.626 174.788C131.974 174.788 131.973 175.465 132.626 175.463C150.613 175.438 168.601 175.464 186.588 175.54C187.24 175.543 187.24 174.867 186.588 174.865Z" fill="#5FBAB2"/>
<path d="M212.466 149.558C212.433 148.908 211.42 148.904 211.453 149.558C211.95 159.274 212.015 168.996 211.648 178.725C211.624 179.378 212.637 179.377 212.662 178.725C213.028 169.003 212.963 159.281 212.466 149.558Z" fill="#34726C"/>
<path d="M212.821 181.733C212.875 181.082 211.862 181.086 211.808 181.733C211.659 183.536 212.075 185.313 212.01 187.116C211.986 187.769 213 187.768 213.023 187.116C213.086 185.313 212.672 183.536 212.821 181.733Z" fill="#34726C"/>
</g>
</g>
<defs>
<clipPath id="clip0">
<rect width="227" height="177" fill="white" transform="translate(64.0002 13)"/>
</clipPath>
</defs>
</svg>
