<svg width="743" height="460" viewBox="0 0 743 460" fill="none" xmlns="http://www.w3.org/2000/svg">
<g opacity="0.1">
<path d="M144.466 334.038C135.767 277.597 138.139 246.128 138.139 246.128H42.8824C42.8824 246.128 45.2547 277.597 36.5557 334.042C29.3983 380.472 0 459.919 0 459.919H181.02C181.02 459.919 151.623 380.468 144.466 334.038Z" fill="#404040"/>
<path d="M43.1598 254.484C43.1887 256.974 43.1871 260.006 43.1204 263.568H137.899C137.833 260.006 137.831 256.974 137.86 254.484H43.1598Z" fill="#404040"/>
<path d="M131.872 372.581C125.381 338.669 121.907 304.248 121.493 269.722C121.478 268.523 119.617 268.576 119.632 269.775C120.059 304.468 123.56 339.054 130.093 373.128C130.318 374.301 132.097 373.75 131.872 372.581Z" fill="#404040"/>
<path d="M58.6284 254.044C58.1532 282.845 55.6584 311.576 51.1622 340.026C51.0013 341.049 52.3556 341.487 52.518 340.459C57.0415 311.865 59.553 282.988 60.0341 254.042C60.0518 252.999 58.6452 252.999 58.6284 254.044Z" fill="#404040"/>
<path d="M43.4058 380.202C40.2238 397.2 36.5419 414.053 32.3601 430.762C32.1084 431.768 33.4651 432.198 33.716 431.194C37.8978 414.487 41.5786 397.634 44.7584 380.636C44.9522 379.615 43.5972 379.18 43.4058 380.202Z" fill="#404040"/>
<path d="M82.3143 323.478C81.7932 355.659 81.2718 387.841 80.7502 420.023C80.7333 421.07 82.139 421.07 82.1559 420.023C82.6781 387.841 83.1995 355.659 83.7201 323.478C83.737 322.432 82.3312 322.432 82.3143 323.478Z" fill="#404040"/>
<g style="mix-blend-mode:overlay" opacity="0.2">
<path d="M138.595 334.038C130.841 277.597 132.956 246.128 132.956 246.128H101.581C101.581 246.128 99.7712 277.597 106.407 334.042C111.868 380.472 120.561 459.919 120.561 459.919H171.176C171.176 459.919 144.975 380.468 138.595 334.038Z" fill="#404040"/>
</g>
<path d="M138.481 238.211H42.5371C40.6406 238.211 39.1031 239.75 39.1031 241.649V242.691C39.1031 244.59 40.6406 246.129 42.5371 246.129H138.481C140.378 246.129 141.915 244.59 141.915 242.691V241.649C141.915 239.75 140.378 238.211 138.481 238.211Z" fill="#404040"/>
<path d="M84.3401 262.829C84.2557 261.639 82.3939 261.631 82.4792 262.829C83.4996 277.249 83.4122 291.727 82.2178 306.134C82.1189 307.328 83.9807 307.322 84.0788 306.134C85.2736 291.727 85.361 277.249 84.3401 262.829Z" fill="#404040"/>
<path d="M90.4576 276.343C74.2159 276.532 57.9864 276.114 41.7688 275.089C40.5722 275.013 40.577 276.877 41.7688 276.953C57.9783 277.977 74.2079 278.395 90.4576 278.207C91.6542 278.193 91.6575 276.33 90.4576 276.343Z" fill="#404040"/>
<path d="M138.853 276.332C124.933 276.034 111.011 276.023 97.0892 276.298C95.8933 276.321 95.8893 278.185 97.0892 278.161C111.01 277.886 124.931 277.897 138.853 278.195C140.051 278.22 140.051 276.358 138.853 276.332Z" fill="#404040"/>
<path d="M66.8363 345.877C55.9268 345.001 44.9782 344.712 34.0377 345.01C32.8427 345.043 32.8379 346.906 34.0377 346.874C44.9782 346.575 55.9268 346.864 66.8363 347.74C68.0305 347.836 68.0241 345.972 66.8363 345.877Z" fill="#404040"/>
<path d="M110.361 345.895C98.0418 346.707 85.6847 346.759 73.3595 346.05C72.1628 345.982 72.1669 347.845 73.3595 347.913C85.6847 348.622 98.0418 348.57 110.361 347.758C111.55 347.68 111.559 345.816 110.361 345.895Z" fill="#404040"/>
<path d="M147.714 344.011C138.264 345.042 128.756 345.446 119.253 345.219C118.055 345.19 118.056 347.054 119.253 347.082C128.756 347.309 138.264 346.905 147.714 345.874C148.889 345.746 148.905 343.882 147.714 344.011Z" fill="#404040"/>
<path opacity="0.5" d="M73.0075 239.371C67.8365 239.384 62.666 239.413 57.4961 239.459C52.8317 239.501 47.9599 239.166 43.3486 239.948C42.1704 240.148 42.6698 241.944 43.8432 241.745C48.6483 240.93 53.8273 241.353 58.6887 241.311C63.4603 241.271 68.2332 241.244 73.0075 241.231C74.205 241.227 74.2074 239.364 73.0075 239.371Z" fill="#404040"/>
<path opacity="0.5" d="M97.7865 238.95L78.5048 239.141C77.3081 239.153 77.3049 241.017 78.5048 241.005L97.7865 240.813C98.9831 240.801 98.9863 238.938 97.7865 238.95Z" fill="#404040"/>
<g style="mix-blend-mode:overlay" opacity="0.2">
<path d="M70.3377 337.007C57.7496 340.066 43.4413 351.418 29.9227 365.285C18.7226 409.323 0 459.915 0 459.915H181.02C181.02 459.915 156.652 394.07 146.889 347.235C126.727 362.782 98.2089 330.24 70.3377 337.007Z" fill="#404040"/>
</g>
<path d="M248.462 166.673C246.854 160.37 240.799 154.39 234.71 151.269C231.418 149.579 228.165 149.229 224.446 149.397C220.728 149.564 218.119 149.269 215.633 146.337C214.668 145.197 213.864 143.936 212.774 142.881C207.313 137.602 199.523 140.783 192.648 140.266C187.624 139.89 182.885 137.922 177.976 137.015C173.482 136.187 168.868 135.901 164.309 136.422C156.879 137.271 149.698 140.254 144.767 145.47C142.383 147.989 141.119 151.481 138.452 153.747C134.17 157.385 128.044 154.895 122.909 155.556C113.616 156.754 110.65 163.336 106.825 170.004C105.406 172.477 103.869 174.377 100.879 175.421C98.6983 176.182 96.2584 176.186 94.0524 176.912C90.8598 177.958 88.2622 179.971 86.3442 182.488C80.7068 189.894 85.1427 198.992 80.3046 206.361C77.8333 210.124 76.2032 218.013 84.9738 221.577C87.1283 222.452 89.2594 222.302 91.3206 221.358C95.6046 219.396 96.7554 215.821 102.246 218.42C107.992 221.139 113.987 220.755 118.269 215.827C119.302 214.64 119.971 213.386 120.618 212.002C121.793 209.492 122.593 208.202 125.107 206.631C128.016 204.814 130.328 202.923 132.766 200.583C136.156 197.331 139.579 194.873 144.871 196.104C148.947 197.052 152.49 199.412 156.363 200.846C163.219 203.385 169.984 202.186 175.598 197.919C179.849 194.689 182.552 192.651 188.341 194.275C192.303 195.386 195.974 196.346 200.171 196.117C203.8 195.925 207.364 195.064 210.681 193.576C214.577 191.812 217.147 188.638 220.837 186.689C225.406 184.273 227.839 187.625 232.196 187.556C235.383 187.507 238.344 185.793 240.67 183.961C246.107 179.68 250.165 173.355 248.462 166.673Z" fill="#404040"/>
<path d="M665.165 309.301C653.111 241.533 656.398 203.748 656.398 203.748H524.416C524.416 203.748 527.703 241.533 515.65 309.301C505.734 365.05 465 460.441 465 460.441H715.814C715.814 460.441 675.08 365.05 665.165 309.301Z" fill="#404040"/>
<path d="M657.375 249.82C656.942 244.354 656.634 239.354 656.421 234.828H524.39C524.176 239.354 523.868 244.359 523.437 249.82H657.375Z" fill="#404040"/>
<path d="M668.001 322.953C666.892 318.205 665.935 313.634 665.165 309.301C664.821 307.365 664.496 305.461 664.172 303.573H516.643C516.323 305.461 515.994 307.366 515.65 309.301C514.879 313.634 513.922 318.205 512.813 322.953H668.001Z" fill="#404040"/>
<path d="M559.725 213.253C559.061 247.891 555.602 282.418 549.38 316.497C549.157 317.724 551.032 318.251 551.259 317.016C557.517 282.767 561 248.067 561.672 213.256C561.697 211.997 559.748 211.997 559.725 213.253Z" fill="#404040"/>
<path d="M538.633 364.733C534.225 385.142 529.125 405.377 523.333 425.44C522.984 426.648 524.864 427.164 525.212 425.958C531.006 405.9 536.106 385.664 540.512 365.252C540.776 364.028 538.898 363.506 538.633 364.733Z" fill="#404040"/>
<path d="M585.888 296.62C585.166 335.261 584.443 373.901 583.721 412.542C583.697 413.797 585.646 413.797 585.67 412.542L587.836 296.62C587.859 295.365 585.911 295.364 585.888 296.62Z" fill="#404040"/>
<path opacity="0.2" d="M657.035 309.301C646.291 241.537 649.222 203.748 649.222 203.748H605.748C605.748 203.748 603.239 241.533 612.433 309.301C620 365.05 632.044 460.441 632.044 460.441H702.175C702.175 460.441 665.874 365.05 657.035 309.301Z" fill="#404040"/>
<path d="M657.204 194.241H523.61C521.164 194.241 519.181 196.226 519.181 198.675V199.314C519.181 201.763 521.164 203.748 523.61 203.748H657.204C659.651 203.748 661.634 201.763 661.634 199.314V198.675C661.634 196.226 659.651 194.241 657.204 194.241Z" fill="#404040"/>
<path d="M624.254 258.159L543.654 258.112C541.147 258.112 541.142 262.011 543.654 262.016L624.254 262.064C626.762 262.056 626.766 258.159 624.254 258.159Z" fill="#404040"/>
<path d="M658.164 257.906L636.064 257.382C633.556 257.322 633.557 261.223 636.064 261.286L658.164 261.809C660.672 261.865 660.671 257.965 658.164 257.906Z" fill="#404040"/>
<path d="M574.824 329.963C553.151 329.669 531.479 329.721 509.807 330.118C507.304 330.165 507.296 334.064 509.807 334.022C531.479 333.625 553.151 333.573 574.824 333.867C577.332 333.901 577.333 329.997 574.824 329.963Z" fill="#404040"/>
<path d="M670.278 329.732L586.262 329.823C583.756 329.823 583.752 333.727 586.262 333.727L670.278 333.635C672.785 333.63 672.79 329.729 670.278 329.732Z" fill="#404040"/>
<g style="mix-blend-mode:overlay" opacity="0.2">
<path d="M715.814 460.443C715.814 460.443 695.903 413.816 680.534 366.701C658.113 414.667 611.137 376.079 565.569 381.826C538.21 385.276 504.246 405.262 480.683 421.453C471.886 444.315 465 460.443 465 460.443H715.814Z" fill="#404040"/>
</g>
<path d="M807.711 56.296C798.497 49.1703 787.675 48.868 776.317 51.5786C769.496 53.2072 762.687 55.6892 755.549 55.6903C748.015 55.6903 741.53 51.8151 734.116 51.2284C721.448 50.2245 710.677 57.0289 702.575 65.2243C700.325 67.4999 697.909 70.4068 694.712 71.5435C689.795 73.2926 687.682 70.6255 683.914 68.8797C679.982 67.0559 676.28 67.3917 672.364 69.1954C665.796 72.2195 661.572 76.8989 653.507 75.9998C647.258 75.3071 641.961 73.76 635.629 75.1487C621.796 78.1839 612.97 89.2439 608.24 100.75C607.216 103.24 606.68 106.244 604.954 108.415C601.09 113.283 595.833 111.334 590.768 113.316C586.255 115.083 583.894 119.086 582.504 123.142C581.652 125.623 581.304 128.217 580.471 130.702C579.795 132.721 579.184 134.16 577.598 135.667C575.234 137.917 572.257 137.786 569.145 138.534C564.235 139.709 560.194 143.126 558.48 147.466C556.218 153.191 559.633 158.695 557.805 164.533C557.693 164.883 557.599 165.234 557.511 165.583C555.638 169.188 556.121 173.614 560.073 176.807C568.228 183.375 577.524 174.933 585.387 172.637C593.04 170.406 598.331 175.993 605.581 176.438C609.742 176.693 613.152 175.118 616.229 172.681C620.557 169.253 623.695 164.308 629.584 162.893C636.381 161.26 643.742 163.981 650.452 164.747C654.65 165.227 658.92 165.245 662.872 163.659C667.877 161.651 670.697 157.482 674.307 153.984C680.418 148.062 685.854 149.988 693.271 152.002C698.689 153.472 703.686 153.34 708.602 150.544C713.387 147.823 715.125 143.953 718.396 140.122C724.782 132.643 734.596 138.854 742.576 139.601C754.652 140.732 766.351 134.784 773.796 126.378C777.49 122.206 780.35 117.482 782.566 112.541C784.119 109.083 785.202 103.068 789.089 101.368C791.715 100.219 795.217 100.587 798.058 100.141C808.602 98.4678 818.589 91.9534 819.917 81.7546C821.149 72.3043 815.466 62.2928 807.711 56.296Z" fill="#404040"/>
</g>
<circle opacity="0.2" cx="359" cy="200" r="200" fill="#4AA29A"/>
<circle cx="359" cy="200" r="180" fill="#89BDB9"/>
<mask id="mask0" mask-type="alpha" maskUnits="userSpaceOnUse" x="179" y="20" width="361" height="360">
<circle cx="359" cy="200" r="180" fill="#936A83"/>
</mask>
<g mask="url(#mask0)">
<g clip-path="url(#clip0)">
<path opacity="0.1" d="M502.396 282.815C502.396 282.815 531.428 235.989 506.114 205.583C471.323 163.793 475.024 132.631 413.727 119.067C352.43 105.503 317.984 151.503 280.99 158.93C231.039 168.959 211.323 194.722 207.685 224.519C203.746 256.767 217.671 282.815 217.671 282.815H502.396Z" fill="#34726C"/>
<path d="M314.013 227.369C307.491 185.051 309.27 161.457 309.27 161.457H237.85C237.85 161.457 239.628 185.051 233.106 227.372C227.74 262.184 205.698 321.75 205.698 321.75H341.42C341.42 321.75 319.38 262.181 314.013 227.369Z" fill="#4AA29A"/>
<path d="M238.058 167.723C238.079 169.59 238.078 171.862 238.028 174.533H309.09C309.041 171.862 309.039 169.59 309.061 167.723H238.058Z" fill="#F3B36A"/>
<path d="M304.571 256.267C299.704 230.841 297.1 205.034 296.789 179.147C296.778 178.248 295.383 178.288 295.394 179.187C295.714 205.198 298.339 231.13 303.237 256.677C303.406 257.557 304.74 257.143 304.571 256.267Z" fill="#71D3CA"/>
<path d="M249.656 167.393C249.299 188.986 247.429 210.528 244.058 231.859C243.937 232.626 244.952 232.954 245.074 232.183C248.466 210.745 250.349 189.094 250.71 167.391C250.723 166.609 249.668 166.609 249.656 167.393Z" fill="#71D3CA"/>
<path d="M238.242 261.982C235.857 274.727 233.096 287.362 229.961 299.89C229.772 300.644 230.789 300.967 230.977 300.214C234.113 287.688 236.872 275.052 239.256 262.307C239.402 261.542 238.386 261.216 238.242 261.982Z" fill="#71D3CA"/>
<path d="M267.414 219.451C267.024 243.58 266.633 267.709 266.242 291.838C266.229 292.622 267.283 292.622 267.296 291.838C267.687 267.709 268.078 243.58 268.468 219.451C268.481 218.667 267.427 218.667 267.414 219.451Z" fill="#71D3CA"/>
<g style="mix-blend-mode:overlay" opacity="0.2">
<path d="M309.611 227.369C303.798 185.051 305.383 161.457 305.383 161.457H281.86C281.86 161.457 280.503 185.051 285.478 227.372C289.573 262.184 296.09 321.75 296.09 321.75H334.04C334.04 321.75 314.395 262.181 309.611 227.369Z" fill="black"/>
</g>
<path d="M309.526 155.521H237.591C236.169 155.521 235.016 156.675 235.016 158.099V158.881C235.016 160.304 236.169 161.458 237.591 161.458H309.526C310.948 161.458 312.101 160.304 312.101 158.881V158.099C312.101 156.675 310.948 155.521 309.526 155.521Z" fill="#9CF9F0"/>
<path d="M268.933 173.98C268.87 173.088 267.474 173.081 267.538 173.98C268.303 184.792 268.238 195.646 267.342 206.448C267.268 207.344 268.664 207.339 268.737 206.448C269.633 195.646 269.699 184.792 268.933 173.98Z" fill="#71D3CA"/>
<path d="M273.52 184.112C261.343 184.253 249.174 183.94 237.015 183.172C236.118 183.115 236.121 184.512 237.015 184.569C249.168 185.337 261.337 185.65 273.52 185.509C274.417 185.499 274.42 184.102 273.52 184.112Z" fill="#5FBAB2"/>
<path d="M309.805 184.104C299.368 183.88 288.93 183.872 278.492 184.078C277.595 184.096 277.592 185.493 278.492 185.475C288.929 185.269 299.367 185.277 309.805 185.501C310.703 185.52 310.703 184.123 309.805 184.104Z" fill="#5FBAB2"/>
<path d="M255.81 236.247C247.63 235.59 239.421 235.373 231.218 235.597C230.322 235.622 230.319 237.019 231.218 236.995C239.421 236.77 247.63 236.987 255.81 237.644C256.705 237.716 256.7 236.318 255.81 236.247Z" fill="#5FBAB2"/>
<path d="M288.443 236.26C279.206 236.869 269.941 236.907 260.7 236.376C259.803 236.325 259.806 237.722 260.7 237.773C269.941 238.304 279.206 238.265 288.443 237.656C289.334 237.598 289.341 236.2 288.443 236.26Z" fill="#5FBAB2"/>
<path d="M316.448 234.847C309.363 235.62 302.235 235.922 295.11 235.752C294.211 235.73 294.212 237.128 295.11 237.149C302.235 237.319 309.363 237.017 316.448 236.243C317.329 236.147 317.341 234.749 316.448 234.847Z" fill="#5FBAB2"/>
<path opacity="0.5" d="M260.437 156.391C256.56 156.4 252.683 156.422 248.807 156.456C245.31 156.488 241.657 156.237 238.199 156.823C237.316 156.973 237.69 158.32 238.57 158.171C242.173 157.559 246.056 157.877 249.701 157.845C253.278 157.815 256.857 157.795 260.437 157.785C261.334 157.782 261.336 156.385 260.437 156.391Z" fill="white"/>
<path opacity="0.5" d="M279.015 156.076L264.558 156.219C263.661 156.228 263.659 157.626 264.558 157.617L279.015 157.473C279.912 157.464 279.915 156.067 279.015 156.076Z" fill="white"/>
<g style="mix-blend-mode:overlay" opacity="0.2">
<path d="M258.435 229.595C248.997 231.889 238.269 240.4 228.133 250.797C219.736 283.815 205.698 321.747 205.698 321.747H341.42C341.42 321.747 323.151 272.379 315.83 237.264C300.714 248.92 279.332 224.522 258.435 229.595Z" fill="black"/>
</g>
<path d="M391.986 101.885C390.78 97.1594 386.241 92.6757 381.676 90.3361C379.207 89.0685 376.768 88.8065 373.98 88.9321C371.192 89.0577 369.236 88.8361 367.372 86.6384C366.649 85.783 366.046 84.8378 365.229 84.047C361.134 80.0891 355.293 82.474 350.139 82.0865C346.372 81.804 342.819 80.3288 339.138 79.6485C335.769 79.028 332.309 78.8137 328.891 79.2042C323.32 79.841 317.937 82.0774 314.239 85.9877C312.452 87.877 311.504 90.4949 309.505 92.194C306.294 94.9218 301.701 93.0542 297.851 93.5504C290.884 94.4485 288.66 99.3831 285.792 104.383C284.728 106.237 283.576 107.661 281.334 108.444C279.699 109.014 277.869 109.017 276.215 109.562C273.822 110.347 271.874 111.856 270.436 113.743C266.209 119.296 269.535 126.117 265.908 131.642C264.055 134.463 262.833 140.378 269.409 143.051C271.024 143.707 272.622 143.594 274.167 142.886C277.379 141.415 278.242 138.735 282.358 140.683C286.666 142.722 291.162 142.434 294.372 138.739C295.146 137.849 295.648 136.909 296.134 135.871C297.014 133.99 297.614 133.022 299.499 131.844C301.68 130.482 303.414 129.064 305.241 127.31C307.783 124.871 310.35 123.029 314.317 123.951C317.373 124.663 320.029 126.432 322.933 127.507C328.074 129.411 333.146 128.512 337.355 125.313C340.542 122.89 342.569 121.363 346.909 122.58C349.88 123.413 352.632 124.133 355.779 123.961C358.5 123.817 361.172 123.171 363.659 122.056C366.58 120.734 368.507 118.354 371.274 116.892C374.699 115.081 376.524 117.594 379.791 117.543C382.18 117.506 384.4 116.22 386.144 114.847C390.22 111.638 393.263 106.895 391.986 101.885Z" fill="#79ADA9"/>
<path d="M477.185 198.443C468.148 147.632 470.612 119.303 470.612 119.303H371.657C371.657 119.303 374.122 147.632 365.085 198.443C357.65 240.241 327.109 311.762 327.109 311.762H515.16C515.16 311.762 484.619 240.241 477.185 198.443Z" fill="#71D3CA"/>
<path d="M471.345 153.846C471.021 149.748 470.789 145.998 470.63 142.605H371.638C371.477 145.998 371.246 149.751 370.923 153.846H471.345Z" fill="#4AA29A"/>
<path d="M479.312 208.678C478.48 205.119 477.763 201.691 477.186 198.443C476.927 196.991 476.684 195.564 476.441 194.148H365.829C365.589 195.564 365.343 196.992 365.085 198.443C364.507 201.691 363.789 205.119 362.958 208.678H479.312Z" fill="#4AA29A"/>
<path d="M398.13 126.429C397.633 152.399 395.039 178.286 390.374 203.838C390.207 204.757 391.613 205.152 391.783 204.226C396.475 178.548 399.086 152.531 399.591 126.431C399.609 125.487 398.148 125.487 398.13 126.429Z" fill="#5FBAB2"/>
<path d="M382.316 240.003C379.011 255.305 375.188 270.477 370.845 285.519C370.583 286.425 371.993 286.812 372.253 285.908C376.598 270.869 380.422 255.697 383.725 240.392C383.923 239.475 382.515 239.083 382.316 240.003Z" fill="#5FBAB2"/>
<path d="M417.747 188.934C417.205 217.906 416.664 246.877 416.122 275.848C416.104 276.789 417.565 276.789 417.583 275.848L419.207 188.934C419.224 187.994 417.764 187.993 417.747 188.934Z" fill="#5FBAB2"/>
<g style="mix-blend-mode:overlay" opacity="0.2">
<path d="M471.09 198.443C463.035 147.636 465.232 119.303 465.232 119.303H432.636C432.636 119.303 430.756 147.632 437.649 198.443C443.323 240.241 452.353 311.762 452.353 311.762H504.934C504.934 311.762 477.717 240.241 471.09 198.443Z" fill="black"/>
</g>
<path d="M471.217 112.174H371.053C369.219 112.174 367.732 113.662 367.732 115.498V115.978C367.732 117.814 369.219 119.302 371.053 119.302H471.217C473.051 119.302 474.538 117.814 474.538 115.978V115.498C474.538 113.662 473.051 112.174 471.217 112.174Z" fill="#9CF9F0"/>
<path d="M446.512 160.098L386.081 160.062C384.201 160.062 384.198 162.986 386.081 162.99L446.512 163.026C448.392 163.019 448.395 160.098 446.512 160.098Z" fill="#4AA29A"/>
<path d="M471.936 159.907L455.367 159.514C453.486 159.47 453.487 162.395 455.367 162.441L471.936 162.834C473.817 162.875 473.816 159.952 471.936 159.907Z" fill="#4AA29A"/>
<path d="M409.451 213.933C393.202 213.713 376.953 213.752 360.704 214.05C358.827 214.085 358.821 217.009 360.704 216.977C376.953 216.679 393.202 216.64 409.451 216.861C411.331 216.887 411.332 213.959 409.451 213.933Z" fill="#4AA29A"/>
<path d="M481.019 213.762L418.027 213.829C416.148 213.829 416.145 216.757 418.027 216.757L481.019 216.688C482.899 216.684 482.902 213.759 481.019 213.762Z" fill="#4AA29A"/>
<g style="mix-blend-mode:overlay" opacity="0.2">
<path d="M515.16 311.763C515.16 311.763 500.232 276.803 488.709 241.479C471.898 277.441 436.678 248.51 402.512 252.819C381.999 255.405 356.534 270.39 338.868 282.53C332.272 299.671 327.109 311.763 327.109 311.763H515.16Z" fill="black"/>
</g>
<path d="M584.061 8.74787C577.153 3.40529 569.039 3.17864 560.523 5.21096C555.409 6.43202 550.304 8.29289 544.952 8.29373C539.303 8.29373 534.441 5.38826 528.883 4.94835C519.385 4.19563 511.309 9.29735 505.234 15.442C503.547 17.1481 501.736 19.3276 499.338 20.1799C495.652 21.4913 494.068 19.4916 491.243 18.1827C488.295 16.8153 485.519 17.067 482.583 18.4194C477.659 20.6867 474.492 24.1952 468.445 23.5211C463.76 23.0017 459.788 21.8417 455.04 22.883C444.669 25.1587 438.052 33.451 434.505 42.0779C433.737 43.9447 433.335 46.1969 432.041 47.8245C429.144 51.4743 425.202 50.0132 421.405 51.4994C418.022 52.8242 416.252 55.8258 415.209 58.8668C414.571 60.7268 414.309 62.6713 413.685 64.5347C413.178 66.0485 412.72 67.1273 411.531 68.2573C409.759 69.9442 407.526 69.8463 405.193 70.4067C401.512 71.2882 398.482 73.8499 397.197 77.1041C395.501 81.3963 398.062 85.5228 396.691 89.9002C396.607 90.1628 396.536 90.4254 396.47 90.6872C395.066 93.3903 395.428 96.7089 398.392 99.1025C404.505 104.027 411.475 97.6975 417.371 95.9763C423.109 94.3036 427.076 98.492 432.512 98.8257C435.631 99.0172 438.188 97.8363 440.495 96.0089C443.74 93.4388 446.093 89.7313 450.508 88.6708C455.604 87.4464 461.123 89.4862 466.154 90.0608C469.302 90.4204 472.503 90.4338 475.467 89.2445C479.219 87.7391 481.333 84.6137 484.04 81.9909C488.621 77.5507 492.698 78.9951 498.258 80.5047C502.321 81.607 506.067 81.5083 509.753 79.4116C513.34 77.3718 514.644 74.4696 517.096 71.5976C521.884 65.9899 529.242 70.6467 535.225 71.207C544.28 72.0551 553.051 67.5957 558.633 61.293C561.403 58.1651 563.547 54.6231 565.209 50.9181C566.373 48.3254 567.185 43.8159 570.099 42.5413C572.068 41.6798 574.694 41.9558 576.824 41.6213C584.729 40.3668 592.217 35.4825 593.213 27.8358C594.136 20.7503 589.876 13.2441 584.061 8.74787Z" fill="#79ADA9"/>
<path d="M450.188 185.389H424.008V382.002H450.188V185.389Z" fill="#FFE6D6"/>
<path d="M450.188 195.83H424.008V209.418H450.188V195.83Z" fill="#F3B36A"/>
<path d="M450.188 213.188H424.008V226.776H450.188V213.188Z" fill="#F3B36A"/>
<g style="mix-blend-mode:overlay" opacity="0.5">
<path d="M447.279 185.389H439.371V382.002H447.279V185.389Z" fill="black"/>
</g>
<path d="M451.678 188.736H422.516V191.12H451.678V188.736Z" fill="#C9AA96"/>
<path d="M451.678 230.225H422.516V232.608H451.678V230.225Z" fill="#C9AA96"/>
<path d="M451.678 242.598H422.516V244.981H451.678V242.598Z" fill="#C9AA96"/>
<path d="M444.358 176.047H428.979V185.388H444.358V176.047Z" fill="#66564C"/>
<path d="M435.864 185.865C432.595 186.051 429.325 186.097 426.053 186.006C424.728 185.969 424.728 188.03 426.053 188.067C429.327 188.159 432.597 188.112 435.864 187.926C437.182 187.852 437.191 185.79 435.864 185.865Z" fill="#FFF6F0"/>
<path d="M428.303 194.082C428.376 192.757 426.316 192.761 426.243 194.082C426.024 198.04 426.049 202.008 426.317 205.962C426.406 207.279 428.467 207.289 428.377 205.962C428.108 202.008 428.084 198.04 428.303 194.082Z" fill="#FFF6F0"/>
<path d="M435.019 234.363C432.076 234.671 429.153 234.017 426.21 234.274C424.901 234.387 424.888 236.45 426.21 236.335C429.154 236.08 432.077 236.734 435.019 236.424C436.324 236.288 436.334 234.225 435.019 234.363Z" fill="#FFF6F0"/>
<path d="M426.973 249.858C426.089 254.209 425.933 258.677 426.509 263.08C426.68 264.377 428.741 264.394 428.568 263.08C427.999 258.863 428.131 254.58 428.959 250.406C429.216 249.11 427.232 248.556 426.973 249.858Z" fill="#FFF6F0"/>
<path d="M480.906 210.895H463.333V382.002H480.906V210.895Z" fill="#FFE6D6"/>
<path d="M480.906 219.98H463.333V225.43H480.906V219.98Z" fill="#F3B36A"/>
<path d="M480.906 228.801H463.333V234.25H480.906V228.801Z" fill="#F3B36A"/>
<path d="M476.391 201.852H467.848L465.286 210.892H478.954L476.391 201.852Z" fill="#80301A"/>
<g style="mix-blend-mode:overlay" opacity="0.5">
<path d="M478.953 210.895H473.645V382.002H478.953V210.895Z" fill="black"/>
</g>
<path d="M475.155 212.008C471.799 212.064 468.443 212.049 465.087 211.963C463.83 211.931 463.831 213.886 465.087 213.918C468.443 214.004 471.799 214.018 475.155 213.962C476.411 213.941 476.414 211.986 475.155 212.008Z" fill="#FFFAF7"/>
<path d="M467.151 232.358C467.207 231.101 465.254 231.103 465.199 232.358C464.946 238.164 464.928 243.968 465.146 249.771C465.193 251.025 467.146 251.031 467.099 249.771C466.881 243.964 466.898 238.16 467.151 232.358Z" fill="#FFFAF7"/>
<path d="M490.377 262.85H399.881V288.845H490.377V262.85Z" fill="#34726C"/>
<path d="M371.515 270.363V263.706H373.415V265.418H375.411V257.524H381.206V262.09H384.436V252.008H388.901V270.363H371.515Z" fill="#34726C"/>
<path d="M411.101 259.9H407.102V265.797H411.101V259.9Z" fill="#34726C"/>
<path d="M421.297 259.9H417.298V265.797H421.297V259.9Z" fill="#34726C"/>
<path d="M494.273 268.936H339.024V288.844H494.273V268.936Z" fill="#4AA29A"/>
<path d="M403.464 271.703C383.409 272.03 363.351 272.099 343.292 271.908C341.988 271.896 341.987 273.925 343.292 273.937C363.35 274.128 383.407 274.059 403.464 273.731C404.766 273.711 404.771 271.682 403.464 271.703Z" fill="#34726C"/>
<path d="M431.65 271.701L410.871 271.71C409.566 271.71 409.642 273.739 410.946 273.738L431.724 273.729C433.03 273.728 432.953 271.701 431.65 271.701Z" fill="#34726C"/>
<path d="M369.481 279.134C369.481 278.448 369.511 277.785 368.809 277.409C367.965 276.957 366.418 277.248 365.496 277.231C363.777 277.197 362.06 277.112 360.344 276.991C359.775 276.951 359.455 277.318 359.385 277.75C359.267 277.916 359.202 278.115 359.2 278.319C359.173 279.393 358.832 281.336 359.487 282.284C360.006 283.034 361.054 282.846 361.843 282.845C363.294 282.841 364.745 282.821 366.196 282.784C367.055 282.762 368.545 283.012 369.168 282.22C369.741 281.492 369.482 279.989 369.481 279.134ZM364.331 280.793C363.394 280.807 362.207 280.977 361.202 280.882C361.125 280.308 361.156 279.665 361.19 279.069C362.839 279.173 364.489 279.247 366.141 279.271C366.532 279.276 367.024 279.354 367.41 279.281C367.41 279.745 367.419 280.344 367.418 280.781C366.425 280.92 365.263 280.779 364.331 280.793Z" fill="#34726C"/>
<path d="M386.835 279.134C386.835 278.448 386.865 277.785 386.163 277.409C385.319 276.957 383.772 277.248 382.85 277.231C381.131 277.197 379.414 277.112 377.698 276.991C377.128 276.951 376.809 277.318 376.739 277.75C376.621 277.916 376.556 278.115 376.554 278.319C376.528 279.393 376.186 281.336 376.842 282.284C377.361 283.034 378.408 282.846 379.198 282.845C380.648 282.841 382.1 282.821 383.551 282.784C384.41 282.762 385.899 283.012 386.522 282.22C387.095 281.492 386.837 279.989 386.835 279.134ZM381.685 280.793C380.748 280.807 379.562 280.977 378.556 280.882C378.481 280.308 378.51 279.665 378.545 279.069C380.193 279.173 381.843 279.247 383.495 279.271C383.887 279.276 384.379 279.354 384.765 279.281C384.765 279.745 384.774 280.344 384.772 280.781C383.779 280.92 382.616 280.779 381.685 280.793Z" fill="#34726C"/>
<path d="M405.055 279.134C405.055 278.448 405.085 277.785 404.383 277.409C403.539 276.957 401.992 277.248 401.071 277.231C399.351 277.197 397.634 277.112 395.919 276.991C395.349 276.951 395.029 277.318 394.959 277.75C394.84 277.916 394.776 278.115 394.775 278.319C394.747 279.393 394.406 281.336 395.061 282.284C395.581 283.034 396.628 282.846 397.417 282.845C398.868 282.841 400.319 282.821 401.771 282.784C402.63 282.762 404.119 283.012 404.742 282.22C405.315 281.492 405.056 279.989 405.055 279.134ZM399.905 280.793C398.968 280.807 397.782 280.977 396.777 280.882C396.7 280.308 396.73 279.665 396.764 279.069C398.413 279.173 400.063 279.247 401.715 279.271C402.106 279.276 402.598 279.354 402.984 279.281C402.984 279.745 402.993 280.344 402.992 280.781C401.999 280.92 400.834 280.779 399.905 280.793Z" fill="#34726C"/>
<path d="M422.409 279.134C422.409 278.448 422.439 277.785 421.737 277.409C420.893 276.957 419.346 277.248 418.425 277.231C416.705 277.197 414.988 277.112 413.273 276.991C412.703 276.951 412.383 277.318 412.314 277.75C412.195 277.916 412.13 278.115 412.129 278.319C412.101 279.393 411.76 281.336 412.415 282.284C412.935 283.034 413.983 282.846 414.771 282.845C416.223 282.841 417.674 282.821 419.125 282.784C419.984 282.762 421.473 283.012 422.096 282.22C422.669 281.492 422.41 279.989 422.409 279.134ZM417.259 280.793C416.322 280.807 415.136 280.977 414.131 280.882C414.054 280.308 414.085 279.665 414.118 279.069C415.767 279.173 417.417 279.247 419.07 279.271C419.46 279.276 419.952 279.354 420.338 279.281C420.338 279.745 420.347 280.344 420.346 280.781C419.352 280.92 418.191 280.779 417.259 280.793Z" fill="#34726C"/>
<path d="M508.118 373.826H218.794V382.002H508.118V373.826Z" fill="#34726C"/>
<path d="M501.467 291.383H225.447V373.827H501.467V291.383Z" fill="#459991"/>
<path d="M501.467 291.383H475.347V373.827H501.467V291.383Z" fill="#3C857E"/>
<path d="M501.467 291.383H225.447V294.68H501.467V291.383Z" fill="#34726C"/>
<path d="M504.502 286.31H222.411V291.382H504.502V286.31Z" fill="#3C857E"/>
<path d="M251.627 315.771H242.168C241.642 315.771 241.137 315.561 240.765 315.189C240.393 314.816 240.184 314.311 240.183 313.784V306.938C240.184 306.411 240.393 305.906 240.765 305.534C241.137 305.161 241.642 304.952 242.168 304.951H251.627C252.153 304.952 252.658 305.161 253.03 305.534C253.402 305.906 253.611 306.411 253.612 306.938V313.784C253.611 314.311 253.402 314.816 253.03 315.189C252.658 315.561 252.153 315.771 251.627 315.771ZM251.585 306.938L242.17 306.98L242.212 313.784L251.585 313.742V306.938Z" fill="#5FBAB2"/>
<path d="M274.09 305.965H262.689V314.756H274.09V305.965Z" fill="#34726C"/>
<path d="M295.582 305.965H284.181V314.756H295.582V305.965Z" fill="#34726C"/>
<path d="M317.074 305.965H305.673V314.756H317.074V305.965Z" fill="#34726C"/>
<path d="M338.566 305.965H327.165V314.756H338.566V305.965Z" fill="#34726C"/>
<path d="M359.087 315.771H349.629C349.103 315.771 348.598 315.561 348.226 315.189C347.854 314.816 347.645 314.311 347.644 313.784V306.938C347.645 306.411 347.854 305.906 348.226 305.534C348.598 305.161 349.103 304.952 349.629 304.951H359.087C359.613 304.952 360.117 305.161 360.489 305.534C360.861 305.907 361.07 306.412 361.071 306.938V313.784C361.07 314.311 360.861 314.816 360.489 315.188C360.117 315.561 359.613 315.771 359.087 315.771ZM359.045 306.938L349.629 306.98L349.671 313.784L359.045 313.742V306.938Z" fill="#5FBAB2"/>
<path d="M380.579 315.771H371.121C370.595 315.771 370.09 315.561 369.718 315.189C369.346 314.816 369.137 314.311 369.136 313.784V306.938C369.137 306.411 369.346 305.906 369.718 305.534C370.09 305.161 370.595 304.952 371.121 304.951H380.579C381.105 304.952 381.609 305.161 381.982 305.534C382.354 305.906 382.563 306.411 382.564 306.938V313.784C382.563 314.311 382.354 314.816 381.982 315.189C381.609 315.561 381.105 315.771 380.579 315.771ZM380.537 306.938L371.121 306.98L371.163 313.784L380.537 313.742V306.938Z" fill="#5FBAB2"/>
<path d="M403.043 305.965H391.642V314.756H403.043V305.965Z" fill="#34726C"/>
<path d="M424.535 305.965H413.134V314.756H424.535V305.965Z" fill="#34726C"/>
<path d="M445.053 315.771H435.595C435.069 315.771 434.564 315.561 434.192 315.189C433.82 314.816 433.611 314.311 433.61 313.784V306.938C433.611 306.411 433.82 305.906 434.192 305.534C434.564 305.161 435.069 304.952 435.595 304.951H445.053C445.579 304.952 446.084 305.161 446.456 305.534C446.828 305.906 447.037 306.411 447.038 306.938V313.784C447.037 314.311 446.828 314.816 446.456 315.189C446.084 315.561 445.579 315.771 445.053 315.771ZM445.011 306.938L435.595 306.98L435.637 313.784L445.011 313.742V306.938Z" fill="#5FBAB2"/>
<path d="M467.52 305.965H456.119V314.756H467.52V305.965Z" fill="#34726C"/>
<path d="M251.627 345.305H242.168C241.642 345.304 241.138 345.095 240.765 344.723C240.393 344.35 240.184 343.845 240.183 343.318V336.473C240.184 335.946 240.393 335.441 240.765 335.069C241.138 334.696 241.642 334.487 242.168 334.486H251.627C252.153 334.487 252.658 334.696 253.03 335.068C253.402 335.441 253.611 335.946 253.612 336.473V343.318C253.611 343.845 253.402 344.35 253.03 344.723C252.658 345.095 252.153 345.304 251.627 345.305ZM251.585 336.473L242.17 336.514L242.212 343.318L251.585 343.277V336.473Z" fill="#5FBAB2"/>
<path d="M274.09 335.5H262.689V344.291H274.09V335.5Z" fill="#34726C"/>
<path d="M294.61 345.305H285.152C284.626 345.304 284.122 345.095 283.75 344.723C283.378 344.35 283.168 343.845 283.167 343.318V336.473C283.168 335.946 283.378 335.441 283.75 335.069C284.122 334.696 284.626 334.487 285.152 334.486H294.61C295.136 334.487 295.641 334.696 296.013 335.069C296.385 335.441 296.594 335.946 296.594 336.473V343.318C296.594 343.845 296.385 344.35 296.013 344.722C295.641 345.095 295.136 345.304 294.61 345.305ZM294.568 336.473L285.152 336.514L285.194 343.318L294.568 343.277V336.473Z" fill="#5FBAB2"/>
<path d="M316.102 345.305H306.645C306.119 345.304 305.614 345.095 305.242 344.723C304.87 344.35 304.661 343.845 304.66 343.318V336.473C304.661 335.946 304.87 335.441 305.242 335.069C305.614 334.696 306.119 334.487 306.645 334.486H316.102C316.628 334.487 317.133 334.696 317.505 335.068C317.877 335.441 318.086 335.946 318.087 336.473V343.318C318.086 343.845 317.877 344.35 317.505 344.723C317.133 345.095 316.628 345.304 316.102 345.305ZM316.061 336.473L306.645 336.514L306.687 343.318L316.061 343.277V336.473Z" fill="#5FBAB2"/>
<path d="M338.566 335.5H327.165V344.291H338.566V335.5Z" fill="#34726C"/>
<path d="M359.087 345.305H349.629C349.103 345.304 348.598 345.095 348.226 344.723C347.854 344.35 347.645 343.845 347.644 343.318V336.473C347.645 335.946 347.854 335.441 348.226 335.069C348.598 334.696 349.103 334.487 349.629 334.486H359.087C359.613 334.487 360.117 334.696 360.489 335.069C360.861 335.441 361.07 335.946 361.071 336.473V343.318C361.07 343.845 360.861 344.35 360.489 344.722C360.117 345.095 359.613 345.304 359.087 345.305ZM359.045 336.473L349.629 336.514L349.671 343.318L359.045 343.277V336.473Z" fill="#5FBAB2"/>
<path d="M381.551 335.5H370.15V344.291H381.551V335.5Z" fill="#34726C"/>
<path d="M402.072 345.305H392.614C392.088 345.304 391.583 345.095 391.211 344.723C390.839 344.35 390.629 343.845 390.629 343.318V336.473C390.629 335.946 390.839 335.441 391.211 335.069C391.583 334.696 392.088 334.487 392.614 334.486H402.072C402.598 334.487 403.102 334.696 403.474 335.069C403.846 335.441 404.055 335.946 404.056 336.473V343.318C404.055 343.845 403.846 344.35 403.474 344.722C403.102 345.095 402.598 345.304 402.072 345.305ZM402.03 336.473L392.614 336.514L392.656 343.318L402.03 343.277V336.473Z" fill="#5FBAB2"/>
<path d="M423.563 345.305H414.106C413.58 345.304 413.075 345.095 412.703 344.723C412.331 344.35 412.121 343.845 412.121 343.318V336.473C412.121 335.946 412.331 335.441 412.703 335.069C413.075 334.696 413.58 334.487 414.106 334.486H423.563C424.089 334.487 424.594 334.696 424.966 335.069C425.338 335.441 425.547 335.946 425.547 336.473V343.318C425.547 343.845 425.338 344.35 424.966 344.722C424.594 345.095 424.089 345.304 423.563 345.305ZM423.522 336.473L414.106 336.514L414.147 343.318L423.522 343.277V336.473Z" fill="#5FBAB2"/>
<path d="M445.053 345.305H435.595C435.069 345.304 434.564 345.095 434.192 344.723C433.82 344.35 433.611 343.845 433.61 343.318V336.473C433.611 335.946 433.82 335.441 434.192 335.069C434.564 334.696 435.069 334.487 435.595 334.486H445.053C445.579 334.487 446.084 334.696 446.456 335.069C446.828 335.441 447.037 335.946 447.038 336.473V343.318C447.037 343.845 446.828 344.35 446.456 344.723C446.084 345.095 445.579 345.304 445.053 345.305ZM445.011 336.473L435.595 336.514L435.637 343.318L445.011 343.277V336.473Z" fill="#5FBAB2"/>
<path d="M467.52 335.5H456.119V344.291H467.52V335.5Z" fill="#34726C"/>
<path d="M257.821 373.731L252.597 373.615V365.035H241.197V373.362L218.775 372.864C217.471 372.835 217.471 374.864 218.775 374.893L257.82 375.76C259.125 375.789 259.125 373.76 257.821 373.731Z" fill="#34726C"/>
<path d="M273.118 374.838H263.66C263.134 374.837 262.629 374.628 262.257 374.255C261.885 373.883 261.676 373.377 261.675 372.851V366.005C261.676 365.478 261.885 364.973 262.257 364.6C262.629 364.228 263.134 364.018 263.66 364.018H273.118C273.644 364.018 274.148 364.228 274.52 364.6C274.892 364.973 275.102 365.478 275.102 366.005V372.851C275.102 373.377 274.892 373.882 274.52 374.255C274.148 374.627 273.644 374.837 273.118 374.838ZM273.076 366.005L263.66 366.047L263.702 372.851L273.076 372.809V366.005Z" fill="#5FBAB2"/>
<path d="M320.129 373.495C319.11 373.525 318.092 373.534 317.073 373.534V365.035H305.673V373.157C302.308 372.986 298.944 372.818 295.581 372.774V365.035H284.181V373.308C284.003 373.33 283.816 373.345 283.635 373.369C282.36 373.538 282.343 375.569 283.635 375.398C295.779 373.795 307.949 375.893 320.129 375.524C321.429 375.484 321.436 373.455 320.129 373.495Z" fill="#34726C"/>
<path d="M342.155 365.035H323.577V382.001H342.155V365.035Z" fill="#34726C"/>
<path d="M360.058 365.035H348.657V373.826H360.058V365.035Z" fill="#34726C"/>
<path d="M380.579 374.838H371.121C370.595 374.837 370.09 374.627 369.718 374.255C369.346 373.882 369.137 373.377 369.136 372.851V366.005C369.137 365.478 369.346 364.973 369.718 364.6C370.09 364.228 370.595 364.018 371.121 364.018H380.579C381.105 364.018 381.609 364.228 381.982 364.6C382.354 364.973 382.563 365.478 382.564 366.005V372.851C382.563 373.377 382.354 373.882 381.982 374.255C381.609 374.627 381.105 374.837 380.579 374.838ZM380.537 366.005L371.121 366.047L371.163 372.851L380.537 372.809V366.005Z" fill="#5FBAB2"/>
<path d="M403.043 365.035H391.642V373.826H403.043V365.035Z" fill="#34726C"/>
<path d="M424.535 365.035H413.134V373.826H424.535V365.035Z" fill="#34726C"/>
<path d="M445.053 374.838H435.595C435.069 374.837 434.564 374.627 434.192 374.255C433.82 373.882 433.611 373.377 433.61 372.851V366.005C433.611 365.478 433.82 364.973 434.192 364.6C434.564 364.228 435.069 364.018 435.595 364.018H445.053C445.579 364.018 446.084 364.228 446.456 364.6C446.828 364.973 447.037 365.478 447.038 366.005V372.851C447.037 373.377 446.828 373.882 446.456 374.255C446.084 374.627 445.579 374.837 445.053 374.838ZM445.011 366.005L435.595 366.047L435.637 372.851L445.011 372.809V366.005Z" fill="#5FBAB2"/>
<path d="M466.548 374.838H457.09C456.564 374.837 456.06 374.627 455.688 374.255C455.316 373.882 455.106 373.377 455.105 372.851V366.005C455.106 365.478 455.316 364.973 455.688 364.6C456.06 364.228 456.564 364.018 457.09 364.018H466.548C467.074 364.018 467.579 364.228 467.951 364.6C468.323 364.973 468.532 365.478 468.532 366.005V372.851C468.532 373.377 468.323 373.882 467.951 374.255C467.579 374.627 467.074 374.837 466.548 374.838ZM466.506 366.005L457.09 366.047L457.132 372.851L466.506 372.809V366.005Z" fill="#5FBAB2"/>
<path d="M323.089 320.25C293.413 320.517 263.739 320.428 234.065 319.983C232.759 319.963 232.76 321.319 234.065 321.334C263.735 321.78 293.409 321.869 323.089 321.601C324.391 321.589 324.395 320.24 323.089 320.25Z" fill="#5FBAB2"/>
<path d="M442.222 320.156C407.516 320.772 372.808 320.663 338.096 319.829C336.792 319.797 336.793 321.149 338.096 321.18C372.79 322.014 407.499 322.123 442.222 321.507C443.524 321.485 443.529 320.132 442.222 320.156Z" fill="#5FBAB2"/>
<path d="M469.035 320.036C463.411 319.995 457.795 320.099 452.187 320.35C450.893 320.408 450.883 321.759 452.187 321.701C457.798 321.45 463.414 321.345 469.035 321.387C470.339 321.396 470.34 320.046 469.035 320.036Z" fill="#5FBAB2"/>
<path d="M298.01 350.313C281.164 350.18 264.316 350.188 247.465 350.335C246.163 350.346 246.159 351.698 247.465 351.687C264.311 351.54 281.159 351.533 298.01 351.665C299.316 351.674 299.316 350.323 298.01 350.313Z" fill="#5FBAB2"/>
<path d="M424.175 349.729C388.201 349.576 352.227 349.525 316.252 349.575C314.947 349.575 314.945 350.929 316.252 350.927C352.227 350.877 388.201 350.928 424.175 351.081C425.479 351.087 425.479 349.735 424.175 349.729Z" fill="#5FBAB2"/>
<path d="M475.933 299.116C475.866 297.817 473.839 297.809 473.906 299.116C474.9 318.548 475.03 337.992 474.297 357.45C474.248 358.756 476.275 358.754 476.323 357.45C477.057 338.007 476.926 318.562 475.933 299.116Z" fill="#34726C"/>
<path d="M476.643 363.465C476.75 362.164 474.723 362.171 474.616 363.465C474.317 367.071 475.15 370.626 475.019 374.231C474.973 375.537 476.999 375.535 477.046 374.231C477.172 370.626 476.344 367.071 476.643 363.465Z" fill="#34726C"/>
</g>
</g>
<defs>
<clipPath id="clip0">
<rect width="454" height="354" fill="white" transform="translate(179 26)"/>
</clipPath>
</defs>
</svg>
