<svg width="1254" height="603" viewBox="0 0 1254 603" fill="none" xmlns="http://www.w3.org/2000/svg">
<g opacity="0.1">
<rect width="7.99998" height="554" transform="matrix(-4.37114e-08 1 1 4.37114e-08 0.00369263 236)" fill="#404040"/>
<rect x="1253" y="250" width="7.99998" height="402" transform="rotate(90 1253 250)" fill="#404040"/>
<rect width="7.99999" height="215" transform="matrix(4.37114e-08 -1 -1 -4.37114e-08 215 455)" fill="#404040"/>
<rect width="8" height="159" transform="matrix(-1 0 0 1 39 266)" fill="#404040"/>
<rect x="210" y="447" width="8" height="158" fill="#404040"/>
<rect width="8" height="73" transform="matrix(1 0 0 -1 1215 353)" fill="#404040"/>
<rect x="778" y="683" width="8" height="190" transform="rotate(180 778 683)" fill="#404040"/>
<rect width="7.99998" height="552" transform="matrix(-4.37114e-08 1 1 4.37114e-08 16.0037 251)" fill="#404040"/>
<rect x="1238" y="265" width="7.99998" height="401" transform="rotate(90 1238 265)" fill="#404040"/>
<rect width="7.99999" height="217" transform="matrix(4.37114e-08 -1 -1 -4.37114e-08 233 440)" fill="#404040"/>
<rect width="8" height="189" transform="matrix(-1 0 0 1 24 251)" fill="#404040"/>
<rect x="225" y="432" width="8" height="188" fill="#404040"/>
<rect width="8" height="103" transform="matrix(1 0 0 -1 1230 368)" fill="#404040"/>
<rect x="763" y="698" width="8" height="189" transform="rotate(180 763 698)" fill="#404040"/>
<rect width="8.99998" height="523" transform="matrix(-4.37114e-08 1 1 4.37114e-08 31.0037 266)" fill="#404040"/>
<rect x="1217" y="280.002" width="8.99998" height="399" transform="rotate(90 1217 280.002)" fill="#404040"/>
<rect width="8.99999" height="218" transform="matrix(4.37114e-08 -1 -1 -4.37114e-08 249 425)" fill="#404040"/>
<rect width="9" height="219" transform="matrix(-1 0 0 1 9.00003 236)" fill="#404040"/>
<rect x="240" y="416" width="9" height="219" fill="#404040"/>
<rect width="9" height="134" transform="matrix(1 0 0 -1 1245 384)" fill="#404040"/>
<rect x="748" y="617" width="9" height="137" transform="rotate(-180 748 617)" fill="#404040"/>
</g>
<circle opacity="0.2" cx="770" cy="270" r="270" fill="#4AA29A"/>
<circle cx="770" cy="270" r="243" fill="#89BDB9"/>
<mask id="mask0" mask-type="alpha" maskUnits="userSpaceOnUse" x="527" y="27" width="486" height="486">
<circle cx="770" cy="270" r="243" fill="#4B0731"/>
</mask>
<g mask="url(#mask0)">
<path d="M934.053 276.296C967.225 294.29 1006.35 263.71 996.038 227.426C995.898 226.928 995.747 226.427 995.587 225.922C982.968 185.969 1008.44 162.722 987.261 139.024C966.081 115.326 934.971 134.708 928.666 170.135C922.362 205.562 893.368 215.597 896.141 235.937C899.116 257.926 912.371 264.537 934.053 276.296Z" fill="#71D3CA"/>
<path d="M932.975 267.273L932.293 266.943C952.55 225.521 963.243 158.175 963.348 157.514L964.1 157.634C963.995 158.311 953.282 225.751 932.975 267.273Z" fill="#05AFAF"/>
<path d="M956.411 195.809L956.035 195.152C961.868 191.819 969.677 184.626 969.757 184.546L970.259 185.102C970.194 185.172 962.32 192.43 956.411 195.809Z" fill="#05AFAF"/>
<path d="M952.475 209.583C945.403 202.956 942.339 192.816 942.308 192.711L943.036 192.496C943.066 192.596 946.075 202.52 952.996 209.036L952.475 209.583Z" fill="#05AFAF"/>
<path d="M946.03 234.213H945.93V233.456C952.189 233.536 963.935 226.018 964.055 225.938L964.466 226.574C963.985 226.885 952.535 234.213 946.03 234.213Z" fill="#05AFAF"/>
<path d="M590.116 401.828C561.448 386.4 559.618 374.922 534.756 359.434C509.895 343.945 505.03 306.133 531.045 290.514C557.06 274.896 559.718 202.994 620.605 203.561C640.431 203.746 665.157 184.328 685.334 179.892C705.511 175.456 717.934 206.989 743.974 219.946C770.014 232.903 826.652 211.911 852.597 288.865C866.505 330.142 919.723 365.052 902.751 411.251C891.351 442.458 820.087 462.086 789.338 453.565C758.588 445.044 725.602 412.965 692.305 409.507C659.008 406.048 618.664 417.18 590.116 401.828Z" fill="#63ACA5"/>
<path d="M860.537 290.195C927.821 290.195 982.366 287.007 982.366 283.073C982.366 279.139 927.821 275.95 860.537 275.95C793.253 275.95 738.708 279.139 738.708 283.073C738.708 287.007 793.253 290.195 860.537 290.195Z" fill="#05AFAF"/>
<path d="M762.15 277.399H856.199V203.527H762.15V277.399Z" fill="#FDE2CF"/>
<path d="M856.194 281.268H935.743V227.015H856.194V281.268Z" fill="#FDE2CF"/>
<path d="M927.437 236.784H864.504V281.263H927.437V236.784Z" fill="#34726C"/>
<path d="M856.199 228.563H937.338L934.489 218.784H856.199V228.563Z" fill="#34726C"/>
<path d="M810.764 273.034H850.476V245.035H810.764V273.034Z" fill="white"/>
<path d="M767.863 273.034H807.575V245.035H767.863V273.034Z" fill="white"/>
<path d="M767.863 225.782H850.481V211.783H767.863V225.782Z" fill="white"/>
<path d="M858.902 189.487H759.442V206.534H858.902V189.487Z" fill="#34726C"/>
<path d="M858.902 277.403H759.442V281.268H858.902V277.403Z" fill="#FDE2CF"/>
<rect x="910.475" y="308.85" width="3.47961" height="27.6163" transform="rotate(-180 910.475 308.85)" fill="#F3B36A"/>
<rect x="897.878" y="292.8" width="3.47961" height="158.576" transform="rotate(90 897.878 292.8)" fill="#F3B36A"/>
<rect x="904.171" y="302.463" width="3.47961" height="21.2179" transform="rotate(-180 904.171 302.463)" fill="#F3B36A"/>
<rect x="904.167" y="299.104" width="3.47961" height="163.678" transform="rotate(90 904.167 299.104)" fill="#F3B36A"/>
<rect x="897.868" y="293.438" width="3.47964" height="12.1924" transform="rotate(-180 897.868 293.438)" fill="#F3B36A"/>
<rect x="910.471" y="305.407" width="3.47964" height="173.411" transform="rotate(90 910.471 305.407)" fill="#F3B36A"/>
<path d="M824.516 238.132H836.458V222.143H824.516V238.132Z" fill="white"/>
<path d="M783.952 238.132H795.894V222.143H783.952V238.132Z" fill="white"/>
<path d="M765.922 240.468H853.21V238.137H765.922V240.468Z" fill="#34726C"/>
<path d="M765.36 225.165H853.852V224.549H765.36V225.165Z" fill="#34726C"/>
<path d="M852.603 238.814H853.21V224.859H852.603V238.814Z" fill="#34726C"/>
<path d="M848.27 238.814H848.876V224.859H848.27V238.814Z" fill="#34726C"/>
<path d="M839.603 238.814H840.21V224.859H839.603V238.814Z" fill="#34726C"/>
<path d="M830.931 238.814H831.538V224.859H830.931V238.814Z" fill="#34726C"/>
<path d="M822.265 238.814H822.872V224.859H822.265V238.814Z" fill="#34726C"/>
<path d="M813.598 238.814H814.205V224.859H813.598V238.814Z" fill="#34726C"/>
<path d="M804.932 238.814H805.539V224.859H804.932V238.814Z" fill="#34726C"/>
<path d="M796.26 238.814H796.867V224.859H796.26V238.814Z" fill="#34726C"/>
<path d="M787.588 238.814H788.195V224.859H787.588V238.814Z" fill="#34726C"/>
<path d="M778.927 238.814H779.534V224.859H778.927V238.814Z" fill="#34726C"/>
<path d="M770.255 238.814H770.862V224.859H770.255V238.814Z" fill="#34726C"/>
<path d="M765.922 238.814H766.529V224.859H765.922V238.814Z" fill="#34726C"/>
<path d="M834.949 200.359L857.744 199.717L855.562 178.495L833.068 178.545L834.949 200.359Z" fill="#34726C"/>
<path d="M835.4 199.887L857.212 199.271L855.121 178.966L833.6 179.011L835.4 199.887Z" fill="#5FBAB2"/>
<path d="M854.047 199.538C854.005 199.538 853.965 199.523 853.933 199.495C853.902 199.467 853.882 199.429 853.877 199.387L851.57 178.992C851.567 178.97 851.569 178.948 851.575 178.926C851.581 178.905 851.591 178.885 851.605 178.867C851.619 178.85 851.637 178.836 851.657 178.825C851.676 178.815 851.698 178.809 851.72 178.807C851.764 178.802 851.808 178.815 851.842 178.842C851.877 178.869 851.9 178.909 851.906 178.952L854.213 199.347C854.216 199.37 854.214 199.392 854.208 199.414C854.202 199.436 854.191 199.456 854.177 199.474C854.163 199.492 854.146 199.506 854.126 199.517C854.107 199.528 854.085 199.535 854.062 199.538H854.047Z" fill="#71D3CA"/>
<path d="M850.426 199.683C850.385 199.683 850.345 199.667 850.314 199.64C850.283 199.612 850.264 199.573 850.261 199.532L847.938 178.982C847.936 178.959 847.937 178.937 847.943 178.915C847.95 178.893 847.96 178.873 847.974 178.855C847.988 178.837 848.005 178.823 848.025 178.812C848.045 178.801 848.066 178.794 848.089 178.791C848.133 178.787 848.178 178.8 848.212 178.829C848.247 178.857 848.269 178.897 848.275 178.942L850.597 199.492C850.601 199.537 850.587 199.581 850.559 199.616C850.531 199.65 850.491 199.673 850.446 199.678L850.426 199.683Z" fill="#71D3CA"/>
<path d="M846.765 199.753C846.723 199.753 846.682 199.738 846.651 199.71C846.619 199.682 846.599 199.644 846.594 199.602L844.267 179.007C844.264 178.985 844.266 178.963 844.272 178.942C844.278 178.92 844.288 178.901 844.301 178.883C844.315 178.866 844.331 178.852 844.351 178.841C844.37 178.83 844.391 178.824 844.413 178.821C844.458 178.817 844.503 178.83 844.538 178.858C844.574 178.886 844.597 178.927 844.603 178.971L846.915 199.562C846.918 199.584 846.916 199.607 846.91 199.629C846.904 199.651 846.894 199.671 846.88 199.689C846.866 199.706 846.849 199.721 846.829 199.732C846.809 199.743 846.787 199.75 846.765 199.753Z" fill="#71D3CA"/>
<path d="M843.109 199.783C843.067 199.783 843.027 199.768 842.997 199.74C842.966 199.712 842.947 199.674 842.943 199.633L840.611 179.037C840.606 178.992 840.618 178.946 840.647 178.911C840.675 178.875 840.716 178.852 840.761 178.847C840.807 178.841 840.852 178.854 840.888 178.882C840.924 178.911 840.947 178.952 840.952 178.997L843.279 199.593C843.282 199.615 843.28 199.637 843.274 199.659C843.268 199.68 843.258 199.7 843.243 199.717C843.229 199.735 843.212 199.749 843.192 199.759C843.173 199.77 843.151 199.776 843.129 199.778L843.109 199.783Z" fill="#71D3CA"/>
<path d="M839.477 199.944C839.436 199.944 839.395 199.929 839.363 199.901C839.332 199.874 839.312 199.835 839.307 199.794L836.955 178.967C836.949 178.923 836.961 178.878 836.988 178.842C837.016 178.807 837.056 178.783 837.1 178.777C837.145 178.773 837.19 178.786 837.226 178.814C837.261 178.842 837.284 178.883 837.291 178.927L839.648 199.753C839.652 199.798 839.639 199.843 839.611 199.879C839.583 199.914 839.542 199.938 839.498 199.944H839.477Z" fill="#71D3CA"/>
<path d="M835.049 196.024C835.004 196.024 834.96 196.006 834.928 195.974C834.896 195.942 834.878 195.899 834.878 195.854C834.88 195.809 834.898 195.767 834.93 195.736C834.962 195.705 835.004 195.688 835.049 195.688L856.555 195.638C856.579 195.634 856.604 195.635 856.628 195.641C856.652 195.648 856.675 195.66 856.694 195.676C856.713 195.692 856.728 195.711 856.739 195.734C856.749 195.757 856.755 195.781 856.755 195.806C856.755 195.831 856.749 195.855 856.739 195.878C856.728 195.9 856.713 195.92 856.694 195.936C856.675 195.952 856.652 195.964 856.628 195.97C856.604 195.977 856.579 195.978 856.555 195.974L835.049 196.024Z" fill="#71D3CA"/>
<path d="M834.758 192.646C834.713 192.644 834.671 192.626 834.639 192.594C834.607 192.563 834.589 192.52 834.588 192.475C834.589 192.431 834.608 192.389 834.639 192.358C834.671 192.327 834.714 192.31 834.758 192.31L856.54 192.26C856.58 192.267 856.616 192.287 856.641 192.318C856.667 192.349 856.681 192.388 856.681 192.428C856.681 192.468 856.667 192.507 856.641 192.537C856.616 192.568 856.58 192.589 856.54 192.596L834.758 192.646Z" fill="#71D3CA"/>
<path d="M834.513 189.257C834.488 189.261 834.463 189.26 834.439 189.254C834.415 189.247 834.393 189.236 834.374 189.22C834.355 189.204 834.339 189.184 834.329 189.161C834.318 189.139 834.313 189.114 834.313 189.089C834.313 189.064 834.318 189.04 834.329 189.017C834.339 188.995 834.355 188.975 834.374 188.959C834.393 188.943 834.415 188.931 834.439 188.925C834.463 188.918 834.488 188.917 834.513 188.921L856.159 188.871C856.183 188.867 856.209 188.868 856.233 188.875C856.257 188.881 856.279 188.893 856.298 188.909C856.317 188.925 856.332 188.945 856.343 188.967C856.353 188.99 856.359 189.014 856.359 189.039C856.359 189.064 856.353 189.088 856.343 189.111C856.332 189.134 856.317 189.153 856.298 189.169C856.279 189.185 856.257 189.197 856.233 189.204C856.209 189.21 856.183 189.211 856.159 189.207L834.513 189.257Z" fill="#71D3CA"/>
<path d="M834.181 185.888C834.137 185.887 834.095 185.87 834.064 185.839C834.032 185.808 834.013 185.767 834.011 185.723C834.011 185.678 834.029 185.634 834.061 185.602C834.093 185.571 834.136 185.553 834.181 185.553L855.813 185.502C855.857 185.502 855.9 185.52 855.932 185.551C855.963 185.581 855.982 185.624 855.983 185.668C855.983 185.713 855.965 185.756 855.933 185.788C855.901 185.82 855.858 185.838 855.813 185.838L834.181 185.888Z" fill="#71D3CA"/>
<path d="M833.976 182.511C833.931 182.509 833.889 182.491 833.858 182.459C833.827 182.427 833.81 182.384 833.81 182.34C833.81 182.296 833.828 182.254 833.859 182.223C833.89 182.192 833.932 182.175 833.976 182.175L855.542 182.125C855.566 182.12 855.592 182.121 855.616 182.128C855.64 182.134 855.662 182.146 855.681 182.162C855.7 182.178 855.715 182.198 855.726 182.221C855.736 182.243 855.742 182.268 855.742 182.292C855.742 182.317 855.736 182.342 855.726 182.364C855.715 182.387 855.7 182.407 855.681 182.423C855.662 182.439 855.64 182.451 855.616 182.457C855.592 182.463 855.566 182.465 855.542 182.46L833.976 182.511Z" fill="#71D3CA"/>
<g opacity="0.3">
<path opacity="0.3" d="M854.233 179.733C854.855 180.064 855.396 187.222 855.14 187.502C854.885 187.783 853.576 182.114 852.803 181.327C852.031 180.54 847.407 180.711 846.785 180.395C846.163 180.079 846.163 179.698 846.163 179.698C846.163 179.698 853.611 179.397 854.233 179.733Z" fill="white"/>
</g>
<g opacity="0.3">
<path opacity="0.3" d="M836.94 198.71C836.313 198.394 835.586 191.271 835.836 190.986C836.087 190.7 837.542 196.319 838.344 197.086C839.146 197.852 843.766 197.587 844.362 197.863C844.959 198.138 845.004 198.544 845.004 198.544C845.004 198.544 837.572 199.025 836.94 198.71Z" fill="white"/>
</g>
<path d="M810.699 200.359L833.499 199.717L831.312 178.495L808.818 178.545L810.699 200.359Z" fill="#34726C"/>
<path d="M811.151 199.887L832.963 199.271L830.871 178.966L809.35 179.011L811.151 199.887Z" fill="#5FBAB2"/>
<path d="M829.798 199.538C829.756 199.538 829.715 199.523 829.684 199.495C829.653 199.467 829.632 199.429 829.627 199.387L827.32 178.992C827.316 178.948 827.33 178.903 827.358 178.869C827.386 178.834 827.426 178.812 827.471 178.807C827.515 178.802 827.559 178.815 827.595 178.842C827.63 178.869 827.654 178.908 827.661 178.952L829.968 199.347C829.973 199.392 829.96 199.437 829.932 199.473C829.903 199.508 829.863 199.531 829.818 199.538H829.798Z" fill="#71D3CA"/>
<path d="M826.162 199.683C826.12 199.683 826.079 199.668 826.048 199.64C826.016 199.612 825.996 199.574 825.991 199.532L823.669 178.982C823.666 178.959 823.668 178.937 823.674 178.915C823.68 178.893 823.691 178.873 823.705 178.855C823.719 178.837 823.736 178.823 823.756 178.812C823.775 178.801 823.797 178.794 823.82 178.791C823.864 178.787 823.908 178.8 823.943 178.829C823.978 178.857 824 178.897 824.005 178.942L826.327 199.492C826.332 199.536 826.319 199.58 826.292 199.614C826.265 199.649 826.225 199.671 826.182 199.678L826.162 199.683Z" fill="#71D3CA"/>
<path d="M822.515 199.753C822.473 199.753 822.433 199.738 822.401 199.71C822.37 199.683 822.35 199.644 822.345 199.603L820.018 179.007C820.019 178.966 820.035 178.926 820.063 178.896C820.091 178.866 820.13 178.847 820.17 178.843C820.211 178.839 820.253 178.849 820.286 178.873C820.32 178.897 820.344 178.932 820.354 178.972L822.686 199.562C822.69 199.607 822.677 199.652 822.649 199.688C822.621 199.723 822.58 199.747 822.535 199.753H822.515Z" fill="#71D3CA"/>
<path d="M818.864 199.783C818.822 199.783 818.782 199.768 818.75 199.74C818.719 199.713 818.699 199.674 818.694 199.633L816.367 179.037C816.364 179.015 816.365 178.993 816.371 178.972C816.377 178.951 816.387 178.931 816.4 178.914C816.414 178.897 816.431 178.882 816.45 178.871C816.469 178.861 816.49 178.854 816.512 178.851C816.557 178.846 816.602 178.858 816.637 178.885C816.673 178.912 816.696 178.952 816.703 178.997L819.03 199.592C819.033 199.615 819.031 199.637 819.025 199.658C819.019 199.68 819.008 199.7 818.994 199.717C818.98 199.735 818.963 199.749 818.943 199.759C818.923 199.77 818.902 199.776 818.879 199.778L818.864 199.783Z" fill="#71D3CA"/>
<path d="M815.228 199.944C815.187 199.944 815.147 199.929 815.116 199.901C815.086 199.873 815.066 199.835 815.063 199.794L812.705 178.967C812.703 178.945 812.704 178.922 812.71 178.9C812.716 178.879 812.727 178.858 812.741 178.841C812.755 178.823 812.772 178.808 812.792 178.797C812.812 178.786 812.833 178.779 812.856 178.777C812.9 178.773 812.945 178.786 812.979 178.814C813.014 178.842 813.036 178.883 813.041 178.927L815.399 199.753C815.402 199.776 815.4 199.799 815.394 199.82C815.388 199.842 815.377 199.862 815.363 199.88C815.349 199.898 815.332 199.913 815.312 199.924C815.292 199.935 815.271 199.941 815.248 199.944H815.228Z" fill="#71D3CA"/>
<path d="M810.805 196.024C810.765 196.017 810.729 195.996 810.703 195.966C810.677 195.935 810.663 195.896 810.663 195.856C810.663 195.816 810.677 195.777 810.703 195.746C810.729 195.716 810.765 195.695 810.805 195.688L832.311 195.638C832.335 195.634 832.36 195.635 832.384 195.641C832.408 195.648 832.431 195.66 832.45 195.676C832.469 195.692 832.484 195.711 832.494 195.734C832.505 195.757 832.51 195.781 832.51 195.806C832.51 195.831 832.505 195.855 832.494 195.878C832.484 195.9 832.469 195.92 832.45 195.936C832.431 195.952 832.408 195.964 832.384 195.97C832.36 195.977 832.335 195.978 832.311 195.974L810.805 196.024Z" fill="#71D3CA"/>
<path d="M810.514 192.646C810.491 192.646 810.469 192.641 810.448 192.633C810.428 192.624 810.409 192.611 810.393 192.596C810.377 192.58 810.365 192.561 810.356 192.54C810.348 192.52 810.343 192.497 810.343 192.475C810.343 192.431 810.361 192.389 810.392 192.358C810.423 192.327 810.465 192.31 810.509 192.31L832.291 192.26C832.315 192.255 832.34 192.257 832.364 192.263C832.388 192.269 832.41 192.281 832.429 192.297C832.448 192.313 832.464 192.333 832.474 192.356C832.485 192.378 832.49 192.403 832.49 192.427C832.49 192.452 832.485 192.477 832.474 192.499C832.464 192.522 832.448 192.542 832.429 192.558C832.41 192.574 832.388 192.586 832.364 192.592C832.34 192.599 832.315 192.6 832.291 192.595L810.514 192.646Z" fill="#71D3CA"/>
<path d="M810.263 189.258C810.24 189.258 810.218 189.253 810.198 189.245C810.177 189.236 810.158 189.223 810.142 189.208C810.126 189.192 810.114 189.173 810.105 189.152C810.097 189.132 810.092 189.109 810.092 189.087C810.094 189.043 810.112 189.001 810.144 188.97C810.176 188.939 810.218 188.922 810.263 188.922L831.909 188.872C831.949 188.878 831.985 188.899 832.011 188.93C832.036 188.96 832.051 188.999 832.051 189.039C832.051 189.08 832.036 189.119 832.011 189.149C831.985 189.18 831.949 189.201 831.909 189.207L810.258 189.258H810.263Z" fill="#71D3CA"/>
<path d="M809.932 185.889C809.892 185.883 809.856 185.862 809.83 185.831C809.804 185.801 809.79 185.762 809.79 185.722C809.79 185.681 809.804 185.643 809.83 185.612C809.856 185.581 809.892 185.56 809.932 185.554L831.563 185.503C831.588 185.499 831.613 185.5 831.637 185.507C831.661 185.513 831.683 185.525 831.702 185.541C831.721 185.557 831.736 185.577 831.747 185.599C831.757 185.622 831.763 185.647 831.763 185.671C831.763 185.696 831.757 185.721 831.747 185.743C831.736 185.766 831.721 185.786 831.702 185.802C831.683 185.818 831.661 185.829 831.637 185.836C831.613 185.842 831.588 185.844 831.563 185.839L809.932 185.889Z" fill="#71D3CA"/>
<path d="M809.731 182.511C809.709 182.511 809.687 182.506 809.666 182.498C809.645 182.489 809.626 182.476 809.611 182.461C809.595 182.445 809.582 182.426 809.574 182.405C809.565 182.385 809.561 182.362 809.561 182.34C809.561 182.296 809.578 182.254 809.609 182.223C809.64 182.192 809.682 182.175 809.726 182.175L831.292 182.125C831.317 182.12 831.342 182.121 831.366 182.128C831.39 182.134 831.412 182.146 831.431 182.162C831.45 182.178 831.466 182.198 831.476 182.221C831.487 182.243 831.492 182.268 831.492 182.292C831.492 182.317 831.487 182.342 831.476 182.364C831.466 182.387 831.45 182.407 831.431 182.423C831.412 182.439 831.39 182.451 831.366 182.457C831.342 182.463 831.317 182.465 831.292 182.46L809.726 182.511H809.731Z" fill="#71D3CA"/>
<g opacity="0.3">
<path opacity="0.3" d="M829.983 179.733C830.605 180.064 831.147 187.222 830.891 187.502C830.635 187.783 829.326 182.114 828.554 181.327C827.782 180.54 823.163 180.711 822.536 180.395C821.909 180.079 821.914 179.698 821.914 179.698C821.914 179.698 829.362 179.397 829.983 179.733Z" fill="white"/>
</g>
<g opacity="0.3">
<path opacity="0.3" d="M812.695 198.71C812.063 198.394 811.341 191.271 811.587 190.986C811.833 190.7 813.292 196.319 814.095 197.086C814.897 197.852 819.516 197.587 820.113 197.863C820.71 198.138 820.75 198.544 820.75 198.544C820.75 198.544 813.312 199.025 812.695 198.71Z" fill="white"/>
</g>
<path d="M786.455 200.359L809.25 199.717L807.063 178.495L784.569 178.545L786.455 200.359Z" fill="#34726C"/>
<path d="M786.901 199.887L808.718 199.271L806.627 178.966L785.1 179.011L786.901 199.887Z" fill="#5FBAB2"/>
<path d="M805.548 199.538C805.507 199.538 805.467 199.523 805.436 199.495C805.406 199.467 805.386 199.429 805.383 199.387L803.076 178.992C803.073 178.97 803.074 178.948 803.08 178.927C803.086 178.906 803.096 178.886 803.11 178.869C803.123 178.852 803.14 178.837 803.159 178.827C803.178 178.816 803.199 178.809 803.221 178.807C803.265 178.802 803.31 178.815 803.345 178.842C803.38 178.869 803.404 178.908 803.412 178.952L805.719 199.347C805.722 199.37 805.72 199.392 805.714 199.414C805.708 199.436 805.697 199.456 805.683 199.474C805.669 199.492 805.652 199.506 805.632 199.517C805.612 199.528 805.591 199.535 805.568 199.538H805.548Z" fill="#71D3CA"/>
<path d="M801.912 199.683C801.87 199.683 801.83 199.668 801.798 199.64C801.767 199.613 801.747 199.574 801.742 199.533L799.42 178.982C799.414 178.937 799.427 178.892 799.455 178.856C799.483 178.82 799.525 178.797 799.57 178.792C799.615 178.786 799.661 178.799 799.696 178.827C799.732 178.856 799.755 178.897 799.761 178.942L802.083 199.493C802.087 199.537 802.073 199.581 802.045 199.616C802.017 199.651 801.977 199.673 801.932 199.678L801.912 199.683Z" fill="#71D3CA"/>
<path d="M798.266 199.754C798.224 199.754 798.184 199.739 798.154 199.711C798.123 199.683 798.104 199.645 798.1 199.603L795.758 179.008C795.752 178.984 795.752 178.959 795.756 178.936C795.761 178.912 795.77 178.889 795.784 178.869C795.798 178.849 795.816 178.832 795.837 178.82C795.858 178.808 795.882 178.8 795.906 178.798C795.93 178.795 795.955 178.798 795.978 178.805C796.001 178.813 796.022 178.826 796.04 178.842C796.058 178.859 796.072 178.879 796.081 178.902C796.091 178.924 796.095 178.948 796.094 178.973L798.426 199.563C798.429 199.586 798.427 199.608 798.421 199.63C798.415 199.652 798.405 199.672 798.391 199.69C798.377 199.708 798.36 199.722 798.34 199.733C798.32 199.744 798.298 199.751 798.276 199.754H798.266Z" fill="#71D3CA"/>
<path d="M794.615 199.783C794.573 199.783 794.532 199.768 794.501 199.74C794.469 199.712 794.449 199.674 794.444 199.632L792.117 179.037C792.117 178.995 792.133 178.955 792.161 178.924C792.188 178.893 792.226 178.873 792.268 178.868C792.309 178.863 792.35 178.874 792.385 178.897C792.419 178.921 792.443 178.956 792.453 178.997L794.785 199.592C794.79 199.637 794.776 199.681 794.748 199.716C794.72 199.75 794.679 199.773 794.635 199.778L794.615 199.783Z" fill="#71D3CA"/>
<path d="M790.984 199.944C790.942 199.944 790.901 199.929 790.87 199.901C790.838 199.874 790.818 199.835 790.813 199.794L788.456 178.967C788.451 178.922 788.465 178.877 788.493 178.842C788.521 178.806 788.561 178.783 788.606 178.777C788.651 178.773 788.696 178.786 788.732 178.814C788.767 178.842 788.791 178.883 788.797 178.927L791.149 199.753C791.152 199.776 791.15 199.799 791.144 199.82C791.138 199.842 791.128 199.862 791.114 199.88C791.1 199.898 791.082 199.913 791.063 199.924C791.043 199.935 791.021 199.941 790.999 199.944H790.984Z" fill="#71D3CA"/>
<path d="M786.555 196.023C786.531 196.027 786.506 196.026 786.482 196.02C786.458 196.013 786.435 196.002 786.416 195.986C786.397 195.97 786.382 195.95 786.371 195.927C786.361 195.905 786.355 195.88 786.355 195.855C786.355 195.83 786.361 195.806 786.371 195.783C786.382 195.761 786.397 195.741 786.416 195.725C786.435 195.709 786.458 195.697 786.482 195.691C786.506 195.684 786.531 195.683 786.555 195.687L808.056 195.637C808.096 195.644 808.132 195.665 808.158 195.695C808.183 195.726 808.198 195.765 808.198 195.805C808.198 195.845 808.183 195.884 808.158 195.915C808.132 195.946 808.096 195.966 808.056 195.973L786.55 196.023H786.555Z" fill="#71D3CA"/>
<path d="M786.264 192.646C786.24 192.65 786.215 192.649 786.191 192.642C786.167 192.636 786.144 192.624 786.125 192.608C786.106 192.592 786.091 192.572 786.08 192.55C786.07 192.527 786.065 192.502 786.065 192.478C786.065 192.453 786.07 192.428 786.08 192.406C786.091 192.383 786.106 192.363 786.125 192.347C786.144 192.331 786.167 192.32 786.191 192.313C786.215 192.307 786.24 192.305 786.264 192.31L808.041 192.26C808.066 192.255 808.091 192.257 808.115 192.263C808.139 192.269 808.161 192.281 808.18 192.297C808.199 192.313 808.214 192.333 808.225 192.356C808.235 192.378 808.241 192.403 808.241 192.427C808.241 192.452 808.235 192.477 808.225 192.499C808.214 192.522 808.199 192.542 808.18 192.558C808.161 192.574 808.139 192.586 808.115 192.592C808.091 192.598 808.066 192.6 808.041 192.595L786.264 192.646Z" fill="#71D3CA"/>
<path d="M786.014 189.258C785.974 189.251 785.938 189.23 785.912 189.199C785.886 189.169 785.872 189.13 785.872 189.09C785.872 189.049 785.886 189.011 785.912 188.98C785.938 188.949 785.974 188.929 786.014 188.922L807.665 188.872C807.709 188.873 807.751 188.89 807.783 188.921C807.814 188.952 807.833 188.993 807.836 189.037C807.836 189.082 807.818 189.126 807.786 189.157C807.754 189.189 807.71 189.207 807.665 189.207L786.014 189.258Z" fill="#71D3CA"/>
<path d="M785.687 185.889C785.663 185.894 785.638 185.892 785.614 185.886C785.59 185.88 785.567 185.868 785.548 185.852C785.529 185.836 785.514 185.816 785.504 185.793C785.493 185.771 785.488 185.746 785.488 185.722C785.488 185.697 785.493 185.672 785.504 185.65C785.514 185.627 785.529 185.607 785.548 185.591C785.567 185.575 785.59 185.563 785.614 185.557C785.638 185.551 785.663 185.549 785.687 185.554L807.314 185.503C807.338 185.499 807.363 185.5 807.387 185.507C807.411 185.513 807.434 185.525 807.453 185.541C807.472 185.557 807.487 185.577 807.497 185.599C807.508 185.622 807.513 185.647 807.513 185.671C807.513 185.696 807.508 185.721 807.497 185.743C807.487 185.766 807.472 185.786 807.453 185.802C807.434 185.818 807.411 185.829 807.387 185.836C807.363 185.842 807.338 185.844 807.314 185.839L785.682 185.889H785.687Z" fill="#71D3CA"/>
<path d="M785.482 182.511C785.457 182.515 785.432 182.514 785.408 182.508C785.384 182.501 785.362 182.49 785.343 182.474C785.324 182.458 785.309 182.438 785.298 182.415C785.288 182.393 785.282 182.368 785.282 182.343C785.282 182.318 785.288 182.294 785.298 182.271C785.309 182.249 785.324 182.229 785.343 182.213C785.362 182.197 785.384 182.185 785.408 182.179C785.432 182.172 785.457 182.171 785.482 182.175L807.048 182.125C807.092 182.126 807.134 182.144 807.166 182.175C807.197 182.205 807.216 182.247 807.219 182.291C807.219 182.336 807.201 182.379 807.169 182.411C807.137 182.443 807.093 182.461 807.048 182.461L785.482 182.511Z" fill="#71D3CA"/>
<g opacity="0.3">
<path opacity="0.3" d="M805.739 179.733C806.356 180.064 806.898 187.222 806.647 187.502C806.396 187.783 805.082 182.114 804.31 181.327C803.537 180.54 798.913 180.711 798.291 180.395C797.669 180.079 797.669 179.698 797.669 179.698C797.669 179.698 805.117 179.397 805.739 179.733Z" fill="white"/>
</g>
<g opacity="0.3">
<path opacity="0.3" d="M788.446 198.71C787.814 198.394 787.092 191.271 787.337 190.986C787.583 190.7 789.043 196.319 789.845 197.086C790.648 197.852 795.267 197.587 795.864 197.863C796.46 198.138 796.506 198.544 796.506 198.544C796.506 198.544 789.078 199.025 788.446 198.71Z" fill="white"/>
</g>
<path d="M762.205 200.359L785 199.717L782.819 178.495L760.325 178.545L762.205 200.359Z" fill="#34726C"/>
<path d="M762.657 199.887L784.469 199.271L782.377 178.966L760.851 179.011L762.657 199.887Z" fill="#5FBAB2"/>
<path d="M781.299 199.538C781.258 199.538 781.218 199.522 781.187 199.495C781.156 199.467 781.137 199.429 781.133 199.387L778.826 178.992C778.824 178.97 778.825 178.948 778.832 178.926C778.838 178.905 778.848 178.885 778.862 178.867C778.876 178.85 778.894 178.836 778.913 178.825C778.933 178.815 778.955 178.809 778.977 178.807C779.021 178.802 779.064 178.815 779.099 178.842C779.133 178.869 779.156 178.909 779.162 178.952L781.47 199.347C781.472 199.37 781.471 199.392 781.465 199.414C781.458 199.436 781.448 199.456 781.434 199.474C781.42 199.492 781.403 199.506 781.383 199.517C781.363 199.528 781.342 199.535 781.319 199.538H781.299Z" fill="#71D3CA"/>
<path d="M777.663 199.682C777.621 199.683 777.582 199.667 777.551 199.639C777.52 199.611 777.501 199.573 777.497 199.532L775.175 178.981C775.169 178.958 775.169 178.934 775.173 178.91C775.177 178.886 775.187 178.863 775.2 178.844C775.214 178.824 775.232 178.807 775.253 178.794C775.273 178.782 775.297 178.774 775.321 178.771C775.345 178.768 775.369 178.771 775.392 178.778C775.415 178.785 775.436 178.797 775.454 178.813C775.472 178.829 775.487 178.849 775.497 178.871C775.506 178.893 775.511 178.917 775.511 178.941L777.833 199.492C777.838 199.536 777.824 199.581 777.796 199.615C777.768 199.65 777.727 199.672 777.683 199.677L777.663 199.682Z" fill="#71D3CA"/>
<path d="M774.017 199.753C773.975 199.753 773.935 199.738 773.905 199.71C773.874 199.682 773.855 199.644 773.851 199.603L771.519 179.007C771.514 178.962 771.528 178.917 771.557 178.882C771.585 178.846 771.627 178.824 771.672 178.819C771.717 178.815 771.763 178.828 771.798 178.857C771.833 178.885 771.855 178.927 771.86 178.972L774.192 199.563C774.195 199.585 774.193 199.608 774.187 199.63C774.181 199.651 774.171 199.672 774.157 199.689C774.143 199.707 774.126 199.722 774.106 199.733C774.086 199.744 774.064 199.751 774.042 199.753H774.017Z" fill="#71D3CA"/>
<path d="M770.365 199.783C770.324 199.783 770.284 199.768 770.253 199.74C770.223 199.712 770.204 199.674 770.2 199.633L767.868 179.037C767.863 178.992 767.877 178.948 767.905 178.913C767.933 178.879 767.974 178.857 768.018 178.851C768.04 178.849 768.062 178.85 768.083 178.856C768.104 178.862 768.124 178.872 768.141 178.885C768.159 178.899 768.173 178.916 768.184 178.935C768.194 178.954 768.201 178.975 768.204 178.997L770.536 199.592C770.539 199.615 770.537 199.637 770.531 199.658C770.525 199.68 770.514 199.7 770.5 199.717C770.486 199.735 770.469 199.749 770.449 199.759C770.429 199.77 770.408 199.776 770.385 199.778L770.365 199.783Z" fill="#71D3CA"/>
<path d="M766.734 199.944C766.692 199.944 766.652 199.929 766.62 199.901C766.589 199.874 766.569 199.835 766.564 199.794L764.212 178.967C764.208 178.945 764.209 178.923 764.215 178.901C764.22 178.879 764.23 178.859 764.244 178.841C764.257 178.823 764.274 178.808 764.294 178.797C764.313 178.786 764.335 178.779 764.357 178.777C764.402 178.773 764.447 178.786 764.483 178.814C764.518 178.842 764.541 178.883 764.548 178.927L766.905 199.753C766.909 199.798 766.896 199.843 766.868 199.879C766.84 199.914 766.799 199.938 766.755 199.944H766.734Z" fill="#71D3CA"/>
<path d="M762.306 196.023C762.281 196.027 762.256 196.026 762.232 196.02C762.208 196.013 762.186 196.002 762.167 195.986C762.148 195.97 762.132 195.95 762.122 195.927C762.111 195.905 762.106 195.88 762.106 195.855C762.106 195.83 762.111 195.806 762.122 195.783C762.132 195.761 762.148 195.741 762.167 195.725C762.186 195.709 762.208 195.697 762.232 195.691C762.256 195.684 762.281 195.683 762.306 195.687L783.812 195.637C783.856 195.638 783.898 195.656 783.929 195.687C783.961 195.717 783.98 195.759 783.982 195.803C783.982 195.848 783.964 195.891 783.932 195.923C783.9 195.955 783.857 195.973 783.812 195.973L762.306 196.023Z" fill="#71D3CA"/>
<path d="M762.015 192.646C761.99 192.65 761.965 192.649 761.941 192.642C761.917 192.636 761.895 192.624 761.876 192.608C761.857 192.592 761.841 192.572 761.831 192.55C761.82 192.527 761.815 192.503 761.815 192.478C761.815 192.453 761.82 192.428 761.831 192.406C761.841 192.383 761.857 192.363 761.876 192.347C761.895 192.331 761.917 192.32 761.941 192.313C761.965 192.307 761.99 192.306 762.015 192.31L783.791 192.26C783.831 192.267 783.867 192.287 783.893 192.318C783.919 192.349 783.933 192.388 783.933 192.428C783.933 192.468 783.919 192.507 783.893 192.537C783.867 192.568 783.831 192.589 783.791 192.596L762.01 192.646H762.015Z" fill="#71D3CA"/>
<path d="M761.769 189.257C761.745 189.261 761.72 189.26 761.696 189.254C761.672 189.247 761.649 189.236 761.63 189.22C761.611 189.204 761.596 189.184 761.585 189.161C761.575 189.139 761.569 189.114 761.569 189.089C761.569 189.064 761.575 189.04 761.585 189.017C761.596 188.995 761.611 188.975 761.63 188.959C761.649 188.943 761.672 188.931 761.696 188.925C761.72 188.918 761.745 188.917 761.769 188.921L783.416 188.871C783.44 188.867 783.465 188.868 783.489 188.875C783.513 188.881 783.536 188.893 783.555 188.909C783.574 188.925 783.589 188.945 783.599 188.967C783.61 188.99 783.615 189.014 783.615 189.039C783.615 189.064 783.61 189.088 783.599 189.111C783.589 189.134 783.574 189.153 783.555 189.169C783.536 189.185 783.513 189.197 783.489 189.204C783.465 189.21 783.44 189.211 783.416 189.207L761.769 189.257Z" fill="#71D3CA"/>
<path d="M761.438 185.888C761.414 185.893 761.389 185.891 761.365 185.885C761.341 185.879 761.318 185.867 761.299 185.851C761.28 185.835 761.265 185.815 761.254 185.792C761.244 185.77 761.238 185.745 761.238 185.72C761.238 185.696 761.244 185.671 761.254 185.649C761.265 185.626 761.28 185.606 761.299 185.59C761.318 185.574 761.341 185.562 761.365 185.556C761.389 185.549 761.414 185.548 761.438 185.553L783.07 185.502C783.114 185.502 783.156 185.52 783.187 185.551C783.218 185.582 783.235 185.624 783.235 185.668C783.236 185.69 783.232 185.712 783.224 185.733C783.216 185.753 783.204 185.772 783.188 185.788C783.173 185.804 783.155 185.817 783.134 185.825C783.114 185.834 783.092 185.838 783.07 185.838L761.438 185.888Z" fill="#71D3CA"/>
<path d="M761.232 182.511C761.208 182.515 761.183 182.514 761.159 182.507C761.135 182.501 761.112 182.489 761.093 182.473C761.074 182.457 761.059 182.437 761.049 182.415C761.038 182.392 761.033 182.367 761.033 182.343C761.033 182.318 761.038 182.293 761.049 182.271C761.059 182.248 761.074 182.228 761.093 182.212C761.112 182.196 761.135 182.185 761.159 182.178C761.183 182.172 761.208 182.17 761.232 182.175L782.799 182.125C782.823 182.12 782.848 182.121 782.872 182.128C782.896 182.134 782.918 182.146 782.937 182.162C782.956 182.178 782.972 182.198 782.982 182.221C782.993 182.243 782.998 182.268 782.998 182.292C782.998 182.317 782.993 182.342 782.982 182.364C782.972 182.387 782.956 182.407 782.937 182.423C782.918 182.439 782.896 182.451 782.872 182.457C782.848 182.463 782.823 182.465 782.799 182.46L761.232 182.511Z" fill="#71D3CA"/>
<g opacity="0.3">
<path opacity="0.3" d="M781.489 179.733C782.111 180.064 782.653 187.222 782.397 187.502C782.141 187.783 780.832 182.114 780.06 181.327C779.288 180.54 774.663 180.711 774.042 180.395C773.42 180.079 773.42 179.698 773.42 179.698C773.42 179.698 780.867 179.397 781.489 179.733Z" fill="white"/>
</g>
<g opacity="0.3">
<path opacity="0.3" d="M764.197 198.71C763.57 198.394 762.843 191.271 763.093 190.986C763.344 190.7 764.799 196.319 765.601 197.086C766.403 197.852 771.023 197.587 771.619 197.863C772.216 198.138 772.261 198.544 772.261 198.544C772.261 198.544 764.829 199.025 764.197 198.71Z" fill="white"/>
</g>
<path d="M857.212 199.272H761.769V203.532H857.212V199.272Z" fill="#34726C"/>
<path d="M864.505 240.518H927.438V239.255H864.505V240.518Z" fill="#459991"/>
<path d="M864.505 244.778H927.438V243.515H864.505V244.778Z" fill="#459991"/>
<path d="M864.505 249.033H927.438V247.77H864.505V249.033Z" fill="#459991"/>
<path d="M864.505 253.284H927.438V252.021H864.505V253.284Z" fill="#459991"/>
<path d="M864.505 257.539H927.438V256.276H864.505V257.539Z" fill="#459991"/>
<path d="M864.505 261.796H927.438V260.533H864.505V261.796Z" fill="#459991"/>
<path d="M864.505 266.052H927.438V264.788H864.505V266.052Z" fill="#459991"/>
<path d="M864.505 270.307H927.438V269.044H864.505V270.307Z" fill="#459991"/>
<path d="M864.505 274.562H927.438V273.299H864.505V274.562Z" fill="#459991"/>
<path d="M864.505 278.812H927.438V277.549H864.505V278.812Z" fill="#459991"/>
<path d="M941.017 470.535C946.561 470.114 951.905 468.28 956.539 465.209C961.173 462.138 964.942 457.931 967.488 452.991C970.942 446.217 973.405 437.658 971.367 428.513C967.243 409.993 963.986 403.559 966.567 389.18C968.665 377.482 966.869 365.333 959.08 353.436C953.222 344.496 952.857 332.802 955.85 322.551C960.065 308.094 950.095 280.862 927.91 302.272C914.158 315.547 913.591 336.414 917.127 353.336C919.369 364.132 918.927 390.532 913.562 403.273C905.479 422.46 905.908 440.401 913.385 459.433C917.542 469.975 930.39 471.381 941.017 470.535Z" fill="#3C857E"/>
<path opacity="0.1" d="M936.658 470.805L936.23 470.669C936.33 470.361 946.197 439.741 942.673 419.104C940.928 408.855 941.471 398.053 942 387.607C942.33 381.155 942.638 375.065 942.361 369.614C942.102 364.549 940.45 356.89 938.859 349.501C937.34 342.439 935.906 335.78 935.642 331.376C934.677 315.241 947.147 295.403 947.275 295.203L947.653 295.447C947.53 295.641 935.137 315.36 936.092 331.349C936.352 335.708 937.785 342.362 939.3 349.404C940.895 356.813 942.548 364.476 942.812 369.592C943.09 375.074 942.781 381.179 942.463 387.639C941.933 398.059 941.388 408.851 943.126 419.041C946.655 439.778 936.758 470.498 936.658 470.805Z" fill="white"/>
<path opacity="0.1" d="M936.182 335.779L936.091 335.337C947.206 332.378 955.083 324.527 955.164 324.449L955.481 324.767C955.38 324.849 947.42 332.789 936.182 335.779Z" fill="white"/>
<path opacity="0.1" d="M936.132 325.649C930.065 321.825 925.001 316.605 921.363 310.426L921.764 310.215C925.358 316.328 930.367 321.49 936.371 325.267L936.132 325.649Z" fill="white"/>
<path opacity="0.1" d="M940.393 357.035C928.004 352.877 915.519 342.662 915.39 342.561L915.682 342.214C915.806 342.316 928.228 352.477 940.539 356.606L940.393 357.035Z" fill="white"/>
<path opacity="0.1" d="M942.643 369.812L942.521 369.376C953.606 366.219 961.003 356.998 961.077 356.906L961.432 357.185C961.359 357.277 953.892 366.61 942.643 369.812Z" fill="white"/>
<path opacity="0.1" d="M942.067 389.308C930.429 384.6 918.296 375.341 918.174 375.243L918.449 374.889C918.57 374.982 930.63 384.21 942.236 388.889L942.067 389.308Z" fill="white"/>
<path opacity="0.1" d="M950.529 408.836C947.68 409.429 944.773 409.689 941.864 409.612L941.873 409.16C956.386 409.539 965.5 401.457 965.591 401.376L965.891 401.708C965.809 401.782 960.1 406.848 950.529 408.836Z" fill="white"/>
<path opacity="0.1" d="M943.538 431.897C925.392 424.614 910.7 411.417 910.569 411.28L910.873 410.946C911.019 411.079 925.649 424.222 943.721 431.475L943.538 431.897Z" fill="white"/>
<path d="M660.844 211.813C660.844 211.813 747.4 165.569 765.826 163.374C765.826 163.374 778.174 161.219 775.616 173.674C772.637 188.175 671.336 234.273 671.336 234.273L660.844 211.813Z" fill="#FFCBAD"/>
<path d="M644.113 245.76C644.113 245.76 736.923 203.226 756.197 202.113C756.197 202.113 769.162 200.66 765.726 213.431C761.714 228.298 653.582 269.754 653.582 269.754L644.113 245.76Z" fill="#FFCBAD"/>
<path d="M642.969 278.656C642.969 278.656 735.895 236.052 755.194 234.959C755.194 234.959 768.174 233.5 764.723 246.287C760.711 261.173 652.438 302.685 652.438 302.685L642.969 278.656Z" fill="#FFCBAD"/>
<path d="M658.893 303.167C658.893 303.167 738.106 266.863 754.562 265.915C754.562 265.915 765.626 264.672 762.682 275.574C761.679 279.208 752.44 283.624 741.115 289.608C712.969 304.54 666.963 323.647 666.963 323.647L658.893 303.167Z" fill="#FFCBAD"/>
<path d="M716.385 332.063L622.597 243.059V194.655C621.527 192.974 619.97 191.659 618.133 190.885C616.296 190.111 614.266 189.916 612.315 190.325C612.255 190.34 612.197 190.365 612.145 190.4C610.665 191.307 610.435 199.532 610.48 209.326C610.53 221.897 602.244 244.668 601.171 250.202C597.66 268.296 596.406 290.511 606.186 338.168C607.034 342.288 607.666 346.007 608.122 349.365C608.122 349.496 607.47 361.605 604.195 379.665C604.134 379.853 604.098 380.048 604.09 380.246C603.679 382.492 602.866 387.374 601.959 392.682C601.581 394.901 601.692 397.176 602.284 399.347C602.876 401.519 603.935 403.536 605.387 405.257C606.839 406.977 608.649 408.361 610.691 409.311C612.733 410.261 614.958 410.754 617.21 410.756H661.346C665.282 410.753 669.07 409.254 671.941 406.563C674.812 403.872 676.552 400.191 676.808 396.266C677.26 389.619 678.062 382.341 679.466 378.357C684.141 375.459 713.461 356.267 716.385 332.063Z" fill="#FFCBAD"/>
<path d="M736.697 138.804H629.187C625.55 138.804 622.602 141.751 622.602 145.385V325.483C622.602 329.118 625.55 332.064 629.187 332.064H736.697C740.334 332.064 743.282 329.118 743.282 325.483V145.385C743.282 141.751 740.334 138.804 736.697 138.804Z" fill="#404040"/>
<path d="M739.15 146.663H627.688V325.156H739.15V146.663Z" fill="#10C1BC"/>
<path d="M738.673 315.031H627.211V324.679H738.673V315.031Z" fill="#71D3CA"/>
<path d="M738.673 146.187H627.211V155.836H738.673V146.187Z" fill="#71D3CA"/>
<path d="M716.926 194.811C717.192 194.801 717.451 194.719 717.674 194.574C717.898 194.429 718.078 194.226 718.195 193.987C718.312 193.748 718.362 193.482 718.34 193.216C718.318 192.951 718.225 192.697 718.07 192.48C717.358 191.227 707.768 177.042 706.935 177.062C706.103 177.082 700.611 193.433 700.611 193.433L716.926 194.811Z" fill="#E2581D"/>
<path d="M649.77 194.325C649.77 194.325 648.732 220.353 649.77 221.937C650.808 223.521 700.556 221.937 700.556 221.937C700.556 221.937 700.997 193.974 699.372 193.197C697.747 192.42 649.77 194.325 649.77 194.325Z" fill="white"/>
<path d="M700.556 221.938C702.256 221.703 714.599 222.44 716.475 221.938C718.351 221.437 717.583 193.599 716.475 193.012C715.367 192.426 699.373 193.198 699.373 193.198L700.556 221.938Z" fill="#FDE2CF"/>
<path d="M706.901 178.014L716.475 193.011L701.414 193.487L706.901 178.014Z" fill="#FDE2CF"/>
<path d="M700.561 195.437C698.505 196.76 648.331 195.833 646.896 195.437C645.462 195.041 651.35 180.159 654.068 178.49C656.787 176.821 706.229 177.182 706.931 177.062C707.633 176.941 702.527 194.169 700.561 195.437Z" fill="#E2581D"/>
<path d="M658.422 222.644C658.422 222.644 658.071 202.259 658.422 201.702C658.773 201.146 666.241 200.75 667.51 201.702C668.779 202.654 669.18 222.614 669.18 222.614L658.422 222.644Z" fill="#E2581D"/>
<path d="M677.209 201.001C676.482 201.262 676.949 212.179 677.676 212.474C678.403 212.77 692.195 212.82 692.767 212.715C693.339 212.61 692.923 200.846 692.266 200.741C691.609 200.635 679.797 200.079 677.209 201.001Z" fill="#10C1BC"/>
<path d="M682.116 200.505L681.64 200.524L682.115 212.78L682.591 212.761L682.116 200.505Z" fill="white"/>
<path d="M688.297 200.482L687.82 200.5L688.298 212.756L688.774 212.738L688.297 200.482Z" fill="white"/>
<path d="M692.972 206.434L676.845 206.724L676.854 207.2L692.981 206.91L692.972 206.434Z" fill="white"/>
<path d="M704.478 200.755C704.037 200.985 704.318 210.779 704.759 211.025C705.2 211.271 713.536 211.336 713.882 211.24C714.228 211.145 713.977 200.614 713.571 200.524C713.165 200.434 706.043 199.928 704.478 200.755Z" fill="#10C1BC"/>
<path d="M709.481 200.295L709.005 200.313L709.437 211.458L709.913 211.439L709.481 200.295Z" fill="#F1F0F8"/>
<path d="M714.034 205.719L704.125 205.897L704.134 206.374L714.043 206.196L714.034 205.719Z" fill="#F1F0F8"/>
<path d="M691.966 255.814C693.152 250.832 690.073 245.831 685.088 244.645C680.103 243.46 675.1 246.537 673.913 251.519C672.727 256.501 675.806 261.501 680.791 262.687C685.776 263.873 690.779 260.796 691.966 255.814Z" fill="white"/>
<path d="M717.149 259.069C720.14 254.912 719.193 249.117 715.033 246.127C710.872 243.138 705.074 244.084 702.083 248.242C699.091 252.4 700.038 258.194 704.199 261.184C708.359 264.174 714.157 263.227 717.149 259.069Z" fill="white"/>
<path d="M689.503 288.268C693.126 284.647 693.126 278.775 689.503 275.154C685.879 271.533 680.005 271.533 676.381 275.154C672.758 278.775 672.758 284.647 676.381 288.268C680.005 291.889 685.879 291.889 689.503 288.268Z" fill="white"/>
<path d="M717.397 284.236C719.38 279.514 717.158 274.079 712.433 272.097C707.708 270.115 702.27 272.336 700.286 277.058C698.303 281.78 700.526 287.215 705.251 289.197C709.976 291.179 715.414 288.958 717.397 284.236Z" fill="#E2581D"/>
<path d="M709.2 272.783C708.96 272.513 708.278 272.157 708.097 273.53C707.916 274.904 707.711 283.68 707.771 284.557C707.831 285.435 705.996 286.713 707.831 288.246C709.777 289.875 711.342 287.179 710.073 285.034C709.05 283.304 710.208 273.916 709.2 272.783Z" fill="white"/>
<path d="M679.597 253.666C679.913 253.39 685.555 253.43 686.347 253.666C687.14 253.901 687.21 259.23 686.733 259.55C686.257 259.871 679.923 259.771 679.21 259.33C678.498 258.889 678.925 254.262 679.597 253.666Z" fill="#4AA29A"/>
<path d="M679.717 254.061C679.597 253.665 679.166 248.547 681.483 247.855C683.8 247.164 685.395 247.951 685.911 249.58C686.428 251.209 686.368 254.221 686.368 254.221H685.42C685.42 254.221 685.736 249.71 684.346 249.043C682.957 248.377 681.337 248.647 680.836 250.046C680.334 251.444 680.55 254.201 680.55 254.201L679.717 254.061Z" fill="#4AA29A"/>
<path d="M709.443 259.624C708.97 259.566 708.535 259.336 708.22 258.979C707.905 258.621 707.732 258.161 707.733 257.685C707.77 256.844 707.701 256.002 707.527 255.179C707.231 254.502 705.411 252.818 706.304 250.387C706.481 249.83 706.798 249.328 707.223 248.928C707.649 248.527 708.17 248.242 708.736 248.099C709.303 247.955 709.897 247.958 710.462 248.108C711.027 248.257 711.545 248.548 711.966 248.953C713.877 250.582 713.27 253.625 711.966 254.938C711.64 255.274 711.61 256.547 711.645 257.594C711.654 257.852 711.611 258.108 711.52 258.349C711.428 258.589 711.29 258.809 711.112 258.996C710.935 259.182 710.722 259.332 710.486 259.436C710.251 259.539 709.997 259.595 709.739 259.599H709.709L709.443 259.624Z" fill="#4AA29A"/>
<path d="M664.804 257.224C666.743 252.483 664.469 247.07 659.726 245.132C654.982 243.195 649.565 245.467 647.626 250.208C645.688 254.948 647.962 260.362 652.705 262.299C657.449 264.237 662.866 261.965 664.804 257.224Z" fill="white"/>
<path d="M656.493 248.837C656.465 248.789 656.426 248.749 656.378 248.722C656.33 248.694 656.275 248.679 656.22 248.679C656.164 248.679 656.11 248.694 656.062 248.722C656.014 248.749 655.974 248.789 655.947 248.837C655.134 250.21 652.822 254.38 653.148 256.857C653.544 259.864 658.71 260.215 659.312 257.012C659.728 254.801 657.296 250.295 656.493 248.837Z" fill="#4AA29A"/>
<path d="M682.029 284.757C682.029 284.521 682.099 284.29 682.231 284.094C682.362 283.897 682.549 283.744 682.767 283.654C682.986 283.564 683.226 283.541 683.458 283.587C683.689 283.634 683.902 283.748 684.069 283.915C684.236 284.082 684.349 284.296 684.394 284.527C684.44 284.759 684.415 284.999 684.324 285.217C684.233 285.435 684.079 285.621 683.883 285.751C683.686 285.882 683.454 285.951 683.218 285.95C683.061 285.95 682.906 285.919 682.762 285.859C682.617 285.799 682.486 285.711 682.376 285.6C682.265 285.489 682.178 285.358 682.118 285.213C682.059 285.068 682.029 284.913 682.029 284.757Z" fill="#4AA29A"/>
<path d="M687.371 283.388C687.267 283.388 687.167 283.355 687.085 283.293C682.701 279.934 679.562 282.997 679.451 283.127C679.361 283.207 679.244 283.249 679.123 283.245C679.003 283.242 678.888 283.193 678.802 283.109C678.717 283.024 678.666 282.91 678.661 282.79C678.656 282.67 678.696 282.552 678.774 282.46C678.814 282.42 682.626 278.676 687.662 282.536C687.74 282.596 687.797 282.68 687.826 282.775C687.854 282.87 687.852 282.972 687.82 283.065C687.788 283.159 687.728 283.241 687.647 283.298C687.566 283.356 687.47 283.387 687.371 283.388Z" fill="#4AA29A"/>
<path d="M688.675 280.507C688.57 280.506 688.468 280.473 688.384 280.411C682.626 276.051 677.57 280.346 677.52 280.411C677.425 280.491 677.302 280.529 677.178 280.519C677.054 280.509 676.939 280.451 676.858 280.358C676.776 280.265 676.734 280.143 676.741 280.019C676.747 279.895 676.802 279.779 676.893 279.695C676.954 279.645 682.591 274.848 688.96 279.695C689.038 279.755 689.096 279.838 689.124 279.933C689.153 280.027 689.151 280.128 689.12 280.222C689.088 280.316 689.029 280.397 688.949 280.455C688.869 280.513 688.773 280.545 688.675 280.547V280.507Z" fill="#4AA29A"/>
<path d="M664.516 282.4C665.885 277.465 662.992 272.355 658.054 270.986C653.116 269.618 648.003 272.509 646.634 277.444C645.264 282.379 648.157 287.489 653.095 288.857C658.033 290.226 663.146 287.335 664.516 282.4Z" fill="white"/>
<path d="M651.102 275.874C652.371 275.523 655.425 274.937 659.844 275.714C660.058 275.751 660.253 275.863 660.393 276.03C660.534 276.197 660.611 276.408 660.611 276.626C660.576 278.571 660.11 283.708 656.097 286.149C655.941 286.247 655.759 286.296 655.575 286.29C655.391 286.284 655.213 286.222 655.064 286.114C653.629 285.018 652.464 283.608 651.659 281.992C650.853 280.376 650.43 278.597 650.42 276.791C650.413 276.584 650.477 276.38 650.6 276.214C650.724 276.047 650.901 275.927 651.102 275.874Z" fill="#4AA29A"/>
<path d="M622.602 250.202C622.602 250.202 641.023 302.831 636.499 336.625H611.487L621.488 250.202H622.602Z" fill="#FFCBAD"/>
<path d="M751.543 203.257C751.543 203.257 731.27 215.217 728.602 221.537C725.934 227.858 729.495 232.063 733.618 232.564C737.74 233.066 749.973 226.444 755.635 222.84L751.543 203.257Z" fill="#FFCBAD"/>
<path d="M749.115 237.029C749.115 237.029 734.069 246.217 731.391 252.542C728.712 258.868 732.283 263.068 736.406 263.595C740.529 264.121 752.766 257.459 756.708 254.372L749.115 237.029Z" fill="#FFCBAD"/>
<path d="M748.278 268.531C748.278 268.531 738.573 273.263 736.241 278.752C733.908 284.24 737.013 287.889 740.614 288.345C744.215 288.801 756.909 284.771 762.18 276.626L748.278 268.531Z" fill="#FFCBAD"/>
<path d="M731.737 223.041C731.661 223.012 731.594 222.965 731.542 222.903C731.49 222.842 731.455 222.768 731.441 222.688C731.426 222.609 731.432 222.527 731.459 222.451C731.485 222.375 731.531 222.307 731.591 222.254C733.868 220.309 741.783 214.079 745.158 218.404C748.167 222.289 743.046 227.481 737.565 230.053C737.503 230.082 737.435 230.098 737.367 230.098C737.298 230.098 737.23 230.083 737.168 230.054C737.106 230.024 737.052 229.982 737.008 229.929C736.965 229.876 736.934 229.814 736.918 229.747C736.542 228.298 735.222 224.379 731.737 223.041Z" fill="white"/>
<path d="M733.773 254.086C733.714 254.065 733.661 254.028 733.62 253.98C733.579 253.933 733.552 253.875 733.54 253.813C733.528 253.751 733.533 253.688 733.554 253.628C733.574 253.569 733.61 253.516 733.657 253.474C735.734 251.675 743.924 245.084 747.375 249.505C750.429 253.419 745.193 258.662 739.661 261.223C739.612 261.245 739.559 261.255 739.506 261.254C739.453 261.253 739.401 261.24 739.353 261.217C739.306 261.193 739.263 261.16 739.23 261.119C739.196 261.077 739.172 261.029 739.159 260.978C738.818 259.62 737.489 255.419 733.773 254.086Z" fill="white"/>
<path d="M739.205 281.328C739.138 281.297 739.08 281.25 739.037 281.19C738.993 281.13 738.967 281.061 738.958 280.987C738.95 280.914 738.961 280.84 738.991 280.772C739.02 280.705 739.066 280.646 739.124 280.601C741.025 279.193 746.969 275.213 749.205 278.501C751.237 281.508 747.265 285.017 743.132 286.686C743.074 286.709 743.011 286.718 742.949 286.714C742.887 286.709 742.827 286.692 742.772 286.662C742.718 286.631 742.671 286.59 742.634 286.539C742.597 286.489 742.572 286.431 742.56 286.37C742.329 285.238 741.547 282.486 739.205 281.328Z" fill="white"/>
<path d="M636.961 332.062C636.961 332.062 640.472 347.651 672.881 343.591C705.291 339.531 710.552 332.062 710.537 332.062H636.961Z" fill="#D4A88C"/>
<g opacity="0.5">
<path opacity="0.5" d="M615.55 206.946C614.768 210.058 610.65 209.357 610.484 209.327C610.439 199.533 610.67 191.307 612.15 190.4C613.88 190.51 615.866 191.869 615.866 191.869C615.866 191.869 616.342 203.793 615.55 206.946Z" fill="white"/>
</g>
<path d="M838.424 351.155C836.057 346.854 830.841 337.988 820.128 344.057C817.249 345.686 814.611 344.263 809.42 339.872C804.024 335.301 800.989 332.885 794.665 337.792C788.34 342.699 781.264 336.183 775.486 336.499C769.708 336.815 768.78 343.606 762.988 342.228C759.196 341.326 749.516 322.931 743.282 310.315C741.587 306.896 740.148 303.904 739.144 301.794C738.718 300.881 738.367 300.14 738.111 299.603C737.855 299.067 737.735 298.786 737.675 298.661C737.675 298.661 729.821 277.379 724.304 273.77C718.787 270.161 714.208 272.802 712.999 276.627C711.79 280.451 715.978 293.117 718.411 299.112H719.083H718.411C718.411 299.112 719.549 302.435 721.295 307.473C722.067 309.703 722.955 312.269 723.918 315.031C724.976 318.069 726.124 321.347 727.298 324.675C727.353 324.835 727.413 324.996 727.469 325.151C728.276 327.452 729.099 329.777 729.911 332.058C733.116 341.03 736.18 349.401 737.896 353.491C740.769 360.348 743.794 380.276 745.705 394.702C746.928 403.854 747.711 410.791 747.711 410.791H855.742C855.742 410.791 849.458 371.254 838.424 351.155Z" fill="#FFCBAD"/>
<g opacity="0.5">
<path opacity="0.5" d="M721.561 274.967C721.972 274.936 722.383 275.023 722.746 275.217C723.11 275.412 723.41 275.706 723.612 276.065C725.257 278.997 729.079 286.786 724.655 289.097C720.527 291.267 716.515 285.668 715.01 280.105C714.866 279.569 714.94 278.997 715.216 278.516C715.878 277.318 717.603 275.273 721.561 274.967Z" fill="white"/>
</g>
<path d="M766.499 410.802H731.612C727.178 402.091 720.252 388.337 713.862 381.671C707.076 374.598 701.574 368.473 702.021 366.804C702.036 366.742 702.061 366.683 702.096 366.629C704.353 363.306 710.537 359.025 716.876 362.353C725.628 366.955 741.186 388.332 745.705 394.713C746.517 395.856 746.974 396.517 746.974 396.517L764.026 397.77C764.783 402.126 765.626 406.472 766.499 410.802Z" fill="#FFCBAD"/>
<g opacity="0.5">
<path opacity="0.5" d="M715.893 376.447C717.468 379.239 714.003 381.565 713.862 381.66C707.076 374.593 701.574 368.468 702.021 366.793C703.355 365.681 705.727 365.29 705.727 365.29C705.727 365.29 714.278 373.6 715.893 376.447Z" fill="white"/>
</g>
<path d="M731.612 410.801C731.612 410.801 744.727 444.885 766.619 451.401C785.532 457.04 796.511 483.305 803.086 500.046C803.906 502.131 805.335 503.922 807.188 505.183C809.041 506.445 811.231 507.119 813.473 507.118H867.81C868.657 507.121 869.494 506.933 870.258 506.568C871.022 506.203 871.694 505.67 872.224 505.01C872.754 504.35 873.129 503.579 873.32 502.754C873.51 501.929 873.513 501.072 873.327 500.246C870.363 487.109 863.567 455.697 855.773 410.786L731.612 410.801Z" fill="#FFCBAD"/>
<path d="M622.602 195.312C622.602 195.312 626.679 201.773 624.929 216.91C623.179 232.048 622.602 250.202 622.602 250.202L619.402 219.898L622.602 195.312Z" fill="#FFCBAD"/>
</g>
</svg>
