<svg width="308" height="220" viewBox="0 0 308 220" fill="none" xmlns="http://www.w3.org/2000/svg">
<g opacity="0.1">
<rect width="2.23376" height="154.688" transform="matrix(-4.37114e-08 1 1 4.37114e-08 -42.999 118)" fill="#404040"/>
<rect x="306.863" y="121.909" width="2.23376" height="112.247" transform="rotate(90 306.863 121.909)" fill="#404040"/>
<rect width="2.23376" height="60.0324" transform="matrix(4.37114e-08 -1 -1 -4.37114e-08 17.0325 179.149)" fill="#404040"/>
<rect x="15.6362" y="176.916" width="2.23376" height="44.1168" fill="#404040"/>
<rect width="2.23376" height="20.3831" transform="matrix(1 0 0 -1 296.253 150.669)" fill="#404040"/>
<rect x="174.234" y="242.812" width="2.23376" height="53.0519" transform="rotate(180 174.234 242.812)" fill="#404040"/>
<rect width="2.23376" height="154.13" transform="matrix(-4.37114e-08 1 1 4.37114e-08 -38.5315 122.188)" fill="#404040"/>
<rect x="302.675" y="126.097" width="2.23376" height="111.967" transform="rotate(90 302.675 126.097)" fill="#404040"/>
<rect width="2.23376" height="60.5909" transform="matrix(4.37114e-08 -1 -1 -4.37114e-08 22.0583 174.961)" fill="#404040"/>
<rect x="19.8247" y="172.727" width="2.23376" height="52.4935" fill="#404040"/>
<rect width="2.23376" height="28.7597" transform="matrix(1 0 0 -1 300.441 154.857)" fill="#404040"/>
<rect x="170.045" y="247" width="2.23376" height="52.7727" transform="rotate(180 170.045 247)" fill="#404040"/>
<rect width="2.51298" height="146.032" transform="matrix(-4.37114e-08 1 1 4.37114e-08 -34.3433 126.377)" fill="#404040"/>
<rect x="296.811" y="130.286" width="2.51298" height="111.409" transform="rotate(90 296.811 130.286)" fill="#404040"/>
<rect width="2.51298" height="60.8701" transform="matrix(4.37114e-08 -1 -1 -4.37114e-08 26.5259 170.773)" fill="#404040"/>
<rect x="24.0129" y="168.26" width="2.51298" height="61.1493" fill="#404040"/>
<rect width="2.51298" height="37.4156" transform="matrix(1 0 0 -1 304.63 159.324)" fill="#404040"/>
<rect x="165.857" y="224.383" width="2.51298" height="38.2532" transform="rotate(-180 165.857 224.383)" fill="#404040"/>
</g>
<circle opacity="0.2" cx="160" cy="100" r="100" fill="#4AA29A"/>
<circle cx="160" cy="100" r="90" fill="#89BDB9"/>
<mask id="mask0" mask-type="alpha" maskUnits="userSpaceOnUse" x="70" y="10" width="180" height="180">
<circle cx="160" cy="100" r="90" fill="#4B0731"/>
</mask>
<g mask="url(#mask0)">
<path d="M220.76 102.332C233.046 108.996 247.539 97.6704 243.718 84.2318C243.666 84.0474 243.61 83.8618 243.551 83.6749C238.877 68.8774 248.311 60.2674 240.467 51.4903C232.623 42.7131 221.1 49.8919 218.765 63.013C216.43 76.1342 205.692 79.8507 206.719 87.384C207.82 95.5281 212.73 97.9767 220.76 102.332Z" fill="#71D3CA"/>
<path d="M220.361 98.9901L220.108 98.8676C227.611 83.5262 231.571 58.5834 231.61 58.3384L231.889 58.3829C231.85 58.6335 227.882 83.6116 220.361 98.9901Z" fill="#05AFAF"/>
<path d="M229.041 72.5217L228.902 72.2785C231.062 71.044 233.954 68.38 233.984 68.3503L234.17 68.5564C234.146 68.5824 231.229 71.2705 229.041 72.5217Z" fill="#05AFAF"/>
<path d="M227.583 77.6232C224.964 75.169 223.829 71.4135 223.818 71.3745L224.087 71.2947C224.098 71.3318 225.213 75.0075 227.776 77.4208L227.583 77.6232Z" fill="#05AFAF"/>
<path d="M225.196 86.7456H225.159V86.4653C227.477 86.495 231.828 83.7104 231.872 83.6807L232.025 83.9164C231.846 84.0315 227.606 86.7456 225.196 86.7456Z" fill="#05AFAF"/>
<path d="M93.3764 148.825C82.7586 143.111 82.0806 138.86 72.8727 133.124C63.6648 127.387 61.8629 113.382 71.4981 107.598C81.1332 101.813 82.1177 75.183 104.668 75.3928C112.011 75.4615 121.169 68.2697 128.642 66.6268C136.115 64.9839 140.716 76.6626 150.361 81.4614C160.005 86.2602 180.982 78.4856 190.591 106.987C195.742 122.275 215.453 135.205 209.167 152.315C204.945 163.873 178.551 171.143 167.162 167.987C155.773 164.831 143.556 152.95 131.224 151.669C118.892 150.388 103.95 154.511 93.3764 148.825Z" fill="#63ACA5"/>
<path d="M193.532 107.48C218.452 107.48 238.654 106.299 238.654 104.842C238.654 103.385 218.452 102.204 193.532 102.204C168.612 102.204 148.41 103.385 148.41 104.842C148.41 106.299 168.612 107.48 193.532 107.48Z" fill="#05AFAF"/>
<path d="M157.093 102.74H191.926V75.3804H157.093V102.74Z" fill="#FDE2CF"/>
<path d="M191.924 104.173H221.386V84.0795H191.924V104.173Z" fill="#FDE2CF"/>
<path d="M218.31 87.6978H195.001V104.172H218.31V87.6978Z" fill="#34726C"/>
<path d="M191.926 84.6531H221.977L220.922 81.0312H191.926V84.6531Z" fill="#34726C"/>
<path d="M175.098 101.124H189.806V90.7536H175.098V101.124Z" fill="white"/>
<path d="M159.208 101.124H173.917V90.7536H159.208V101.124Z" fill="white"/>
<path d="M159.208 83.623H189.808V78.4381H159.208V83.623Z" fill="white"/>
<path d="M192.927 70.1804H156.089V76.4941H192.927V70.1804Z" fill="#34726C"/>
<path d="M192.927 102.742H156.089V104.173H192.927V102.742Z" fill="#FDE2CF"/>
<rect x="212.028" y="114.389" width="1.28877" height="10.2283" transform="rotate(-180 212.028 114.389)" fill="#F3B36A"/>
<rect x="207.362" y="108.444" width="1.28875" height="58.7317" transform="rotate(90 207.362 108.444)" fill="#F3B36A"/>
<rect x="209.693" y="112.023" width="1.28876" height="7.85847" transform="rotate(-180 209.693 112.023)" fill="#F3B36A"/>
<rect x="209.692" y="110.779" width="1.28872" height="60.6215" transform="rotate(90 209.692 110.779)" fill="#F3B36A"/>
<rect x="207.358" y="108.681" width="1.28876" height="4.5157" transform="rotate(-180 207.358 108.681)" fill="#F3B36A"/>
<rect x="212.026" y="113.114" width="1.28875" height="64.2263" transform="rotate(90 212.026 113.114)" fill="#F3B36A"/>
<path d="M180.191 88.197H184.614V82.2751H180.191V88.197Z" fill="white"/>
<path d="M165.167 88.197H169.59V82.2751H165.167V88.197Z" fill="white"/>
<path d="M158.489 89.062H190.818V88.1988H158.489V89.062Z" fill="#34726C"/>
<path d="M158.281 83.3945H191.056V83.1662H158.281V83.3945Z" fill="#34726C"/>
<path d="M190.594 88.4495H190.818V83.2812H190.594V88.4495Z" fill="#34726C"/>
<path d="M188.989 88.4495H189.213V83.2812H188.989V88.4495Z" fill="#34726C"/>
<path d="M185.779 88.4495H186.004V83.2812H185.779V88.4495Z" fill="#34726C"/>
<path d="M182.567 88.4495H182.792V83.2812H182.567V88.4495Z" fill="#34726C"/>
<path d="M179.357 88.4495H179.582V83.2812H179.357V88.4495Z" fill="#34726C"/>
<path d="M176.147 88.4495H176.372V83.2812H176.147V88.4495Z" fill="#34726C"/>
<path d="M172.938 88.4495H173.162V83.2812H172.938V88.4495Z" fill="#34726C"/>
<path d="M169.726 88.4495H169.951V83.2812H169.726V88.4495Z" fill="#34726C"/>
<path d="M166.514 88.4495H166.739V83.2812H166.514V88.4495Z" fill="#34726C"/>
<path d="M163.306 88.4495H163.531V83.2812H163.306V88.4495Z" fill="#34726C"/>
<path d="M160.095 88.4495H160.319V83.2812H160.095V88.4495Z" fill="#34726C"/>
<path d="M158.489 88.4495H158.714V83.2812H158.489V88.4495Z" fill="#34726C"/>
<path d="M184.055 74.2071L192.498 73.9694L191.69 66.1094L183.358 66.1279L184.055 74.2071Z" fill="#34726C"/>
<path d="M184.222 74.0324L192.301 73.804L191.526 66.2837L183.555 66.3004L184.222 74.0324Z" fill="#5FBAB2"/>
<path d="M191.129 73.9028C191.113 73.9029 191.098 73.8973 191.086 73.887C191.075 73.8767 191.067 73.8625 191.065 73.8471L190.211 66.2934C190.21 66.2852 190.211 66.2768 190.213 66.2689C190.215 66.261 190.219 66.2536 190.224 66.2471C190.229 66.2407 190.236 66.2354 190.243 66.2316C190.25 66.2277 190.258 66.2254 190.267 66.2247C190.283 66.2231 190.299 66.2278 190.312 66.2378C190.325 66.2478 190.333 66.2624 190.335 66.2785L191.19 73.8322C191.191 73.8405 191.19 73.849 191.188 73.857C191.186 73.8651 191.182 73.8726 191.177 73.8792C191.172 73.8857 191.165 73.8912 191.158 73.8952C191.15 73.8993 191.142 73.9019 191.134 73.9028H191.129Z" fill="#71D3CA"/>
<path d="M189.788 73.9566C189.772 73.9566 189.757 73.9509 189.746 73.9406C189.735 73.9303 189.728 73.9161 189.726 73.9009L188.866 66.2896C188.865 66.2813 188.866 66.2729 188.868 66.2648C188.87 66.2567 188.874 66.2492 188.879 66.2427C188.884 66.2361 188.891 66.2306 188.898 66.2266C188.906 66.2225 188.914 66.22 188.922 66.219C188.938 66.2175 188.955 66.2224 188.968 66.2328C188.981 66.2433 188.989 66.2583 188.991 66.2747L189.851 73.886C189.852 73.9025 189.847 73.9189 189.837 73.9317C189.826 73.9446 189.811 73.9528 189.795 73.9547L189.788 73.9566Z" fill="#71D3CA"/>
<path d="M188.431 73.9824C188.416 73.9825 188.401 73.9769 188.389 73.9666C188.378 73.9564 188.37 73.9421 188.368 73.9267L187.506 66.2987C187.505 66.2907 187.506 66.2825 187.508 66.2747C187.51 66.2668 187.514 66.2595 187.519 66.2531C187.524 66.2467 187.53 66.2414 187.537 66.2374C187.544 66.2335 187.552 66.231 187.56 66.23C187.577 66.2284 187.594 66.2333 187.607 66.2437C187.62 66.2541 187.629 66.2691 187.631 66.2857L188.487 73.9119C188.488 73.9202 188.488 73.9286 188.485 73.9367C188.483 73.9447 188.479 73.9522 188.474 73.9588C188.469 73.9654 188.462 73.9708 188.455 73.9749C188.448 73.9789 188.44 73.9815 188.431 73.9824Z" fill="#71D3CA"/>
<path d="M187.077 73.9937C187.062 73.9938 187.047 73.9881 187.036 73.9778C187.024 73.9674 187.017 73.9533 187.016 73.938L186.152 66.31C186.15 66.2933 186.155 66.2764 186.165 66.2632C186.176 66.25 186.191 66.2414 186.208 66.2394C186.225 66.2375 186.241 66.2422 186.255 66.2527C186.268 66.2631 186.276 66.2784 186.278 66.2951L187.14 73.9231C187.141 73.9313 187.141 73.9397 187.138 73.9476C187.136 73.9555 187.132 73.9629 187.127 73.9694C187.122 73.9758 187.115 73.9811 187.108 73.9849C187.101 73.9888 187.093 73.9911 187.085 73.9918L187.077 73.9937Z" fill="#71D3CA"/>
<path d="M185.732 74.0533C185.717 74.0534 185.702 74.0478 185.69 74.0375C185.678 74.0272 185.671 74.013 185.669 73.9976L184.798 66.2842C184.796 66.2677 184.8 66.2511 184.81 66.2379C184.82 66.2247 184.835 66.216 184.852 66.2137C184.868 66.2121 184.885 66.217 184.898 66.2274C184.911 66.2377 184.92 66.2528 184.922 66.2694L185.795 73.9828C185.797 73.9994 185.792 74.0161 185.782 74.0292C185.771 74.0424 185.756 74.051 185.74 74.0533H185.732Z" fill="#71D3CA"/>
<path d="M184.092 72.6014C184.075 72.6014 184.059 72.5947 184.047 72.5829C184.035 72.5711 184.029 72.555 184.029 72.5383C184.029 72.5219 184.036 72.5063 184.048 72.4948C184.06 72.4834 184.076 72.477 184.092 72.477L192.057 72.4584C192.066 72.4569 192.076 72.4573 192.084 72.4597C192.093 72.4621 192.102 72.4664 192.109 72.4723C192.116 72.4783 192.121 72.4857 192.125 72.494C192.129 72.5023 192.131 72.5114 192.131 72.5206C192.131 72.5298 192.129 72.5389 192.125 72.5473C192.121 72.5556 192.116 72.563 192.109 72.5689C192.102 72.5749 192.093 72.5792 192.084 72.5816C192.076 72.584 192.066 72.5844 192.057 72.5828L184.092 72.6014Z" fill="#71D3CA"/>
<path d="M183.985 71.3502C183.968 71.3498 183.952 71.343 183.94 71.3312C183.929 71.3195 183.922 71.3037 183.921 71.2871C183.922 71.2707 183.929 71.2551 183.941 71.2437C183.952 71.2322 183.968 71.2258 183.985 71.2258L192.052 71.2073C192.067 71.2098 192.08 71.2174 192.089 71.2288C192.099 71.2402 192.104 71.2546 192.104 71.2695C192.104 71.2843 192.099 71.2987 192.089 71.3101C192.08 71.3215 192.067 71.3291 192.052 71.3317L183.985 71.3502Z" fill="#71D3CA"/>
<path d="M183.894 70.0953C183.884 70.0969 183.875 70.0964 183.866 70.094C183.857 70.0916 183.849 70.0873 183.842 70.0814C183.835 70.0755 183.829 70.0681 183.825 70.0597C183.822 70.0514 183.82 70.0423 183.82 70.0331C183.82 70.0239 183.822 70.0148 183.825 70.0065C183.829 69.9981 183.835 69.9907 183.842 69.9848C183.849 69.9789 183.857 69.9746 183.866 69.9722C183.875 69.9698 183.884 69.9693 183.894 69.9709L191.911 69.9523C191.92 69.9508 191.929 69.9512 191.938 69.9536C191.947 69.956 191.955 69.9603 191.962 69.9662C191.969 69.9722 191.975 69.9796 191.979 69.9879C191.983 69.9962 191.985 70.0053 191.985 70.0145C191.985 70.0237 191.983 70.0328 191.979 70.0412C191.975 70.0495 191.969 70.0569 191.962 70.0628C191.955 70.0688 191.947 70.0731 191.938 70.0755C191.929 70.0779 191.92 70.0783 191.911 70.0767L183.894 70.0953Z" fill="#71D3CA"/>
<path d="M183.771 68.8475C183.755 68.8471 183.739 68.8406 183.727 68.8292C183.716 68.8179 183.709 68.8025 183.708 68.7863C183.708 68.7695 183.714 68.7535 183.726 68.7416C183.738 68.7298 183.754 68.7232 183.771 68.7232L191.783 68.7046C191.799 68.7046 191.815 68.711 191.827 68.7224C191.838 68.7339 191.845 68.7494 191.846 68.7659C191.846 68.7826 191.839 68.7987 191.827 68.8105C191.815 68.8223 191.799 68.829 191.783 68.829L183.771 68.8475Z" fill="#71D3CA"/>
<path d="M183.695 67.5965C183.678 67.596 183.663 67.5892 183.651 67.5774C183.64 67.5656 183.633 67.5498 183.633 67.5334C183.633 67.5171 183.64 67.5016 183.651 67.4901C183.663 67.4786 183.678 67.4721 183.695 67.4721L191.682 67.4536C191.691 67.452 191.7 67.4524 191.709 67.4548C191.718 67.4572 191.727 67.4615 191.734 67.4675C191.741 67.4734 191.746 67.4808 191.75 67.4891C191.754 67.4975 191.756 67.5066 191.756 67.5158C191.756 67.525 191.754 67.5341 191.75 67.5424C191.746 67.5507 191.741 67.5581 191.734 67.5641C191.727 67.57 191.718 67.5743 191.709 67.5767C191.7 67.5791 191.691 67.5795 191.682 67.578L183.695 67.5965Z" fill="#71D3CA"/>
<g opacity="0.3">
<path opacity="0.3" d="M191.197 66.5679C191.428 66.6904 191.628 69.3414 191.534 69.4453C191.439 69.5493 190.954 67.4497 190.668 67.1582C190.382 66.8668 188.669 66.9299 188.439 66.8129C188.208 66.696 188.208 66.5549 188.208 66.5549C188.208 66.5549 190.967 66.4435 191.197 66.5679Z" fill="white"/>
</g>
<g opacity="0.3">
<path opacity="0.3" d="M184.792 73.5961C184.56 73.4791 184.291 70.8412 184.384 70.7353C184.477 70.6295 185.015 72.7106 185.313 72.9946C185.61 73.2786 187.321 73.1802 187.542 73.2823C187.763 73.3844 187.779 73.5348 187.779 73.5348C187.779 73.5348 185.027 73.713 184.792 73.5961Z" fill="white"/>
</g>
<path d="M175.074 74.2071L183.518 73.9694L182.708 66.1094L174.377 66.1279L175.074 74.2071Z" fill="#34726C"/>
<path d="M175.241 74.0324L183.319 73.804L182.545 66.2837L174.574 66.3004L175.241 74.0324Z" fill="#5FBAB2"/>
<path d="M182.147 73.9028C182.132 73.9029 182.117 73.8973 182.105 73.887C182.094 73.8767 182.086 73.8625 182.084 73.8471L181.23 66.2934C181.228 66.2769 181.233 66.2605 181.244 66.2476C181.254 66.2348 181.269 66.2266 181.285 66.2247C181.302 66.223 181.318 66.2277 181.331 66.2377C181.345 66.2477 181.353 66.2623 181.356 66.2785L182.211 73.8323C182.212 73.8489 182.207 73.8656 182.197 73.8787C182.186 73.8919 182.171 73.9005 182.155 73.9028H182.147Z" fill="#71D3CA"/>
<path d="M180.801 73.9566C180.785 73.9567 180.77 73.951 180.758 73.9408C180.747 73.9305 180.739 73.9163 180.737 73.9009L179.877 66.2896C179.876 66.2813 179.877 66.2729 179.879 66.2648C179.882 66.2567 179.885 66.2492 179.891 66.2427C179.896 66.2361 179.902 66.2306 179.909 66.2266C179.917 66.2225 179.925 66.22 179.933 66.219C179.95 66.2175 179.966 66.2224 179.979 66.2328C179.992 66.2433 180 66.2583 180.002 66.2747L180.862 73.886C180.864 73.9022 180.859 73.9184 180.849 73.9312C180.839 73.944 180.824 73.9524 180.808 73.9547L180.801 73.9566Z" fill="#71D3CA"/>
<path d="M179.45 73.9826C179.434 73.9827 179.419 73.977 179.408 73.9668C179.396 73.9565 179.389 73.9423 179.387 73.9269L178.525 66.2988C178.525 66.2836 178.531 66.2691 178.542 66.2579C178.552 66.2467 178.566 66.2397 178.581 66.2381C178.597 66.2366 178.612 66.2405 178.624 66.2493C178.637 66.2581 178.646 66.271 178.649 66.2859L179.513 73.912C179.515 73.9287 179.51 73.9453 179.499 73.9585C179.489 73.9716 179.474 73.9802 179.457 73.9826H179.45Z" fill="#71D3CA"/>
<path d="M178.098 73.9936C178.082 73.9937 178.067 73.9881 178.056 73.9778C178.044 73.9675 178.037 73.9533 178.035 73.9379L177.173 66.3099C177.172 66.3019 177.172 66.2937 177.175 66.2859C177.177 66.278 177.18 66.2707 177.185 66.2643C177.19 66.2579 177.197 66.2526 177.204 66.2486C177.211 66.2447 177.219 66.2422 177.227 66.2412C177.243 66.2391 177.26 66.2436 177.273 66.2537C177.286 66.2637 177.295 66.2786 177.297 66.2951L178.159 73.9231C178.16 73.9313 178.16 73.9396 178.157 73.9475C178.155 73.9555 178.151 73.9629 178.146 73.9693C178.141 73.9757 178.134 73.981 178.127 73.9849C178.12 73.9887 178.112 73.9911 178.103 73.9918L178.098 73.9936Z" fill="#71D3CA"/>
<path d="M176.751 74.0533C176.736 74.0534 176.721 74.0477 176.71 74.0374C176.698 74.0271 176.691 74.0129 176.69 73.9976L175.817 66.2842C175.816 66.2759 175.816 66.2675 175.819 66.2594C175.821 66.2514 175.825 66.2439 175.83 66.2373C175.835 66.2307 175.842 66.2253 175.849 66.2212C175.856 66.2171 175.864 66.2146 175.873 66.2137C175.889 66.2121 175.906 66.2171 175.918 66.2275C175.931 66.2379 175.939 66.2529 175.941 66.2694L176.814 73.9828C176.815 73.9911 176.815 73.9995 176.813 74.0075C176.81 74.0156 176.806 74.0231 176.801 74.0297C176.796 74.0362 176.79 74.0417 176.782 74.0458C176.775 74.0498 176.767 74.0524 176.759 74.0533H176.751Z" fill="#71D3CA"/>
<path d="M175.113 72.6014C175.098 72.5989 175.085 72.5912 175.075 72.5798C175.066 72.5685 175.06 72.5541 175.06 72.5392C175.06 72.5243 175.066 72.5099 175.075 72.4986C175.085 72.4872 175.098 72.4796 175.113 72.477L183.078 72.4584C183.087 72.4569 183.096 72.4573 183.105 72.4597C183.114 72.4621 183.122 72.4664 183.129 72.4723C183.136 72.4783 183.142 72.4857 183.146 72.494C183.15 72.5023 183.152 72.5114 183.152 72.5206C183.152 72.5298 183.15 72.5389 183.146 72.5473C183.142 72.5556 183.136 72.563 183.129 72.5689C183.122 72.5749 183.114 72.5792 183.105 72.5816C183.096 72.584 183.087 72.5844 183.078 72.5828L175.113 72.6014Z" fill="#71D3CA"/>
<path d="M175.005 71.3502C174.997 71.3502 174.989 71.3485 174.981 71.3454C174.973 71.3422 174.966 71.3375 174.96 71.3317C174.955 71.3258 174.95 71.3189 174.947 71.3112C174.944 71.3036 174.942 71.2953 174.942 71.2871C174.942 71.2708 174.948 71.2552 174.96 71.2437C174.971 71.2322 174.987 71.2258 175.003 71.2258L183.071 71.2072C183.08 71.2057 183.089 71.2061 183.098 71.2085C183.107 71.2109 183.115 71.2152 183.122 71.2211C183.129 71.227 183.135 71.2344 183.139 71.2428C183.143 71.2511 183.145 71.2602 183.145 71.2694C183.145 71.2786 183.143 71.2877 183.139 71.2961C183.135 71.3044 183.129 71.3118 183.122 71.3177C183.115 71.3236 183.107 71.328 183.098 71.3304C183.089 71.3328 183.08 71.3332 183.071 71.3316L175.005 71.3502Z" fill="#71D3CA"/>
<path d="M174.912 70.0953C174.904 70.0953 174.896 70.0937 174.888 70.0905C174.88 70.0874 174.873 70.0827 174.867 70.0768C174.862 70.071 174.857 70.064 174.854 70.0564C174.851 70.0487 174.849 70.0405 174.849 70.0322C174.849 70.0158 174.856 70.0002 174.868 69.9888C174.88 69.9773 174.896 69.9709 174.912 69.971L182.929 69.9524C182.944 69.9549 182.957 69.9626 182.967 69.9739C182.976 69.9853 182.982 69.9997 182.982 70.0146C182.982 70.0295 182.976 70.0438 182.967 70.0552C182.957 70.0666 182.944 70.0742 182.929 70.0768L174.91 70.0953H174.912Z" fill="#71D3CA"/>
<path d="M174.789 68.848C174.775 68.8454 174.761 68.8378 174.752 68.8264C174.742 68.815 174.737 68.8007 174.737 68.7858C174.737 68.7709 174.742 68.7565 174.752 68.7451C174.761 68.7338 174.775 68.7261 174.789 68.7236L182.801 68.705C182.81 68.7035 182.819 68.7039 182.828 68.7063C182.837 68.7087 182.845 68.713 182.853 68.7189C182.86 68.7248 182.865 68.7322 182.869 68.7406C182.873 68.7489 182.875 68.758 182.875 68.7672C182.875 68.7764 182.873 68.7855 182.869 68.7939C182.865 68.8022 182.86 68.8096 182.853 68.8155C182.845 68.8214 182.837 68.8257 182.828 68.8281C182.819 68.8305 182.81 68.831 182.801 68.8294L174.789 68.848Z" fill="#71D3CA"/>
<path d="M174.715 67.5965C174.707 67.5965 174.699 67.5949 174.691 67.5917C174.683 67.5885 174.676 67.5839 174.671 67.578C174.665 67.5722 174.66 67.5652 174.657 67.5576C174.654 67.5499 174.652 67.5417 174.652 67.5334C174.652 67.5171 174.659 67.5016 174.67 67.4901C174.682 67.4786 174.697 67.4721 174.713 67.4721L182.701 67.4536C182.71 67.452 182.719 67.4524 182.728 67.4548C182.737 67.4572 182.745 67.4615 182.752 67.4675C182.759 67.4734 182.765 67.4808 182.769 67.4891C182.773 67.4975 182.775 67.5066 182.775 67.5158C182.775 67.525 182.773 67.5341 182.769 67.5424C182.765 67.5507 182.759 67.5581 182.752 67.5641C182.745 67.57 182.737 67.5743 182.728 67.5767C182.719 67.5791 182.71 67.5795 182.701 67.578L174.713 67.5965H174.715Z" fill="#71D3CA"/>
<g opacity="0.3">
<path opacity="0.3" d="M182.216 66.5679C182.446 66.6904 182.647 69.3414 182.552 69.4453C182.458 69.5493 181.973 67.4497 181.687 67.1582C181.401 66.8668 179.69 66.9299 179.458 66.8129C179.225 66.696 179.227 66.5549 179.227 66.5549C179.227 66.5549 181.986 66.4435 182.216 66.5679Z" fill="white"/>
</g>
<g opacity="0.3">
<path opacity="0.3" d="M175.813 73.5961C175.579 73.4791 175.311 70.8412 175.403 70.7353C175.494 70.6295 176.034 72.7106 176.331 72.9946C176.628 73.2786 178.339 73.1802 178.56 73.2823C178.781 73.3844 178.796 73.5348 178.796 73.5348C178.796 73.5348 176.042 73.713 175.813 73.5961Z" fill="white"/>
</g>
<path d="M166.094 74.2071L174.537 73.9694L173.727 66.1094L165.396 66.1279L166.094 74.2071Z" fill="#34726C"/>
<path d="M166.26 74.0324L174.34 73.804L173.565 66.2837L165.593 66.3004L166.26 74.0324Z" fill="#5FBAB2"/>
<path d="M173.166 73.9028C173.151 73.9029 173.136 73.8972 173.125 73.8869C173.113 73.8766 173.106 73.8624 173.105 73.8471L172.25 66.2934C172.249 66.2853 172.25 66.2771 172.252 66.2693C172.254 66.2615 172.258 66.2542 172.263 66.2478C172.268 66.2414 172.274 66.236 172.281 66.2321C172.288 66.2281 172.296 66.2256 172.304 66.2247C172.321 66.223 172.337 66.2277 172.35 66.2377C172.363 66.2477 172.372 66.2623 172.375 66.2785L173.229 73.8323C173.23 73.8406 173.23 73.849 173.227 73.857C173.225 73.8651 173.221 73.8726 173.216 73.8792C173.211 73.8857 173.204 73.8912 173.197 73.8953C173.19 73.8993 173.182 73.9019 173.173 73.9028H173.166Z" fill="#71D3CA"/>
<path d="M171.819 73.9567C171.804 73.9568 171.789 73.9512 171.777 73.9409C171.766 73.9306 171.758 73.9164 171.756 73.901L170.896 66.2897C170.894 66.273 170.899 66.2562 170.909 66.2429C170.92 66.2297 170.935 66.2212 170.952 66.2192C170.969 66.2172 170.986 66.222 170.999 66.2324C171.012 66.2429 171.021 66.2581 171.022 66.2749L171.883 73.8862C171.884 73.9026 171.879 73.919 171.869 73.9319C171.858 73.9447 171.843 73.953 171.827 73.9549L171.819 73.9567Z" fill="#71D3CA"/>
<path d="M170.469 73.9828C170.454 73.9829 170.439 73.9772 170.427 73.9669C170.416 73.9566 170.409 73.9424 170.408 73.9271L169.54 66.2991C169.538 66.2904 169.538 66.2813 169.539 66.2724C169.541 66.2635 169.545 66.2551 169.55 66.2478C169.555 66.2404 169.562 66.2342 169.57 66.2296C169.577 66.2251 169.586 66.2222 169.595 66.2213C169.604 66.2204 169.613 66.2213 169.622 66.2242C169.63 66.2271 169.638 66.2317 169.645 66.2379C169.651 66.244 169.656 66.2515 169.66 66.2598C169.663 66.2681 169.665 66.2771 169.665 66.2861L170.528 73.9123C170.529 73.9206 170.529 73.929 170.527 73.937C170.524 73.9451 170.52 73.9526 170.515 73.9592C170.51 73.9657 170.504 73.9712 170.496 73.9753C170.489 73.9793 170.481 73.9819 170.473 73.9828H170.469Z" fill="#71D3CA"/>
<path d="M169.117 73.9935C169.101 73.9937 169.086 73.988 169.075 73.9778C169.063 73.9675 169.055 73.9533 169.054 73.9379L168.192 66.3098C168.192 66.2945 168.197 66.2796 168.208 66.2682C168.218 66.2567 168.232 66.2493 168.247 66.2475C168.263 66.2457 168.278 66.2495 168.291 66.2583C168.303 66.267 168.312 66.2801 168.316 66.295L169.18 73.923C169.181 73.9395 169.176 73.9559 169.166 73.9687C169.156 73.9816 169.141 73.9898 169.124 73.9917L169.117 73.9935Z" fill="#71D3CA"/>
<path d="M167.772 74.0533C167.756 74.0534 167.741 74.0478 167.729 74.0375C167.718 74.0272 167.71 74.013 167.709 73.9976L166.836 66.2842C166.834 66.2676 166.839 66.2509 166.849 66.2378C166.86 66.2246 166.875 66.216 166.891 66.2137C166.908 66.2121 166.925 66.217 166.938 66.2274C166.951 66.2377 166.959 66.2528 166.962 66.2694L167.833 73.9828C167.834 73.9911 167.833 73.9995 167.831 74.0075C167.829 74.0156 167.825 74.0231 167.82 74.0297C167.815 74.0362 167.808 74.0417 167.801 74.0458C167.794 74.0498 167.786 74.0524 167.777 74.0533H167.772Z" fill="#71D3CA"/>
<path d="M166.132 72.6012C166.123 72.6028 166.113 72.6023 166.104 72.5999C166.095 72.5975 166.087 72.5932 166.08 72.5873C166.073 72.5814 166.067 72.574 166.064 72.5656C166.06 72.5573 166.058 72.5482 166.058 72.539C166.058 72.5298 166.06 72.5207 166.064 72.5124C166.067 72.504 166.073 72.4966 166.08 72.4907C166.087 72.4848 166.095 72.4805 166.104 72.4781C166.113 72.4757 166.123 72.4752 166.132 72.4768L174.095 72.4583C174.11 72.4608 174.123 72.4684 174.132 72.4798C174.142 72.4912 174.147 72.5056 174.147 72.5204C174.147 72.5353 174.142 72.5497 174.132 72.5611C174.123 72.5725 174.11 72.5801 174.095 72.5826L166.13 72.6012H166.132Z" fill="#71D3CA"/>
<path d="M166.024 71.3502C166.015 71.3517 166.006 71.3513 165.997 71.3489C165.988 71.3465 165.979 71.3422 165.972 71.3363C165.965 71.3304 165.96 71.323 165.956 71.3146C165.952 71.3063 165.95 71.2972 165.95 71.288C165.95 71.2788 165.952 71.2697 165.956 71.2613C165.96 71.253 165.965 71.2456 165.972 71.2397C165.979 71.2338 165.988 71.2294 165.997 71.227C166.006 71.2246 166.015 71.2242 166.024 71.2258L174.089 71.2072C174.098 71.2057 174.108 71.2061 174.117 71.2085C174.126 71.2109 174.134 71.2152 174.141 71.2211C174.148 71.227 174.154 71.2344 174.157 71.2428C174.161 71.2511 174.163 71.2602 174.163 71.2694C174.163 71.2786 174.161 71.2877 174.157 71.2961C174.154 71.3044 174.148 71.3118 174.141 71.3177C174.134 71.3236 174.126 71.328 174.117 71.3304C174.108 71.3328 174.098 71.3332 174.089 71.3316L166.024 71.3502Z" fill="#71D3CA"/>
<path d="M165.931 70.0953C165.916 70.0928 165.903 70.0852 165.893 70.0738C165.884 70.0624 165.879 70.048 165.879 70.0331C165.879 70.0183 165.884 70.0039 165.893 69.9925C165.903 69.9811 165.916 69.9735 165.931 69.971L173.95 69.9524C173.966 69.9528 173.982 69.9594 173.994 69.9707C174.005 69.9821 174.012 69.9974 174.013 70.0137C174.013 70.0304 174.007 70.0464 173.995 70.0583C173.983 70.0701 173.967 70.0768 173.95 70.0768L165.931 70.0953Z" fill="#71D3CA"/>
<path d="M165.81 68.848C165.801 68.8495 165.792 68.8491 165.783 68.8467C165.774 68.8443 165.766 68.84 165.759 68.8341C165.752 68.8281 165.746 68.8208 165.742 68.8124C165.738 68.8041 165.736 68.795 165.736 68.7858C165.736 68.7766 165.738 68.7675 165.742 68.7591C165.746 68.7508 165.752 68.7434 165.759 68.7375C165.766 68.7316 165.774 68.7273 165.783 68.7249C165.792 68.7225 165.801 68.722 165.81 68.7236L173.82 68.705C173.829 68.7035 173.838 68.7039 173.847 68.7063C173.856 68.7087 173.864 68.713 173.871 68.7189C173.878 68.7248 173.884 68.7322 173.888 68.7406C173.892 68.7489 173.894 68.758 173.894 68.7672C173.894 68.7764 173.892 68.7855 173.888 68.7938C173.884 68.8022 173.878 68.8096 173.871 68.8155C173.864 68.8214 173.856 68.8257 173.847 68.8281C173.838 68.8305 173.829 68.831 173.82 68.8294L165.808 68.848H165.81Z" fill="#71D3CA"/>
<path d="M165.734 67.5968C165.725 67.5984 165.716 67.5979 165.707 67.5955C165.698 67.5931 165.69 67.5888 165.683 67.5829C165.676 67.577 165.67 67.5696 165.666 67.5612C165.662 67.5529 165.66 67.5438 165.66 67.5346C165.66 67.5254 165.662 67.5163 165.666 67.508C165.67 67.4996 165.676 67.4922 165.683 67.4863C165.69 67.4804 165.698 67.4761 165.707 67.4737C165.716 67.4713 165.725 67.4709 165.734 67.4724L173.722 67.4539C173.738 67.4543 173.753 67.4608 173.765 67.4722C173.777 67.4835 173.784 67.4989 173.785 67.5151C173.785 67.5319 173.778 67.5479 173.766 67.5598C173.754 67.5716 173.738 67.5782 173.722 67.5782L165.734 67.5968Z" fill="#71D3CA"/>
<g opacity="0.3">
<path opacity="0.3" d="M173.237 66.5679C173.465 66.6904 173.666 69.3414 173.573 69.4453C173.48 69.5493 172.993 67.4497 172.707 67.1582C172.421 66.8668 170.708 66.9299 170.478 66.8129C170.248 66.696 170.248 66.5549 170.248 66.5549C170.248 66.5549 173.006 66.4435 173.237 66.5679Z" fill="white"/>
</g>
<g opacity="0.3">
<path opacity="0.3" d="M166.832 73.5961C166.598 73.4791 166.33 70.8412 166.421 70.7353C166.512 70.6295 167.053 72.7106 167.35 72.9946C167.647 73.2786 169.358 73.1802 169.579 73.2823C169.8 73.3844 169.817 73.5348 169.817 73.5348C169.817 73.5348 167.066 73.713 166.832 73.5961Z" fill="white"/>
</g>
<path d="M157.113 74.2071L165.556 73.9694L164.748 66.1094L156.417 66.1279L157.113 74.2071Z" fill="#34726C"/>
<path d="M157.28 74.0324L165.359 73.804L164.584 66.2837L156.612 66.3004L157.28 74.0324Z" fill="#5FBAB2"/>
<path d="M164.185 73.9028C164.169 73.9029 164.155 73.8972 164.143 73.8869C164.132 73.8766 164.125 73.8624 164.123 73.8471L163.269 66.2934C163.268 66.2852 163.269 66.2768 163.271 66.2689C163.273 66.261 163.277 66.2536 163.282 66.2471C163.287 66.2407 163.294 66.2354 163.301 66.2316C163.309 66.2277 163.317 66.2254 163.325 66.2247C163.341 66.2231 163.357 66.2278 163.37 66.2378C163.383 66.2478 163.391 66.2624 163.393 66.2785L164.248 73.8323C164.249 73.8405 164.248 73.849 164.246 73.857C164.244 73.8651 164.24 73.8726 164.235 73.8792C164.23 73.8857 164.223 73.8912 164.216 73.8953C164.209 73.8993 164.201 73.9019 164.192 73.9028H164.185Z" fill="#71D3CA"/>
<path d="M162.838 73.9565C162.823 73.9566 162.808 73.9509 162.797 73.9406C162.785 73.9302 162.778 73.9161 162.777 73.9008L161.917 66.2895C161.915 66.2808 161.914 66.2718 161.916 66.263C161.918 66.2542 161.921 66.2458 161.926 66.2384C161.931 66.2311 161.938 66.2249 161.946 66.2202C161.953 66.2156 161.962 66.2127 161.971 66.2116C161.98 66.2106 161.989 66.2114 161.997 66.2141C162.006 66.2168 162.014 66.2213 162.02 66.2272C162.027 66.2332 162.032 66.2405 162.036 66.2487C162.04 66.2568 162.041 66.2657 162.041 66.2746L162.901 73.8859C162.903 73.9024 162.898 73.9188 162.888 73.9317C162.877 73.9445 162.862 73.9528 162.846 73.9546L162.838 73.9565Z" fill="#71D3CA"/>
<path d="M161.488 73.9827C161.472 73.9827 161.457 73.977 161.446 73.9667C161.435 73.9564 161.428 73.9422 161.426 73.927L160.563 66.299C160.561 66.2822 160.566 66.2655 160.576 66.2524C160.587 66.2394 160.602 66.2311 160.619 66.2293C160.636 66.2276 160.653 66.2326 160.666 66.2432C160.679 66.2538 160.687 66.2692 160.689 66.286L161.553 73.9121C161.554 73.9204 161.553 73.9288 161.551 73.9369C161.549 73.9449 161.545 73.9525 161.54 73.959C161.534 73.9656 161.528 73.9711 161.521 73.9751C161.513 73.9792 161.505 73.9817 161.497 73.9827H161.488Z" fill="#71D3CA"/>
<path d="M160.135 73.9936C160.12 73.9937 160.105 73.988 160.094 73.9777C160.082 73.9674 160.075 73.9532 160.074 73.9379L159.21 66.3099C159.209 66.2934 159.214 66.277 159.224 66.2642C159.234 66.2513 159.25 66.2431 159.266 66.2412C159.274 66.2402 159.282 66.2408 159.29 66.2429C159.298 66.2451 159.305 66.2488 159.312 66.2538C159.318 66.2588 159.323 66.265 159.327 66.2721C159.331 66.2792 159.334 66.287 159.335 66.2951L160.198 73.9231C160.2 73.9313 160.199 73.9396 160.197 73.9475C160.194 73.9555 160.19 73.9629 160.185 73.9693C160.18 73.9757 160.174 73.981 160.166 73.9849C160.159 73.9887 160.151 73.9911 160.143 73.9918L160.135 73.9936Z" fill="#71D3CA"/>
<path d="M158.791 74.0533C158.775 74.0534 158.76 74.0478 158.748 74.0375C158.737 74.0272 158.729 74.013 158.727 73.9976L157.856 66.2842C157.855 66.276 157.855 66.2676 157.857 66.2596C157.859 66.2516 157.863 66.244 157.868 66.2374C157.873 66.2308 157.879 66.2253 157.887 66.2212C157.894 66.2171 157.902 66.2146 157.91 66.2137C157.927 66.2121 157.943 66.217 157.957 66.2274C157.97 66.2377 157.978 66.2528 157.981 66.2694L158.854 73.9828C158.855 73.9994 158.85 74.0161 158.84 74.0292C158.83 74.0424 158.815 74.051 158.798 74.0533H158.791Z" fill="#71D3CA"/>
<path d="M157.15 72.6012C157.141 72.6028 157.132 72.6023 157.123 72.5999C157.114 72.5975 157.106 72.5932 157.099 72.5873C157.092 72.5814 157.086 72.574 157.082 72.5656C157.078 72.5573 157.076 72.5482 157.076 72.539C157.076 72.5298 157.078 72.5207 157.082 72.5124C157.086 72.504 157.092 72.4966 157.099 72.4907C157.106 72.4848 157.114 72.4805 157.123 72.4781C157.132 72.4757 157.141 72.4752 157.15 72.4768L165.115 72.4583C165.132 72.4587 165.147 72.4652 165.159 72.4766C165.171 72.4879 165.178 72.5032 165.178 72.5195C165.178 72.5363 165.172 72.5523 165.16 72.5641C165.148 72.576 165.132 72.5826 165.115 72.5826L157.15 72.6012Z" fill="#71D3CA"/>
<path d="M157.042 71.3502C157.033 71.3518 157.024 71.3514 157.015 71.349C157.006 71.3466 156.998 71.3422 156.991 71.3363C156.984 71.3304 156.978 71.323 156.974 71.3147C156.971 71.3063 156.969 71.2972 156.969 71.288C156.969 71.2788 156.971 71.2697 156.974 71.2614C156.978 71.2531 156.984 71.2457 156.991 71.2397C156.998 71.2338 157.006 71.2295 157.015 71.2271C157.024 71.2247 157.033 71.2243 157.042 71.2258L165.108 71.2073C165.123 71.2098 165.136 71.2174 165.145 71.2288C165.155 71.2402 165.16 71.2546 165.16 71.2695C165.16 71.2843 165.155 71.2987 165.145 71.3101C165.136 71.3215 165.123 71.3291 165.108 71.3317L157.041 71.3502H157.042Z" fill="#71D3CA"/>
<path d="M156.952 70.0953C156.943 70.0969 156.933 70.0964 156.924 70.094C156.915 70.0916 156.907 70.0873 156.9 70.0814C156.893 70.0755 156.887 70.0681 156.884 70.0597C156.88 70.0514 156.878 70.0423 156.878 70.0331C156.878 70.0239 156.88 70.0148 156.884 70.0065C156.887 69.9981 156.893 69.9907 156.9 69.9848C156.907 69.9789 156.915 69.9746 156.924 69.9722C156.933 69.9698 156.943 69.9693 156.952 69.9709L164.969 69.9523C164.978 69.9508 164.987 69.9512 164.996 69.9536C165.005 69.956 165.013 69.9603 165.02 69.9662C165.027 69.9722 165.033 69.9796 165.037 69.9879C165.041 69.9962 165.043 70.0053 165.043 70.0145C165.043 70.0237 165.041 70.0328 165.037 70.0412C165.033 70.0495 165.027 70.0569 165.02 70.0628C165.013 70.0688 165.005 70.0731 164.996 70.0755C164.987 70.0779 164.978 70.0783 164.969 70.0767L156.952 70.0953Z" fill="#71D3CA"/>
<path d="M156.829 68.8475C156.82 68.8491 156.81 68.8487 156.802 68.8463C156.793 68.8439 156.784 68.8396 156.777 68.8336C156.77 68.8277 156.765 68.8203 156.761 68.812C156.757 68.8036 156.755 68.7945 156.755 68.7853C156.755 68.7761 156.757 68.7671 156.761 68.7587C156.765 68.7504 156.77 68.743 156.777 68.7371C156.784 68.7311 156.793 68.7268 156.802 68.7244C156.81 68.722 156.82 68.7216 156.829 68.7232L164.84 68.7046C164.857 68.7046 164.872 68.711 164.884 68.7225C164.895 68.734 164.902 68.7496 164.902 68.7659C164.902 68.7741 164.901 68.7822 164.898 68.7899C164.895 68.7975 164.89 68.8045 164.884 68.8104C164.879 68.8163 164.872 68.8209 164.864 68.8241C164.857 68.8273 164.849 68.829 164.84 68.829L156.829 68.8475Z" fill="#71D3CA"/>
<path d="M156.753 67.5965C156.744 67.5981 156.734 67.5976 156.725 67.5952C156.717 67.5928 156.708 67.5885 156.701 67.5826C156.694 67.5767 156.688 67.5693 156.685 67.561C156.681 67.5526 156.679 67.5435 156.679 67.5343C156.679 67.5251 156.681 67.516 156.685 67.5077C156.688 67.4993 156.694 67.4919 156.701 67.486C156.708 67.4801 156.717 67.4758 156.725 67.4734C156.734 67.471 156.744 67.4706 156.753 67.4721L164.74 67.4536C164.749 67.452 164.759 67.4524 164.767 67.4548C164.776 67.4572 164.785 67.4615 164.792 67.4675C164.799 67.4734 164.804 67.4808 164.808 67.4891C164.812 67.4975 164.814 67.5066 164.814 67.5158C164.814 67.525 164.812 67.534 164.808 67.5424C164.804 67.5507 164.799 67.5581 164.792 67.564C164.785 67.57 164.776 67.5743 164.767 67.5767C164.759 67.5791 164.749 67.5795 164.74 67.5779L156.753 67.5965Z" fill="#71D3CA"/>
<g opacity="0.3">
<path opacity="0.3" d="M164.255 66.5679C164.485 66.6904 164.686 69.3414 164.591 69.4453C164.497 69.5493 164.012 67.4497 163.726 67.1582C163.44 66.8668 161.727 66.9299 161.497 66.8129C161.266 66.696 161.266 66.5549 161.266 66.5549C161.266 66.5549 164.025 66.4435 164.255 66.5679Z" fill="white"/>
</g>
<g opacity="0.3">
<path opacity="0.3" d="M157.851 73.5961C157.618 73.4791 157.349 70.8412 157.442 70.7353C157.535 70.6295 158.073 72.7106 158.371 72.9946C158.668 73.2786 160.379 73.1802 160.6 73.2823C160.821 73.3844 160.838 73.5348 160.838 73.5348C160.838 73.5348 158.085 73.713 157.851 73.5961Z" fill="white"/>
</g>
<path d="M192.301 73.8044H156.951V75.3824H192.301V73.8044Z" fill="#34726C"/>
<path d="M195.002 89.0808H218.31V88.613H195.002V89.0808Z" fill="#459991"/>
<path d="M195.002 90.6584H218.31V90.1906H195.002V90.6584Z" fill="#459991"/>
<path d="M195.002 92.2346H218.31V91.7668H195.002V92.2346Z" fill="#459991"/>
<path d="M195.002 93.8088H218.31V93.341H195.002V93.8088Z" fill="#459991"/>
<path d="M195.002 95.3848H218.31V94.9169H195.002V95.3848Z" fill="#459991"/>
<path d="M195.002 96.9614H218.31V96.4936H195.002V96.9614Z" fill="#459991"/>
<path d="M195.002 98.5376H218.31V98.0698H195.002V98.5376Z" fill="#459991"/>
<path d="M195.002 100.114H218.31V99.6457H195.002V100.114Z" fill="#459991"/>
<path d="M195.002 101.69H218.31V101.222H195.002V101.69Z" fill="#459991"/>
<path d="M195.002 103.264H218.31V102.796H195.002V103.264Z" fill="#459991"/>
<path d="M223.34 174.272C225.393 174.116 227.372 173.437 229.088 172.3C230.805 171.162 232.201 169.604 233.144 167.774C234.423 165.266 235.335 162.095 234.58 158.709C233.053 151.849 231.847 149.466 232.803 144.141C233.58 139.808 232.914 135.309 230.03 130.902C227.86 127.591 227.725 123.26 228.833 119.463C230.394 114.109 226.702 104.023 218.485 111.953C213.392 116.869 213.182 124.598 214.491 130.865C215.322 134.864 215.158 144.642 213.171 149.36C210.178 156.467 210.336 163.112 213.106 170.16C214.645 174.065 219.404 174.586 223.34 174.272Z" fill="#3C857E"/>
<path opacity="0.1" d="M221.725 174.372L221.567 174.322C221.604 174.208 225.258 162.867 223.953 155.224C223.307 151.428 223.508 147.427 223.704 143.558C223.826 141.168 223.94 138.913 223.837 136.894C223.742 135.018 223.13 132.182 222.54 129.445C221.978 126.829 221.447 124.363 221.349 122.732C220.991 116.756 225.61 109.409 225.657 109.334L225.798 109.425C225.752 109.497 221.162 116.8 221.516 122.722C221.612 124.336 222.143 126.801 222.704 129.409C223.295 132.153 223.907 134.991 224.005 136.886C224.107 138.916 223.993 141.177 223.875 143.57C223.679 147.429 223.477 151.426 224.121 155.2C225.428 162.881 221.762 174.258 221.725 174.372Z" fill="white"/>
<path opacity="0.1" d="M221.549 124.363L221.515 124.199C225.632 123.103 228.549 120.195 228.579 120.166L228.697 120.284C228.659 120.314 225.711 123.255 221.549 124.363Z" fill="white"/>
<path opacity="0.1" d="M221.531 120.611C219.283 119.194 217.408 117.261 216.06 114.973L216.209 114.894C217.54 117.159 219.395 119.07 221.619 120.469L221.531 120.611Z" fill="white"/>
<path opacity="0.1" d="M223.109 132.235C218.52 130.695 213.896 126.912 213.848 126.874L213.956 126.746C214.002 126.784 218.603 130.547 223.163 132.076L223.109 132.235Z" fill="white"/>
<path opacity="0.1" d="M223.942 136.967L223.897 136.806C228.002 135.637 230.742 132.222 230.769 132.187L230.9 132.291C230.873 132.325 228.108 135.781 223.942 136.967Z" fill="white"/>
<path opacity="0.1" d="M223.728 144.188C219.418 142.444 214.925 139.015 214.879 138.979L214.981 138.848C215.026 138.882 219.492 142.3 223.791 144.033L223.728 144.188Z" fill="white"/>
<path opacity="0.1" d="M226.863 151.421C225.807 151.64 224.731 151.737 223.653 151.708L223.656 151.541C229.032 151.681 232.408 148.688 232.441 148.658L232.552 148.781C232.522 148.808 230.407 150.685 226.863 151.421Z" fill="white"/>
<path opacity="0.1" d="M224.273 159.962C217.552 157.264 212.111 152.377 212.062 152.326L212.175 152.202C212.229 152.252 217.648 157.119 224.341 159.805L224.273 159.962Z" fill="white"/>
<path d="M119.572 78.4492C119.572 78.4492 151.629 61.3219 158.454 60.5088C158.454 60.5088 163.027 59.7106 162.08 64.3237C160.977 69.6944 123.458 86.7678 123.458 86.7678L119.572 78.4492Z" fill="#FFCBAD"/>
<path d="M113.375 91.0223C113.375 91.0223 147.749 75.2688 154.888 74.8566C154.888 74.8566 159.69 74.3183 158.417 79.0484C156.931 84.5546 116.882 99.909 116.882 99.909L113.375 91.0223Z" fill="#FFCBAD"/>
<path d="M112.952 103.206C112.952 103.206 147.368 87.4265 154.516 87.0218C154.516 87.0218 159.324 86.4816 158.046 91.2173C156.56 96.7309 116.459 112.106 116.459 112.106L112.952 103.206Z" fill="#FFCBAD"/>
<path d="M118.849 112.284C118.849 112.284 148.187 98.8379 154.282 98.4871C154.282 98.4871 158.38 98.0267 157.289 102.064C156.918 103.41 153.496 105.046 149.302 107.262C138.877 112.793 121.838 119.869 121.838 119.869L118.849 112.284Z" fill="#FFCBAD"/>
<path d="M140.142 122.986L105.406 90.0219V72.0945C105.01 71.4718 104.433 70.9847 103.753 70.6981C103.073 70.4115 102.321 70.3391 101.598 70.4906C101.576 70.4963 101.554 70.5057 101.535 70.5184C100.987 70.8544 100.902 73.9008 100.918 77.5282C100.937 82.1841 97.8683 90.6178 97.4708 92.6673C96.1705 99.3689 95.7061 107.597 99.3283 125.247C99.6422 126.773 99.8763 128.151 100.045 129.395C100.045 129.443 99.8038 133.928 98.5909 140.617C98.568 140.686 98.5549 140.759 98.5518 140.832C98.3995 141.664 98.0986 143.472 97.7624 145.438C97.6225 146.26 97.6636 147.102 97.8829 147.906C98.1022 148.711 98.4944 149.458 99.0322 150.095C99.57 150.732 100.24 151.245 100.997 151.597C101.753 151.948 102.577 152.131 103.411 152.132H119.758C121.216 152.131 122.618 151.576 123.682 150.579C124.745 149.582 125.39 148.219 125.485 146.765C125.652 144.303 125.949 141.608 126.469 140.132C128.2 139.059 139.06 131.951 140.142 122.986Z" fill="#FFCBAD"/>
<path d="M147.665 51.4089H107.847C106.5 51.4089 105.408 52.5002 105.408 53.8464V120.549C105.408 121.895 106.5 122.987 107.847 122.987H147.665C149.012 122.987 150.104 121.895 150.104 120.549V53.8464C150.104 52.5002 149.012 51.4089 147.665 51.4089Z" fill="#404040"/>
<path d="M148.574 54.3196H107.292V120.428H148.574V54.3196Z" fill="#10C1BC"/>
<path d="M148.397 116.678H107.115V120.252H148.397V116.678Z" fill="#71D3CA"/>
<path d="M148.397 54.1433H107.115V57.7169H148.397V54.1433Z" fill="#71D3CA"/>
<path d="M140.343 72.1522C140.442 72.1485 140.537 72.1182 140.62 72.0644C140.703 72.0107 140.769 71.9356 140.813 71.8471C140.856 71.7585 140.875 71.6599 140.867 71.5616C140.859 71.4633 140.824 71.3691 140.766 71.289C140.503 70.8248 136.951 65.5712 136.643 65.5786C136.334 65.586 134.3 71.6417 134.3 71.6417L140.343 72.1522Z" fill="#E2581D"/>
<path d="M115.47 71.972C115.47 71.972 115.086 81.6124 115.47 82.199C115.855 82.7856 134.28 82.199 134.28 82.199C134.28 82.199 134.444 71.8421 133.842 71.5543C133.24 71.2666 115.47 71.972 115.47 71.972Z" fill="white"/>
<path d="M134.28 82.1994C134.91 82.1121 139.481 82.385 140.176 82.1994C140.871 82.0137 140.586 71.7032 140.176 71.486C139.765 71.2688 133.842 71.5547 133.842 71.5547L134.28 82.1994Z" fill="#FDE2CF"/>
<path d="M136.63 65.9312L140.176 71.4855L134.598 71.6619L136.63 65.9312Z" fill="#FDE2CF"/>
<path d="M134.282 72.384C133.52 72.874 114.937 72.5306 114.406 72.384C113.875 72.2373 116.055 66.7256 117.062 66.1074C118.069 65.4892 136.381 65.6229 136.641 65.5784C136.901 65.5338 135.01 71.9143 134.282 72.384Z" fill="#E2581D"/>
<path d="M118.675 82.4606C118.675 82.4606 118.545 74.9106 118.675 74.7045C118.805 74.4984 121.571 74.3518 122.041 74.7045C122.511 75.0572 122.659 82.4495 122.659 82.4495L118.675 82.4606Z" fill="#E2581D"/>
<path d="M125.633 74.4449C125.364 74.5415 125.536 78.5847 125.806 78.6943C126.075 78.8038 131.183 78.8223 131.395 78.7834C131.607 78.7444 131.453 74.3874 131.209 74.3484C130.966 74.3094 126.591 74.1034 125.633 74.4449Z" fill="#10C1BC"/>
<path d="M127.45 74.2612L127.274 74.2681L127.45 78.8073L127.626 78.8005L127.45 74.2612Z" fill="white"/>
<path d="M129.739 74.2524L129.563 74.2593L129.74 78.7985L129.916 78.7916L129.739 74.2524Z" fill="white"/>
<path d="M131.471 76.4571L125.498 76.5645L125.501 76.7408L131.474 76.6335L131.471 76.4571Z" fill="white"/>
<path d="M135.733 74.3537C135.569 74.439 135.673 78.0665 135.837 78.1574C136 78.2484 139.087 78.2725 139.216 78.2373C139.344 78.202 139.251 74.3017 139.1 74.2683C138.95 74.2348 136.312 74.0473 135.733 74.3537Z" fill="#10C1BC"/>
<path d="M137.586 74.1834L137.409 74.1902L137.57 78.3176L137.746 78.3108L137.586 74.1834Z" fill="#F1F0F8"/>
<path d="M139.272 76.1924L135.602 76.2583L135.605 76.4346L139.275 76.3687L139.272 76.1924Z" fill="#F1F0F8"/>
<path d="M131.098 94.7457C131.538 92.9006 130.397 91.0487 128.551 90.6094C126.705 90.1702 124.852 91.3099 124.412 93.1551C123.973 95.0003 125.113 96.8522 126.96 97.2914C128.806 97.7307 130.659 96.5909 131.098 94.7457Z" fill="white"/>
<path d="M140.425 95.9516C141.533 94.4116 141.183 92.2656 139.642 91.1582C138.101 90.0509 135.953 90.4015 134.845 91.9414C133.737 93.4814 134.088 95.6274 135.629 96.7348C137.17 97.8422 139.317 97.4915 140.425 95.9516Z" fill="white"/>
<path d="M130.186 106.766C131.528 105.425 131.528 103.25 130.186 101.909C128.844 100.568 126.668 100.568 125.326 101.909C123.984 103.25 123.984 105.425 125.326 106.766C126.668 108.107 128.844 108.107 130.186 106.766Z" fill="white"/>
<path d="M140.517 105.272C141.252 103.524 140.429 101.511 138.679 100.777C136.929 100.042 134.915 100.865 134.18 102.614C133.446 104.363 134.269 106.376 136.019 107.11C137.769 107.844 139.783 107.021 140.517 105.272Z" fill="#E2581D"/>
<path d="M137.482 101.031C137.392 100.931 137.14 100.799 137.073 101.308C137.006 101.816 136.93 105.067 136.952 105.392C136.974 105.717 136.295 106.19 136.974 106.758C137.695 107.361 138.275 106.363 137.805 105.568C137.426 104.928 137.855 101.45 137.482 101.031Z" fill="white"/>
<path d="M126.517 93.9503C126.634 93.8482 128.724 93.863 129.017 93.9503C129.311 94.0375 129.337 96.0109 129.16 96.1297C128.984 96.2485 126.638 96.2114 126.374 96.048C126.11 95.8846 126.268 94.1712 126.517 93.9503Z" fill="#4AA29A"/>
<path d="M126.562 94.0965C126.517 93.9498 126.357 92.0544 127.216 91.7982C128.074 91.542 128.665 91.8335 128.856 92.4368C129.047 93.0402 129.025 94.1559 129.025 94.1559H128.674C128.674 94.1559 128.791 92.4851 128.276 92.2382C127.762 91.9913 127.162 92.0915 126.976 92.6095C126.79 93.1274 126.87 94.1485 126.87 94.1485L126.562 94.0965Z" fill="#4AA29A"/>
<path d="M137.572 96.1572C137.396 96.1354 137.235 96.0503 137.119 95.9179C137.002 95.7856 136.938 95.6151 136.938 95.4387C136.952 95.1273 136.926 94.8155 136.862 94.5105C136.752 94.2599 136.078 93.6361 136.409 92.7358C136.475 92.5297 136.592 92.3437 136.75 92.1954C136.907 92.0472 137.1 91.9415 137.31 91.8884C137.52 91.8352 137.74 91.8364 137.949 91.8918C138.158 91.9472 138.35 92.0549 138.506 92.2049C139.214 92.8082 138.989 93.935 138.506 94.4214C138.385 94.5458 138.374 95.0173 138.387 95.4053C138.39 95.5006 138.375 95.5955 138.341 95.6847C138.307 95.7738 138.256 95.8553 138.19 95.9244C138.124 95.9935 138.045 96.0488 137.958 96.0872C137.871 96.1256 137.777 96.1462 137.681 96.1479H137.67L137.572 96.1572Z" fill="#4AA29A"/>
<path d="M121.038 95.2682C121.756 93.5124 120.914 91.5073 119.157 90.7898C117.401 90.0722 115.394 90.9138 114.676 92.6695C113.958 94.4253 114.8 96.4304 116.557 97.1479C118.314 97.8655 120.32 97.0239 121.038 95.2682Z" fill="white"/>
<path d="M117.96 92.1618C117.95 92.1441 117.935 92.1294 117.917 92.1191C117.9 92.1089 117.88 92.1035 117.859 92.1035C117.839 92.1035 117.818 92.1089 117.801 92.1191C117.783 92.1294 117.768 92.1441 117.758 92.1618C117.457 92.6705 116.601 94.215 116.721 95.1321C116.868 96.2459 118.781 96.3759 119.004 95.1896C119.158 94.3709 118.258 92.702 117.96 92.1618Z" fill="#4AA29A"/>
<path d="M127.418 105.466C127.418 105.378 127.444 105.293 127.493 105.22C127.542 105.147 127.611 105.091 127.692 105.057C127.772 105.024 127.861 105.015 127.947 105.032C128.033 105.05 128.112 105.092 128.174 105.154C128.235 105.216 128.277 105.295 128.294 105.38C128.311 105.466 128.302 105.555 128.268 105.636C128.234 105.717 128.178 105.785 128.105 105.834C128.032 105.882 127.946 105.908 127.858 105.907C127.8 105.907 127.743 105.896 127.69 105.874C127.636 105.851 127.587 105.819 127.547 105.778C127.506 105.737 127.473 105.688 127.451 105.634C127.429 105.581 127.418 105.523 127.418 105.466Z" fill="#4AA29A"/>
<path d="M129.396 104.958C129.358 104.959 129.321 104.946 129.291 104.923C127.667 103.679 126.504 104.814 126.463 104.862C126.43 104.891 126.386 104.907 126.342 104.906C126.297 104.904 126.255 104.886 126.223 104.855C126.191 104.824 126.173 104.782 126.171 104.737C126.169 104.693 126.184 104.649 126.213 104.615C126.227 104.6 127.639 103.213 129.504 104.643C129.533 104.665 129.554 104.696 129.565 104.732C129.575 104.767 129.575 104.804 129.563 104.839C129.551 104.874 129.529 104.904 129.499 104.925C129.469 104.947 129.433 104.958 129.396 104.958Z" fill="#4AA29A"/>
<path d="M129.879 103.891C129.841 103.891 129.803 103.879 129.772 103.856C127.639 102.241 125.767 103.832 125.748 103.856C125.713 103.885 125.667 103.9 125.622 103.896C125.576 103.892 125.533 103.871 125.503 103.836C125.473 103.802 125.457 103.757 125.459 103.711C125.462 103.665 125.482 103.622 125.516 103.591C125.538 103.572 127.626 101.795 129.985 103.591C130.014 103.613 130.035 103.644 130.046 103.679C130.057 103.714 130.056 103.751 130.044 103.786C130.033 103.821 130.011 103.851 129.981 103.872C129.952 103.894 129.916 103.906 129.879 103.906V103.891Z" fill="#4AA29A"/>
<path d="M120.932 104.593C121.439 102.765 120.367 100.872 118.539 100.365C116.71 99.8584 114.816 100.929 114.309 102.757C113.802 104.585 114.873 106.477 116.702 106.984C118.531 107.491 120.425 106.42 120.932 104.593Z" fill="white"/>
<path d="M115.964 102.176C116.434 102.046 117.565 101.828 119.201 102.116C119.281 102.13 119.353 102.172 119.405 102.233C119.457 102.295 119.486 102.373 119.486 102.454C119.473 103.174 119.3 105.077 117.814 105.981C117.756 106.017 117.689 106.036 117.621 106.033C117.552 106.031 117.486 106.008 117.431 105.968C116.9 105.562 116.468 105.04 116.17 104.441C115.872 103.843 115.715 103.184 115.711 102.515C115.709 102.438 115.732 102.363 115.778 102.301C115.824 102.24 115.889 102.195 115.964 102.176Z" fill="#4AA29A"/>
<path d="M105.408 92.6675C105.408 92.6675 112.231 112.16 110.555 124.676H101.292L104.995 92.6675H105.408Z" fill="#FFCBAD"/>
<path d="M153.164 75.2805C153.164 75.2805 145.656 79.7099 144.667 82.0508C143.679 84.3918 144.998 85.9493 146.525 86.135C148.052 86.3206 152.582 83.8683 154.68 82.5335L153.164 75.2805Z" fill="#FFCBAD"/>
<path d="M152.265 87.7886C152.265 87.7886 146.692 91.1914 145.7 93.5342C144.708 95.877 146.031 97.4326 147.558 97.6276C149.085 97.8225 153.617 95.3553 155.077 94.2118L152.265 87.7886Z" fill="#FFCBAD"/>
<path d="M151.955 99.4561C151.955 99.4561 148.36 101.209 147.497 103.241C146.633 105.274 147.783 106.626 149.116 106.794C150.45 106.963 155.151 105.471 157.104 102.454L151.955 99.4561Z" fill="#FFCBAD"/>
<path d="M145.828 82.6075C145.8 82.5971 145.776 82.5796 145.756 82.5568C145.737 82.5339 145.724 82.5065 145.719 82.4771C145.713 82.4477 145.716 82.4174 145.725 82.3892C145.735 82.361 145.752 82.3358 145.774 82.3161C146.618 81.5958 149.549 79.2883 150.799 80.8904C151.914 82.3291 150.017 84.2523 147.987 85.2047C147.964 85.2156 147.939 85.2213 147.913 85.2214C147.888 85.2214 147.863 85.2158 147.84 85.205C147.817 85.1941 147.797 85.1783 147.781 85.1587C147.765 85.139 147.753 85.1161 147.747 85.0914C147.608 84.5549 147.119 83.1032 145.828 82.6075Z" fill="white"/>
<path d="M146.583 94.1059C146.561 94.098 146.541 94.0845 146.526 94.0668C146.511 94.0491 146.501 94.0277 146.496 94.0049C146.492 93.982 146.494 93.9584 146.502 93.9364C146.509 93.9143 146.522 93.8947 146.54 93.8794C147.309 93.2129 150.342 90.7718 151.62 92.4091C152.752 93.859 150.812 95.8008 148.763 96.7494C148.745 96.7573 148.726 96.7611 148.706 96.7607C148.687 96.7603 148.667 96.7556 148.649 96.7469C148.632 96.7383 148.616 96.7259 148.604 96.7106C148.591 96.6953 148.582 96.6775 148.578 96.6584C148.451 96.1554 147.959 94.5997 146.583 94.1059Z" fill="white"/>
<path d="M148.594 104.196C148.57 104.184 148.548 104.167 148.532 104.145C148.516 104.122 148.506 104.097 148.503 104.069C148.5 104.042 148.504 104.015 148.515 103.99C148.526 103.965 148.543 103.943 148.565 103.926C149.269 103.405 151.47 101.931 152.298 103.149C153.051 104.262 151.579 105.562 150.049 106.18C150.027 106.188 150.004 106.192 149.981 106.19C149.958 106.189 149.936 106.182 149.916 106.171C149.895 106.16 149.878 106.144 149.864 106.126C149.851 106.107 149.842 106.086 149.837 106.063C149.752 105.644 149.462 104.624 148.594 104.196Z" fill="white"/>
<path d="M110.726 122.986C110.726 122.986 112.026 128.76 124.03 127.256C136.033 125.752 137.982 122.986 137.976 122.986H110.726Z" fill="#D4A88C"/>
<g opacity="0.5">
<path opacity="0.5" d="M102.796 76.6466C102.506 77.7994 100.981 77.5395 100.92 77.5284C100.903 73.9009 100.989 70.8546 101.537 70.5186C102.178 70.5594 102.913 71.0625 102.913 71.0625C102.913 71.0625 103.09 75.4789 102.796 76.6466Z" fill="white"/>
</g>
<path d="M185.342 130.057C184.465 128.465 182.534 125.181 178.566 127.429C177.5 128.032 176.523 127.505 174.6 125.879C172.601 124.186 171.477 123.291 169.135 125.108C166.793 126.926 164.172 124.512 162.032 124.629C159.892 124.746 159.548 127.262 157.403 126.751C155.998 126.417 152.413 119.604 150.104 114.931C149.477 113.665 148.943 112.557 148.572 111.775C148.414 111.438 148.284 111.163 148.189 110.964C148.095 110.766 148.05 110.662 148.028 110.615C148.028 110.615 145.119 102.733 143.075 101.396C141.032 100.06 139.336 101.038 138.888 102.454C138.441 103.871 139.992 108.562 140.893 110.782H141.142H140.893C140.893 110.782 141.314 112.013 141.961 113.879C142.247 114.705 142.576 115.655 142.932 116.678C143.324 117.803 143.75 119.017 144.184 120.25C144.205 120.309 144.227 120.369 144.248 120.426C144.547 121.278 144.851 122.14 145.152 122.984C146.339 126.307 147.474 129.408 148.109 130.922C149.174 133.462 150.294 140.843 151.002 146.186C151.455 149.576 151.745 152.145 151.745 152.145H191.756C191.756 152.145 189.429 137.502 185.342 130.057Z" fill="#FFCBAD"/>
<g opacity="0.5">
<path opacity="0.5" d="M142.06 101.84C142.212 101.828 142.364 101.86 142.499 101.932C142.633 102.004 142.744 102.113 142.819 102.246C143.429 103.332 144.844 106.217 143.206 107.073C141.677 107.877 140.191 105.803 139.634 103.742C139.58 103.544 139.607 103.332 139.71 103.154C139.955 102.71 140.594 101.953 142.06 101.84Z" fill="white"/>
</g>
<path d="M158.703 152.149H145.782C144.14 148.923 141.575 143.829 139.208 141.36C136.695 138.74 134.657 136.472 134.822 135.853C134.828 135.83 134.837 135.808 134.85 135.788C135.686 134.558 137.977 132.972 140.324 134.205C143.566 135.909 149.328 143.827 151.002 146.19C151.303 146.613 151.472 146.858 151.472 146.858L157.787 147.322C158.068 148.936 158.38 150.545 158.703 152.149Z" fill="#FFCBAD"/>
<g opacity="0.5">
<path opacity="0.5" d="M139.96 139.425C140.544 140.459 139.26 141.32 139.208 141.356C136.695 138.738 134.657 136.469 134.822 135.849C135.316 135.437 136.195 135.292 136.195 135.292C136.195 135.292 139.362 138.37 139.96 139.425Z" fill="white"/>
</g>
<path d="M145.782 152.149C145.782 152.149 150.639 164.772 158.748 167.186C165.753 169.274 169.819 179.002 172.254 185.202C172.558 185.974 173.087 186.638 173.773 187.105C174.459 187.572 175.271 187.822 176.101 187.821H196.226C196.539 187.822 196.849 187.753 197.132 187.618C197.415 187.482 197.664 187.285 197.861 187.041C198.057 186.796 198.196 186.511 198.266 186.205C198.337 185.9 198.338 185.582 198.269 185.276C197.171 180.411 194.654 168.777 191.768 152.143L145.782 152.149Z" fill="#FFCBAD"/>
<path d="M105.408 72.3379C105.408 72.3379 106.918 74.7308 106.27 80.3372C105.622 85.9435 105.408 92.6675 105.408 92.6675L104.223 81.4436L105.408 72.3379Z" fill="#FFCBAD"/>
</g>
</svg>
