<svg width="732" height="460" viewBox="0 0 732 460" fill="none" xmlns="http://www.w3.org/2000/svg">
<g opacity="0.1">
<rect width="6.00863" height="416.099" transform="matrix(-4.37114e-08 1 1 4.37114e-08 -209.997 174)" fill="#404040"/>
<rect x="731.105" y="184.515" width="6.00864" height="301.935" transform="rotate(90 731.105 184.515)" fill="#404040"/>
<rect width="6.00865" height="54.8289" transform="matrix(1 0 0 -1 702.564 261.876)" fill="#404040"/>
<rect x="374.342" y="509.733" width="6.00865" height="142.705" transform="rotate(180 374.342 509.733)" fill="#404040"/>
<rect width="6.00863" height="414.597" transform="matrix(-4.37114e-08 1 1 4.37114e-08 -197.98 185.266)" fill="#404040"/>
<rect x="719.839" y="195.781" width="6.00864" height="301.184" transform="rotate(90 719.839 195.781)" fill="#404040"/>
<rect width="6.00865" height="77.3614" transform="matrix(1 0 0 -1 713.83 273.143)" fill="#404040"/>
<rect x="363.075" y="521" width="6.00865" height="141.954" transform="rotate(180 363.075 521)" fill="#404040"/>
<rect width="6.75972" height="392.816" transform="matrix(-4.37114e-08 1 1 4.37114e-08 -186.714 196.532)" fill="#404040"/>
<rect x="704.066" y="207.049" width="6.75972" height="299.682" transform="rotate(90 704.066 207.049)" fill="#404040"/>
<rect width="6.75973" height="100.645" transform="matrix(1 0 0 -1 725.097 285.16)" fill="#404040"/>
<rect x="351.809" y="460.162" width="6.75973" height="102.898" transform="rotate(-180 351.809 460.162)" fill="#404040"/>
</g>
<circle opacity="0.2" cx="384" cy="200" r="200" fill="#4AA29A"/>
<circle cx="384" cy="200" r="180" fill="#89BDB9"/>
<mask id="mask0" mask-type="alpha" maskUnits="userSpaceOnUse" x="204" y="20" width="360" height="360">
<circle cx="384" cy="200" r="180" fill="#4B0731"/>
</mask>
<g mask="url(#mask0)">
<path d="M505.521 204.664C530.092 217.993 559.078 195.341 551.436 168.464C551.332 168.095 551.22 167.724 551.101 167.35C541.754 137.755 560.623 120.535 544.934 102.981C529.245 85.4263 506.2 99.7838 501.531 126.026C496.861 152.268 475.384 159.701 477.438 174.768C479.641 191.056 489.46 195.953 505.521 204.664Z" fill="#71D3CA"/>
<path d="M504.722 197.98L504.217 197.735C519.222 167.052 527.143 117.167 527.221 116.677L527.778 116.766C527.7 117.267 519.764 167.223 504.722 197.98Z" fill="#05AFAF"/>
<path d="M522.082 145.043L521.804 144.557C526.125 142.088 531.909 136.76 531.968 136.701L532.34 137.113C532.292 137.165 526.459 142.541 522.082 145.043Z" fill="#05AFAF"/>
<path d="M519.166 155.246C513.928 150.338 511.658 142.827 511.636 142.749L512.174 142.589C512.197 142.664 514.426 150.015 519.553 154.842L519.166 155.246Z" fill="#05AFAF"/>
<path d="M514.392 173.491H514.318V172.931C518.955 172.99 527.655 167.421 527.744 167.361L528.049 167.833C527.692 168.063 519.211 173.491 514.392 173.491Z" fill="#05AFAF"/>
<path d="M250.753 297.65C229.517 286.222 228.161 277.72 209.745 266.247C191.33 254.774 187.726 226.765 206.996 215.196C226.266 203.627 228.235 150.366 273.337 150.786C288.023 150.923 306.338 136.539 321.284 133.254C336.23 129.968 345.432 153.325 364.721 162.923C384.01 172.52 425.965 156.971 445.183 213.974C455.485 244.549 494.906 270.409 482.334 304.63C473.89 327.746 421.102 342.286 398.324 335.974C375.547 329.662 351.113 305.9 326.448 303.338C301.783 300.776 271.899 309.023 250.753 297.65Z" fill="#63ACA5"/>
<path d="M451.065 214.96C500.905 214.96 541.308 212.597 541.308 209.684C541.308 206.77 500.905 204.408 451.065 204.408C401.224 204.408 360.821 206.77 360.821 209.684C360.821 212.597 401.224 214.96 451.065 214.96Z" fill="#05AFAF"/>
<path d="M378.185 205.48H447.851V150.761H378.185V205.48Z" fill="#FDE2CF"/>
<path d="M447.847 208.347H506.773V168.159H447.847V208.347Z" fill="#FDE2CF"/>
<path d="M500.62 175.396H454.003V208.343H500.62V175.396Z" fill="#34726C"/>
<path d="M447.851 169.306H507.954L505.844 162.062H447.851V169.306Z" fill="#34726C"/>
<path d="M414.196 202.247H443.612V181.507H414.196V202.247Z" fill="white"/>
<path d="M382.417 202.247H411.833V181.507H382.417V202.247Z" fill="white"/>
<path d="M382.417 167.246H443.616V156.876H382.417V167.246Z" fill="white"/>
<path d="M449.853 140.361H376.179V152.988H449.853V140.361Z" fill="#34726C"/>
<path d="M449.853 205.484H376.179V208.346H449.853V205.484Z" fill="#FDE2CF"/>
<rect x="488.056" y="228.777" width="2.57751" height="20.4565" transform="rotate(-180 488.056 228.777)" fill="#F3B36A"/>
<rect x="478.724" y="216.889" width="2.57749" height="117.463" transform="rotate(90 478.724 216.889)" fill="#F3B36A"/>
<rect x="483.386" y="224.047" width="2.57751" height="15.7169" transform="rotate(-180 483.386 224.047)" fill="#F3B36A"/>
<rect x="483.383" y="221.559" width="2.57746" height="121.243" transform="rotate(90 483.383 221.559)" fill="#F3B36A"/>
<rect x="478.717" y="217.361" width="2.57751" height="9.0314" transform="rotate(-180 478.717 217.361)" fill="#F3B36A"/>
<rect x="488.052" y="226.228" width="2.57751" height="128.453" transform="rotate(90 488.052 226.228)" fill="#F3B36A"/>
<path d="M424.383 176.394H433.228V164.55H424.383V176.394Z" fill="white"/>
<path d="M394.335 176.394H403.181V164.55H394.335V176.394Z" fill="white"/>
<path d="M380.979 178.124H445.637V176.398H380.979V178.124Z" fill="#34726C"/>
<path d="M380.563 166.789H446.112V166.332H380.563V166.789Z" fill="#34726C"/>
<path d="M445.187 176.899H445.637V166.562H445.187V176.899Z" fill="#34726C"/>
<path d="M441.977 176.899H442.427V166.562H441.977V176.899Z" fill="#34726C"/>
<path d="M435.558 176.899H436.007V166.562H435.558V176.899Z" fill="#34726C"/>
<path d="M429.134 176.899H429.584V166.562H429.134V176.899Z" fill="#34726C"/>
<path d="M422.714 176.899H423.164V166.562H422.714V176.899Z" fill="#34726C"/>
<path d="M416.295 176.899H416.744V166.562H416.295V176.899Z" fill="#34726C"/>
<path d="M409.875 176.899H410.325V166.562H409.875V176.899Z" fill="#34726C"/>
<path d="M403.452 176.899H403.901V166.562H403.452V176.899Z" fill="#34726C"/>
<path d="M397.028 176.899H397.478V166.562H397.028V176.899Z" fill="#34726C"/>
<path d="M390.612 176.899H391.062V166.562H390.612V176.899Z" fill="#34726C"/>
<path d="M384.189 176.899H384.638V166.562H384.189V176.899Z" fill="#34726C"/>
<path d="M380.979 176.899H381.428V166.562H380.979V176.899Z" fill="#34726C"/>
<path d="M432.11 148.414L448.995 147.939L447.379 132.219L430.717 132.256L432.11 148.414Z" fill="#34726C"/>
<path d="M432.445 148.065L448.602 147.608L447.052 132.567L431.111 132.601L432.445 148.065Z" fill="#5FBAB2"/>
<path d="M446.257 147.806C446.226 147.806 446.196 147.795 446.173 147.774C446.149 147.753 446.135 147.725 446.131 147.694L444.422 132.587C444.42 132.57 444.421 132.554 444.426 132.538C444.43 132.522 444.438 132.507 444.448 132.494C444.459 132.481 444.472 132.471 444.486 132.463C444.501 132.455 444.517 132.451 444.533 132.449C444.566 132.446 444.598 132.456 444.624 132.476C444.649 132.496 444.666 132.525 444.671 132.557L446.38 147.664C446.382 147.681 446.381 147.698 446.376 147.714C446.372 147.73 446.364 147.745 446.354 147.758C446.343 147.771 446.33 147.782 446.316 147.791C446.301 147.799 446.285 147.804 446.268 147.806H446.257Z" fill="#71D3CA"/>
<path d="M443.575 147.913C443.544 147.913 443.515 147.902 443.492 147.881C443.469 147.861 443.455 147.832 443.452 147.802L441.732 132.579C441.73 132.563 441.731 132.546 441.736 132.53C441.74 132.513 441.748 132.498 441.758 132.485C441.769 132.472 441.782 132.461 441.796 132.453C441.811 132.445 441.827 132.44 441.844 132.438C441.877 132.435 441.909 132.445 441.935 132.466C441.961 132.487 441.977 132.517 441.981 132.549L443.701 147.772C443.704 147.805 443.694 147.838 443.674 147.863C443.653 147.889 443.623 147.906 443.59 147.909L443.575 147.913Z" fill="#71D3CA"/>
<path d="M440.863 147.965C440.832 147.965 440.802 147.954 440.778 147.933C440.755 147.913 440.74 147.884 440.737 147.853L439.013 132.597C439.011 132.581 439.012 132.565 439.016 132.549C439.02 132.534 439.028 132.519 439.038 132.506C439.048 132.493 439.06 132.483 439.075 132.475C439.089 132.467 439.104 132.462 439.12 132.46C439.154 132.457 439.187 132.467 439.213 132.487C439.24 132.508 439.257 132.538 439.262 132.571L440.974 147.824C440.976 147.84 440.975 147.857 440.971 147.873C440.966 147.889 440.958 147.904 440.948 147.918C440.938 147.931 440.925 147.942 440.91 147.95C440.896 147.958 440.879 147.963 440.863 147.965Z" fill="#71D3CA"/>
<path d="M438.154 147.987C438.124 147.988 438.094 147.976 438.072 147.956C438.049 147.935 438.035 147.907 438.032 147.876L436.304 132.62C436.3 132.587 436.31 132.553 436.331 132.526C436.352 132.5 436.382 132.483 436.416 132.479C436.449 132.475 436.483 132.484 436.509 132.505C436.536 132.526 436.553 132.557 436.557 132.59L438.281 147.846C438.283 147.863 438.282 147.879 438.277 147.895C438.272 147.911 438.265 147.926 438.254 147.939C438.244 147.952 438.231 147.962 438.216 147.97C438.202 147.978 438.186 147.982 438.169 147.984L438.154 147.987Z" fill="#71D3CA"/>
<path d="M435.465 148.107C435.434 148.107 435.404 148.096 435.38 148.075C435.357 148.054 435.342 148.026 435.338 147.995L433.596 132.568C433.592 132.535 433.601 132.502 433.621 132.476C433.641 132.449 433.671 132.432 433.704 132.427C433.737 132.424 433.77 132.434 433.797 132.455C433.823 132.475 433.84 132.506 433.845 132.539L435.591 147.966C435.594 147.999 435.584 148.032 435.564 148.058C435.543 148.085 435.513 148.102 435.48 148.107H435.465Z" fill="#71D3CA"/>
<path d="M432.184 145.203C432.151 145.203 432.119 145.189 432.095 145.166C432.071 145.142 432.058 145.11 432.058 145.077C432.059 145.044 432.073 145.013 432.096 144.99C432.12 144.967 432.151 144.954 432.184 144.954L448.115 144.917C448.133 144.914 448.151 144.915 448.169 144.919C448.187 144.924 448.203 144.933 448.218 144.945C448.232 144.957 448.243 144.971 448.251 144.988C448.259 145.005 448.263 145.023 448.263 145.041C448.263 145.06 448.259 145.078 448.251 145.095C448.243 145.111 448.232 145.126 448.218 145.138C448.203 145.15 448.187 145.158 448.169 145.163C448.151 145.168 448.133 145.169 448.115 145.166L432.184 145.203Z" fill="#71D3CA"/>
<path d="M431.969 142.7C431.936 142.7 431.904 142.686 431.881 142.662C431.857 142.639 431.844 142.607 431.843 142.574C431.844 142.541 431.857 142.51 431.881 142.487C431.905 142.464 431.936 142.452 431.969 142.452L448.104 142.415C448.133 142.42 448.16 142.435 448.179 142.458C448.198 142.48 448.208 142.509 448.208 142.539C448.208 142.569 448.198 142.597 448.179 142.62C448.16 142.643 448.133 142.658 448.104 142.663L431.969 142.7Z" fill="#71D3CA"/>
<path d="M431.787 140.191C431.769 140.194 431.75 140.193 431.732 140.188C431.715 140.183 431.698 140.175 431.684 140.163C431.67 140.151 431.659 140.136 431.651 140.119C431.643 140.103 431.639 140.085 431.639 140.066C431.639 140.048 431.643 140.03 431.651 140.013C431.659 139.996 431.67 139.981 431.684 139.97C431.698 139.958 431.715 139.949 431.732 139.944C431.75 139.94 431.769 139.939 431.787 139.942L447.821 139.905C447.84 139.902 447.858 139.902 447.876 139.907C447.894 139.912 447.91 139.921 447.924 139.932C447.938 139.944 447.95 139.959 447.957 139.976C447.965 139.992 447.969 140.011 447.969 140.029C447.969 140.047 447.965 140.066 447.957 140.082C447.95 140.099 447.938 140.114 447.924 140.126C447.91 140.138 447.894 140.146 447.876 140.151C447.858 140.156 447.84 140.157 447.821 140.153L431.787 140.191Z" fill="#71D3CA"/>
<path d="M431.542 137.695C431.509 137.694 431.478 137.681 431.455 137.658C431.431 137.636 431.417 137.605 431.415 137.573C431.415 137.539 431.429 137.507 431.452 137.483C431.476 137.46 431.508 137.446 431.542 137.446L447.565 137.409C447.598 137.409 447.629 137.422 447.653 137.445C447.677 137.468 447.69 137.499 447.691 137.532C447.691 137.565 447.678 137.597 447.654 137.621C447.631 137.645 447.598 137.658 447.565 137.658L431.542 137.695Z" fill="#71D3CA"/>
<path d="M431.389 135.193C431.356 135.192 431.325 135.178 431.302 135.155C431.28 135.131 431.267 135.1 431.267 135.067C431.267 135.034 431.28 135.003 431.303 134.98C431.326 134.957 431.357 134.944 431.389 134.944L447.364 134.907C447.382 134.904 447.401 134.905 447.419 134.91C447.437 134.914 447.453 134.923 447.467 134.935C447.481 134.947 447.493 134.962 447.5 134.978C447.508 134.995 447.512 135.013 447.512 135.032C447.512 135.05 447.508 135.068 447.5 135.085C447.493 135.101 447.481 135.116 447.467 135.128C447.453 135.14 447.437 135.149 447.419 135.153C447.401 135.158 447.382 135.159 447.364 135.156L431.389 135.193Z" fill="#71D3CA"/>
<g opacity="0.3">
<path opacity="0.3" d="M446.395 133.136C446.855 133.381 447.256 138.683 447.067 138.891C446.878 139.099 445.908 134.899 445.336 134.316C444.764 133.734 441.338 133.86 440.878 133.626C440.417 133.392 440.417 133.11 440.417 133.11C440.417 133.11 445.934 132.887 446.395 133.136Z" fill="white"/>
</g>
<g opacity="0.3">
<path opacity="0.3" d="M433.585 147.192C433.121 146.958 432.582 141.682 432.768 141.471C432.953 141.259 434.031 145.421 434.625 145.989C435.22 146.557 438.641 146.36 439.083 146.565C439.525 146.769 439.559 147.07 439.559 147.07C439.559 147.07 434.053 147.426 433.585 147.192Z" fill="white"/>
</g>
<path d="M414.147 148.414L431.036 147.939L429.417 132.219L412.754 132.256L414.147 148.414Z" fill="#34726C"/>
<path d="M414.482 148.065L430.639 147.608L429.09 132.567L413.148 132.601L414.482 148.065Z" fill="#5FBAB2"/>
<path d="M428.295 147.806C428.264 147.806 428.234 147.795 428.21 147.774C428.187 147.753 428.172 147.725 428.168 147.694L426.46 132.587C426.456 132.554 426.466 132.521 426.487 132.495C426.508 132.47 426.538 132.453 426.571 132.449C426.604 132.446 426.637 132.455 426.663 132.475C426.689 132.495 426.707 132.525 426.712 132.557L428.421 147.665C428.424 147.698 428.414 147.731 428.394 147.757C428.373 147.784 428.343 147.801 428.31 147.806H428.295Z" fill="#71D3CA"/>
<path d="M425.601 147.913C425.57 147.913 425.54 147.902 425.517 147.882C425.494 147.861 425.479 147.833 425.475 147.802L423.755 132.579C423.753 132.563 423.754 132.546 423.759 132.53C423.763 132.513 423.771 132.498 423.781 132.485C423.791 132.472 423.804 132.461 423.819 132.453C423.834 132.445 423.85 132.44 423.866 132.438C423.899 132.435 423.932 132.445 423.958 132.466C423.984 132.487 424 132.517 424.004 132.549L425.724 147.772C425.727 147.804 425.718 147.837 425.698 147.862C425.678 147.888 425.648 147.905 425.616 147.909L425.601 147.913Z" fill="#71D3CA"/>
<path d="M422.9 147.965C422.869 147.965 422.839 147.954 422.816 147.934C422.793 147.913 422.778 147.885 422.774 147.854L421.05 132.598C421.051 132.567 421.063 132.538 421.084 132.516C421.105 132.493 421.133 132.479 421.163 132.476C421.194 132.473 421.224 132.481 421.249 132.499C421.274 132.516 421.292 132.542 421.299 132.572L423.027 147.824C423.03 147.857 423.02 147.891 422.999 147.917C422.978 147.943 422.948 147.96 422.915 147.965H422.9Z" fill="#71D3CA"/>
<path d="M420.196 147.987C420.165 147.987 420.135 147.976 420.111 147.956C420.088 147.935 420.073 147.907 420.069 147.876L418.346 132.62C418.344 132.604 418.345 132.587 418.349 132.572C418.353 132.556 418.361 132.541 418.371 132.529C418.381 132.516 418.393 132.505 418.407 132.497C418.422 132.489 418.437 132.484 418.453 132.482C418.486 132.478 418.52 132.487 418.546 132.507C418.572 132.527 418.59 132.557 418.595 132.59L420.318 147.846C420.32 147.863 420.319 147.879 420.315 147.895C420.31 147.911 420.302 147.926 420.292 147.939C420.282 147.951 420.269 147.962 420.254 147.97C420.239 147.977 420.223 147.982 420.207 147.984L420.196 147.987Z" fill="#71D3CA"/>
<path d="M417.502 148.107C417.472 148.107 417.442 148.095 417.419 148.075C417.397 148.054 417.382 148.026 417.38 147.995L415.634 132.568C415.631 132.552 415.633 132.535 415.637 132.519C415.642 132.503 415.649 132.488 415.66 132.475C415.67 132.461 415.683 132.451 415.698 132.442C415.712 132.434 415.728 132.429 415.745 132.427C415.778 132.424 415.811 132.434 415.837 132.455C415.862 132.476 415.879 132.506 415.882 132.539L417.629 147.966C417.631 147.982 417.629 147.999 417.625 148.015C417.62 148.031 417.613 148.046 417.602 148.059C417.592 148.072 417.579 148.083 417.564 148.092C417.55 148.1 417.534 148.105 417.517 148.107H417.502Z" fill="#71D3CA"/>
<path d="M414.226 145.203C414.196 145.198 414.17 145.182 414.151 145.16C414.131 145.137 414.121 145.108 414.121 145.078C414.121 145.049 414.131 145.02 414.151 144.997C414.17 144.974 414.196 144.959 414.226 144.954L430.156 144.917C430.174 144.914 430.193 144.915 430.21 144.919C430.228 144.924 430.245 144.933 430.259 144.945C430.273 144.957 430.284 144.971 430.292 144.988C430.3 145.005 430.304 145.023 430.304 145.041C430.304 145.06 430.3 145.078 430.292 145.095C430.284 145.111 430.273 145.126 430.259 145.138C430.245 145.15 430.228 145.158 430.21 145.163C430.193 145.168 430.174 145.169 430.156 145.166L414.226 145.203Z" fill="#71D3CA"/>
<path d="M414.01 142.7C413.994 142.7 413.977 142.697 413.962 142.691C413.946 142.684 413.933 142.675 413.921 142.663C413.909 142.652 413.9 142.638 413.893 142.622C413.887 142.607 413.884 142.591 413.884 142.574C413.884 142.542 413.897 142.51 413.92 142.487C413.943 142.464 413.974 142.452 414.006 142.452L430.141 142.414C430.159 142.411 430.178 142.412 430.196 142.417C430.213 142.422 430.23 142.43 430.244 142.442C430.258 142.454 430.269 142.469 430.277 142.486C430.285 142.502 430.289 142.52 430.289 142.539C430.289 142.557 430.285 142.575 430.277 142.592C430.269 142.609 430.258 142.624 430.244 142.635C430.23 142.647 430.213 142.656 430.196 142.661C430.178 142.666 430.159 142.666 430.141 142.663L414.01 142.7Z" fill="#71D3CA"/>
<path d="M413.824 140.191C413.808 140.191 413.791 140.187 413.776 140.181C413.761 140.175 413.747 140.165 413.735 140.154C413.723 140.142 413.714 140.128 413.708 140.113C413.701 140.097 413.698 140.081 413.698 140.064C413.699 140.032 413.713 140 413.736 139.978C413.76 139.955 413.791 139.942 413.824 139.942L429.859 139.905C429.888 139.91 429.915 139.925 429.934 139.948C429.953 139.971 429.963 139.999 429.963 140.029C429.963 140.059 429.953 140.088 429.934 140.11C429.915 140.133 429.888 140.148 429.859 140.154L413.821 140.191H413.824Z" fill="#71D3CA"/>
<path d="M413.579 137.696C413.55 137.691 413.523 137.676 413.504 137.653C413.485 137.63 413.474 137.601 413.474 137.572C413.474 137.542 413.485 137.513 413.504 137.49C413.523 137.468 413.55 137.452 413.579 137.447L429.602 137.41C429.62 137.407 429.639 137.408 429.657 137.413C429.675 137.417 429.691 137.426 429.705 137.438C429.719 137.45 429.731 137.464 429.738 137.481C429.746 137.498 429.75 137.516 429.75 137.534C429.75 137.553 429.746 137.571 429.738 137.588C429.731 137.604 429.719 137.619 429.705 137.631C429.691 137.643 429.675 137.651 429.657 137.656C429.639 137.661 429.62 137.662 429.602 137.659L413.579 137.696Z" fill="#71D3CA"/>
<path d="M413.43 135.193C413.414 135.193 413.397 135.19 413.382 135.183C413.367 135.177 413.353 135.168 413.341 135.156C413.329 135.144 413.32 135.13 413.314 135.115C413.307 135.1 413.304 135.083 413.304 135.067C413.304 135.034 413.317 135.003 413.34 134.98C413.363 134.957 413.394 134.944 413.427 134.944L429.402 134.907C429.42 134.904 429.438 134.905 429.456 134.91C429.474 134.914 429.49 134.923 429.505 134.935C429.519 134.947 429.53 134.962 429.538 134.978C429.546 134.995 429.55 135.013 429.55 135.032C429.55 135.05 429.546 135.068 429.538 135.085C429.53 135.101 429.519 135.116 429.505 135.128C429.49 135.14 429.474 135.149 429.456 135.153C429.438 135.158 429.42 135.159 429.402 135.156L413.427 135.193H413.43Z" fill="#71D3CA"/>
<g opacity="0.3">
<path opacity="0.3" d="M428.432 133.136C428.893 133.381 429.294 138.683 429.105 138.891C428.915 139.099 427.945 134.899 427.373 134.316C426.801 133.734 423.38 133.86 422.915 133.626C422.451 133.392 422.455 133.11 422.455 133.11C422.455 133.11 427.971 132.887 428.432 133.136Z" fill="white"/>
</g>
<g opacity="0.3">
<path opacity="0.3" d="M415.626 147.192C415.158 146.958 414.623 141.682 414.805 141.471C414.987 141.259 416.068 145.421 416.663 145.989C417.257 146.557 420.679 146.36 421.121 146.565C421.563 146.769 421.593 147.07 421.593 147.07C421.593 147.07 416.083 147.426 415.626 147.192Z" fill="white"/>
</g>
<path d="M396.189 148.414L413.074 147.939L411.454 132.219L394.792 132.256L396.189 148.414Z" fill="#34726C"/>
<path d="M396.519 148.065L412.68 147.608L411.131 132.567L395.186 132.601L396.519 148.065Z" fill="#5FBAB2"/>
<path d="M410.332 147.806C410.301 147.806 410.272 147.794 410.249 147.774C410.226 147.753 410.212 147.725 410.209 147.694L408.501 132.587C408.498 132.571 408.5 132.554 408.504 132.539C408.508 132.523 408.516 132.508 408.526 132.496C408.536 132.483 408.548 132.472 408.562 132.464C408.576 132.456 408.592 132.451 408.608 132.449C408.641 132.446 408.674 132.455 408.7 132.475C408.726 132.495 408.744 132.525 408.749 132.557L410.458 147.665C410.46 147.681 410.459 147.698 410.455 147.714C410.45 147.73 410.443 147.745 410.432 147.758C410.422 147.771 410.409 147.782 410.394 147.791C410.38 147.799 410.364 147.804 410.347 147.806H410.332Z" fill="#71D3CA"/>
<path d="M407.639 147.913C407.607 147.914 407.577 147.902 407.554 147.882C407.531 147.861 407.516 147.833 407.512 147.802L405.792 132.579C405.788 132.546 405.798 132.512 405.819 132.486C405.84 132.459 405.87 132.442 405.904 132.438C405.937 132.434 405.971 132.444 405.997 132.465C406.024 132.486 406.041 132.516 406.045 132.55L407.765 147.772C407.768 147.805 407.758 147.838 407.737 147.864C407.716 147.889 407.686 147.906 407.653 147.91L407.639 147.913Z" fill="#71D3CA"/>
<path d="M404.938 147.966C404.907 147.966 404.877 147.954 404.855 147.934C404.832 147.913 404.818 147.885 404.815 147.854L403.08 132.598C403.076 132.581 403.075 132.563 403.079 132.545C403.082 132.527 403.089 132.51 403.099 132.496C403.11 132.481 403.123 132.468 403.139 132.459C403.154 132.45 403.172 132.444 403.19 132.443C403.208 132.441 403.226 132.443 403.243 132.448C403.26 132.454 403.276 132.463 403.289 132.476C403.302 132.488 403.312 132.503 403.319 132.52C403.326 132.536 403.33 132.554 403.329 132.572L405.057 147.825C405.059 147.841 405.057 147.858 405.053 147.874C405.048 147.89 405.041 147.905 405.03 147.918C405.02 147.931 405.007 147.942 404.992 147.951C404.978 147.959 404.962 147.964 404.945 147.966H404.938Z" fill="#71D3CA"/>
<path d="M402.233 147.987C402.202 147.987 402.172 147.976 402.149 147.956C402.125 147.935 402.111 147.907 402.107 147.876L400.383 132.62C400.383 132.589 400.395 132.559 400.415 132.536C400.436 132.513 400.464 132.499 400.494 132.495C400.525 132.491 400.556 132.499 400.581 132.517C400.606 132.534 400.625 132.56 400.632 132.59L402.36 147.846C402.363 147.879 402.353 147.912 402.332 147.937C402.311 147.963 402.281 147.98 402.248 147.983L402.233 147.987Z" fill="#71D3CA"/>
<path d="M399.543 148.107C399.512 148.107 399.482 148.096 399.459 148.075C399.436 148.054 399.421 148.026 399.417 147.995L397.671 132.568C397.668 132.535 397.677 132.502 397.698 132.476C397.719 132.449 397.749 132.432 397.782 132.427C397.816 132.424 397.849 132.434 397.875 132.455C397.902 132.475 397.919 132.506 397.924 132.539L399.666 147.966C399.668 147.982 399.667 147.999 399.662 148.015C399.658 148.031 399.65 148.046 399.64 148.059C399.629 148.072 399.616 148.083 399.602 148.092C399.587 148.1 399.571 148.105 399.554 148.107H399.543Z" fill="#71D3CA"/>
<path d="M396.263 145.202C396.245 145.206 396.226 145.205 396.208 145.2C396.191 145.195 396.174 145.186 396.16 145.175C396.146 145.163 396.135 145.148 396.127 145.131C396.119 145.115 396.115 145.096 396.115 145.078C396.115 145.06 396.119 145.041 396.127 145.025C396.135 145.008 396.146 144.993 396.16 144.981C396.174 144.97 396.191 144.961 396.208 144.956C396.226 144.951 396.245 144.95 396.263 144.954L412.19 144.917C412.219 144.922 412.246 144.937 412.265 144.96C412.284 144.982 412.294 145.011 412.294 145.041C412.294 145.071 412.284 145.099 412.265 145.122C412.246 145.145 412.219 145.16 412.19 145.165L396.259 145.202H396.263Z" fill="#71D3CA"/>
<path d="M396.048 142.7C396.029 142.703 396.011 142.703 395.993 142.698C395.975 142.693 395.959 142.684 395.945 142.673C395.931 142.661 395.919 142.646 395.911 142.629C395.904 142.613 395.9 142.594 395.9 142.576C395.9 142.558 395.904 142.539 395.911 142.523C395.919 142.506 395.931 142.491 395.945 142.479C395.959 142.468 395.975 142.459 395.993 142.454C396.011 142.449 396.029 142.448 396.048 142.452L412.179 142.414C412.197 142.411 412.215 142.412 412.233 142.417C412.251 142.422 412.267 142.43 412.281 142.442C412.296 142.454 412.307 142.469 412.315 142.486C412.322 142.502 412.326 142.52 412.326 142.539C412.326 142.557 412.322 142.575 412.315 142.592C412.307 142.609 412.296 142.624 412.281 142.635C412.267 142.647 412.251 142.656 412.233 142.661C412.215 142.666 412.197 142.666 412.179 142.663L396.048 142.7Z" fill="#71D3CA"/>
<path d="M395.862 140.191C395.832 140.186 395.806 140.17 395.787 140.148C395.768 140.125 395.757 140.096 395.757 140.066C395.757 140.037 395.768 140.008 395.787 139.985C395.806 139.962 395.832 139.947 395.862 139.942L411.9 139.905C411.933 139.906 411.964 139.919 411.987 139.941C412.01 139.964 412.024 139.995 412.026 140.027C412.026 140.061 412.013 140.093 411.989 140.117C411.966 140.14 411.933 140.154 411.9 140.154L395.862 140.191Z" fill="#71D3CA"/>
<path d="M395.62 137.696C395.602 137.699 395.583 137.698 395.566 137.693C395.548 137.689 395.531 137.68 395.517 137.668C395.503 137.656 395.492 137.642 395.484 137.625C395.476 137.608 395.472 137.59 395.472 137.572C395.472 137.553 395.476 137.535 395.484 137.518C395.492 137.502 395.503 137.487 395.517 137.475C395.531 137.463 395.548 137.455 395.566 137.45C395.583 137.445 395.602 137.444 395.62 137.447L411.64 137.41C411.658 137.407 411.676 137.408 411.694 137.413C411.712 137.417 411.729 137.426 411.743 137.438C411.757 137.45 411.768 137.464 411.776 137.481C411.784 137.498 411.788 137.516 411.788 137.534C411.788 137.553 411.784 137.571 411.776 137.588C411.768 137.604 411.757 137.619 411.743 137.631C411.729 137.643 411.712 137.651 411.694 137.656C411.676 137.661 411.658 137.662 411.64 137.659L395.616 137.696H395.62Z" fill="#71D3CA"/>
<path d="M395.468 135.194C395.45 135.197 395.431 135.196 395.414 135.191C395.396 135.186 395.379 135.178 395.365 135.166C395.351 135.154 395.34 135.139 395.332 135.122C395.324 135.106 395.32 135.088 395.32 135.069C395.32 135.051 395.324 135.033 395.332 135.016C395.34 134.999 395.351 134.984 395.365 134.973C395.379 134.961 395.396 134.952 395.414 134.947C395.431 134.943 395.45 134.942 395.468 134.945L411.443 134.908C411.476 134.909 411.507 134.922 411.53 134.944C411.554 134.967 411.568 134.998 411.569 135.03C411.569 135.064 411.556 135.096 411.532 135.12C411.509 135.143 411.477 135.156 411.443 135.156L395.468 135.194Z" fill="#71D3CA"/>
<g opacity="0.3">
<path opacity="0.3" d="M410.473 133.136C410.93 133.381 411.331 138.683 411.146 138.891C410.96 139.099 409.987 134.899 409.414 134.316C408.842 133.734 405.417 133.86 404.956 133.626C404.496 133.392 404.496 133.11 404.496 133.11C404.496 133.11 410.013 132.887 410.473 133.136Z" fill="white"/>
</g>
<g opacity="0.3">
<path opacity="0.3" d="M397.664 147.192C397.195 146.958 396.66 141.682 396.842 141.471C397.025 141.259 398.106 145.421 398.7 145.989C399.294 146.557 402.716 146.36 403.158 146.565C403.6 146.769 403.634 147.07 403.634 147.07C403.634 147.07 398.132 147.426 397.664 147.192Z" fill="white"/>
</g>
<path d="M378.226 148.414L395.111 147.939L393.495 132.219L376.833 132.256L378.226 148.414Z" fill="#34726C"/>
<path d="M378.561 148.065L394.718 147.608L393.168 132.567L377.223 132.601L378.561 148.065Z" fill="#5FBAB2"/>
<path d="M392.37 147.806C392.339 147.806 392.309 147.794 392.287 147.774C392.264 147.753 392.25 147.725 392.247 147.694L390.538 132.587C390.536 132.57 390.537 132.554 390.542 132.538C390.546 132.522 390.554 132.507 390.564 132.494C390.575 132.481 390.588 132.471 390.602 132.463C390.617 132.455 390.633 132.451 390.65 132.449C390.682 132.446 390.714 132.456 390.74 132.476C390.765 132.496 390.782 132.525 390.787 132.557L392.496 147.665C392.498 147.681 392.497 147.698 392.492 147.714C392.488 147.73 392.48 147.745 392.47 147.758C392.459 147.771 392.446 147.782 392.432 147.791C392.417 147.799 392.401 147.804 392.384 147.806H392.37Z" fill="#71D3CA"/>
<path d="M389.676 147.913C389.646 147.913 389.616 147.902 389.593 147.881C389.571 147.86 389.556 147.832 389.554 147.802L387.834 132.579C387.829 132.562 387.829 132.544 387.832 132.526C387.835 132.508 387.842 132.492 387.852 132.477C387.862 132.462 387.876 132.45 387.891 132.44C387.906 132.431 387.923 132.425 387.941 132.423C387.959 132.421 387.977 132.423 387.994 132.428C388.011 132.434 388.027 132.443 388.04 132.454C388.054 132.466 388.064 132.481 388.072 132.497C388.079 132.514 388.083 132.531 388.082 132.549L389.803 147.772C389.806 147.805 389.796 147.838 389.775 147.863C389.754 147.889 389.724 147.906 389.691 147.909L389.676 147.913Z" fill="#71D3CA"/>
<path d="M386.975 147.965C386.945 147.965 386.915 147.954 386.892 147.933C386.87 147.913 386.855 147.884 386.853 147.854L385.125 132.598C385.122 132.564 385.132 132.531 385.153 132.505C385.174 132.479 385.205 132.462 385.238 132.459C385.272 132.455 385.305 132.465 385.332 132.486C385.358 132.508 385.374 132.538 385.378 132.572L387.105 147.824C387.107 147.841 387.106 147.858 387.102 147.874C387.097 147.89 387.089 147.905 387.079 147.918C387.069 147.931 387.056 147.942 387.041 147.95C387.027 147.958 387.011 147.963 386.994 147.965H386.975Z" fill="#71D3CA"/>
<path d="M384.27 147.987C384.24 147.987 384.21 147.976 384.188 147.955C384.165 147.935 384.151 147.906 384.148 147.876L382.42 132.62C382.417 132.587 382.427 132.554 382.448 132.528C382.469 132.503 382.499 132.486 382.532 132.482C382.548 132.48 382.564 132.482 382.58 132.486C382.596 132.49 382.61 132.498 382.623 132.508C382.636 132.518 382.647 132.53 382.654 132.544C382.662 132.558 382.667 132.574 382.669 132.59L384.397 147.846C384.399 147.863 384.398 147.879 384.393 147.895C384.389 147.911 384.381 147.926 384.37 147.939C384.36 147.951 384.347 147.962 384.332 147.97C384.318 147.977 384.302 147.982 384.285 147.984L384.27 147.987Z" fill="#71D3CA"/>
<path d="M381.581 148.107C381.55 148.107 381.52 148.096 381.496 148.075C381.473 148.054 381.458 148.026 381.455 147.995L379.712 132.568C379.71 132.552 379.71 132.535 379.714 132.519C379.718 132.503 379.726 132.488 379.736 132.475C379.746 132.462 379.759 132.451 379.773 132.442C379.787 132.434 379.803 132.429 379.82 132.427C379.853 132.424 379.887 132.434 379.913 132.455C379.939 132.475 379.956 132.506 379.961 132.539L381.707 147.966C381.71 147.999 381.701 148.032 381.68 148.058C381.659 148.085 381.629 148.102 381.596 148.107H381.581Z" fill="#71D3CA"/>
<path d="M378.3 145.202C378.282 145.206 378.264 145.205 378.246 145.2C378.228 145.195 378.212 145.186 378.197 145.175C378.183 145.163 378.172 145.148 378.164 145.131C378.156 145.115 378.152 145.096 378.152 145.078C378.152 145.06 378.156 145.041 378.164 145.025C378.172 145.008 378.183 144.993 378.197 144.981C378.212 144.97 378.228 144.961 378.246 144.956C378.264 144.951 378.282 144.95 378.3 144.954L394.231 144.917C394.263 144.917 394.294 144.93 394.318 144.953C394.341 144.976 394.355 145.006 394.357 145.039C394.357 145.073 394.344 145.105 394.32 145.128C394.296 145.152 394.264 145.165 394.231 145.165L378.3 145.202Z" fill="#71D3CA"/>
<path d="M378.085 142.7C378.067 142.704 378.048 142.703 378.03 142.698C378.012 142.693 377.996 142.684 377.982 142.673C377.968 142.661 377.956 142.646 377.949 142.629C377.941 142.613 377.937 142.594 377.937 142.576C377.937 142.558 377.941 142.539 377.949 142.523C377.956 142.506 377.968 142.491 377.982 142.479C377.996 142.468 378.012 142.459 378.03 142.454C378.048 142.449 378.067 142.449 378.085 142.452L394.216 142.415C394.245 142.42 394.272 142.435 394.291 142.458C394.31 142.48 394.321 142.509 394.321 142.539C394.321 142.569 394.31 142.597 394.291 142.62C394.272 142.643 394.245 142.658 394.216 142.663L378.081 142.7H378.085Z" fill="#71D3CA"/>
<path d="M377.903 140.191C377.885 140.194 377.866 140.193 377.848 140.188C377.831 140.183 377.814 140.175 377.8 140.163C377.786 140.151 377.775 140.136 377.767 140.119C377.759 140.103 377.755 140.085 377.755 140.066C377.755 140.048 377.759 140.03 377.767 140.013C377.775 139.996 377.786 139.981 377.8 139.97C377.814 139.958 377.831 139.949 377.848 139.944C377.866 139.94 377.885 139.939 377.903 139.942L393.937 139.905C393.956 139.902 393.974 139.902 393.992 139.907C394.01 139.912 394.026 139.921 394.04 139.932C394.054 139.944 394.066 139.959 394.074 139.976C394.081 139.992 394.085 140.011 394.085 140.029C394.085 140.047 394.081 140.066 394.074 140.082C394.066 140.099 394.054 140.114 394.04 140.126C394.026 140.138 394.01 140.146 393.992 140.151C393.974 140.156 393.956 140.157 393.937 140.153L377.903 140.191Z" fill="#71D3CA"/>
<path d="M377.658 137.695C377.64 137.698 377.621 137.697 377.603 137.693C377.585 137.688 377.569 137.679 377.555 137.667C377.541 137.655 377.529 137.641 377.522 137.624C377.514 137.607 377.51 137.589 377.51 137.571C377.51 137.552 377.514 137.534 377.522 137.517C377.529 137.501 377.541 137.486 377.555 137.474C377.569 137.462 377.585 137.454 377.603 137.449C377.621 137.444 377.64 137.443 377.658 137.446L393.681 137.409C393.714 137.409 393.745 137.422 393.768 137.445C393.791 137.468 393.804 137.499 393.804 137.532C393.804 137.548 393.801 137.564 393.795 137.58C393.79 137.595 393.781 137.609 393.769 137.621C393.758 137.633 393.744 137.642 393.729 137.648C393.714 137.655 393.698 137.658 393.681 137.658L377.658 137.695Z" fill="#71D3CA"/>
<path d="M377.505 135.193C377.487 135.196 377.469 135.195 377.451 135.19C377.433 135.186 377.416 135.177 377.402 135.165C377.388 135.153 377.377 135.139 377.369 135.122C377.361 135.105 377.357 135.087 377.357 135.069C377.357 135.05 377.361 135.032 377.369 135.015C377.377 134.999 377.388 134.984 377.402 134.972C377.416 134.96 377.433 134.952 377.451 134.947C377.469 134.942 377.487 134.941 377.505 134.944L393.48 134.907C393.498 134.904 393.517 134.905 393.535 134.91C393.553 134.914 393.569 134.923 393.583 134.935C393.597 134.947 393.609 134.962 393.616 134.978C393.624 134.995 393.628 135.013 393.628 135.032C393.628 135.05 393.624 135.068 393.616 135.085C393.609 135.101 393.597 135.116 393.583 135.128C393.569 135.14 393.553 135.149 393.535 135.153C393.517 135.158 393.498 135.159 393.48 135.156L377.505 135.193Z" fill="#71D3CA"/>
<g opacity="0.3">
<path opacity="0.3" d="M392.511 133.136C392.971 133.381 393.372 138.683 393.183 138.891C392.993 139.099 392.024 134.899 391.452 134.316C390.88 133.734 387.454 133.86 386.994 133.626C386.533 133.392 386.533 133.11 386.533 133.11C386.533 133.11 392.05 132.887 392.511 133.136Z" fill="white"/>
</g>
<g opacity="0.3">
<path opacity="0.3" d="M379.701 147.192C379.237 146.958 378.698 141.682 378.884 141.471C379.07 141.259 380.147 145.421 380.741 145.989C381.336 146.557 384.757 146.36 385.199 146.565C385.642 146.769 385.675 147.07 385.675 147.07C385.675 147.07 380.169 147.426 379.701 147.192Z" fill="white"/>
</g>
<path d="M448.601 147.609H377.903V150.765H448.601V147.609Z" fill="#34726C"/>
<path d="M454.003 178.162H500.62V177.226H454.003V178.162Z" fill="#459991"/>
<path d="M454.003 181.317H500.62V180.381H454.003V181.317Z" fill="#459991"/>
<path d="M454.003 184.469H500.62V183.534H454.003V184.469Z" fill="#459991"/>
<path d="M454.003 187.618H500.62V186.682H454.003V187.618Z" fill="#459991"/>
<path d="M454.003 190.77H500.62V189.834H454.003V190.77Z" fill="#459991"/>
<path d="M454.003 193.923H500.62V192.987H454.003V193.923Z" fill="#459991"/>
<path d="M454.003 197.075H500.62V196.14H454.003V197.075Z" fill="#459991"/>
<path d="M454.003 200.227H500.62V199.291H454.003V200.227Z" fill="#459991"/>
<path d="M454.003 203.379H500.62V202.444H454.003V203.379Z" fill="#459991"/>
<path d="M454.003 206.528H500.62V205.592H454.003V206.528Z" fill="#459991"/>
<path d="M510.679 348.545C514.786 348.233 518.744 346.874 522.177 344.599C525.609 342.324 528.402 339.208 530.287 335.549C532.846 330.531 534.67 324.191 533.161 317.417C530.106 303.699 527.693 298.933 529.605 288.282C531.159 279.616 529.829 270.617 524.059 261.804C519.72 255.182 519.45 246.52 521.667 238.927C524.789 228.218 517.403 208.046 500.971 223.906C490.784 233.739 490.364 249.195 492.983 261.73C494.644 269.728 494.316 289.283 490.342 298.721C484.355 312.933 484.672 326.223 490.211 340.321C493.291 348.13 502.807 349.171 510.679 348.545Z" fill="#3C857E"/>
<path opacity="0.1" d="M507.45 348.744L507.133 348.643C507.207 348.416 514.516 325.734 511.906 310.448C510.613 302.855 511.015 294.854 511.408 287.116C511.652 282.337 511.88 277.826 511.674 273.788C511.483 270.036 510.259 264.363 509.08 258.89C507.956 253.659 506.893 248.726 506.697 245.464C505.983 233.512 515.22 218.817 515.315 218.669L515.595 218.849C515.503 218.993 506.324 233.6 507.031 245.444C507.224 248.673 508.285 253.602 509.407 258.818C510.589 264.306 511.813 269.982 512.009 273.772C512.215 277.832 511.985 282.354 511.75 287.14C511.358 294.858 510.954 302.853 512.241 310.401C514.856 325.762 507.524 348.517 507.45 348.744Z" fill="white"/>
<path opacity="0.1" d="M507.098 248.725L507.03 248.398C515.264 246.206 521.098 240.39 521.158 240.332L521.393 240.568C521.319 240.629 515.422 246.511 507.098 248.725Z" fill="white"/>
<path opacity="0.1" d="M507.061 241.222C502.567 238.389 498.815 234.522 496.12 229.945L496.418 229.789C499.08 234.317 502.79 238.141 507.237 240.939L507.061 241.222Z" fill="white"/>
<path opacity="0.1" d="M510.217 264.471C501.04 261.391 491.792 253.824 491.696 253.749L491.912 253.492C492.004 253.568 501.206 261.095 510.325 264.153L510.217 264.471Z" fill="white"/>
<path opacity="0.1" d="M511.883 273.935L511.794 273.612C520.005 271.273 525.484 264.443 525.538 264.375L525.801 264.582C525.747 264.65 520.217 271.563 511.883 273.935Z" fill="white"/>
<path opacity="0.1" d="M511.457 288.376C502.836 284.889 493.849 278.03 493.758 277.958L493.962 277.696C494.052 277.764 502.985 284.6 511.582 288.066L511.457 288.376Z" fill="white"/>
<path opacity="0.1" d="M517.725 302.842C515.615 303.281 513.461 303.474 511.307 303.417L511.313 303.082C522.064 303.362 528.815 297.375 528.882 297.316L529.104 297.562C529.043 297.616 524.814 301.369 517.725 302.842Z" fill="white"/>
<path opacity="0.1" d="M512.546 319.924C499.105 314.529 488.222 304.753 488.125 304.652L488.351 304.404C488.458 304.503 499.295 314.239 512.682 319.611L512.546 319.924Z" fill="white"/>
<path d="M303.144 156.898C303.144 156.898 367.259 122.644 380.908 121.018C380.908 121.018 390.055 119.421 388.16 128.647C385.953 139.389 310.916 173.536 310.916 173.536L303.144 156.898Z" fill="#FFCBAD"/>
<path d="M290.75 182.045C290.75 182.045 359.498 150.538 373.776 149.713C373.776 149.713 383.379 148.637 380.834 158.097C377.862 169.109 297.764 199.818 297.764 199.818L290.75 182.045Z" fill="#FFCBAD"/>
<path d="M289.903 206.412C289.903 206.412 358.737 174.853 373.033 174.044C373.033 174.044 382.647 172.963 380.091 182.435C377.119 193.462 296.917 224.211 296.917 224.211L289.903 206.412Z" fill="#FFCBAD"/>
<path d="M301.698 224.568C301.698 224.568 360.375 197.676 372.564 196.974C372.564 196.974 380.76 196.053 378.579 204.129C377.836 206.821 370.993 210.092 362.604 214.525C341.755 225.585 307.676 239.738 307.676 239.738L301.698 224.568Z" fill="#FFCBAD"/>
<path d="M344.285 245.972L274.812 180.044V144.189C274.02 142.944 272.867 141.969 271.506 141.396C270.145 140.823 268.642 140.678 267.196 140.981C267.152 140.993 267.109 141.011 267.07 141.037C265.974 141.709 265.803 147.802 265.837 155.056C265.874 164.368 259.737 181.236 258.942 185.335C256.341 198.738 255.412 215.193 262.657 250.495C263.284 253.547 263.753 256.302 264.091 258.789C264.091 258.886 263.608 267.856 261.182 281.233C261.136 281.372 261.11 281.517 261.104 281.664C260.799 283.327 260.197 286.943 259.525 290.875C259.245 292.519 259.327 294.204 259.766 295.813C260.204 297.422 260.989 298.915 262.064 300.19C263.14 301.465 264.481 302.49 265.993 303.193C267.506 303.897 269.154 304.262 270.822 304.264H303.515C306.431 304.262 309.237 303.151 311.364 301.158C313.491 299.165 314.78 296.438 314.969 293.53C315.303 288.607 315.898 283.216 316.938 280.264C320.401 278.118 342.119 263.902 344.285 245.972Z" fill="#FFCBAD"/>
<path d="M359.331 102.818H279.694C277 102.818 274.816 105 274.816 107.693V241.098C274.816 243.791 277 245.973 279.694 245.973H359.331C362.025 245.973 364.209 243.791 364.209 241.098V107.693C364.209 105 362.025 102.818 359.331 102.818Z" fill="#404040"/>
<path d="M361.148 108.639H278.583V240.857H361.148V108.639Z" fill="#10C1BC"/>
<path d="M360.795 233.356H278.23V240.503H360.795V233.356Z" fill="#71D3CA"/>
<path d="M360.795 108.287H278.23V115.434H360.795V108.287Z" fill="#71D3CA"/>
<path d="M344.686 144.304C344.883 144.297 345.075 144.236 345.24 144.129C345.406 144.021 345.539 143.871 345.626 143.694C345.713 143.517 345.75 143.32 345.734 143.123C345.717 142.927 345.648 142.738 345.533 142.578C345.005 141.65 337.902 131.142 337.285 131.157C336.669 131.172 332.601 143.283 332.601 143.283L344.686 144.304Z" fill="#E2581D"/>
<path d="M294.941 143.944C294.941 143.944 294.172 163.225 294.941 164.398C295.71 165.571 332.56 164.398 332.56 164.398C332.56 164.398 332.887 143.684 331.683 143.109C330.48 142.533 294.941 143.944 294.941 143.944Z" fill="white"/>
<path d="M332.56 164.399C333.82 164.224 342.962 164.77 344.352 164.399C345.741 164.027 345.173 143.406 344.352 142.972C343.531 142.538 331.683 143.109 331.683 143.109L332.56 164.399Z" fill="#FDE2CF"/>
<path d="M337.26 131.862L344.352 142.971L333.195 143.324L337.26 131.862Z" fill="#FDE2CF"/>
<path d="M332.564 144.768C331.041 145.748 293.875 145.061 292.812 144.768C291.749 144.475 296.111 133.451 298.125 132.215C300.138 130.978 336.762 131.246 337.282 131.157C337.802 131.068 334.02 143.829 332.564 144.768Z" fill="#E2581D"/>
<path d="M301.349 164.921C301.349 164.921 301.089 149.821 301.349 149.409C301.61 148.997 307.141 148.704 308.081 149.409C309.021 150.114 309.318 164.899 309.318 164.899L301.349 164.921Z" fill="#E2581D"/>
<path d="M315.266 148.89C314.727 149.083 315.073 157.169 315.612 157.389C316.15 157.608 326.367 157.645 326.79 157.567C327.214 157.489 326.906 148.775 326.419 148.697C325.932 148.619 317.183 148.207 315.266 148.89Z" fill="#10C1BC"/>
<path d="M318.901 148.522L318.548 148.536L318.9 157.615L319.253 157.601L318.901 148.522Z" fill="white"/>
<path d="M323.479 148.505L323.126 148.519L323.48 157.597L323.833 157.583L323.479 148.505Z" fill="white"/>
<path d="M326.942 152.914L314.996 153.129L315.003 153.482L326.949 153.267L326.942 152.914Z" fill="white"/>
<path d="M335.465 148.707C335.138 148.878 335.346 156.133 335.673 156.315C336 156.497 342.175 156.545 342.431 156.475C342.687 156.404 342.502 148.603 342.201 148.537C341.9 148.47 336.624 148.095 335.465 148.707Z" fill="#10C1BC"/>
<path d="M339.171 148.367L338.818 148.38L339.139 156.635L339.491 156.622L339.171 148.367Z" fill="#F1F0F8"/>
<path d="M342.544 152.385L335.204 152.517L335.21 152.869L342.55 152.737L342.544 152.385Z" fill="#F1F0F8"/>
<path d="M326.197 189.491C327.076 185.801 324.795 182.097 321.102 181.219C317.41 180.34 313.704 182.62 312.825 186.31C311.946 190.001 314.226 193.704 317.919 194.583C321.612 195.461 325.318 193.182 326.197 189.491Z" fill="white"/>
<path d="M344.851 191.903C347.067 188.823 346.365 184.531 343.283 182.316C340.202 180.102 335.907 180.803 333.691 183.883C331.475 186.963 332.176 191.255 335.258 193.47C338.34 195.684 342.635 194.983 344.851 191.903Z" fill="white"/>
<path d="M324.372 213.532C327.057 210.849 327.057 206.5 324.372 203.818C321.688 201.135 317.337 201.135 314.653 203.818C311.969 206.5 311.969 210.849 314.653 213.532C317.337 216.214 321.688 216.214 324.372 213.532Z" fill="white"/>
<path d="M345.035 210.545C346.504 207.047 344.858 203.021 341.358 201.553C337.858 200.085 333.829 201.73 332.36 205.228C330.891 208.726 332.538 212.751 336.038 214.22C339.538 215.688 343.566 214.043 345.035 210.545Z" fill="#E2581D"/>
<path d="M338.963 202.062C338.785 201.861 338.28 201.597 338.146 202.615C338.012 203.632 337.86 210.133 337.904 210.783C337.949 211.433 336.589 212.38 337.949 213.516C339.39 214.722 340.55 212.725 339.61 211.136C338.852 209.855 339.71 202.901 338.963 202.062Z" fill="white"/>
<path d="M317.034 187.901C317.268 187.696 321.448 187.726 322.035 187.901C322.622 188.075 322.674 192.022 322.321 192.259C321.968 192.497 317.276 192.423 316.748 192.096C316.221 191.769 316.537 188.342 317.034 187.901Z" fill="#4AA29A"/>
<path d="M317.124 188.193C317.035 187.9 316.715 184.109 318.432 183.596C320.148 183.084 321.329 183.667 321.712 184.874C322.095 186.08 322.05 188.312 322.05 188.312H321.348C321.348 188.312 321.582 184.97 320.553 184.476C319.524 183.983 318.324 184.183 317.952 185.219C317.581 186.255 317.741 188.297 317.741 188.297L317.124 188.193Z" fill="#4AA29A"/>
<path d="M339.143 192.314C338.793 192.271 338.471 192.101 338.237 191.836C338.004 191.571 337.875 191.23 337.876 190.877C337.904 190.255 337.853 189.631 337.724 189.021C337.505 188.52 336.156 187.272 336.817 185.472C336.949 185.059 337.184 184.687 337.499 184.391C337.814 184.094 338.2 183.883 338.62 183.777C339.039 183.67 339.479 183.673 339.898 183.784C340.316 183.894 340.7 184.11 341.012 184.41C342.427 185.616 341.978 187.87 341.012 188.843C340.77 189.092 340.748 190.035 340.774 190.811C340.78 191.001 340.749 191.191 340.681 191.369C340.613 191.548 340.511 191.711 340.379 191.849C340.248 191.987 340.09 192.098 339.916 192.174C339.741 192.251 339.553 192.292 339.362 192.296H339.34L339.143 192.314Z" fill="#4AA29A"/>
<path d="M306.077 190.536C307.513 187.025 305.829 183.015 302.315 181.58C298.802 180.144 294.789 181.828 293.353 185.339C291.917 188.851 293.601 192.861 297.115 194.296C300.628 195.731 304.641 194.048 306.077 190.536Z" fill="white"/>
<path d="M299.921 184.324C299.9 184.288 299.871 184.259 299.835 184.238C299.8 184.218 299.759 184.207 299.718 184.207C299.677 184.207 299.637 184.218 299.602 184.238C299.566 184.259 299.536 184.288 299.516 184.324C298.914 185.341 297.201 188.43 297.443 190.264C297.736 192.492 301.563 192.752 302.009 190.379C302.317 188.742 300.515 185.404 299.921 184.324Z" fill="#4AA29A"/>
<path d="M318.836 210.931C318.836 210.756 318.888 210.585 318.986 210.44C319.083 210.294 319.221 210.181 319.383 210.114C319.545 210.047 319.723 210.03 319.895 210.065C320.066 210.099 320.224 210.184 320.347 210.307C320.471 210.431 320.555 210.589 320.588 210.761C320.622 210.933 320.604 211.11 320.536 211.272C320.469 211.433 320.355 211.571 320.209 211.668C320.063 211.764 319.892 211.815 319.717 211.815C319.601 211.815 319.486 211.792 319.379 211.747C319.272 211.703 319.175 211.638 319.093 211.556C319.011 211.474 318.946 211.376 318.902 211.269C318.858 211.162 318.836 211.047 318.836 210.931Z" fill="#4AA29A"/>
<path d="M322.793 209.917C322.717 209.917 322.642 209.893 322.581 209.846C319.334 207.359 317.009 209.627 316.927 209.724C316.86 209.783 316.773 209.814 316.684 209.811C316.595 209.809 316.51 209.773 316.446 209.71C316.383 209.647 316.345 209.563 316.341 209.474C316.337 209.385 316.367 209.298 316.425 209.23C316.455 209.2 319.279 206.427 323.009 209.286C323.067 209.331 323.109 209.393 323.13 209.463C323.151 209.533 323.15 209.609 323.126 209.678C323.102 209.747 323.057 209.808 322.998 209.851C322.938 209.893 322.866 209.917 322.793 209.917Z" fill="#4AA29A"/>
<path d="M323.759 207.783C323.681 207.782 323.606 207.757 323.543 207.712C319.278 204.482 315.534 207.664 315.496 207.712C315.426 207.771 315.335 207.799 315.243 207.792C315.151 207.785 315.066 207.742 315.006 207.672C314.945 207.603 314.914 207.513 314.919 207.421C314.924 207.33 314.964 207.243 315.032 207.181C315.077 207.144 319.252 203.591 323.971 207.181C324.028 207.226 324.071 207.288 324.092 207.358C324.113 207.428 324.112 207.502 324.089 207.572C324.065 207.641 324.021 207.701 323.962 207.745C323.903 207.788 323.832 207.811 323.759 207.812V207.783Z" fill="#4AA29A"/>
<path d="M305.863 209.185C306.878 205.53 304.735 201.744 301.077 200.731C297.419 199.717 293.632 201.858 292.617 205.514C291.603 209.169 293.746 212.955 297.404 213.968C301.062 214.982 304.849 212.841 305.863 209.185Z" fill="white"/>
<path d="M295.927 204.351C296.867 204.091 299.13 203.657 302.403 204.232C302.562 204.26 302.706 204.343 302.81 204.467C302.914 204.59 302.971 204.747 302.971 204.908C302.945 206.349 302.6 210.154 299.628 211.962C299.512 212.035 299.377 212.071 299.241 212.067C299.104 212.062 298.973 212.017 298.862 211.936C297.799 211.125 296.936 210.08 296.34 208.883C295.743 207.686 295.429 206.368 295.422 205.031C295.417 204.877 295.464 204.726 295.556 204.603C295.648 204.479 295.779 204.391 295.927 204.351Z" fill="#4AA29A"/>
<path d="M274.816 185.335C274.816 185.335 288.462 224.32 285.111 249.352H266.583L273.991 185.335H274.816Z" fill="#FFCBAD"/>
<path d="M370.328 150.561C370.328 150.561 355.311 159.42 353.335 164.102C351.358 168.784 353.996 171.899 357.05 172.27C360.104 172.641 369.165 167.737 373.359 165.067L370.328 150.561Z" fill="#FFCBAD"/>
<path d="M368.53 175.577C368.53 175.577 357.384 182.383 355.4 187.068C353.416 191.754 356.062 194.865 359.115 195.255C362.169 195.645 371.234 190.711 374.154 188.424L368.53 175.577Z" fill="#FFCBAD"/>
<path d="M367.909 198.912C367.909 198.912 360.72 202.417 358.993 206.483C357.265 210.548 359.565 213.251 362.233 213.589C364.9 213.927 374.303 210.942 378.207 204.908L367.909 198.912Z" fill="#FFCBAD"/>
<path d="M355.657 165.215C355.601 165.194 355.551 165.159 355.513 165.114C355.474 165.068 355.448 165.013 355.438 164.954C355.427 164.895 355.431 164.835 355.451 164.778C355.47 164.722 355.504 164.672 355.549 164.632C357.236 163.192 363.098 158.577 365.598 161.781C367.828 164.658 364.034 168.505 359.974 170.409C359.928 170.431 359.878 170.443 359.827 170.443C359.776 170.443 359.726 170.432 359.68 170.41C359.634 170.388 359.594 170.357 359.562 170.317C359.53 170.278 359.507 170.232 359.495 170.183C359.216 169.11 358.239 166.206 355.657 165.215Z" fill="white"/>
<path d="M357.165 188.212C357.121 188.196 357.082 188.169 357.052 188.134C357.022 188.098 357.001 188.055 356.993 188.01C356.984 187.964 356.988 187.917 357.003 187.873C357.018 187.829 357.045 187.789 357.08 187.759C358.618 186.426 364.684 181.544 367.24 184.818C369.503 187.718 365.624 191.602 361.527 193.499C361.491 193.515 361.451 193.522 361.412 193.521C361.373 193.521 361.334 193.511 361.299 193.494C361.263 193.477 361.232 193.452 361.207 193.421C361.183 193.391 361.165 193.355 361.155 193.317C360.902 192.311 359.918 189.199 357.165 188.212Z" fill="white"/>
<path d="M361.189 208.391C361.139 208.368 361.096 208.333 361.064 208.289C361.032 208.245 361.012 208.193 361.006 208.139C361 208.085 361.008 208.03 361.03 207.98C361.051 207.929 361.086 207.886 361.129 207.853C362.537 206.809 366.94 203.862 368.597 206.297C370.101 208.525 367.159 211.124 364.098 212.36C364.055 212.377 364.008 212.384 363.962 212.381C363.916 212.377 363.872 212.364 363.831 212.342C363.791 212.32 363.756 212.289 363.729 212.251C363.702 212.214 363.683 212.171 363.674 212.126C363.503 211.287 362.924 209.249 361.189 208.391Z" fill="white"/>
<path d="M285.452 245.972C285.452 245.972 288.053 257.519 312.06 254.512C336.067 251.504 339.964 245.972 339.953 245.972H285.452Z" fill="#D4A88C"/>
<g opacity="0.5">
<path opacity="0.5" d="M269.593 153.293C269.013 155.599 265.963 155.079 265.84 155.057C265.807 147.802 265.978 141.709 267.074 141.037C268.355 141.119 269.827 142.125 269.827 142.125C269.827 142.125 270.18 150.958 269.593 153.293Z" fill="white"/>
</g>
<path d="M434.685 260.115C432.931 256.929 429.067 250.361 421.132 254.857C418.999 256.064 417.045 255.01 413.2 251.757C409.203 248.371 406.955 246.581 402.27 250.216C397.585 253.851 392.343 249.025 388.064 249.258C383.784 249.492 383.097 254.523 378.806 253.502C375.997 252.834 368.827 239.208 364.209 229.863C362.953 227.33 361.887 225.114 361.144 223.551C360.828 222.875 360.568 222.326 360.379 221.928C360.189 221.531 360.1 221.323 360.055 221.23C360.055 221.23 354.238 205.466 350.151 202.792C346.064 200.119 342.672 202.076 341.777 204.909C340.882 207.742 343.984 217.124 345.786 221.564H346.284H345.786C345.786 221.564 346.629 224.026 347.922 227.757C348.494 229.41 349.152 231.311 349.865 233.356C350.649 235.606 351.5 238.035 352.369 240.5C352.41 240.619 352.454 240.737 352.495 240.853C353.093 242.557 353.703 244.28 354.304 245.969C356.678 252.615 358.948 258.815 360.219 261.845C362.348 266.924 364.588 281.686 366.003 292.372C366.91 299.151 367.489 304.29 367.489 304.29H447.513C447.513 304.29 442.858 275.003 434.685 260.115Z" fill="#FFCBAD"/>
<g opacity="0.5">
<path opacity="0.5" d="M348.119 203.679C348.423 203.656 348.728 203.721 348.997 203.865C349.266 204.009 349.489 204.227 349.638 204.492C350.857 206.664 353.688 212.434 350.411 214.146C347.354 215.753 344.381 211.606 343.267 207.485C343.16 207.088 343.214 206.665 343.419 206.308C343.91 205.421 345.188 203.906 348.119 203.679Z" fill="white"/>
</g>
<path d="M381.406 304.298H355.564C352.28 297.845 347.149 287.657 342.416 282.719C337.39 277.48 333.314 272.943 333.645 271.707C333.656 271.661 333.675 271.617 333.701 271.577C335.372 269.115 339.953 265.944 344.649 268.41C351.132 271.818 362.656 287.653 366.003 292.38C366.605 293.226 366.943 293.716 366.943 293.716L379.575 294.645C380.136 297.871 380.76 301.09 381.406 304.298Z" fill="#FFCBAD"/>
<g opacity="0.5">
<path opacity="0.5" d="M343.921 278.85C345.087 280.918 342.52 282.64 342.416 282.711C337.39 277.476 333.314 272.939 333.645 271.699C334.633 270.875 336.39 270.585 336.39 270.585C336.39 270.585 342.725 276.741 343.921 278.85Z" fill="white"/>
</g>
<path d="M355.564 304.297C355.564 304.297 365.279 329.545 381.496 334.371C395.505 338.548 403.638 358.003 408.508 370.404C409.115 371.949 410.174 373.275 411.547 374.21C412.919 375.144 414.541 375.644 416.202 375.643H456.452C457.079 375.645 457.699 375.506 458.265 375.235C458.831 374.965 459.329 374.57 459.722 374.081C460.114 373.592 460.392 373.021 460.533 372.41C460.674 371.799 460.676 371.164 460.538 370.553C458.343 360.821 453.309 337.553 447.535 304.286L355.564 304.297Z" fill="#FFCBAD"/>
<path d="M274.816 144.676C274.816 144.676 277.836 149.462 276.54 160.674C275.243 171.887 274.816 185.335 274.816 185.335L272.446 162.887L274.816 144.676Z" fill="#FFCBAD"/>
</g>
</svg>
