<svg width="52" height="42" viewBox="0 0 52 42" fill="none" xmlns="http://www.w3.org/2000/svg">
<path fill-rule="evenodd" clip-rule="evenodd" d="M51.9999 42H42.3028V40.5949H50.3881V37.8112C49.915 36.3088 49.3047 34.8533 48.565 33.4634C46.5568 29.2746 43.9146 23.8927 43.9146 21.0825V14.1365H30.9938V21.0825C30.4239 23.9915 29.6108 26.8472 28.563 29.6192L26.9512 29.2746C27.9467 26.6027 28.7589 23.8656 29.3821 21.0825V12.7314H45.5264V21.0825C45.5264 23.5216 48.1686 29.0359 49.9654 32.9331C50.9074 34.4352 51.5949 36.0836 51.9999 37.8112V42Z" fill="#F3B36A"/>
<path d="M45.0241 20.3667H30.1217V21.9574H45.0241V20.3667Z" fill="#F3B36A"/>
<path fill-rule="evenodd" clip-rule="evenodd" d="M21.244 28.9564H19.5529V23.8927H11.3354V28.9564H9.82935V22.5937H21.244V28.9564Z" fill="#F3B36A"/>
<path fill-rule="evenodd" clip-rule="evenodd" d="M27.8231 42H0V30.8652H40.9024V36.4326H39.2378V32.2969H1.66463V40.7275H27.8231V42Z" fill="#F3B36A"/>
<path d="M14.5852 16.8672H12.9999V23.2299H14.5852V16.8672Z" fill="#F3B36A"/>
<path d="M17.7561 19.7304H16.4878V23.2299H17.7561V19.7304Z" fill="#F3B36A"/>
<path fill-rule="evenodd" clip-rule="evenodd" d="M1.66463 29.5927H0V5.73244H8.11178V20.1016L11.0975 22.8323L9.93495 23.8397L6.47356 20.6849V7.16403H1.66463V29.5927Z" fill="#F3B36A"/>
<path fill-rule="evenodd" clip-rule="evenodd" d="M6.34122 31.0243H23.7274V29.5927H6.34122V31.0243ZM25.2599 32.4559H4.75586V28.3201H25.3656L25.2599 32.4559Z" fill="#F3B36A"/>
<path d="M14.5852 25.1387H12.9999V26.7295H14.5852V25.1387Z" fill="#F3B36A"/>
<path d="M17.7561 25.1387H16.4878V26.7295H17.7561V25.1387Z" fill="#F3B36A"/>
<path d="M4.75617 15.5947H3.17078V16.8672H4.75617V15.5947Z" fill="#F3B36A"/>
<path d="M4.75617 18.1397H3.17078V19.7304H4.75617V18.1397Z" fill="#F3B36A"/>
<path d="M4.75617 21.003H3.17078V22.5937H4.75617V21.003Z" fill="#F3B36A"/>
<path d="M7.29264 8.59563H0.951172V9.86819H7.29264V8.59563Z" fill="#F3B36A"/>
<path d="M7.29264 11.1407H0.951172V12.7314H7.29264V11.1407Z" fill="#F3B36A"/>
<path d="M45.0241 15.5947H30.1217V16.8672H45.0241V15.5947Z" fill="#F3B36A"/>
<path d="M51.3658 37.8642H42.4878V39.4549H51.3658V37.8642Z" fill="#F3B36A"/>
<path d="M8.24397 37.8642H3.17078V39.4549H8.24397V37.8642Z" fill="#F3B36A"/>
<path d="M14.5854 37.8642H9.82935V39.4549H14.5854V37.8642Z" fill="#F3B36A"/>
<path d="M21.2439 37.8642H16.4878V39.4549H21.2439V37.8642Z" fill="#F3B36A"/>
<path d="M27.5852 37.8642H22.8291V39.4549H27.5852V37.8642Z" fill="#F3B36A"/>
<path fill-rule="evenodd" clip-rule="evenodd" d="M21.0852 4.14175C20.4729 4.12731 19.8735 3.96272 19.3392 3.66234C18.8049 3.36196 18.3521 2.93491 18.0202 2.4185C17.7996 2.12752 17.5214 1.88545 17.2031 1.70752C16.8848 1.52958 16.5333 1.41963 16.1706 1.38456C15.457 1.51433 14.8065 1.87797 14.321 2.4185C13.9998 2.94499 13.5494 3.37993 13.0127 3.68169C12.476 3.98346 11.8711 4.14193 11.2559 4.14193C10.6407 4.14193 10.0358 3.98346 9.49917 3.68169C8.9625 3.37993 8.51203 2.94499 8.19089 2.4185C7.97031 2.12752 7.69213 1.88545 7.37383 1.70752C7.05553 1.52958 6.704 1.41963 6.34131 1.38456V0.0059524C6.93682 0.00176655 7.5249 0.138892 8.05756 0.406116C8.59022 0.673339 9.05239 1.0631 9.40636 1.54362C9.56006 1.90835 9.81746 2.21955 10.1464 2.43834C10.4754 2.65714 10.8613 2.77382 11.2559 2.77382C11.6506 2.77382 12.0365 2.65714 12.3655 2.43834C12.6944 2.21955 12.9518 1.90835 13.1055 1.54362C13.4624 1.06619 13.9252 0.67869 14.4572 0.411799C14.9892 0.144908 15.5758 0.0059524 16.1706 0.0059524C16.7654 0.0059524 17.352 0.144908 17.884 0.411799C18.416 0.67869 18.8787 1.06619 19.2356 1.54362C19.3893 1.90835 19.6467 2.21955 19.9757 2.43834C20.3046 2.65714 20.6905 2.77382 21.0852 2.77382C21.4799 2.77382 21.8658 2.65714 22.1947 2.43834C22.5237 2.21955 22.7811 1.90835 22.9348 1.54362C23.2888 1.0631 23.7509 0.673339 24.2836 0.406116C24.8162 0.138892 25.4043 0.00176655 25.9998 0.0059524V1.38456C25.2863 1.51433 24.6357 1.87797 24.1502 2.4185C23.8183 2.93491 23.3654 3.36196 22.8312 3.66234C22.2969 3.96272 21.6975 4.12731 21.0852 4.14175Z" fill="#7BBEFD"/>
<path fill-rule="evenodd" clip-rule="evenodd" d="M4.75615 2.86914H3.17078C3.18757 2.47089 3.2834 2.08002 3.45266 1.7194C3.62192 1.35879 3.8612 1.0357 4.15649 0.769044C4.45179 0.502393 4.79716 0.297554 5.17235 0.166518C5.54754 0.0354823 5.94503 -0.0191286 6.34152 0.00591991V1.43753C6.14287 1.42315 5.94338 1.44916 5.75499 1.51398C5.5666 1.57881 5.3932 1.68112 5.24516 1.81479C5.09713 1.94847 4.9775 2.11076 4.89347 2.29193C4.80944 2.4731 4.76274 2.66942 4.75615 2.86914Z" fill="#7BBEFD"/>
<path d="M4.75617 2.86919H3.17078V4.1417H4.75617V2.86919Z" fill="#7BBEFD"/>
<path fill-rule="evenodd" clip-rule="evenodd" d="M47.2439 11.0347C46.6478 11.0123 46.0662 10.8434 45.5503 10.543C45.0343 10.2426 44.5997 9.81967 44.2845 9.31146C44.0699 9.02658 43.8001 8.78816 43.4913 8.61048C43.1826 8.43281 42.8412 8.31955 42.4878 8.27751V6.89893C43.0714 6.89876 43.6467 7.03815 44.166 7.30556C44.6852 7.57297 45.1334 7.96068 45.4736 8.43658C45.6134 8.79328 45.8571 9.09948 46.1729 9.31528C46.4886 9.53108 46.8618 9.64649 47.2439 9.64649C47.6259 9.64649 47.9991 9.53108 48.3149 9.31528C48.6306 9.09948 48.8743 8.79328 49.0142 8.43658C49.3573 7.96379 49.8062 7.57837 50.3248 7.31131C50.8433 7.04425 51.4171 6.90301 52 6.89893V8.38356C51.2073 8.38356 50.4146 9.25844 50.2297 9.41751C49.8951 9.90499 49.45 10.3058 48.9309 10.587C48.4118 10.8681 47.8336 11.0216 47.2439 11.0347Z" fill="#7BBEFD"/>
<path fill-rule="evenodd" clip-rule="evenodd" d="M40.6909 9.86818H38.947C38.9866 9.4496 39.1086 9.04305 39.3057 8.67204C39.5029 8.30103 39.7714 7.97292 40.0957 7.70666C40.4201 7.44041 40.7938 7.24131 41.1953 7.12086C41.5968 7.00042 42.0181 6.96103 42.4348 7.00496V8.38355C42.2223 8.36171 42.0076 8.38318 41.8036 8.44668C41.5996 8.51017 41.4105 8.61439 41.2476 8.75305C41.0847 8.89171 40.9514 9.06197 40.8558 9.2536C40.7601 9.44523 40.7041 9.65426 40.6909 9.86818Z" fill="#7BBEFD"/>
<path d="M40.9024 9.86819H39V11.1407H40.9024V9.86819Z" fill="#7BBEFD"/>
<path d="M42.4877 7.00494H37.7316V8.59562H42.4877V7.00494Z" fill="#7BBEFD"/>
<path fill-rule="evenodd" clip-rule="evenodd" d="M35.9877 9.86818H34.2438C34.2834 9.4496 34.4053 9.04305 34.6025 8.67204C34.7997 8.30103 35.0682 7.97292 35.3925 7.70666C35.7168 7.44041 36.0905 7.24131 36.492 7.12086C36.8935 7.00042 37.3148 6.96103 37.7316 7.00496V8.38355C37.5191 8.36171 37.3044 8.38318 37.1004 8.44668C36.8964 8.51017 36.7072 8.61439 36.5444 8.75305C36.3815 8.89171 36.2482 9.06197 36.1525 9.2536C36.0569 9.44523 36.0008 9.65426 35.9877 9.86818Z" fill="#7BBEFD"/>
<path d="M35.8291 9.86819H34.2438V11.1407H35.8291V9.86819Z" fill="#7BBEFD"/>
<path fill-rule="evenodd" clip-rule="evenodd" d="M31.1524 40.7275H39.0792V39.2959H31.1524V40.7275ZM40.9024 42H29.4878V37.8642H40.9024V42Z" fill="#F3B36A"/>
</svg>
