<svg width="42" height="42" viewBox="0 0 42 42" fill="none" xmlns="http://www.w3.org/2000/svg">
<path fill-rule="evenodd" clip-rule="evenodd" d="M2.50343 40.566H26.3715V37.8195C26.0368 36.0613 25.5985 34.3245 25.059 32.6181C23.1031 26.854 21.7668 20.8979 21.0729 14.8507V7.68056H7.80204V14.8507C7.09627 20.8959 5.7603 26.8507 3.81593 32.6181C3.27641 34.3245 2.83814 36.0613 2.50343 37.8195V40.566ZM27.052 42H1.82288C1.64445 41.9768 1.4802 41.8906 1.35983 41.7569C1.23947 41.6231 1.17093 41.4507 1.16663 41.2708V37.8195C1.16663 37.2847 1.67704 35.6563 2.50343 32.2535C4.39876 26.5985 5.72593 20.7688 6.46525 14.8507V6.97568C6.47032 6.79208 6.54227 6.61666 6.66759 6.48238C6.79292 6.3481 6.96298 6.26421 7.1458 6.24651H21.7291C21.9119 6.26421 22.082 6.3481 22.2073 6.48238C22.3327 6.61666 22.4046 6.79208 22.4097 6.97568V14.8507C23.149 20.7688 24.4762 26.5985 26.3715 32.2535C27.1979 35.6563 27.7083 37.2847 27.7083 37.8195V41.3924C27.6781 41.5505 27.5982 41.6947 27.4801 41.8041C27.362 41.9134 27.212 41.9821 27.052 42Z" fill="#F3B36A"/>
<path fill-rule="evenodd" clip-rule="evenodd" d="M34.1249 41.4167H32.8124V38.5243C32.8124 37.9653 31.8401 34.8785 31.1596 31.9861C29.5407 27.2383 28.3371 22.3589 27.5624 17.4028V10.1111H23.6249V8.65276H28.2186C28.3991 8.67089 28.5664 8.75566 28.6877 8.89049C28.8091 9.02532 28.8758 9.20054 28.8749 9.38193V17.3542C29.6655 22.158 30.8193 26.895 32.3263 31.5243C33.1094 33.7734 33.7109 36.0818 34.1249 38.4271V41.4167Z" fill="#F3B36A"/>
<path fill-rule="evenodd" clip-rule="evenodd" d="M40.8334 41.4167H39.5209V38.5243C38.9685 36.0017 38.254 33.5174 37.382 31.0868C35.9887 27.627 34.9465 24.0361 34.2709 20.3681V13.0764H30.3334V11.618H34.9028C35.0812 11.6412 35.2455 11.7274 35.3659 11.8612C35.4862 11.9949 35.5548 12.1673 35.5591 12.3472V20.3194C35.5591 21.4132 37.3577 26.6632 38.5243 30.6736C39.5121 33.2027 40.2766 35.8133 40.8091 38.4757L40.8334 41.4167Z" fill="#F3B36A"/>
<path d="M42 40.5416H0V42H42V40.5416Z" fill="#F3B36A"/>
<path d="M15.1667 11.6666H13.7084V13.125H15.1667V11.6666Z" fill="#F3B36A"/>
<path d="M17.7917 11.6666H16.3334V13.125H17.7917V11.6666Z" fill="#F3B36A"/>
<path d="M12.5418 11.6666H11.0835V13.125H12.5418V11.6666Z" fill="#F3B36A"/>
<path fill-rule="evenodd" clip-rule="evenodd" d="M28.1458 4.66666C27.6048 4.58693 27.0946 4.36489 26.6675 4.02324C26.2405 3.68158 25.9118 3.23258 25.7153 2.72222C25.5451 2.33333 24.8889 1.55556 24.2326 1.55556C23.5764 1.55556 22.9201 2.52777 22.75 2.72222C22.75 3.36684 22.4939 3.98506 22.0381 4.44088C21.5823 4.89669 20.9641 5.15276 20.3194 5.15276C19.6748 5.15276 19.0566 4.89669 18.6008 4.44088C18.145 3.98506 17.8889 3.36684 17.8889 2.72222C17.7188 2.33333 17.0625 1.55556 16.4062 1.55556V1.52588e-05C16.9302 0.0497465 17.4316 0.238059 17.8587 0.545605C18.2859 0.853152 18.6234 1.26885 18.8368 1.75001C19.0069 2.1389 19.6632 3.11111 20.3194 3.11111C20.9757 3.11111 21.6319 2.1389 21.8021 1.75001C21.9896 1.25729 22.3225 0.83322 22.7566 0.533997C23.1907 0.234774 23.7054 0.0745235 24.2326 0.0745235C24.7599 0.0745235 25.2746 0.234774 25.7087 0.533997C26.1428 0.83322 26.4756 1.25729 26.6632 1.75001C26.8333 2.1389 27.4896 3.11111 28.1458 3.11111C28.8021 3.11111 29.4583 2.1389 29.6285 1.75001C29.8418 1.26885 30.1794 0.853152 30.6066 0.545605C31.0337 0.238059 31.535 0.0497465 32.059 1.52588e-05V1.55556C31.4028 1.55556 30.7465 2.52777 30.5764 2.72222C30.3798 3.23258 30.0512 3.68158 29.6241 4.02324C29.1971 4.36489 28.6869 4.58693 28.1458 4.66666Z" fill="#7BBEFD"/>
<path fill-rule="evenodd" clip-rule="evenodd" d="M15.0207 3.20832H13.7082C13.6679 2.82495 13.7041 2.43743 13.8145 2.06811C13.9249 1.69879 14.1075 1.35501 14.3516 1.05667C14.5957 0.758326 14.8965 0.51135 15.2366 0.32998C15.5768 0.148611 15.9495 0.0364532 16.3332 1.52588e-05V1.60419C16.1414 1.6224 15.955 1.67846 15.7849 1.76915C15.6148 1.85983 15.4644 1.98332 15.3424 2.13249C15.2203 2.28166 15.1291 2.45355 15.0739 2.63821C15.0186 2.82287 15.0006 3.01664 15.0207 3.20832Z" fill="#7BBEFD"/>
<path d="M15.1667 3.20831H13.7084V4.66664H15.1667V3.20831Z" fill="#7BBEFD"/>
<path d="M21.5834 8.74995H7.29175V10.2083H21.5834V8.74995Z" fill="#F3B36A"/>
<path d="M28.2915 11.6666H23.6249V13.125H28.2915V11.6666Z" fill="#F3B36A"/>
<path d="M34.7084 14.5833H30.3334V16.0416H34.7084V14.5833Z" fill="#F3B36A"/>
<path d="M26.8334 37.9166H2.04175V39.0834H26.8334V37.9166Z" fill="#F3B36A"/>
<path d="M33.5417 37.9166H28.875V39.0834H33.5417V37.9166Z" fill="#F3B36A"/>
<path fill-rule="evenodd" clip-rule="evenodd" d="M13.0279 26.25C13.056 25.9985 13.1562 25.7606 13.3164 25.5647C13.4767 25.3689 13.6901 25.2236 13.931 25.1462C14.1719 25.0688 14.43 25.0628 14.6743 25.1287C14.9186 25.1946 15.1386 25.3298 15.3078 25.5178C15.4771 25.7059 15.5884 25.9389 15.6283 26.1887C15.6683 26.4386 15.6351 26.6946 15.5329 26.9261C15.4307 27.1575 15.2637 27.3545 15.0521 27.4933C14.8406 27.6321 14.5934 27.7067 14.3404 27.7083C14.1584 27.699 13.98 27.6538 13.8154 27.5755C13.6509 27.4971 13.5034 27.387 13.3815 27.2515C13.2596 27.116 13.1656 26.9578 13.1049 26.786C13.0442 26.6141 13.0181 26.432 13.0279 26.25Z" fill="#F3B36A"/>
<path fill-rule="evenodd" clip-rule="evenodd" d="M9.16326 26.25H7.87505C7.83983 25.2033 8.03993 24.162 8.46059 23.2029C8.88124 22.2438 9.51172 21.3914 10.3056 20.7083L11.1077 21.7777C10.4695 22.3301 9.96355 23.0188 9.62702 23.7928C9.29048 24.5668 9.13201 25.4065 9.16326 26.25Z" fill="#F3B36A"/>
<path fill-rule="evenodd" clip-rule="evenodd" d="M14.4376 33.25C12.7905 33.2082 11.2024 32.6276 9.91675 31.5972L10.9133 30.625C11.893 31.47 13.1438 31.935 14.4376 31.935C15.7314 31.935 16.9822 31.47 17.9619 30.625L18.9584 31.5972C17.6727 32.6276 16.0847 33.2082 14.4376 33.25Z" fill="#F3B36A"/>
<path fill-rule="evenodd" clip-rule="evenodd" d="M21 26.25H19.7118C19.7582 25.4161 19.6186 24.5823 19.3034 23.8088C18.9881 23.0354 18.505 22.3417 17.8889 21.7777L18.691 20.7083C19.4628 21.403 20.0704 22.2606 20.4698 23.219C20.8691 24.1775 21.0503 25.2129 21 26.25Z" fill="#F3B36A"/>
<path fill-rule="evenodd" clip-rule="evenodd" d="M11.837 26.25H10.5974C10.546 25.5708 10.6738 24.89 10.9681 24.2758C11.2625 23.6616 11.7129 23.1354 12.2745 22.75L12.9307 23.8437C12.5855 24.1421 12.309 24.5116 12.1202 24.927C11.9314 25.3424 11.8348 25.7937 11.837 26.25Z" fill="#F3B36A"/>
<path fill-rule="evenodd" clip-rule="evenodd" d="M14.4376 30.5278C13.5488 30.4912 12.6959 30.1671 12.0071 29.6041L12.7119 28.4861C13.2302 28.8545 13.8504 29.0524 14.4862 29.0524C15.1221 29.0524 15.7423 28.8545 16.2606 28.4861L16.9654 29.6041C16.2505 30.1871 15.36 30.5125 14.4376 30.5278Z" fill="#F3B36A"/>
<path fill-rule="evenodd" clip-rule="evenodd" d="M18.375 26.25H17.0382C17.0561 25.7971 16.9764 25.3456 16.8045 24.9262C16.6325 24.5069 16.3723 24.1294 16.0416 23.8194L16.6979 22.7257C17.2384 23.1366 17.6727 23.671 17.9645 24.2841C18.2563 24.8972 18.397 25.5713 18.375 26.25Z" fill="#F3B36A"/>
</svg>
