<svg width="54" height="42" viewBox="0 0 54 42" fill="none" xmlns="http://www.w3.org/2000/svg">
<path d="M11.6497 29.5319C13.1003 23.5885 16.5162 6.34828 22.1317 29.5319" stroke="#F3B36A" stroke-width="1.38921"/>
<path d="M32.2394 29.5319C33.69 23.5885 37.1059 6.34828 42.7214 29.5319" stroke="#F3B36A" stroke-width="1.38921"/>
<path d="M8.86902 18.6823H22.4423M24.4193 18.6823H22.4423M22.4423 18.6823V13.0121H11.1706V16.7726" stroke="#F3B36A" stroke-width="1.38921"/>
<path d="M44.6907 18.6823H31.1174M29.1404 18.6823H31.1174M31.1174 18.6823V13.0121H42.3891V16.7726" stroke="#F3B36A" stroke-width="1.38921"/>
<path d="M1.07385 26.3636V5.21049H5.37894V31.4888" stroke="#F3B36A" stroke-width="1.38921"/>
<path d="M53.298 26.3636V5.21049H48.9929V31.4888" stroke="#F3B36A" stroke-width="1.38921"/>
<path d="M7.81238 8.2856H46.5121" stroke="#F3B36A" stroke-width="1.38921"/>
<path fill-rule="evenodd" clip-rule="evenodd" d="M23.6653 36.6299C22.9875 36.605 22.3315 36.4773 21.7594 36.2586C21.1873 36.04 20.718 35.7378 20.3959 35.3806C20.1797 35.1761 19.8902 35.0028 19.5484 34.8732C19.2066 34.7436 18.8209 34.6609 18.4191 34.6311C17.5447 34.6311 16.6703 35.2443 16.4423 35.3806C16.1508 35.7516 15.6886 36.0654 15.1096 36.2852C14.5306 36.505 13.8588 36.6217 13.1729 36.6217C12.4869 36.6217 11.8151 36.505 11.2361 36.2852C10.6572 36.0654 10.1949 35.7516 9.90346 35.3806C9.68725 35.1761 9.39781 35.0028 9.05597 34.8732C8.71413 34.7436 8.32842 34.6609 7.92664 34.6311V33.6316C8.58638 33.6317 9.23473 33.7343 9.80795 33.9295C10.3812 34.1246 10.8596 34.4055 11.196 34.7446C11.4241 34.9945 12.2985 35.6305 13.1729 35.6305C14.0472 35.6305 14.9216 34.9945 15.1497 34.7446C15.4863 34.4057 15.9647 34.1249 16.538 33.9299C17.1112 33.7348 17.7595 33.6323 18.4191 33.6323C19.0787 33.6323 19.727 33.7348 20.3002 33.9299C20.8734 34.1249 21.3519 34.4057 21.6885 34.7446C21.9166 34.9945 22.791 35.6305 23.6653 35.6305C24.5397 35.6305 25.4141 34.9945 25.6422 34.7446C25.9786 34.4055 26.457 34.1246 27.0302 33.9295C27.6035 33.7343 28.2518 33.6317 28.9116 33.6316V34.6311C28.0372 34.6311 27.1628 35.2443 26.9347 35.3806C26.6126 35.7378 26.1433 36.04 25.5712 36.2586C24.9991 36.4773 24.3431 36.605 23.6653 36.6299Z" fill="#7BBEFD"/>
<path fill-rule="evenodd" clip-rule="evenodd" d="M44.6503 36.6299C43.9725 36.605 43.3165 36.4773 42.7444 36.2586C42.1723 36.04 41.703 35.7378 41.3809 35.3806C41.1647 35.1761 40.8752 35.0028 40.5334 34.8732C40.1916 34.7436 39.8059 34.6609 39.4041 34.6311C38.5297 34.6311 37.6553 35.2443 37.4272 35.3806C37.1358 35.7516 36.6735 36.0654 36.0946 36.2852C35.5156 36.505 34.8438 36.6217 34.1578 36.6217C33.4719 36.6217 32.8001 36.505 32.2211 36.2852C31.6421 36.0654 31.1799 35.7516 30.8884 35.3806C30.6722 35.1761 30.3828 35.0028 30.041 34.8732C29.6991 34.7436 29.3134 34.6609 28.9116 34.6311V33.6316C29.5714 33.6317 30.2197 33.7343 30.7929 33.9295C31.3662 34.1246 31.8445 34.4055 32.181 34.7446C32.4091 34.9945 33.2835 35.6305 34.1578 35.6305C35.0322 35.6305 35.9066 34.9945 36.1347 34.7446C36.4713 34.4057 36.9497 34.1249 37.5229 33.9299C38.0962 33.7348 38.7445 33.6323 39.4041 33.6323C40.0637 33.6323 40.712 33.7348 41.2852 33.9299C41.8584 34.1249 42.3368 34.4057 42.6735 34.7446C42.9016 34.9945 43.7759 35.6305 44.6503 35.6305C45.5247 35.6305 46.399 34.9945 46.6271 34.7446C46.9636 34.4055 47.442 34.1246 48.0152 33.9295C48.5884 33.7343 49.2368 33.6317 49.8965 33.6316V34.6311C49.0222 34.6311 48.1478 35.2443 47.9197 35.3806C47.5976 35.7378 47.1283 36.04 46.5562 36.2586C45.9841 36.4773 45.3281 36.605 44.6503 36.6299Z" fill="#7BBEFD"/>
<path fill-rule="evenodd" clip-rule="evenodd" d="M15.7387 32.0927C15.0609 32.0678 14.4049 31.94 13.8328 31.7214C13.2607 31.5028 12.7914 31.2006 12.4693 30.8434C12.2531 30.6389 11.9636 30.4656 11.6218 30.336C11.2799 30.2063 10.8943 30.1237 10.4925 30.0939C9.6181 30.0939 8.74371 30.7071 8.51561 30.8434C8.22418 31.2144 7.76192 31.5282 7.18294 31.748C6.60395 31.9678 5.93218 32.0845 5.24622 32.0845C4.56026 32.0845 3.88849 31.9678 3.30951 31.748C2.73052 31.5282 2.26826 31.2144 1.97683 30.8434C1.76061 30.6389 1.47117 30.4656 1.12933 30.336C0.78749 30.2063 0.401779 30.1237 0 30.0939V29.0944C0.659744 29.0945 1.30809 29.1971 1.88132 29.3923C2.45455 29.5874 2.93292 29.8683 3.26939 30.2074C3.49749 30.4573 4.37185 31.0933 5.24622 31.0933C6.12059 31.0933 6.99498 30.4573 7.22308 30.2074C7.55969 29.8684 8.03811 29.5877 8.61133 29.3927C9.18455 29.1976 9.83284 29.0951 10.4925 29.0951C11.1521 29.0951 11.8004 29.1976 12.3736 29.3927C12.9468 29.5877 13.4252 29.8684 13.7618 30.2074C13.9899 30.4573 14.8643 31.0933 15.7387 31.0933C16.6131 31.0933 17.4874 30.4573 17.7155 30.2074C18.052 29.8683 18.5304 29.5874 19.1036 29.3923C19.6768 29.1971 20.3252 29.0945 20.9849 29.0944V30.0939C20.1105 30.0939 19.2362 30.7071 19.0081 30.8434C18.686 31.2006 18.2167 31.5028 17.6446 31.7214C17.0725 31.94 16.4165 32.0678 15.7387 32.0927Z" fill="#7BBEFD"/>
<path fill-rule="evenodd" clip-rule="evenodd" d="M36.7236 32.0927C36.0457 32.0678 35.3898 31.94 34.8177 31.7214C34.2456 31.5028 33.7763 31.2006 33.4542 30.8434C33.2379 30.6389 32.9485 30.4656 32.6066 30.336C32.2648 30.2063 31.8791 30.1237 31.4773 30.0939C30.603 30.0939 29.7286 30.7071 29.5005 30.8434C29.209 31.2144 28.7468 31.5282 28.1678 31.748C27.5888 31.9678 26.917 32.0845 26.2311 32.0845C25.5451 32.0845 24.8734 31.9678 24.2944 31.748C23.7154 31.5282 23.2531 31.2144 22.9617 30.8434C22.7455 30.6389 22.456 30.4656 22.1142 30.336C21.7724 30.2063 21.3866 30.1237 20.9849 30.0939V29.0944C21.6446 29.0945 22.293 29.1971 22.8662 29.3923C23.4394 29.5874 23.9178 29.8683 24.2543 30.2074C24.4824 30.4573 25.3567 31.0933 26.2311 31.0933C27.1055 31.0933 27.9798 30.4573 28.2079 30.2074C28.5446 29.8684 29.023 29.5877 29.5962 29.3927C30.1694 29.1976 30.8177 29.0951 31.4773 29.0951C32.137 29.0951 32.7852 29.1976 33.3584 29.3927C33.9317 29.5877 34.4101 29.8684 34.7467 30.2074C34.9748 30.4573 35.8492 31.0933 36.7236 31.0933C37.5979 31.0933 38.4723 30.4573 38.7004 30.2074C39.0369 29.8683 39.5152 29.5874 40.0885 29.3923C40.6617 29.1971 41.31 29.0945 41.9698 29.0944V30.0939C41.0954 30.0939 40.221 30.7071 39.993 30.8434C39.6709 31.2006 39.2015 31.5028 38.6294 31.7214C38.0573 31.94 37.4014 32.0678 36.7236 32.0927Z" fill="#7BBEFD"/>
<path fill-rule="evenodd" clip-rule="evenodd" d="M47.2159 32.0927C46.5381 32.0678 45.8821 31.94 45.31 31.7214C44.7379 31.5028 44.2686 31.2006 43.9465 30.8434C43.7303 30.6389 43.4408 30.4656 43.0989 30.336C42.7571 30.2063 42.3714 30.1237 41.9696 30.0939C41.0953 30.0939 40.2209 30.7071 39.9928 30.8434C39.7014 31.2144 39.2391 31.5282 38.6601 31.748C38.0811 31.9678 37.4094 32.0845 36.7234 32.0845C36.0374 32.0845 35.3657 31.9678 34.7867 31.748C34.2077 31.5282 33.7454 31.2144 33.454 30.8434C33.2378 30.6389 32.9483 30.4656 32.6065 30.336C32.2647 30.2063 31.879 30.1237 31.4772 30.0939V29.0944C32.1369 29.0945 32.7853 29.1971 33.3585 29.3923C33.9317 29.5874 34.4101 29.8683 34.7466 30.2074C34.9747 30.4573 35.849 31.0933 36.7234 31.0933C37.5978 31.0933 38.4722 30.4573 38.7003 30.2074C39.0369 29.8684 39.5153 29.5877 40.0885 29.3927C40.6617 29.1976 41.31 29.0951 41.9696 29.0951C42.6293 29.0951 43.2775 29.1976 43.8508 29.3927C44.424 29.5877 44.9024 29.8684 45.239 30.2074C45.4671 30.4573 46.3415 31.0933 47.2159 31.0933C48.0902 31.0933 48.9646 30.4573 49.1927 30.2074C49.5292 29.8683 50.0075 29.5874 50.5808 29.3923C51.154 29.1971 51.8023 29.0945 52.4621 29.0944V30.0939C51.5877 30.0939 50.7134 30.7071 50.4853 30.8434C50.1632 31.2006 49.6938 31.5028 49.1218 31.7214C48.5497 31.94 47.8937 32.0678 47.2159 32.0927Z" fill="#7BBEFD"/>
</svg>
