<svg width="201" height="200" viewBox="0 0 201 200" fill="none" xmlns="http://www.w3.org/2000/svg">
<circle opacity="0.2" cx="100.5" cy="100" r="100" fill="#4AA29A"/>
<circle cx="100.5" cy="100" r="90" fill="#89BDB9"/>
<mask id="mask0" mask-type="alpha" maskUnits="userSpaceOnUse" x="10" y="10" width="181" height="180">
<circle cx="100.5" cy="100" r="90" fill="#4B0731"/>
</mask>
<g mask="url(#mask0)">
<path d="M161.26 102.332C173.546 108.996 188.039 97.6704 184.218 84.2318C184.166 84.0474 184.11 83.8618 184.051 83.6749C179.377 68.8774 188.812 60.2674 180.967 51.4903C173.123 42.7131 161.6 49.8919 159.265 63.013C156.93 76.1341 146.192 79.8507 147.219 87.384C148.321 95.5281 153.23 97.9767 161.26 102.332Z" fill="#71D3CA"/>
<path d="M160.861 98.9901L160.608 98.8676C168.111 83.5262 172.071 58.5834 172.11 58.3384L172.389 58.3829C172.35 58.6335 168.382 83.6116 160.861 98.9901Z" fill="#05AFAF"/>
<path d="M169.541 72.5215L169.402 72.2783C171.562 71.0438 174.454 68.3798 174.484 68.3501L174.67 68.5562C174.646 68.5821 171.729 71.2702 169.541 72.5215Z" fill="#05AFAF"/>
<path d="M168.083 77.6229C165.464 75.1688 164.329 71.4132 164.318 71.3743L164.587 71.2944C164.598 71.3316 165.713 75.0073 168.276 77.4206L168.083 77.6229Z" fill="#05AFAF"/>
<path d="M165.696 86.7456H165.659V86.4653C167.977 86.495 172.328 83.7104 172.372 83.6807L172.525 83.9164C172.346 84.0315 168.105 86.7456 165.696 86.7456Z" fill="#05AFAF"/>
<path d="M33.8764 148.825C23.2586 143.111 22.5806 138.86 13.3727 133.124C4.16477 127.387 2.36294 113.382 11.9981 107.598C21.6332 101.813 22.6177 75.183 45.1684 75.3928C52.5113 75.4615 61.6691 68.2697 69.142 66.6268C76.615 64.9839 81.2161 76.6626 90.8606 81.4614C100.505 86.2602 121.482 78.4856 131.091 106.987C136.242 122.275 155.953 135.205 149.667 152.315C145.445 163.873 119.051 171.143 107.662 167.987C96.2735 164.831 84.0563 152.95 71.724 151.669C59.3917 150.388 44.4496 154.511 33.8764 148.825Z" fill="#63ACA5"/>
<path d="M134.032 107.48C158.952 107.48 179.154 106.299 179.154 104.842C179.154 103.385 158.952 102.204 134.032 102.204C109.112 102.204 88.9104 103.385 88.9104 104.842C88.9104 106.299 109.112 107.48 134.032 107.48Z" fill="#05AFAF"/>
<path d="M97.5926 102.74H132.425V75.3804H97.5926V102.74Z" fill="#FDE2CF"/>
<path d="M132.424 104.173H161.886V84.0795H132.424V104.173Z" fill="#FDE2CF"/>
<path d="M158.81 87.6978H135.502V104.172H158.81V87.6978Z" fill="#34726C"/>
<path d="M132.425 84.6531H162.477L161.422 81.0312H132.425V84.6531Z" fill="#34726C"/>
<path d="M115.598 101.124H130.306V90.7536H115.598V101.124Z" fill="white"/>
<path d="M99.7084 101.124H114.417V90.7536H99.7084V101.124Z" fill="white"/>
<path d="M99.7084 83.623H130.308V78.4381H99.7084V83.623Z" fill="white"/>
<path d="M133.427 70.1807H96.5895V76.4943H133.427V70.1807Z" fill="#34726C"/>
<path d="M133.427 102.742H96.5895V104.173H133.427V102.742Z" fill="#FDE2CF"/>
<rect x="152.528" y="114.389" width="1.28875" height="10.2283" transform="rotate(-180 152.528 114.389)" fill="#F3B36A"/>
<rect x="147.862" y="108.444" width="1.28875" height="58.7317" transform="rotate(90 147.862 108.444)" fill="#F3B36A"/>
<rect x="150.193" y="112.023" width="1.28875" height="7.85846" transform="rotate(-180 150.193 112.023)" fill="#F3B36A"/>
<rect x="150.191" y="110.779" width="1.28875" height="60.6215" transform="rotate(90 150.191 110.779)" fill="#F3B36A"/>
<rect x="147.858" y="108.681" width="1.28875" height="4.51569" transform="rotate(-180 147.858 108.681)" fill="#F3B36A"/>
<rect x="152.526" y="113.114" width="1.28875" height="64.2263" transform="rotate(90 152.526 113.114)" fill="#F3B36A"/>
<path d="M120.691 88.1973H125.114V82.2753H120.691V88.1973Z" fill="white"/>
<path d="M105.667 88.1973H110.09V82.2753H105.667V88.1973Z" fill="white"/>
<path d="M98.9894 89.062H131.318V88.1988H98.9894V89.062Z" fill="#34726C"/>
<path d="M98.7814 83.3945H131.556V83.1662H98.7814V83.3945Z" fill="#34726C"/>
<path d="M131.094 88.4497H131.318V83.2815H131.094V88.4497Z" fill="#34726C"/>
<path d="M129.489 88.4497H129.714V83.2815H129.489V88.4497Z" fill="#34726C"/>
<path d="M126.279 88.4497H126.504V83.2815H126.279V88.4497Z" fill="#34726C"/>
<path d="M123.067 88.4497H123.292V83.2815H123.067V88.4497Z" fill="#34726C"/>
<path d="M119.857 88.4497H120.082V83.2815H119.857V88.4497Z" fill="#34726C"/>
<path d="M116.647 88.4497H116.872V83.2815H116.647V88.4497Z" fill="#34726C"/>
<path d="M113.438 88.4497H113.662V83.2815H113.438V88.4497Z" fill="#34726C"/>
<path d="M110.226 88.4497H110.451V83.2815H110.226V88.4497Z" fill="#34726C"/>
<path d="M107.014 88.4497H107.239V83.2815H107.014V88.4497Z" fill="#34726C"/>
<path d="M103.806 88.4497H104.031V83.2815H103.806V88.4497Z" fill="#34726C"/>
<path d="M100.594 88.4497H100.819V83.2815H100.594V88.4497Z" fill="#34726C"/>
<path d="M98.9895 88.4497H99.2142V83.2815H98.9895V88.4497Z" fill="#34726C"/>
<path d="M124.555 74.2071L132.998 73.9694L132.19 66.1094L123.858 66.1279L124.555 74.2071Z" fill="#34726C"/>
<path d="M124.722 74.0324L132.801 73.804L132.026 66.2837L124.055 66.3004L124.722 74.0324Z" fill="#5FBAB2"/>
<path d="M131.629 73.903C131.613 73.9031 131.598 73.8975 131.586 73.8873C131.575 73.877 131.567 73.8628 131.565 73.8474L130.711 66.2936C130.71 66.2854 130.711 66.2771 130.713 66.2691C130.715 66.2612 130.719 66.2538 130.724 66.2474C130.729 66.241 130.736 66.2357 130.743 66.2318C130.75 66.2279 130.758 66.2256 130.767 66.2249C130.783 66.2233 130.799 66.228 130.812 66.238C130.825 66.2481 130.833 66.2627 130.835 66.2788L131.69 73.8325C131.691 73.8408 131.69 73.8492 131.688 73.8573C131.686 73.8653 131.682 73.8729 131.677 73.8794C131.672 73.886 131.665 73.8914 131.658 73.8955C131.651 73.8996 131.642 73.9021 131.634 73.903H131.629Z" fill="#71D3CA"/>
<path d="M130.287 73.9566C130.272 73.9566 130.257 73.9509 130.246 73.9406C130.235 73.9303 130.228 73.9161 130.226 73.9009L129.366 66.2896C129.365 66.2813 129.366 66.2729 129.368 66.2648C129.37 66.2567 129.374 66.2492 129.379 66.2427C129.384 66.2361 129.391 66.2306 129.398 66.2266C129.405 66.2225 129.414 66.22 129.422 66.219C129.438 66.2175 129.455 66.2224 129.468 66.2328C129.48 66.2433 129.489 66.2583 129.491 66.2747L130.351 73.886C130.352 73.9025 130.347 73.9189 130.337 73.9317C130.326 73.9446 130.311 73.9528 130.295 73.9547L130.287 73.9566Z" fill="#71D3CA"/>
<path d="M128.931 73.9822C128.916 73.9823 128.901 73.9767 128.889 73.9664C128.878 73.9561 128.87 73.9419 128.868 73.9265L128.006 66.2985C128.005 66.2904 128.006 66.2822 128.008 66.2744C128.01 66.2666 128.014 66.2593 128.019 66.2529C128.024 66.2465 128.03 66.2411 128.037 66.2372C128.044 66.2332 128.052 66.2307 128.06 66.2298C128.077 66.2282 128.094 66.2331 128.107 66.2435C128.12 66.2538 128.129 66.2689 128.131 66.2855L128.987 73.9116C128.988 73.9199 128.988 73.9283 128.985 73.9364C128.983 73.9445 128.979 73.952 128.974 73.9585C128.969 73.9651 128.962 73.9706 128.955 73.9746C128.948 73.9787 128.94 73.9813 128.931 73.9822Z" fill="#71D3CA"/>
<path d="M127.577 73.9934C127.562 73.9935 127.547 73.9878 127.536 73.9775C127.524 73.9672 127.517 73.953 127.516 73.9378L126.652 66.3097C126.65 66.293 126.655 66.2762 126.665 66.2629C126.676 66.2497 126.691 66.2412 126.708 66.2392C126.725 66.2372 126.741 66.242 126.755 66.2524C126.768 66.2629 126.777 66.2782 126.778 66.2949L127.64 73.9229C127.641 73.9311 127.641 73.9394 127.639 73.9474C127.636 73.9553 127.632 73.9627 127.627 73.9691C127.622 73.9755 127.616 73.9808 127.608 73.9847C127.601 73.9886 127.593 73.9909 127.585 73.9916L127.577 73.9934Z" fill="#71D3CA"/>
<path d="M126.232 74.0533C126.217 74.0534 126.202 74.0478 126.19 74.0375C126.178 74.0272 126.171 74.013 126.169 73.9976L125.298 66.2842C125.296 66.2677 125.3 66.2511 125.31 66.2379C125.321 66.2247 125.335 66.216 125.352 66.2137C125.369 66.2121 125.385 66.217 125.398 66.2274C125.412 66.2377 125.42 66.2528 125.422 66.2694L126.296 73.9828C126.297 73.9994 126.292 74.0161 126.282 74.0292C126.271 74.0424 126.256 74.051 126.24 74.0533H126.232Z" fill="#71D3CA"/>
<path d="M124.592 72.6014C124.575 72.6014 124.559 72.5947 124.547 72.5829C124.536 72.5711 124.529 72.555 124.529 72.5383C124.529 72.5219 124.536 72.5063 124.548 72.4948C124.56 72.4834 124.576 72.477 124.592 72.477L132.557 72.4584C132.566 72.4569 132.576 72.4573 132.585 72.4597C132.593 72.4621 132.602 72.4664 132.609 72.4723C132.616 72.4783 132.622 72.4857 132.625 72.494C132.629 72.5023 132.631 72.5114 132.631 72.5206C132.631 72.5298 132.629 72.5389 132.625 72.5473C132.622 72.5556 132.616 72.563 132.609 72.5689C132.602 72.5749 132.593 72.5792 132.585 72.5816C132.576 72.584 132.566 72.5844 132.557 72.5828L124.592 72.6014Z" fill="#71D3CA"/>
<path d="M124.484 71.3505C124.468 71.35 124.452 71.3432 124.44 71.3315C124.429 71.3197 124.422 71.3039 124.421 71.2873C124.422 71.2709 124.429 71.2553 124.44 71.2439C124.452 71.2325 124.468 71.2261 124.484 71.2261L132.552 71.2075C132.566 71.2101 132.58 71.2177 132.589 71.2291C132.599 71.2404 132.604 71.2548 132.604 71.2697C132.604 71.2846 132.599 71.299 132.589 71.3104C132.58 71.3217 132.566 71.3294 132.552 71.3319L124.484 71.3505Z" fill="#71D3CA"/>
<path d="M124.393 70.095C124.384 70.0966 124.375 70.0962 124.366 70.0938C124.357 70.0914 124.349 70.0871 124.342 70.0811C124.335 70.0752 124.329 70.0678 124.325 70.0595C124.322 70.0511 124.32 70.0421 124.32 70.0329C124.32 70.0237 124.322 70.0146 124.325 70.0062C124.329 69.9979 124.335 69.9905 124.342 69.9846C124.349 69.9786 124.357 69.9743 124.366 69.9719C124.375 69.9695 124.384 69.9691 124.393 69.9707L132.411 69.9521C132.42 69.9505 132.429 69.951 132.438 69.9534C132.447 69.9558 132.455 69.9601 132.462 69.966C132.469 69.9719 132.475 69.9793 132.479 69.9877C132.483 69.996 132.485 70.0051 132.485 70.0143C132.485 70.0235 132.483 70.0326 132.479 70.0409C132.475 70.0493 132.469 70.0567 132.462 70.0626C132.455 70.0685 132.447 70.0728 132.438 70.0752C132.429 70.0776 132.42 70.0781 132.411 70.0765L124.393 70.095Z" fill="#71D3CA"/>
<path d="M124.271 68.8475C124.255 68.8471 124.239 68.8406 124.227 68.8292C124.216 68.8179 124.209 68.8025 124.208 68.7863C124.208 68.7695 124.214 68.7535 124.226 68.7416C124.238 68.7298 124.254 68.7232 124.271 68.7232L132.282 68.7046C132.299 68.7046 132.315 68.711 132.327 68.7224C132.338 68.7339 132.345 68.7494 132.346 68.7659C132.346 68.7826 132.339 68.7986 132.327 68.8105C132.315 68.8223 132.299 68.829 132.282 68.829L124.271 68.8475Z" fill="#71D3CA"/>
<path d="M124.195 67.5965C124.178 67.596 124.163 67.5892 124.151 67.5774C124.14 67.5656 124.133 67.5498 124.133 67.5334C124.133 67.5171 124.14 67.5016 124.151 67.4901C124.163 67.4786 124.178 67.4721 124.195 67.4721L132.182 67.4536C132.191 67.452 132.201 67.4524 132.209 67.4548C132.218 67.4572 132.227 67.4615 132.234 67.4675C132.241 67.4734 132.246 67.4808 132.25 67.4891C132.254 67.4975 132.256 67.5066 132.256 67.5158C132.256 67.525 132.254 67.534 132.25 67.5424C132.246 67.5507 132.241 67.5581 132.234 67.564C132.227 67.57 132.218 67.5743 132.209 67.5767C132.201 67.5791 132.191 67.5795 132.182 67.5779L124.195 67.5965Z" fill="#71D3CA"/>
<g opacity="0.3">
<path opacity="0.3" d="M131.697 66.5677C131.928 66.6902 132.128 69.3411 132.034 69.4451C131.939 69.5491 131.454 67.4494 131.168 67.158C130.882 66.8665 129.169 66.9297 128.939 66.8127C128.708 66.6957 128.708 66.5547 128.708 66.5547C128.708 66.5547 131.467 66.4433 131.697 66.5677Z" fill="white"/>
</g>
<g opacity="0.3">
<path opacity="0.3" d="M125.292 73.5961C125.06 73.4791 124.791 70.8412 124.884 70.7353C124.977 70.6295 125.515 72.7106 125.813 72.9946C126.11 73.2786 127.821 73.1802 128.042 73.2823C128.263 73.3844 128.279 73.5348 128.279 73.5348C128.279 73.5348 125.527 73.713 125.292 73.5961Z" fill="white"/>
</g>
<path d="M115.574 74.2071L124.018 73.9694L123.208 66.1094L114.877 66.1279L115.574 74.2071Z" fill="#34726C"/>
<path d="M115.741 74.0324L123.819 73.804L123.045 66.2837L115.074 66.3004L115.741 74.0324Z" fill="#5FBAB2"/>
<path d="M122.647 73.9031C122.632 73.9032 122.617 73.8976 122.605 73.8873C122.594 73.877 122.586 73.8628 122.584 73.8474L121.73 66.2936C121.728 66.2772 121.733 66.2607 121.744 66.2479C121.754 66.235 121.769 66.2268 121.785 66.2249C121.802 66.2233 121.818 66.2279 121.831 66.2379C121.845 66.2479 121.853 66.2625 121.856 66.2788L122.711 73.8325C122.712 73.8492 122.707 73.8658 122.697 73.879C122.686 73.8921 122.671 73.9007 122.655 73.9031H122.647Z" fill="#71D3CA"/>
<path d="M121.301 73.9566C121.285 73.9567 121.27 73.9511 121.258 73.9408C121.247 73.9305 121.239 73.9163 121.237 73.9009L120.377 66.2896C120.376 66.2813 120.377 66.2729 120.379 66.2648C120.382 66.2567 120.385 66.2492 120.391 66.2427C120.396 66.2361 120.402 66.2306 120.409 66.2266C120.417 66.2225 120.425 66.22 120.433 66.219C120.45 66.2175 120.466 66.2224 120.479 66.2328C120.492 66.2433 120.5 66.2583 120.502 66.2747L121.362 73.886C121.364 73.9022 121.359 73.9184 121.349 73.9312C121.339 73.944 121.324 73.9524 121.308 73.9547L121.301 73.9566Z" fill="#71D3CA"/>
<path d="M119.95 73.9825C119.935 73.9827 119.92 73.977 119.908 73.9668C119.896 73.9565 119.889 73.9423 119.887 73.9268L119.025 66.2988C119.026 66.2836 119.032 66.2691 119.042 66.2579C119.052 66.2467 119.066 66.2397 119.082 66.2381C119.097 66.2366 119.112 66.2405 119.125 66.2493C119.137 66.2581 119.146 66.271 119.15 66.2859L120.013 73.912C120.015 73.9287 120.01 73.9453 120 73.9585C119.989 73.9716 119.974 73.9802 119.958 73.9825H119.95Z" fill="#71D3CA"/>
<path d="M118.598 73.9936C118.582 73.9937 118.567 73.9881 118.556 73.9778C118.544 73.9676 118.537 73.9533 118.535 73.9379L117.673 66.3099C117.672 66.3019 117.672 66.2937 117.674 66.2859C117.677 66.278 117.68 66.2707 117.685 66.2643C117.69 66.2579 117.697 66.2526 117.704 66.2486C117.711 66.2447 117.719 66.2422 117.727 66.2412C117.743 66.2391 117.76 66.2436 117.773 66.2537C117.786 66.2637 117.795 66.2786 117.797 66.2951L118.659 73.9231C118.66 73.9313 118.66 73.9396 118.657 73.9475C118.655 73.9555 118.651 73.9629 118.646 73.9693C118.641 73.9757 118.634 73.981 118.627 73.9849C118.62 73.9887 118.612 73.9911 118.603 73.9918L118.598 73.9936Z" fill="#71D3CA"/>
<path d="M117.251 74.0533C117.236 74.0534 117.221 74.0477 117.21 74.0374C117.198 74.0271 117.191 74.0129 117.19 73.9976L116.317 66.2842C116.316 66.2759 116.316 66.2675 116.319 66.2594C116.321 66.2514 116.325 66.2439 116.33 66.2373C116.335 66.2307 116.341 66.2253 116.349 66.2212C116.356 66.2171 116.364 66.2146 116.373 66.2137C116.389 66.2121 116.405 66.2171 116.418 66.2275C116.431 66.2379 116.439 66.2529 116.441 66.2694L117.314 73.9828C117.315 73.9911 117.315 73.9995 117.312 74.0075C117.31 74.0156 117.306 74.0231 117.301 74.0297C117.296 74.0362 117.29 74.0417 117.282 74.0458C117.275 74.0498 117.267 74.0524 117.259 74.0533H117.251Z" fill="#71D3CA"/>
<path d="M115.613 72.6014C115.598 72.5989 115.585 72.5912 115.575 72.5798C115.566 72.5685 115.56 72.5541 115.56 72.5392C115.56 72.5243 115.566 72.5099 115.575 72.4986C115.585 72.4872 115.598 72.4796 115.613 72.477L123.578 72.4584C123.587 72.4569 123.596 72.4573 123.605 72.4597C123.614 72.4621 123.622 72.4664 123.629 72.4723C123.636 72.4783 123.642 72.4857 123.646 72.494C123.65 72.5023 123.652 72.5114 123.652 72.5206C123.652 72.5298 123.65 72.5389 123.646 72.5473C123.642 72.5556 123.636 72.563 123.629 72.5689C123.622 72.5749 123.614 72.5792 123.605 72.5816C123.596 72.584 123.587 72.5844 123.578 72.5828L115.613 72.6014Z" fill="#71D3CA"/>
<path d="M115.505 71.3499C115.497 71.3499 115.489 71.3483 115.481 71.3451C115.473 71.342 115.466 71.3373 115.46 71.3314C115.455 71.3256 115.45 71.3186 115.447 71.311C115.444 71.3033 115.442 71.2951 115.442 71.2868C115.442 71.2706 115.448 71.255 115.46 71.2435C115.471 71.232 115.487 71.2255 115.503 71.2255L123.571 71.207C123.58 71.2054 123.589 71.2058 123.598 71.2082C123.607 71.2106 123.615 71.215 123.622 71.2209C123.629 71.2268 123.635 71.2342 123.639 71.2425C123.642 71.2509 123.644 71.26 123.644 71.2692C123.644 71.2784 123.642 71.2875 123.639 71.2958C123.635 71.3042 123.629 71.3115 123.622 71.3175C123.615 71.3234 123.607 71.3277 123.598 71.3301C123.589 71.3325 123.58 71.3329 123.571 71.3314L115.505 71.3499Z" fill="#71D3CA"/>
<path d="M115.412 70.0956C115.404 70.0956 115.396 70.0939 115.388 70.0908C115.38 70.0876 115.373 70.083 115.367 70.0771C115.362 70.0712 115.357 70.0643 115.354 70.0566C115.351 70.049 115.349 70.0408 115.349 70.0325C115.349 70.016 115.356 70.0005 115.368 69.989C115.38 69.9776 115.396 69.9712 115.412 69.9712L123.429 69.9526C123.444 69.9552 123.457 69.9628 123.467 69.9742C123.476 69.9856 123.482 70 123.482 70.0148C123.482 70.0297 123.476 70.0441 123.467 70.0555C123.457 70.0668 123.444 70.0745 123.429 70.077L115.41 70.0956H115.412Z" fill="#71D3CA"/>
<path d="M115.289 68.848C115.275 68.8454 115.262 68.8378 115.252 68.8264C115.242 68.815 115.237 68.8007 115.237 68.7858C115.237 68.7709 115.242 68.7565 115.252 68.7451C115.262 68.7338 115.275 68.7261 115.289 68.7236L123.301 68.705C123.31 68.7035 123.32 68.7039 123.328 68.7063C123.337 68.7087 123.346 68.713 123.353 68.7189C123.36 68.7249 123.365 68.7322 123.369 68.7406C123.373 68.7489 123.375 68.758 123.375 68.7672C123.375 68.7764 123.373 68.7855 123.369 68.7939C123.365 68.8022 123.36 68.8096 123.353 68.8155C123.346 68.8214 123.337 68.8257 123.328 68.8281C123.32 68.8306 123.31 68.831 123.301 68.8294L115.289 68.848Z" fill="#71D3CA"/>
<path d="M115.215 67.5965C115.207 67.5965 115.199 67.5949 115.191 67.5917C115.183 67.5885 115.176 67.5839 115.171 67.578C115.165 67.5722 115.16 67.5652 115.157 67.5575C115.154 67.5499 115.152 67.5417 115.152 67.5334C115.152 67.5171 115.158 67.5016 115.17 67.4901C115.181 67.4786 115.197 67.4721 115.213 67.4721L123.201 67.4536C123.21 67.452 123.219 67.4524 123.228 67.4548C123.237 67.4572 123.245 67.4615 123.252 67.4675C123.259 67.4734 123.265 67.4808 123.269 67.4891C123.273 67.4975 123.275 67.5066 123.275 67.5158C123.275 67.525 123.273 67.534 123.269 67.5424C123.265 67.5507 123.259 67.5581 123.252 67.564C123.245 67.57 123.237 67.5743 123.228 67.5767C123.219 67.5791 123.21 67.5795 123.201 67.5779L115.213 67.5965H115.215Z" fill="#71D3CA"/>
<g opacity="0.3">
<path opacity="0.3" d="M122.716 66.5677C122.946 66.6902 123.147 69.3411 123.052 69.4451C122.958 69.5491 122.473 67.4494 122.187 67.158C121.901 66.8665 120.19 66.9297 119.958 66.8127C119.725 66.6957 119.727 66.5547 119.727 66.5547C119.727 66.5547 122.486 66.4433 122.716 66.5677Z" fill="white"/>
</g>
<g opacity="0.3">
<path opacity="0.3" d="M116.313 73.5961C116.079 73.4791 115.812 70.8412 115.903 70.7353C115.994 70.6295 116.534 72.7106 116.831 72.9946C117.129 73.2786 118.839 73.1802 119.06 73.2823C119.281 73.3844 119.296 73.5348 119.296 73.5348C119.296 73.5348 116.542 73.713 116.313 73.5961Z" fill="white"/>
</g>
<path d="M106.594 74.2071L115.037 73.9694L114.227 66.1094L105.896 66.1279L106.594 74.2071Z" fill="#34726C"/>
<path d="M106.76 74.0324L114.84 73.804L114.065 66.2837L106.093 66.3004L106.76 74.0324Z" fill="#5FBAB2"/>
<path d="M113.666 73.9031C113.651 73.9031 113.636 73.8974 113.625 73.8871C113.613 73.8768 113.606 73.8626 113.605 73.8474L112.75 66.2936C112.749 66.2856 112.75 66.2774 112.752 66.2696C112.754 66.2617 112.758 66.2544 112.763 66.248C112.768 66.2416 112.774 66.2363 112.781 66.2323C112.788 66.2284 112.796 66.2259 112.804 66.2249C112.821 66.2233 112.837 66.2279 112.85 66.2379C112.863 66.2479 112.872 66.2625 112.875 66.2788L113.729 73.8325C113.73 73.8408 113.73 73.8492 113.727 73.8573C113.725 73.8653 113.721 73.8729 113.716 73.8794C113.711 73.886 113.704 73.8915 113.697 73.8955C113.69 73.8996 113.682 73.9021 113.673 73.9031H113.666Z" fill="#71D3CA"/>
<path d="M112.319 73.9567C112.304 73.9568 112.289 73.9512 112.277 73.9409C112.265 73.9307 112.258 73.9164 112.256 73.901L111.396 66.2897C111.394 66.273 111.399 66.2562 111.409 66.2429C111.42 66.2297 111.435 66.2212 111.452 66.2192C111.469 66.2172 111.485 66.222 111.499 66.2324C111.512 66.2429 111.52 66.2581 111.522 66.2749L112.382 73.8862C112.384 73.9026 112.379 73.9191 112.369 73.9319C112.358 73.9447 112.343 73.953 112.327 73.9549L112.319 73.9567Z" fill="#71D3CA"/>
<path d="M110.969 73.9831C110.953 73.9831 110.939 73.9774 110.927 73.9671C110.916 73.9568 110.909 73.9426 110.908 73.9274L110.04 66.2994C110.038 66.2906 110.038 66.2815 110.039 66.2726C110.041 66.2638 110.045 66.2554 110.05 66.248C110.055 66.2406 110.062 66.2344 110.069 66.2299C110.077 66.2253 110.086 66.2225 110.095 66.2215C110.104 66.2206 110.113 66.2216 110.121 66.2245C110.13 66.2273 110.138 66.232 110.144 66.2381C110.151 66.2443 110.156 66.2517 110.16 66.2601C110.163 66.2684 110.165 66.2774 110.164 66.2864L111.028 73.9125C111.029 73.9208 111.029 73.9292 111.026 73.9373C111.024 73.9453 111.02 73.9529 111.015 73.9594C111.01 73.966 111.004 73.9715 110.996 73.9755C110.989 73.9796 110.981 73.9821 110.973 73.9831H110.969Z" fill="#71D3CA"/>
<path d="M109.617 73.9935C109.601 73.9936 109.586 73.988 109.574 73.9778C109.563 73.9675 109.555 73.9533 109.553 73.9378L108.692 66.3098C108.692 66.2945 108.697 66.2796 108.708 66.2682C108.718 66.2567 108.732 66.2493 108.747 66.2475C108.762 66.2457 108.778 66.2495 108.791 66.2583C108.803 66.267 108.812 66.2801 108.816 66.295L109.68 73.923C109.681 73.9395 109.676 73.9559 109.666 73.9687C109.656 73.9816 109.64 73.9898 109.624 73.9917L109.617 73.9935Z" fill="#71D3CA"/>
<path d="M108.272 74.0533C108.256 74.0534 108.241 74.0478 108.229 74.0375C108.218 74.0272 108.21 74.013 108.208 73.9976L107.335 66.2842C107.334 66.2676 107.339 66.2509 107.349 66.2378C107.36 66.2246 107.375 66.216 107.391 66.2137C107.408 66.2121 107.424 66.217 107.438 66.2274C107.451 66.2377 107.459 66.2528 107.462 66.2694L108.333 73.9828C108.334 73.9911 108.333 73.9995 108.331 74.0075C108.329 74.0156 108.325 74.0231 108.32 74.0297C108.315 74.0362 108.308 74.0417 108.301 74.0458C108.294 74.0498 108.286 74.0524 108.277 74.0533H108.272Z" fill="#71D3CA"/>
<path d="M106.632 72.601C106.622 72.6025 106.613 72.6021 106.604 72.5997C106.595 72.5973 106.587 72.593 106.58 72.5871C106.573 72.5811 106.567 72.5737 106.563 72.5654C106.56 72.5571 106.558 72.548 106.558 72.5388C106.558 72.5296 106.56 72.5205 106.563 72.5121C106.567 72.5038 106.573 72.4964 106.58 72.4905C106.587 72.4845 106.595 72.4802 106.604 72.4778C106.613 72.4754 106.622 72.475 106.632 72.4766L114.595 72.458C114.61 72.4605 114.623 72.4682 114.632 72.4796C114.642 72.4909 114.647 72.5053 114.647 72.5202C114.647 72.5351 114.642 72.5495 114.632 72.5608C114.623 72.5722 114.61 72.5798 114.595 72.5824L106.63 72.601H106.632Z" fill="#71D3CA"/>
<path d="M106.524 71.3499C106.515 71.3515 106.505 71.3511 106.497 71.3487C106.488 71.3463 106.479 71.342 106.472 71.336C106.465 71.3301 106.46 71.3227 106.456 71.3144C106.452 71.306 106.45 71.2969 106.45 71.2877C106.45 71.2785 106.452 71.2694 106.456 71.2611C106.46 71.2528 106.465 71.2454 106.472 71.2394C106.479 71.2335 106.488 71.2292 106.497 71.2268C106.505 71.2244 106.515 71.224 106.524 71.2255L114.589 71.207C114.598 71.2054 114.608 71.2058 114.617 71.2082C114.625 71.2106 114.634 71.215 114.641 71.2209C114.648 71.2268 114.653 71.2342 114.657 71.2425C114.661 71.2509 114.663 71.26 114.663 71.2692C114.663 71.2784 114.661 71.2875 114.657 71.2958C114.653 71.3042 114.648 71.3115 114.641 71.3175C114.634 71.3234 114.625 71.3277 114.617 71.3301C114.608 71.3325 114.598 71.3329 114.589 71.3314L106.524 71.3499Z" fill="#71D3CA"/>
<path d="M106.431 70.0956C106.416 70.093 106.403 70.0854 106.393 70.074C106.384 70.0627 106.379 70.0483 106.379 70.0334C106.379 70.0185 106.384 70.0041 106.393 69.9927C106.403 69.9814 106.416 69.9737 106.431 69.9712L114.45 69.9526C114.466 69.9531 114.482 69.9596 114.493 69.971C114.505 69.9823 114.512 69.9976 114.513 70.0139C114.513 70.0306 114.506 70.0467 114.495 70.0585C114.483 70.0704 114.467 70.077 114.45 70.077L106.431 70.0956Z" fill="#71D3CA"/>
<path d="M106.31 68.848C106.301 68.8495 106.292 68.8491 106.283 68.8467C106.274 68.8443 106.266 68.84 106.259 68.8341C106.252 68.8282 106.246 68.8208 106.242 68.8124C106.238 68.8041 106.236 68.795 106.236 68.7858C106.236 68.7766 106.238 68.7675 106.242 68.7591C106.246 68.7508 106.252 68.7434 106.259 68.7375C106.266 68.7316 106.274 68.7273 106.283 68.7249C106.292 68.7225 106.301 68.722 106.31 68.7236L114.32 68.705C114.329 68.7035 114.338 68.7039 114.347 68.7063C114.356 68.7087 114.364 68.713 114.371 68.7189C114.378 68.7249 114.384 68.7322 114.388 68.7406C114.392 68.7489 114.394 68.758 114.394 68.7672C114.394 68.7764 114.392 68.7855 114.388 68.7939C114.384 68.8022 114.378 68.8096 114.371 68.8155C114.364 68.8214 114.356 68.8257 114.347 68.8282C114.338 68.8306 114.329 68.831 114.32 68.8294L106.308 68.848H106.31Z" fill="#71D3CA"/>
<path d="M106.234 67.5966C106.225 67.5981 106.216 67.5977 106.207 67.5953C106.198 67.5929 106.19 67.5886 106.183 67.5827C106.176 67.5767 106.17 67.5693 106.166 67.561C106.162 67.5527 106.16 67.5436 106.16 67.5344C106.16 67.5252 106.162 67.5161 106.166 67.5077C106.17 67.4994 106.176 67.492 106.183 67.4861C106.19 67.4801 106.198 67.4758 106.207 67.4734C106.216 67.471 106.225 67.4706 106.234 67.4722L114.222 67.4536C114.238 67.4541 114.253 67.4606 114.265 67.4719C114.277 67.4833 114.284 67.4986 114.285 67.5149C114.285 67.5316 114.278 67.5477 114.266 67.5595C114.254 67.5713 114.238 67.578 114.222 67.578L106.234 67.5966Z" fill="#71D3CA"/>
<g opacity="0.3">
<path opacity="0.3" d="M113.737 66.5677C113.965 66.6902 114.166 69.3411 114.073 69.4451C113.98 69.5491 113.493 67.4494 113.207 67.158C112.921 66.8665 111.208 66.9297 110.978 66.8127C110.748 66.6957 110.748 66.5547 110.748 66.5547C110.748 66.5547 113.506 66.4433 113.737 66.5677Z" fill="white"/>
</g>
<g opacity="0.3">
<path opacity="0.3" d="M107.332 73.5961C107.098 73.4791 106.83 70.8412 106.921 70.7353C107.012 70.6295 107.553 72.7106 107.85 72.9946C108.147 73.2786 109.858 73.1802 110.079 73.2823C110.3 73.3844 110.317 73.5348 110.317 73.5348C110.317 73.5348 107.566 73.713 107.332 73.5961Z" fill="white"/>
</g>
<path d="M97.6131 74.2071L106.056 73.9694L105.248 66.1094L96.9165 66.1279L97.6131 74.2071Z" fill="#34726C"/>
<path d="M97.7803 74.0324L105.859 73.804L105.084 66.2837L97.1116 66.3004L97.7803 74.0324Z" fill="#5FBAB2"/>
<path d="M104.685 73.903C104.669 73.9031 104.655 73.8974 104.643 73.8871C104.632 73.8768 104.625 73.8626 104.624 73.8474L103.769 66.2936C103.768 66.2854 103.769 66.2771 103.771 66.2691C103.773 66.2612 103.777 66.2538 103.782 66.2474C103.787 66.241 103.794 66.2357 103.801 66.2318C103.809 66.2279 103.817 66.2256 103.825 66.2249C103.841 66.2233 103.857 66.228 103.87 66.238C103.883 66.2481 103.891 66.2627 103.893 66.2788L104.748 73.8325C104.749 73.8408 104.748 73.8492 104.746 73.8573C104.744 73.8653 104.74 73.8729 104.735 73.8794C104.73 73.886 104.723 73.8915 104.716 73.8955C104.709 73.8996 104.701 73.9021 104.692 73.903H104.685Z" fill="#71D3CA"/>
<path d="M103.338 73.9562C103.323 73.9563 103.308 73.9506 103.297 73.9403C103.285 73.93 103.278 73.9158 103.277 73.9005L102.417 66.2892C102.415 66.2806 102.414 66.2715 102.416 66.2627C102.418 66.2539 102.421 66.2455 102.426 66.2382C102.431 66.2308 102.438 66.2246 102.445 66.22C102.453 66.2154 102.462 66.2124 102.471 66.2114C102.479 66.2103 102.488 66.2112 102.497 66.2138C102.506 66.2165 102.513 66.221 102.52 66.227C102.527 66.2329 102.532 66.2402 102.536 66.2484C102.539 66.2566 102.541 66.2654 102.541 66.2744L103.401 73.8857C103.403 73.9022 103.398 73.9186 103.387 73.9314C103.377 73.9443 103.362 73.9525 103.346 73.9544L103.338 73.9562Z" fill="#71D3CA"/>
<path d="M101.988 73.9827C101.972 73.9827 101.958 73.977 101.946 73.9667C101.935 73.9564 101.928 73.9422 101.926 73.927L101.063 66.299C101.061 66.2822 101.066 66.2655 101.076 66.2524C101.087 66.2394 101.102 66.2311 101.119 66.2293C101.136 66.2276 101.153 66.2326 101.166 66.2432C101.179 66.2538 101.187 66.2692 101.189 66.286L102.053 73.9121C102.054 73.9204 102.053 73.9288 102.051 73.9369C102.049 73.9449 102.045 73.9525 102.04 73.959C102.034 73.9656 102.028 73.9711 102.021 73.9751C102.013 73.9792 102.005 73.9817 101.997 73.9827H101.988Z" fill="#71D3CA"/>
<path d="M100.635 73.9936C100.62 73.9937 100.605 73.988 100.594 73.9777C100.582 73.9674 100.575 73.9532 100.574 73.9379L99.7102 66.3099C99.7086 66.2934 99.7136 66.277 99.724 66.2642C99.7344 66.2513 99.7495 66.2431 99.7659 66.2412C99.774 66.2402 99.7822 66.2408 99.79 66.2429C99.7978 66.2451 99.8052 66.2488 99.8115 66.2538C99.8179 66.2588 99.8233 66.265 99.8272 66.2721C99.8312 66.2792 99.8337 66.287 99.8346 66.2951L100.698 73.9231C100.699 73.9313 100.699 73.9396 100.697 73.9475C100.694 73.9555 100.69 73.9629 100.685 73.9693C100.68 73.9757 100.674 73.981 100.666 73.9849C100.659 73.9887 100.651 73.9911 100.643 73.9917L100.635 73.9936Z" fill="#71D3CA"/>
<path d="M99.2905 74.0533C99.275 74.0534 99.26 74.0478 99.2483 74.0375C99.2366 74.0272 99.2292 74.013 99.2274 73.9976L98.3562 66.2842C98.3549 66.276 98.3552 66.2676 98.3573 66.2596C98.3593 66.2516 98.3629 66.244 98.368 66.2374C98.373 66.2308 98.3793 66.2253 98.3866 66.2212C98.3938 66.2171 98.4018 66.2146 98.41 66.2137C98.4267 66.2121 98.4434 66.217 98.4565 66.2274C98.4697 66.2377 98.4783 66.2528 98.4806 66.2694L99.3537 73.9828C99.3553 73.9994 99.3504 74.0161 99.34 74.0292C99.3296 74.0424 99.3146 74.051 99.298 74.0533H99.2905Z" fill="#71D3CA"/>
<path d="M97.6502 72.601C97.6411 72.6025 97.6318 72.6021 97.6229 72.5997C97.614 72.5973 97.6058 72.593 97.5987 72.5871C97.5917 72.5811 97.586 72.5737 97.5821 72.5654C97.5782 72.5571 97.5762 72.548 97.5762 72.5388C97.5762 72.5296 97.5782 72.5205 97.5821 72.5121C97.586 72.5038 97.5917 72.4964 97.5987 72.4905C97.6058 72.4845 97.614 72.4802 97.6229 72.4778C97.6318 72.4754 97.6411 72.475 97.6502 72.4766L105.615 72.458C105.632 72.4584 105.647 72.465 105.659 72.4763C105.671 72.4877 105.678 72.503 105.679 72.5193C105.679 72.536 105.672 72.5521 105.66 72.5639C105.648 72.5757 105.632 72.5824 105.615 72.5824L97.6502 72.601Z" fill="#71D3CA"/>
<path d="M97.5424 71.3505C97.5333 71.352 97.524 71.3516 97.5151 71.3492C97.5062 71.3468 97.498 71.3425 97.4909 71.3366C97.4839 71.3306 97.4782 71.3233 97.4743 71.3149C97.4705 71.3066 97.4684 71.2975 97.4684 71.2883C97.4684 71.2791 97.4705 71.27 97.4743 71.2616C97.4782 71.2533 97.4839 71.2459 97.4909 71.24C97.498 71.2341 97.5062 71.2297 97.5151 71.2273C97.524 71.2249 97.5333 71.2245 97.5424 71.2261L105.608 71.2075C105.623 71.2101 105.636 71.2177 105.645 71.2291C105.655 71.2404 105.66 71.2548 105.66 71.2697C105.66 71.2846 105.655 71.299 105.645 71.3104C105.636 71.3217 105.623 71.3294 105.608 71.3319L97.5405 71.3505H97.5424Z" fill="#71D3CA"/>
<path d="M97.4515 70.095C97.4424 70.0966 97.4331 70.0962 97.4242 70.0938C97.4154 70.0914 97.4071 70.0871 97.4001 70.0811C97.393 70.0752 97.3873 70.0678 97.3835 70.0595C97.3796 70.0511 97.3776 70.0421 97.3776 70.0329C97.3776 70.0237 97.3796 70.0146 97.3835 70.0062C97.3873 69.9979 97.393 69.9905 97.4001 69.9846C97.4071 69.9786 97.4154 69.9743 97.4242 69.9719C97.4331 69.9695 97.4424 69.9691 97.4515 69.9707L105.469 69.9521C105.478 69.9505 105.487 69.951 105.496 69.9534C105.505 69.9558 105.513 69.9601 105.52 69.966C105.527 69.9719 105.533 69.9793 105.537 69.9877C105.541 69.996 105.543 70.0051 105.543 70.0143C105.543 70.0235 105.541 70.0326 105.537 70.0409C105.533 70.0493 105.527 70.0567 105.52 70.0626C105.513 70.0685 105.505 70.0728 105.496 70.0752C105.487 70.0776 105.478 70.0781 105.469 70.0765L97.4515 70.095Z" fill="#71D3CA"/>
<path d="M97.3289 68.8475C97.3198 68.8491 97.3105 68.8487 97.3016 68.8463C97.2927 68.8439 97.2845 68.8396 97.2774 68.8336C97.2704 68.8277 97.2647 68.8203 97.2608 68.812C97.257 68.8036 97.2549 68.7945 97.2549 68.7853C97.2549 68.7761 97.257 68.7671 97.2608 68.7587C97.2647 68.7504 97.2704 68.743 97.2774 68.737C97.2845 68.7311 97.2927 68.7268 97.3016 68.7244C97.3105 68.722 97.3198 68.7216 97.3289 68.7232L105.341 68.7046C105.357 68.7046 105.372 68.711 105.384 68.7225C105.395 68.734 105.402 68.7496 105.402 68.7658C105.402 68.774 105.401 68.7822 105.398 68.7899C105.395 68.7975 105.39 68.8045 105.385 68.8104C105.379 68.8163 105.372 68.8209 105.364 68.8241C105.357 68.8273 105.349 68.829 105.341 68.829L97.3289 68.8475Z" fill="#71D3CA"/>
<path d="M97.2527 67.5965C97.2436 67.5981 97.2343 67.5977 97.2254 67.5953C97.2165 67.5929 97.2082 67.5885 97.2012 67.5826C97.1942 67.5767 97.1885 67.5693 97.1846 67.561C97.1807 67.5526 97.1787 67.5435 97.1787 67.5343C97.1787 67.5251 97.1807 67.516 97.1846 67.5077C97.1885 67.4993 97.1942 67.492 97.2012 67.486C97.2082 67.4801 97.2165 67.4758 97.2254 67.4734C97.2343 67.471 97.2436 67.4706 97.2527 67.4721L105.24 67.4536C105.249 67.452 105.259 67.4524 105.267 67.4548C105.276 67.4572 105.285 67.4615 105.292 67.4675C105.299 67.4734 105.304 67.4808 105.308 67.4891C105.312 67.4975 105.314 67.5066 105.314 67.5158C105.314 67.525 105.312 67.534 105.308 67.5424C105.304 67.5507 105.299 67.5581 105.292 67.564C105.285 67.57 105.276 67.5743 105.267 67.5767C105.259 67.5791 105.249 67.5795 105.24 67.5779L97.2527 67.5965Z" fill="#71D3CA"/>
<g opacity="0.3">
<path opacity="0.3" d="M104.755 66.5677C104.986 66.6902 105.186 69.3411 105.091 69.4451C104.997 69.5491 104.512 67.4494 104.226 67.158C103.94 66.8665 102.227 66.9297 101.997 66.8127C101.766 66.6957 101.766 66.5547 101.766 66.5547C101.766 66.5547 104.525 66.4433 104.755 66.5677Z" fill="white"/>
</g>
<g opacity="0.3">
<path opacity="0.3" d="M98.3506 73.5961C98.1184 73.4791 97.849 70.8412 97.9419 70.7353C98.0348 70.6295 98.5735 72.7106 98.8707 72.9946C99.1679 73.2786 100.879 73.1802 101.1 73.2823C101.321 73.3844 101.338 73.5348 101.338 73.5348C101.338 73.5348 98.5846 73.713 98.3506 73.5961Z" fill="white"/>
</g>
<path d="M132.801 73.8042H97.4515V75.3822H132.801V73.8042Z" fill="#34726C"/>
<path d="M135.502 89.0806H158.81V88.6127H135.502V89.0806Z" fill="#459991"/>
<path d="M135.502 90.6587H158.81V90.1909H135.502V90.6587Z" fill="#459991"/>
<path d="M135.502 92.2344H158.81V91.7666H135.502V92.2344Z" fill="#459991"/>
<path d="M135.502 93.8091H158.81V93.3413H135.502V93.8091Z" fill="#459991"/>
<path d="M135.502 95.3848H158.81V94.9169H135.502V95.3848Z" fill="#459991"/>
<path d="M135.502 96.9614H158.81V96.4936H135.502V96.9614Z" fill="#459991"/>
<path d="M135.502 98.5376H158.81V98.0698H135.502V98.5376Z" fill="#459991"/>
<path d="M135.502 100.114H158.81V99.6459H135.502V100.114Z" fill="#459991"/>
<path d="M135.502 101.689H158.81V101.222H135.502V101.689Z" fill="#459991"/>
<path d="M135.502 103.264H158.81V102.796H135.502V103.264Z" fill="#459991"/>
<path d="M163.84 174.272C165.893 174.116 167.872 173.437 169.588 172.3C171.305 171.162 172.701 169.604 173.644 167.774C174.923 165.266 175.835 162.095 175.08 158.709C173.553 151.849 172.347 149.466 173.303 144.141C174.08 139.808 173.414 135.309 170.53 130.902C168.36 127.591 168.225 123.26 169.333 119.463C170.894 114.109 167.202 104.023 158.985 111.953C153.892 116.869 153.682 124.598 154.991 130.865C155.822 134.864 155.658 144.642 153.671 149.36C150.678 156.467 150.836 163.112 153.606 170.16C155.145 174.065 159.904 174.586 163.84 174.272Z" fill="#3C857E"/>
<path opacity="0.1" d="M162.225 174.372L162.067 174.322C162.104 174.208 165.758 162.867 164.453 155.224C163.807 151.428 164.008 147.427 164.204 143.558C164.326 141.168 164.44 138.913 164.337 136.894C164.242 135.018 163.63 132.182 163.04 129.445C162.478 126.829 161.947 124.363 161.849 122.732C161.491 116.756 166.11 109.409 166.157 109.334L166.297 109.425C166.252 109.497 161.662 116.8 162.015 122.722C162.112 124.336 162.643 126.801 163.203 129.409C163.794 132.153 164.407 134.991 164.504 136.886C164.607 138.916 164.493 141.177 164.375 143.57C164.179 147.429 163.977 151.426 164.621 155.2C165.928 162.881 162.262 174.258 162.225 174.372Z" fill="white"/>
<path opacity="0.1" d="M162.049 124.363L162.015 124.199C166.132 123.103 169.049 120.195 169.079 120.166L169.197 120.284C169.159 120.314 166.211 123.255 162.049 124.363Z" fill="white"/>
<path opacity="0.1" d="M162.03 120.611C159.783 119.194 157.908 117.261 156.56 114.973L156.709 114.894C158.04 117.159 159.895 119.07 162.119 120.469L162.03 120.611Z" fill="white"/>
<path opacity="0.1" d="M163.609 132.235C159.02 130.695 154.396 126.912 154.348 126.874L154.456 126.746C154.502 126.784 159.103 130.547 163.663 132.076L163.609 132.235Z" fill="white"/>
<path opacity="0.1" d="M164.442 136.967L164.397 136.806C168.502 135.637 171.242 132.222 171.269 132.187L171.401 132.291C171.374 132.325 168.608 135.781 164.442 136.967Z" fill="white"/>
<path opacity="0.1" d="M164.228 144.188C159.918 142.444 155.425 139.015 155.379 138.979L155.481 138.848C155.526 138.882 159.992 142.3 164.291 144.033L164.228 144.188Z" fill="white"/>
<path opacity="0.1" d="M167.363 151.421C166.307 151.64 165.231 151.737 164.153 151.708L164.156 151.541C169.532 151.681 172.908 148.688 172.941 148.658L173.052 148.781C173.022 148.808 170.907 150.685 167.363 151.421Z" fill="white"/>
<path opacity="0.1" d="M164.773 159.962C158.053 157.264 152.611 152.376 152.563 152.326L152.675 152.202C152.729 152.251 158.148 157.119 164.841 159.805L164.773 159.962Z" fill="white"/>
<path d="M60.0718 78.4492C60.0718 78.4492 92.1295 61.3219 98.9541 60.5088C98.9541 60.5088 103.527 59.7106 102.58 64.3238C101.477 69.6944 63.9578 86.7678 63.9578 86.7678L60.0718 78.4492Z" fill="#FFCBAD"/>
<path d="M53.8751 91.0225C53.8751 91.0225 88.2492 75.269 95.3878 74.8569C95.3878 74.8569 100.19 74.3185 98.9171 79.0487C97.4311 84.5548 57.3822 99.9092 57.3822 99.9092L53.8751 91.0225Z" fill="#FFCBAD"/>
<path d="M53.4516 103.206C53.4516 103.206 87.8684 87.4268 95.0163 87.0221C95.0163 87.0221 99.8236 86.4818 98.5456 91.2176C97.0596 96.7311 56.9587 112.106 56.9587 112.106L53.4516 103.206Z" fill="#FFCBAD"/>
<path d="M59.3492 112.284C59.3492 112.284 88.6875 98.8379 94.7821 98.4871C94.7821 98.4871 98.8799 98.0267 97.7895 102.064C97.418 103.41 93.9964 105.046 89.802 107.262C79.3774 112.793 62.3381 119.869 62.3381 119.869L59.3492 112.284Z" fill="#FFCBAD"/>
<path d="M80.6425 122.986L45.9062 90.0216V72.0943C45.5101 71.4716 44.9333 70.9844 44.2529 70.6978C43.5725 70.4113 42.8209 70.3389 42.0982 70.4903C42.0758 70.4961 42.0545 70.5055 42.0351 70.5182C41.4871 70.8542 41.4017 73.9006 41.4184 77.528C41.437 82.1839 38.3683 90.6176 37.9708 92.667C36.6705 99.3687 36.2061 107.596 39.8283 125.247C40.1422 126.773 40.3763 128.151 40.5453 129.394C40.5453 129.443 40.3038 133.928 39.0909 140.616C39.068 140.686 39.0549 140.758 39.0518 140.832C38.8995 141.663 38.5986 143.472 38.2624 145.437C38.1225 146.259 38.1636 147.102 38.3829 147.906C38.6022 148.711 38.9944 149.457 39.5322 150.095C40.07 150.732 40.7404 151.245 41.4967 151.596C42.253 151.948 43.077 152.131 43.9112 152.132H60.2577C61.7156 152.131 63.1184 151.575 64.1819 150.579C65.2453 149.582 65.8898 148.219 65.9845 146.765C66.1517 144.303 66.4489 141.608 66.969 140.132C68.7003 139.059 79.5595 131.951 80.6425 122.986Z" fill="#FFCBAD"/>
<path d="M88.1655 51.4087H48.347C47 51.4087 45.908 52.5 45.908 53.8462V120.549C45.908 121.895 47 122.986 48.347 122.986H88.1655C89.5125 122.986 90.6045 121.895 90.6045 120.549V53.8462C90.6045 52.5 89.5125 51.4087 88.1655 51.4087Z" fill="#404040"/>
<path d="M89.0739 54.3193H47.7916V120.428H89.0739V54.3193Z" fill="#10C1BC"/>
<path d="M88.8974 116.678H47.6151V120.251H88.8974V116.678Z" fill="#71D3CA"/>
<path d="M88.8974 54.1431H47.6151V57.7167H88.8974V54.1431Z" fill="#71D3CA"/>
<path d="M80.843 72.1522C80.9416 72.1485 81.0373 72.1182 81.1201 72.0644C81.2028 72.0107 81.2694 71.9356 81.3129 71.8471C81.3563 71.7585 81.3749 71.6599 81.3668 71.5616C81.3586 71.4633 81.324 71.3691 81.2665 71.2889C81.0027 70.8248 77.4511 65.5712 77.1427 65.5786C76.8344 65.586 74.8004 71.6417 74.8004 71.6417L80.843 72.1522Z" fill="#E2581D"/>
<path d="M55.9704 71.972C55.9704 71.972 55.5859 81.6124 55.9704 82.199C56.3549 82.7856 74.78 82.199 74.78 82.199C74.78 82.199 74.9435 71.8421 74.3416 71.5543C73.7398 71.2666 55.9704 71.972 55.9704 71.972Z" fill="white"/>
<path d="M74.7801 82.1996C75.4098 82.1124 79.9812 82.3852 80.6759 82.1996C81.3707 82.014 81.0865 71.7034 80.6759 71.4862C80.2654 71.269 74.3417 71.5549 74.3417 71.5549L74.7801 82.1996Z" fill="#FDE2CF"/>
<path d="M77.1298 65.9312L80.6759 71.4855L75.0977 71.6619L77.1298 65.9312Z" fill="#FDE2CF"/>
<path d="M74.7818 72.384C74.0202 72.8741 55.4373 72.5306 54.906 72.384C54.3747 72.2373 56.5555 66.7256 57.5623 66.1074C58.5691 65.4892 76.8809 65.6229 77.1409 65.5784C77.401 65.5338 75.51 71.9143 74.7818 72.384Z" fill="#E2581D"/>
<path d="M59.1747 82.4608C59.1747 82.4608 59.0447 74.9108 59.1747 74.7047C59.3048 74.4987 62.0707 74.352 62.5406 74.7047C63.0106 75.0575 63.1592 82.4497 63.1592 82.4497L59.1747 82.4608Z" fill="#E2581D"/>
<path d="M66.1331 74.4452C65.8637 74.5417 66.0365 78.585 66.3058 78.6945C66.5752 78.804 71.6835 78.8226 71.8952 78.7836C72.107 78.7446 71.9528 74.3876 71.7095 74.3486C71.4661 74.3097 67.0916 74.1036 66.1331 74.4452Z" fill="#10C1BC"/>
<path d="M67.9503 74.2612L67.7739 74.2681L67.95 78.8073L68.1263 78.8005L67.9503 74.2612Z" fill="white"/>
<path d="M70.2394 74.2524L70.0631 74.2593L70.24 78.7985L70.4163 78.7916L70.2394 74.2524Z" fill="white"/>
<path d="M71.9712 76.4571L65.9982 76.5645L66.0014 76.7408L71.9743 76.6335L71.9712 76.4571Z" fill="white"/>
<path d="M76.2327 74.3534C76.0692 74.4388 76.1732 78.0662 76.3367 78.1572C76.5001 78.2482 79.5874 78.2723 79.7156 78.237C79.8437 78.2018 79.7509 74.3014 79.6004 74.268C79.4499 74.2346 76.8122 74.0471 76.2327 74.3534Z" fill="#10C1BC"/>
<path d="M78.0856 74.1831L77.9092 74.1899L78.0693 78.3174L78.2457 78.3105L78.0856 74.1831Z" fill="#F1F0F8"/>
<path d="M79.7719 76.1924L76.1019 76.2583L76.1051 76.4346L79.775 76.3687L79.7719 76.1924Z" fill="#F1F0F8"/>
<path d="M71.5984 94.7457C72.0379 92.9005 70.8975 91.0486 69.0511 90.6094C67.2048 90.1702 65.3518 91.3099 64.9123 93.1551C64.4728 95.0003 65.6132 96.8522 67.4595 97.2914C69.3058 97.7307 71.1589 96.5909 71.5984 94.7457Z" fill="white"/>
<path d="M80.9254 95.9518C82.0335 94.4119 81.6826 92.2658 80.1417 91.1585C78.6008 90.0511 76.4535 90.4018 75.3454 91.9417C74.2374 93.4816 74.5882 95.6277 76.1291 96.735C77.67 97.8424 79.8174 97.4918 80.9254 95.9518Z" fill="white"/>
<path d="M70.6862 106.766C72.0283 105.425 72.0283 103.25 70.6862 101.909C69.3442 100.568 67.1683 100.568 65.8263 101.909C64.4843 103.25 64.4843 105.425 65.8263 106.766C67.1683 108.107 69.3442 108.107 70.6862 106.766Z" fill="white"/>
<path d="M81.0174 105.272C81.752 103.524 80.9288 101.511 79.1788 100.777C77.4288 100.042 75.4147 100.865 74.6801 102.614C73.9456 104.363 74.7688 106.376 76.5188 107.11C78.2688 107.844 80.2829 107.021 81.0174 105.272Z" fill="#E2581D"/>
<path d="M77.9816 101.031C77.8925 100.931 77.6398 100.799 77.573 101.308C77.5061 101.816 77.4299 105.067 77.4522 105.392C77.4745 105.717 76.7946 106.19 77.4745 106.758C78.1952 107.361 78.7748 106.363 78.3048 105.568C77.9259 104.928 78.355 101.45 77.9816 101.031Z" fill="white"/>
<path d="M67.0172 93.9505C67.1342 93.8484 69.224 93.8633 69.5175 93.9505C69.811 94.0378 69.837 96.0111 69.6605 96.1299C69.484 96.2487 67.1379 96.2116 66.8742 96.0483C66.6104 95.8849 66.7683 94.1714 67.0172 93.9505Z" fill="#4AA29A"/>
<path d="M67.0619 94.0965C67.0174 93.9498 66.8576 92.0544 67.7158 91.7982C68.574 91.542 69.1647 91.8335 69.356 92.4368C69.5473 93.0402 69.5251 94.1559 69.5251 94.1559H69.174C69.174 94.1559 69.291 92.4851 68.7765 92.2382C68.2619 91.9913 67.6619 92.0915 67.4762 92.6095C67.2904 93.1274 67.3703 94.1485 67.3703 94.1485L67.0619 94.0965Z" fill="#4AA29A"/>
<path d="M78.0716 96.1574C77.8964 96.1356 77.7353 96.0505 77.6186 95.9182C77.5019 95.7858 77.4377 95.6154 77.4381 95.439C77.452 95.1276 77.4264 94.8157 77.362 94.5108C77.2524 94.2601 76.5781 93.6364 76.9087 92.736C76.9745 92.5299 77.0918 92.344 77.2494 92.1957C77.4071 92.0474 77.5999 91.9417 77.8098 91.8886C78.0197 91.8355 78.2396 91.8367 78.4489 91.892C78.6581 91.9474 78.8499 92.0552 79.0059 92.2051C79.7136 92.8084 79.4889 93.9353 79.0059 94.4216C78.8852 94.546 78.874 95.0176 78.887 95.4055C78.8902 95.5008 78.8745 95.5958 78.8406 95.6849C78.8067 95.774 78.7554 95.8555 78.6897 95.9246C78.624 95.9937 78.5452 96.0491 78.4579 96.0874C78.3706 96.1258 78.2765 96.1464 78.1811 96.1481H78.17L78.0716 96.1574Z" fill="#4AA29A"/>
<path d="M61.5386 95.2682C62.2566 93.5124 61.4145 91.5073 59.6576 90.7898C57.9008 90.0722 55.8945 90.9138 55.1764 92.6695C54.4584 94.4253 55.3005 96.4304 57.0574 97.1479C58.8142 97.8655 60.8205 97.0239 61.5386 95.2682Z" fill="white"/>
<path d="M58.4604 92.1618C58.4501 92.1441 58.4354 92.1294 58.4176 92.1191C58.3998 92.1089 58.3797 92.1035 58.3592 92.1035C58.3387 92.1035 58.3185 92.1089 58.3008 92.1191C58.283 92.1294 58.2682 92.1441 58.2579 92.1618C57.957 92.6705 57.1007 94.215 57.2214 95.1321C57.3682 96.2459 59.2814 96.3759 59.5043 95.1896C59.6585 94.3709 58.7576 92.702 58.4604 92.1618Z" fill="#4AA29A"/>
<path d="M67.9182 105.466C67.9182 105.378 67.9442 105.293 67.9929 105.22C68.0415 105.147 68.1107 105.091 68.1916 105.057C68.2725 105.024 68.3614 105.015 68.4473 105.033C68.5331 105.05 68.6118 105.092 68.6736 105.154C68.7353 105.216 68.7773 105.295 68.7941 105.381C68.811 105.467 68.802 105.555 68.7682 105.636C68.7345 105.717 68.6775 105.786 68.6046 105.834C68.5316 105.882 68.446 105.908 68.3585 105.908C68.3005 105.908 68.2431 105.896 68.1896 105.874C68.136 105.852 68.0874 105.819 68.0465 105.778C68.0056 105.737 67.9732 105.688 67.9512 105.635C67.9292 105.581 67.918 105.524 67.9182 105.466Z" fill="#4AA29A"/>
<path d="M69.8965 104.959C69.8583 104.959 69.8211 104.947 69.7906 104.923C68.1671 103.68 67.0043 104.814 66.9634 104.862C66.9299 104.892 66.8865 104.907 66.8419 104.906C66.7973 104.905 66.7549 104.887 66.7231 104.855C66.6913 104.824 66.6726 104.782 66.6706 104.737C66.6687 104.693 66.6837 104.649 66.7127 104.615C66.7275 104.6 68.1393 103.214 70.0043 104.643C70.0333 104.666 70.0545 104.697 70.065 104.732C70.0755 104.767 70.0748 104.805 70.063 104.839C70.0511 104.874 70.0287 104.904 69.9989 104.926C69.969 104.947 69.9332 104.959 69.8965 104.959Z" fill="#4AA29A"/>
<path d="M70.3794 103.891C70.3407 103.891 70.3031 103.879 70.2717 103.856C68.1392 102.241 66.2668 103.832 66.2482 103.856C66.2128 103.885 66.1673 103.9 66.1215 103.896C66.0757 103.892 66.0331 103.871 66.0028 103.836C65.9726 103.802 65.957 103.757 65.9595 103.711C65.9619 103.665 65.9822 103.622 66.016 103.591C66.0383 103.572 68.1262 101.795 70.4853 103.591C70.5142 103.613 70.5354 103.644 70.546 103.679C70.5565 103.714 70.556 103.751 70.5443 103.786C70.5327 103.821 70.5106 103.851 70.4811 103.872C70.4515 103.894 70.416 103.906 70.3794 103.906V103.891Z" fill="#4AA29A"/>
<path d="M61.4317 104.593C61.9389 102.765 60.8675 100.872 59.0386 100.365C57.2097 99.8584 55.3159 100.929 54.8087 102.757C54.3015 104.585 55.373 106.477 57.2019 106.984C59.0308 107.491 60.9245 106.42 61.4317 104.593Z" fill="white"/>
<path d="M56.4636 102.176C56.9336 102.046 58.0648 101.828 59.7013 102.116C59.7809 102.13 59.853 102.172 59.905 102.233C59.9569 102.295 59.9855 102.373 59.9855 102.454C59.9725 103.174 59.7998 105.077 58.3138 105.981C58.256 106.018 58.1886 106.036 58.1204 106.033C58.0522 106.031 57.9863 106.008 57.9311 105.968C57.3995 105.562 56.968 105.04 56.6698 104.441C56.3716 103.843 56.2147 103.184 56.211 102.515C56.2084 102.438 56.232 102.363 56.2779 102.301C56.3238 102.24 56.3893 102.195 56.4636 102.176Z" fill="#4AA29A"/>
<path d="M45.908 92.6675C45.908 92.6675 52.7308 112.16 51.0553 124.676H41.7916L45.4956 92.6675H45.908Z" fill="#FFCBAD"/>
<path d="M93.6639 75.2803C93.6639 75.2803 86.1557 79.7097 85.1674 82.0506C84.1792 84.3915 85.4981 85.9491 87.025 86.1347C88.5519 86.3204 93.0825 83.868 95.1796 82.5333L93.6639 75.2803Z" fill="#FFCBAD"/>
<path d="M92.7648 87.7886C92.7648 87.7886 87.1921 91.1914 86.2002 93.5342C85.2082 95.877 86.5308 97.4326 88.0577 97.6276C89.5846 97.8225 94.1171 95.3553 95.5771 94.2118L92.7648 87.7886Z" fill="#FFCBAD"/>
<path d="M92.4546 99.4561C92.4546 99.4561 88.8602 101.209 87.9965 103.241C87.1327 105.274 88.2825 106.626 89.6162 106.794C90.95 106.963 95.6514 105.471 97.6037 102.454L92.4546 99.4561Z" fill="#FFCBAD"/>
<path d="M86.3284 82.6075C86.3004 82.5971 86.2756 82.5796 86.2564 82.5568C86.2371 82.5339 86.2242 82.5065 86.2188 82.4771C86.2133 82.4477 86.2156 82.4174 86.2254 82.3892C86.2352 82.361 86.2521 82.3358 86.2745 82.3161C87.1179 81.5958 90.0491 79.2883 91.2992 80.8904C92.4138 82.3291 90.5172 84.2523 88.4869 85.2047C88.464 85.2156 88.4389 85.2213 88.4136 85.2214C88.3882 85.2214 88.3631 85.2158 88.3401 85.205C88.3172 85.1941 88.297 85.1783 88.2809 85.1587C88.2648 85.139 88.2533 85.1161 88.2473 85.0914C88.1079 84.5549 87.6194 83.1032 86.3284 82.6075Z" fill="white"/>
<path d="M87.0825 94.1059C87.0606 94.098 87.0411 94.0845 87.026 94.0668C87.0109 94.0491 87.0007 94.0277 86.9963 94.0049C86.992 93.982 86.9938 93.9584 87.0014 93.9364C87.009 93.9144 87.0223 93.8947 87.0398 93.8794C87.8088 93.213 90.8422 90.7718 92.1202 92.4091C93.2515 93.859 91.3122 95.8008 89.2633 96.7494C89.2453 96.7573 89.2257 96.7612 89.2061 96.7607C89.1864 96.7603 89.167 96.7556 89.1493 96.7469C89.1317 96.7383 89.1161 96.7259 89.1037 96.7106C89.0913 96.6953 89.0824 96.6775 89.0775 96.6585C88.9512 96.1554 88.459 94.5997 87.0825 94.1059Z" fill="white"/>
<path d="M89.0943 104.196C89.0695 104.184 89.048 104.167 89.032 104.145C89.0161 104.122 89.0061 104.097 89.0031 104.069C89.0001 104.042 89.0042 104.015 89.015 103.99C89.0257 103.965 89.0428 103.943 89.0646 103.926C89.7686 103.405 91.9698 101.931 92.7983 103.149C93.5506 104.262 92.0794 105.562 90.5488 106.18C90.5273 106.188 90.5042 106.192 90.4812 106.19C90.4582 106.189 90.4358 106.182 90.4156 106.171C90.3954 106.16 90.3779 106.144 90.3643 106.126C90.3508 106.107 90.3414 106.086 90.337 106.063C90.2516 105.644 89.9618 104.624 89.0943 104.196Z" fill="white"/>
<path d="M51.2262 122.986C51.2262 122.986 52.5265 128.76 64.53 127.256C76.5335 125.752 78.4821 122.986 78.4765 122.986H51.2262Z" fill="#D4A88C"/>
<g opacity="0.5">
<path opacity="0.5" d="M43.2963 76.6466C43.0065 77.7994 41.4815 77.5395 41.4202 77.5284C41.4034 73.9009 41.4889 70.8546 42.0369 70.5186C42.6777 70.5594 43.4133 71.0625 43.4133 71.0625C43.4133 71.0625 43.5898 75.4789 43.2963 76.6466Z" fill="white"/>
</g>
<path d="M125.842 130.057C124.966 128.465 123.034 125.181 119.066 127.429C118 128.032 117.023 127.505 115.1 125.879C113.101 124.186 111.978 123.291 109.635 125.108C107.293 126.926 104.672 124.512 102.532 124.629C100.392 124.746 100.048 127.262 97.9028 126.751C96.4985 126.417 92.9134 119.604 90.6045 114.931C89.9766 113.665 89.4435 112.557 89.072 111.775C88.9141 111.438 88.7841 111.163 88.6893 110.964C88.5946 110.766 88.55 110.662 88.5277 110.615C88.5277 110.615 85.6188 102.733 83.5755 101.396C81.5322 100.06 79.8362 101.038 79.3886 102.454C78.9409 103.871 80.4919 108.562 81.3929 110.782H81.6418H81.3929C81.3929 110.782 81.8145 112.013 82.461 113.879C82.747 114.705 83.0758 115.655 83.4325 116.678C83.8244 117.803 84.2498 119.017 84.6844 120.25C84.7049 120.309 84.7272 120.369 84.7476 120.426C85.0467 121.278 85.3513 122.14 85.6522 122.984C86.8392 126.307 87.9742 129.408 88.6095 130.922C89.6738 133.462 90.7939 140.843 91.5017 146.186C91.9549 149.576 92.2447 152.145 92.2447 152.145H132.256C132.256 152.145 129.929 137.502 125.842 130.057Z" fill="#FFCBAD"/>
<g opacity="0.5">
<path opacity="0.5" d="M82.5594 101.84C82.7117 101.828 82.864 101.86 82.9986 101.932C83.1331 102.004 83.2444 102.113 83.3192 102.246C83.9285 103.332 85.3439 106.217 83.7056 107.073C82.1768 107.877 80.6907 105.803 80.1335 103.742C80.0798 103.544 80.1072 103.332 80.2096 103.154C80.4548 102.71 81.0938 101.953 82.5594 101.84Z" fill="white"/>
</g>
<path d="M99.2032 152.149H86.282C84.6399 148.922 82.0747 143.828 79.7081 141.359C77.1949 138.74 75.1571 136.471 75.3224 135.853C75.328 135.83 75.3374 135.808 75.3503 135.788C76.1862 134.557 78.4766 132.972 80.8245 134.205C84.066 135.909 89.8281 143.826 91.5018 146.19C91.8027 146.613 91.9717 146.858 91.9717 146.858L98.2874 147.322C98.5679 148.935 98.88 150.545 99.2032 152.149Z" fill="#FFCBAD"/>
<g opacity="0.5">
<path opacity="0.5" d="M80.4605 139.425C81.0437 140.459 79.7602 141.32 79.7081 141.356C77.1949 138.738 75.1571 136.469 75.3224 135.849C75.8166 135.437 76.6952 135.292 76.6952 135.292C76.6952 135.292 79.8623 138.37 80.4605 139.425Z" fill="white"/>
</g>
<path d="M86.282 152.149C86.282 152.149 91.1395 164.772 99.2478 167.186C106.253 169.274 110.319 179.002 112.754 185.202C113.058 185.974 113.587 186.638 114.273 187.105C114.959 187.572 115.771 187.822 116.601 187.821H136.726C137.04 187.822 137.349 187.753 137.632 187.618C137.916 187.482 138.164 187.285 138.361 187.041C138.557 186.796 138.696 186.511 138.766 186.205C138.837 185.9 138.838 185.582 138.769 185.276C137.671 180.411 135.154 168.777 132.268 152.143L86.282 152.149Z" fill="#FFCBAD"/>
<path d="M45.908 72.3379C45.908 72.3379 47.4182 74.7308 46.7699 80.3372C46.1216 85.9435 45.908 92.6675 45.908 92.6675L44.7229 81.4436L45.908 72.3379Z" fill="#FFCBAD"/>
</g>
</svg>
