<svg width="201" height="200" viewBox="0 0 201 200" fill="none" xmlns="http://www.w3.org/2000/svg">
<circle opacity="0.2" cx="100.5" cy="100" r="100" fill="#4AA29A"/>
<circle cx="100.5" cy="100" r="90" fill="#89BDB9"/>
<mask id="mask0" mask-type="alpha" maskUnits="userSpaceOnUse" x="10" y="10" width="181" height="180">
<circle cx="100.5" cy="100" r="90" fill="#89BDB9"/>
</mask>
<g mask="url(#mask0)">
<path opacity="0.5" d="M204.189 152.235H-3.18673C-3.18673 152.235 -3.63464 131.529 12.3394 131.626C28.3135 131.722 29.9613 133.108 37.7197 125.779C45.4781 118.451 45.5323 97.4622 61.28 104.199C67.0581 106.67 69.3543 109.749 78.3291 104.753C87.3039 99.7566 83.2043 88.0633 97.9996 87.6817C112.795 87.3001 147.82 83.9928 158.801 104.199C166.816 118.955 167.462 131.798 181.569 130.66C195.676 129.522 202.621 148.207 204.189 152.235Z" fill="#86D7D0"/>
<path opacity="0.5" d="M190.732 152.235H21.9388C21.9388 152.235 22.4456 140.089 35.4493 140.17C48.453 140.25 38.0567 116.905 44.3723 110.941C50.6879 104.977 57.1544 93.0147 69.9718 98.4986C74.6867 100.508 84.8968 114.5 92.2025 110.432C99.5083 106.364 92.2568 99.9991 104.303 99.6905C116.35 99.3819 157.78 91.5236 166.719 107.971C173.247 119.984 166.358 139.475 177.842 138.549C189.325 137.623 189.457 148.956 190.732 152.235Z" fill="#86D7D0"/>
<path d="M21.4369 148.679C21.4369 148.679 14.0029 142.212 17.7006 137.549C21.3982 132.885 26.1363 139.754 27.4072 136.056C28.6781 132.358 15.0598 115.553 29.62 112.408C44.1802 109.264 36.5597 124.324 38.7704 126.701C41.2549 129.373 49.1127 122.266 45.9347 133.588C43.4412 142.475 47.3597 138.174 48.8234 140.984C50.6532 144.496 47.1282 148.676 47.1282 148.676L21.4369 148.679Z" fill="#5FBAB2"/>
<path opacity="0.1" d="M49.3452 143.096C49.3452 143.026 49.341 142.956 49.3367 142.884C47.8534 143.321 46.3791 142.984 45.9347 142.861C46.5614 141.884 47.284 140.962 48.1067 140.182C48.0469 140.144 47.9852 140.108 47.9218 140.076C46.5195 141.418 45.4129 143.163 44.5653 144.883C44.6135 143.929 44.8757 141.605 46.243 139.681C46.1715 139.664 46.1026 139.643 46.0353 139.621C44.2813 142.141 44.3481 145.289 44.3496 145.33C43.843 146.418 43.4008 147.535 43.0253 148.675H43.2404C43.7818 147.049 44.6214 144.952 45.8176 143.039C46.4461 143.215 47.0955 143.304 47.748 143.304C48.2875 143.309 48.8249 143.239 49.3452 143.096Z" fill="black"/>
<path opacity="0.1" d="M40.2636 140.43C40.724 140.408 42.7593 140.236 45.2709 138.89C45.2462 138.825 45.2253 138.759 45.2083 138.691C42.7847 139.998 40.8114 140.193 40.2981 140.223C40.4623 139.25 40.6604 138.275 40.8988 137.324C41.357 137.271 43.5396 136.979 45.3667 135.903C45.3847 135.811 45.4042 135.718 45.425 135.622C43.6948 136.694 41.5409 137.034 40.9539 137.11C41.6394 134.457 42.6459 132.016 44.1229 130.399C44.9011 129.547 45.5866 128.57 46.1889 127.525C46.1436 127.47 46.0948 127.418 46.0427 127.37C45.4382 128.422 44.7512 129.405 43.9698 130.26C42.9738 131.351 42.1898 132.809 41.5721 134.452C41.4614 133.159 41.2331 129.249 42.2709 127.186C42.1887 127.2 42.1061 127.213 42.0235 127.226C40.8326 129.788 41.3798 134.655 41.409 134.9C39.7996 139.481 39.4091 145.32 39.327 148.68H39.532C39.5845 146.588 39.7567 143.536 40.2636 140.43Z" fill="black"/>
<path opacity="0.1" d="M27.3928 146.07C27.3928 145.665 27.3812 140.303 25.8115 137.187C25.7299 137.179 25.6462 137.167 25.5604 137.151C26.9606 139.807 27.156 144.396 27.1825 145.719C25.9297 143.675 24.2917 141.852 22.6267 140.308C22.6796 140.011 22.9853 138.067 22.5276 136.123C22.4529 136.101 22.3782 136.081 22.303 136.061C22.7432 137.809 22.5287 139.597 22.4455 140.14C21.1475 138.961 19.7742 137.869 18.3341 136.868C18.2811 136.915 18.2318 136.962 18.1815 137.012C19.6871 138.059 21.5274 139.481 23.273 141.208C22.7559 141.553 20.3863 142.985 17.0712 142.633C17.0966 142.705 17.1241 142.776 17.1501 142.845C17.4796 142.877 17.8012 142.893 18.1116 142.893C20.9982 142.893 23.0028 141.64 23.4218 141.357C23.7513 141.687 24.0757 142.028 24.395 142.38C24.0713 142.812 22.2177 145.06 18.5762 145.453C18.6212 145.517 18.6668 145.581 18.7118 145.644C22.2696 145.22 24.1359 143.055 24.5354 142.537C26.1458 144.339 27.5671 146.411 28.4152 148.683H28.6319C28.2963 147.777 27.8817 146.903 27.3928 146.07Z" fill="black"/>
<path opacity="0.1" d="M34.2833 148.679C34.2833 147.416 34.2578 146 34.1853 144.472H34.19C34.208 144.343 35.8762 132.836 40.5672 127.357C40.4803 127.357 40.3939 127.352 40.3092 127.347C36.4235 132.009 34.6313 140.712 34.1355 143.534C33.9612 140.559 33.6057 137.227 32.9414 133.853C32.9684 133.816 33.0029 133.765 33.0527 133.694C34.403 131.701 36.5765 128.658 38.6251 126.501C38.5884 126.439 38.5564 126.373 38.5292 126.306C36.4521 128.478 34.2504 131.56 32.8853 133.575C32.7274 132.794 32.5524 132.012 32.3603 131.229C31.59 128.114 31.2573 125.009 31.1805 122.139C31.8692 122.136 35.6023 122.053 38.7083 120.682C38.7157 120.604 38.7226 120.526 38.73 120.448C35.6373 121.851 31.8432 121.932 31.1747 121.932C31.1413 120.464 31.1747 119.06 31.2494 117.749C31.8713 117.541 35.9292 116.145 38.1404 114.501C38.1091 114.439 38.0773 114.376 38.0434 114.316C35.9578 115.873 32.0769 117.249 31.2626 117.528C31.3929 115.398 31.6335 113.527 31.8713 112.048C31.8014 112.055 31.7315 112.062 31.6594 112.07C31.2594 114.563 31.0293 117.081 30.9707 119.605C28.1816 119.247 25.3437 117.566 23.5728 116.325C23.5415 116.387 23.5087 116.448 23.4796 116.51C25.2765 117.765 28.1414 119.456 30.967 119.812C30.9104 122.86 31.1106 126.28 31.8199 129.759C30.9723 129.489 27.0331 128.181 24.2768 126.321C24.3176 126.434 24.3589 126.547 24.4003 126.66C27.3112 128.555 31.2992 129.815 31.8697 129.99C31.9598 130.419 32.0574 130.848 32.1627 131.277C32.8927 134.228 33.3583 137.211 33.646 140.011C33.1014 139.253 31.5021 137.506 27.4755 135.74C27.4668 135.81 27.4539 135.879 27.4368 135.948C32.276 138.087 33.5586 140.218 33.691 140.464C33.9898 143.533 34.0793 146.367 34.0783 148.679H34.2833Z" fill="black"/>
<path d="M181.988 110.65C181.534 110.591 181.002 109.864 181.002 109.864C181.002 109.864 181.58 109.281 182.034 109.338C182.488 109.396 182.767 109.729 182.754 110.091C182.741 110.453 182.442 110.71 181.988 110.65Z" fill="#9FE6E0"/>
<path d="M179.558 108.027C179.472 108.69 178.801 109.337 178.801 109.337C178.801 109.337 178.338 108.364 178.423 107.701C178.508 107.039 178.816 106.689 179.13 106.778C179.443 106.868 179.644 107.364 179.558 108.027Z" fill="#9FE6E0"/>
<path d="M176.652 108.884C176.824 109.85 176.225 111.223 176.225 111.223C176.225 111.223 175.206 110.237 175.033 109.271C174.861 108.305 175.114 107.603 175.561 107.496C176.007 107.389 176.48 107.918 176.652 108.884Z" fill="#9FE6E0"/>
<path d="M173.671 110.561C174.272 111.527 174.222 113.521 174.222 113.521C174.222 113.521 172.705 113.158 172.103 112.193C171.501 111.228 171.467 110.247 171.903 109.797C172.338 109.347 173.07 109.596 173.671 110.561Z" fill="#9FE6E0"/>
<path d="M171.128 114.208C171.922 114.556 172.638 116.112 172.638 116.112C172.638 116.112 171.423 116.817 170.63 116.468C169.838 116.12 169.445 115.392 169.582 114.768C169.72 114.144 170.336 113.86 171.128 114.208Z" fill="#9FE6E0"/>
<path d="M169.988 118.409C170.593 118.313 171.434 118.965 171.434 118.965C171.434 118.965 170.799 119.854 170.193 119.951C169.588 120.047 169.155 119.764 169.102 119.338C169.049 118.912 169.383 118.506 169.988 118.409Z" fill="#9FE6E0"/>
<path d="M180.303 112.669C179.767 112.491 179.231 111.503 179.231 111.503C179.231 111.503 180.005 110.952 180.542 111.13C181.078 111.308 181.366 111.765 181.3 112.189C181.235 112.613 180.839 112.847 180.303 112.669Z" fill="#9FE6E0"/>
<path d="M178.246 115.029C177.611 114.525 177.226 113.016 177.226 113.016C177.226 113.016 178.392 112.738 179.027 113.242C179.663 113.746 179.892 114.466 179.677 114.959C179.462 115.452 178.881 115.533 178.246 115.029Z" fill="#9FE6E0"/>
<path d="M175.538 118.248C174.997 117.431 174.999 115.697 174.999 115.697C174.999 115.697 176.32 115.957 176.86 116.774C177.4 117.591 177.449 118.442 177.084 118.849C176.719 119.256 176.078 119.065 175.538 118.248Z" fill="#9FE6E0"/>
<path d="M173.368 120.361C173.191 119.743 173.489 118.768 173.489 118.768C173.489 118.768 174.219 119.302 174.396 119.92C174.573 120.538 174.455 121.032 174.172 121.152C173.889 121.272 173.545 120.979 173.368 120.361Z" fill="#9FE6E0"/>
<path d="M169.437 136.507L169.265 136.47C169.278 134.095 169.418 131.723 169.685 129.363C170.101 125.662 171.025 120.454 173.066 116.655C175.107 112.856 176.986 111.155 178.199 110.398C179.523 109.572 180.388 109.88 180.388 109.88C180.388 109.88 179.554 109.803 178.264 110.611C177.07 111.359 175.224 113.039 173.208 116.79C171.185 120.555 170.268 125.729 169.855 129.407C169.587 131.764 169.448 134.134 169.437 136.507Z" fill="#9FE6E0"/>
<path d="M173.841 148.964C173.841 148.964 172.477 143.867 169.16 140.011C164.951 135.117 166.181 130.907 169.908 131.149C174.054 131.416 174.616 132.454 175.424 129.608C176.233 126.763 176.031 114.297 184.619 114.278C193.207 114.258 186.844 130.816 183.205 136.507C179.565 142.198 181.992 142.676 183.911 142.199C185.83 141.722 187.649 143.698 186.841 145.837C186.033 147.976 184.365 148.963 184.365 148.963L173.841 148.964Z" fill="#459991"/>
<path opacity="0.1" d="M178.101 135.189C177.677 133.659 176.246 132.073 174.941 130.88C174.912 130.93 174.882 130.977 174.852 131.021C176.198 132.258 177.665 133.909 177.984 135.466C177.11 137.565 176.521 139.526 176.521 141.267C176.524 143.857 176.817 146.439 177.395 148.964H177.577C176.997 146.44 176.702 143.858 176.699 141.267C176.699 140.171 176.936 138.984 177.335 137.729C177.619 137.526 181.043 135.119 184.579 134.08C184.611 134.017 184.643 133.955 184.676 133.891C181.431 134.807 178.259 136.894 177.418 137.473C178.177 135.176 179.443 132.656 180.756 130.045C180.809 129.939 180.862 129.833 180.915 129.727C183.272 129.631 185.364 129.186 186.901 128.753C186.923 128.693 186.944 128.633 186.966 128.573C185.02 129.136 183.016 129.47 180.993 129.569C181.222 129.114 181.45 128.656 181.678 128.197C182.136 128.144 185.232 127.762 187.501 127.009C187.522 126.946 187.541 126.884 187.561 126.821C185.442 127.544 182.464 127.944 181.759 128.032C182.993 125.525 184.143 122.999 184.784 120.593C185.202 120.576 187.402 120.425 188.894 119.059C188.891 118.986 188.886 118.915 188.881 118.843C187.482 120.224 185.332 120.412 184.823 120.437C184.855 120.314 184.888 120.191 184.917 120.066C185.537 117.44 185.703 115.622 185.663 114.369C185.603 114.357 185.542 114.348 185.48 114.339C185.525 115.575 185.366 117.39 184.739 120.036C184.478 121.106 184.144 122.158 183.741 123.183C183.13 123.003 179.296 121.793 177.684 119.339C177.657 119.401 177.631 119.464 177.604 119.527C179.288 121.951 183.068 123.147 183.684 123.328C182.827 125.525 181.695 127.778 180.588 129.982C179.689 131.776 178.81 133.524 178.101 135.189Z" fill="black"/>
<path opacity="0.1" d="M186.194 142.821C186.151 142.781 186.107 142.743 186.063 142.706C185.335 143.113 184.647 143.587 184.008 144.122C183.332 144.682 182.719 145.312 182.179 146.004C182.076 145.49 181.861 143.931 182.618 142.326C182.556 142.32 182.496 142.312 182.437 142.302C181.575 144.163 181.979 145.957 182.038 146.19C181.402 147.039 180.888 147.973 180.511 148.964H180.698C181.17 147.733 182.055 146.11 183.702 144.61C184.283 144.738 184.876 144.805 185.47 144.808C185.977 144.808 186.525 144.755 187.03 144.588C187.026 144.535 187.021 144.478 187.013 144.423C185.819 144.828 184.311 144.577 183.843 144.482C183.938 144.398 184.034 144.315 184.133 144.232C184.773 143.697 185.463 143.224 186.194 142.821Z" fill="black"/>
<path opacity="0.1" d="M167.586 131.779C168.927 132.311 170.391 133.187 171.569 134.628C172.134 135.317 172.637 136.185 173.084 137.15C172.326 136.969 169.229 136.271 166.905 136.33C166.924 136.381 166.94 136.431 166.958 136.482C169.428 136.429 172.772 137.232 173.166 137.33C173.961 139.084 174.577 141.144 175.066 143.09C174.587 142.928 173.083 142.502 171.093 142.709C171.122 142.757 171.151 142.806 171.18 142.854C173.312 142.647 174.855 143.176 175.112 143.272C175.194 143.601 175.272 143.925 175.346 144.244C174.186 143.851 172.955 143.714 171.737 143.841C171.763 143.89 171.79 143.939 171.813 143.987C173.023 143.869 174.243 144.018 175.388 144.423C175.614 145.397 175.808 146.312 175.976 147.108C176.135 147.861 176.269 148.49 176.386 148.965H176.57C176.451 148.489 176.316 147.853 176.153 147.081C175.392 143.491 174.12 137.483 171.715 134.541C170.537 133.101 169.078 132.217 167.732 131.671C167.684 131.706 167.634 131.741 167.586 131.779Z" fill="black"/>
<path d="M-2.42398 147.974C-2.42398 147.974 -7.74696 177.329 -2.49412 190.141C4.51903 207.205 191.277 213.324 202.951 193.191C209.422 182.03 202.888 147.974 202.888 147.974H-2.42398Z" fill="#4AA29A"/>
<path opacity="0.5" d="M67.4275 70.2549H49.3135C49.2617 70.2558 49.2105 70.2431 49.1652 70.2178C49.1199 70.1926 49.0821 70.1559 49.0556 70.1114C49.0291 70.0669 49.0149 70.0161 49.0143 69.9643C49.0137 69.9125 49.0269 69.8615 49.0524 69.8164C49.2003 69.5217 49.3837 69.2463 49.5987 68.9963C49.7704 68.7962 49.9838 68.636 50.2239 68.5271C50.4925 68.4063 50.7302 68.2264 50.9193 68.0009C51.3581 67.5294 51.7683 66.9045 52.7204 66.5384C54.1266 65.9902 55.7259 66.8497 58.4967 65.7578C61.2674 64.6658 62.4455 67.536 64.3891 67.9811C64.7408 68.0634 65.0849 68.1749 65.418 68.3144C65.8553 68.5021 66.2739 68.7304 66.6685 68.9963C66.9996 69.2199 67.3155 69.4653 67.614 69.7309C67.6635 69.7683 67.6998 69.8205 67.7175 69.8799C67.7353 69.9393 67.7337 70.0028 67.7129 70.0612C67.6921 70.1196 67.6533 70.1699 67.6019 70.2047C67.5506 70.2396 67.4895 70.2572 67.4275 70.2549Z" fill="#9FE6E0"/>
<path opacity="0.5" d="M119.751 44.7009H100.843C100.578 43.6835 100.394 43.4182 100.492 43.166C100.685 42.6683 100.96 42.2065 101.306 41.8C101.539 41.5198 101.827 41.2901 102.151 41.125C102.476 40.9598 102.831 40.8627 103.195 40.8396C105.406 40.7168 105.591 38.8114 107.863 38.4123C110.136 38.0132 112.222 39.7959 113.389 39.7279C114.557 39.6599 116.224 40.0261 117.321 41.0194C118.021 41.6421 118.769 41.8153 119.394 42.3174C119.671 42.5399 119.902 42.8139 120.074 43.1243C120.223 43.3743 120.039 43.6835 119.751 44.7009Z" fill="#9FE6E0"/>
<path opacity="0.8" d="M160.095 57.2886H136.141C136.062 57.2882 135.986 57.2641 135.921 57.2193C135.857 57.1746 135.807 57.1113 135.78 57.038C135.752 56.9646 135.747 56.8845 135.766 56.8083C135.784 56.7321 135.826 56.6634 135.884 56.6111C136.51 56.0485 137.198 55.5593 137.935 55.153C138.63 54.7659 139.376 54.478 140.151 54.2978C142.733 53.7058 144.28 49.9125 147.946 51.3553C151.611 52.7981 153.728 51.6645 155.586 52.388C156.914 52.9033 157.451 53.7869 158.061 54.4184C158.292 54.6747 158.575 54.8795 158.89 55.0192C159.612 55.3152 160.147 56.155 160.441 56.7251C160.471 56.7843 160.486 56.8502 160.483 56.9165C160.48 56.9828 160.46 57.0473 160.426 57.1038C160.391 57.1603 160.342 57.207 160.284 57.2393C160.226 57.2717 160.161 57.2887 160.095 57.2886Z" fill="white"/>
<path d="M158.061 54.4228C156.51 54.9096 154.899 55.1832 153.274 55.2363C148.667 55.4424 145.429 54.322 142.332 54.6421C140.967 54.7824 139.337 54.9951 137.944 55.153C138.639 54.7659 139.385 54.478 140.16 54.2978C142.742 53.7058 144.289 49.9125 147.954 51.3553C151.62 52.7981 153.737 51.6645 155.595 52.388C156.914 52.9033 157.442 53.787 158.061 54.4228Z" fill="white"/>
<path opacity="0.8" d="M78.6025 47.8173H55.5678C55.5243 47.8168 55.4815 47.806 55.4429 47.7859C55.4043 47.7657 55.371 47.7366 55.3458 47.7012C55.3206 47.6657 55.3041 47.6247 55.2977 47.5817C55.2913 47.5386 55.2952 47.4946 55.309 47.4534C55.6644 46.3965 56.7525 46.0259 57.5444 45.1401C57.6103 45.0656 57.6805 44.9954 57.7485 44.9208C58.5843 44.0964 59.6 43.7587 61.366 43.6864C64.3693 43.5658 63.9985 41.52 67.6117 41.52C71.2249 41.52 70.4 43.0154 73.9627 43.4803C75.6629 43.6995 76.8958 44.6994 77.7206 45.6729C78.1668 46.2053 78.5489 46.7882 78.8592 47.4095C78.8842 47.4524 78.897 47.5013 78.8961 47.551C78.8953 47.6006 78.8808 47.6491 78.8544 47.6911C78.8279 47.7331 78.7905 47.7671 78.7461 47.7893C78.7017 47.8116 78.652 47.8213 78.6025 47.8173Z" fill="white"/>
<path d="M77.7097 45.6883C76.0648 45.7866 74.4141 45.6739 72.7978 45.3528C70.3562 44.8025 68.566 45.3528 63.5423 45.8681C60.8856 46.1422 58.9617 45.5502 57.7375 44.9296C58.5734 44.1052 59.5891 43.7675 61.3551 43.6952C64.3584 43.5746 63.9876 41.5288 67.6008 41.5288C71.2139 41.5288 70.3891 43.0242 73.9518 43.4891C75.6519 43.7105 76.8849 44.7082 77.7097 45.6883Z" fill="white"/>
<path opacity="0.8" d="M57.9131 57.3864H37.6229C37.6039 57.386 37.5853 57.3808 37.5688 57.3714C37.5523 57.362 37.5384 57.3487 37.5284 57.3326C37.5184 57.3165 37.5126 57.2981 37.5114 57.2792C37.5103 57.2602 37.5139 57.2413 37.522 57.2241C37.8916 56.5224 38.5118 55.9855 39.2594 55.7199C39.6088 55.5898 39.9727 55.503 40.3432 55.4612C42.6839 55.1849 42.9603 53.8255 44.8865 53.4725C46.8126 53.1195 48.6027 54.0908 50.5289 53.7794C52.455 53.4681 53.9051 55.0446 54.866 55.391C55.3047 55.5489 55.8905 55.6936 56.4521 55.9414C57.0935 56.1878 57.6387 56.6337 58.0075 57.2132C58.0178 57.2302 58.0236 57.2497 58.024 57.2697C58.0245 57.2896 58.0197 57.3094 58.0102 57.3269C58.0006 57.3444 57.9867 57.3592 57.9696 57.3696C57.9526 57.38 57.9331 57.3858 57.9131 57.3864Z" fill="white"/>
<path d="M56.4519 55.9414C54.8346 56.1922 53.1912 56.229 51.5642 56.051C48.6948 55.6768 45.7869 55.7115 42.9273 56.1541C41.6878 56.3623 40.4146 56.2101 39.2593 55.7156C39.6086 55.5855 39.9726 55.4986 40.343 55.4568C42.6838 55.1805 42.9602 53.8211 44.8863 53.4681C46.8125 53.1151 48.6026 54.0864 50.5287 53.775C52.4549 53.4637 53.905 55.0402 54.8658 55.3867C55.3134 55.5489 55.8947 55.6936 56.4519 55.9414Z" fill="white"/>
<path d="M170.216 70.1676C170.809 70.1676 171.289 69.6873 171.289 69.0948C171.289 68.5023 170.809 68.022 170.216 68.022C169.624 68.022 169.144 68.5023 169.144 69.0948C169.144 69.6873 169.624 70.1676 170.216 70.1676Z" fill="#9FE7E0"/>
<path d="M170.216 74.1149C170.809 74.1149 171.289 73.6346 171.289 73.0421C171.289 72.4496 170.809 71.9692 170.216 71.9692C169.624 71.9692 169.144 72.4496 169.144 73.0421C169.144 73.6346 169.624 74.1149 170.216 74.1149Z" fill="#9FE7E0"/>
<path d="M170.216 78.0631C170.809 78.0631 171.289 77.5828 171.289 76.9903C171.289 76.3978 170.809 75.9175 170.216 75.9175C169.624 75.9175 169.144 76.3978 169.144 76.9903C169.144 77.5828 169.624 78.0631 170.216 78.0631Z" fill="#9FE7E0"/>
<path d="M170.216 82.0104C170.809 82.0104 171.289 81.5301 171.289 80.9376C171.289 80.3451 170.809 79.8647 170.216 79.8647C169.624 79.8647 169.144 80.3451 169.144 80.9376C169.144 81.5301 169.624 82.0104 170.216 82.0104Z" fill="#9FE7E0"/>
<path d="M170.216 85.9586C170.809 85.9586 171.289 85.4783 171.289 84.8858C171.289 84.2933 170.809 83.813 170.216 83.813C169.624 83.813 169.144 84.2933 169.144 84.8858C169.144 85.4783 169.624 85.9586 170.216 85.9586Z" fill="#9FE7E0"/>
<path d="M170.216 89.9059C170.809 89.9059 171.289 89.4256 171.289 88.8331C171.289 88.2406 170.809 87.7603 170.216 87.7603C169.624 87.7603 169.144 88.2406 169.144 88.8331C169.144 89.4256 169.624 89.9059 170.216 89.9059Z" fill="#9FE7E0"/>
<path d="M170.216 93.8542C170.809 93.8542 171.289 93.3738 171.289 92.7813C171.289 92.1888 170.809 91.7085 170.216 91.7085C169.624 91.7085 169.144 92.1888 169.144 92.7813C169.144 93.3738 169.624 93.8542 170.216 93.8542Z" fill="#9FE7E0"/>
<path d="M166.417 70.1676C167.01 70.1676 167.49 69.6873 167.49 69.0948C167.49 68.5023 167.01 68.022 166.417 68.022C165.825 68.022 165.344 68.5023 165.344 69.0948C165.344 69.6873 165.825 70.1676 166.417 70.1676Z" fill="#9FE7E0"/>
<path d="M166.417 74.1149C167.01 74.1149 167.49 73.6346 167.49 73.0421C167.49 72.4496 167.01 71.9692 166.417 71.9692C165.825 71.9692 165.344 72.4496 165.344 73.0421C165.344 73.6346 165.825 74.1149 166.417 74.1149Z" fill="#9FE7E0"/>
<path d="M166.417 78.0631C167.01 78.0631 167.49 77.5828 167.49 76.9903C167.49 76.3978 167.01 75.9175 166.417 75.9175C165.825 75.9175 165.344 76.3978 165.344 76.9903C165.344 77.5828 165.825 78.0631 166.417 78.0631Z" fill="#9FE7E0"/>
<path d="M166.417 82.0104C167.01 82.0104 167.49 81.5301 167.49 80.9376C167.49 80.3451 167.01 79.8647 166.417 79.8647C165.825 79.8647 165.344 80.3451 165.344 80.9376C165.344 81.5301 165.825 82.0104 166.417 82.0104Z" fill="#9FE7E0"/>
<path d="M166.417 85.9586C167.01 85.9586 167.49 85.4783 167.49 84.8858C167.49 84.2933 167.01 83.813 166.417 83.813C165.825 83.813 165.344 84.2933 165.344 84.8858C165.344 85.4783 165.825 85.9586 166.417 85.9586Z" fill="#9FE7E0"/>
<path d="M166.417 89.9059C167.01 89.9059 167.49 89.4256 167.49 88.8331C167.49 88.2406 167.01 87.7603 166.417 87.7603C165.825 87.7603 165.344 88.2406 165.344 88.8331C165.344 89.4256 165.825 89.9059 166.417 89.9059Z" fill="#9FE7E0"/>
<path d="M166.417 93.8542C167.01 93.8542 167.49 93.3738 167.49 92.7813C167.49 92.1888 167.01 91.7085 166.417 91.7085C165.825 91.7085 165.344 92.1888 165.344 92.7813C165.344 93.3738 165.825 93.8542 166.417 93.8542Z" fill="#9FE7E0"/>
<path d="M162.618 70.1681C163.21 70.1681 163.691 69.6878 163.691 69.0953C163.691 68.5028 163.21 68.0225 162.618 68.0225C162.025 68.0225 161.545 68.5028 161.545 69.0953C161.545 69.6878 162.025 70.1681 162.618 70.1681Z" fill="#9FE7E0"/>
<path d="M162.618 74.1149C163.21 74.1149 163.69 73.6346 163.69 73.0421C163.69 72.4496 163.21 71.9692 162.618 71.9692C162.025 71.9692 161.545 72.4496 161.545 73.0421C161.545 73.6346 162.025 74.1149 162.618 74.1149Z" fill="#9FE7E0"/>
<path d="M162.618 78.0631C163.21 78.0631 163.69 77.5828 163.69 76.9903C163.69 76.3978 163.21 75.9175 162.618 75.9175C162.025 75.9175 161.545 76.3978 161.545 76.9903C161.545 77.5828 162.025 78.0631 162.618 78.0631Z" fill="#9FE7E0"/>
<path d="M162.618 82.0104C163.21 82.0104 163.69 81.5301 163.69 80.9376C163.69 80.3451 163.21 79.8647 162.618 79.8647C162.025 79.8647 161.545 80.3451 161.545 80.9376C161.545 81.5301 162.025 82.0104 162.618 82.0104Z" fill="#9FE7E0"/>
<path d="M162.618 85.9586C163.21 85.9586 163.69 85.4783 163.69 84.8858C163.69 84.2933 163.21 83.813 162.618 83.813C162.025 83.813 161.545 84.2933 161.545 84.8858C161.545 85.4783 162.025 85.9586 162.618 85.9586Z" fill="#9FE7E0"/>
<path d="M162.618 89.9059C163.21 89.9059 163.69 89.4256 163.69 88.8331C163.69 88.2406 163.21 87.7603 162.618 87.7603C162.025 87.7603 161.545 88.2406 161.545 88.8331C161.545 89.4256 162.025 89.9059 162.618 89.9059Z" fill="#9FE7E0"/>
<path d="M162.618 93.8542C163.21 93.8542 163.69 93.3738 163.69 92.7813C163.69 92.1888 163.21 91.7085 162.618 91.7085C162.025 91.7085 161.545 92.1888 161.545 92.7813C161.545 93.3738 162.025 93.8542 162.618 93.8542Z" fill="#9FE7E0"/>
<path d="M92.2708 148.521C92.2708 148.521 90.9062 143.424 87.5894 139.568C83.38 134.674 84.6101 130.465 88.3379 130.706C92.4832 130.973 93.0453 132.011 93.8537 129.166C94.6621 126.32 94.4603 113.855 103.049 113.835C111.637 113.815 105.274 130.373 101.634 136.064C97.9948 141.755 100.422 142.233 102.34 141.756C104.259 141.279 106.079 143.255 105.27 145.394C104.462 147.533 102.795 148.52 102.795 148.52L92.2708 148.521Z" fill="#459991"/>
<path opacity="0.1" d="M96.53 134.746C96.1062 133.216 94.6758 131.63 93.3705 130.437C93.3414 130.487 93.3112 130.535 93.281 130.579C94.6276 131.815 96.094 133.466 96.4134 135.024C95.5393 137.122 94.9503 139.083 94.9503 140.824C94.9531 143.415 95.2463 145.997 95.8243 148.522H96.0066C95.4261 145.997 95.1315 143.415 95.1283 140.824C95.1283 139.729 95.3656 138.541 95.764 137.286C96.0484 137.083 99.4722 134.677 103.008 133.638C103.041 133.575 103.073 133.512 103.105 133.448C99.8605 134.364 96.6884 136.451 95.8476 137.03C96.6062 134.733 97.8724 132.213 99.1851 129.602C99.2381 129.496 99.291 129.39 99.344 129.284C101.702 129.188 103.794 128.743 105.33 128.31C105.352 128.25 105.374 128.19 105.395 128.13C103.45 128.693 101.445 129.027 99.4224 129.126C99.6513 128.671 99.8796 128.213 100.107 127.754C100.565 127.701 103.661 127.319 105.931 126.566C105.951 126.503 105.971 126.441 105.991 126.378C103.872 127.101 100.894 127.501 100.188 127.589C101.423 125.083 102.572 122.556 103.213 120.15C103.632 120.133 105.831 119.982 107.324 118.616C107.32 118.543 107.315 118.472 107.31 118.4C105.912 119.781 103.761 119.97 103.253 119.994C103.284 119.872 103.317 119.748 103.346 119.624C103.967 116.997 104.132 115.179 104.092 113.926C104.032 113.915 103.971 113.905 103.91 113.896C103.954 115.132 103.795 116.947 103.168 119.593C102.907 120.664 102.574 121.715 102.17 122.74C101.559 122.56 97.7251 121.35 96.1136 118.896C96.086 118.958 96.0606 119.021 96.0331 119.084C97.7177 121.509 101.497 122.704 102.114 122.885C101.256 125.082 100.125 127.335 99.0171 129.539C98.1182 131.333 97.2393 133.081 96.53 134.746Z" fill="black"/>
<path opacity="0.1" d="M104.623 142.379C104.581 142.338 104.537 142.3 104.492 142.263C103.765 142.67 103.077 143.144 102.438 143.679C101.762 144.239 101.149 144.87 100.609 145.561C100.505 145.047 100.291 143.488 101.047 141.883C100.986 141.877 100.925 141.869 100.867 141.859C100.005 143.721 100.408 145.514 100.467 145.747C99.831 146.596 99.317 147.53 98.9404 148.522H99.1274C99.5999 147.29 100.484 145.668 102.131 144.167C102.712 144.295 103.305 144.362 103.9 144.365C104.406 144.365 104.955 144.312 105.459 144.145C105.455 144.092 105.45 144.035 105.443 143.98C104.248 144.385 102.741 144.134 102.273 144.039C102.367 143.955 102.463 143.872 102.563 143.789C103.202 143.254 103.892 142.781 104.623 142.379Z" fill="black"/>
<path opacity="0.1" d="M86.0155 131.336C87.3563 131.869 88.8205 132.744 89.9987 134.185C90.5639 134.874 91.0661 135.742 91.5138 136.707C90.7552 136.526 87.6583 135.828 85.3348 135.887C85.3533 135.938 85.3697 135.988 85.3878 136.039C87.8574 135.986 91.2018 136.789 91.5954 136.887C92.39 138.641 93.0061 140.701 93.4956 142.647C93.0162 142.485 91.5122 142.059 89.5225 142.266C89.5516 142.314 89.5802 142.363 89.6093 142.411C91.7416 142.204 93.2847 142.733 93.5411 142.829C93.6234 143.158 93.7015 143.482 93.7753 143.801C92.6153 143.408 91.3841 143.271 90.1661 143.398C90.1926 143.447 90.2191 143.496 90.2429 143.545C91.452 143.426 92.6724 143.575 93.8177 143.98C94.0433 144.954 94.2372 145.869 94.4057 146.666C94.5646 147.418 94.6986 148.047 94.8152 148.522H94.999C94.8809 148.046 94.7458 147.41 94.5826 146.638C93.8219 143.048 92.5494 137.04 90.1444 134.098C88.9667 132.658 87.5078 131.774 86.1617 131.229C86.113 131.263 86.0632 131.298 86.0155 131.336Z" fill="black"/>
<path d="M150.604 158.293C150.1 158.522 147.283 158.414 144.999 158.427C143.228 158.439 142.814 157.923 143.185 157.522C143.319 157.389 143.481 157.289 143.661 157.229C144.362 156.949 145.044 156.622 145.702 156.252V140.652H147.711L147.734 141.621L148.08 156.252C148.08 156.252 151.957 157.682 150.604 158.293Z" fill="#3C857E"/>
<path d="M150.604 158.293C150.1 158.522 147.283 158.414 144.999 158.427C143.228 158.438 142.814 157.922 143.185 157.522C145.141 158.085 148.427 157.843 148.427 157.573C148.427 157.246 147.691 157.122 147.446 156.671C147.2 156.22 147.136 141.66 147.136 141.66L147.738 141.618L148.084 156.248C148.084 156.248 151.957 157.682 150.604 158.293Z" fill="#34726C"/>
<path d="M157.828 143.186L131.045 142.485L135.904 117.388H162.393L157.828 143.186Z" fill="#34726C"/>
<path d="M157.349 142.629L131.721 141.959L136.37 117.943H161.718L157.349 142.629Z" fill="#5FBAB2"/>
<path d="M135.441 142.265C135.428 142.266 135.414 142.266 135.401 142.265C135.349 142.254 135.304 142.224 135.274 142.179C135.245 142.135 135.234 142.081 135.245 142.029L140.158 117.908C140.162 117.881 140.171 117.856 140.186 117.832C140.2 117.809 140.219 117.789 140.241 117.773C140.263 117.758 140.289 117.747 140.315 117.741C140.342 117.735 140.369 117.735 140.396 117.741C140.423 117.746 140.448 117.757 140.471 117.772C140.493 117.788 140.512 117.808 140.526 117.831C140.541 117.854 140.55 117.88 140.555 117.907C140.559 117.934 140.557 117.961 140.55 117.988L135.637 142.104C135.628 142.15 135.603 142.19 135.568 142.22C135.532 142.249 135.487 142.265 135.441 142.265Z" fill="#71D3CA"/>
<path d="M139.71 142.422C139.697 142.424 139.683 142.424 139.67 142.422C139.644 142.417 139.619 142.407 139.598 142.392C139.576 142.378 139.557 142.359 139.543 142.337C139.528 142.315 139.518 142.291 139.513 142.265C139.509 142.239 139.509 142.212 139.514 142.187L144.458 117.903C144.462 117.876 144.471 117.85 144.485 117.827C144.5 117.804 144.518 117.784 144.541 117.768C144.563 117.752 144.588 117.741 144.615 117.736C144.642 117.73 144.669 117.73 144.696 117.735C144.723 117.741 144.748 117.752 144.77 117.767C144.793 117.783 144.812 117.803 144.826 117.826C144.841 117.849 144.85 117.875 144.854 117.902C144.858 117.928 144.857 117.956 144.85 117.982L139.904 142.263C139.895 142.307 139.871 142.348 139.836 142.377C139.8 142.406 139.756 142.422 139.71 142.422Z" fill="#71D3CA"/>
<path d="M143.996 142.499C143.983 142.501 143.969 142.501 143.956 142.499C143.93 142.494 143.906 142.484 143.884 142.47C143.862 142.455 143.843 142.436 143.829 142.414C143.814 142.392 143.804 142.368 143.799 142.342C143.794 142.316 143.795 142.29 143.8 142.264L148.76 117.908C148.764 117.881 148.774 117.856 148.788 117.832C148.802 117.809 148.821 117.789 148.843 117.773C148.866 117.758 148.891 117.747 148.917 117.741C148.944 117.735 148.972 117.735 148.998 117.741C149.025 117.746 149.05 117.757 149.073 117.772C149.095 117.788 149.114 117.808 149.129 117.831C149.143 117.854 149.153 117.88 149.157 117.907C149.161 117.934 149.159 117.961 149.153 117.988L144.192 142.343C144.182 142.388 144.157 142.427 144.121 142.456C144.086 142.484 144.041 142.5 143.996 142.499Z" fill="#71D3CA"/>
<path d="M148.298 142.499C148.284 142.501 148.271 142.501 148.257 142.499C148.231 142.494 148.207 142.484 148.185 142.469C148.163 142.455 148.145 142.436 148.13 142.414C148.116 142.392 148.106 142.368 148.101 142.342C148.096 142.316 148.096 142.289 148.102 142.264L153.062 117.908C153.075 117.859 153.107 117.816 153.15 117.789C153.193 117.762 153.246 117.753 153.296 117.763C153.346 117.773 153.39 117.802 153.42 117.844C153.449 117.885 153.462 117.937 153.454 117.988L148.494 142.343C148.484 142.387 148.459 142.427 148.423 142.456C148.388 142.484 148.343 142.499 148.298 142.499Z" fill="#71D3CA"/>
<path d="M152.558 142.704C152.544 142.706 152.53 142.706 152.517 142.704C152.465 142.694 152.419 142.663 152.39 142.619C152.361 142.575 152.35 142.521 152.36 142.469L157.378 117.836C157.389 117.784 157.42 117.738 157.464 117.709C157.508 117.68 157.562 117.669 157.615 117.68C157.64 117.685 157.665 117.695 157.687 117.71C157.709 117.725 157.727 117.744 157.742 117.766C157.756 117.788 157.766 117.812 157.771 117.838C157.776 117.864 157.775 117.891 157.77 117.916L152.753 142.544C152.744 142.589 152.719 142.63 152.684 142.659C152.648 142.688 152.604 142.704 152.558 142.704Z" fill="#71D3CA"/>
<path d="M158.194 138.057H132.87C132.817 138.057 132.766 138.036 132.729 137.999C132.691 137.961 132.67 137.911 132.67 137.858C132.67 137.805 132.691 137.754 132.729 137.717C132.766 137.68 132.817 137.659 132.87 137.659H158.194C158.247 137.659 158.298 137.68 158.335 137.717C158.372 137.754 158.393 137.805 158.393 137.858C158.393 137.911 158.372 137.961 158.335 137.999C158.298 138.036 158.247 138.057 158.194 138.057Z" fill="#71D3CA"/>
<path d="M158.9 134.059H133.252C133.199 134.059 133.148 134.038 133.111 134.001C133.074 133.964 133.053 133.913 133.053 133.86C133.053 133.807 133.074 133.757 133.111 133.719C133.148 133.682 133.199 133.661 133.252 133.661H158.9C158.953 133.661 159.004 133.682 159.041 133.719C159.078 133.757 159.099 133.807 159.099 133.86C159.099 133.913 159.078 133.964 159.041 134.001C159.004 134.038 158.953 134.059 158.9 134.059Z" fill="#71D3CA"/>
<path d="M159.556 130.067H134.065C134.015 130.063 133.968 130.041 133.934 130.004C133.9 129.967 133.881 129.919 133.881 129.869C133.881 129.818 133.9 129.77 133.934 129.733C133.968 129.696 134.015 129.674 134.065 129.67H159.565C159.592 129.668 159.619 129.672 159.645 129.681C159.671 129.69 159.695 129.704 159.715 129.723C159.735 129.741 159.751 129.764 159.762 129.789C159.773 129.814 159.778 129.841 159.778 129.869C159.778 129.896 159.773 129.923 159.762 129.948C159.751 129.973 159.735 129.996 159.715 130.014C159.695 130.033 159.671 130.047 159.645 130.056C159.619 130.066 159.592 130.069 159.565 130.067H159.556Z" fill="#71D3CA"/>
<path d="M160.307 126.073H134.834C134.782 126.073 134.731 126.052 134.694 126.015C134.656 125.977 134.635 125.927 134.635 125.874C134.635 125.821 134.656 125.77 134.694 125.733C134.731 125.696 134.782 125.675 134.834 125.675H160.307C160.36 125.675 160.41 125.696 160.448 125.733C160.485 125.77 160.506 125.821 160.506 125.874C160.506 125.927 160.485 125.977 160.448 126.015C160.41 126.052 160.36 126.073 160.307 126.073Z" fill="#71D3CA"/>
<path d="M160.913 122.078H135.516C135.463 122.078 135.412 122.057 135.375 122.02C135.338 121.983 135.317 121.932 135.317 121.879C135.317 121.826 135.338 121.776 135.375 121.738C135.412 121.701 135.463 121.68 135.516 121.68H160.913C160.966 121.68 161.017 121.701 161.054 121.738C161.092 121.776 161.113 121.826 161.113 121.879C161.113 121.932 161.092 121.983 161.054 122.02C161.017 122.057 160.966 122.078 160.913 122.078Z" fill="#71D3CA"/>
<path opacity="0.3" d="M137.335 118.841C136.568 119.235 135.16 127.7 135.429 128.031C135.698 128.361 137.853 121.656 138.847 120.725C139.841 119.794 145.268 119.976 146.013 119.607C146.759 119.239 146.821 118.779 146.821 118.779C146.821 118.779 138.101 118.448 137.335 118.841Z" fill="white"/>
<path opacity="0.3" d="M155.658 141.242C156.434 140.868 158.054 132.441 157.793 132.102C157.533 131.764 155.21 138.419 154.193 139.321C153.177 140.224 147.755 139.905 147 140.259C146.245 140.613 146.172 141.066 146.172 141.066C146.172 141.066 154.881 141.615 155.658 141.242Z" fill="white"/>
<path d="M110.004 159.207C110.614 159.485 114.021 159.354 116.785 159.369C118.927 159.384 119.427 158.759 118.979 158.275C118.817 158.114 118.62 157.993 118.403 157.92C117.555 157.581 116.73 157.186 115.934 156.738V137.868H113.503L113.476 139.04L113.057 156.738C113.057 156.738 108.367 158.468 110.004 159.207Z" fill="#3C857E"/>
<path d="M110.004 159.207C110.614 159.484 114.021 159.354 116.785 159.369C118.927 159.383 119.427 158.759 118.979 158.275C116.612 158.956 112.637 158.663 112.637 158.337C112.637 157.941 113.528 157.791 113.824 157.245C114.121 156.7 114.199 139.087 114.199 139.087L113.471 139.036L113.052 156.734C113.052 156.734 108.367 158.468 110.004 159.207Z" fill="#34726C"/>
<path d="M101.265 140.933L133.664 140.084L127.786 109.725H95.743L101.265 140.933Z" fill="#34726C"/>
<path d="M101.845 140.259L132.846 139.449L127.223 110.397H96.5597L101.845 140.259Z" fill="#5FBAB2"/>
<path d="M128.347 139.818C128.363 139.819 128.379 139.819 128.395 139.818C128.457 139.805 128.513 139.768 128.548 139.715C128.584 139.661 128.596 139.596 128.584 139.533L122.64 110.355C122.635 110.322 122.624 110.291 122.607 110.263C122.59 110.234 122.567 110.21 122.54 110.191C122.513 110.172 122.482 110.159 122.45 110.152C122.418 110.145 122.384 110.145 122.352 110.152C122.32 110.158 122.289 110.171 122.262 110.19C122.235 110.209 122.212 110.233 122.195 110.261C122.177 110.289 122.166 110.32 122.161 110.353C122.156 110.385 122.157 110.419 122.166 110.45L128.109 139.624C128.12 139.679 128.15 139.728 128.193 139.763C128.237 139.799 128.291 139.818 128.347 139.818Z" fill="#71D3CA"/>
<path d="M123.182 140.009C123.198 140.011 123.215 140.011 123.231 140.009C123.262 140.003 123.292 139.991 123.318 139.973C123.345 139.955 123.367 139.933 123.385 139.906C123.402 139.879 123.414 139.85 123.42 139.819C123.426 139.787 123.426 139.755 123.419 139.724L117.439 110.349C117.434 110.316 117.423 110.285 117.406 110.257C117.389 110.229 117.366 110.204 117.339 110.185C117.312 110.166 117.281 110.153 117.249 110.146C117.217 110.14 117.183 110.139 117.151 110.146C117.119 110.152 117.088 110.165 117.061 110.184C117.034 110.203 117.011 110.227 116.994 110.255C116.976 110.283 116.965 110.314 116.96 110.347C116.955 110.379 116.956 110.413 116.965 110.445L122.947 139.816C122.959 139.87 122.988 139.919 123.031 139.954C123.073 139.989 123.127 140.009 123.182 140.009Z" fill="#71D3CA"/>
<path d="M117.998 140.102C118.014 140.104 118.03 140.104 118.046 140.102C118.077 140.096 118.106 140.083 118.133 140.066C118.159 140.048 118.182 140.025 118.2 139.999C118.217 139.972 118.229 139.943 118.235 139.911C118.241 139.88 118.241 139.848 118.235 139.817L112.234 110.355C112.229 110.322 112.218 110.291 112.201 110.263C112.184 110.234 112.161 110.21 112.134 110.191C112.107 110.172 112.076 110.159 112.044 110.152C112.012 110.145 111.978 110.145 111.946 110.152C111.914 110.158 111.883 110.171 111.856 110.19C111.829 110.209 111.806 110.233 111.789 110.261C111.771 110.289 111.76 110.32 111.755 110.353C111.75 110.385 111.751 110.419 111.76 110.45L117.76 139.913C117.773 139.967 117.803 140.015 117.846 140.049C117.889 140.083 117.942 140.102 117.998 140.102Z" fill="#71D3CA"/>
<path d="M112.794 140.101C112.81 140.103 112.827 140.103 112.843 140.101C112.874 140.095 112.904 140.083 112.93 140.065C112.957 140.048 112.979 140.025 112.997 139.998C113.014 139.972 113.026 139.942 113.032 139.911C113.038 139.88 113.038 139.848 113.031 139.817L107.03 110.354C107.015 110.294 106.977 110.243 106.924 110.21C106.872 110.177 106.808 110.166 106.748 110.178C106.687 110.19 106.633 110.225 106.598 110.276C106.562 110.327 106.547 110.389 106.556 110.45L112.557 139.912C112.569 139.966 112.599 140.014 112.642 140.049C112.685 140.083 112.739 140.102 112.794 140.101Z" fill="#71D3CA"/>
<path d="M107.641 140.35C107.657 140.352 107.674 140.352 107.69 140.35C107.753 140.337 107.808 140.3 107.844 140.246C107.879 140.193 107.892 140.128 107.879 140.065L101.81 110.267C101.797 110.204 101.759 110.149 101.706 110.114C101.652 110.078 101.587 110.065 101.524 110.078C101.492 110.084 101.463 110.097 101.436 110.115C101.41 110.132 101.387 110.155 101.37 110.182C101.352 110.209 101.34 110.238 101.334 110.27C101.329 110.301 101.329 110.333 101.336 110.364L107.405 140.155C107.416 140.21 107.445 140.259 107.488 140.295C107.531 140.33 107.585 140.35 107.641 140.35Z" fill="#71D3CA"/>
<path d="M100.822 134.729H131.457C131.521 134.729 131.582 134.703 131.628 134.658C131.673 134.613 131.698 134.552 131.698 134.488C131.698 134.424 131.673 134.363 131.628 134.318C131.582 134.272 131.521 134.247 131.457 134.247H100.822C100.758 134.247 100.697 134.272 100.652 134.318C100.607 134.363 100.581 134.424 100.581 134.488C100.581 134.552 100.607 134.613 100.652 134.658C100.697 134.703 100.758 134.729 100.822 134.729Z" fill="#71D3CA"/>
<path d="M99.9682 129.892H130.994C131.058 129.892 131.12 129.867 131.165 129.822C131.21 129.777 131.235 129.715 131.235 129.652C131.235 129.588 131.21 129.526 131.165 129.481C131.12 129.436 131.058 129.411 130.994 129.411H99.9682C99.9043 129.411 99.843 129.436 99.7978 129.481C99.7526 129.526 99.7272 129.588 99.7272 129.652C99.7272 129.715 99.7526 129.777 99.7978 129.822C99.843 129.867 99.9043 129.892 99.9682 129.892Z" fill="#71D3CA"/>
<path d="M99.175 125.063H130.011C130.071 125.059 130.128 125.031 130.169 124.987C130.211 124.942 130.234 124.884 130.234 124.823C130.234 124.762 130.211 124.704 130.169 124.659C130.128 124.614 130.071 124.587 130.011 124.583H99.1646C99.1315 124.58 99.0983 124.585 99.0671 124.596C99.0358 124.607 99.0071 124.624 98.9828 124.646C98.9586 124.669 98.9392 124.696 98.9259 124.727C98.9127 124.757 98.9059 124.79 98.9059 124.823C98.9059 124.856 98.9127 124.889 98.9259 124.919C98.9392 124.95 98.9586 124.977 98.9828 124.999C99.0071 125.022 99.0358 125.039 99.0671 125.05C99.0983 125.061 99.1315 125.066 99.1646 125.063H99.175Z" fill="#71D3CA"/>
<path d="M98.2665 120.232H129.08C129.144 120.232 129.205 120.206 129.251 120.161C129.296 120.116 129.321 120.055 129.321 119.991C129.321 119.927 129.296 119.866 129.251 119.821C129.205 119.775 129.144 119.75 129.08 119.75H98.2665C98.2026 119.75 98.1413 119.775 98.0961 119.821C98.0509 119.866 98.0255 119.927 98.0255 119.991C98.0255 120.055 98.0509 120.116 98.0961 120.161C98.1413 120.206 98.2026 120.232 98.2665 120.232Z" fill="#71D3CA"/>
<path d="M97.5328 115.399H128.256C128.32 115.399 128.381 115.373 128.426 115.328C128.471 115.283 128.497 115.222 128.497 115.158C128.497 115.094 128.471 115.033 128.426 114.988C128.381 114.942 128.32 114.917 128.256 114.917H97.5328C97.4689 114.917 97.4075 114.942 97.3623 114.988C97.3171 115.033 97.2917 115.094 97.2917 115.158C97.2917 115.222 97.3171 115.283 97.3623 115.328C97.4075 115.373 97.4689 115.399 97.5328 115.399Z" fill="#71D3CA"/>
<path opacity="0.3" d="M126.055 111.483C126.983 111.96 128.686 122.2 128.361 122.6C128.035 123 125.429 114.889 124.226 113.762C123.024 112.636 116.459 112.856 115.557 112.41C114.655 111.965 114.58 111.408 114.58 111.408C114.58 111.408 125.128 111.008 126.055 111.483Z" fill="white"/>
<path opacity="0.3" d="M103.89 138.581C102.952 138.129 100.992 127.935 101.307 127.525C101.622 127.116 104.432 135.166 105.662 136.258C106.892 137.35 113.45 136.964 114.363 137.392C115.277 137.821 115.365 138.369 115.365 138.369C115.365 138.369 104.83 139.033 103.89 138.581Z" fill="white"/>
<path d="M38.7321 118.612C38.7321 118.612 37.3338 118.167 37.0555 118.187C37.0555 118.187 36.8685 118.187 36.9398 118.365C37.011 118.543 38.6386 118.97 38.6386 118.97L38.7321 118.612Z" fill="#FF8C79"/>
<path d="M38.594 119.001C38.594 119.001 37.1713 118.645 36.8975 118.678C36.8975 118.678 36.7104 118.692 36.7928 118.863C36.8752 119.035 38.525 119.366 38.525 119.366L38.594 119.001Z" fill="#FF8C79"/>
<path d="M38.6497 119.511C38.6497 119.511 37.227 119.155 36.9509 119.188C36.9287 119.187 36.9067 119.193 36.8874 119.203C36.868 119.214 36.8521 119.23 36.8412 119.25C36.8304 119.269 36.8251 119.291 36.826 119.313C36.8269 119.335 36.8339 119.357 36.8462 119.375C36.942 119.573 38.5785 119.876 38.5785 119.876L38.6497 119.511Z" fill="#FF8C79"/>
<path d="M45.24 125.541C45.24 125.677 45.2623 125.806 45.2778 125.924C45.3001 126.089 45.3291 126.233 45.3536 126.345C45.3892 126.509 45.4203 126.605 45.4203 126.605C45.5406 126.569 45.6586 126.536 45.7744 126.498C45.9258 126.454 46.0727 126.405 46.2196 126.356L46.3065 126.325C46.4223 126.285 46.5291 126.247 46.6494 126.204C46.7696 126.162 46.9076 126.109 47.0345 126.06C47.0562 126.053 47.0771 126.044 47.0969 126.033C47.2238 125.986 47.3507 125.935 47.4731 125.884C47.8227 125.737 48.1544 125.584 48.4728 125.439L48.6955 125.33L48.9181 125.219C48.9871 125.181 49.0561 125.145 49.1252 125.105C49.7154 124.785 50.281 124.421 50.8173 124.017C50.8907 123.964 50.962 123.91 51.0288 123.857L51.1334 123.772C51.2002 123.721 51.2626 123.67 51.3227 123.619L51.5231 123.447L51.6923 123.294C51.7524 123.238 51.8103 123.185 51.8637 123.131C51.9171 123.078 51.9728 123.024 52.024 122.973C52.6919 122.286 53.115 121.638 53.2575 121.12C53.6738 119.622 52.5517 119.965 52.5517 119.965C51.719 119.644 53.4423 117.739 51.7168 118.391C48.5997 119.555 46.4979 122.644 45.7387 123.396L45.5896 123.545C45.3072 124.171 45.187 124.857 45.24 125.541Z" fill="#E2581D"/>
<path d="M49.7241 122.749L49.3634 124.952L48.74 125.292L49.0762 124.219C49.2899 123.539 49.5504 123.249 49.7241 122.749Z" fill="#8A3511"/>
<path d="M38.4805 119.956C38.4805 119.956 37.305 119.662 37.0779 119.689C37.0779 119.689 36.922 119.7 36.991 119.842C37.06 119.985 38.4226 120.258 38.4226 120.258L38.4805 119.956Z" fill="#FF8C79"/>
<path d="M37.9884 120.034C41.0565 123.903 45.4181 126.609 45.4181 126.609C45.5652 126.255 45.6821 125.889 45.7676 125.514C45.7832 125.443 45.7966 125.372 45.8099 125.305C45.9408 124.733 45.9537 124.14 45.8478 123.563C45.8099 123.502 45.7691 123.444 45.7253 123.387C44.5364 121.787 39.4534 118.131 39.4534 118.131C38.9628 118.432 38.5591 118.855 38.2823 119.359C38.2422 119.43 38.2066 119.499 38.1754 119.566C38.0996 119.716 38.037 119.873 37.9884 120.034Z" fill="#E2581D"/>
<path opacity="0.2" d="M37.9884 120.033C41.0564 123.903 45.4181 126.609 45.4181 126.609C45.5383 126.574 45.6563 126.54 45.7721 126.502C45.9235 126.458 46.0704 126.409 46.2174 126.36L46.3042 126.329C46.42 126.289 46.5268 126.251 46.6471 126.209C46.7673 126.166 46.9053 126.113 47.0322 126.064C47.0539 126.057 47.0748 126.049 47.0946 126.037C47.2215 125.991 47.3484 125.939 47.4708 125.888C47.8204 125.741 48.1521 125.588 48.4705 125.443L48.6932 125.334L48.9158 125.223L49.1229 125.109C49.7131 124.789 50.2787 124.425 50.815 124.021C50.8885 123.968 50.9597 123.914 51.0265 123.861L51.1311 123.776C51.1979 123.725 51.2603 123.674 51.3204 123.623L51.5208 123.452L51.69 123.298C51.7501 123.242 51.808 123.189 51.8614 123.136C51.9148 123.082 51.9705 123.029 52.0217 122.978L51.828 122.018C50.148 122.561 48.5712 123.381 47.1636 124.446C46.8608 124.669 45.4492 125.236 44.837 124.945C43.7237 124.415 40.4353 121.529 38.1843 119.588C38.1066 119.731 38.0411 119.88 37.9884 120.033Z" fill="black"/>
<path d="M44.4196 158.226H36.3593L38.1726 83.6362H42.6053L44.4196 158.226Z" fill="#3C857E"/>
<path d="M62.3814 161.929C63.419 161.707 64.8974 159.82 64.815 159.442C64.7663 159.245 64.6914 159.057 64.5923 158.881C64.4632 158.638 64.3318 158.436 64.3318 158.436C64.2431 158.426 64.1534 158.426 64.0647 158.436C63.8902 158.445 63.7222 158.505 63.5805 158.607C63.4388 158.709 63.3294 158.85 63.2654 159.012C63.2759 159.026 63.2842 159.042 63.2899 159.059C63.3188 159.139 63.3322 159.319 63.1719 159.697C63.0115 160.076 62.3302 161.091 62.1477 161.536C62.1314 161.572 62.1187 161.61 62.1098 161.649C62.0185 162.027 62.3814 161.929 62.3814 161.929Z" fill="#FF8C79"/>
<path d="M62.3792 161.921C63.4167 161.698 64.8973 159.813 64.8172 159.435C64.7671 159.239 64.6923 159.051 64.5945 158.874C64.5411 158.772 64.4854 158.678 64.4409 158.605C64.1736 159.178 63.6949 159.625 63.105 159.853C62.8646 160.318 62.3146 161.142 62.1521 161.54C62.1358 161.577 62.1231 161.615 62.1143 161.654C62.0163 162.019 62.3792 161.921 62.3792 161.921Z" fill="#2E2E2E"/>
<path d="M50.3719 161.175C51.4362 161.231 53.4266 159.804 53.4645 159.419C53.4719 159.218 53.4532 159.017 53.4088 158.821C53.3888 158.709 53.3643 158.598 53.342 158.522C53.3197 158.447 53.293 158.333 53.293 158.333C53.2104 158.301 53.1246 158.277 53.037 158.262C52.8634 158.227 52.6835 158.24 52.5171 158.301C52.3508 158.362 52.2047 158.468 52.0952 158.607C52.102 158.623 52.1057 158.641 52.1063 158.658C52.1063 158.743 52.0663 158.918 51.7991 159.241C51.7679 159.279 51.7278 159.321 51.6833 159.368C51.3115 159.751 50.5345 160.398 50.2562 160.739C50.2303 160.769 50.2072 160.802 50.1871 160.837C49.9934 161.175 50.3719 161.175 50.3719 161.175Z" fill="#FF8C79"/>
<path d="M50.372 161.176C51.4362 161.231 53.4267 159.805 53.4645 159.42C53.4719 159.219 53.4532 159.017 53.4088 158.821C53.3888 158.71 53.3643 158.599 53.3421 158.523C52.9152 159.003 52.3247 159.308 51.6856 159.377C51.3138 159.76 50.5367 160.408 50.2584 160.748C50.2325 160.779 50.2094 160.812 50.1894 160.846C49.9935 161.176 50.372 161.176 50.372 161.176Z" fill="#2E2E2E"/>
<path d="M51.9861 158.409C52.0307 158.491 52.0685 158.558 52.0953 158.605C52.102 158.621 52.1058 158.638 52.1064 158.656H52.1242C52.4488 158.577 52.7571 158.441 53.0348 158.255C53.1253 158.194 53.2057 158.119 53.273 158.033L51.9861 158.409Z" fill="#2E2E2E"/>
<path d="M46.1328 146.615C46.1083 148.54 48.9003 155.294 49.9178 157.67C50.1404 158.196 50.2762 158.509 50.2762 158.509C51.2402 158.688 52.2359 158.564 53.1261 158.153C53.5266 157.985 53.9068 157.773 54.2594 157.519L51.6166 146.838C51.4939 146.6 51.3001 146.406 51.0622 146.283C50.952 146.218 50.8383 146.158 50.7215 146.105C50.1793 145.872 49.6145 145.694 49.0361 145.576C47.4575 145.218 46.1328 146.615 46.1328 146.615Z" fill="#404040"/>
<path d="M46.1328 146.615C47.5867 147.661 49.3923 147.472 50.5212 147.189L50.8217 147.109C51.0893 147.033 51.3518 146.94 51.6077 146.831C52.148 145.937 52.6429 145.016 53.0905 144.072C53.4668 143.284 53.8252 142.458 54.1503 141.624C55.3169 138.629 56.025 135.564 55.455 133.924C54.5199 131.254 48.6443 131.819 48.6443 131.819C47.8399 134.746 47.2139 137.718 46.7696 140.72C46.4668 142.799 46.2597 144.77 46.1328 146.615Z" fill="#404040"/>
<path opacity="0.1" d="M49.9111 157.677C50.1337 158.202 50.2695 158.516 50.2695 158.516C51.2335 158.695 52.2292 158.57 53.1194 158.16C53.5226 157.99 53.905 157.775 54.2593 157.519L51.6165 146.837C52.1569 145.943 52.6517 145.022 53.0994 144.078C53.4756 143.29 53.8341 142.465 54.1591 141.63L50.2005 137.217C50.2161 137.54 49.9022 137.542 49.92 138.185C49.9423 138.998 50.294 140.517 50.3163 141.537C50.3653 143.864 50.4076 146.297 50.4321 146.835C50.4855 148.117 51.6165 151.544 51.4429 154.228C51.3026 156.282 50.4922 157.245 49.9111 157.677Z" fill="black"/>
<path d="M54.335 148.932V148.961C54.9807 150.845 59.8098 156.593 61.5443 158.618C61.9272 159.064 62.161 159.335 62.161 159.335C63.1214 159.281 64.0389 158.919 64.7771 158.302C65.1102 158.044 65.4094 157.745 65.6676 157.412L59.6562 147.803C59.6411 147.785 59.6247 147.768 59.6073 147.752L59.585 147.73L59.5605 147.71C59.3783 147.567 59.1682 147.464 58.9438 147.407C58.8173 147.37 58.6887 147.34 58.5586 147.318L58.356 147.287C57.8295 147.223 57.2987 147.2 56.7685 147.218C55.1499 147.263 54.335 148.932 54.335 148.932Z" fill="#404040"/>
<path d="M48.3615 135.177C49.0004 136.988 53.6203 147.336 54.3439 148.961L54.4397 149.17C55.6961 149.355 56.9751 149.04 58.002 148.293C58.1779 148.171 58.3404 148.046 58.4829 147.928C58.5233 147.898 58.562 147.866 58.5987 147.832C58.6766 147.766 58.7478 147.699 58.8213 147.636C59.0996 147.374 59.4403 147.608 59.5627 147.71C59.5712 147.716 59.5794 147.723 59.5872 147.73C59.5963 147.736 59.6045 147.744 59.6117 147.752C59.5894 146.831 59.2466 145.106 59.1063 144.029C58.995 143.184 58.7634 141.457 58.6387 140.584C58.4161 139.087 58.3204 136.61 58.0332 134.563L58.0198 134.46C57.9693 133.969 57.8494 133.487 57.6636 133.029C57.2183 132.126 56.0449 134.627 55.495 134.164C53.1862 132.217 48.3615 135.177 48.3615 135.177Z" fill="#404040"/>
<path opacity="0.3" d="M55.5017 149.484H55.4839C55.4719 149.479 55.4621 149.47 55.4567 149.458C55.4512 149.447 55.4506 149.433 55.455 149.421C55.7422 148.689 55.4416 148.266 55.4371 148.262C55.4333 148.257 55.4306 148.251 55.4291 148.244C55.4276 148.238 55.4274 148.232 55.4284 148.225C55.4295 148.219 55.4317 148.213 55.4352 148.207C55.4386 148.202 55.443 148.197 55.4483 148.193C55.4536 148.189 55.4595 148.186 55.4658 148.185C55.4721 148.183 55.4787 148.183 55.4851 148.184C55.4915 148.185 55.4977 148.188 55.5032 148.191C55.5087 148.194 55.5135 148.199 55.5173 148.204C55.5307 148.224 55.8513 148.676 55.5463 149.455C55.5429 149.464 55.5368 149.471 55.5288 149.477C55.5207 149.482 55.5113 149.484 55.5017 149.484Z" fill="black"/>
<path opacity="0.1" d="M56.6171 135.079C56.6171 135.079 56.8108 137.694 57.0401 139.598C57.1537 140.544 57.5968 147.147 57.806 147.799C57.8313 147.877 57.8602 147.957 57.8929 148.039C57.9263 148.121 57.9641 148.208 58.0064 148.297C58.8703 150.158 61.2481 152.545 61.896 154.944C62.4348 156.947 61.9717 158.06 61.5554 158.623C61.9384 159.068 62.1721 159.339 62.1721 159.339C63.1337 159.286 64.0522 158.923 64.7904 158.304C65.119 158.046 65.4137 157.747 65.6677 157.414L59.6562 147.805C59.6411 147.787 59.6247 147.77 59.6073 147.754C59.585 146.833 59.2421 145.108 59.1018 144.031C58.9905 143.186 58.759 141.459 58.6343 140.586C58.4116 139.089 58.3159 136.612 58.0287 134.565L58.0153 134.462L56.6171 135.079Z" fill="black"/>
<path d="M58.0176 119.715C58.0176 119.715 56.5214 118.309 55.6464 117.804C55.4565 117.693 55.246 117.622 55.0279 117.596C54.8097 117.569 54.5884 117.587 54.3774 117.648C54.3774 117.648 53.725 117.603 51.8347 118.623C51.8347 118.623 50.4165 120.223 50.7794 122.101C51.1423 123.979 49.301 134.881 49.301 134.881C49.301 134.881 54.384 135.548 57.8907 134.465C57.8907 134.465 57.1894 131.765 57.8261 127.397C57.8217 127.397 59.8856 120.63 58.0176 119.715Z" fill="#FF8C79"/>
<path d="M53.6025 118.302L55.4148 118.006L55.0096 116.164L53.5691 116.622L53.5758 116.951V117.009L53.5802 117.194L53.5824 117.292L53.6025 118.302Z" fill="#FF8C79"/>
<path d="M53.5914 117.194C53.7974 117.182 53.9985 117.127 54.1815 117.032C54.3645 116.936 54.5254 116.804 54.6535 116.642C54.5352 116.739 54.4068 116.824 54.2705 116.894C54.0605 117.003 53.8215 117.044 53.587 117.011L53.5914 117.194Z" fill="#2E2E2E"/>
<path d="M52.8946 114.793C52.5294 115.741 52.6719 116.676 53.3955 116.961C54.1191 117.245 54.8917 116.651 55.259 115.701C55.6264 114.751 55.4572 113.803 54.7202 113.52C53.9833 113.238 53.2619 113.841 52.8946 114.793Z" fill="#FF8C79"/>
<path d="M47.8137 135.321C48.7757 135.147 49.7567 135.103 50.7304 135.19C52.5672 135.381 54.8537 136.04 56.9422 135.139C57.3602 134.942 57.7655 134.719 58.1556 134.471C58.1556 134.471 57.5344 130.508 57.2806 128.387C56.9867 125.919 56.7663 123.338 56.9288 122C57.0007 121.172 57.1498 120.353 57.3741 119.553C57.5144 119.141 57.6123 119.145 57.6301 119.15C57.3018 118.878 56.9584 118.626 56.6015 118.393C56.488 118.324 56.3789 118.26 56.2787 118.211C56.2787 118.211 54.2749 119.168 52.565 118.173C52.0672 118.241 51.5842 118.392 51.1356 118.618L49.9311 121.8L49.0182 126.854L47.8137 135.321Z" fill="#E2581D"/>
<path d="M53.9165 114.306C54.2059 114.528 54.4019 114.838 54.3618 115.109C54.2883 115.554 54.3907 115.676 54.4976 115.67C54.6045 115.663 54.6846 115.405 54.6846 115.405C54.6846 115.405 54.9986 115.336 54.9496 115.612C54.9393 115.702 54.9483 115.794 54.9759 115.881C55.0036 115.967 55.0492 116.047 55.1099 116.115C55.4105 115.973 55.6759 115.766 55.8869 115.51C55.3347 114.987 54.6802 114.664 53.9165 114.306Z" fill="#2E2E2E"/>
<path d="M54.2237 112.928C53.9677 113.05 53.7317 113.208 53.4912 113.102C52.899 112.837 52.85 112.748 52.6964 113.102C52.5427 113.455 52.7498 113.949 53.3153 114.038C53.5344 114.077 53.7408 114.169 53.9165 114.305C54.6802 114.664 55.3347 114.986 55.8802 115.509C56.1745 115.156 56.3184 114.701 56.281 114.243C56.2008 113.099 55.3681 112.95 55.0297 112.806C54.787 112.701 54.4263 112.832 54.2237 112.928Z" fill="#E2581D"/>
<path d="M54.6134 115.805C54.6539 115.851 54.7073 115.883 54.7665 115.897C54.8256 115.911 54.8878 115.907 54.9446 115.886C55.0015 115.864 55.0504 115.826 55.0849 115.775C55.1195 115.725 55.1379 115.666 55.1379 115.605C55.1379 115.544 55.1195 115.485 55.0849 115.435C55.0504 115.385 55.0015 115.346 54.9446 115.324C54.8878 115.303 54.8256 115.299 54.7665 115.313C54.7073 115.328 54.6539 115.359 54.6134 115.405C54.5606 115.458 54.531 115.53 54.531 115.605C54.531 115.68 54.5606 115.752 54.6134 115.805Z" fill="#FF8C79"/>
<path d="M56.6817 138.023C56.6817 138.023 57.6925 136.156 58.6031 134.756C59.5138 133.357 59.8589 129.211 59.2466 127.635C59.2466 127.635 58.2914 126.705 57.6881 128.939C57.0847 131.174 56.7975 134.968 56.5503 135.92C56.4028 136.494 56.1876 137.048 55.9091 137.571C55.9091 137.571 55.8668 138.284 56.6817 138.023Z" fill="#FF8C79"/>
<path d="M60.4445 127.083C60.4445 127.099 60.4445 127.375 60.4445 127.751V127.778C60.4393 128.442 60.3999 129.106 60.3264 129.767C60.1044 131.152 59.7663 132.516 59.3156 133.844C58.9312 134.965 58.4853 136.063 57.9798 137.135C57.8147 137.179 57.6464 137.21 57.4766 137.229C57.4595 137.228 57.4424 137.228 57.4254 137.229H57.3764L57.2428 137.24H57.1248C56.7891 137.248 56.4541 137.205 56.1318 137.111C55.9548 137.054 55.7841 136.979 55.6219 136.888C55.6219 136.888 56.4435 132.03 57.3296 128.768C57.3608 128.646 57.3942 128.525 57.4276 128.407C57.4432 128.354 57.4588 128.298 57.4744 128.247C57.5634 127.936 57.3853 127.916 57.4744 127.638C57.5634 127.359 57.8796 126.819 58.0065 126.538C58.2403 126.009 58.7034 126.013 58.828 125.811C58.828 125.811 59.0507 125.951 59.3646 126.189C59.5093 126.296 59.6763 126.411 59.8544 126.563C60.064 126.717 60.264 126.885 60.4534 127.063L60.4445 127.083Z" fill="#E2581D"/>
<path d="M60.4399 127.079C60.4399 127.301 60.4243 127.535 60.4065 127.771C60.4065 127.829 60.3954 127.884 60.3932 127.942C60.391 128 60.3932 128.025 60.3932 128.067H60.3754C60.2351 128.107 59.2443 128.376 59.1152 128.323C59.0661 128.314 59.0155 128.318 58.9683 128.334C58.5742 128.423 57.5901 128.85 57.4565 128.723C57.4565 128.723 57.3385 128.835 57.334 128.801V128.77C57.3162 128.703 57.3006 128.625 57.2806 128.548C57.2717 128.504 57.2628 128.46 57.2539 128.414C56.9689 127.061 56.3811 124.072 55.9314 122.802C55.7347 122.228 55.5778 121.641 55.4616 121.046C55.2657 119.488 55.633 118.689 55.6397 118.687C56.1031 118.673 56.567 118.686 57.029 118.725C57.0716 118.728 57.1135 118.737 57.1537 118.752C57.1871 118.774 57.4008 118.905 57.599 119.052C57.6835 119.109 57.7645 119.17 57.8417 119.237C58.6382 119.957 59.2492 120.858 59.6228 121.865C59.6562 121.952 59.6896 122.041 59.7208 122.13C59.752 122.219 59.7653 122.257 59.7854 122.319C60.2796 123.855 60.5012 125.466 60.4399 127.079Z" fill="#E2581D"/>
<path opacity="0.2" d="M60.4333 127.751L60.4066 127.775C60.4066 127.775 60.4066 127.775 60.4333 127.775C60.4282 128.44 60.3888 129.104 60.3153 129.765C60.0933 131.149 59.7551 132.513 59.3045 133.841C58.9201 134.962 58.4741 136.061 57.9686 137.133C57.9686 136.743 57.9798 136.242 58.0154 135.697C58.198 133.027 58.808 128.97 58.9594 128.354C58.9839 128.251 59.0106 128.149 59.0351 128.047C59.0752 127.884 59.113 127.719 59.1487 127.555C59.2439 127.151 59.3094 126.74 59.3446 126.326C59.3446 126.289 59.3446 126.249 59.3446 126.211C59.4025 125.321 59.3179 124.239 58.9238 122.719C58.5052 121.099 57.4899 119.437 57.0046 118.736C57.0471 118.739 57.089 118.748 57.1293 118.763C57.1627 118.785 57.3764 118.916 57.5745 119.063C57.628 119.107 57.6614 119.141 57.6681 119.148C57.7195 119.178 57.7693 119.212 57.8172 119.248C58.6137 119.968 59.2247 120.869 59.5984 121.876C59.6318 121.963 59.6652 122.052 59.6963 122.141C59.7275 122.23 59.7387 122.27 59.7609 122.33C60.2585 123.862 60.4845 125.469 60.4289 127.079C60.4444 127.099 60.4422 127.375 60.4333 127.751Z" fill="black"/>
<path d="M55.17 139.895C55.2758 139.557 55.4068 139.229 55.5618 138.911C55.5555 138.893 55.5428 138.878 55.5262 138.869C55.3904 139.14 55.1455 139.612 55.0519 139.63C54.9584 139.648 54.9584 139.541 54.9584 139.541C55.0819 139.212 55.2308 138.892 55.4037 138.586C55.4358 138.531 55.4542 138.469 55.4572 138.406C55.2679 138.459 55.1388 138.684 54.9406 138.733C54.8115 138.766 54.8182 138.664 54.8182 138.664L55.9804 137.447C56.4257 137.358 56.753 137.876 56.753 137.876C56.6338 138.318 56.4851 138.75 56.3077 139.171L56.2876 139.207C56.1919 139.43 56.0071 139.852 55.9292 139.875C55.8512 139.897 55.8468 139.803 55.8468 139.803C55.9067 139.591 55.9856 139.385 56.0828 139.187L56.0539 139.154H56.0405C55.9292 139.425 55.6976 139.957 55.5952 139.984C55.4928 140.01 55.495 139.899 55.495 139.899C55.5846 139.599 55.6993 139.306 55.8379 139.025C55.8308 139.016 55.8215 139.009 55.8109 139.005C55.8003 139.001 55.7889 139 55.7778 139.002C55.7778 139.002 55.4037 139.95 55.2724 139.986C55.141 140.021 55.17 139.895 55.17 139.895Z" fill="#FF8C79"/>
<path d="M52.614 145.071L50.0291 139.271C50.0291 139.271 51.002 142.151 51.3182 143.25C51.6343 144.35 52.0351 146.103 52.0351 146.103L52.614 145.071Z" fill="#2E2E2E"/>
<path d="M52.6162 115.883C52.6763 115.859 52.8522 115.917 53.135 115.926C53.2886 115.926 53.3064 116.128 53.1795 116.148C52.993 116.158 52.8061 116.139 52.6251 116.093C52.565 116.066 52.5628 115.906 52.6162 115.883Z" fill="#2E2E2E"/>
<path d="M56.9311 123.313C57.2533 124.477 57.4613 125.67 57.5523 126.874C57.6213 128.505 55.9047 135.455 55.9047 135.455C56.013 134.412 55.974 133.36 55.7889 132.328C55.4794 130.733 56.2208 129.624 56.4568 128.296C56.6929 126.967 56.9311 123.313 56.9311 123.313Z" fill="#8A3511"/>
<path d="M53.322 116.433C53.1752 116.431 53.0299 116.404 52.8923 116.353C52.8872 116.352 52.8824 116.35 52.8781 116.347C52.8739 116.344 52.8703 116.341 52.8677 116.336C52.865 116.332 52.8634 116.327 52.8628 116.322C52.8623 116.317 52.8628 116.311 52.8644 116.307C52.8661 116.302 52.8687 116.297 52.8722 116.294C52.8758 116.29 52.88 116.287 52.8848 116.285C52.8896 116.283 52.8947 116.282 52.8998 116.282C52.9049 116.283 52.91 116.284 52.9145 116.286C53.5825 116.509 53.8497 116.15 53.8608 116.135C53.8641 116.131 53.8681 116.129 53.8725 116.127C53.8769 116.125 53.8816 116.124 53.8864 116.124C53.8912 116.124 53.8959 116.125 53.9003 116.127C53.9047 116.129 53.9087 116.131 53.912 116.135C53.9155 116.138 53.9182 116.142 53.9201 116.147C53.9219 116.151 53.9229 116.156 53.9229 116.16C53.9229 116.165 53.9219 116.17 53.9201 116.174C53.9182 116.179 53.9155 116.183 53.912 116.186C53.8387 116.269 53.7475 116.334 53.6453 116.377C53.5431 116.42 53.4326 116.439 53.322 116.433Z" fill="#2E2E2E"/>
<path d="M53.0481 115.834C52.9946 115.82 52.9457 115.792 52.9066 115.753C52.8675 115.714 52.8395 115.665 52.8255 115.612C52.8237 115.604 52.8248 115.595 52.8284 115.588C52.8321 115.581 52.8381 115.575 52.8455 115.572C52.9919 115.485 53.1126 115.36 53.1951 115.211C53.2002 115.203 53.2082 115.197 53.2177 115.194C53.2271 115.191 53.2373 115.191 53.2463 115.196C53.2504 115.198 53.254 115.201 53.2569 115.205C53.2598 115.209 53.262 115.213 53.2632 115.217C53.2645 115.222 53.2648 115.227 53.2642 115.231C53.2636 115.236 53.262 115.241 53.2596 115.245C53.1753 115.398 53.0535 115.527 52.9056 115.621C52.9188 115.654 52.9396 115.683 52.9663 115.706C52.993 115.729 53.0249 115.746 53.0593 115.754C53.0679 115.758 53.075 115.764 53.0795 115.772C53.0839 115.78 53.0854 115.79 53.0837 115.799C53.0837 115.808 53.08 115.817 53.0733 115.824C53.0666 115.831 53.0576 115.834 53.0481 115.834Z" fill="#2E2E2E"/>
<path d="M53.2263 114.837C53.2205 114.838 53.2148 114.836 53.2097 114.833C53.2047 114.831 53.2004 114.827 53.1973 114.822C53.0841 114.671 52.9379 114.549 52.7698 114.464C52.7613 114.459 52.7548 114.452 52.7519 114.442C52.749 114.433 52.7498 114.423 52.7542 114.415C52.7587 114.406 52.7663 114.4 52.7755 114.397C52.7847 114.394 52.7947 114.395 52.8032 114.399C52.979 114.491 53.1313 114.622 53.2485 114.782C53.252 114.785 53.2547 114.789 53.2566 114.794C53.2584 114.798 53.2594 114.803 53.2594 114.807C53.2594 114.812 53.2584 114.817 53.2566 114.821C53.2547 114.826 53.252 114.83 53.2485 114.833C53.2453 114.835 53.2417 114.837 53.2378 114.838C53.234 114.838 53.2301 114.838 53.2263 114.837Z" fill="#2E2E2E"/>
<path d="M37.2225 118.247C37.3389 118.283 37.4471 118.342 37.5409 118.42C37.5525 118.433 37.5609 118.448 37.5651 118.465C37.5693 118.482 37.5694 118.499 37.5652 118.516C37.561 118.533 37.5527 118.548 37.5411 118.561C37.5295 118.574 37.5149 118.584 37.4986 118.589C37.3824 118.587 37.2679 118.56 37.1624 118.511L37.2225 118.247Z" fill="#FF8C79"/>
<path d="M37.1936 118.767C37.1936 118.767 37.4563 118.861 37.5098 118.943C37.522 118.955 37.5308 118.971 37.5354 118.988C37.54 119.005 37.5401 119.022 37.5359 119.039C37.5316 119.056 37.5231 119.072 37.5112 119.085C37.4992 119.097 37.4841 119.107 37.4675 119.112C37.3513 119.108 37.237 119.08 37.1313 119.032L37.1936 118.767Z" fill="#FF8C79"/>
<path d="M37.2025 119.261C37.3189 119.299 37.427 119.359 37.5209 119.437C37.5325 119.45 37.5408 119.465 37.5451 119.482C37.5493 119.499 37.5493 119.516 37.5451 119.533C37.541 119.55 37.5327 119.565 37.5211 119.578C37.5095 119.591 37.4949 119.6 37.4786 119.606C37.3624 119.602 37.2481 119.574 37.1424 119.526L37.2025 119.261Z" fill="#FF8C79"/>
<path d="M37.1825 119.708C37.2797 119.74 37.3697 119.791 37.4474 119.858C37.4576 119.868 37.465 119.881 37.4689 119.895C37.4728 119.909 37.4731 119.924 37.4698 119.938C37.4664 119.952 37.4596 119.965 37.4498 119.976C37.4401 119.987 37.4278 119.995 37.414 120C37.3156 119.996 37.2189 119.974 37.129 119.933L37.1825 119.708Z" fill="#FF8C79"/>
<path d="M28.3039 50.4814C24.2606 43.6324 30.4692 76.8511 40.0217 83.6355C40.0217 83.6392 47.7347 83.4182 28.3039 50.4814Z" fill="#34726C"/>
<path d="M13.7615 108.641C8.67261 115.611 38.6052 94.2573 41.4717 82.1963C41.4698 82.1963 38.2279 75.1309 13.7615 108.641Z" fill="#34726C"/>
<path d="M74.1239 100.276C82.2834 103.086 53.0539 80.776 40.6892 81.5973C40.6901 81.5983 34.8991 86.7821 74.1239 100.276Z" fill="#34726C"/>
<path d="M49.6126 159.183H31.9165L33.7317 155.102H47.7974L49.6126 159.183Z" fill="#3C857E"/>
<path d="M44.3616 83.6413C44.3616 84.4272 44.1286 85.1955 43.6921 85.849C43.2557 86.5025 42.6353 87.0118 41.9095 87.3126C41.1837 87.6134 40.3851 87.6921 39.6145 87.5387C38.844 87.3854 38.1363 87.0069 37.5808 86.4512C37.0253 85.8954 36.6469 85.1874 36.4937 84.4165C36.3404 83.6457 36.4191 82.8467 36.7197 82.1206C37.0204 81.3945 37.5295 80.7738 38.1827 80.3372C38.8359 79.9005 39.6039 79.6675 40.3895 79.6675C41.4429 79.6675 42.4533 80.0861 43.1982 80.8314C43.9431 81.5766 44.3616 82.5874 44.3616 83.6413Z" fill="#459991"/>
<path d="M79.811 158.056H70.339L72.4706 70.4136H77.6794L79.811 158.056Z" fill="#3C857E"/>
<path d="M60.8752 31.4553C56.1233 23.4075 63.4178 62.4393 74.6432 70.416C74.6432 70.416 83.7071 70.1556 60.8752 31.4553Z" fill="#34726C"/>
<path d="M43.7925 99.7951C37.8114 107.984 72.9837 82.8941 76.3501 68.7212C76.3463 68.7212 72.5324 60.4214 43.7925 99.7951Z" fill="#34726C"/>
<path d="M114.716 89.9665C124.302 93.2613 89.9589 67.0509 75.4288 68.0183C75.4288 68.0183 68.6286 74.1059 114.716 89.9665Z" fill="#34726C"/>
<path d="M85.9137 159.183H65.1199L67.2524 154.386H83.7793L85.9137 159.183Z" fill="#3C857E"/>
<path d="M79.7409 70.4183C79.7411 71.3417 79.4675 72.2445 78.9548 73.0124C78.4421 73.7803 77.7132 74.3789 76.8605 74.7324C76.0077 75.0859 75.0693 75.1784 74.1639 74.9983C73.2586 74.8182 72.427 74.3735 71.7743 73.7205C71.1216 73.0675 70.6771 72.2355 70.497 71.3298C70.317 70.4241 70.4095 69.4853 70.7628 68.6321C71.1162 67.779 71.7144 67.0499 72.482 66.5369C73.2496 66.024 74.152 65.7503 75.0751 65.7505C76.3124 65.751 77.4988 66.2429 78.3737 67.1182C79.2486 67.9935 79.7404 69.1805 79.7409 70.4183Z" fill="#459991"/>
<path d="M143.27 126.259C143.27 126.259 144.973 127.506 146.228 128.59C147.484 129.674 151.52 130.568 153.165 130.181C153.165 130.181 154.209 129.366 152.092 128.463C149.976 127.559 146.277 126.781 145.37 126.406C144.825 126.184 144.308 125.898 143.831 125.555C143.831 125.555 143.116 125.435 143.27 126.259Z" fill="#FF8C79"/>
<path d="M141.51 126.254C141.503 126.246 141.498 126.235 141.496 126.225C141.495 126.214 141.496 126.203 141.5 126.192C141.504 126.182 141.511 126.173 141.52 126.167C141.529 126.16 141.54 126.156 141.551 126.156C141.77 126.145 141.99 126.155 142.207 126.187L142.229 126.148V126.136C141.94 126.115 141.365 126.059 141.31 125.975C141.301 125.966 141.295 125.953 141.292 125.94C141.29 125.927 141.291 125.913 141.296 125.901C141.301 125.888 141.31 125.878 141.321 125.87C141.332 125.862 141.345 125.858 141.358 125.858C141.67 125.847 141.982 125.864 142.291 125.908C142.297 125.898 142.299 125.888 142.299 125.877C142.299 125.866 142.297 125.855 142.291 125.845C142.291 125.845 141.279 125.788 141.204 125.672C141.13 125.557 141.255 125.555 141.255 125.555C141.606 125.549 141.958 125.571 142.306 125.62C142.319 125.607 142.329 125.59 142.332 125.572C142.036 125.528 141.515 125.444 141.466 125.36C141.418 125.276 141.524 125.245 141.524 125.245C141.873 125.261 142.22 125.304 142.563 125.372C142.625 125.387 142.689 125.387 142.751 125.372C142.643 125.209 142.39 125.158 142.27 124.988C142.198 124.875 142.296 124.848 142.296 124.848L143.807 125.569C144.033 125.968 143.641 126.432 143.641 126.432C143.187 126.453 142.732 126.444 142.279 126.405H142.238C142.008 126.365 141.555 126.321 141.51 126.254Z" fill="#FF8C79"/>
<path d="M144.415 125.941C144.171 126.172 144.025 126.488 144.009 126.823L144.249 126.994L144.415 125.941Z" fill="#2E2E2E"/>
<path d="M152.92 130.104C152.88 130.399 152.861 130.697 152.862 130.995C152.862 130.995 148.292 130.181 144.138 127.818C144.12 127.688 144.111 127.556 144.112 127.424C144.105 127.316 144.105 127.208 144.112 127.1C144.141 126.547 144.313 126.011 144.612 125.545C144.612 125.545 151.368 127.167 152.758 128.001C152.757 128.005 152.757 128.009 152.758 128.013C152.697 128.568 152.743 129.129 152.893 129.666C152.925 129.81 152.934 129.958 152.92 130.104Z" fill="#D9811A"/>
<path d="M169.904 163.165C169.806 163.347 169.643 163.486 169.447 163.552C169.251 163.619 169.037 163.608 168.849 163.523C168.842 163.514 168.836 163.503 168.832 163.492C168.832 163.48 168.817 163.463 168.805 163.444L168.707 163.252C168.435 162.723 167.824 161.498 167.148 159.984C167.071 159.815 166.994 159.64 166.908 159.462C165.796 156.915 164.604 153.728 164.522 151.637C164.892 151.343 165.337 151.159 165.806 151.104C166.279 151.078 166.746 151.214 167.131 151.488C167.131 151.488 168.235 152.61 168.707 154.769C169.144 156.761 169.77 161.435 169.883 162.882C169.897 162.995 169.904 163.091 169.904 163.165Z" fill="#FF8C79"/>
<path d="M167.218 165.987C168.197 166.042 170.029 164.627 170.063 164.244C170.07 164.044 170.053 163.844 170.013 163.648C169.967 163.387 169.907 163.168 169.907 163.168C169.83 163.134 169.749 163.11 169.666 163.096C169.504 163.063 169.337 163.078 169.183 163.139C169.029 163.199 168.897 163.303 168.8 163.437C168.804 163.454 168.804 163.471 168.8 163.487C168.771 163.705 168.673 163.907 168.519 164.064C168.25 164.413 167.384 165.175 167.1 165.552C167.075 165.582 167.053 165.615 167.035 165.65C166.869 165.987 167.218 165.987 167.218 165.987Z" fill="#FF8C79"/>
<path d="M167.218 165.987C168.197 166.042 170.029 164.627 170.063 164.244C170.07 164.044 170.053 163.844 170.013 163.648C170.013 163.648 169.5 164.73 167.766 165.506C167.617 165.571 167.16 165.795 167.114 165.561C167.089 165.592 167.068 165.625 167.049 165.66C166.869 165.987 167.218 165.987 167.218 165.987Z" fill="#2E2E2E"/>
<path d="M169.315 158.709C169.191 158.881 169.041 159.032 168.87 159.156C168.354 159.531 167.774 159.807 167.158 159.971H167.146C167.069 159.803 166.992 159.627 166.905 159.45L169.315 158.709Z" fill="#2E2E2E"/>
<path d="M166.083 124.86C166.083 124.86 164.582 122.882 162.848 121.976C162.527 121.773 162.155 121.663 161.775 121.659C161.068 121.618 161.054 121.7 161.054 121.7C159.811 121.883 158.613 122.295 157.521 122.913C157.521 122.913 156.912 124.06 157.251 125.925C157.59 127.79 155.392 138.804 155.392 138.804C155.392 138.804 160.594 139.267 163.848 138.205C163.848 138.205 163.199 135.523 163.791 131.185C163.791 131.185 164.202 128.869 164.786 127.835C164.794 127.838 166.316 126.179 166.083 124.86Z" fill="#FF8C79"/>
<path d="M170.068 157.83C170.068 157.83 169.414 159.921 166.085 159.472C166.085 159.472 165.866 159.049 165.505 158.323C164.303 155.92 161.554 150.236 159.904 145.478C159.752 145.037 159.611 144.607 159.481 144.187C159.11 143.062 158.836 141.906 158.663 140.734C158.663 140.734 158.692 138.857 159.716 137.338C159.898 137.065 160.11 136.813 160.347 136.586C161.105 135.883 162.093 135.479 163.127 135.449C163.465 135.429 163.804 135.436 164.142 135.468C164.142 135.468 164.214 135.817 164.339 136.43C164.599 137.684 165.101 140.034 165.748 142.736C166.6 146.244 170.068 157.83 170.068 157.83Z" fill="#404040"/>
<path opacity="0.5" d="M163.769 152.459H163.754C163.743 152.455 163.733 152.447 163.728 152.436C163.723 152.425 163.722 152.413 163.726 152.401C164.069 151.351 163.557 150.856 163.552 150.851C163.548 150.847 163.545 150.842 163.542 150.836C163.54 150.831 163.539 150.825 163.539 150.819C163.539 150.813 163.54 150.807 163.542 150.801C163.545 150.796 163.548 150.791 163.552 150.786C163.556 150.782 163.561 150.779 163.567 150.776C163.572 150.774 163.578 150.773 163.584 150.773C163.589 150.773 163.595 150.774 163.601 150.776C163.606 150.779 163.611 150.782 163.615 150.786C163.639 150.806 164.178 151.32 163.815 152.43C163.811 152.439 163.805 152.447 163.796 152.452C163.788 152.457 163.779 152.46 163.769 152.459Z" fill="#2E2E2E"/>
<path d="M159.709 125.028C159.618 125.547 159.276 126.23 158.704 126.951C158.658 127.011 158.608 127.069 158.557 127.134C158.415 127.299 158.261 127.47 158.098 127.641C156.695 129.04 155.023 130.139 153.182 130.873L152.864 131C152.832 130.918 152.803 130.834 152.78 130.748C152.751 130.64 152.715 130.508 152.681 130.335C152.681 130.279 152.657 130.222 152.648 130.162C152.512 129.448 152.553 128.712 152.766 128.018C152.764 128.014 152.764 128.01 152.766 128.006C152.771 127.986 152.777 127.966 152.785 127.946C152.785 127.946 155.825 123.993 157.278 123.053C158.73 122.113 158.276 123.089 159.069 123.351C159.069 123.351 159.988 123.512 159.709 125.028Z" fill="#D9811A"/>
<path d="M159.31 161.906C159.212 162.088 159.049 162.227 158.853 162.293C158.657 162.36 158.443 162.351 158.254 162.267L158.237 162.233C158.237 162.233 158.223 162.207 158.211 162.185L158.112 161.993C157.913 161.603 157.53 160.841 157.071 159.863C157.013 159.734 156.95 159.599 156.883 159.462C155.657 156.792 154.033 152.832 153.937 150.375C154.308 150.083 154.752 149.899 155.221 149.844C155.694 149.817 156.161 149.952 156.546 150.226C156.546 150.226 157.65 151.351 158.122 153.509C158.559 155.499 159.185 160.176 159.298 161.623C159.303 161.735 159.31 161.834 159.31 161.906Z" fill="#FF8C79"/>
<path d="M156.623 164.728C157.602 164.783 159.435 163.367 159.469 162.985C159.475 162.786 159.459 162.587 159.42 162.392C159.372 162.127 159.312 161.911 159.312 161.911C159.234 161.88 159.154 161.856 159.072 161.839C158.909 161.806 158.741 161.822 158.587 161.883C158.433 161.944 158.3 162.048 158.203 162.183C158.208 162.199 158.208 162.217 158.203 162.233C158.175 162.451 158.076 162.655 157.922 162.812C157.653 163.161 156.787 163.92 156.503 164.3C156.479 164.33 156.457 164.362 156.438 164.396C156.275 164.728 156.623 164.728 156.623 164.728Z" fill="#FF8C79"/>
<path d="M156.623 164.728C157.602 164.783 159.435 163.367 159.469 162.985C159.475 162.786 159.458 162.587 159.418 162.392C159.418 162.392 158.906 163.471 157.172 164.247C157.023 164.314 156.566 164.538 156.52 164.305C156.496 164.335 156.474 164.367 156.455 164.401C156.275 164.728 156.623 164.728 156.623 164.728Z" fill="#2E2E2E"/>
<path d="M158.769 158.866C158.674 159.001 158.557 159.119 158.422 159.215C158.02 159.509 157.567 159.725 157.085 159.852H157.068C157.011 159.722 156.948 159.587 156.881 159.45L158.769 158.866Z" fill="#2E2E2E"/>
<path d="M159.23 158.527C158.932 158.777 158.605 158.99 158.256 159.162C157.508 159.566 156.64 159.691 155.808 159.515L155.568 158.837L155.512 158.683C154.644 156.321 153.057 152.195 153.078 150.272C153.078 150.272 154.218 148.878 155.568 149.234C156.067 149.355 156.551 149.532 157.011 149.76C157.112 149.812 157.209 149.872 157.302 149.938C157.514 150.068 157.682 150.26 157.783 150.488L159.23 158.527Z" fill="#404040"/>
<path d="M153.066 150.274C154.317 151.315 155.868 151.125 156.84 150.844C156.931 150.82 157.018 150.791 157.097 150.765C157.33 150.689 157.556 150.597 157.775 150.488C158.204 149.678 158.636 148.744 159.048 147.749C159.372 146.968 159.68 146.146 159.959 145.319C160.962 142.346 161.573 139.311 161.08 137.674C160.279 135.019 155.224 135.583 155.224 135.583C154.815 137.581 153.066 150.274 153.066 150.274Z" fill="#404040"/>
<path opacity="0.5" d="M153.934 151.111C153.924 151.11 153.913 151.106 153.906 151.099C153.901 151.095 153.898 151.09 153.896 151.084C153.893 151.079 153.892 151.073 153.892 151.067C153.892 151.062 153.893 151.056 153.896 151.05C153.898 151.045 153.901 151.04 153.906 151.036C154.423 150.467 154.355 149.972 154.355 149.967C154.354 149.961 154.354 149.955 154.356 149.95C154.357 149.944 154.359 149.939 154.363 149.934C154.366 149.929 154.37 149.925 154.375 149.922C154.38 149.919 154.386 149.917 154.391 149.916C154.403 149.915 154.416 149.918 154.425 149.925C154.435 149.932 154.442 149.943 154.444 149.955C154.444 149.976 154.519 150.496 153.963 151.096C153.956 151.104 153.945 151.109 153.934 151.111Z" fill="#2E2E2E"/>
<path opacity="0.2" d="M159.048 147.751C158.636 148.744 158.203 149.674 157.775 150.491L159.23 158.527C158.932 158.777 158.605 158.99 158.256 159.162C157.508 159.566 156.64 159.691 155.808 159.515L155.568 158.837C156.135 158.474 157.198 158.188 157.302 156.333C157.425 154.492 157.273 152.643 156.852 150.846C156.799 150.606 156.765 150.491 156.765 150.491L157.018 149.77L158.629 142.284L159.481 144.18C159.481 144.18 159.923 145.418 159.904 145.47C159.642 146.251 159.351 147.018 159.048 147.751Z" fill="black"/>
<path d="M160.601 119.395C160.601 119.395 159.926 119.352 159.817 118.746C159.709 118.141 160.002 117.963 159.94 117.545C159.877 117.127 159.699 116.564 160.125 116.242C160.551 115.92 160.498 115.653 160.741 115.12C160.984 114.586 161.32 114.211 161.828 114.3C162.335 114.389 162.518 114.478 162.809 114.06C163.1 113.642 163.478 113.301 164.012 113.798C164.649 114.377 164.851 114.038 165.25 114.062C165.65 114.086 165.948 114.457 166.09 114.887C166.232 115.317 166.484 115.437 166.876 115.574C167.199 115.689 167.441 116.249 167.208 116.713C166.975 117.177 167.225 117.513 167.326 117.888C167.427 118.263 167.285 118.725 166.98 118.866C166.674 119.008 166.739 119.563 166.602 119.953C166.465 120.342 165.977 120.421 165.671 120.364C165.366 120.306 165.231 120.544 164.995 120.96C164.76 121.375 164.486 121.649 164.146 121.484C163.807 121.318 163.36 121.044 163.064 121.291C162.768 121.539 161.917 121.387 161.785 121.174C161.652 120.96 160.601 119.395 160.601 119.395Z" fill="white"/>
<path d="M161.027 122.075L162.848 121.974L162.667 120.328L161.171 120.414L161.143 120.739L161.114 121.075L161.027 122.075Z" fill="#FF8C79"/>
<path d="M161.123 120.958C161.353 120.997 161.589 120.981 161.811 120.909C162.033 120.838 162.235 120.713 162.398 120.547C162.271 120.631 162.134 120.7 161.991 120.754C161.856 120.808 161.711 120.835 161.566 120.833C161.42 120.83 161.276 120.798 161.142 120.739L161.123 120.958Z" fill="#2E2E2E"/>
<path d="M160.996 118.437C160.421 119.271 160.332 120.203 160.976 120.645C161.621 121.087 162.494 120.693 163.067 119.862C163.639 119.03 163.699 118.074 163.067 117.632C162.434 117.189 161.568 117.605 160.996 118.437Z" fill="#FF8C79"/>
<path d="M162.239 117.326C162.239 117.326 162.564 119.64 163.129 119.761C163.694 119.881 164.13 118.588 163.791 117.999C163.451 117.41 162.239 117.326 162.239 117.326Z" fill="white"/>
<path d="M161.672 114.642C161.664 114.641 161.657 114.638 161.651 114.634C161.645 114.629 161.64 114.623 161.638 114.615C161.636 114.606 161.638 114.597 161.643 114.59C161.648 114.582 161.656 114.577 161.664 114.574C162.626 114.358 162.773 113.176 162.773 113.164C162.775 113.155 162.78 113.147 162.787 113.142C162.794 113.137 162.803 113.134 162.812 113.135C162.816 113.135 162.82 113.137 162.824 113.139C162.828 113.141 162.831 113.144 162.834 113.148C162.837 113.152 162.839 113.156 162.84 113.16C162.841 113.164 162.841 113.169 162.841 113.173C162.841 113.173 162.682 114.413 161.679 114.639L161.672 114.642Z" fill="white"/>
<path d="M167.742 117.694C167.107 117.494 166.982 116.733 166.977 116.694C166.977 116.69 166.977 116.685 166.978 116.681C166.979 116.676 166.981 116.672 166.984 116.669C166.986 116.665 166.99 116.662 166.994 116.66C166.997 116.658 167.002 116.656 167.006 116.656C167.011 116.655 167.015 116.655 167.02 116.655C167.024 116.656 167.029 116.658 167.032 116.661C167.036 116.664 167.039 116.667 167.041 116.671C167.043 116.675 167.044 116.68 167.045 116.684C167.045 116.684 167.167 117.441 167.766 117.629C167.771 117.63 167.775 117.631 167.779 117.634C167.782 117.637 167.785 117.64 167.787 117.644C167.789 117.648 167.791 117.652 167.791 117.657C167.791 117.661 167.79 117.666 167.788 117.67C167.787 117.675 167.785 117.68 167.783 117.684C167.78 117.688 167.776 117.692 167.771 117.694C167.767 117.696 167.762 117.697 167.757 117.697C167.752 117.697 167.747 117.696 167.742 117.694Z" fill="white"/>
<path d="M165.181 121.572C165.176 121.573 165.172 121.572 165.168 121.571C165.164 121.569 165.16 121.567 165.157 121.564C165.154 121.561 165.151 121.558 165.15 121.554C165.148 121.55 165.147 121.546 165.147 121.541C165.094 120.606 165.628 120.099 165.767 120.087C165.772 120.087 165.776 120.087 165.781 120.088C165.785 120.089 165.789 120.091 165.793 120.094C165.796 120.096 165.799 120.1 165.802 120.104C165.804 120.107 165.805 120.112 165.806 120.116C165.807 120.125 165.804 120.134 165.798 120.142C165.792 120.149 165.784 120.153 165.775 120.155C165.688 120.155 165.161 120.618 165.212 121.536C165.213 121.541 165.212 121.546 165.211 121.55C165.21 121.554 165.208 121.558 165.205 121.562C165.202 121.565 165.198 121.568 165.194 121.57C165.19 121.572 165.185 121.573 165.181 121.572Z" fill="white"/>
<path d="M163.199 119.802C162.982 119.767 162.78 119.669 162.618 119.521C162.457 119.372 162.342 119.179 162.29 118.966C162.165 118.475 162.146 117.964 162.234 117.466C162.237 117.457 162.242 117.45 162.25 117.445C162.257 117.44 162.266 117.438 162.275 117.439C162.284 117.442 162.291 117.447 162.296 117.455C162.3 117.463 162.302 117.472 162.299 117.48C162.215 117.967 162.234 118.467 162.355 118.946C162.403 119.147 162.51 119.329 162.661 119.469C162.813 119.609 163.002 119.702 163.206 119.735C163.215 119.736 163.224 119.74 163.229 119.748C163.235 119.755 163.238 119.764 163.237 119.773C163.237 119.777 163.235 119.782 163.233 119.786C163.231 119.789 163.228 119.793 163.224 119.796C163.221 119.798 163.217 119.8 163.212 119.801C163.208 119.802 163.203 119.803 163.199 119.802Z" fill="white"/>
<path d="M164.346 136.439C164.394 136.768 164.428 136.965 164.428 136.965C164.428 136.965 164.067 137.028 163.466 137.097C162.865 137.167 161.951 137.263 160.933 137.309C160.541 137.326 160.132 137.338 159.711 137.338C158.127 137.376 156.545 137.208 155.005 136.838C155.005 136.838 155.599 130.628 156.414 128.443C157.229 126.259 157.083 123.19 157.083 123.19C157.083 123.19 158.232 122.197 160.496 121.796L161.359 123.98L163.283 122.236C163.828 122.602 164.349 123.003 164.842 123.437C165.341 123.879 165.81 124.353 166.246 124.858C165.267 126.335 164.572 127.981 164.195 129.712C164.068 130.332 163.993 130.962 163.971 131.594C163.913 133.262 164.197 135.439 164.344 136.429C164.345 136.432 164.346 136.435 164.346 136.439Z" fill="#F7931E"/>
<path opacity="0.2" d="M170.068 157.83C170.068 157.83 169.414 159.921 166.085 159.472C166.085 159.472 165.866 159.049 165.505 158.323C166.352 158.299 167.405 158.027 167.793 156.91C168.124 155.949 166.27 149.541 164.822 143.298C164.32 141.135 163.86 139.003 163.466 137.098C163.348 136.526 163.225 135.975 163.131 135.449C162.494 132.289 162.097 130.083 162.097 130.083L164.195 129.712C164.068 130.332 163.993 130.962 163.971 131.594C163.913 133.262 164.197 135.439 164.344 136.429C164.603 137.684 165.106 140.034 165.753 142.736C166.6 146.244 170.068 157.83 170.068 157.83Z" fill="black"/>
<path d="M153.468 123.933C153.468 123.933 154.334 125.856 154.892 127.42C155.45 128.985 158.516 131.746 160.14 132.227C160.14 132.227 161.45 132.032 160.053 130.203C158.656 128.374 155.83 125.865 155.224 125.099C154.859 124.637 154.55 124.134 154.305 123.599C154.305 123.599 153.754 123.135 153.468 123.933Z" fill="#FF8C79"/>
<path d="M154.62 124.204C154.295 124.289 154.016 124.497 153.841 124.783L153.975 125.002L154.62 124.204Z" fill="#2E2E2E"/>
<path d="M159.37 131.224C159.375 131.743 159.456 132.259 159.611 132.755C163.884 131.205 166.289 128.463 166.605 126.958C166.905 125.516 166.304 124.911 166.249 124.86C165.46 124.579 164.719 124.916 163.24 125.822C161.761 126.728 159.625 129.7 159.625 129.7C159.443 130.187 159.356 130.705 159.37 131.224Z" fill="#F79F39"/>
<path d="M160.243 131.296C160.223 131.415 160.198 131.532 160.166 131.647C160.06 132.025 159.849 132.299 159.618 132.755C159.502 132.664 155.875 129.766 153.458 125.721C153.516 125.578 153.584 125.44 153.663 125.308C153.701 125.238 153.747 125.166 153.797 125.089C154.096 124.622 154.51 124.241 155 123.981C155 123.981 158.947 127.656 159.983 129.206C160.029 129.278 160.072 129.34 160.106 129.403C160.275 130.019 160.322 130.662 160.243 131.296Z" fill="#F79F39"/>
<path opacity="0.1" d="M166.614 126.958C166.299 128.465 163.894 131.205 159.618 132.755C159.502 132.664 155.875 129.765 153.458 125.721C153.516 125.578 153.584 125.44 153.663 125.307C155.361 127.112 157.992 130.491 159.37 131.26C159.505 131.344 159.655 131.398 159.813 131.419C159.963 131.411 160.111 131.369 160.243 131.296C161.354 130.794 163.817 128.852 164.7 127.787C165.614 126.687 165.974 125.581 166.258 124.86C166.313 124.911 166.917 125.519 166.614 126.958Z" fill="#020544"/>
<path d="M152.571 122.013C152.614 121.929 152.677 122.001 152.677 122.001C152.793 122.186 152.893 122.383 152.972 122.587H153.016H153.028C152.903 122.325 152.667 121.799 152.713 121.71C152.717 121.697 152.725 121.685 152.735 121.676C152.746 121.667 152.759 121.662 152.772 121.66C152.786 121.658 152.8 121.66 152.812 121.666C152.825 121.672 152.835 121.681 152.843 121.693C153.003 121.96 153.142 122.24 153.256 122.529C153.267 122.53 153.279 122.527 153.288 122.522C153.298 122.516 153.306 122.508 153.312 122.498C153.312 122.498 152.864 121.59 152.927 121.472C152.931 121.459 152.939 121.448 152.949 121.44C152.96 121.432 152.972 121.426 152.985 121.424C152.999 121.423 153.012 121.425 153.024 121.43C153.036 121.435 153.047 121.444 153.054 121.455C153.232 121.759 153.386 122.075 153.516 122.402C153.534 122.408 153.553 122.408 153.571 122.402C153.461 122.123 153.278 121.628 153.331 121.544C153.336 121.532 153.345 121.521 153.357 121.514C153.368 121.507 153.381 121.503 153.395 121.503C153.408 121.503 153.421 121.507 153.433 121.514C153.444 121.521 153.453 121.532 153.458 121.544C153.617 121.853 153.751 122.175 153.86 122.505C153.879 122.565 153.912 122.619 153.956 122.664C154.045 122.491 153.968 122.246 154.062 122.068C154.127 121.95 154.197 122.022 154.197 122.022L154.314 123.69C154.074 124.082 153.48 123.969 153.48 123.969C153.238 123.583 153.022 123.182 152.833 122.767C152.832 122.754 152.832 122.742 152.833 122.729C152.718 122.5 152.532 122.085 152.571 122.013Z" fill="#FF8C79"/>
<path d="M159.904 145.477L158.381 141.688C158.381 141.688 158.446 144.331 158.812 145.136C159.178 145.941 159.625 146.225 159.534 146.528L159.904 145.477Z" fill="#2E2E2E"/>
<path d="M161.405 120.189C161.251 120.185 161.099 120.153 160.957 120.092C160.949 120.089 160.942 120.083 160.939 120.075C160.935 120.067 160.935 120.057 160.938 120.049C160.942 120.041 160.949 120.034 160.957 120.03C160.966 120.027 160.975 120.027 160.984 120.03C161.597 120.27 161.876 119.939 161.886 119.924C161.889 119.921 161.893 119.918 161.897 119.917C161.901 119.915 161.905 119.914 161.91 119.914C161.914 119.914 161.919 119.915 161.923 119.917C161.927 119.918 161.931 119.921 161.934 119.924C161.937 119.927 161.94 119.931 161.941 119.935C161.943 119.939 161.944 119.944 161.944 119.948C161.944 119.953 161.943 119.957 161.941 119.961C161.94 119.965 161.937 119.969 161.934 119.972C161.866 120.044 161.784 120.1 161.693 120.138C161.601 120.175 161.503 120.192 161.405 120.189Z" fill="#2E2E2E"/>
<path d="M161.131 119.609C161.083 119.594 161.04 119.566 161.006 119.529C160.972 119.492 160.948 119.447 160.936 119.398C160.934 119.39 160.936 119.383 160.939 119.376C160.942 119.369 160.948 119.363 160.955 119.36C161.099 119.284 161.219 119.171 161.304 119.033C161.309 119.027 161.317 119.023 161.325 119.022C161.333 119.021 161.341 119.023 161.348 119.027C161.355 119.031 161.36 119.038 161.363 119.045C161.366 119.053 161.366 119.061 161.364 119.069C161.275 119.209 161.154 119.327 161.01 119.41C161.022 119.441 161.041 119.47 161.065 119.493C161.089 119.516 161.118 119.534 161.15 119.545C161.154 119.546 161.159 119.548 161.162 119.551C161.166 119.553 161.169 119.557 161.171 119.561C161.174 119.565 161.175 119.57 161.175 119.574C161.176 119.579 161.175 119.583 161.174 119.588C161.171 119.596 161.164 119.603 161.156 119.607C161.148 119.611 161.139 119.612 161.131 119.609Z" fill="#2E2E2E"/>
<path d="M161.34 118.672C161.334 118.671 161.329 118.669 161.324 118.667C161.319 118.664 161.314 118.66 161.311 118.655C161.211 118.507 161.078 118.384 160.921 118.297C160.915 118.29 160.912 118.282 160.912 118.273C160.912 118.264 160.915 118.256 160.921 118.249C160.926 118.241 160.933 118.236 160.942 118.234C160.95 118.231 160.959 118.232 160.967 118.237C161.133 118.33 161.276 118.461 161.383 118.619C161.386 118.622 161.389 118.625 161.39 118.629C161.392 118.633 161.393 118.638 161.393 118.642C161.393 118.646 161.392 118.65 161.39 118.654C161.389 118.658 161.386 118.662 161.383 118.665C161.381 118.669 161.379 118.672 161.375 118.675C161.372 118.677 161.368 118.679 161.363 118.68C161.359 118.68 161.355 118.68 161.351 118.679C161.346 118.677 161.343 118.675 161.34 118.672Z" fill="#2E2E2E"/>
</g>
</svg>
