<svg width="201" height="200" viewBox="0 0 201 200" fill="none" xmlns="http://www.w3.org/2000/svg">
<circle opacity="0.2" cx="100.5" cy="100" r="100" fill="#4AA29A"/>
<circle cx="100.5" cy="100" r="90" fill="#89BDB9"/>
<mask id="mask0" mask-type="alpha" maskUnits="userSpaceOnUse" x="10" y="10" width="181" height="180">
<circle cx="100.5" cy="100" r="90" fill="#89BDB9"/>
</mask>
<g mask="url(#mask0)">
<path d="M79.387 63.001C83.9337 59.6758 84.7086 52.9979 81.1207 48.0875C78.2262 44.1231 73.3762 42.5263 69.2225 43.7982C68.8687 43.1636 68.4772 42.5507 68.0502 41.963C62.7324 34.6838 52.9592 32.7764 46.2215 37.7039C42.9219 40.1173 40.9648 43.7244 40.4518 47.6305C38.7963 47.5275 37.139 47.9515 35.7405 48.9735C32.3832 51.4287 31.8097 56.3589 34.4609 59.9858C37.1121 63.6128 41.9824 64.5664 45.3386 62.1112C45.4041 62.0639 45.4581 62.0121 45.5197 61.9631C51.0439 67.4104 64.3362 63.5902 70.3475 59.1951C70.948 58.7547 66.6368 63.1431 67.1476 62.6288C70.8186 65.3588 75.7555 65.6567 79.387 63.001Z" fill="#5FBAB2"/>
<path d="M103.597 63.3951C106.852 61.0176 107.486 56.3511 105.02 52.9763C103.03 50.2541 99.6295 49.2046 96.6817 50.1456C96.4411 49.707 96.173 49.284 95.8792 48.8792C92.2241 43.8752 85.3532 42.6765 80.5335 46.2021C78.1723 47.9283 76.7435 50.4688 76.3285 53.1993C75.1331 53.1413 73.9537 53.4939 72.9861 54.1987C70.5842 55.9552 70.1136 59.3993 71.9365 61.8925C73.7594 64.3857 77.1822 64.9853 79.583 63.2299C79.6303 63.1958 79.6694 63.1584 79.7129 63.1231C83.5386 66.847 89.47 67.4642 93.7707 64.3196C94.1941 64.0097 94.5935 63.6682 94.9656 63.2982C97.5216 65.1544 100.999 65.2981 103.597 63.3951Z" fill="#5FBAB2"/>
<path d="M82.9666 63.4052C85.5925 61.4869 86.1726 57.8148 84.2666 55.2065C82.7289 53.1026 80.0424 52.3345 77.683 53.1202C77.499 52.7807 77.2927 52.4539 77.0654 52.1418C74.2409 48.2737 68.7976 47.445 64.9091 50.2895C63.0791 51.6229 61.8395 53.6164 61.4527 55.848C60.4936 55.825 59.5538 56.1199 58.7795 56.6866C56.8416 58.1033 56.4129 60.8162 57.8202 62.7434C59.2275 64.6705 61.9409 65.0857 63.8777 63.669C63.9157 63.6414 63.9476 63.6139 63.9828 63.5831C66.9643 66.4463 71.67 66.8317 75.1396 64.2945C75.481 64.0443 75.804 63.7699 76.1061 63.4735C77.1129 64.182 78.3165 64.5565 79.5473 64.5442C80.7782 64.532 81.9741 64.1336 82.9666 63.4052Z" fill="#93D1CC"/>
<path d="M137.761 46.3881C140.528 44.3644 141 40.3001 138.816 37.3115C137.054 34.8986 134.103 33.9268 131.575 34.7009C131.359 34.3148 131.121 33.9418 130.861 33.584C127.625 29.153 121.676 27.9928 117.576 30.9915C115.567 32.4606 114.376 34.656 114.064 37.0333C113.056 36.9707 112.048 37.2287 111.197 37.8507C109.154 39.345 108.805 42.3453 110.418 44.553C112.032 46.7608 114.996 47.3409 117.038 45.8466C117.078 45.8178 117.111 45.7863 117.149 45.7564C120.511 49.0718 128.601 46.7467 132.259 44.0718C132.625 43.8037 130.001 46.4746 130.312 46.1616C132.546 47.8231 135.551 48.0044 137.761 46.3881Z" fill="#5FBAB2"/>
<path d="M151.602 47.3373C153.523 45.9335 153.898 43.1785 152.442 41.1862C151.267 39.5777 149.26 38.9597 147.518 39.515C147.376 39.2566 147.217 39.0074 147.044 38.769C144.886 35.8146 140.83 35.1072 137.984 37.1883C136.59 38.2077 135.747 39.7077 135.501 41.3193C134.796 41.2851 134.099 41.4934 133.528 41.9094C132.11 42.9463 131.833 44.9798 132.908 46.4516C133.984 47.9235 136.006 48.2777 137.423 47.2412C137.451 47.2211 137.474 47.1989 137.5 47.1785C139.758 49.3769 143.261 49.7411 145.799 47.8846C146.049 47.7014 146.285 47.4998 146.504 47.2814C148.014 48.3759 150.068 48.4596 151.602 47.3373Z" fill="#5FBAB2"/>
<path d="M140.589 47.8981C142.286 46.6582 142.617 44.2249 141.331 42.4652C140.292 41.0457 138.52 40.4987 136.983 40.9907C136.857 40.7624 136.717 40.5423 136.564 40.3315C134.658 37.7223 131.076 37.0973 128.562 38.9358C127.331 39.8359 126.586 41.1606 126.37 42.5842C125.747 42.5541 125.132 42.7381 124.628 43.1056C123.375 44.0212 123.13 45.8174 124.08 47.1173C125.03 48.4172 126.816 48.7299 128.066 47.8147C128.091 47.7969 128.112 47.7772 128.133 47.7591C130.128 49.7007 133.222 50.0228 135.464 48.3827C135.685 48.2211 135.893 48.0431 136.087 47.8502C137.42 48.8157 139.234 48.8894 140.589 47.8981Z" fill="#93D1CC"/>
<path d="M318.011 160.888C318.011 178.473 220.736 192.728 100.739 192.728C-19.2578 192.728 -116.533 178.473 -116.533 160.888C-116.533 143.303 -19.2563 129.047 100.739 129.047C220.735 129.047 318.011 143.317 318.011 160.888Z" fill="#53A69E"/>
<g opacity="0.2">
<path d="M118.375 98.9019C117.776 98.3683 117.459 97.4604 117.578 96.6912C117.653 96.2105 119.004 95.3735 119.004 95.3735L116.987 93.1804C116.987 93.1804 116.041 94.4633 115.556 94.4969C114.816 94.552 113.979 94.1704 113.529 93.5521C113.242 93.1595 113.613 91.6117 113.613 91.6117L110.634 91.4834C110.634 91.4834 110.867 93.0587 110.55 93.4232C110.11 93.9292 109.328 94.1858 108.688 94.0581C108.211 93.9628 107.441 92.5714 107.441 92.5714L105.158 94.4892C105.158 94.4892 106.394 95.4908 106.406 95.9759C106.426 96.7903 105.994 97.6878 105.312 98.1745C104.915 98.457 103.37 98.0644 103.37 98.0644L103.205 101.043C103.205 101.043 104.78 100.827 105.14 101.149C105.74 101.685 106.057 102.593 105.938 103.361C105.864 103.841 104.511 104.678 104.511 104.678L106.527 106.87C106.527 106.87 107.472 105.589 107.958 105.555C108.697 105.5 109.537 105.885 109.987 106.499C110.273 106.893 109.905 108.439 109.905 108.439L112.882 108.567C112.882 108.567 112.647 106.993 112.963 106.628C113.404 106.123 114.19 105.865 114.83 105.993C115.305 106.09 116.076 107.48 116.076 107.48L118.358 105.562C118.358 105.562 117.124 104.56 117.109 104.076C117.09 103.262 117.522 102.365 118.204 101.877C118.6 101.597 120.147 101.988 120.147 101.988L120.312 99.0098C120.312 99.0098 118.74 99.2246 118.375 98.9019ZM111.55 104.893C110.575 104.851 109.634 104.521 108.846 103.944C108.058 103.367 107.459 102.569 107.124 101.651C106.789 100.733 106.734 99.7368 106.966 98.7877C107.197 97.8386 107.705 96.9796 108.425 96.3191C109.144 95.6587 110.043 95.2266 111.008 95.0775C111.973 94.9284 112.961 95.0689 113.846 95.4813C114.732 95.8938 115.475 96.5596 115.982 97.3946C116.489 98.2295 116.737 99.1961 116.694 100.172C116.666 100.82 116.511 101.456 116.238 102.044C115.964 102.632 115.577 103.16 115.1 103.599C114.622 104.037 114.063 104.377 113.454 104.599C112.845 104.821 112.198 104.921 111.55 104.893Z" fill="#E8F2FF"/>
<path d="M115.53 100.187C115.498 100.933 115.245 101.652 114.804 102.254C114.363 102.856 113.754 103.314 113.053 103.569C112.352 103.825 111.591 103.867 110.866 103.69C110.141 103.512 109.485 103.124 108.981 102.574C108.477 102.024 108.147 101.337 108.033 100.599C107.92 99.8614 108.027 99.1066 108.342 98.43C108.657 97.7534 109.165 97.1855 109.803 96.798C110.441 96.4105 111.179 96.2208 111.924 96.253C112.419 96.274 112.906 96.3925 113.355 96.6017C113.804 96.8109 114.208 97.1066 114.543 97.472C114.878 97.8374 115.137 98.2653 115.307 98.7312C115.476 99.1971 115.552 99.6919 115.53 100.187Z" fill="#E8F2FF"/>
</g>
<g opacity="0.3">
<path d="M96.3309 84.8602C95.4503 84.0772 94.9869 82.7453 95.1608 81.6165C95.2709 80.9112 97.2522 79.6833 97.2522 79.6833L94.2934 76.4655C94.2934 76.4655 92.9053 78.348 92.1953 78.3965C91.1089 78.4763 89.881 77.918 89.22 77.0111C88.8006 76.4341 89.3443 74.1639 89.3443 74.1639L84.9727 73.9756C84.9727 73.9756 85.315 76.2882 84.851 76.8217C84.206 77.564 83.0568 77.9406 82.1173 77.7528C81.4177 77.6135 80.2872 75.5729 80.2872 75.5729L76.9393 78.3849C76.9393 78.3849 78.7555 79.8551 78.7709 80.5648C78.8001 81.7597 78.1655 83.0773 77.1655 83.7915C76.5832 84.2055 74.3161 83.6323 74.3161 83.6323L74.0718 88.002C74.0718 88.002 76.3834 87.6854 76.9101 88.1579C77.7907 88.9447 78.2563 90.2761 78.0819 91.4032C77.9718 92.108 75.9871 93.3359 75.9871 93.3359L78.9465 96.5554C78.9465 96.5554 80.3307 94.6733 81.0462 94.6232C82.1299 94.5462 83.3633 95.105 84.0238 96.0086C84.4432 96.5868 83.9038 98.8553 83.9038 98.8553L88.2717 99.0436C88.2717 99.0436 87.926 96.731 88.3905 96.1975C89.0378 95.4569 90.1897 95.0786 91.1287 95.2669C91.8255 95.409 92.9576 97.4485 92.9576 97.4485L96.305 94.6343C96.305 94.6343 94.4943 93.1641 94.4734 92.4527C94.4458 91.259 95.0788 89.9424 96.0799 89.2277C96.6617 88.8159 98.9304 89.3891 98.9304 89.3891L99.172 85.0204C99.172 85.0204 96.8631 85.3332 96.3309 84.8602ZM86.3139 93.6509C84.3944 93.5678 82.5865 92.7254 81.2879 91.3088C79.9893 89.8922 79.3063 88.0175 79.3893 86.0972C79.4723 84.1768 80.3144 82.3681 81.7304 81.069C83.1463 79.7698 85.0202 79.0866 86.9397 79.1696C90.9322 79.3436 94.0397 82.7238 93.8613 86.7224C93.8208 87.6734 93.5933 88.607 93.1919 89.47C92.7905 90.3329 92.2231 91.1083 91.522 91.7517C90.8209 92.3952 90 92.8941 89.106 93.2199C88.2121 93.5458 87.2628 93.6922 86.3123 93.6509H86.3139Z" fill="#E8F2FF"/>
<path d="M92.1546 86.749C92.1071 87.843 91.7364 88.8984 91.0894 89.7816C90.4424 90.6649 89.5481 91.3364 88.5197 91.7112C87.4912 92.0861 86.3748 92.1474 85.3114 91.8875C84.2481 91.6276 83.2858 91.0581 82.546 90.251C81.8062 89.4439 81.3222 88.4355 81.1553 87.3532C80.9883 86.271 81.1459 85.1635 81.608 84.1709C82.0702 83.1782 82.8162 82.3449 83.7517 81.7764C84.6872 81.2079 85.7702 80.9296 86.8638 80.9768C87.5901 81.0079 88.3033 81.1819 88.9624 81.4889C89.6215 81.7958 90.2137 82.2298 90.705 82.7658C91.1964 83.3019 91.5773 83.9296 91.8261 84.6131C92.0748 85.2965 92.1864 86.0223 92.1546 86.749Z" fill="#E8F2FF"/>
</g>
<g opacity="0.3">
<path d="M132.21 79.1835C131.484 78.5371 131.099 77.4369 131.244 76.5047C131.334 75.9222 132.972 74.9079 132.972 74.9079L130.527 72.2506C130.527 72.2506 129.382 73.805 128.796 73.8474C127.898 73.9135 126.884 73.4521 126.339 72.7033C125.992 72.227 126.441 70.3521 126.441 70.3521L122.831 70.1963C122.831 70.1963 123.113 72.1053 122.73 72.5469C122.197 73.1603 121.249 73.4708 120.474 73.3177C119.896 73.2027 118.963 71.5172 118.963 71.5172L116.196 73.837C116.196 73.837 117.693 75.0483 117.708 75.6375C117.733 76.6242 117.209 77.7122 116.382 78.302C115.902 78.6439 114.029 78.1704 114.029 78.1704L113.828 81.7791C113.828 81.7791 115.735 81.5176 116.172 81.9074C116.898 82.5571 117.284 83.6567 117.139 84.5878C117.05 85.1693 115.41 86.1846 115.41 86.1846L117.853 88.8413C117.853 88.8413 118.998 87.2886 119.586 87.2445C120.481 87.1807 121.5 87.6432 122.046 88.3887C122.391 88.8667 121.946 90.7393 121.946 90.7393L125.553 90.8957C125.553 90.8957 125.267 88.9878 125.651 88.5446C126.185 87.9334 127.137 87.6212 127.912 87.7737C128.488 87.891 129.422 89.5753 129.422 89.5753L132.187 87.2512C132.187 87.2512 130.691 86.037 130.674 85.4501C130.651 84.4634 131.174 83.3765 132.001 82.7867C132.481 82.4465 134.355 82.92 134.355 82.92L134.555 79.3118C134.555 79.3118 132.649 79.5744 132.21 79.1835ZM123.936 86.4428C122.754 86.3921 121.614 85.9918 120.659 85.2926C119.704 84.5933 118.979 83.6266 118.573 82.5147C118.168 81.4027 118.101 80.1954 118.382 79.0456C118.662 77.8957 119.277 76.8548 120.149 76.0547C121.021 75.2545 122.11 74.731 123.279 74.5503C124.449 74.3695 125.645 74.5398 126.718 75.0394C127.79 75.5391 128.691 76.3457 129.305 77.3573C129.919 78.3689 130.22 79.54 130.169 80.7225C130.135 81.5075 129.947 82.2782 129.615 82.9905C129.284 83.7029 128.815 84.3429 128.237 84.8741C127.658 85.4053 126.98 85.8172 126.242 86.0864C125.504 86.3556 124.721 86.4767 123.936 86.4428Z" fill="#E8F2FF"/>
<path d="M128.76 80.7435C128.721 81.6463 128.414 82.517 127.88 83.2457C127.346 83.9743 126.608 84.5282 125.759 84.8373C124.91 85.1464 123.989 85.1968 123.111 84.9821C122.234 84.7675 121.44 84.2975 120.829 83.6315C120.219 82.9654 119.82 82.1333 119.682 81.2402C119.544 80.3472 119.674 79.4333 120.055 78.6141C120.436 77.7948 121.052 77.1071 121.823 76.6377C122.595 76.1682 123.489 75.9383 124.391 75.9768C124.991 76.0024 125.58 76.1461 126.124 76.3996C126.669 76.6531 127.158 77.0114 127.563 77.4541C127.969 77.8968 128.284 78.4152 128.489 78.9796C128.694 79.5441 128.787 80.1435 128.76 80.7435Z" fill="#E8F2FF"/>
</g>
<path d="M103.794 111.927L103.675 111.444C136.409 103.349 146.984 85.0258 147.088 84.8423L147.521 85.0848C147.417 85.2706 136.732 103.781 103.794 111.927Z" fill="#459991"/>
<path d="M125.181 113.322C124.385 113.322 123.561 113.299 122.708 113.246L122.738 112.751C134.627 113.461 140.802 108.852 140.864 108.805L141.166 109.2C141.107 109.246 135.642 113.322 125.181 113.322Z" fill="#459991"/>
<path d="M105.55 111.686C105.55 111.878 105.473 112.061 105.338 112.197C105.203 112.332 105.019 112.409 104.828 112.41H102.643C102.451 112.409 102.267 112.333 102.132 112.197C101.996 112.062 101.919 111.878 101.919 111.686C101.919 111.494 101.996 111.31 102.131 111.174C102.267 111.038 102.451 110.962 102.643 110.961H104.828C105.019 110.962 105.203 111.038 105.339 111.174C105.474 111.31 105.55 111.494 105.55 111.686Z" fill="#5BD595"/>
<path d="M105.55 113C105.55 113.191 105.474 113.375 105.338 113.511C105.203 113.646 105.019 113.722 104.828 113.722H102.643C102.451 113.722 102.267 113.646 102.132 113.511C101.996 113.375 101.919 113.191 101.919 113C101.919 112.904 101.938 112.81 101.974 112.722C102.01 112.634 102.064 112.554 102.131 112.487C102.198 112.42 102.278 112.366 102.366 112.33C102.454 112.293 102.548 112.274 102.643 112.274H104.828C105.019 112.275 105.203 112.351 105.339 112.487C105.474 112.623 105.55 112.808 105.55 113Z" fill="#5BD595"/>
<path d="M105.55 114.313C105.55 114.504 105.474 114.688 105.338 114.824C105.203 114.959 105.019 115.036 104.828 115.036H102.643C102.451 115.036 102.267 114.96 102.132 114.824C101.996 114.689 101.919 114.505 101.919 114.313C101.919 114.121 101.995 113.936 102.131 113.801C102.267 113.665 102.451 113.588 102.643 113.588H104.828C104.923 113.588 105.017 113.607 105.104 113.644C105.192 113.68 105.272 113.734 105.339 113.801C105.406 113.868 105.459 113.948 105.495 114.036C105.532 114.124 105.55 114.218 105.55 114.313Z" fill="#5BD595"/>
<path d="M105.55 115.627C105.55 115.819 105.474 116.002 105.338 116.138C105.203 116.273 105.019 116.35 104.828 116.35H102.643C102.548 116.35 102.454 116.331 102.366 116.295C102.278 116.259 102.199 116.206 102.131 116.138C102.064 116.071 102.011 115.992 101.974 115.904C101.938 115.816 101.919 115.722 101.919 115.627C101.919 115.532 101.938 115.438 101.974 115.35C102.011 115.262 102.064 115.182 102.131 115.115C102.198 115.048 102.278 114.995 102.366 114.958C102.454 114.922 102.548 114.903 102.643 114.903H104.828C105.019 114.904 105.203 114.98 105.339 115.116C105.474 115.251 105.55 115.435 105.55 115.627Z" fill="#5BD595"/>
<path d="M124.538 111.686C124.538 111.878 124.461 112.062 124.326 112.197C124.19 112.333 124.006 112.409 123.814 112.41H121.632C121.44 112.409 121.257 112.333 121.121 112.197C120.985 112.062 120.909 111.878 120.908 111.686C120.908 111.494 120.985 111.31 121.121 111.174C121.256 111.038 121.44 110.962 121.632 110.961H123.814C123.91 110.961 124.004 110.98 124.091 111.017C124.179 111.053 124.259 111.106 124.326 111.174C124.393 111.241 124.447 111.321 124.483 111.409C124.519 111.497 124.538 111.591 124.538 111.686Z" fill="#5BD595"/>
<path d="M124.538 113C124.538 113.095 124.519 113.189 124.483 113.276C124.446 113.364 124.393 113.444 124.326 113.511C124.259 113.578 124.179 113.631 124.091 113.668C124.003 113.704 123.909 113.723 123.814 113.722H121.632C121.441 113.722 121.257 113.646 121.121 113.511C120.985 113.375 120.909 113.191 120.908 113C120.908 112.904 120.927 112.81 120.963 112.722C120.999 112.634 121.053 112.554 121.12 112.487C121.187 112.42 121.267 112.366 121.355 112.33C121.443 112.293 121.537 112.274 121.632 112.274H123.814C123.91 112.274 124.004 112.293 124.092 112.33C124.179 112.366 124.259 112.42 124.326 112.487C124.394 112.554 124.447 112.634 124.483 112.722C124.519 112.81 124.538 112.904 124.538 113Z" fill="#5BD595"/>
<path d="M124.538 114.313C124.538 114.408 124.519 114.502 124.483 114.59C124.446 114.677 124.393 114.757 124.326 114.824C124.259 114.891 124.179 114.945 124.091 114.981C124.003 115.017 123.909 115.036 123.814 115.036H121.632C121.441 115.036 121.257 114.96 121.121 114.824C120.985 114.689 120.909 114.505 120.908 114.313C120.908 114.121 120.984 113.936 121.12 113.801C121.256 113.665 121.44 113.588 121.632 113.588H123.814C123.91 113.588 124.004 113.607 124.092 113.643C124.179 113.68 124.259 113.733 124.326 113.8C124.394 113.868 124.447 113.948 124.483 114.036C124.519 114.123 124.538 114.218 124.538 114.313Z" fill="#5BD595"/>
<path d="M124.538 115.627C124.538 115.722 124.519 115.816 124.483 115.904C124.446 115.992 124.393 116.071 124.326 116.138C124.259 116.206 124.179 116.259 124.091 116.295C124.003 116.331 123.909 116.35 123.814 116.35H121.632C121.537 116.35 121.443 116.331 121.355 116.295C121.268 116.259 121.188 116.206 121.121 116.138C121.053 116.071 121 115.992 120.964 115.904C120.927 115.816 120.908 115.722 120.908 115.627C120.908 115.532 120.927 115.438 120.963 115.35C121 115.262 121.053 115.182 121.12 115.115C121.188 115.048 121.267 114.995 121.355 114.958C121.443 114.922 121.537 114.903 121.632 114.903H123.814C123.909 114.903 124.004 114.922 124.091 114.958C124.179 114.995 124.259 115.048 124.326 115.115C124.393 115.182 124.447 115.262 124.483 115.35C124.519 115.438 124.538 115.532 124.538 115.627Z" fill="#5BD595"/>
<path d="M177.694 138.765H152.967V140.281H177.694V138.765Z" fill="#34726C"/>
<path d="M152.031 91.8226L158.843 102.903L159.395 102.438L152.401 91.0635L152.031 91.8226Z" fill="#34726C"/>
<path d="M168.668 90.4303L161.476 102.58L160.868 102.087L168.255 89.6138L168.668 90.4303Z" fill="#34726C"/>
<path d="M152.031 79.3109L158.843 90.3917L159.395 89.9271L152.401 78.5532L152.031 79.3109Z" fill="#34726C"/>
<path d="M168.449 79.3109L161.635 90.3917L161.084 89.9271L168.078 78.5532L168.449 79.3109Z" fill="#34726C"/>
<path d="M160.084 90.5896L143.991 114.88L143.396 114.486L159.489 90.1968L160.084 90.5896Z" fill="#34726C"/>
<path d="M160.465 89.8834L175.924 115.479L176.43 114.996L160.97 89.3984L160.465 89.8834Z" fill="#34726C"/>
<path d="M168.425 68.328L142.104 102.972L141.537 102.54L167.858 67.8975L168.425 68.328Z" fill="#34726C"/>
<path d="M152.328 68.328L178.648 102.972L179.216 102.54L152.895 67.8975L152.328 68.328Z" fill="#34726C"/>
<path d="M161.876 66.8018H158.843V109.266H161.876V66.8018Z" fill="#459991"/>
<path d="M160.887 53.9736H159.826V68.6961H160.887V53.9736Z" fill="#459991"/>
<path d="M150.947 67.5789L149.948 67.0335L160.332 52.2876L160.772 53.7077L150.947 67.5789Z" fill="#459991"/>
<path d="M169.766 67.5789L170.766 67.0335L160.332 52.2876L159.944 53.7077L169.766 67.5789Z" fill="#459991"/>
<path d="M152.967 66.8018H149.935V102.896H152.967V66.8018Z" fill="#459991"/>
<path d="M152.328 66.8018H150.526V102.896H152.328V66.8018Z" fill="#3C857E"/>
<path d="M170.779 66.8018H167.747V102.896H170.779V66.8018Z" fill="#459991"/>
<path d="M152.967 144.525H149.935L158.743 102.895L161.92 102.438L152.967 144.525Z" fill="#459991"/>
<path d="M151.929 144.525H150.939L159.759 102.993L159.873 107.03L151.929 144.525Z" fill="#3C857E"/>
<path d="M170.237 89.1685H149.935V90.6853H170.237V89.1685Z" fill="#459991"/>
<path d="M180.443 101.68H140.278V103.197H180.443V101.68Z" fill="#459991"/>
<path d="M174.615 124.358H145.553V125.873H174.615V124.358Z" fill="#459991"/>
<path d="M167.747 141.04H142.07V142.557H167.747V141.04Z" fill="#34726C"/>
<path d="M177.315 114.121H142.07V115.638H177.315V114.121Z" fill="#459991"/>
<path d="M170.19 105.816L142.104 142.782L141.537 142.35L169.622 105.385L170.19 105.816Z" fill="#34726C"/>
<path d="M150.267 105.473L178.348 143.093L178.973 142.607L150.893 104.987L150.267 105.473Z" fill="#34726C"/>
<path d="M142.07 102.973H141.537V106.327H142.07V102.973Z" fill="#459991"/>
<path d="M147.571 78.5537H147.039V81.9069H147.571V78.5537Z" fill="#459991"/>
<path d="M173.721 78.5537H173.189V81.9069H173.721V78.5537Z" fill="#459991"/>
<path d="M179.216 102.973H178.684V106.327H179.216V102.973Z" fill="#459991"/>
<path d="M146.82 78.2084L146.192 77.7801L152.38 68.6958L152.923 69.2472L146.82 78.2084Z" fill="#459991"/>
<path d="M144.218 143.264H141.111L149.937 101.68L152.967 102.007L144.218 143.264Z" fill="#459991"/>
<path d="M143.396 143.264H141.805L150.505 102.993H152.143L143.396 143.264Z" fill="#3C857E"/>
<path d="M176.091 143.264H179.216L170.308 101.379L167.343 102.007L176.091 143.264Z" fill="#459991"/>
<path d="M176.782 143.264H178.559L170.096 103.197H168.449L176.782 143.264Z" fill="#3C857E"/>
<path d="M167.683 144.525H170.762L161.806 102.204L158.776 102.534L167.683 144.525Z" fill="#459991"/>
<path d="M161.056 67.5786H159.873V102.895H161.056V67.5786Z" fill="#3C857E"/>
<path d="M169.038 144.525H170.013L161.056 102.748L159.873 102.895L169.038 144.525Z" fill="#3C857E"/>
<path d="M170.165 101.68H168.446L168.363 67.251H170.165V101.68Z" fill="#3C857E"/>
<path d="M174.357 77.7954H146.192V79.3107H174.357V77.7954Z" fill="#459991"/>
<path d="M173.694 78.4304L174.357 78.0572L168.973 68.4751H168.078L173.694 78.4304Z" fill="#459991"/>
<path d="M170.779 66.8018H149.935V68.697H170.779V66.8018Z" fill="#459991"/>
<path d="M170.115 67.251H150.526V68.0811H170.115V67.251Z" fill="#3C857E"/>
<path d="M148.618 82.1138C148.618 82.1825 148.604 82.2504 148.578 82.3138C148.551 82.3772 148.513 82.4348 148.464 82.4832C148.415 82.5317 148.358 82.5701 148.294 82.5963C148.231 82.6225 148.163 82.6359 148.094 82.6358H146.515C146.446 82.6359 146.378 82.6225 146.315 82.5963C146.251 82.5701 146.194 82.5317 146.145 82.4832C146.097 82.4347 146.058 82.3771 146.032 82.3137C146.006 82.2504 145.992 82.1824 145.992 82.1138C145.992 82.0451 146.006 81.9771 146.032 81.9135C146.058 81.85 146.097 81.7923 146.145 81.7437C146.194 81.6951 146.251 81.6565 146.315 81.6302C146.378 81.6039 146.446 81.5903 146.515 81.5903H148.094C148.233 81.5903 148.366 81.6455 148.464 81.7437C148.562 81.8418 148.618 81.975 148.618 82.1138Z" fill="#5BD595"/>
<path d="M148.618 83.0635C148.618 83.2024 148.562 83.3355 148.464 83.4337C148.366 83.5319 148.233 83.587 148.094 83.587H146.515C146.376 83.5868 146.243 83.5316 146.145 83.4334C146.047 83.3353 145.992 83.2022 145.992 83.0635C145.992 82.9248 146.047 82.7918 146.145 82.6936C146.243 82.5955 146.376 82.5402 146.515 82.54H148.094C148.233 82.54 148.366 82.5952 148.464 82.6934C148.562 82.7915 148.618 82.9247 148.618 83.0635Z" fill="#5BD595"/>
<path d="M148.618 84.0135C148.617 84.1522 148.562 84.2852 148.464 84.3832C148.366 84.4812 148.233 84.5362 148.094 84.5362H146.515C146.376 84.536 146.243 84.4809 146.146 84.3829C146.048 84.2849 145.992 84.1521 145.992 84.0135C145.992 83.9448 146.006 83.8767 146.032 83.8131C146.058 83.7496 146.096 83.6918 146.145 83.6431C146.193 83.5944 146.251 83.5558 146.315 83.5294C146.378 83.503 146.446 83.4894 146.515 83.4893H148.094C148.233 83.4895 148.366 83.5448 148.464 83.6431C148.563 83.7414 148.618 83.8746 148.618 84.0135Z" fill="#5BD595"/>
<path d="M148.618 84.9639C148.618 85.0326 148.604 85.1005 148.578 85.1639C148.551 85.2273 148.513 85.2849 148.464 85.3333C148.415 85.3818 148.358 85.4202 148.294 85.4464C148.231 85.4726 148.163 85.486 148.094 85.4859H146.515C146.376 85.4859 146.244 85.4309 146.146 85.3331C146.048 85.2352 145.992 85.1024 145.992 84.9639C145.992 84.8952 146.006 84.8272 146.032 84.7636C146.058 84.7001 146.097 84.6424 146.145 84.5938C146.194 84.5452 146.251 84.5066 146.315 84.4803C146.378 84.454 146.446 84.4404 146.515 84.4404H148.094C148.163 84.4403 148.231 84.4538 148.295 84.4801C148.358 84.5063 148.416 84.5449 148.465 84.5935C148.513 84.6422 148.552 84.6999 148.578 84.7635C148.604 84.827 148.618 84.8951 148.618 84.9639Z" fill="#5BD595"/>
<path d="M174.766 82.063C174.766 82.2017 174.711 82.3345 174.613 82.4325C174.514 82.5304 174.382 82.5856 174.243 82.5858H172.664C172.526 82.5858 172.393 82.5307 172.294 82.4327C172.196 82.3347 172.141 82.2017 172.141 82.063C172.141 81.9242 172.196 81.791 172.294 81.6929C172.392 81.5947 172.525 81.5396 172.664 81.5396H174.243C174.382 81.5398 174.515 81.595 174.613 81.6931C174.711 81.7912 174.766 81.9243 174.766 82.063Z" fill="#5BD595"/>
<path d="M174.766 83.0152C174.766 83.154 174.711 83.287 174.613 83.3851C174.515 83.4833 174.382 83.5385 174.243 83.5387H172.664C172.525 83.5387 172.392 83.4835 172.294 83.3853C172.196 83.2872 172.141 83.154 172.141 83.0152C172.141 82.8763 172.196 82.7432 172.294 82.645C172.392 82.5469 172.525 82.4917 172.664 82.4917H174.243C174.382 82.4919 174.515 82.5471 174.613 82.6452C174.711 82.7434 174.766 82.8764 174.766 83.0152Z" fill="#5BD595"/>
<path d="M174.766 83.9661C174.766 84.0348 174.753 84.1028 174.726 84.1663C174.7 84.2298 174.662 84.2874 174.613 84.336C174.564 84.3845 174.507 84.423 174.443 84.4492C174.38 84.4755 174.312 84.4889 174.243 84.4888H172.664C172.596 84.4889 172.527 84.4755 172.464 84.4492C172.401 84.423 172.343 84.3845 172.294 84.336C172.246 84.2874 172.207 84.2298 172.181 84.1663C172.154 84.1028 172.141 84.0348 172.141 83.9661C172.141 83.8974 172.154 83.8293 172.181 83.7659C172.207 83.7024 172.246 83.6447 172.294 83.5962C172.343 83.5476 172.401 83.5092 172.464 83.4829C172.527 83.4567 172.596 83.4433 172.664 83.4434H174.243C174.312 83.4433 174.38 83.4567 174.443 83.4829C174.507 83.5092 174.564 83.5476 174.613 83.5962C174.662 83.6447 174.7 83.7024 174.726 83.7659C174.753 83.8293 174.766 83.8974 174.766 83.9661Z" fill="#5BD595"/>
<path d="M174.766 84.9153C174.766 85.0541 174.711 85.1871 174.613 85.2852C174.515 85.3834 174.382 85.4386 174.243 85.4388H172.664C172.525 85.4388 172.392 85.3836 172.294 85.2855C172.196 85.1873 172.141 85.0541 172.141 84.9153C172.141 84.8466 172.154 84.7786 172.181 84.7151C172.207 84.6516 172.246 84.594 172.294 84.5454C172.343 84.4969 172.401 84.4584 172.464 84.4322C172.527 84.4059 172.596 84.3925 172.664 84.3926H174.243C174.382 84.3926 174.515 84.4476 174.613 84.5456C174.711 84.6436 174.766 84.7766 174.766 84.9153Z" fill="#5BD595"/>
<path d="M143.116 105.631C143.116 105.769 143.061 105.902 142.963 106.001C142.865 106.099 142.732 106.154 142.594 106.154H141.015C140.946 106.154 140.878 106.141 140.815 106.114C140.751 106.088 140.694 106.049 140.645 106.001C140.596 105.952 140.558 105.894 140.532 105.831C140.506 105.767 140.492 105.699 140.492 105.631C140.492 105.492 140.547 105.359 140.645 105.261C140.743 105.163 140.876 105.108 141.015 105.108H142.594C142.733 105.108 142.866 105.163 142.964 105.261C143.062 105.359 143.117 105.492 143.117 105.631H143.116Z" fill="#5BD595"/>
<path d="M143.116 106.58C143.116 106.649 143.103 106.717 143.077 106.78C143.05 106.844 143.012 106.901 142.963 106.95C142.915 106.999 142.857 107.037 142.794 107.063C142.73 107.09 142.662 107.103 142.594 107.103H141.015C140.946 107.103 140.878 107.09 140.815 107.063C140.751 107.037 140.694 106.999 140.645 106.95C140.596 106.901 140.558 106.844 140.532 106.78C140.506 106.717 140.492 106.649 140.492 106.58C140.492 106.441 140.547 106.308 140.645 106.21C140.743 106.112 140.876 106.057 141.015 106.057H142.594C142.733 106.057 142.866 106.112 142.964 106.21C143.062 106.308 143.117 106.441 143.117 106.58H143.116Z" fill="#5BD595"/>
<path d="M143.116 107.531C143.116 107.67 143.061 107.803 142.963 107.901C142.865 107.999 142.732 108.054 142.594 108.054H141.015C140.946 108.054 140.878 108.041 140.815 108.014C140.751 107.988 140.694 107.95 140.645 107.901C140.596 107.852 140.558 107.795 140.532 107.731C140.506 107.668 140.492 107.6 140.492 107.531C140.492 107.462 140.506 107.394 140.532 107.331C140.558 107.267 140.596 107.209 140.645 107.161C140.694 107.112 140.751 107.074 140.815 107.047C140.878 107.021 140.946 107.007 141.015 107.007H142.594C142.733 107.008 142.866 107.063 142.964 107.161C143.062 107.259 143.117 107.392 143.117 107.531H143.116Z" fill="#5BD595"/>
<path d="M143.116 108.48C143.116 108.619 143.061 108.752 142.963 108.85C142.865 108.948 142.732 109.003 142.594 109.003H141.015C140.876 109.003 140.743 108.948 140.645 108.85C140.547 108.752 140.492 108.619 140.492 108.48C140.492 108.342 140.547 108.209 140.645 108.111C140.743 108.013 140.876 107.958 141.015 107.958H142.594C142.733 107.958 142.866 108.013 142.964 108.111C143.062 108.209 143.117 108.342 143.117 108.48H143.116Z" fill="#5BD595"/>
<path d="M180.262 105.679C180.262 105.818 180.207 105.951 180.109 106.049C180.011 106.147 179.878 106.202 179.74 106.202H178.164C178.025 106.202 177.893 106.147 177.795 106.049C177.697 105.951 177.642 105.818 177.642 105.679C177.641 105.611 177.655 105.542 177.681 105.479C177.707 105.415 177.746 105.358 177.794 105.309C177.843 105.261 177.9 105.222 177.964 105.196C178.027 105.169 178.095 105.156 178.164 105.156H179.743C179.882 105.156 180.014 105.211 180.112 105.309C180.21 105.408 180.265 105.541 180.265 105.679H180.262Z" fill="#5BD595"/>
<path d="M180.262 106.628C180.262 106.767 180.207 106.9 180.109 106.998C180.011 107.096 179.879 107.152 179.74 107.152H178.164C178.095 107.152 178.027 107.138 177.964 107.112C177.9 107.086 177.843 107.047 177.794 106.999C177.746 106.95 177.707 106.892 177.681 106.829C177.655 106.765 177.641 106.697 177.642 106.628C177.641 106.56 177.655 106.492 177.681 106.428C177.707 106.365 177.746 106.307 177.794 106.258C177.843 106.21 177.9 106.171 177.964 106.145C178.027 106.119 178.095 106.105 178.164 106.105H179.743C179.882 106.105 180.014 106.16 180.112 106.259C180.21 106.357 180.265 106.49 180.265 106.628H180.262Z" fill="#5BD595"/>
<path d="M180.262 107.579C180.262 107.648 180.249 107.716 180.223 107.78C180.197 107.843 180.158 107.901 180.11 107.95C180.061 107.998 180.004 108.037 179.94 108.063C179.877 108.09 179.809 108.104 179.74 108.104H178.164C178.095 108.104 178.027 108.09 177.964 108.063C177.9 108.037 177.843 107.998 177.794 107.95C177.746 107.901 177.707 107.843 177.681 107.78C177.655 107.716 177.641 107.648 177.642 107.579C177.642 107.441 177.697 107.308 177.795 107.21C177.893 107.112 178.025 107.057 178.164 107.057H179.743C179.881 107.057 180.014 107.112 180.112 107.21C180.21 107.308 180.265 107.441 180.265 107.579H180.262Z" fill="#5BD595"/>
<path d="M180.262 108.529C180.262 108.667 180.207 108.8 180.109 108.898C180.011 108.997 179.879 109.052 179.74 109.052H178.164C178.095 109.052 178.027 109.039 177.964 109.012C177.9 108.986 177.843 108.947 177.794 108.899C177.746 108.85 177.707 108.792 177.681 108.729C177.655 108.665 177.641 108.597 177.642 108.529C177.642 108.39 177.697 108.257 177.795 108.159C177.893 108.061 178.025 108.006 178.164 108.006H179.743C179.881 108.006 180.014 108.061 180.112 108.159C180.21 108.257 180.265 108.39 180.265 108.529H180.262Z" fill="#5BD595"/>
<path d="M133.625 115.849H89.1161V142.558H133.625V115.849Z" fill="#71D3CA"/>
<path d="M101.159 115.849H89.1161V142.558H101.159V115.849Z" fill="#4AA29A"/>
<path d="M97.8922 118.932H87.8392V120.549H97.8922V118.932Z" fill="#34726C"/>
<path d="M97.8922 118.932H95.8234V120.549H97.8922V118.932Z" fill="#3C857E"/>
<path d="M86.3987 121.355H99.4817L99.0377 119.747H86.8419L86.3987 121.355Z" fill="#3C857E"/>
<path d="M96.0439 121.355H86.3987V132.797H96.0439V121.355Z" fill="#459991"/>
<path d="M99.4808 121.355H95.174V132.797H99.4808V121.355Z" fill="#459991"/>
<path d="M95.174 121.355L95.5077 119.747H99.0376L99.4816 121.355H95.174Z" fill="#34726C"/>
<path d="M89.742 127.325H92.6996L91.2204 124.367L89.742 127.325Z" fill="#4CA1BF"/>
<path d="M92.4134 127.124L91.2204 124.802L90.0282 127.124H92.4134Z" fill="#FFCF03"/>
<path d="M91.4628 126.932L91.4855 125.883L91.2152 126.246L91.1427 125.323L91.1367 126.526L91.3549 126.225L91.4628 126.932Z" fill="#6D76A1"/>
<path d="M98.8527 122.778H95.8234V124.588H98.8527V122.778Z" fill="#3C857E"/>
<path d="M98.4774 123.008H96.1964V123.23H98.4774V123.008Z" fill="#34726C"/>
<path d="M98.4774 123.397H96.1964V123.618H98.4774V123.397Z" fill="#34726C"/>
<path d="M98.4774 123.794H96.1964V124.017H98.4774V123.794Z" fill="#34726C"/>
<path d="M98.4774 124.183H96.1964V124.404H98.4774V124.183Z" fill="#34726C"/>
<path d="M103.456 137.857L103.476 120.917L132.035 120.953L132.015 137.896L103.456 137.857Z" fill="#3C857E"/>
<path d="M127.735 135.797L127.748 123.04L128.99 123.041L128.974 135.798L127.735 135.797Z" fill="#34726C"/>
<path d="M129.754 135.797L129.767 123.04L131.009 123.041L130.993 135.798L129.754 135.797Z" fill="#464F72"/>
<path d="M125.565 135.795L125.58 123.038L126.823 123.039L126.807 135.795H125.565Z" fill="#34726C"/>
<path d="M123.356 123.031L123.34 135.788L124.582 135.79L124.597 123.033L123.356 123.031Z" fill="#34726C"/>
<path d="M121.176 135.79L121.194 123.032L122.435 123.034L122.418 135.792L121.176 135.79Z" fill="#34726C"/>
<path d="M118.969 135.786L118.985 123.029L120.226 123.03L120.211 135.787L118.969 135.786Z" fill="#34726C"/>
<path d="M116.801 135.784L116.816 123.026L118.057 123.028L118.043 135.784H116.801Z" fill="#34726C"/>
<path d="M114.414 122.905V135.663H115.656V122.905H114.414Z" fill="#34726C"/>
<path d="M112.411 135.776L112.428 123.021L113.669 123.022L113.654 135.78L112.411 135.776Z" fill="#34726C"/>
<path d="M109.775 135.775L109.791 123.018L111.033 123.019L111.017 135.776L109.775 135.775Z" fill="#34726C"/>
<path d="M107.554 135.774L107.571 123.015L108.812 123.017L108.796 135.776L107.554 135.774Z" fill="#34726C"/>
<path d="M105.385 135.768L105.402 123.011L106.643 123.013L106.627 135.771L105.385 135.768Z" fill="#34726C"/>
<path d="M135.418 113.411C135.44 113.075 135.838 112.148 136.79 112.052C138.064 111.922 140.477 112.92 141.908 111.885C143.339 110.849 143.214 109.656 143.233 108.849C143.253 108.041 142.878 107.711 142.942 107.243C143.005 106.774 143.557 106.872 143.839 108.174C143.975 108.797 145.009 111.792 143.531 113.343C141.595 115.375 135.303 115.403 135.418 113.411Z" fill="#FBC6B4"/>
<path d="M135.306 112.752C135.306 112.752 134.949 114.112 136.953 114.698C138.957 115.283 139.912 115.263 139.912 115.263C139.912 115.263 140.667 114.124 140.467 111.987C140.467 111.987 135.534 110.768 135.306 112.752Z" fill="#EDA503"/>
<path d="M130.627 113.971C130.655 114.688 130.572 115.406 130.38 116.098C130.306 116.365 130.217 116.628 130.112 116.884C129.756 117.735 129.537 119.021 128.94 120.012C129.434 120.353 129.009 121.061 128.974 121.111C127.295 123.173 135.131 123.132 136.808 121.539C137.384 120.991 137.178 120.071 137.551 118.842C137.644 118.569 137.719 118.288 137.788 118.011C138.127 116.744 138.339 115.478 138.362 114.586C138.429 111.884 136.04 111.182 134.521 111.036C133.831 110.968 132.935 110.874 132.169 111.105V111.111C131.274 111.398 130.575 112.144 130.627 113.971Z" fill="#FFB502"/>
<path d="M137.295 128.067C134.954 129.842 130.449 134.04 131.405 134.88C132.361 135.721 133.182 135.851 132.76 135.207C132.337 134.564 132.378 134.477 132.544 134.315C133.584 133.302 136.293 132.071 138.056 130.831C140.097 129.391 139.339 126.511 137.295 128.067Z" fill="#FBC6B4"/>
<path d="M131.386 134.057C131.386 134.057 131.928 135.139 132.76 135.204C132.76 135.204 133.604 136.145 132.788 135.899C131.971 135.653 130.626 134.899 131.386 134.057Z" fill="#FFB502"/>
<path d="M132.838 113.149C132.834 114.498 133.075 116.624 129.777 117.595C129.777 117.595 133.654 124.859 137.378 122.301C137.378 122.301 138.114 116.597 137.819 114.188C137.734 113.498 137.582 111.62 136.162 111.404C136.162 111.404 137.614 115.014 136.51 115.624C135.406 116.234 134.718 115.335 134.467 114.616C134.065 113.463 133.164 110.959 133.164 110.959L132.284 111.075C132.635 111.711 132.826 112.423 132.838 113.149Z" fill="#2E2E2E"/>
<path d="M133.737 108.944C133.737 108.944 134.388 110.028 133.65 110.719C132.889 111.427 136.262 112.799 136.114 112.14C135.925 111.291 135.434 110.826 135.751 109.799L133.737 108.944Z" fill="#F7B2A0"/>
<path d="M135.33 106.596C136.134 107.211 137.23 110.163 136.531 110.91C136.223 111.234 134.813 111.047 133.805 109.802C133.391 109.293 132.843 108.311 133.29 107.224C133.494 106.731 134.398 105.88 135.33 106.596Z" fill="#FBC6B4"/>
<path d="M136.114 106.884C136.315 107.249 136.277 107.337 135.149 107.631C134.022 107.925 133.818 107.868 133.962 108.128C134.388 108.896 133.555 108.823 134.072 109.735C134.589 110.648 133.568 110.168 133.065 109.428C132.967 109.277 132.406 108.558 132.838 107.313C133.346 105.858 135.372 105.549 136.114 106.884Z" fill="#404040"/>
<path d="M134.567 108.577C134.567 108.577 137.285 107.903 137.15 106.817C137.068 106.149 135.051 106.363 135.051 106.363L134.567 108.577Z" fill="#EDA503"/>
<path d="M136.22 107.046C135.918 108.083 135.147 108.546 132.838 109.096C132.838 109.096 131.743 107.005 133.259 105.953C134.597 105.027 136.414 106.387 136.22 107.046Z" fill="#FFB502"/>
<path d="M136.899 120.907C136.899 120.907 142.572 124.199 143.235 126.175C143.897 128.15 133.3 134.418 133.3 134.418C133.3 134.418 132.06 133.182 132.632 132.055C134.778 127.825 135.562 126.474 135.562 126.474L130.304 122.092L136.899 120.907Z" fill="#2E2E2E"/>
<path d="M129.307 131.276C128.523 134.106 127.484 140.177 128.754 140.265C130.024 140.352 130.756 139.963 130.031 139.703C129.305 139.443 129.283 139.353 129.317 139.124C129.531 137.689 130.937 135.065 131.583 133.013C132.338 130.63 129.991 128.8 129.307 131.276Z" fill="#FBC6B4"/>
<path d="M128.241 139.623C128.241 139.623 129.329 140.156 130.031 139.699C130.031 139.699 131.272 139.937 130.473 140.234C129.675 140.532 128.147 140.756 128.241 139.623Z" fill="#FFB502"/>
<path d="M129.777 117.595C129.777 117.595 128.605 119.984 127.889 123.416C127.026 127.552 127.814 137.706 127.814 137.706C127.814 137.706 127.635 138.031 130.165 137.714C130.844 137.627 133.99 123.796 133.99 123.796L133.149 119.925L129.777 117.595Z" fill="#2E2E2E"/>
<path d="M128.632 137.857C127.562 130.757 130.364 119.722 130.392 119.611L130.529 119.646C130.501 119.756 127.705 130.764 128.77 137.837L128.632 137.857Z" fill="white"/>
<path d="M131.034 112.102C131.161 111.805 131.708 111.283 132.593 111.507C133.778 111.809 135.618 113.485 137.237 113.018C138.857 112.55 139.132 111.444 139.412 110.727C139.693 110.011 139.465 109.594 139.672 109.193C139.88 108.792 140.346 109.061 140.176 110.32C140.094 110.92 140.049 113.946 138.219 114.853C135.822 116.055 130.282 113.851 131.034 112.102Z" fill="#FBC6B4"/>
<path d="M131.092 111.797C131.092 111.797 130.331 112.901 131.94 114.078C133.549 115.256 134.408 115.547 134.408 115.547C134.408 115.547 135.452 114.767 135.969 112.789C135.969 112.789 131.941 110.094 131.092 111.797Z" fill="#EDA503"/>
<path d="M132.077 145.177L131.555 144.966L141.104 121.418H135.513L125.879 145.177L125.359 144.966L135.134 120.855H141.938L132.077 145.177Z" fill="#464F72"/>
<path d="M137.23 131.441H131.031V132.004H137.23V131.441Z" fill="#464F72"/>
<path d="M135.988 134.347H129.79V134.909H135.988V134.347Z" fill="#464F72"/>
<path d="M134.915 137.282H128.717V137.845H134.915V137.282Z" fill="#464F72"/>
<path d="M133.57 140.275H127.372V140.838H133.57V140.275Z" fill="#464F72"/>
<path d="M144.934 145.169L138.502 128.033L139.027 127.835L145.461 144.971L144.934 145.169Z" fill="#464F72"/>
<path d="M132.597 128.279L132.071 128.477L138.503 145.614L139.029 145.416L132.597 128.279Z" fill="#464F72"/>
<path opacity="0.5" d="M66.4169 90.9646C66.1798 90.9644 65.9481 90.894 65.751 90.7621C65.5539 90.6302 65.4003 90.4428 65.3096 90.2236C65.219 90.0044 65.1953 89.7632 65.2417 89.5306C65.288 89.2979 65.4023 89.0842 65.57 88.9165C65.7377 88.7488 65.9514 88.6347 66.1839 88.5884C66.4165 88.5422 66.6576 88.566 66.8766 88.6568C67.0957 88.7476 67.2829 88.9014 67.4146 89.0986C67.5463 89.2959 67.6167 89.5278 67.6167 89.765C67.6163 90.0831 67.4898 90.3881 67.2648 90.6131C67.0399 90.838 66.735 90.9644 66.4169 90.9646ZM66.4169 89.1001C66.2855 89.1001 66.157 89.1391 66.0477 89.2122C65.9384 89.2852 65.8533 89.3891 65.803 89.5106C65.7527 89.6321 65.7395 89.7657 65.7651 89.8947C65.7908 90.0237 65.8541 90.1421 65.947 90.2351C66.04 90.3281 66.1584 90.3914 66.2873 90.4171C66.4162 90.4427 66.5498 90.4295 66.6712 90.3792C66.7927 90.3289 66.8965 90.2437 66.9695 90.1344C67.0425 90.025 67.0815 89.8965 67.0815 89.765C67.0818 89.6775 67.0648 89.5908 67.0315 89.5098C66.9982 89.4289 66.9493 89.3553 66.8876 89.2933C66.8259 89.2313 66.7525 89.1821 66.6718 89.1485C66.591 89.1149 66.5044 89.0975 66.4169 89.0974V89.1001Z" fill="white"/>
<path d="M75.5011 93.1436L75.4937 93.5583L76.4779 93.5766L76.4861 93.1625L75.5011 93.1436Z" fill="#1C2745"/>
<path d="M74.0352 93.1152L74.0271 93.53L75.0121 93.5483L75.0195 93.1335L74.0352 93.1152Z" fill="#1C2745"/>
<path d="M72.5692 93.0869L72.5611 93.5017L73.5454 93.5207L73.5535 93.1066L72.5692 93.0869Z" fill="#1C2745"/>
<path d="M71.0997 93.058L71.0917 93.4727L72.0759 93.4916L72.0838 93.0769L71.0997 93.058Z" fill="#1C2745"/>
<path d="M69.625 93.0287L69.6168 93.4434L70.6016 93.463L70.6098 93.0483L69.625 93.0287Z" fill="#1C2745"/>
<path d="M68.1693 93.0039L68.1619 93.418L69.1462 93.437L69.1543 93.0229L68.1693 93.0039Z" fill="#1C2745"/>
<path d="M66.7088 92.9497L66.7005 93.3638L67.6848 93.3835L67.6931 92.9694L66.7088 92.9497Z" fill="#1C2745"/>
<path d="M65.2291 92.9452L65.2208 93.3599L66.2056 93.3795L66.2138 92.9648L65.2291 92.9452Z" fill="#1C2745"/>
<path d="M63.7698 92.9195L63.7615 93.3335L64.7457 93.3531L64.7539 92.9391L63.7698 92.9195Z" fill="#1C2745"/>
<path d="M62.3051 92.8924L62.2972 93.3071L63.282 93.326L63.2899 92.9114L62.3051 92.8924Z" fill="#1C2745"/>
<path d="M60.8397 92.8638L60.8321 93.2778L61.8162 93.296L61.8239 92.882L60.8397 92.8638Z" fill="#1C2745"/>
<path d="M59.3774 92.8105L59.3691 93.2246L60.3541 93.2443L60.3623 92.8302L59.3774 92.8105Z" fill="#1C2745"/>
<path d="M57.9014 92.8072L57.8935 93.2212L58.8776 93.2401L58.8856 92.8261L57.9014 92.8072Z" fill="#1C2745"/>
<path d="M56.4365 92.7772L56.4283 93.1919L57.4124 93.2115L57.4206 92.7968L56.4365 92.7772Z" fill="#1C2745"/>
<g opacity="0.5">
<path d="M78.9033 122.007L75.3833 118.54L76.1148 117.795L79.6348 121.263L78.9033 122.007Z" fill="white"/>
<path d="M78.8638 117.797L75.411 121.257L76.1489 121.994L79.6017 118.534L78.8638 117.797Z" fill="white"/>
</g>
<g opacity="0.5">
<path d="M48.9422 91.7021H43.1752V92.1488H48.9422V91.7021Z" fill="#404040"/>
<path d="M48.6061 90.2446H45.4263V90.6899H48.6061V90.2446Z" fill="#404040"/>
</g>
<path d="M51.7266 155.412L52.0246 155.133L53.2149 156.394C53.3856 156.574 53.6208 156.68 53.8692 156.688C54.1175 156.696 54.3591 156.606 54.5413 156.437L55.5574 155.488C55.687 155.367 55.8393 155.272 56.0055 155.21C56.1717 155.148 56.3486 155.119 56.526 155.125C56.7034 155.132 56.8778 155.173 57.0392 155.247C57.2005 155.321 57.3457 155.426 57.4664 155.556L58.2488 156.398C58.334 156.49 58.4364 156.563 58.5501 156.615C58.6639 156.666 58.7867 156.694 58.9114 156.698C59.0362 156.701 59.1604 156.68 59.2769 156.635C59.3934 156.591 59.4999 156.523 59.5901 156.437L60.4776 155.583C60.6108 155.456 60.7687 155.357 60.9415 155.293C61.1144 155.229 61.2985 155.201 61.4825 155.211C61.6666 155.221 61.8467 155.268 62.0117 155.35C62.1767 155.432 62.3232 155.547 62.4421 155.688L62.9271 156.264C63.0146 156.367 63.1234 156.451 63.2461 156.509C63.3688 156.567 63.5026 156.598 63.6383 156.599C63.7739 156.6 63.9083 156.573 64.0323 156.517C64.1562 156.462 64.2668 156.381 64.3565 156.279L65.4329 155.05L65.7385 155.321L64.6634 156.551C64.5352 156.697 64.3767 156.815 64.199 156.894C64.0213 156.973 63.8285 157.013 63.6338 157.011C63.4391 157.009 63.2473 156.965 63.0714 156.881C62.8955 156.798 62.7397 156.677 62.6148 156.528L62.1325 155.952C62.0495 155.853 61.947 155.773 61.8316 155.715C61.7161 155.658 61.5901 155.624 61.4613 155.618C61.3325 155.611 61.2037 155.631 61.0829 155.676C60.962 155.721 60.8517 155.79 60.7587 155.879L59.8686 156.733C59.7398 156.857 59.5875 156.954 59.4208 157.018C59.254 157.083 59.076 157.114 58.8973 157.109C58.7185 157.104 58.5426 157.063 58.3797 156.989C58.2168 156.915 58.0703 156.81 57.9487 156.678L57.167 155.837C56.9963 155.654 56.7599 155.546 56.5099 155.537C56.3859 155.532 56.2621 155.551 56.1457 155.594C56.0294 155.637 55.9229 155.703 55.8325 155.789L54.8163 156.737C54.555 156.979 54.2092 157.108 53.8535 157.097C53.4978 157.086 53.1609 156.935 52.9154 156.677L51.7266 155.412Z" fill="#FFB502"/>
<g opacity="0.5">
<path d="M77.9535 103.376L77.59 103.745L79.338 105.467L79.7016 105.097L77.9535 103.376Z" fill="white"/>
<path d="M77.9728 105.46L77.6063 105.094L79.3195 103.376L79.6866 103.742L77.9728 105.46Z" fill="white"/>
</g>
<g opacity="0.5">
<path d="M76.4946 111.394C76.3309 111.394 76.1709 111.345 76.0349 111.254C75.8989 111.163 75.7929 111.033 75.7303 110.882C75.6677 110.731 75.6515 110.564 75.6835 110.403C75.7155 110.243 75.7944 110.095 75.9102 109.98C76.026 109.864 76.1735 109.785 76.3341 109.753C76.4946 109.721 76.661 109.738 76.8123 109.8C76.9635 109.863 77.0927 109.969 77.1837 110.105C77.2746 110.242 77.3231 110.402 77.3231 110.565C77.3226 110.785 77.2351 110.996 77.0798 111.151C76.9246 111.306 76.7141 111.393 76.4946 111.394ZM76.4946 110.106C76.4039 110.106 76.3153 110.133 76.2398 110.183C76.1644 110.234 76.1056 110.305 76.0709 110.389C76.0362 110.473 76.0271 110.565 76.0448 110.654C76.0625 110.743 76.1062 110.825 76.1703 110.889C76.2345 110.953 76.3162 110.997 76.4052 111.015C76.4941 111.032 76.5863 111.023 76.6701 110.989C76.7539 110.954 76.8256 110.895 76.876 110.82C76.9264 110.744 76.9533 110.656 76.9533 110.565C76.9527 110.443 76.9042 110.327 76.8183 110.241C76.7324 110.155 76.616 110.107 76.4946 110.107V110.106Z" fill="white"/>
<path d="M80.7089 110.649L80.9189 110.416C80.9189 110.416 80.8153 110.311 80.7103 110.209C80.6053 110.107 80.5159 109.985 80.5159 109.985L80.2727 110.182C80.2727 110.182 80.3763 110.303 80.4813 110.423L80.7089 110.649Z" fill="white"/>
<path d="M81.5741 111.125L81.6418 110.817C81.5531 110.797 81.4668 110.767 81.3844 110.729C81.3254 110.704 81.269 110.673 81.2157 110.637L81.1412 110.589L80.9637 110.848L81.0504 110.903C81.1143 110.947 81.1824 110.984 81.2536 111.014C81.3563 111.062 81.4637 111.099 81.5741 111.125Z" fill="white"/>
<path d="M82.5624 110.996L82.4378 110.708C82.3516 110.747 82.2623 110.778 82.1709 110.802C82.0824 110.826 81.9915 110.839 81.8999 110.842L81.9094 111.157C82.0238 111.152 82.1374 111.136 82.2481 111.107C82.3556 111.078 82.4607 111.041 82.5624 110.996Z" fill="white"/>
<path d="M83.376 110.527L83.2073 110.263L82.9485 110.427L82.6924 110.58L82.8449 110.851L83.1158 110.69L83.376 110.527Z" fill="white"/>
<path d="M84.1462 110.124L84.052 109.825C83.9478 109.86 83.8458 109.901 83.7465 109.949C83.6016 110.02 83.4661 110.101 83.4661 110.101L83.6259 110.372C83.6259 110.372 83.754 110.296 83.8834 110.23C83.9688 110.19 84.0566 110.154 84.1462 110.124Z" fill="white"/>
<path d="M84.9225 110.163L85.0519 109.878C84.9473 109.829 84.8369 109.794 84.7234 109.774C84.6094 109.753 84.4932 109.748 84.3779 109.759L84.407 110.072C84.4942 110.063 84.5823 110.066 84.6685 110.083C84.756 110.099 84.8413 110.126 84.9225 110.163Z" fill="white"/>
<path d="M85.5769 110.691L85.8126 110.483C85.8126 110.483 85.7036 110.367 85.5898 110.252C85.5274 110.199 85.4658 110.145 85.419 110.106C85.3923 110.084 85.3642 110.064 85.335 110.046L85.1548 110.303C85.1548 110.303 85.184 110.321 85.226 110.354C85.268 110.387 85.3215 110.435 85.375 110.482C85.4773 110.581 85.5769 110.691 85.5769 110.691Z" fill="white"/>
</g>
<path d="M28.4425 93.3845L28.9851 93.3825L28.979 92.0928L28.4371 92.0948L28.4425 93.3845Z" fill="#1C2745"/>
<path d="M28.9857 94.0139L28.4437 94.0166L28.4503 95.3063L28.9922 95.3035L28.9857 94.0139Z" fill="#1C2745"/>
<path d="M28.4622 97.226L29.0048 97.2233L28.9981 95.9336L28.4561 95.9363L28.4622 97.226Z" fill="#1C2745"/>
<path d="M29.0099 97.854L28.4673 97.8564L28.4731 99.1461L29.0157 99.1437L29.0099 97.854Z" fill="#1C2745"/>
<path d="M28.4811 101.068L29.0237 101.066L29.0176 99.7759L28.4757 99.7779L28.4811 101.068Z" fill="#1C2745"/>
<path d="M28.4913 102.989L29.0339 102.986L29.0271 101.696L28.4852 101.699L28.4913 102.989Z" fill="#1C2745"/>
<path d="M28.5008 104.907L29.0434 104.906L29.0366 103.616L28.4947 103.619L28.5008 104.907Z" fill="#1C2745"/>
<path d="M46.3198 95.3896H31.1038V151.438H46.3198V95.3896Z" fill="#4AA29A"/>
<path d="M73.1841 95.3892H46.319V151.437H73.1841V95.3892Z" fill="#71D3CA"/>
<path d="M42.284 136.794H35.1411V148.848H42.284V136.794Z" fill="#459991"/>
<path d="M41.4012 138.081H36.0223V138.605H41.4012V138.081Z" fill="#34726C"/>
<path d="M41.4012 138.996H36.0223V139.519H41.4012V138.996Z" fill="#34726C"/>
<path d="M41.4012 139.932H36.0223V140.457H41.4012V139.932Z" fill="#34726C"/>
<path d="M41.4012 140.846H36.0223V141.371H41.4012V140.846Z" fill="#34726C"/>
<path d="M41.4012 141.78H36.0223V142.303H41.4012V141.78Z" fill="#34726C"/>
<path d="M41.4012 142.694H36.0223V143.218H41.4012V142.694Z" fill="#34726C"/>
<path d="M41.4012 143.63H36.0223V144.153H41.4012V143.63Z" fill="#34726C"/>
<path d="M41.4012 144.545H36.0223V145.07H41.4012V144.545Z" fill="#34726C"/>
<path d="M41.4012 145.658H36.0223V146.183H41.4012V145.658Z" fill="#34726C"/>
<path d="M41.4012 146.595H36.0223V147.119H41.4012V146.595Z" fill="#34726C"/>
<path d="M41.4012 147.511H36.0223V148.035H41.4012V147.511Z" fill="#34726C"/>
<path d="M42.3734 110.506H35.0493L38.7121 103.178L42.3734 110.506Z" fill="#3C857E"/>
<path d="M35.7581 110.009L38.7121 104.255L41.6654 110.009H35.7581Z" fill="#E2581D"/>
<path d="M38.1108 109.531L38.055 106.933L38.7244 107.838L38.9062 105.551L38.9177 108.532L38.3765 107.778L38.1108 109.531Z" fill="white"/>
<path d="M70.165 100.024H49.6468V108.596H70.165V100.024Z" fill="#3C857E"/>
<path d="M69.119 101.037H54.2532V105.323H69.119V101.037Z" fill="#34726C"/>
<path d="M70.165 110.706H49.6468V113.035H70.165V110.706Z" fill="#3C857E"/>
<path d="M51.1832 115.807H49.6468V124.339H51.1832V115.807Z" fill="#3C857E"/>
<path d="M53.9166 115.807H52.3788V124.339H53.9166V115.807Z" fill="#3C857E"/>
<path d="M56.6493 115.807H55.1129V124.339H56.6493V115.807Z" fill="#3C857E"/>
<path d="M59.3829 115.807H57.845V124.339H59.3829V115.807Z" fill="#3C857E"/>
<path d="M61.6889 115.807H60.1511V124.339H61.6889V115.807Z" fill="#3C857E"/>
<path d="M64.4218 115.807H62.8839V124.339H64.4218V115.807Z" fill="#3C857E"/>
<path d="M67.1537 115.807H65.6172V124.339H67.1537V115.807Z" fill="#3C857E"/>
<path d="M69.8872 115.807H68.3494V124.339H69.8872V115.807Z" fill="#3C857E"/>
<path d="M69.2156 123.413H69.0223V140.456H69.2156V123.413Z" fill="#3C857E"/>
<path d="M66.4829 123.413H66.2896V140.456H66.4829V123.413Z" fill="#3C857E"/>
<path d="M63.7494 123.413H63.5561V140.456H63.7494V123.413Z" fill="#3C857E"/>
<path d="M61.0159 123.413H60.8226V140.456H61.0159V123.413Z" fill="#3C857E"/>
<path d="M58.7106 123.413H58.5173V140.456H58.7106V123.413Z" fill="#3C857E"/>
<path d="M55.9778 123.413H55.7845V140.456H55.9778V123.413Z" fill="#3C857E"/>
<path d="M53.2451 123.413H53.0518V140.456H53.2451V123.413Z" fill="#3C857E"/>
<path d="M50.5124 123.413H50.3191V140.456H50.5124V123.413Z" fill="#3C857E"/>
<path d="M70.165 140.272H49.6468V141.305H70.165V140.272Z" fill="#3C857E"/>
<path d="M50.3477 116.835L50.3584 115.341C50.3589 115.159 50.4306 114.985 50.5581 114.856C50.6645 114.749 50.8089 114.688 50.9598 114.687H50.9641L53.5229 114.706C53.6477 114.706 53.7712 114.681 53.8859 114.631C54.0006 114.582 54.1041 114.51 54.1901 114.42C54.3666 114.232 54.4647 113.984 54.4643 113.726L54.4779 111.873H54.0913L54.0777 113.726C54.0781 113.886 54.018 114.039 53.9095 114.156C53.8612 114.209 53.8026 114.251 53.7373 114.28C53.672 114.309 53.6015 114.324 53.53 114.325H53.5257L50.9669 114.306H50.9591C50.7068 114.307 50.465 114.407 50.2861 114.585C50.0857 114.787 49.9728 115.06 49.9718 115.344L49.9603 116.835H50.3477Z" fill="#3C857E"/>
<path d="M55.8654 116.835L55.8754 115.34C55.8752 115.165 55.9413 114.998 56.0601 114.87C56.1132 114.812 56.1776 114.766 56.2493 114.734C56.3209 114.703 56.3984 114.686 56.4768 114.685H56.4818L59.0398 114.705H59.0484C59.1724 114.705 59.295 114.679 59.4085 114.629C59.5219 114.579 59.6238 114.506 59.7078 114.414C59.8835 114.227 59.9817 113.981 59.9827 113.724L59.9949 111.868H59.6083L59.5954 113.723C59.596 113.883 59.5359 114.036 59.4272 114.153C59.3786 114.207 59.3192 114.249 59.253 114.279C59.1867 114.308 59.1151 114.322 59.0427 114.322L56.4846 114.303H56.4768C56.3458 114.303 56.2162 114.33 56.0962 114.383C55.9761 114.435 55.8681 114.512 55.7787 114.608C55.5926 114.807 55.489 115.069 55.4888 115.341L55.478 116.837L55.8654 116.835Z" fill="#3C857E"/>
<path d="M61.0474 116.835L61.0581 115.34C61.0581 114.978 61.3015 114.685 61.5951 114.685L63.9412 114.704H63.947C64.1625 114.701 64.3684 114.614 64.5197 114.46C64.7134 114.263 64.8214 113.997 64.8204 113.72L64.8347 111.867H64.4474L64.4331 113.72C64.4349 113.894 64.3686 114.062 64.2484 114.187C64.2091 114.228 64.1621 114.261 64.1101 114.284C64.0581 114.306 64.0022 114.318 63.9455 114.319L61.6001 114.301H61.5937C61.0882 114.301 60.6744 114.765 60.6694 115.34L60.6586 116.835H61.0474Z" fill="#3C857E"/>
<path d="M66.4056 116.835L66.4163 115.342C66.4142 115.168 66.4668 114.997 66.5667 114.855C66.5985 114.807 66.6409 114.767 66.6905 114.737C66.7401 114.708 66.7957 114.691 66.853 114.686L68.8849 114.7H68.8906C69.0726 114.697 69.2461 114.622 69.3732 114.491C69.5704 114.282 69.6781 114.005 69.6731 113.717L69.6882 111.863H69.3008L69.2858 113.717C69.2912 113.902 69.225 114.082 69.1011 114.219C69.0458 114.277 68.9701 114.312 68.8899 114.315L66.858 114.302H66.8523C66.7345 114.305 66.619 114.335 66.5152 114.391C66.4114 114.447 66.3221 114.527 66.2545 114.623C66.1045 114.832 66.0245 115.083 66.0261 115.339L66.0154 116.834L66.4056 116.835Z" fill="#3C857E"/>
<path d="M70.165 142.954H49.6468V146.182H70.165V142.954Z" fill="#3C857E"/>
<path d="M51.1832 127.766H49.6468V129.985H51.1832V127.766Z" fill="#3C857E"/>
<path d="M53.9166 134.054H52.3788V136.273H53.9166V134.054Z" fill="#3C857E"/>
<path d="M56.6493 128.876H55.1129V131.095H56.6493V128.876Z" fill="#3C857E"/>
<path d="M59.3822 137.232H57.845V139.452H59.3822V137.232Z" fill="#3C857E"/>
<path d="M61.6889 126.656H60.1511V128.876H61.6889V126.656Z" fill="#3C857E"/>
<path d="M66.9776 127.766H65.4398V129.985H66.9776V127.766Z" fill="#3C857E"/>
<path d="M69.8872 136.123H68.3494V138.343H69.8872V136.123Z" fill="#3C857E"/>
<path d="M47.0586 100.797H46.0742V114.344H47.0586V100.797Z" fill="#71D3CA"/>
<path d="M47.0586 131.864H46.0742V145.414H47.0586V131.864Z" fill="#71D3CA"/>
<path d="M107.299 173.06H111.711L107.81 162.334H103.399L107.299 173.06Z" fill="#34726C"/>
<path d="M117.932 171.92H102.338V174.199H117.932V171.92Z" fill="#34726C"/>
<path d="M84.0084 165.351H124.884H126.09L135.251 140.17L134.2 139.743H93.3261L84.0084 165.351Z" fill="#34726C"/>
<path d="M106.025 173.06H110.437L106.534 162.334H102.123L106.025 173.06Z" fill="#3C857E"/>
<path d="M82.8028 165.352H124.884L134.2 139.743H92.1196L82.8028 165.352Z" fill="#3C857E"/>
<path d="M121.399 148.526H128.245L130.694 141.797H123.847L121.399 148.526Z" fill="#5FBAB2"/>
<path d="M118.728 155.864H125.576L128.024 149.137H121.176L118.728 155.864Z" fill="#5FBAB2"/>
<path d="M116.058 163.204H122.905L125.354 156.476H118.506L116.058 163.204Z" fill="#5FBAB2"/>
<path d="M113.978 148.586H120.826L123.274 141.856H116.426L113.978 148.586Z" fill="#5FBAB2"/>
<path d="M111.308 155.926H118.155L120.604 149.197H113.756L111.308 155.926Z" fill="#5FBAB2"/>
<path d="M108.637 163.266H115.485L117.932 156.539H111.085L108.637 163.266Z" fill="#5FBAB2"/>
<path d="M106.53 148.556H113.378L115.826 141.827H108.978L106.53 148.556Z" fill="#5FBAB2"/>
<path d="M103.859 155.895H110.707L113.156 149.167H106.308L103.859 155.895Z" fill="#5FBAB2"/>
<path d="M101.19 163.237H108.036L110.485 156.507H103.638L101.19 163.237Z" fill="#5FBAB2"/>
<path d="M99.11 148.617H105.957L108.406 141.888H101.558L99.11 148.617Z" fill="#5FBAB2"/>
<path d="M96.4397 155.956H103.287L105.735 149.228H98.8872L96.4397 155.956Z" fill="#5FBAB2"/>
<path d="M93.7693 163.296H100.617L103.065 156.567H96.2168L93.7693 163.296Z" fill="#5FBAB2"/>
<path d="M91.651 148.617H98.4984L100.946 141.888H94.0985L91.651 148.617Z" fill="#5FBAB2"/>
<path d="M88.9797 155.956H95.8272L98.2764 149.228H91.4281L88.9797 155.956Z" fill="#5FBAB2"/>
<path d="M86.3103 163.296H93.1586L95.6061 156.567H88.7578L86.3103 163.296Z" fill="#5FBAB2"/>
<path d="M113.528 171.92H101.062V174.199H113.528V171.92Z" fill="#3C857E"/>
<path d="M71.845 174.897H75.5868L72.2768 165.802H68.5367L71.845 174.897Z" fill="#34726C"/>
<path d="M80.8625 173.932H67.6371V175.864H80.8625V173.932Z" fill="#34726C"/>
<path d="M52.0934 168.361H86.757H87.7794L95.5482 147.007L94.6567 146.644H59.9939L52.0934 168.361Z" fill="#2A5E59"/>
<path d="M70.763 174.897H74.5039L71.1956 165.802H67.4538L70.763 174.897Z" fill="#3C857E"/>
<path d="M51.0701 168.361H86.7569L94.6565 146.644H58.9714L51.0701 168.361Z" fill="#34726C"/>
<path d="M83.8006 154.091H89.6073L91.6835 148.385H85.876L83.8006 154.091Z" fill="#5FBAB2"/>
<path d="M81.5356 160.317H87.3432L89.4195 154.61H83.6119L81.5356 160.317Z" fill="#5FBAB2"/>
<path d="M79.2716 166.54H85.0783L87.1545 160.834H81.347L79.2716 166.54Z" fill="#5FBAB2"/>
<path d="M77.5085 154.142H83.3152L85.3905 148.437H79.5839L77.5085 154.142Z" fill="#5FBAB2"/>
<path d="M75.2437 160.368H81.0503L83.1257 154.661H77.319L75.2437 160.368Z" fill="#5FBAB2"/>
<path d="M72.978 166.591H78.7855L80.8627 160.886H75.0551L72.978 166.591Z" fill="#5FBAB2"/>
<path d="M71.192 154.117H76.9987L79.0749 148.412H73.2674L71.192 154.117Z" fill="#5FBAB2"/>
<path d="M68.9271 160.343H74.7338L76.8101 154.636H71.0034L68.9271 160.343Z" fill="#5FBAB2"/>
<path d="M66.6623 166.566H72.4698L74.5452 160.86H68.7386L66.6623 166.566Z" fill="#5FBAB2"/>
<path d="M64.8993 154.169H70.706L72.7822 148.463H66.9755L64.8993 154.169Z" fill="#5FBAB2"/>
<path d="M62.6343 160.395H68.441L70.5181 154.688H64.7105L62.6343 160.395Z" fill="#5FBAB2"/>
<path d="M60.3702 166.617H66.1769L68.2532 160.912H62.4456L60.3702 166.617Z" fill="#5FBAB2"/>
<path d="M58.5731 154.169H64.3815L66.456 148.463H60.6493L58.5731 154.169Z" fill="#5FBAB2"/>
<path d="M56.3081 160.395H62.1157L64.1919 154.688H58.3844L56.3081 160.395Z" fill="#5FBAB2"/>
<path d="M54.044 166.617H59.8516L61.9269 160.912H56.1203L54.044 166.617Z" fill="#5FBAB2"/>
<path d="M77.1269 173.932H66.5543V175.864H77.1269V173.932Z" fill="#3C857E"/>
<path d="M111.296 136.661C111.296 136.661 110.869 135.587 109.945 135.299C109.118 135.041 109.665 136.077 110.529 137.152L111.296 136.661Z" fill="#F7B2A0"/>
<path d="M120.661 142.379C121.333 142.755 121.37 143.433 120.703 144.24C119.683 145.478 118.41 144.734 115.972 143.643C113.202 142.403 110.372 137.049 110.372 137.049C110.372 137.049 110.51 136.346 111.2 136.462C111.2 136.462 113.34 139.302 116.074 140.562C117.416 141.183 119.245 141.589 120.661 142.379Z" fill="#EDA503"/>
<path d="M116.319 141.686C115.063 142.644 113.997 144.978 113.495 152.618C113.387 154.296 123.126 154.703 123.162 153.016C123.249 148.539 122.482 146.695 121.203 142.651C120.85 141.556 118.798 139.773 116.319 141.686Z" fill="#FFB502"/>
<path d="M126.794 174.344C127.299 173.767 127.28 173.681 127.14 173.497C127.012 173.331 126.872 173.175 126.72 173.031L127.832 172.354C128.032 172.695 128.193 173.058 128.313 173.435C128.228 173.542 127.573 174.405 126.794 174.344Z" fill="#FBC6B4"/>
<path d="M128.315 173.437C128.317 173.429 128.32 173.421 128.326 173.415C128.957 174.357 127.515 174.915 126.669 175.038C125.823 175.161 126.796 174.347 126.796 174.347C127.573 174.404 128.228 173.541 128.315 173.437Z" fill="#FFB502"/>
<path d="M128.173 172.15C128.323 172.692 127.12 173.561 126.778 173.273C123.868 170.799 120.755 165.415 119.594 163.211C119.54 163.113 119.489 163.022 119.443 162.941C118.862 161.99 118.53 162.186 116.562 157.788C115.922 156.369 115.537 153.881 115.537 153.881L117.49 153.075L121.987 151.183C123.546 152.669 124.072 156.965 124.41 158.708C124.689 160.179 125.014 162.556 125.322 163.701C126.409 167.701 127.192 168.514 128.173 172.15Z" fill="#2E2E2E"/>
<path d="M115.402 175.422C116.104 175.113 116.122 175.021 116.074 174.797C116.024 174.594 115.962 174.395 115.887 174.201L117.179 174.05C117.217 174.444 117.211 174.841 117.162 175.234C117.044 175.294 116.09 175.802 115.402 175.422Z" fill="#FBC6B4"/>
<path d="M117.162 175.233C117.169 175.227 117.176 175.22 117.184 175.215C117.366 176.34 115.822 176.241 115.003 176C114.184 175.758 115.402 175.422 115.402 175.422C116.09 175.801 117.044 175.294 117.162 175.233Z" fill="#FFB502"/>
<path d="M119.759 160.218C119.397 161.675 118.591 163.176 118.591 165.222C118.591 169.378 118.198 170.3 117.58 174.009C117.511 174.44 116.6 174.711 116.111 174.613C116.043 174.603 115.978 174.577 115.922 174.537C115.883 174.52 115.852 174.489 115.834 174.45C114.228 170.988 113.152 165.096 113.007 162.616C112.919 161.152 112.963 161.332 113.016 156.112C113.03 154.551 113.709 152.13 113.709 152.13L120.192 152.342C120.987 154.344 120.174 158.499 119.759 160.218Z" fill="#404040"/>
<path d="M116.111 174.607C116.043 174.597 115.978 174.572 115.922 174.532C114.941 171.795 114.518 168.882 114.157 166.363C113.847 164.229 113.503 161.798 113.493 159.418C113.486 156.807 113.908 154.507 114.745 152.576C114.753 152.558 114.768 152.544 114.787 152.536C114.806 152.529 114.827 152.529 114.845 152.537C114.863 152.545 114.878 152.56 114.886 152.578C114.894 152.596 114.895 152.617 114.889 152.636C114.058 154.543 113.637 156.83 113.645 159.418C113.653 161.793 113.996 164.215 114.308 166.348C114.678 168.891 115.107 171.85 116.111 174.607Z" fill="white"/>
<path d="M115.282 142.409C115.282 142.409 117.341 144.568 116.434 148.379C116.434 148.379 115.778 150.787 113.656 150.557L113.251 154.098C113.251 154.098 117.169 156.171 123.167 153.27C123.167 153.27 124.044 147.355 121.034 142.296C121.034 142.296 120.403 141.331 119.694 141.109C119.694 141.109 123.198 146.966 120.525 147.474C117.853 147.983 116.313 141.692 116.313 141.692L115.282 142.409Z" fill="#404040"/>
<path d="M118.935 139.748C118.935 139.748 119.394 141.685 119.014 142.14C118.635 142.595 116.617 142.133 116.714 141.411C116.795 140.81 116.923 140.216 117.097 139.634L118.935 139.748Z" fill="#FBC6B4"/>
<path d="M120.067 137.754C120.067 139.459 119.114 140.841 117.939 140.841C117.412 140.841 116.237 140.985 115.866 140.525C115.409 139.961 115.406 138.506 115.669 137.607C116.276 135.524 117.161 134.837 118.333 134.837C119.504 134.837 120.067 136.049 120.067 137.754Z" fill="#FBC6B4"/>
<path d="M118.054 141.038C118.792 141.077 120.028 140.82 120.712 139.303C121.337 137.916 120.975 135.604 119.58 134.895C118.75 134.475 117.619 134.405 116.71 134.837C115.424 135.452 115.59 136.232 115.85 136.36C116.391 136.623 116.815 136.203 116.71 136.943C116.622 137.513 116.67 138.771 117.201 138.848C117.731 138.924 118.181 138.926 118.054 139.693C117.96 140.275 117.308 140.999 118.054 141.038Z" fill="#404040"/>
<path d="M117 137.336C117 137.336 114.099 135.65 114.928 134.82C115.603 134.145 117.896 135.036 117.896 135.036L117 137.336Z" fill="#EDA503"/>
<path d="M116.063 135.825C116.341 137.37 117.668 138.212 121.001 139.104C121.001 139.104 122.679 136.112 120.515 134.523C118.607 133.123 115.88 134.802 116.063 135.825Z" fill="#FFB502"/>
<path d="M113.86 158.295C109.948 158.295 106.771 152.4 106.771 148.55C106.773 146.67 107.521 144.867 108.849 143.537C110.178 142.207 111.98 141.459 113.86 141.457C117.647 141.457 121.805 145.864 121.805 149.876C121.805 153.888 117.647 158.295 113.86 158.295ZM113.86 141.828C112.078 141.83 110.37 142.54 109.11 143.8C107.85 145.061 107.142 146.77 107.14 148.553C107.14 152.254 110.15 157.925 113.86 157.925C117.472 157.925 121.436 153.711 121.436 149.878C121.436 146.045 117.472 141.828 113.86 141.828Z" fill="#C1E4FA"/>
<path d="M113.938 155.281C110.603 155.281 108.1 150.421 108.1 147.27C108.101 145.721 108.717 144.236 109.811 143.141C110.906 142.046 112.39 141.429 113.938 141.427C117.055 141.427 120.476 145.053 120.476 148.354C120.476 151.655 117.055 155.281 113.938 155.281ZM113.938 141.796C112.487 141.798 111.097 142.375 110.071 143.401C109.046 144.427 108.469 145.819 108.468 147.27C108.468 150.286 110.919 154.912 113.938 154.912C116.878 154.912 120.108 151.48 120.108 148.354C120.108 145.228 116.878 141.796 113.938 141.796Z" fill="#C1E4FA"/>
<path d="M114.172 154.281C110.837 154.281 108.333 149.423 108.333 146.272C108.335 144.723 108.951 143.238 110.045 142.143C111.14 141.048 112.624 140.432 114.172 140.43C117.288 140.43 120.711 144.054 120.711 147.356C120.711 150.658 117.288 154.281 114.172 154.281ZM114.172 140.798C112.722 140.8 111.331 141.377 110.305 142.403C109.28 143.43 108.703 144.821 108.701 146.272C108.701 149.289 111.152 153.91 114.172 153.91C117.113 153.91 120.342 150.478 120.342 147.353C120.342 144.227 117.113 140.798 114.172 140.798Z" fill="#C1E4FA"/>
<path d="M106.552 138.449C106.552 138.449 106.882 136.001 106.318 136.659C105.755 137.316 105.148 137.425 105.675 138.701L106.552 138.449Z" fill="#F7B2A0"/>
<path d="M116.058 142.563C117.056 143.951 116.409 145.035 115.542 145.619C114.213 146.517 111.837 147.655 109.048 146.472C106.259 145.29 105.553 138.557 105.553 138.557C105.553 138.557 105.884 137.926 106.514 138.231C106.514 138.231 107.978 143.28 110.659 143.754C111.953 143.98 115.112 141.246 116.058 142.563Z" fill="#FFB502"/>
<path d="M130.889 176.917C127.555 176.917 124.922 175.926 123.029 173.951C116.895 167.537 120.666 153.178 120.83 152.57L121.181 152.666C121.142 152.814 117.3 167.433 123.287 173.699C125.92 176.446 130.074 177.21 135.648 175.974L135.728 176.333C133.982 176.722 132.369 176.916 130.889 176.917Z" fill="#C1E4FA"/>
</g>
</svg>
