<svg width="201" height="200" viewBox="0 0 201 200" fill="none" xmlns="http://www.w3.org/2000/svg">
<circle opacity="0.2" cx="100.5" cy="100" r="100" fill="#4AA29A"/>
<circle cx="100.5" cy="100" r="90" fill="#89BDB9"/>
<mask id="mask0" mask-type="alpha" maskUnits="userSpaceOnUse" x="10" y="10" width="181" height="180">
<circle cx="100.5" cy="100" r="90" fill="#936A83"/>
</mask>
<g mask="url(#mask0)">
<g clip-path="url(#clip0)">
<path opacity="0.1" d="M172.198 141.407C172.198 141.407 186.714 117.995 174.057 102.791C156.662 81.8966 158.512 66.3157 127.864 59.5335C97.2151 52.7513 79.9918 75.7515 61.4951 79.4652C36.5196 84.4797 26.6617 97.3609 24.8423 112.259C22.873 128.383 29.8357 141.407 29.8357 141.407H172.198Z" fill="#34726C"/>
<path d="M78.0067 113.684C74.7456 92.5256 75.635 80.7285 75.635 80.7285H39.9249C39.9249 80.7285 40.8143 92.5256 37.5532 113.686C34.87 131.092 23.8491 160.875 23.8491 160.875H91.7102C91.7102 160.875 80.6899 131.09 78.0067 113.684Z" fill="#4AA29A"/>
<path d="M40.0289 83.8613C40.0398 84.7948 40.0392 85.9311 40.0142 87.2666H75.5451C75.5204 85.9311 75.5195 84.7948 75.5303 83.8613H40.0289Z" fill="#F3B36A"/>
<path d="M73.2857 128.133C70.8521 115.421 69.5499 102.517 69.3946 89.5736C69.3891 89.1239 68.6915 89.1438 68.6969 89.5935C68.857 102.599 70.1694 115.565 72.6186 128.338C72.703 128.778 73.3699 128.572 73.2857 128.133Z" fill="#71D3CA"/>
<path d="M45.8278 83.6965C45.6497 94.4932 44.7144 105.264 43.0289 115.93C42.9686 116.313 43.4763 116.477 43.5372 116.092C45.2329 105.372 46.1745 94.547 46.3548 83.6956C46.3615 83.3044 45.8342 83.3044 45.8278 83.6965Z" fill="#71D3CA"/>
<path d="M40.1212 130.991C38.9283 137.363 37.5481 143.681 35.9804 149.944C35.886 150.322 36.3946 150.483 36.4887 150.107C38.0564 143.843 39.4362 137.526 40.6283 131.153C40.7009 130.77 40.1929 130.607 40.1212 130.991Z" fill="#71D3CA"/>
<path d="M54.7073 109.725C54.5119 121.789 54.3165 133.854 54.1209 145.918C54.1146 146.311 54.6416 146.311 54.6479 145.918C54.8437 133.854 55.0391 121.789 55.2343 109.725C55.2406 109.333 54.7136 109.333 54.7073 109.725Z" fill="#71D3CA"/>
<g style="mix-blend-mode:overlay" opacity="0.2">
<path d="M75.8058 113.684C72.8992 92.5256 73.6918 80.7285 73.6918 80.7285H61.9302C61.9302 80.7285 61.2515 92.5256 63.739 113.686C65.7864 131.092 69.0451 160.875 69.0451 160.875H88.02C88.02 160.875 78.1977 131.09 75.8058 113.684Z" fill="black"/>
</g>
<path d="M75.7633 77.7603H39.7955C39.0845 77.7603 38.5082 78.3372 38.5082 79.049V79.4398C38.5082 80.1516 39.0845 80.7285 39.7955 80.7285H75.7633C76.4743 80.7285 77.0506 80.1516 77.0506 79.4398V79.049C77.0506 78.3372 76.4743 77.7603 75.7633 77.7603Z" fill="#9CF9F0"/>
<path d="M55.4667 86.9896C55.4351 86.5435 54.7371 86.5402 54.7691 86.9896C55.1516 92.3955 55.1189 97.8227 54.6711 103.224C54.634 103.671 55.332 103.669 55.3687 103.224C55.8167 97.8228 55.8494 92.3955 55.4667 86.9896Z" fill="#71D3CA"/>
<path d="M57.7601 92.0555C51.6714 92.1262 45.5872 91.9694 39.5075 91.5853C39.0589 91.5569 39.0607 92.2556 39.5075 92.284C45.5842 92.6679 51.6683 92.8246 57.7601 92.7542C58.2087 92.7488 58.2099 92.0504 57.7601 92.0555Z" fill="#5FBAB2"/>
<path d="M75.9025 92.0514C70.6841 91.9397 65.4653 91.9355 60.2461 92.0387C59.7978 92.0475 59.7963 92.7461 60.2461 92.7371C65.4647 92.6339 70.6835 92.6381 75.9025 92.7498C76.3517 92.7594 76.3517 92.0611 75.9025 92.0514Z" fill="#5FBAB2"/>
<path d="M48.9048 118.122C44.8151 117.794 40.7106 117.686 36.6093 117.798C36.1613 117.81 36.1595 118.508 36.6093 118.496C40.7106 118.384 44.8151 118.492 48.9048 118.821C49.3525 118.857 49.3501 118.158 48.9048 118.122Z" fill="#5FBAB2"/>
<path d="M65.2214 118.129C60.6033 118.434 55.9708 118.453 51.3503 118.188C50.9017 118.162 50.9032 118.86 51.3503 118.886C55.9708 119.152 60.6033 119.132 65.2214 118.828C65.6673 118.798 65.6706 118.1 65.2214 118.129Z" fill="#5FBAB2"/>
<path d="M79.2243 117.423C75.6817 117.809 72.1175 117.961 68.5549 117.876C68.1057 117.865 68.106 118.563 68.5549 118.574C72.1175 118.659 75.6817 118.508 79.2243 118.121C79.6648 118.073 79.6708 117.374 79.2243 117.423Z" fill="#5FBAB2"/>
<path opacity="0.5" d="M51.2184 78.1953C49.2798 78.2001 47.3415 78.2111 45.4034 78.2282C43.6548 78.2439 41.8284 78.1184 40.0998 78.4117C39.6581 78.4866 39.8453 79.1599 40.2852 79.0854C42.0865 78.7796 44.028 78.9384 45.8505 78.9227C47.6393 78.9076 49.4286 78.8975 51.2184 78.8925C51.6673 78.891 51.6682 78.1926 51.2184 78.1953Z" fill="white"/>
<path opacity="0.5" d="M60.5075 78.0376L53.2792 78.1091C52.8306 78.1137 52.8294 78.8124 53.2792 78.8078L60.5075 78.736C60.9561 78.7315 60.9573 78.0331 60.5075 78.0376Z" fill="white"/>
<g style="mix-blend-mode:overlay" opacity="0.2">
<path d="M50.2175 114.797C45.4984 115.944 40.1345 120.2 35.0666 125.398C30.8679 141.907 23.8491 160.874 23.8491 160.874H91.7102C91.7102 160.874 82.5753 136.189 78.9151 118.632C71.3569 124.46 60.6659 112.261 50.2175 114.797Z" fill="black"/>
</g>
<path d="M116.993 50.9421C116.39 48.5792 114.12 46.3374 111.838 45.1676C110.604 44.5338 109.384 44.4028 107.99 44.4656C106.596 44.5283 105.618 44.4176 104.686 43.3187C104.324 42.891 104.023 42.4184 103.614 42.023C101.567 40.0441 98.6465 41.2365 96.0695 41.0428C94.1861 40.9015 92.4095 40.1639 90.569 39.8238C88.8846 39.5135 87.1547 39.4064 85.4456 39.6016C82.6603 39.92 79.9683 41.0382 78.1197 42.9933C77.2261 43.938 76.7521 45.2469 75.7524 46.0965C74.1471 47.4604 71.8507 46.5266 69.9254 46.7747C66.4418 47.2238 65.33 49.6911 63.8958 52.1909C63.364 53.1181 62.7879 53.8301 61.667 54.2215C60.8494 54.5067 59.9347 54.5082 59.1077 54.7805C57.9108 55.1728 56.9371 55.9273 56.218 56.8708C54.1047 59.6474 55.7676 63.0578 53.9539 65.8206C53.0275 67.2312 52.4164 70.1887 55.7043 71.5248C56.512 71.8528 57.3109 71.7964 58.0836 71.4427C59.6896 70.7072 60.121 69.3668 62.1792 70.3411C64.3333 71.3606 66.5808 71.2163 68.1862 69.3693C68.5733 68.9241 68.8241 68.4539 69.0668 67.9351C69.507 66.9943 69.807 66.5105 70.7497 65.9217C71.8401 65.2405 72.7069 64.5316 73.6207 63.6545C74.8917 62.4352 76.1748 61.5138 78.1586 61.9753C79.6868 62.3308 81.0148 63.2154 82.4667 63.7529C85.0371 64.7048 87.5732 64.2554 89.6778 62.6558C91.2711 61.4447 92.2847 60.6808 94.4548 61.2896C95.9402 61.706 97.3161 62.0661 98.8895 61.9801C100.25 61.9082 101.586 61.5853 102.83 61.0276C104.29 60.3663 105.253 59.1763 106.637 58.4456C108.35 57.5402 109.262 58.7966 110.895 58.771C112.09 58.7526 113.2 58.1097 114.072 57.4231C116.11 55.8184 117.632 53.4471 116.993 50.9421Z" fill="#79ADA9"/>
<path d="M159.593 99.2204C155.074 73.8152 156.306 59.6504 156.306 59.6504H106.829C106.829 59.6504 108.061 73.8152 103.542 99.2204C99.8251 120.119 84.5546 155.88 84.5546 155.88H178.58C178.58 155.88 163.31 120.119 159.593 99.2204Z" fill="#71D3CA"/>
<path d="M156.672 76.9224C156.51 74.8734 156.395 72.9988 156.315 71.3022H106.819C106.739 72.9988 106.623 74.8751 106.461 76.9224H156.672Z" fill="#4AA29A"/>
<path d="M160.656 104.339C160.24 102.559 159.881 100.845 159.593 99.2211C159.464 98.4951 159.342 97.7813 159.221 97.0737H103.915C103.795 97.7813 103.671 98.4955 103.542 99.2211C103.253 100.845 102.895 102.559 102.479 104.339H160.656Z" fill="#4AA29A"/>
<path d="M120.065 63.2138C119.817 76.1989 118.52 89.1425 116.187 101.918C116.104 102.378 116.807 102.576 116.891 102.113C119.238 89.2733 120.543 76.2651 120.795 63.2151C120.805 62.743 120.074 62.743 120.065 63.2138Z" fill="#5FBAB2"/>
<path d="M112.158 120.001C110.506 127.652 108.594 135.237 106.422 142.758C106.292 143.211 106.996 143.405 107.127 142.953C109.299 135.433 111.211 127.847 112.862 120.195C112.961 119.736 112.258 119.541 112.158 120.001Z" fill="#5FBAB2"/>
<path d="M129.873 94.4668C129.603 108.952 129.332 123.438 129.061 137.924C129.052 138.394 129.783 138.394 129.791 137.924L130.604 94.4668C130.612 93.9963 129.882 93.9959 129.873 94.4668Z" fill="#5FBAB2"/>
<g style="mix-blend-mode:overlay" opacity="0.2">
<path d="M156.545 99.2204C152.517 73.8168 153.616 59.6504 153.616 59.6504H137.318C137.318 59.6504 136.378 73.8152 139.825 99.2204C142.661 120.119 147.177 155.88 147.177 155.88H173.467C173.467 155.88 159.858 120.119 156.545 99.2204Z" fill="black"/>
</g>
<path d="M156.609 56.0864H106.527C105.609 56.0864 104.866 56.8306 104.866 57.7487V57.9883C104.866 58.9063 105.609 59.6505 106.527 59.6505H156.609C157.526 59.6505 158.269 58.9063 158.269 57.9883V57.7487C158.269 56.8306 157.526 56.0864 156.609 56.0864Z" fill="#9CF9F0"/>
<path d="M144.256 80.0483L114.04 80.0308C113.1 80.0308 113.099 81.4923 114.04 81.4944L144.256 81.5123C145.196 81.509 145.198 80.0483 144.256 80.0483Z" fill="#4AA29A"/>
<path d="M156.968 79.9536L148.683 79.7571C147.743 79.7349 147.744 81.1973 148.683 81.2207L156.968 81.4168C157.908 81.4377 157.908 79.9758 156.968 79.9536Z" fill="#4AA29A"/>
<path d="M125.726 106.966C117.601 106.856 109.476 106.875 101.352 107.024C100.413 107.041 100.41 108.503 101.352 108.487C109.476 108.339 117.601 108.319 125.726 108.429C126.666 108.442 126.666 106.979 125.726 106.966Z" fill="#4AA29A"/>
<path d="M161.51 106.88L130.014 106.914C129.074 106.914 129.072 108.377 130.014 108.377L161.51 108.343C162.449 108.341 162.451 106.879 161.51 106.88Z" fill="#4AA29A"/>
<g style="mix-blend-mode:overlay" opacity="0.2">
<path d="M178.58 155.88C178.58 155.88 171.116 138.401 165.354 120.738C156.949 138.72 139.339 124.254 122.256 126.408C112 127.702 99.2671 135.194 90.434 141.264C87.1361 149.834 84.5546 155.88 84.5546 155.88H178.58Z" fill="black"/>
</g>
<path d="M213.031 4.37345C209.576 1.70215 205.52 1.58883 201.262 2.60499C198.704 3.21552 196.152 4.14596 193.476 4.14638C190.652 4.14638 188.221 2.69364 185.441 2.47368C180.692 2.09733 176.654 4.64819 173.617 7.7205C172.774 8.57358 171.868 9.66333 170.669 10.0895C168.826 10.7451 168.034 9.7453 166.622 9.09086C165.147 8.40714 163.76 8.53301 162.291 9.2092C159.829 10.3429 158.246 12.0971 155.222 11.7601C152.88 11.5004 150.894 10.9204 148.52 11.441C143.335 12.5788 140.026 16.725 138.253 21.0385C137.869 21.9718 137.668 23.098 137.021 23.9118C135.572 25.7367 133.601 25.0061 131.703 25.7492C130.011 26.4116 129.126 27.9124 128.605 29.4329C128.285 30.3629 128.155 31.3352 127.843 32.2669C127.589 33.0237 127.36 33.5632 126.765 34.1281C125.879 34.9716 124.763 34.9227 123.597 35.2028C121.756 35.6436 120.241 36.9245 119.599 38.5516C118.751 40.6976 120.031 42.7609 119.345 44.9496C119.304 45.0809 119.268 45.2122 119.235 45.3431C118.533 46.6947 118.714 48.354 120.196 49.5508C123.253 52.013 126.738 48.8483 129.686 47.9877C132.555 47.1513 134.538 49.2455 137.256 49.4124C138.816 49.5081 140.094 48.9177 141.248 48.004C142.87 46.7189 144.046 44.8652 146.254 44.3349C148.802 43.7227 151.562 44.7426 154.077 45.0299C155.651 45.2097 157.252 45.2164 158.733 44.6218C160.609 43.8691 161.667 42.3064 163.02 40.995C165.311 38.7749 167.349 39.4971 170.129 40.2519C172.161 40.803 174.034 40.7537 175.877 39.7053C177.67 38.6854 178.322 37.2343 179.548 35.7983C181.942 32.9945 185.621 35.3229 188.613 35.603C193.14 36.0271 197.526 33.7974 200.316 30.646C201.702 29.082 202.773 27.3111 203.604 25.4586C204.187 24.1622 204.593 21.9074 206.05 21.2701C207.034 20.8394 208.347 20.9774 209.412 20.8102C213.365 20.1829 217.109 17.7408 217.607 13.9174C218.068 10.3746 215.938 6.62154 213.031 4.37345Z" fill="#79ADA9"/>
<path d="M146.094 92.6929H133.004V191H146.094V92.6929Z" fill="#FFE6D6"/>
<path d="M146.094 97.9141H133.004V104.708H146.094V97.9141Z" fill="#F3B36A"/>
<path d="M146.094 106.593H133.004V113.387H146.094V106.593Z" fill="#F3B36A"/>
<g style="mix-blend-mode:overlay" opacity="0.5">
<path d="M144.64 92.6929H140.685V191H144.64V92.6929Z" fill="black"/>
</g>
<path d="M146.839 94.3672H132.258V95.5589H146.839V94.3672Z" fill="#C9AA96"/>
<path d="M146.839 115.111H132.258V116.303H146.839V115.111Z" fill="#C9AA96"/>
<path d="M146.839 121.298H132.258V122.49H146.839V121.298Z" fill="#C9AA96"/>
<path d="M143.179 88.0225H135.49V92.6928H143.179V88.0225Z" fill="#66564C"/>
<path d="M138.932 92.9312C137.298 93.0238 135.663 93.0473 134.027 93.0016C133.364 92.9829 133.364 94.0134 134.027 94.0321C135.663 94.0781 137.299 94.0546 138.932 93.9617C139.591 93.9243 139.595 92.8933 138.932 92.9312Z" fill="#FFF6F0"/>
<path d="M135.152 97.0406C135.188 96.3779 134.158 96.3802 134.122 97.0406C134.012 99.0195 134.024 101.003 134.159 102.981C134.203 103.639 135.234 103.644 135.189 102.981C135.054 101.003 135.042 99.0195 135.152 97.0406Z" fill="#FFF6F0"/>
<path d="M138.509 117.18C137.038 117.334 135.576 117.007 134.105 117.136C133.45 117.192 133.444 118.224 134.105 118.166C135.577 118.038 137.039 118.366 138.509 118.211C139.162 118.143 139.167 117.111 138.509 117.18Z" fill="#FFF6F0"/>
<path d="M134.486 124.928C134.045 127.103 133.966 129.337 134.255 131.538C134.34 132.187 135.37 132.195 135.284 131.538C134.999 129.43 135.065 127.289 135.479 125.202C135.608 124.554 134.616 124.277 134.486 124.928Z" fill="#FFF6F0"/>
<path d="M161.453 105.446H152.667V191H161.453V105.446Z" fill="#FFE6D6"/>
<path d="M161.453 109.989H152.667V112.713H161.453V109.989Z" fill="#F3B36A"/>
<path d="M161.453 114.399H152.667V117.124H161.453V114.399Z" fill="#F3B36A"/>
<path d="M159.196 100.925H154.924L153.643 105.445H160.477L159.196 100.925Z" fill="#80301A"/>
<g style="mix-blend-mode:overlay" opacity="0.5">
<path d="M160.476 105.446H157.822V191H160.476V105.446Z" fill="black"/>
</g>
<path d="M158.578 106.003C156.899 106.031 155.221 106.024 153.544 105.981C152.915 105.965 152.916 106.942 153.544 106.958C155.222 107.001 156.9 107.008 158.578 106.98C159.205 106.97 159.207 105.992 158.578 106.003Z" fill="#FFFAF7"/>
<path d="M154.576 116.178C154.603 115.549 153.627 115.551 153.6 116.178C153.473 119.081 153.464 121.983 153.573 124.885C153.597 125.511 154.573 125.514 154.55 124.885C154.44 121.981 154.449 119.079 154.576 116.178Z" fill="#FFFAF7"/>
<path d="M166.189 131.424H120.94V144.422H166.189V131.424Z" fill="#34726C"/>
<path d="M106.757 135.18V131.852H107.708V132.708H108.706V128.76H111.603V131.043H113.218V126.002H115.451V135.18H106.757Z" fill="#34726C"/>
<path d="M126.55 129.949H124.551V132.897H126.55V129.949Z" fill="#34726C"/>
<path d="M131.649 129.949H129.649V132.897H131.649V129.949Z" fill="#34726C"/>
<path d="M168.136 134.466H90.5118V144.421H168.136V134.466Z" fill="#4AA29A"/>
<path d="M122.732 135.851C112.704 136.014 102.676 136.048 92.6462 135.953C91.994 135.947 91.9935 136.961 92.6462 136.968C102.675 137.063 112.703 137.029 122.732 136.865C123.383 136.854 123.385 135.84 122.732 135.851Z" fill="#34726C"/>
<path d="M136.825 135.85L126.436 135.854C125.783 135.854 125.821 136.869 126.473 136.868L136.862 136.864C137.515 136.863 137.477 135.85 136.825 135.85Z" fill="#34726C"/>
<path d="M105.741 139.566C105.741 139.223 105.756 138.891 105.405 138.704C104.983 138.477 104.209 138.623 103.748 138.614C102.889 138.598 102.03 138.555 101.172 138.495C100.888 138.475 100.727 138.658 100.693 138.874C100.633 138.957 100.601 139.057 100.6 139.159C100.586 139.696 100.416 140.667 100.744 141.141C101.003 141.516 101.527 141.422 101.922 141.421C102.647 141.42 103.373 141.41 104.098 141.391C104.528 141.38 105.273 141.505 105.584 141.109C105.87 140.745 105.741 139.994 105.741 139.566ZM103.166 140.395C102.697 140.403 102.104 140.488 101.601 140.44C101.563 140.153 101.578 139.832 101.595 139.534C102.42 139.586 103.244 139.623 104.071 139.634C104.266 139.637 104.512 139.676 104.705 139.64C104.705 139.872 104.71 140.171 104.709 140.39C104.212 140.459 103.631 140.389 103.166 140.395Z" fill="#34726C"/>
<path d="M114.418 139.566C114.418 139.223 114.433 138.891 114.082 138.704C113.66 138.477 112.886 138.623 112.425 138.614C111.566 138.598 110.707 138.555 109.849 138.495C109.564 138.475 109.404 138.658 109.37 138.874C109.31 138.957 109.278 139.057 109.277 139.159C109.264 139.696 109.093 140.667 109.421 141.141C109.681 141.516 110.204 141.422 110.599 141.421C111.324 141.42 112.05 141.41 112.776 141.391C113.205 141.38 113.95 141.505 114.261 141.109C114.548 140.745 114.419 139.994 114.418 139.566ZM111.843 140.395C111.374 140.403 110.781 140.488 110.278 140.44C110.24 140.153 110.255 139.832 110.272 139.534C111.097 139.586 111.922 139.623 112.748 139.634C112.943 139.637 113.189 139.676 113.382 139.64C113.382 139.872 113.387 140.171 113.386 140.39C112.89 140.459 112.308 140.389 111.843 140.395Z" fill="#34726C"/>
<path d="M123.527 139.566C123.527 139.223 123.543 138.891 123.192 138.704C122.769 138.477 121.996 138.623 121.535 138.614C120.675 138.598 119.817 138.555 118.96 138.495C118.674 138.475 118.515 138.658 118.48 138.874C118.42 138.957 118.388 139.057 118.388 139.159C118.374 139.696 118.203 140.667 118.531 141.141C118.791 141.516 119.314 141.422 119.709 141.421C120.434 141.42 121.16 141.41 121.885 141.391C122.315 141.38 123.059 141.505 123.371 141.109C123.658 140.745 123.528 139.994 123.527 139.566ZM120.953 140.395C120.484 140.403 119.891 140.488 119.388 140.44C119.35 140.153 119.365 139.832 119.382 139.534C120.207 139.586 121.032 139.623 121.857 139.634C122.053 139.637 122.299 139.676 122.492 139.64C122.492 139.872 122.497 140.171 122.496 140.39C121.999 140.459 121.417 140.389 120.953 140.395Z" fill="#34726C"/>
<path d="M132.204 139.566C132.204 139.223 132.22 138.891 131.869 138.704C131.446 138.477 130.673 138.623 130.212 138.614C129.352 138.598 128.494 138.555 127.637 138.495C127.351 138.475 127.192 138.658 127.157 138.874C127.098 138.957 127.065 139.057 127.065 139.159C127.051 139.696 126.88 140.667 127.208 141.141C127.468 141.516 127.992 141.422 128.386 141.421C129.112 141.42 129.837 141.41 130.562 141.391C130.992 141.38 131.736 141.505 132.048 141.109C132.335 140.745 132.205 139.994 132.204 139.566ZM129.63 140.395C129.161 140.403 128.568 140.488 128.065 140.44C128.027 140.153 128.042 139.832 128.059 139.534C128.884 139.586 129.709 139.623 130.535 139.634C130.73 139.637 130.976 139.676 131.169 139.64C131.169 139.872 131.174 140.171 131.173 140.39C130.676 140.459 130.095 140.389 129.63 140.395Z" fill="#34726C"/>
<path d="M175.059 186.912H30.3972V191H175.059V186.912Z" fill="#34726C"/>
<path d="M171.734 145.69H33.7234V186.912H171.734V145.69Z" fill="#459991"/>
<path d="M171.733 145.69H158.674V186.912H171.733V145.69Z" fill="#3C857E"/>
<path d="M171.734 145.69H33.7234V147.339H171.734V145.69Z" fill="#34726C"/>
<path d="M173.251 143.153H32.2056V145.69H173.251V143.153Z" fill="#3C857E"/>
<path d="M46.8135 157.884H42.0842C41.821 157.883 41.5688 157.779 41.3828 157.592C41.1967 157.406 41.092 157.154 41.0917 156.89V153.467C41.092 153.204 41.1967 152.951 41.3828 152.765C41.5688 152.579 41.821 152.474 42.0842 152.474H46.8135C47.0767 152.474 47.329 152.579 47.515 152.765C47.7011 152.951 47.8058 153.204 47.806 153.467V156.89C47.8058 157.154 47.7011 157.406 47.515 157.592C47.329 157.779 47.0767 157.883 46.8135 157.884ZM46.7926 153.467L42.0851 153.488L42.106 156.89L46.7926 156.869V153.467Z" fill="#5FBAB2"/>
<path d="M58.0448 152.981H52.3444V157.377H58.0448V152.981Z" fill="#34726C"/>
<path d="M68.7909 152.981H63.0905V157.377H68.7909V152.981Z" fill="#34726C"/>
<path d="M79.537 152.981H73.8365V157.377H79.537V152.981Z" fill="#34726C"/>
<path d="M90.2833 152.981H84.5828V157.377H90.2833V152.981Z" fill="#34726C"/>
<path d="M100.544 157.884H95.8146C95.5515 157.883 95.2993 157.779 95.1132 157.592C94.9272 157.406 94.8225 157.154 94.8221 156.89V153.467C94.8225 153.204 94.9272 152.951 95.1132 152.765C95.2993 152.579 95.5515 152.474 95.8146 152.474H100.544C100.807 152.474 101.059 152.579 101.245 152.765C101.431 152.951 101.535 153.204 101.536 153.467V156.89C101.535 157.153 101.431 157.406 101.245 157.592C101.059 157.779 100.807 157.883 100.544 157.884ZM100.523 153.467L95.8146 153.488L95.8355 156.89L100.523 156.869V153.467Z" fill="#5FBAB2"/>
<path d="M111.29 157.884H106.561C106.297 157.883 106.045 157.779 105.859 157.592C105.673 157.406 105.568 157.154 105.568 156.89V153.467C105.568 153.204 105.673 152.951 105.859 152.765C106.045 152.579 106.297 152.474 106.561 152.474H111.29C111.553 152.474 111.805 152.579 111.991 152.765C112.177 152.951 112.282 153.204 112.282 153.467V156.89C112.282 157.154 112.177 157.406 111.991 157.592C111.805 157.779 111.553 157.883 111.29 157.884ZM111.269 153.467L106.561 153.488L106.582 156.89L111.269 156.869V153.467Z" fill="#5FBAB2"/>
<path d="M122.521 152.981H116.821V157.377H122.521V152.981Z" fill="#34726C"/>
<path d="M133.268 152.981H127.567V157.377H133.268V152.981Z" fill="#34726C"/>
<path d="M143.527 157.884H138.798C138.535 157.883 138.282 157.779 138.096 157.592C137.91 157.406 137.806 157.154 137.805 156.89V153.467C137.806 153.204 137.91 152.951 138.096 152.765C138.282 152.579 138.535 152.474 138.798 152.474H143.527C143.79 152.474 144.042 152.579 144.228 152.765C144.414 152.951 144.519 153.204 144.519 153.467V156.89C144.519 157.154 144.414 157.406 144.228 157.592C144.042 157.779 143.79 157.883 143.527 157.884ZM143.506 153.467L138.798 153.488L138.819 156.89L143.506 156.869V153.467Z" fill="#5FBAB2"/>
<path d="M154.76 152.981H149.059V157.377H154.76V152.981Z" fill="#34726C"/>
<path d="M46.8135 172.651H42.0842C41.8211 172.651 41.5688 172.546 41.3828 172.36C41.1967 172.174 41.092 171.921 41.0917 171.658V168.235C41.092 167.971 41.1967 167.719 41.3828 167.533C41.5688 167.347 41.8211 167.242 42.0842 167.242H46.8135C47.0766 167.242 47.3289 167.346 47.515 167.533C47.7011 167.719 47.8058 167.971 47.806 168.235V171.658C47.8058 171.921 47.7011 172.174 47.515 172.36C47.3289 172.546 47.0766 172.651 46.8135 172.651ZM46.7926 168.235L42.0851 168.256L42.106 171.658L46.7926 171.637V168.235Z" fill="#5FBAB2"/>
<path d="M58.0448 167.749H52.3444V172.144H58.0448V167.749Z" fill="#34726C"/>
<path d="M68.3051 172.651H63.5762C63.3132 172.651 63.0609 172.546 62.8749 172.36C62.6888 172.174 62.5841 171.921 62.5837 171.658V168.235C62.5841 167.971 62.6888 167.719 62.8749 167.533C63.0609 167.347 63.3132 167.242 63.5762 167.242H68.3051C68.5682 167.242 68.8204 167.347 69.0063 167.533C69.1923 167.719 69.2969 167.972 69.2972 168.235V171.658C69.2969 171.921 69.1923 172.174 69.0063 172.36C68.8204 172.546 68.5682 172.651 68.3051 172.651ZM68.2838 168.235L63.5762 168.256L63.5971 171.658L68.2838 171.637V168.235Z" fill="#5FBAB2"/>
<path d="M79.051 172.651H74.3226C74.0595 172.651 73.8072 172.546 73.6212 172.36C73.4351 172.174 73.3304 171.921 73.3301 171.658V168.235C73.3304 167.971 73.4351 167.719 73.6212 167.533C73.8072 167.347 74.0595 167.242 74.3226 167.242H79.051C79.3141 167.242 79.5664 167.346 79.7525 167.533C79.9386 167.719 80.0432 167.971 80.0435 168.235V171.658C80.0432 171.921 79.9386 172.174 79.7525 172.36C79.5664 172.546 79.3141 172.651 79.051 172.651ZM79.0305 168.235L74.3226 168.256L74.3435 171.658L79.0305 171.637V168.235Z" fill="#5FBAB2"/>
<path d="M90.2833 167.749H84.5828V172.144H90.2833V167.749Z" fill="#34726C"/>
<path d="M100.544 172.651H95.8146C95.5516 172.651 95.2993 172.546 95.1133 172.36C94.9272 172.174 94.8225 171.921 94.8221 171.658V168.235C94.8225 167.971 94.9272 167.719 95.1133 167.533C95.2993 167.347 95.5516 167.242 95.8146 167.242H100.544C100.807 167.242 101.059 167.347 101.245 167.533C101.431 167.719 101.535 167.972 101.536 168.235V171.658C101.535 171.921 101.431 172.174 101.245 172.36C101.059 172.546 100.807 172.651 100.544 172.651ZM100.523 168.235L95.8146 168.256L95.8355 171.658L100.523 171.637V168.235Z" fill="#5FBAB2"/>
<path d="M111.775 167.749H106.075V172.144H111.775V167.749Z" fill="#34726C"/>
<path d="M122.036 172.651H117.307C117.044 172.651 116.792 172.546 116.606 172.36C116.419 172.174 116.315 171.921 116.314 171.658V168.235C116.315 167.971 116.419 167.719 116.606 167.533C116.792 167.347 117.044 167.242 117.307 167.242H122.036C122.299 167.242 122.551 167.347 122.737 167.533C122.923 167.719 123.028 167.972 123.028 168.235V171.658C123.028 171.921 122.923 172.174 122.737 172.36C122.551 172.546 122.299 172.651 122.036 172.651ZM122.015 168.235L117.307 168.256L117.328 171.658L122.015 171.637V168.235Z" fill="#5FBAB2"/>
<path d="M132.782 172.651H128.053C127.79 172.651 127.538 172.546 127.352 172.36C127.165 172.174 127.061 171.921 127.06 171.658V168.235C127.061 167.971 127.165 167.719 127.352 167.533C127.538 167.347 127.79 167.242 128.053 167.242H132.782C133.045 167.242 133.297 167.347 133.483 167.533C133.669 167.719 133.774 167.972 133.774 168.235V171.658C133.774 171.921 133.669 172.174 133.483 172.36C133.297 172.546 133.045 172.651 132.782 172.651ZM132.761 168.235L128.053 168.256L128.074 171.658L132.761 171.637V168.235Z" fill="#5FBAB2"/>
<path d="M143.527 172.651H138.798C138.535 172.651 138.282 172.546 138.096 172.36C137.91 172.174 137.806 171.921 137.805 171.658V168.235C137.806 167.971 137.91 167.719 138.096 167.533C138.282 167.347 138.535 167.242 138.798 167.242H143.527C143.79 167.242 144.042 167.347 144.228 167.533C144.414 167.719 144.519 167.971 144.519 168.235V171.658C144.519 171.921 144.414 172.174 144.228 172.36C144.042 172.546 143.79 172.651 143.527 172.651ZM143.506 168.235L138.798 168.256L138.819 171.658L143.506 171.637V168.235Z" fill="#5FBAB2"/>
<path d="M154.76 167.749H149.059V172.144H154.76V167.749Z" fill="#34726C"/>
<path d="M49.9107 186.864L47.2984 186.806V182.516H41.5984V186.68L30.3878 186.431C29.7356 186.416 29.7356 187.431 30.3878 187.445L49.9102 187.879C50.5628 187.893 50.5628 186.879 49.9107 186.864Z" fill="#34726C"/>
<path d="M57.559 187.417H52.8301C52.567 187.417 52.3147 187.312 52.1286 187.126C51.9425 186.94 51.8379 186.687 51.8376 186.424V183.001C51.8379 182.737 51.9425 182.485 52.1286 182.299C52.3147 182.112 52.567 182.008 52.8301 182.007H57.559C57.8221 182.008 58.0743 182.112 58.2603 182.299C58.4463 182.485 58.5508 182.738 58.5511 183.001V186.424C58.5508 186.687 58.4463 186.94 58.2603 187.126C58.0743 187.312 57.8221 187.417 57.559 187.417ZM57.5381 183.001L52.8301 183.022L52.851 186.424L57.5381 186.403V183.001Z" fill="#5FBAB2"/>
<path d="M81.0644 186.746C80.555 186.761 80.0461 186.766 79.5368 186.766V182.516H73.8367V186.577C72.1543 186.492 70.4722 186.408 68.7906 186.385V182.516H63.0906V186.653C63.0016 186.664 62.9082 186.671 62.8175 186.683C62.18 186.767 62.1715 187.783 62.8175 187.698C68.8899 186.896 74.9747 187.945 81.0644 187.761C81.7148 187.741 81.7179 186.726 81.0644 186.746Z" fill="#34726C"/>
<path d="M92.0773 182.516H82.7886V190.999H92.0773V182.516Z" fill="#34726C"/>
<path d="M101.029 182.516H95.3289V186.912H101.029V182.516Z" fill="#34726C"/>
<path d="M111.29 187.417H106.561C106.297 187.417 106.045 187.312 105.859 187.126C105.673 186.94 105.568 186.687 105.568 186.424V183.001C105.568 182.737 105.673 182.485 105.859 182.299C106.045 182.112 106.297 182.008 106.561 182.007H111.29C111.553 182.008 111.805 182.112 111.991 182.299C112.177 182.485 112.282 182.737 112.282 183.001V186.424C112.282 186.687 112.177 186.94 111.991 187.126C111.805 187.312 111.553 187.417 111.29 187.417ZM111.269 183.001L106.561 183.022L106.582 186.424L111.269 186.403V183.001Z" fill="#5FBAB2"/>
<path d="M122.521 182.516H116.821V186.912H122.521V182.516Z" fill="#34726C"/>
<path d="M133.268 182.516H127.567V186.912H133.268V182.516Z" fill="#34726C"/>
<path d="M143.527 187.417H138.798C138.535 187.417 138.282 187.312 138.096 187.126C137.91 186.94 137.806 186.687 137.805 186.424V183.001C137.806 182.737 137.91 182.485 138.096 182.299C138.282 182.112 138.535 182.008 138.798 182.007H143.527C143.79 182.008 144.042 182.112 144.228 182.299C144.414 182.485 144.519 182.737 144.519 183.001V186.424C144.519 186.687 144.414 186.94 144.228 187.126C144.042 187.312 143.79 187.417 143.527 187.417ZM143.506 183.001L138.798 183.022L138.819 186.424L143.506 186.403V183.001Z" fill="#5FBAB2"/>
<path d="M154.274 187.417H149.545C149.282 187.417 149.03 187.312 148.844 187.126C148.658 186.94 148.553 186.687 148.553 186.424V183.001C148.553 182.737 148.658 182.485 148.844 182.299C149.03 182.112 149.282 182.008 149.545 182.007H154.274C154.537 182.008 154.789 182.112 154.975 182.299C155.161 182.485 155.266 182.738 155.266 183.001V186.424C155.266 186.687 155.161 186.94 154.975 187.126C154.789 187.312 154.537 187.417 154.274 187.417ZM154.253 183.001L149.545 183.022L149.566 186.424L154.253 186.403V183.001Z" fill="#5FBAB2"/>
<path d="M82.5445 160.123C67.7068 160.257 52.8695 160.213 38.0324 159.99C37.3798 159.98 37.3802 160.658 38.0324 160.665C52.8674 160.889 67.7047 160.933 82.5445 160.799C83.1958 160.793 83.1975 160.119 82.5445 160.123Z" fill="#5FBAB2"/>
<path d="M142.111 160.076C124.758 160.385 107.404 160.33 90.048 159.913C89.3958 159.897 89.3967 160.573 90.048 160.588C107.395 161.006 124.75 161.06 142.111 160.752C142.762 160.741 142.765 160.065 142.111 160.076Z" fill="#5FBAB2"/>
<path d="M155.518 160.017C152.706 159.996 149.898 160.048 147.094 160.173C146.446 160.202 146.441 160.878 147.094 160.849C149.899 160.723 152.707 160.671 155.518 160.692C156.17 160.697 156.17 160.022 155.518 160.017Z" fill="#5FBAB2"/>
<path d="M70.005 175.155C61.5822 175.089 53.1582 175.092 44.7328 175.166C44.0815 175.172 44.0797 175.847 44.7328 175.842C53.1555 175.769 61.5796 175.765 70.005 175.831C70.658 175.836 70.658 175.16 70.005 175.155Z" fill="#5FBAB2"/>
<path d="M133.088 174.864C115.101 174.787 97.1134 174.761 79.1258 174.787C78.4736 174.787 78.4728 175.464 79.1258 175.462C97.1134 175.437 115.101 175.463 133.088 175.539C133.74 175.542 133.74 174.866 133.088 174.864Z" fill="#5FBAB2"/>
<path d="M158.966 149.557C158.933 148.907 157.92 148.903 157.953 149.557C158.45 159.272 158.515 168.995 158.148 178.724C158.124 179.377 159.137 179.375 159.162 178.724C159.528 169.002 159.463 159.28 158.966 149.557Z" fill="#34726C"/>
<path d="M159.321 181.731C159.375 181.08 158.362 181.084 158.308 181.731C158.159 183.534 158.575 185.311 158.51 187.114C158.486 187.767 159.5 187.766 159.523 187.114C159.586 185.311 159.172 183.534 159.321 181.731Z" fill="#34726C"/>
</g>
</g>
<defs>
<clipPath id="clip0">
<rect width="227" height="177" fill="white" transform="translate(10.5002 13)"/>
</clipPath>
</defs>
</svg>
