<svg width="290" height="116" viewBox="0 0 290 116" fill="none" xmlns="http://www.w3.org/2000/svg">
<rect x="1" y="1" width="288" height="114" rx="9" fill="white" stroke="#4AA29A" stroke-width="2"/>
<path opacity="0.05" d="M0 10C0 4.47715 4.47715 0 10 0H280C285.523 0 290 4.47715 290 10V40H0V10Z" fill="#4AA29A"/>
<line x1="57.4999" y1="10" x2="57.4999" y2="106" stroke="#C4C4C4" stroke-dasharray="2 2"/>
<line x1="101.5" y1="10" x2="101.5" y2="106" stroke="#C4C4C4" stroke-dasharray="2 2"/>
<line x1="145.5" y1="10" x2="145.5" y2="106" stroke="#C4C4C4" stroke-dasharray="2 2"/>
<line x1="189.501" y1="10" x2="189.501" y2="106" stroke="#C4C4C4" stroke-dasharray="2 2"/>
<line x1="233.501" y1="10" x2="233.501" y2="106" stroke="#C4C4C4" stroke-dasharray="2 2"/>
<line x1="10" y1="72.5" x2="280" y2="72.5" stroke="#C4C4C4" stroke-dasharray="2 2"/>
<path d="M242.171 87.01L240.601 88V87.09L242.401 85.93H243.001V93H242.171V87.01ZM247.795 86H248.865V90.27H249.905V91.07H248.865V93H248.035V91.07H244.245V90.5L247.795 86ZM248.035 90.27V86.95L245.365 90.27H248.035ZM250.576 94.05C250.943 94.01 251.23 93.8933 251.436 93.7C251.65 93.5133 251.77 93.3133 251.796 93.1H251.776C251.523 93.1 251.35 93.0367 251.256 92.91C251.17 92.7833 251.126 92.6333 251.126 92.46C251.126 92.28 251.17 92.1267 251.256 92C251.35 91.8733 251.523 91.81 251.776 91.81C251.97 91.81 252.12 91.8533 252.226 91.94C252.333 92.02 252.406 92.1367 252.446 92.29C252.493 92.4367 252.516 92.6067 252.516 92.8C252.516 93.0667 252.47 93.3067 252.376 93.52C252.283 93.7333 252.163 93.9167 252.016 94.07C251.876 94.23 251.72 94.3567 251.546 94.45C251.38 94.55 251.22 94.6133 251.066 94.64L250.576 94.05ZM255.618 87.01L254.048 88V87.09L255.848 85.93H256.448V93H255.618V87.01ZM261.242 86H262.312V90.27H263.352V91.07H262.312V93H261.482V91.07H257.692V90.5L261.242 86ZM261.482 90.27V86.95L258.812 90.27H261.482Z" fill="#404040"/>
<path d="M198.171 87.01L196.601 88V87.09L198.401 85.93H199.001V93H198.171V87.01ZM200.925 91.3C201.132 91.58 201.398 91.81 201.725 91.99C202.058 92.17 202.432 92.25 202.845 92.23C203.432 92.2033 203.898 91.9733 204.245 91.54C204.598 91.1067 204.778 90.4533 204.785 89.58C204.785 89.4667 204.778 89.36 204.765 89.26C204.758 89.1533 204.748 89.05 204.735 88.95C204.635 89.39 204.405 89.75 204.045 90.03C203.685 90.31 203.235 90.45 202.695 90.45C202.355 90.45 202.048 90.3967 201.775 90.29C201.502 90.1767 201.268 90.0233 201.075 89.83C200.888 89.6367 200.742 89.41 200.635 89.15C200.535 88.89 200.485 88.6067 200.485 88.3C200.485 87.9133 200.552 87.5733 200.685 87.28C200.818 86.98 200.995 86.73 201.215 86.53C201.442 86.33 201.702 86.18 201.995 86.08C202.288 85.9733 202.598 85.92 202.925 85.92C203.338 85.92 203.708 85.9967 204.035 86.15C204.362 86.2967 204.638 86.5167 204.865 86.81C205.098 87.0967 205.275 87.4533 205.395 87.88C205.522 88.3067 205.585 88.7933 205.585 89.34C205.585 89.9867 205.518 90.5433 205.385 91.01C205.252 91.4767 205.065 91.8633 204.825 92.17C204.585 92.47 204.295 92.6933 203.955 92.84C203.622 92.9867 203.255 93.0667 202.855 93.08C202.615 93.0867 202.392 93.0667 202.185 93.02C201.978 92.9733 201.795 92.9167 201.635 92.85C201.475 92.7767 201.335 92.6967 201.215 92.61C201.095 92.5233 200.998 92.44 200.925 92.36V91.3ZM202.885 89.68C203.385 89.68 203.788 89.5367 204.095 89.25C204.408 88.9633 204.582 88.5833 204.615 88.11C204.502 87.7033 204.308 87.3767 204.035 87.13C203.762 86.8833 203.395 86.76 202.935 86.76C202.455 86.76 202.068 86.8967 201.775 87.17C201.488 87.4367 201.345 87.8 201.345 88.26C201.345 88.7 201.482 89.0467 201.755 89.3C202.028 89.5533 202.405 89.68 202.885 89.68ZM206.576 94.05C206.943 94.01 207.23 93.8933 207.436 93.7C207.65 93.5133 207.77 93.3133 207.796 93.1H207.776C207.523 93.1 207.35 93.0367 207.256 92.91C207.17 92.7833 207.126 92.6333 207.126 92.46C207.126 92.28 207.17 92.1267 207.256 92C207.35 91.8733 207.523 91.81 207.776 91.81C207.97 91.81 208.12 91.8533 208.226 91.94C208.333 92.02 208.406 92.1367 208.446 92.29C208.493 92.4367 208.516 92.6067 208.516 92.8C208.516 93.0667 208.47 93.3067 208.376 93.52C208.283 93.7333 208.163 93.9167 208.016 94.07C207.876 94.23 207.72 94.3567 207.546 94.45C207.38 94.55 207.22 94.6133 207.066 94.64L206.576 94.05ZM210.368 91.3C210.575 91.58 210.842 91.81 211.168 91.99C211.502 92.17 211.875 92.25 212.288 92.23C212.875 92.2033 213.342 91.9733 213.688 91.54C214.042 91.1067 214.222 90.4533 214.228 89.58C214.228 89.4667 214.222 89.36 214.208 89.26C214.202 89.1533 214.192 89.05 214.178 88.95C214.078 89.39 213.848 89.75 213.488 90.03C213.128 90.31 212.678 90.45 212.138 90.45C211.798 90.45 211.492 90.3967 211.218 90.29C210.945 90.1767 210.712 90.0233 210.518 89.83C210.332 89.6367 210.185 89.41 210.078 89.15C209.978 88.89 209.928 88.6067 209.928 88.3C209.928 87.9133 209.995 87.5733 210.128 87.28C210.262 86.98 210.438 86.73 210.658 86.53C210.885 86.33 211.145 86.18 211.438 86.08C211.732 85.9733 212.042 85.92 212.368 85.92C212.782 85.92 213.152 85.9967 213.478 86.15C213.805 86.2967 214.082 86.5167 214.308 86.81C214.542 87.0967 214.718 87.4533 214.838 87.88C214.965 88.3067 215.028 88.7933 215.028 89.34C215.028 89.9867 214.962 90.5433 214.828 91.01C214.695 91.4767 214.508 91.8633 214.268 92.17C214.028 92.47 213.738 92.6933 213.398 92.84C213.065 92.9867 212.698 93.0667 212.298 93.08C212.058 93.0867 211.835 93.0667 211.628 93.02C211.422 92.9733 211.238 92.9167 211.078 92.85C210.918 92.7767 210.778 92.6967 210.658 92.61C210.538 92.5233 210.442 92.44 210.368 92.36V91.3ZM212.328 89.68C212.828 89.68 213.232 89.5367 213.538 89.25C213.852 88.9633 214.025 88.5833 214.058 88.11C213.945 87.7033 213.752 87.3767 213.478 87.13C213.205 86.8833 212.838 86.76 212.378 86.76C211.898 86.76 211.512 86.8967 211.218 87.17C210.932 87.4367 210.788 87.8 210.788 88.26C210.788 88.7 210.925 89.0467 211.198 89.3C211.472 89.5533 211.848 89.68 212.328 89.68ZM217.722 87.01L216.152 88V87.09L217.952 85.93H218.552V93H217.722V87.01Z" fill="#404040"/>
<path d="M152.331 86H156.931V86.58L154.341 93H153.401L155.921 86.9H152.331V86ZM158.223 91.3C158.43 91.58 158.697 91.81 159.023 91.99C159.357 92.17 159.73 92.25 160.143 92.23C160.73 92.2033 161.197 91.9733 161.543 91.54C161.897 91.1067 162.077 90.4533 162.083 89.58C162.083 89.4667 162.077 89.36 162.063 89.26C162.057 89.1533 162.047 89.05 162.033 88.95C161.933 89.39 161.703 89.75 161.343 90.03C160.983 90.31 160.533 90.45 159.993 90.45C159.653 90.45 159.347 90.3967 159.073 90.29C158.8 90.1767 158.567 90.0233 158.373 89.83C158.187 89.6367 158.04 89.41 157.933 89.15C157.833 88.89 157.783 88.6067 157.783 88.3C157.783 87.9133 157.85 87.5733 157.983 87.28C158.117 86.98 158.293 86.73 158.513 86.53C158.74 86.33 159 86.18 159.293 86.08C159.587 85.9733 159.897 85.92 160.223 85.92C160.637 85.92 161.007 85.9967 161.333 86.15C161.66 86.2967 161.937 86.5167 162.163 86.81C162.397 87.0967 162.573 87.4533 162.693 87.88C162.82 88.3067 162.883 88.7933 162.883 89.34C162.883 89.9867 162.817 90.5433 162.683 91.01C162.55 91.4767 162.363 91.8633 162.123 92.17C161.883 92.47 161.593 92.6933 161.253 92.84C160.92 92.9867 160.553 93.0667 160.153 93.08C159.913 93.0867 159.69 93.0667 159.483 93.02C159.277 92.9733 159.093 92.9167 158.933 92.85C158.773 92.7767 158.633 92.6967 158.513 92.61C158.393 92.5233 158.297 92.44 158.223 92.36V91.3ZM160.183 89.68C160.683 89.68 161.087 89.5367 161.393 89.25C161.707 88.9633 161.88 88.5833 161.913 88.11C161.8 87.7033 161.607 87.3767 161.333 87.13C161.06 86.8833 160.693 86.76 160.233 86.76C159.753 86.76 159.367 86.8967 159.073 87.17C158.787 87.4367 158.643 87.8 158.643 88.26C158.643 88.7 158.78 89.0467 159.053 89.3C159.327 89.5533 159.703 89.68 160.183 89.68ZM163.875 94.05C164.241 94.01 164.528 93.8933 164.735 93.7C164.948 93.5133 165.068 93.3133 165.095 93.1H165.075C164.821 93.1 164.648 93.0367 164.555 92.91C164.468 92.7833 164.425 92.6333 164.425 92.46C164.425 92.28 164.468 92.1267 164.555 92C164.648 91.8733 164.821 91.81 165.075 91.81C165.268 91.81 165.418 91.8533 165.525 91.94C165.631 92.02 165.705 92.1367 165.745 92.29C165.791 92.4367 165.815 92.6067 165.815 92.8C165.815 93.0667 165.768 93.3067 165.675 93.52C165.581 93.7333 165.461 93.9167 165.315 94.07C165.175 94.23 165.018 94.3567 164.845 94.45C164.678 94.55 164.518 94.6133 164.365 94.64L163.875 94.05ZM169.857 93.08C169.057 93.08 168.437 92.8967 167.997 92.53C167.557 92.1567 167.337 91.6467 167.337 91C167.337 90.8333 167.357 90.6633 167.397 90.49C167.437 90.3167 167.51 90.1533 167.617 90C167.723 89.84 167.867 89.6967 168.047 89.57C168.227 89.4367 168.453 89.3333 168.727 89.26C168.367 89.18 168.08 89.02 167.867 88.78C167.653 88.5333 167.547 88.1933 167.547 87.76C167.547 87.4733 167.59 87.2167 167.677 86.99C167.77 86.7567 167.91 86.56 168.097 86.4C168.283 86.2333 168.52 86.1067 168.807 86.02C169.1 85.9333 169.447 85.89 169.847 85.89C170.247 85.89 170.587 85.9333 170.867 86.02C171.147 86.1 171.377 86.22 171.557 86.38C171.737 86.5333 171.867 86.72 171.947 86.94C172.027 87.1533 172.067 87.39 172.067 87.65C172.067 88.01 171.977 88.3333 171.797 88.62C171.617 88.9067 171.32 89.1167 170.907 89.25C171.367 89.35 171.723 89.5433 171.977 89.83C172.23 90.11 172.357 90.48 172.357 90.94C172.357 91.2533 172.303 91.54 172.197 91.8C172.097 92.06 171.943 92.2867 171.737 92.48C171.53 92.6667 171.27 92.8133 170.957 92.92C170.643 93.0267 170.277 93.08 169.857 93.08ZM169.867 92.22C170.433 92.22 170.847 92.1067 171.107 91.88C171.367 91.6533 171.497 91.3233 171.497 90.89C171.497 90.47 171.357 90.16 171.077 89.96C170.797 89.76 170.39 89.66 169.857 89.66C169.303 89.66 168.89 89.77 168.617 89.99C168.35 90.2033 168.217 90.4967 168.217 90.87C168.217 91.1033 168.257 91.3067 168.337 91.48C168.423 91.6467 168.54 91.7867 168.687 91.9C168.833 92.0067 169.007 92.0867 169.207 92.14C169.407 92.1933 169.627 92.22 169.867 92.22ZM169.837 88.99C170.317 88.99 170.67 88.8867 170.897 88.68C171.123 88.4667 171.237 88.19 171.237 87.85C171.237 87.4633 171.127 87.1833 170.907 87.01C170.693 86.8367 170.337 86.75 169.837 86.75C169.337 86.75 168.967 86.8433 168.727 87.03C168.493 87.2167 168.377 87.4967 168.377 87.87C168.377 88.1767 168.497 88.44 168.737 88.66C168.977 88.88 169.343 88.99 169.837 88.99ZM173.498 93V92.39C174.225 91.77 174.818 91.2433 175.278 90.81C175.745 90.3767 176.111 90 176.378 89.68C176.645 89.36 176.825 89.0767 176.918 88.83C177.018 88.5833 177.068 88.34 177.068 88.1C177.068 87.68 176.941 87.3567 176.688 87.13C176.435 86.8967 176.085 86.78 175.638 86.78C175.225 86.7733 174.858 86.8467 174.538 87C174.218 87.1533 173.945 87.37 173.718 87.65V86.64C173.805 86.5533 173.915 86.4667 174.048 86.38C174.181 86.2867 174.335 86.2067 174.508 86.14C174.681 86.0667 174.878 86.01 175.098 85.97C175.318 85.93 175.555 85.91 175.808 85.91C176.481 85.9233 177.005 86.1067 177.378 86.46C177.758 86.8133 177.948 87.3033 177.948 87.93C177.948 88.23 177.905 88.52 177.818 88.8C177.731 89.0733 177.585 89.3567 177.378 89.65C177.171 89.9433 176.901 90.26 176.568 90.6C176.235 90.9333 175.825 91.3033 175.338 91.71L174.788 92.18H178.148V93H173.498Z" fill="#404040"/>
<path d="M111.79 86H112.86V90.27H113.9V91.07H112.86V93H112.03V91.07H108.24V90.5L111.79 86ZM112.03 90.27V86.95L109.36 90.27H112.03ZM114.841 86.64C115.015 86.46 115.278 86.2933 115.631 86.14C115.991 85.9867 116.435 85.91 116.961 85.91C117.648 85.9233 118.171 86.0867 118.531 86.4C118.891 86.7133 119.071 87.1333 119.071 87.66C119.071 88.0933 118.965 88.4567 118.751 88.75C118.538 89.0367 118.231 89.2433 117.831 89.37C118.311 89.4433 118.685 89.6233 118.951 89.91C119.225 90.1967 119.361 90.58 119.361 91.06C119.361 91.3467 119.308 91.6133 119.201 91.86C119.101 92.1 118.948 92.31 118.741 92.49C118.535 92.67 118.275 92.8133 117.961 92.92C117.648 93.02 117.285 93.0733 116.871 93.08C116.611 93.08 116.368 93.0567 116.141 93.01C115.921 92.97 115.725 92.9167 115.551 92.85C115.378 92.7767 115.228 92.6967 115.101 92.61C114.975 92.5233 114.871 92.44 114.791 92.36V91.3C115.005 91.58 115.291 91.8067 115.651 91.98C116.011 92.1533 116.411 92.2367 116.851 92.23C117.398 92.2233 117.811 92.11 118.091 91.89C118.378 91.6633 118.521 91.3667 118.521 91C118.521 90.6133 118.388 90.3167 118.121 90.11C117.861 89.8967 117.438 89.79 116.851 89.79H116.011V89.11H116.641C117.161 89.11 117.555 89.0067 117.821 88.8C118.095 88.5867 118.231 88.2867 118.231 87.9C118.231 87.52 118.105 87.2367 117.851 87.05C117.605 86.8567 117.255 86.76 116.801 86.76C116.368 86.7667 115.988 86.8467 115.661 87C115.341 87.1533 115.068 87.37 114.841 87.65V86.64ZM120.167 94.05C120.534 94.01 120.82 93.8933 121.027 93.7C121.24 93.5133 121.36 93.3133 121.387 93.1H121.367C121.114 93.1 120.94 93.0367 120.847 92.91C120.76 92.7833 120.717 92.6333 120.717 92.46C120.717 92.28 120.76 92.1267 120.847 92C120.94 91.8733 121.114 91.81 121.367 91.81C121.56 91.81 121.71 91.8533 121.817 91.94C121.924 92.02 121.997 92.1367 122.037 92.29C122.084 92.4367 122.107 92.6067 122.107 92.8C122.107 93.0667 122.06 93.3067 121.967 93.52C121.874 93.7333 121.754 93.9167 121.607 94.07C121.467 94.23 121.31 94.3567 121.137 94.45C120.97 94.55 120.81 94.6133 120.657 94.64L120.167 94.05ZM126.149 93.08C125.349 93.08 124.729 92.8967 124.289 92.53C123.849 92.1567 123.629 91.6467 123.629 91C123.629 90.8333 123.649 90.6633 123.689 90.49C123.729 90.3167 123.803 90.1533 123.909 90C124.016 89.84 124.159 89.6967 124.339 89.57C124.519 89.4367 124.746 89.3333 125.019 89.26C124.659 89.18 124.373 89.02 124.159 88.78C123.946 88.5333 123.839 88.1933 123.839 87.76C123.839 87.4733 123.883 87.2167 123.969 86.99C124.063 86.7567 124.203 86.56 124.389 86.4C124.576 86.2333 124.813 86.1067 125.099 86.02C125.393 85.9333 125.739 85.89 126.139 85.89C126.539 85.89 126.879 85.9333 127.159 86.02C127.439 86.1 127.669 86.22 127.849 86.38C128.029 86.5333 128.159 86.72 128.239 86.94C128.319 87.1533 128.359 87.39 128.359 87.65C128.359 88.01 128.269 88.3333 128.089 88.62C127.909 88.9067 127.613 89.1167 127.199 89.25C127.659 89.35 128.016 89.5433 128.269 89.83C128.523 90.11 128.649 90.48 128.649 90.94C128.649 91.2533 128.596 91.54 128.489 91.8C128.389 92.06 128.236 92.2867 128.029 92.48C127.823 92.6667 127.563 92.8133 127.249 92.92C126.936 93.0267 126.569 93.08 126.149 93.08ZM126.159 92.22C126.726 92.22 127.139 92.1067 127.399 91.88C127.659 91.6533 127.789 91.3233 127.789 90.89C127.789 90.47 127.649 90.16 127.369 89.96C127.089 89.76 126.683 89.66 126.149 89.66C125.596 89.66 125.183 89.77 124.909 89.99C124.643 90.2033 124.509 90.4967 124.509 90.87C124.509 91.1033 124.549 91.3067 124.629 91.48C124.716 91.6467 124.833 91.7867 124.979 91.9C125.126 92.0067 125.299 92.0867 125.499 92.14C125.699 92.1933 125.919 92.22 126.159 92.22ZM126.129 88.99C126.609 88.99 126.963 88.8867 127.189 88.68C127.416 88.4667 127.529 88.19 127.529 87.85C127.529 87.4633 127.419 87.1833 127.199 87.01C126.986 86.8367 126.629 86.75 126.129 86.75C125.629 86.75 125.259 86.8433 125.019 87.03C124.786 87.2167 124.669 87.4967 124.669 87.87C124.669 88.1767 124.789 88.44 125.029 88.66C125.269 88.88 125.636 88.99 126.129 88.99ZM129.88 91.37C130.094 91.6367 130.38 91.85 130.74 92.01C131.1 92.1633 131.48 92.2367 131.88 92.23C132.407 92.23 132.8 92.1 133.06 91.84C133.327 91.5733 133.46 91.22 133.46 90.78C133.46 90.3267 133.297 89.9867 132.97 89.76C132.644 89.5333 132.207 89.42 131.66 89.42C131.354 89.42 131.067 89.4433 130.8 89.49C130.54 89.53 130.32 89.58 130.14 89.64L130.38 86H134V86.82H131.11L130.97 88.77C131.024 88.7567 131.09 88.7467 131.17 88.74C131.257 88.7267 131.344 88.7167 131.43 88.71C131.524 88.6967 131.614 88.6867 131.7 88.68C131.794 88.6733 131.88 88.67 131.96 88.67C132.72 88.67 133.307 88.86 133.72 89.24C134.134 89.62 134.34 90.1333 134.34 90.78C134.34 91.1533 134.28 91.4833 134.16 91.77C134.047 92.05 133.88 92.29 133.66 92.49C133.447 92.6833 133.19 92.83 132.89 92.93C132.59 93.03 132.26 93.08 131.9 93.08C131.654 93.08 131.424 93.0567 131.21 93.01C130.997 92.97 130.804 92.9167 130.63 92.85C130.464 92.7833 130.317 92.71 130.19 92.63C130.064 92.55 129.96 92.4733 129.88 92.4V91.37Z" fill="#404040"/>
<path d="M67.79 86H68.86V90.27H69.9V91.07H68.86V93H68.03V91.07H64.24V90.5L67.79 86ZM68.03 90.27V86.95L65.36 90.27H68.03ZM70.8412 91.37C71.0545 91.6367 71.3412 91.85 71.7012 92.01C72.0612 92.1633 72.4412 92.2367 72.8412 92.23C73.3678 92.23 73.7612 92.1 74.0212 91.84C74.2878 91.5733 74.4212 91.22 74.4212 90.78C74.4212 90.3267 74.2578 89.9867 73.9312 89.76C73.6045 89.5333 73.1678 89.42 72.6212 89.42C72.3145 89.42 72.0278 89.4433 71.7612 89.49C71.5012 89.53 71.2812 89.58 71.1012 89.64L71.3412 86H74.9612V86.82H72.0712L71.9312 88.77C71.9845 88.7567 72.0512 88.7467 72.1312 88.74C72.2178 88.7267 72.3045 88.7167 72.3912 88.71C72.4845 88.6967 72.5745 88.6867 72.6612 88.68C72.7545 88.6733 72.8412 88.67 72.9212 88.67C73.6812 88.67 74.2678 88.86 74.6812 89.24C75.0945 89.62 75.3012 90.1333 75.3012 90.78C75.3012 91.1533 75.2412 91.4833 75.1212 91.77C75.0078 92.05 74.8412 92.29 74.6212 92.49C74.4078 92.6833 74.1512 92.83 73.8512 92.93C73.5512 93.03 73.2212 93.08 72.8612 93.08C72.6145 93.08 72.3845 93.0567 72.1712 93.01C71.9578 92.97 71.7645 92.9167 71.5912 92.85C71.4245 92.7833 71.2778 92.71 71.1512 92.63C71.0245 92.55 70.9212 92.4733 70.8412 92.4V91.37ZM76.1669 94.05C76.5335 94.01 76.8202 93.8933 77.0269 93.7C77.2402 93.5133 77.3602 93.3133 77.3869 93.1H77.3669C77.1135 93.1 76.9402 93.0367 76.8469 92.91C76.7602 92.7833 76.7169 92.6333 76.7169 92.46C76.7169 92.28 76.7602 92.1267 76.8469 92C76.9402 91.8733 77.1135 91.81 77.3669 91.81C77.5602 91.81 77.7102 91.8533 77.8169 91.94C77.9235 92.02 77.9969 92.1367 78.0369 92.29C78.0835 92.4367 78.1069 92.6067 78.1069 92.8C78.1069 93.0667 78.0602 93.3067 77.9669 93.52C77.8735 93.7333 77.7535 93.9167 77.6069 94.07C77.4669 94.23 77.3102 94.3567 77.1369 94.45C76.9702 94.55 76.8102 94.6133 76.6569 94.64L76.1669 94.05ZM84.3091 87.7C84.1091 87.42 83.8424 87.19 83.5091 87.01C83.1757 86.83 82.8057 86.75 82.3991 86.77C81.8057 86.7967 81.3357 87.0267 80.9891 87.46C80.6424 87.8867 80.4657 88.5367 80.4591 89.41C80.4591 89.5233 80.4624 89.6333 80.4691 89.74C80.4757 89.8467 80.4857 89.95 80.4991 90.05C80.6057 89.61 80.8357 89.25 81.1891 88.97C81.5491 88.69 81.9991 88.55 82.5391 88.55C82.8791 88.55 83.1857 88.6067 83.4591 88.72C83.7391 88.8267 83.9724 88.9767 84.1591 89.17C84.3524 89.3633 84.4991 89.59 84.5991 89.85C84.7057 90.11 84.7591 90.3933 84.7591 90.7C84.7591 91.0933 84.6924 91.44 84.5591 91.74C84.4257 92.0333 84.2457 92.28 84.0191 92.48C83.7991 92.68 83.5391 92.83 83.2391 92.93C82.9457 93.03 82.6391 93.08 82.3191 93.08C81.9057 93.08 81.5324 93.0067 81.1991 92.86C80.8724 92.7067 80.5924 92.4867 80.3591 92.2C80.1324 91.9067 79.9557 91.5467 79.8291 91.12C79.7091 90.6933 79.6491 90.2067 79.6491 89.66C79.6491 89.0133 79.7157 88.4567 79.8491 87.99C79.9824 87.5233 80.1691 87.14 80.4091 86.84C80.6491 86.5333 80.9357 86.3067 81.2691 86.16C81.6091 86.0133 81.9791 85.9333 82.3791 85.92C82.6257 85.9133 82.8491 85.9333 83.0491 85.98C83.2557 86.0267 83.4391 86.0867 83.5991 86.16C83.7657 86.2267 83.9057 86.3033 84.0191 86.39C84.1391 86.4767 84.2357 86.56 84.3091 86.64V87.7ZM82.3491 89.32C81.8424 89.32 81.4357 89.4667 81.1291 89.76C80.8224 90.0467 80.6524 90.43 80.6191 90.91C80.7391 91.31 80.9357 91.6333 81.2091 91.88C81.4824 92.12 81.8491 92.24 82.3091 92.24C82.7891 92.24 83.1724 92.1067 83.4591 91.84C83.7524 91.5667 83.8991 91.2 83.8991 90.74C83.8991 90.3 83.7624 89.9533 83.4891 89.7C83.2157 89.4467 82.8357 89.32 82.3491 89.32ZM88.3502 93.08C87.5502 93.08 86.9302 92.8967 86.4902 92.53C86.0502 92.1567 85.8302 91.6467 85.8302 91C85.8302 90.8333 85.8502 90.6633 85.8902 90.49C85.9302 90.3167 86.0036 90.1533 86.1102 90C86.2169 89.84 86.3602 89.6967 86.5402 89.57C86.7202 89.4367 86.9469 89.3333 87.2202 89.26C86.8602 89.18 86.5736 89.02 86.3602 88.78C86.1469 88.5333 86.0402 88.1933 86.0402 87.76C86.0402 87.4733 86.0836 87.2167 86.1702 86.99C86.2636 86.7567 86.4036 86.56 86.5902 86.4C86.7769 86.2333 87.0136 86.1067 87.3002 86.02C87.5936 85.9333 87.9402 85.89 88.3402 85.89C88.7402 85.89 89.0802 85.9333 89.3602 86.02C89.6402 86.1 89.8702 86.22 90.0502 86.38C90.2302 86.5333 90.3602 86.72 90.4402 86.94C90.5202 87.1533 90.5602 87.39 90.5602 87.65C90.5602 88.01 90.4702 88.3333 90.2902 88.62C90.1102 88.9067 89.8136 89.1167 89.4002 89.25C89.8602 89.35 90.2169 89.5433 90.4702 89.83C90.7236 90.11 90.8502 90.48 90.8502 90.94C90.8502 91.2533 90.7969 91.54 90.6902 91.8C90.5902 92.06 90.4369 92.2867 90.2302 92.48C90.0236 92.6667 89.7636 92.8133 89.4502 92.92C89.1369 93.0267 88.7702 93.08 88.3502 93.08ZM88.3602 92.22C88.9269 92.22 89.3402 92.1067 89.6002 91.88C89.8602 91.6533 89.9902 91.3233 89.9902 90.89C89.9902 90.47 89.8502 90.16 89.5702 89.96C89.2902 89.76 88.8836 89.66 88.3502 89.66C87.7969 89.66 87.3836 89.77 87.1102 89.99C86.8436 90.2033 86.7102 90.4967 86.7102 90.87C86.7102 91.1033 86.7502 91.3067 86.8302 91.48C86.9169 91.6467 87.0336 91.7867 87.1802 91.9C87.3269 92.0067 87.5002 92.0867 87.7002 92.14C87.9002 92.1933 88.1202 92.22 88.3602 92.22ZM88.3302 88.99C88.8102 88.99 89.1636 88.8867 89.3902 88.68C89.6169 88.4667 89.7302 88.19 89.7302 87.85C89.7302 87.4633 89.6202 87.1833 89.4002 87.01C89.1869 86.8367 88.8302 86.75 88.3302 86.75C87.8302 86.75 87.4602 86.8433 87.2202 87.03C86.9869 87.2167 86.8702 87.4967 86.8702 87.87C86.8702 88.1767 86.9902 88.44 87.2302 88.66C87.4702 88.88 87.8369 88.99 88.3302 88.99Z" fill="#404040"/>
<path d="M12.51 93V92.14C13.2367 91.52 13.82 91.0033 14.26 90.59C14.7 90.17 15.0367 89.8133 15.27 89.52C15.51 89.2267 15.6667 88.98 15.74 88.78C15.82 88.58 15.86 88.39 15.86 88.21C15.86 87.8633 15.7533 87.5967 15.54 87.41C15.3267 87.2233 15.03 87.13 14.65 87.13C14.25 87.1233 13.8867 87.19 13.56 87.33C13.24 87.47 12.9633 87.6733 12.73 87.94V86.61C12.8167 86.5233 12.9267 86.44 13.06 86.36C13.2 86.2733 13.36 86.1967 13.54 86.13C13.72 86.0633 13.9167 86.01 14.13 85.97C14.35 85.93 14.5833 85.91 14.83 85.91C15.57 85.9167 16.13 86.1033 16.51 86.47C16.8967 86.8367 17.09 87.33 17.09 87.95C17.09 88.2367 17.0467 88.5133 16.96 88.78C16.88 89.0467 16.7467 89.32 16.56 89.6C16.3733 89.88 16.1267 90.1733 15.82 90.48C15.52 90.7867 15.15 91.1267 14.71 91.5L14.3 91.85H17.28V93H12.51ZM18.2694 89.51C18.2694 88.8633 18.3394 88.3133 18.4794 87.86C18.6194 87.4 18.8094 87.03 19.0494 86.75C19.296 86.4633 19.5794 86.2533 19.8994 86.12C20.226 85.9867 20.5727 85.92 20.9394 85.92C21.3527 85.92 21.726 85.9933 22.0594 86.14C22.3927 86.2867 22.676 86.51 22.9094 86.81C23.1494 87.1033 23.3327 87.4767 23.4594 87.93C23.586 88.3767 23.6494 88.9033 23.6494 89.51C23.6494 90.1633 23.576 90.72 23.4294 91.18C23.2894 91.6333 23.096 92.0033 22.8494 92.29C22.6094 92.57 22.326 92.7767 21.9994 92.91C21.6794 93.0367 21.336 93.1 20.9694 93.1C20.556 93.1 20.1827 93.0267 19.8494 92.88C19.516 92.7333 19.2327 92.5133 18.9994 92.22C18.766 91.92 18.586 91.5467 18.4594 91.1C18.3327 90.6467 18.2694 90.1167 18.2694 89.51ZM19.4694 89.51C19.4694 89.9567 19.5027 90.3333 19.5694 90.64C19.6427 90.9467 19.7427 91.1967 19.8694 91.39C20.0027 91.5767 20.1594 91.7133 20.3394 91.8C20.526 91.8867 20.736 91.93 20.9694 91.93C21.2094 91.93 21.4194 91.89 21.5994 91.81C21.786 91.7233 21.9427 91.5867 22.0694 91.4C22.196 91.2067 22.2894 90.9567 22.3494 90.65C22.416 90.3367 22.4494 89.9567 22.4494 89.51C22.4494 89.0633 22.4127 88.69 22.3394 88.39C22.2727 88.0833 22.1727 87.8367 22.0394 87.65C21.9127 87.4567 21.756 87.3167 21.5694 87.23C21.3827 87.1433 21.176 87.0967 20.9494 87.09C20.7094 87.09 20.496 87.1333 20.3094 87.22C20.1294 87.3 19.976 87.4367 19.8494 87.63C19.7227 87.8167 19.626 88.0667 19.5594 88.38C19.4994 88.6867 19.4694 89.0633 19.4694 89.51ZM26.0905 87.39L24.5905 88.32V87.09L26.3905 85.93H27.2605V93H26.0905V87.39ZM29.0614 91.04C29.1681 91.1667 29.2914 91.2867 29.4314 91.4C29.5714 91.5067 29.7247 91.6 29.8914 91.68C30.0647 91.76 30.2481 91.82 30.4414 91.86C30.6347 91.9 30.8381 91.9133 31.0514 91.9C31.5714 91.8667 31.9881 91.6633 32.3014 91.29C32.6147 90.9167 32.7781 90.3767 32.7914 89.67C32.7914 89.5367 32.7814 89.41 32.7614 89.29C32.6414 89.67 32.4147 89.9767 32.0814 90.21C31.7481 90.4433 31.3414 90.56 30.8614 90.56C30.5081 90.56 30.1914 90.5033 29.9114 90.39C29.6381 90.2767 29.4047 90.12 29.2114 89.92C29.0247 89.72 28.8781 89.4867 28.7714 89.22C28.6714 88.9467 28.6214 88.6533 28.6214 88.34C28.6214 87.9533 28.6881 87.61 28.8214 87.31C28.9614 87.01 29.1447 86.7567 29.3714 86.55C29.6047 86.3433 29.8747 86.1867 30.1814 86.08C30.4881 85.9733 30.8081 85.92 31.1414 85.92C31.5547 85.92 31.9314 85.9933 32.2714 86.14C32.6114 86.2867 32.9014 86.5033 33.1414 86.79C33.3814 87.0767 33.5681 87.4333 33.7014 87.86C33.8347 88.28 33.9014 88.7667 33.9014 89.32C33.9014 89.9667 33.8314 90.5233 33.6914 90.99C33.5514 91.4567 33.3547 91.8433 33.1014 92.15C32.8481 92.45 32.5481 92.6767 32.2014 92.83C31.8547 92.9767 31.4781 93.06 31.0714 93.08C30.8181 93.0867 30.5847 93.0667 30.3714 93.02C30.1581 92.98 29.9647 92.9233 29.7914 92.85C29.6247 92.7767 29.4781 92.6967 29.3514 92.61C29.2247 92.5233 29.1281 92.4433 29.0614 92.37V91.04ZM31.1614 89.5C31.5747 89.5 31.9147 89.3833 32.1814 89.15C32.4481 88.91 32.5981 88.59 32.6314 88.19C32.5314 87.85 32.3647 87.58 32.1314 87.38C31.8981 87.18 31.5814 87.08 31.1814 87.08C30.7547 87.08 30.4181 87.1967 30.1714 87.43C29.9314 87.6567 29.8114 87.95 29.8114 88.31C29.8114 88.6567 29.9247 88.9433 30.1514 89.17C30.3847 89.39 30.7214 89.5 31.1614 89.5Z" fill="#404040"/>
<path d="M242.171 54.01L240.601 55V54.09L242.401 52.93H243.001V60H242.171V54.01ZM247.795 53H248.865V57.27H249.905V58.07H248.865V60H248.035V58.07H244.245V57.5L247.795 53ZM248.035 57.27V53.95L245.365 57.27H248.035ZM250.576 61.05C250.943 61.01 251.23 60.8933 251.436 60.7C251.65 60.5133 251.77 60.3133 251.796 60.1H251.776C251.523 60.1 251.35 60.0367 251.256 59.91C251.17 59.7833 251.126 59.6333 251.126 59.46C251.126 59.28 251.17 59.1267 251.256 59C251.35 58.8733 251.523 58.81 251.776 58.81C251.97 58.81 252.12 58.8533 252.226 58.94C252.333 59.02 252.406 59.1367 252.446 59.29C252.493 59.4367 252.516 59.6067 252.516 59.8C252.516 60.0667 252.47 60.3067 252.376 60.52C252.283 60.7333 252.163 60.9167 252.016 61.07C251.876 61.23 251.72 61.3567 251.546 61.45C251.38 61.55 251.22 61.6133 251.066 61.64L250.576 61.05ZM258.718 54.7C258.518 54.42 258.252 54.19 257.918 54.01C257.585 53.83 257.215 53.75 256.808 53.77C256.215 53.7967 255.745 54.0267 255.398 54.46C255.052 54.8867 254.875 55.5367 254.868 56.41C254.868 56.5233 254.872 56.6333 254.878 56.74C254.885 56.8467 254.895 56.95 254.908 57.05C255.015 56.61 255.245 56.25 255.598 55.97C255.958 55.69 256.408 55.55 256.948 55.55C257.288 55.55 257.595 55.6067 257.868 55.72C258.148 55.8267 258.382 55.9767 258.568 56.17C258.762 56.3633 258.908 56.59 259.008 56.85C259.115 57.11 259.168 57.3933 259.168 57.7C259.168 58.0933 259.102 58.44 258.968 58.74C258.835 59.0333 258.655 59.28 258.428 59.48C258.208 59.68 257.948 59.83 257.648 59.93C257.355 60.03 257.048 60.08 256.728 60.08C256.315 60.08 255.942 60.0067 255.608 59.86C255.282 59.7067 255.002 59.4867 254.768 59.2C254.542 58.9067 254.365 58.5467 254.238 58.12C254.118 57.6933 254.058 57.2067 254.058 56.66C254.058 56.0133 254.125 55.4567 254.258 54.99C254.392 54.5233 254.578 54.14 254.818 53.84C255.058 53.5333 255.345 53.3067 255.678 53.16C256.018 53.0133 256.388 52.9333 256.788 52.92C257.035 52.9133 257.258 52.9333 257.458 52.98C257.665 53.0267 257.848 53.0867 258.008 53.16C258.175 53.2267 258.315 53.3033 258.428 53.39C258.548 53.4767 258.645 53.56 258.718 53.64V54.7ZM256.758 56.32C256.252 56.32 255.845 56.4667 255.538 56.76C255.232 57.0467 255.062 57.43 255.028 57.91C255.148 58.31 255.345 58.6333 255.618 58.88C255.892 59.12 256.258 59.24 256.718 59.24C257.198 59.24 257.582 59.1067 257.868 58.84C258.162 58.5667 258.308 58.2 258.308 57.74C258.308 57.3 258.172 56.9533 257.898 56.7C257.625 56.4467 257.245 56.32 256.758 56.32ZM260.29 58.37C260.503 58.6367 260.79 58.85 261.15 59.01C261.51 59.1633 261.89 59.2367 262.29 59.23C262.816 59.23 263.21 59.1 263.47 58.84C263.736 58.5733 263.87 58.22 263.87 57.78C263.87 57.3267 263.706 56.9867 263.38 56.76C263.053 56.5333 262.616 56.42 262.07 56.42C261.763 56.42 261.476 56.4433 261.21 56.49C260.95 56.53 260.73 56.58 260.55 56.64L260.79 53H264.41V53.82H261.52L261.38 55.77C261.433 55.7567 261.5 55.7467 261.58 55.74C261.666 55.7267 261.753 55.7167 261.84 55.71C261.933 55.6967 262.023 55.6867 262.11 55.68C262.203 55.6733 262.29 55.67 262.37 55.67C263.13 55.67 263.716 55.86 264.13 56.24C264.543 56.62 264.75 57.1333 264.75 57.78C264.75 58.1533 264.69 58.4833 264.57 58.77C264.456 59.05 264.29 59.29 264.07 59.49C263.856 59.6833 263.6 59.83 263.3 59.93C263 60.03 262.67 60.08 262.31 60.08C262.063 60.08 261.833 60.0567 261.62 60.01C261.406 59.97 261.213 59.9167 261.04 59.85C260.873 59.7833 260.726 59.71 260.6 59.63C260.473 59.55 260.37 59.4733 260.29 59.4V58.37Z" fill="#404040"/>
<path d="M198.171 54.01L196.601 55V54.09L198.401 52.93H199.001V60H198.171V54.01ZM203.115 60.08C202.315 60.08 201.695 59.8967 201.255 59.53C200.815 59.1567 200.595 58.6467 200.595 58C200.595 57.8333 200.615 57.6633 200.655 57.49C200.695 57.3167 200.768 57.1533 200.875 57C200.982 56.84 201.125 56.6967 201.305 56.57C201.485 56.4367 201.712 56.3333 201.985 56.26C201.625 56.18 201.338 56.02 201.125 55.78C200.912 55.5333 200.805 55.1933 200.805 54.76C200.805 54.4733 200.848 54.2167 200.935 53.99C201.028 53.7567 201.168 53.56 201.355 53.4C201.542 53.2333 201.778 53.1067 202.065 53.02C202.358 52.9333 202.705 52.89 203.105 52.89C203.505 52.89 203.845 52.9333 204.125 53.02C204.405 53.1 204.635 53.22 204.815 53.38C204.995 53.5333 205.125 53.72 205.205 53.94C205.285 54.1533 205.325 54.39 205.325 54.65C205.325 55.01 205.235 55.3333 205.055 55.62C204.875 55.9067 204.578 56.1167 204.165 56.25C204.625 56.35 204.982 56.5433 205.235 56.83C205.488 57.11 205.615 57.48 205.615 57.94C205.615 58.2533 205.562 58.54 205.455 58.8C205.355 59.06 205.202 59.2867 204.995 59.48C204.788 59.6667 204.528 59.8133 204.215 59.92C203.902 60.0267 203.535 60.08 203.115 60.08ZM203.125 59.22C203.692 59.22 204.105 59.1067 204.365 58.88C204.625 58.6533 204.755 58.3233 204.755 57.89C204.755 57.47 204.615 57.16 204.335 56.96C204.055 56.76 203.648 56.66 203.115 56.66C202.562 56.66 202.148 56.77 201.875 56.99C201.608 57.2033 201.475 57.4967 201.475 57.87C201.475 58.1033 201.515 58.3067 201.595 58.48C201.682 58.6467 201.798 58.7867 201.945 58.9C202.092 59.0067 202.265 59.0867 202.465 59.14C202.665 59.1933 202.885 59.22 203.125 59.22ZM203.095 55.99C203.575 55.99 203.928 55.8867 204.155 55.68C204.382 55.4667 204.495 55.19 204.495 54.85C204.495 54.4633 204.385 54.1833 204.165 54.01C203.952 53.8367 203.595 53.75 203.095 53.75C202.595 53.75 202.225 53.8433 201.985 54.03C201.752 54.2167 201.635 54.4967 201.635 54.87C201.635 55.1767 201.755 55.44 201.995 55.66C202.235 55.88 202.602 55.99 203.095 55.99ZM206.576 61.05C206.943 61.01 207.23 60.8933 207.436 60.7C207.65 60.5133 207.77 60.3133 207.796 60.1H207.776C207.523 60.1 207.35 60.0367 207.256 59.91C207.17 59.7833 207.126 59.6333 207.126 59.46C207.126 59.28 207.17 59.1267 207.256 59C207.35 58.8733 207.523 58.81 207.776 58.81C207.97 58.81 208.12 58.8533 208.226 58.94C208.333 59.02 208.406 59.1367 208.446 59.29C208.493 59.4367 208.516 59.6067 208.516 59.8C208.516 60.0667 208.47 60.3067 208.376 60.52C208.283 60.7333 208.163 60.9167 208.016 61.07C207.876 61.23 207.72 61.3567 207.546 61.45C207.38 61.55 207.22 61.6133 207.066 61.64L206.576 61.05ZM210.301 60V59.39C211.028 58.77 211.621 58.2433 212.081 57.81C212.548 57.3767 212.914 57 213.181 56.68C213.448 56.36 213.628 56.0767 213.721 55.83C213.821 55.5833 213.871 55.34 213.871 55.1C213.871 54.68 213.744 54.3567 213.491 54.13C213.238 53.8967 212.888 53.78 212.441 53.78C212.028 53.7733 211.661 53.8467 211.341 54C211.021 54.1533 210.748 54.37 210.521 54.65V53.64C210.608 53.5533 210.718 53.4667 210.851 53.38C210.984 53.2867 211.138 53.2067 211.311 53.14C211.484 53.0667 211.681 53.01 211.901 52.97C212.121 52.93 212.358 52.91 212.611 52.91C213.284 52.9233 213.808 53.1067 214.181 53.46C214.561 53.8133 214.751 54.3033 214.751 54.93C214.751 55.23 214.708 55.52 214.621 55.8C214.534 56.0733 214.388 56.3567 214.181 56.65C213.974 56.9433 213.704 57.26 213.371 57.6C213.038 57.9333 212.628 58.3033 212.141 58.71L211.591 59.18H214.951V60H210.301ZM216.267 58.3C216.473 58.58 216.74 58.81 217.067 58.99C217.4 59.17 217.773 59.25 218.187 59.23C218.773 59.2033 219.24 58.9733 219.587 58.54C219.94 58.1067 220.12 57.4533 220.127 56.58C220.127 56.4667 220.12 56.36 220.107 56.26C220.1 56.1533 220.09 56.05 220.077 55.95C219.977 56.39 219.747 56.75 219.387 57.03C219.027 57.31 218.577 57.45 218.037 57.45C217.697 57.45 217.39 57.3967 217.117 57.29C216.843 57.1767 216.61 57.0233 216.417 56.83C216.23 56.6367 216.083 56.41 215.977 56.15C215.877 55.89 215.827 55.6067 215.827 55.3C215.827 54.9133 215.893 54.5733 216.027 54.28C216.16 53.98 216.337 53.73 216.557 53.53C216.783 53.33 217.043 53.18 217.337 53.08C217.63 52.9733 217.94 52.92 218.267 52.92C218.68 52.92 219.05 52.9967 219.377 53.15C219.703 53.2967 219.98 53.5167 220.207 53.81C220.44 54.0967 220.617 54.4533 220.737 54.88C220.863 55.3067 220.927 55.7933 220.927 56.34C220.927 56.9867 220.86 57.5433 220.727 58.01C220.593 58.4767 220.407 58.8633 220.167 59.17C219.927 59.47 219.637 59.6933 219.297 59.84C218.963 59.9867 218.597 60.0667 218.197 60.08C217.957 60.0867 217.733 60.0667 217.527 60.02C217.32 59.9733 217.137 59.9167 216.977 59.85C216.817 59.7767 216.677 59.6967 216.557 59.61C216.437 59.5233 216.34 59.44 216.267 59.36V58.3ZM218.227 56.68C218.727 56.68 219.13 56.5367 219.437 56.25C219.75 55.9633 219.923 55.5833 219.957 55.11C219.843 54.7033 219.65 54.3767 219.377 54.13C219.103 53.8833 218.737 53.76 218.277 53.76C217.797 53.76 217.41 53.8967 217.117 54.17C216.83 54.4367 216.687 54.8 216.687 55.26C216.687 55.7 216.823 56.0467 217.097 56.3C217.37 56.5533 217.747 56.68 218.227 56.68Z" fill="#404040"/>
<path d="M152.331 53H156.931V53.58L154.341 60H153.401L155.921 53.9H152.331V53ZM160.218 60.08C159.418 60.08 158.798 59.8967 158.358 59.53C157.918 59.1567 157.698 58.6467 157.698 58C157.698 57.8333 157.718 57.6633 157.758 57.49C157.798 57.3167 157.871 57.1533 157.978 57C158.085 56.84 158.228 56.6967 158.408 56.57C158.588 56.4367 158.815 56.3333 159.088 56.26C158.728 56.18 158.441 56.02 158.228 55.78C158.015 55.5333 157.908 55.1933 157.908 54.76C157.908 54.4733 157.951 54.2167 158.038 53.99C158.131 53.7567 158.271 53.56 158.458 53.4C158.645 53.2333 158.881 53.1067 159.168 53.02C159.461 52.9333 159.808 52.89 160.208 52.89C160.608 52.89 160.948 52.9333 161.228 53.02C161.508 53.1 161.738 53.22 161.918 53.38C162.098 53.5333 162.228 53.72 162.308 53.94C162.388 54.1533 162.428 54.39 162.428 54.65C162.428 55.01 162.338 55.3333 162.158 55.62C161.978 55.9067 161.681 56.1167 161.268 56.25C161.728 56.35 162.085 56.5433 162.338 56.83C162.591 57.11 162.718 57.48 162.718 57.94C162.718 58.2533 162.665 58.54 162.558 58.8C162.458 59.06 162.305 59.2867 162.098 59.48C161.891 59.6667 161.631 59.8133 161.318 59.92C161.005 60.0267 160.638 60.08 160.218 60.08ZM160.228 59.22C160.795 59.22 161.208 59.1067 161.468 58.88C161.728 58.6533 161.858 58.3233 161.858 57.89C161.858 57.47 161.718 57.16 161.438 56.96C161.158 56.76 160.751 56.66 160.218 56.66C159.665 56.66 159.251 56.77 158.978 56.99C158.711 57.2033 158.578 57.4967 158.578 57.87C158.578 58.1033 158.618 58.3067 158.698 58.48C158.785 58.6467 158.901 58.7867 159.048 58.9C159.195 59.0067 159.368 59.0867 159.568 59.14C159.768 59.1933 159.988 59.22 160.228 59.22ZM160.198 55.99C160.678 55.99 161.031 55.8867 161.258 55.68C161.485 55.4667 161.598 55.19 161.598 54.85C161.598 54.4633 161.488 54.1833 161.268 54.01C161.055 53.8367 160.698 53.75 160.198 53.75C159.698 53.75 159.328 53.8433 159.088 54.03C158.855 54.2167 158.738 54.4967 158.738 54.87C158.738 55.1767 158.858 55.44 159.098 55.66C159.338 55.88 159.705 55.99 160.198 55.99ZM163.679 61.05C164.046 61.01 164.333 60.8933 164.539 60.7C164.753 60.5133 164.873 60.3133 164.899 60.1H164.879C164.626 60.1 164.453 60.0367 164.359 59.91C164.273 59.7833 164.229 59.6333 164.229 59.46C164.229 59.28 164.273 59.1267 164.359 59C164.453 58.8733 164.626 58.81 164.879 58.81C165.073 58.81 165.223 58.8533 165.329 58.94C165.436 59.02 165.509 59.1367 165.549 59.29C165.596 59.4367 165.619 59.6067 165.619 59.8C165.619 60.0667 165.573 60.3067 165.479 60.52C165.386 60.7333 165.266 60.9167 165.119 61.07C164.979 61.23 164.823 61.3567 164.649 61.45C164.483 61.55 164.323 61.6133 164.169 61.64L163.679 61.05ZM170.341 53H171.411V57.27H172.451V58.07H171.411V60H170.581V58.07H166.791V57.5L170.341 53ZM170.581 57.27V53.95L167.911 57.27H170.581ZM174.727 54.01L173.157 55V54.09L174.957 52.93H175.557V60H174.727V54.01Z" fill="#404040"/>
<path d="M111.79 53H112.86V57.27H113.9V58.07H112.86V60H112.03V58.07H108.24V57.5L111.79 53ZM112.03 57.27V53.95L109.36 57.27H112.03ZM114.841 53.64C115.015 53.46 115.278 53.2933 115.631 53.14C115.991 52.9867 116.435 52.91 116.961 52.91C117.648 52.9233 118.171 53.0867 118.531 53.4C118.891 53.7133 119.071 54.1333 119.071 54.66C119.071 55.0933 118.965 55.4567 118.751 55.75C118.538 56.0367 118.231 56.2433 117.831 56.37C118.311 56.4433 118.685 56.6233 118.951 56.91C119.225 57.1967 119.361 57.58 119.361 58.06C119.361 58.3467 119.308 58.6133 119.201 58.86C119.101 59.1 118.948 59.31 118.741 59.49C118.535 59.67 118.275 59.8133 117.961 59.92C117.648 60.02 117.285 60.0733 116.871 60.08C116.611 60.08 116.368 60.0567 116.141 60.01C115.921 59.97 115.725 59.9167 115.551 59.85C115.378 59.7767 115.228 59.6967 115.101 59.61C114.975 59.5233 114.871 59.44 114.791 59.36V58.3C115.005 58.58 115.291 58.8067 115.651 58.98C116.011 59.1533 116.411 59.2367 116.851 59.23C117.398 59.2233 117.811 59.11 118.091 58.89C118.378 58.6633 118.521 58.3667 118.521 58C118.521 57.6133 118.388 57.3167 118.121 57.11C117.861 56.8967 117.438 56.79 116.851 56.79H116.011V56.11H116.641C117.161 56.11 117.555 56.0067 117.821 55.8C118.095 55.5867 118.231 55.2867 118.231 54.9C118.231 54.52 118.105 54.2367 117.851 54.05C117.605 53.8567 117.255 53.76 116.801 53.76C116.368 53.7667 115.988 53.8467 115.661 54C115.341 54.1533 115.068 54.37 114.841 54.65V53.64ZM120.167 61.05C120.534 61.01 120.82 60.8933 121.027 60.7C121.24 60.5133 121.36 60.3133 121.387 60.1H121.367C121.114 60.1 120.94 60.0367 120.847 59.91C120.76 59.7833 120.717 59.6333 120.717 59.46C120.717 59.28 120.76 59.1267 120.847 59C120.94 58.8733 121.114 58.81 121.367 58.81C121.56 58.81 121.71 58.8533 121.817 58.94C121.924 59.02 121.997 59.1367 122.037 59.29C122.084 59.4367 122.107 59.6067 122.107 59.8C122.107 60.0667 122.06 60.3067 121.967 60.52C121.874 60.7333 121.754 60.9167 121.607 61.07C121.467 61.23 121.31 61.3567 121.137 61.45C120.97 61.55 120.81 61.6133 120.657 61.64L120.167 61.05ZM123.892 60V59.39C124.619 58.77 125.212 58.2433 125.672 57.81C126.139 57.3767 126.505 57 126.772 56.68C127.039 56.36 127.219 56.0767 127.312 55.83C127.412 55.5833 127.462 55.34 127.462 55.1C127.462 54.68 127.335 54.3567 127.082 54.13C126.829 53.8967 126.479 53.78 126.032 53.78C125.619 53.7733 125.252 53.8467 124.932 54C124.612 54.1533 124.339 54.37 124.112 54.65V53.64C124.199 53.5533 124.309 53.4667 124.442 53.38C124.575 53.2867 124.729 53.2067 124.902 53.14C125.075 53.0667 125.272 53.01 125.492 52.97C125.712 52.93 125.949 52.91 126.202 52.91C126.875 52.9233 127.399 53.1067 127.772 53.46C128.152 53.8133 128.342 54.3033 128.342 54.93C128.342 55.23 128.299 55.52 128.212 55.8C128.125 56.0733 127.979 56.3567 127.772 56.65C127.565 56.9433 127.295 57.26 126.962 57.6C126.629 57.9333 126.219 58.3033 125.732 58.71L125.182 59.18H128.542V60H123.892ZM128.965 53H133.565V53.58L130.975 60H130.035L132.555 53.9H128.965V53Z" fill="#404040"/>
<path d="M67.79 53H68.86V57.27H69.9V58.07H68.86V60H68.03V58.07H64.24V57.5L67.79 53ZM68.03 57.27V53.95L65.36 57.27H68.03ZM75.4712 54.7C75.2712 54.42 75.0045 54.19 74.6712 54.01C74.3378 53.83 73.9678 53.75 73.5612 53.77C72.9678 53.7967 72.4978 54.0267 72.1512 54.46C71.8045 54.8867 71.6278 55.5367 71.6212 56.41C71.6212 56.5233 71.6245 56.6333 71.6312 56.74C71.6378 56.8467 71.6478 56.95 71.6612 57.05C71.7678 56.61 71.9978 56.25 72.3512 55.97C72.7112 55.69 73.1612 55.55 73.7012 55.55C74.0412 55.55 74.3478 55.6067 74.6212 55.72C74.9012 55.8267 75.1345 55.9767 75.3212 56.17C75.5145 56.3633 75.6612 56.59 75.7612 56.85C75.8678 57.11 75.9212 57.3933 75.9212 57.7C75.9212 58.0933 75.8545 58.44 75.7212 58.74C75.5878 59.0333 75.4078 59.28 75.1812 59.48C74.9612 59.68 74.7012 59.83 74.4012 59.93C74.1078 60.03 73.8012 60.08 73.4812 60.08C73.0678 60.08 72.6945 60.0067 72.3612 59.86C72.0345 59.7067 71.7545 59.4867 71.5212 59.2C71.2945 58.9067 71.1178 58.5467 70.9912 58.12C70.8712 57.6933 70.8112 57.2067 70.8112 56.66C70.8112 56.0133 70.8778 55.4567 71.0112 54.99C71.1445 54.5233 71.3312 54.14 71.5712 53.84C71.8112 53.5333 72.0978 53.3067 72.4312 53.16C72.7712 53.0133 73.1412 52.9333 73.5412 52.92C73.7878 52.9133 74.0112 52.9333 74.2112 52.98C74.4178 53.0267 74.6012 53.0867 74.7612 53.16C74.9278 53.2267 75.0678 53.3033 75.1812 53.39C75.3012 53.4767 75.3978 53.56 75.4712 53.64V54.7ZM73.5112 56.32C73.0045 56.32 72.5978 56.4667 72.2912 56.76C71.9845 57.0467 71.8145 57.43 71.7812 57.91C71.9012 58.31 72.0978 58.6333 72.3712 58.88C72.6445 59.12 73.0112 59.24 73.4712 59.24C73.9512 59.24 74.3345 59.1067 74.6212 58.84C74.9145 58.5667 75.0612 58.2 75.0612 57.74C75.0612 57.3 74.9245 56.9533 74.6512 56.7C74.3778 56.4467 73.9978 56.32 73.5112 56.32ZM76.7723 61.05C77.139 61.01 77.4257 60.8933 77.6323 60.7C77.8457 60.5133 77.9657 60.3133 77.9923 60.1H77.9723C77.719 60.1 77.5457 60.0367 77.4523 59.91C77.3657 59.7833 77.3223 59.6333 77.3223 59.46C77.3223 59.28 77.3657 59.1267 77.4523 59C77.5457 58.8733 77.719 58.81 77.9723 58.81C78.1657 58.81 78.3157 58.8533 78.4223 58.94C78.529 59.02 78.6023 59.1367 78.6423 59.29C78.689 59.4367 78.7123 59.6067 78.7123 59.8C78.7123 60.0667 78.6657 60.3067 78.5723 60.52C78.479 60.7333 78.359 60.9167 78.2123 61.07C78.0723 61.23 77.9157 61.3567 77.7423 61.45C77.5757 61.55 77.4157 61.6133 77.2623 61.64L76.7723 61.05ZM80.2845 58.37C80.4979 58.6367 80.7845 58.85 81.1445 59.01C81.5045 59.1633 81.8845 59.2367 82.2845 59.23C82.8112 59.23 83.2045 59.1 83.4645 58.84C83.7312 58.5733 83.8645 58.22 83.8645 57.78C83.8645 57.3267 83.7012 56.9867 83.3745 56.76C83.0479 56.5333 82.6112 56.42 82.0645 56.42C81.7579 56.42 81.4712 56.4433 81.2045 56.49C80.9445 56.53 80.7245 56.58 80.5445 56.64L80.7845 53H84.4045V53.82H81.5145L81.3745 55.77C81.4279 55.7567 81.4945 55.7467 81.5745 55.74C81.6612 55.7267 81.7479 55.7167 81.8345 55.71C81.9279 55.6967 82.0179 55.6867 82.1045 55.68C82.1979 55.6733 82.2845 55.67 82.3645 55.67C83.1245 55.67 83.7112 55.86 84.1245 56.24C84.5379 56.62 84.7445 57.1333 84.7445 57.78C84.7445 58.1533 84.6845 58.4833 84.5645 58.77C84.4512 59.05 84.2845 59.29 84.0645 59.49C83.8512 59.6833 83.5945 59.83 83.2945 59.93C82.9945 60.03 82.6645 60.08 82.3045 60.08C82.0579 60.08 81.8279 60.0567 81.6145 60.01C81.4012 59.97 81.2079 59.9167 81.0345 59.85C80.8679 59.7833 80.7212 59.71 80.5945 59.63C80.4679 59.55 80.3645 59.4733 80.2845 59.4V58.37ZM87.2149 54.01L85.6449 55V54.09L87.4449 52.93H88.0449V60H87.2149V54.01Z" fill="#404040"/>
<path d="M12.51 60V59.14C13.2367 58.52 13.82 58.0033 14.26 57.59C14.7 57.17 15.0367 56.8133 15.27 56.52C15.51 56.2267 15.6667 55.98 15.74 55.78C15.82 55.58 15.86 55.39 15.86 55.21C15.86 54.8633 15.7533 54.5967 15.54 54.41C15.3267 54.2233 15.03 54.13 14.65 54.13C14.25 54.1233 13.8867 54.19 13.56 54.33C13.24 54.47 12.9633 54.6733 12.73 54.94V53.61C12.8167 53.5233 12.9267 53.44 13.06 53.36C13.2 53.2733 13.36 53.1967 13.54 53.13C13.72 53.0633 13.9167 53.01 14.13 52.97C14.35 52.93 14.5833 52.91 14.83 52.91C15.57 52.9167 16.13 53.1033 16.51 53.47C16.8967 53.8367 17.09 54.33 17.09 54.95C17.09 55.2367 17.0467 55.5133 16.96 55.78C16.88 56.0467 16.7467 56.32 16.56 56.6C16.3733 56.88 16.1267 57.1733 15.82 57.48C15.52 57.7867 15.15 58.1267 14.71 58.5L14.3 58.85H17.28V60H12.51ZM18.2694 56.51C18.2694 55.8633 18.3394 55.3133 18.4794 54.86C18.6194 54.4 18.8094 54.03 19.0494 53.75C19.296 53.4633 19.5794 53.2533 19.8994 53.12C20.226 52.9867 20.5727 52.92 20.9394 52.92C21.3527 52.92 21.726 52.9933 22.0594 53.14C22.3927 53.2867 22.676 53.51 22.9094 53.81C23.1494 54.1033 23.3327 54.4767 23.4594 54.93C23.586 55.3767 23.6494 55.9033 23.6494 56.51C23.6494 57.1633 23.576 57.72 23.4294 58.18C23.2894 58.6333 23.096 59.0033 22.8494 59.29C22.6094 59.57 22.326 59.7767 21.9994 59.91C21.6794 60.0367 21.336 60.1 20.9694 60.1C20.556 60.1 20.1827 60.0267 19.8494 59.88C19.516 59.7333 19.2327 59.5133 18.9994 59.22C18.766 58.92 18.586 58.5467 18.4594 58.1C18.3327 57.6467 18.2694 57.1167 18.2694 56.51ZM19.4694 56.51C19.4694 56.9567 19.5027 57.3333 19.5694 57.64C19.6427 57.9467 19.7427 58.1967 19.8694 58.39C20.0027 58.5767 20.1594 58.7133 20.3394 58.8C20.526 58.8867 20.736 58.93 20.9694 58.93C21.2094 58.93 21.4194 58.89 21.5994 58.81C21.786 58.7233 21.9427 58.5867 22.0694 58.4C22.196 58.2067 22.2894 57.9567 22.3494 57.65C22.416 57.3367 22.4494 56.9567 22.4494 56.51C22.4494 56.0633 22.4127 55.69 22.3394 55.39C22.2727 55.0833 22.1727 54.8367 22.0394 54.65C21.9127 54.4567 21.756 54.3167 21.5694 54.23C21.3827 54.1433 21.176 54.0967 20.9494 54.09C20.7094 54.09 20.496 54.1333 20.3094 54.22C20.1294 54.3 19.976 54.4367 19.8494 54.63C19.7227 54.8167 19.626 55.0667 19.5594 55.38C19.4994 55.6867 19.4694 56.0633 19.4694 56.51ZM26.0905 54.39L24.5905 55.32V54.09L26.3905 52.93H27.2605V60H26.0905V54.39ZM31.3014 60.09C30.8947 60.09 30.5247 60.0433 30.1914 59.95C29.8647 59.85 29.5847 59.71 29.3514 59.53C29.1247 59.35 28.9481 59.13 28.8214 58.87C28.7014 58.61 28.6414 58.3167 28.6414 57.99C28.6414 57.8167 28.6614 57.6433 28.7014 57.47C28.7414 57.29 28.8081 57.1233 28.9014 56.97C28.9947 56.8167 29.1214 56.68 29.2814 56.56C29.4481 56.4333 29.6514 56.3333 29.8914 56.26C29.7581 56.2267 29.6281 56.17 29.5014 56.09C29.3747 56.01 29.2614 55.9067 29.1614 55.78C29.0681 55.6533 28.9914 55.5067 28.9314 55.34C28.8781 55.1667 28.8514 54.9733 28.8514 54.76C28.8514 54.1867 29.0547 53.7333 29.4614 53.4C29.8747 53.06 30.4847 52.89 31.2914 52.89C32.0914 52.89 32.6847 53.0533 33.0714 53.38C33.4581 53.7067 33.6514 54.1433 33.6514 54.69C33.6514 55.0567 33.5647 55.38 33.3914 55.66C33.2247 55.94 32.9714 56.1367 32.6314 56.25C33.0714 56.35 33.3981 56.5467 33.6114 56.84C33.8314 57.1267 33.9414 57.5 33.9414 57.96C33.9414 58.2733 33.8847 58.56 33.7714 58.82C33.6581 59.08 33.4914 59.3067 33.2714 59.5C33.0514 59.6867 32.7747 59.8333 32.4414 59.94C32.1147 60.04 31.7347 60.09 31.3014 60.09ZM31.3114 58.9C31.8047 58.9 32.1647 58.8133 32.3914 58.64C32.6247 58.46 32.7414 58.19 32.7414 57.83C32.7414 57.4567 32.6147 57.1933 32.3614 57.04C32.1147 56.88 31.7614 56.8 31.3014 56.8C30.3414 56.8 29.8614 57.1367 29.8614 57.81C29.8614 58.0033 29.8947 58.17 29.9614 58.31C30.0347 58.45 30.1347 58.5633 30.2614 58.65C30.3881 58.7367 30.5414 58.8 30.7214 58.84C30.9014 58.88 31.0981 58.9 31.3114 58.9ZM31.2814 55.85C31.7081 55.85 32.0147 55.77 32.2014 55.61C32.3881 55.4433 32.4814 55.22 32.4814 54.94C32.4814 54.6467 32.3914 54.43 32.2114 54.29C32.0314 54.15 31.7214 54.08 31.2814 54.08C30.8414 54.08 30.5214 54.1567 30.3214 54.31C30.1214 54.4567 30.0214 54.6733 30.0214 54.96C30.0214 55.2 30.1214 55.41 30.3214 55.59C30.5214 55.7633 30.8414 55.85 31.2814 55.85Z" fill="#404040"/>
<path d="M17.89 21.15H14.16V27H12.91V20H19.14V27H17.89V21.15ZM24.8869 26.5C24.8269 26.5733 24.7402 26.6467 24.6269 26.72C24.5135 26.7867 24.3769 26.85 24.2169 26.91C24.0569 26.97 23.8769 27.0167 23.6769 27.05C23.4835 27.0833 23.2735 27.1 23.0469 27.1C22.2135 27.1067 21.5669 26.89 21.1069 26.45C20.6469 26.0033 20.4169 25.3467 20.4169 24.48C20.4169 24.0667 20.4769 23.7 20.5969 23.38C20.7235 23.0533 20.9002 22.78 21.1269 22.56C21.3535 22.34 21.6202 22.1733 21.9269 22.06C22.2402 21.9467 22.5869 21.89 22.9669 21.89C23.6935 21.8967 24.2602 22.1133 24.6669 22.54C25.0802 22.9667 25.2869 23.5733 25.2869 24.36V24.84H21.5769C21.6702 25.6733 22.1735 26.09 23.0869 26.09C23.5469 26.09 23.9269 26.0133 24.2269 25.86C24.5335 25.7067 24.7535 25.52 24.8869 25.3V26.5ZM22.9369 22.91C22.5569 22.91 22.2535 23.0033 22.0269 23.19C21.8002 23.3767 21.6569 23.65 21.5969 24.01H24.1169C24.1035 23.67 23.9935 23.4033 23.7869 23.21C23.5802 23.01 23.2969 22.91 22.9369 22.91ZM26.3623 22H27.4623V23.04C27.509 22.9 27.5757 22.7633 27.6623 22.63C27.7557 22.49 27.8723 22.3667 28.0123 22.26C28.159 22.1533 28.3323 22.0667 28.5323 22C28.7323 21.9333 28.9657 21.9 29.2323 21.9C29.5523 21.9 29.8423 21.95 30.1023 22.05C30.369 22.1433 30.5957 22.29 30.7823 22.49C30.9757 22.69 31.1257 22.9467 31.2323 23.26C31.339 23.5733 31.3923 23.95 31.3923 24.39C31.3923 24.8833 31.339 25.3033 31.2323 25.65C31.1257 25.99 30.9723 26.27 30.7723 26.49C30.579 26.7033 30.3423 26.86 30.0623 26.96C29.7823 27.06 29.4723 27.11 29.1323 27.11C28.7323 27.11 28.3957 27.0233 28.1223 26.85C27.8557 26.6767 27.659 26.4733 27.5323 26.24V28.93H26.3623V22ZM27.5323 24.67C27.5323 25.1233 27.6523 25.4733 27.8923 25.72C28.1323 25.96 28.459 26.08 28.8723 26.08C29.3457 26.08 29.689 25.9567 29.9023 25.71C30.1157 25.4567 30.2223 25.0333 30.2223 24.44C30.2223 23.8933 30.099 23.5067 29.8523 23.28C29.6123 23.0533 29.2923 22.94 28.8923 22.94C28.4323 22.94 28.0923 23.06 27.8723 23.3C27.659 23.54 27.5457 23.87 27.5323 24.29V24.67ZM32.4661 22H33.6261V25.39L36.0261 22H37.1361V27H35.9761V23.57L33.5761 27H32.4661V22ZM40.7896 27.11C40.3963 27.11 40.0429 27.0567 39.7296 26.95C39.4163 26.8367 39.1463 26.67 38.9196 26.45C38.6929 26.23 38.5196 25.9567 38.3996 25.63C38.2796 25.3033 38.2196 24.92 38.2196 24.48C38.2196 24.0467 38.2829 23.67 38.4096 23.35C38.5363 23.0233 38.7129 22.7533 38.9396 22.54C39.1663 22.32 39.4396 22.1567 39.7596 22.05C40.0796 21.9433 40.4363 21.89 40.8296 21.89C41.2163 21.89 41.5663 21.9467 41.8796 22.06C42.1996 22.1733 42.4696 22.34 42.6896 22.56C42.9163 22.78 43.0896 23.0533 43.2096 23.38C43.3296 23.7067 43.3896 24.0867 43.3896 24.52C43.3896 24.9533 43.3263 25.3333 43.1996 25.66C43.0729 25.98 42.8963 26.2467 42.6696 26.46C42.4429 26.6733 42.1696 26.8367 41.8496 26.95C41.5296 27.0567 41.1763 27.11 40.7896 27.11ZM39.4096 24.51C39.4096 25.0633 39.5329 25.4667 39.7796 25.72C40.0263 25.9667 40.3696 26.09 40.8096 26.09C41.2563 26.09 41.5996 25.9633 41.8396 25.71C42.0796 25.45 42.1996 25.0533 42.1996 24.52V24.49C42.1996 23.9367 42.0729 23.5367 41.8196 23.29C41.5729 23.0367 41.2296 22.91 40.7896 22.91C40.3429 22.9167 39.9996 23.05 39.7596 23.31C39.5263 23.5633 39.4096 23.9533 39.4096 24.48V24.51ZM44.3902 25.94C44.4568 25.76 44.5168 25.5633 44.5702 25.35C44.6302 25.13 44.6802 24.8833 44.7202 24.61C44.7602 24.3367 44.7902 24.0333 44.8102 23.7C44.8302 23.36 44.8402 22.9833 44.8402 22.57V22H48.6802V25.94H49.4402V28.3H48.3802V27H44.8702V28.3H43.8102V25.94H44.3902ZM45.9302 23.15C45.9168 23.73 45.8802 24.2433 45.8202 24.69C45.7602 25.13 45.6602 25.5467 45.5202 25.94H47.5102V23.03H45.9302V23.15Z" fill="#4AA29A"/>
<path d="M70.07 21.15H67.71V27H66.46V21.15H64.14V20H70.07V21.15ZM70.7909 20.52C71.0043 20.3733 71.3176 20.2333 71.7309 20.1C72.1509 19.9667 72.6509 19.8967 73.2309 19.89C73.7976 19.89 74.3143 19.9733 74.7809 20.14C75.2476 20.3 75.6476 20.5367 75.9809 20.85C76.3143 21.1567 76.5743 21.5367 76.7609 21.99C76.9476 22.4367 77.0409 22.9433 77.0409 23.51C77.0409 24.0367 76.9543 24.52 76.7809 24.96C76.6076 25.4 76.3576 25.78 76.0309 26.1C75.7043 26.42 75.3043 26.67 74.8309 26.85C74.3643 27.0233 73.8343 27.11 73.2409 27.11C72.9409 27.11 72.6576 27.0833 72.3909 27.03C72.1243 26.9767 71.8809 26.91 71.6609 26.83C71.4476 26.7433 71.2609 26.65 71.1009 26.55C70.9476 26.4433 70.8276 26.3367 70.7409 26.23V24.69C70.8409 24.87 70.9709 25.0367 71.1309 25.19C71.2909 25.3433 71.4776 25.4767 71.6909 25.59C71.9043 25.7033 72.1409 25.7933 72.4009 25.86C72.6676 25.9267 72.9576 25.96 73.2709 25.96C73.9976 25.9533 74.5676 25.7733 74.9809 25.42C75.4009 25.06 75.6476 24.57 75.7209 23.95H72.2909V22.86H75.7009C75.6543 22.6 75.5709 22.36 75.4509 22.14C75.3309 21.92 75.1676 21.73 74.9609 21.57C74.7543 21.4033 74.5076 21.2733 74.2209 21.18C73.9343 21.0867 73.6043 21.04 73.2309 21.04C72.9509 21.04 72.6876 21.0767 72.4409 21.15C72.1943 21.2167 71.9676 21.3067 71.7609 21.42C71.5543 21.5333 71.3676 21.6633 71.2009 21.81C71.0343 21.9567 70.8976 22.1067 70.7909 22.26V20.52ZM84.1275 26.23C84.0408 26.3367 83.9175 26.4433 83.7575 26.55C83.6042 26.65 83.4208 26.7433 83.2075 26.83C82.9942 26.91 82.7542 26.9767 82.4875 27.03C82.2275 27.0833 81.9475 27.11 81.6475 27.11C81.0742 27.11 80.5542 27.0267 80.0875 26.86C79.6208 26.6933 79.2208 26.4567 78.8875 26.15C78.5608 25.8367 78.3042 25.4567 78.1175 25.01C77.9375 24.5633 77.8475 24.0567 77.8475 23.49C77.8475 22.9633 77.9375 22.48 78.1175 22.04C78.2975 21.6 78.5542 21.22 78.8875 20.9C79.2208 20.58 79.6208 20.3333 80.0875 20.16C80.5608 19.98 81.0875 19.89 81.6675 19.89C82.2208 19.89 82.6942 19.96 83.0875 20.1C83.4808 20.2333 83.7808 20.3733 83.9875 20.52V22.26C83.8808 22.1067 83.7475 21.9567 83.5875 21.81C83.4342 21.6633 83.2575 21.5333 83.0575 21.42C82.8642 21.3067 82.6475 21.2167 82.4075 21.15C82.1742 21.0767 81.9275 21.04 81.6675 21.04C81.2875 21.04 80.9442 21.1 80.6375 21.22C80.3308 21.34 80.0708 21.5067 79.8575 21.72C79.6442 21.9333 79.4808 22.1933 79.3675 22.5C79.2542 22.8 79.1975 23.1333 79.1975 23.5C79.1975 23.84 79.2475 24.16 79.3475 24.46C79.4542 24.7533 79.6075 25.01 79.8075 25.23C80.0142 25.45 80.2708 25.6267 80.5775 25.76C80.8842 25.8867 81.2375 25.9533 81.6375 25.96C81.9442 25.96 82.2242 25.9267 82.4775 25.86C82.7375 25.7933 82.9708 25.7033 83.1775 25.59C83.3908 25.4767 83.5775 25.3433 83.7375 25.19C83.8975 25.0367 84.0275 24.87 84.1275 24.69V26.23Z" fill="#4AA29A"/>
<path d="M113.66 21.15H110.16V27H108.91V20H113.66V21.15ZM114.459 20.52C114.672 20.3733 114.986 20.2333 115.399 20.1C115.819 19.9667 116.319 19.8967 116.899 19.89C117.466 19.89 117.982 19.9733 118.449 20.14C118.916 20.3 119.316 20.5367 119.649 20.85C119.982 21.1567 120.242 21.5367 120.429 21.99C120.616 22.4367 120.709 22.9433 120.709 23.51C120.709 24.0367 120.622 24.52 120.449 24.96C120.276 25.4 120.026 25.78 119.699 26.1C119.372 26.42 118.972 26.67 118.499 26.85C118.032 27.0233 117.502 27.11 116.909 27.11C116.609 27.11 116.326 27.0833 116.059 27.03C115.792 26.9767 115.549 26.91 115.329 26.83C115.116 26.7433 114.929 26.65 114.769 26.55C114.616 26.4433 114.496 26.3367 114.409 26.23V24.69C114.509 24.87 114.639 25.0367 114.799 25.19C114.959 25.3433 115.146 25.4767 115.359 25.59C115.572 25.7033 115.809 25.7933 116.069 25.86C116.336 25.9267 116.626 25.96 116.939 25.96C117.666 25.9533 118.236 25.7733 118.649 25.42C119.069 25.06 119.316 24.57 119.389 23.95H115.959V22.86H119.369C119.322 22.6 119.239 22.36 119.119 22.14C118.999 21.92 118.836 21.73 118.629 21.57C118.422 21.4033 118.176 21.2733 117.889 21.18C117.602 21.0867 117.272 21.04 116.899 21.04C116.619 21.04 116.356 21.0767 116.109 21.15C115.862 21.2167 115.636 21.3067 115.429 21.42C115.222 21.5333 115.036 21.6633 114.869 21.81C114.702 21.9567 114.566 22.1067 114.459 22.26V20.52ZM127.796 26.23C127.709 26.3367 127.586 26.4433 127.426 26.55C127.272 26.65 127.089 26.7433 126.876 26.83C126.662 26.91 126.422 26.9767 126.156 27.03C125.896 27.0833 125.616 27.11 125.316 27.11C124.742 27.11 124.222 27.0267 123.756 26.86C123.289 26.6933 122.889 26.4567 122.556 26.15C122.229 25.8367 121.972 25.4567 121.786 25.01C121.606 24.5633 121.516 24.0567 121.516 23.49C121.516 22.9633 121.606 22.48 121.786 22.04C121.966 21.6 122.222 21.22 122.556 20.9C122.889 20.58 123.289 20.3333 123.756 20.16C124.229 19.98 124.756 19.89 125.336 19.89C125.889 19.89 126.362 19.96 126.756 20.1C127.149 20.2333 127.449 20.3733 127.656 20.52V22.26C127.549 22.1067 127.416 21.9567 127.256 21.81C127.102 21.6633 126.926 21.5333 126.726 21.42C126.532 21.3067 126.316 21.2167 126.076 21.15C125.842 21.0767 125.596 21.04 125.336 21.04C124.956 21.04 124.612 21.1 124.306 21.22C123.999 21.34 123.739 21.5067 123.526 21.72C123.312 21.9333 123.149 22.1933 123.036 22.5C122.922 22.8 122.866 23.1333 122.866 23.5C122.866 23.84 122.916 24.16 123.016 24.46C123.122 24.7533 123.276 25.01 123.476 25.23C123.682 25.45 123.939 25.6267 124.246 25.76C124.552 25.8867 124.906 25.9533 125.306 25.96C125.612 25.96 125.892 25.9267 126.146 25.86C126.406 25.7933 126.639 25.7033 126.846 25.59C127.059 25.4767 127.246 25.3433 127.406 25.19C127.566 25.0367 127.696 24.87 127.796 24.69V26.23Z" fill="#4AA29A"/>
<path d="M159.211 27H157.881L157.211 25.34H154.001L153.341 27H152.071L154.911 20H156.331L159.211 27ZM156.751 24.19L155.601 21.32L154.451 24.19H156.751ZM160.032 20.52C160.245 20.3733 160.558 20.2333 160.972 20.1C161.392 19.9667 161.892 19.8967 162.472 19.89C163.038 19.89 163.555 19.9733 164.022 20.14C164.488 20.3 164.888 20.5367 165.222 20.85C165.555 21.1567 165.815 21.5367 166.002 21.99C166.188 22.4367 166.282 22.9433 166.282 23.51C166.282 24.0367 166.195 24.52 166.022 24.96C165.848 25.4 165.598 25.78 165.272 26.1C164.945 26.42 164.545 26.67 164.072 26.85C163.605 27.0233 163.075 27.11 162.482 27.11C162.182 27.11 161.898 27.0833 161.632 27.03C161.365 26.9767 161.122 26.91 160.902 26.83C160.688 26.7433 160.502 26.65 160.342 26.55C160.188 26.4433 160.068 26.3367 159.982 26.23V24.69C160.082 24.87 160.212 25.0367 160.372 25.19C160.532 25.3433 160.718 25.4767 160.932 25.59C161.145 25.7033 161.382 25.7933 161.642 25.86C161.908 25.9267 162.198 25.96 162.512 25.96C163.238 25.9533 163.808 25.7733 164.222 25.42C164.642 25.06 164.888 24.57 164.962 23.95H161.532V22.86H164.942C164.895 22.6 164.812 22.36 164.692 22.14C164.572 21.92 164.408 21.73 164.202 21.57C163.995 21.4033 163.748 21.2733 163.462 21.18C163.175 21.0867 162.845 21.04 162.472 21.04C162.192 21.04 161.928 21.0767 161.682 21.15C161.435 21.2167 161.208 21.3067 161.002 21.42C160.795 21.5333 160.608 21.6633 160.442 21.81C160.275 21.9567 160.138 22.1067 160.032 22.26V20.52ZM173.368 26.23C173.282 26.3367 173.158 26.4433 172.998 26.55C172.845 26.65 172.662 26.7433 172.448 26.83C172.235 26.91 171.995 26.9767 171.728 27.03C171.468 27.0833 171.188 27.11 170.888 27.11C170.315 27.11 169.795 27.0267 169.328 26.86C168.862 26.6933 168.462 26.4567 168.128 26.15C167.802 25.8367 167.545 25.4567 167.358 25.01C167.178 24.5633 167.088 24.0567 167.088 23.49C167.088 22.9633 167.178 22.48 167.358 22.04C167.538 21.6 167.795 21.22 168.128 20.9C168.462 20.58 168.862 20.3333 169.328 20.16C169.802 19.98 170.328 19.89 170.908 19.89C171.462 19.89 171.935 19.96 172.328 20.1C172.722 20.2333 173.022 20.3733 173.228 20.52V22.26C173.122 22.1067 172.988 21.9567 172.828 21.81C172.675 21.6633 172.498 21.5333 172.298 21.42C172.105 21.3067 171.888 21.2167 171.648 21.15C171.415 21.0767 171.168 21.04 170.908 21.04C170.528 21.04 170.185 21.1 169.878 21.22C169.572 21.34 169.312 21.5067 169.098 21.72C168.885 21.9333 168.722 22.1933 168.608 22.5C168.495 22.8 168.438 23.1333 168.438 23.5C168.438 23.84 168.488 24.16 168.588 24.46C168.695 24.7533 168.848 25.01 169.048 25.23C169.255 25.45 169.512 25.6267 169.818 25.76C170.125 25.8867 170.478 25.9533 170.878 25.96C171.185 25.96 171.465 25.9267 171.718 25.86C171.978 25.7933 172.212 25.7033 172.418 25.59C172.632 25.4767 172.818 25.3433 172.978 25.19C173.138 25.0367 173.268 24.87 173.368 24.69V26.23Z" fill="#4AA29A"/>
<path d="M196.911 27V20H199.951C201.524 20 202.311 20.58 202.311 21.74C202.311 22.14 202.228 22.4733 202.061 22.74C201.894 23.0067 201.631 23.21 201.271 23.35C201.704 23.4233 202.021 23.5967 202.221 23.87C202.421 24.1367 202.521 24.5 202.521 24.96C202.521 25.32 202.458 25.63 202.331 25.89C202.204 26.15 202.021 26.3633 201.781 26.53C201.548 26.69 201.261 26.81 200.921 26.89C200.588 26.9633 200.208 27 199.781 27H196.911ZM199.861 25.85C200.341 25.85 200.694 25.7733 200.921 25.62C201.148 25.46 201.261 25.21 201.261 24.87C201.261 24.53 201.141 24.29 200.901 24.15C200.661 24.01 200.321 23.94 199.881 23.94H198.161V25.85H199.861ZM199.771 22.96C200.171 22.96 200.484 22.8767 200.711 22.71C200.944 22.5433 201.061 22.31 201.061 22.01C201.061 21.73 200.961 21.5167 200.761 21.37C200.568 21.2233 200.248 21.15 199.801 21.15H198.161V22.96H199.771ZM203.476 20.52C203.689 20.3733 204.002 20.2333 204.416 20.1C204.836 19.9667 205.336 19.8967 205.916 19.89C206.482 19.89 206.999 19.9733 207.466 20.14C207.932 20.3 208.332 20.5367 208.666 20.85C208.999 21.1567 209.259 21.5367 209.446 21.99C209.632 22.4367 209.726 22.9433 209.726 23.51C209.726 24.0367 209.639 24.52 209.466 24.96C209.292 25.4 209.042 25.78 208.716 26.1C208.389 26.42 207.989 26.67 207.516 26.85C207.049 27.0233 206.519 27.11 205.926 27.11C205.626 27.11 205.342 27.0833 205.076 27.03C204.809 26.9767 204.566 26.91 204.346 26.83C204.132 26.7433 203.946 26.65 203.786 26.55C203.632 26.4433 203.512 26.3367 203.426 26.23V24.69C203.526 24.87 203.656 25.0367 203.816 25.19C203.976 25.3433 204.162 25.4767 204.376 25.59C204.589 25.7033 204.826 25.7933 205.086 25.86C205.352 25.9267 205.642 25.96 205.956 25.96C206.682 25.9533 207.252 25.7733 207.666 25.42C208.086 25.06 208.332 24.57 208.406 23.95H204.976V22.86H208.386C208.339 22.6 208.256 22.36 208.136 22.14C208.016 21.92 207.852 21.73 207.646 21.57C207.439 21.4033 207.192 21.2733 206.906 21.18C206.619 21.0867 206.289 21.04 205.916 21.04C205.636 21.04 205.372 21.0767 205.126 21.15C204.879 21.2167 204.652 21.3067 204.446 21.42C204.239 21.5333 204.052 21.6633 203.886 21.81C203.719 21.9567 203.582 22.1067 203.476 22.26V20.52ZM216.812 26.23C216.726 26.3367 216.602 26.4433 216.442 26.55C216.289 26.65 216.106 26.7433 215.892 26.83C215.679 26.91 215.439 26.9767 215.172 27.03C214.912 27.0833 214.632 27.11 214.332 27.11C213.759 27.11 213.239 27.0267 212.772 26.86C212.306 26.6933 211.906 26.4567 211.572 26.15C211.246 25.8367 210.989 25.4567 210.802 25.01C210.622 24.5633 210.532 24.0567 210.532 23.49C210.532 22.9633 210.622 22.48 210.802 22.04C210.982 21.6 211.239 21.22 211.572 20.9C211.906 20.58 212.306 20.3333 212.772 20.16C213.246 19.98 213.772 19.89 214.352 19.89C214.906 19.89 215.379 19.96 215.772 20.1C216.166 20.2333 216.466 20.3733 216.672 20.52V22.26C216.566 22.1067 216.432 21.9567 216.272 21.81C216.119 21.6633 215.942 21.5333 215.742 21.42C215.549 21.3067 215.332 21.2167 215.092 21.15C214.859 21.0767 214.612 21.04 214.352 21.04C213.972 21.04 213.629 21.1 213.322 21.22C213.016 21.34 212.756 21.5067 212.542 21.72C212.329 21.9333 212.166 22.1933 212.052 22.5C211.939 22.8 211.882 23.1333 211.882 23.5C211.882 23.84 211.932 24.16 212.032 24.46C212.139 24.7533 212.292 25.01 212.492 25.23C212.699 25.45 212.956 25.6267 213.262 25.76C213.569 25.8867 213.922 25.9533 214.322 25.96C214.629 25.96 214.909 25.9267 215.162 25.86C215.422 25.7933 215.656 25.7033 215.862 25.59C216.076 25.4767 216.262 25.3433 216.422 25.19C216.582 25.0367 216.712 24.87 216.812 24.69V26.23Z" fill="#4AA29A"/>
<path d="M246.691 26.23C246.604 26.3367 246.481 26.4433 246.321 26.55C246.168 26.65 245.984 26.7433 245.771 26.83C245.558 26.91 245.318 26.9767 245.051 27.03C244.791 27.0833 244.511 27.11 244.211 27.11C243.638 27.11 243.118 27.0267 242.651 26.86C242.184 26.6933 241.784 26.4567 241.451 26.15C241.124 25.8367 240.868 25.4567 240.681 25.01C240.501 24.5633 240.411 24.0567 240.411 23.49C240.411 22.9633 240.501 22.48 240.681 22.04C240.861 21.6 241.118 21.22 241.451 20.9C241.784 20.58 242.184 20.3333 242.651 20.16C243.124 19.98 243.651 19.89 244.231 19.89C244.784 19.89 245.258 19.96 245.651 20.1C246.044 20.2333 246.344 20.3733 246.551 20.52V22.26C246.444 22.1067 246.311 21.9567 246.151 21.81C245.998 21.6633 245.821 21.5333 245.621 21.42C245.428 21.3067 245.211 21.2167 244.971 21.15C244.738 21.0767 244.491 21.04 244.231 21.04C243.851 21.04 243.508 21.1 243.201 21.22C242.894 21.34 242.634 21.5067 242.421 21.72C242.208 21.9333 242.044 22.1933 241.931 22.5C241.818 22.8 241.761 23.1333 241.761 23.5C241.761 23.84 241.811 24.16 241.911 24.46C242.018 24.7533 242.171 25.01 242.371 25.23C242.578 25.45 242.834 25.6267 243.141 25.76C243.448 25.8867 243.801 25.9533 244.201 25.96C244.508 25.96 244.788 25.9267 245.041 25.86C245.301 25.7933 245.534 25.7033 245.741 25.59C245.954 25.4767 246.141 25.3433 246.301 25.19C246.461 25.0367 246.591 24.87 246.691 24.69V26.23ZM247.476 20.52C247.689 20.3733 248.002 20.2333 248.416 20.1C248.836 19.9667 249.336 19.8967 249.916 19.89C250.482 19.89 250.999 19.9733 251.466 20.14C251.932 20.3 252.332 20.5367 252.666 20.85C252.999 21.1567 253.259 21.5367 253.446 21.99C253.632 22.4367 253.726 22.9433 253.726 23.51C253.726 24.0367 253.639 24.52 253.466 24.96C253.292 25.4 253.042 25.78 252.716 26.1C252.389 26.42 251.989 26.67 251.516 26.85C251.049 27.0233 250.519 27.11 249.926 27.11C249.626 27.11 249.342 27.0833 249.076 27.03C248.809 26.9767 248.566 26.91 248.346 26.83C248.132 26.7433 247.946 26.65 247.786 26.55C247.632 26.4433 247.512 26.3367 247.426 26.23V24.69C247.526 24.87 247.656 25.0367 247.816 25.19C247.976 25.3433 248.162 25.4767 248.376 25.59C248.589 25.7033 248.826 25.7933 249.086 25.86C249.352 25.9267 249.642 25.96 249.956 25.96C250.682 25.9533 251.252 25.7733 251.666 25.42C252.086 25.06 252.332 24.57 252.406 23.95H248.976V22.86H252.386C252.339 22.6 252.256 22.36 252.136 22.14C252.016 21.92 251.852 21.73 251.646 21.57C251.439 21.4033 251.192 21.2733 250.906 21.18C250.619 21.0867 250.289 21.04 249.916 21.04C249.636 21.04 249.372 21.0767 249.126 21.15C248.879 21.2167 248.652 21.3067 248.446 21.42C248.239 21.5333 248.052 21.6633 247.886 21.81C247.719 21.9567 247.582 22.1067 247.476 22.26V20.52ZM260.812 26.23C260.726 26.3367 260.602 26.4433 260.442 26.55C260.289 26.65 260.106 26.7433 259.892 26.83C259.679 26.91 259.439 26.9767 259.172 27.03C258.912 27.0833 258.632 27.11 258.332 27.11C257.759 27.11 257.239 27.0267 256.772 26.86C256.306 26.6933 255.906 26.4567 255.572 26.15C255.246 25.8367 254.989 25.4567 254.802 25.01C254.622 24.5633 254.532 24.0567 254.532 23.49C254.532 22.9633 254.622 22.48 254.802 22.04C254.982 21.6 255.239 21.22 255.572 20.9C255.906 20.58 256.306 20.3333 256.772 20.16C257.246 19.98 257.772 19.89 258.352 19.89C258.906 19.89 259.379 19.96 259.772 20.1C260.166 20.2333 260.466 20.3733 260.672 20.52V22.26C260.566 22.1067 260.432 21.9567 260.272 21.81C260.119 21.6633 259.942 21.5333 259.742 21.42C259.549 21.3067 259.332 21.2167 259.092 21.15C258.859 21.0767 258.612 21.04 258.352 21.04C257.972 21.04 257.629 21.1 257.322 21.22C257.016 21.34 256.756 21.5067 256.542 21.72C256.329 21.9333 256.166 22.1933 256.052 22.5C255.939 22.8 255.882 23.1333 255.882 23.5C255.882 23.84 255.932 24.16 256.032 24.46C256.139 24.7533 256.292 25.01 256.492 25.23C256.699 25.45 256.956 25.6267 257.262 25.76C257.569 25.8867 257.922 25.9533 258.322 25.96C258.629 25.96 258.909 25.9267 259.162 25.86C259.422 25.7933 259.656 25.7033 259.862 25.59C260.076 25.4767 260.262 25.3433 260.422 25.19C260.582 25.0367 260.712 24.87 260.812 24.69V26.23Z" fill="#4AA29A"/>
</svg>
