<svg width="540" height="159" viewBox="0 0 540 159" fill="none" xmlns="http://www.w3.org/2000/svg">
<rect x="1" y="1" width="538" height="157" rx="9" fill="white" stroke="#4AA29A" stroke-width="2"/>
<path opacity="0.05" d="M0 10C0 4.47715 4.47715 0 10 0H530C535.523 0 540 4.47715 540 10V58H0V10Z" fill="#4AA29A"/>
<line x1="110.5" y1="20" x2="110.5" y2="144" stroke="#C4C4C4" stroke-dasharray="2 2"/>
<line x1="190.5" y1="20" x2="190.5" y2="144" stroke="#C4C4C4" stroke-dasharray="2 2"/>
<line x1="270.5" y1="20" x2="270.5" y2="144" stroke="#C4C4C4" stroke-dasharray="2 2"/>
<line x1="350.5" y1="20" x2="350.5" y2="144" stroke="#C4C4C4" stroke-dasharray="2 2"/>
<line x1="430.5" y1="20" x2="430.5" y2="144" stroke="#C4C4C4" stroke-dasharray="2 2"/>
<line x1="20" y1="105.5" x2="520" y2="105.5" stroke="#C4C4C4" stroke-dasharray="2 2"/>
<path d="M443.038 120.614L440.84 122V120.726L443.36 119.102H444.2V129H443.038V120.614ZM450.911 119.2H452.409V125.178H453.865V126.298H452.409V129H451.247V126.298H445.941V125.5L450.911 119.2ZM451.247 125.178V120.53L447.509 125.178H451.247ZM454.805 130.47C455.318 130.414 455.72 130.251 456.009 129.98C456.308 129.719 456.476 129.439 456.513 129.14H456.485C456.13 129.14 455.888 129.051 455.757 128.874C455.636 128.697 455.575 128.487 455.575 128.244C455.575 127.992 455.636 127.777 455.757 127.6C455.888 127.423 456.13 127.334 456.485 127.334C456.756 127.334 456.966 127.395 457.115 127.516C457.264 127.628 457.367 127.791 457.423 128.006C457.488 128.211 457.521 128.449 457.521 128.72C457.521 129.093 457.456 129.429 457.325 129.728C457.194 130.027 457.026 130.283 456.821 130.498C456.625 130.722 456.406 130.899 456.163 131.03C455.93 131.17 455.706 131.259 455.491 131.296L454.805 130.47ZM461.864 120.614L459.666 122V120.726L462.186 119.102H463.026V129H461.864V120.614ZM469.738 119.2H471.236V125.178H472.692V126.298H471.236V129H470.074V126.298H464.768V125.5L469.738 119.2ZM470.074 125.178V120.53L466.336 125.178H470.074Z" fill="#404040"/>
<path d="M363.038 120.614L360.84 122V120.726L363.36 119.102H364.2V129H363.038V120.614ZM366.893 126.62C367.183 127.012 367.556 127.334 368.013 127.586C368.48 127.838 369.003 127.95 369.581 127.922C370.403 127.885 371.056 127.563 371.541 126.956C372.036 126.349 372.288 125.435 372.297 124.212C372.297 124.053 372.288 123.904 372.269 123.764C372.26 123.615 372.246 123.47 372.227 123.33C372.087 123.946 371.765 124.45 371.261 124.842C370.757 125.234 370.127 125.43 369.371 125.43C368.895 125.43 368.466 125.355 368.083 125.206C367.701 125.047 367.374 124.833 367.103 124.562C366.842 124.291 366.637 123.974 366.487 123.61C366.347 123.246 366.277 122.849 366.277 122.42C366.277 121.879 366.371 121.403 366.557 120.992C366.744 120.572 366.991 120.222 367.299 119.942C367.617 119.662 367.981 119.452 368.391 119.312C368.802 119.163 369.236 119.088 369.693 119.088C370.272 119.088 370.79 119.195 371.247 119.41C371.705 119.615 372.092 119.923 372.409 120.334C372.736 120.735 372.983 121.235 373.151 121.832C373.329 122.429 373.417 123.111 373.417 123.876C373.417 124.781 373.324 125.561 373.137 126.214C372.951 126.867 372.689 127.409 372.353 127.838C372.017 128.258 371.611 128.571 371.135 128.776C370.669 128.981 370.155 129.093 369.595 129.112C369.259 129.121 368.947 129.093 368.657 129.028C368.368 128.963 368.111 128.883 367.887 128.79C367.663 128.687 367.467 128.575 367.299 128.454C367.131 128.333 366.996 128.216 366.893 128.104V126.62ZM369.637 124.352C370.337 124.352 370.902 124.151 371.331 123.75C371.77 123.349 372.013 122.817 372.059 122.154C371.901 121.585 371.63 121.127 371.247 120.782C370.865 120.437 370.351 120.264 369.707 120.264C369.035 120.264 368.494 120.455 368.083 120.838C367.682 121.211 367.481 121.72 367.481 122.364C367.481 122.98 367.673 123.465 368.055 123.82C368.438 124.175 368.965 124.352 369.637 124.352ZM374.805 130.47C375.318 130.414 375.72 130.251 376.009 129.98C376.308 129.719 376.476 129.439 376.513 129.14H376.485C376.13 129.14 375.888 129.051 375.757 128.874C375.636 128.697 375.575 128.487 375.575 128.244C375.575 127.992 375.636 127.777 375.757 127.6C375.888 127.423 376.13 127.334 376.485 127.334C376.756 127.334 376.966 127.395 377.115 127.516C377.264 127.628 377.367 127.791 377.423 128.006C377.488 128.211 377.521 128.449 377.521 128.72C377.521 129.093 377.456 129.429 377.325 129.728C377.194 130.027 377.026 130.283 376.821 130.498C376.625 130.722 376.406 130.899 376.163 131.03C375.93 131.17 375.706 131.259 375.491 131.296L374.805 130.47ZM380.114 126.62C380.404 127.012 380.777 127.334 381.234 127.586C381.701 127.838 382.224 127.95 382.802 127.922C383.624 127.885 384.277 127.563 384.762 126.956C385.257 126.349 385.509 125.435 385.518 124.212C385.518 124.053 385.509 123.904 385.49 123.764C385.481 123.615 385.467 123.47 385.448 123.33C385.308 123.946 384.986 124.45 384.482 124.842C383.978 125.234 383.348 125.43 382.592 125.43C382.116 125.43 381.687 125.355 381.304 125.206C380.922 125.047 380.595 124.833 380.324 124.562C380.063 124.291 379.858 123.974 379.708 123.61C379.568 123.246 379.498 122.849 379.498 122.42C379.498 121.879 379.592 121.403 379.778 120.992C379.965 120.572 380.212 120.222 380.52 119.942C380.838 119.662 381.202 119.452 381.612 119.312C382.023 119.163 382.457 119.088 382.914 119.088C383.493 119.088 384.011 119.195 384.468 119.41C384.926 119.615 385.313 119.923 385.63 120.334C385.957 120.735 386.204 121.235 386.372 121.832C386.55 122.429 386.638 123.111 386.638 123.876C386.638 124.781 386.545 125.561 386.358 126.214C386.172 126.867 385.91 127.409 385.574 127.838C385.238 128.258 384.832 128.571 384.356 128.776C383.89 128.981 383.376 129.093 382.816 129.112C382.48 129.121 382.168 129.093 381.878 129.028C381.589 128.963 381.332 128.883 381.108 128.79C380.884 128.687 380.688 128.575 380.52 128.454C380.352 128.333 380.217 128.216 380.114 128.104V126.62ZM382.858 124.352C383.558 124.352 384.123 124.151 384.552 123.75C384.991 123.349 385.234 122.817 385.28 122.154C385.122 121.585 384.851 121.127 384.468 120.782C384.086 120.437 383.572 120.264 382.928 120.264C382.256 120.264 381.715 120.455 381.304 120.838C380.903 121.211 380.702 121.72 380.702 122.364C380.702 122.98 380.894 123.465 381.276 123.82C381.659 124.175 382.186 124.352 382.858 124.352ZM390.409 120.614L388.211 122V120.726L390.731 119.102H391.571V129H390.409V120.614Z" fill="#404040"/>
<path d="M280.462 119.2H286.902V120.012L283.276 129H281.96L285.488 120.46H280.462V119.2ZM288.712 126.62C289.001 127.012 289.374 127.334 289.832 127.586C290.298 127.838 290.821 127.95 291.4 127.922C292.221 127.885 292.874 127.563 293.36 126.956C293.854 126.349 294.106 125.435 294.116 124.212C294.116 124.053 294.106 123.904 294.088 123.764C294.078 123.615 294.064 123.47 294.046 123.33C293.906 123.946 293.584 124.45 293.08 124.842C292.576 125.234 291.946 125.43 291.19 125.43C290.714 125.43 290.284 125.355 289.902 125.206C289.519 125.047 289.192 124.833 288.922 124.562C288.66 124.291 288.455 123.974 288.306 123.61C288.166 123.246 288.096 122.849 288.096 122.42C288.096 121.879 288.189 121.403 288.376 120.992C288.562 120.572 288.81 120.222 289.118 119.942C289.435 119.662 289.799 119.452 290.21 119.312C290.62 119.163 291.054 119.088 291.512 119.088C292.09 119.088 292.608 119.195 293.066 119.41C293.523 119.615 293.91 119.923 294.228 120.334C294.554 120.735 294.802 121.235 294.97 121.832C295.147 122.429 295.236 123.111 295.236 123.876C295.236 124.781 295.142 125.561 294.956 126.214C294.769 126.867 294.508 127.409 294.172 127.838C293.836 128.258 293.43 128.571 292.954 128.776C292.487 128.981 291.974 129.093 291.414 129.112C291.078 129.121 290.765 129.093 290.476 129.028C290.186 128.963 289.93 128.883 289.706 128.79C289.482 128.687 289.286 128.575 289.118 128.454C288.95 128.333 288.814 128.216 288.712 128.104V126.62ZM291.456 124.352C292.156 124.352 292.72 124.151 293.15 123.75C293.588 123.349 293.831 122.817 293.878 122.154C293.719 121.585 293.448 121.127 293.066 120.782C292.683 120.437 292.17 120.264 291.526 120.264C290.854 120.264 290.312 120.455 289.902 120.838C289.5 121.211 289.3 121.72 289.3 122.364C289.3 122.98 289.491 123.465 289.874 123.82C290.256 124.175 290.784 124.352 291.456 124.352ZM296.623 130.47C297.137 130.414 297.538 130.251 297.827 129.98C298.126 129.719 298.294 129.439 298.331 129.14H298.303C297.949 129.14 297.706 129.051 297.575 128.874C297.454 128.697 297.393 128.487 297.393 128.244C297.393 127.992 297.454 127.777 297.575 127.6C297.706 127.423 297.949 127.334 298.303 127.334C298.574 127.334 298.784 127.395 298.933 127.516C299.083 127.628 299.185 127.791 299.241 128.006C299.307 128.211 299.339 128.449 299.339 128.72C299.339 129.093 299.274 129.429 299.143 129.728C299.013 130.027 298.845 130.283 298.639 130.498C298.443 130.722 298.224 130.899 297.981 131.03C297.748 131.17 297.524 131.259 297.309 131.296L296.623 130.47ZM304.999 129.112C303.879 129.112 303.011 128.855 302.395 128.342C301.779 127.819 301.471 127.105 301.471 126.2C301.471 125.967 301.499 125.729 301.555 125.486C301.611 125.243 301.713 125.015 301.863 124.8C302.012 124.576 302.213 124.375 302.465 124.198C302.717 124.011 303.034 123.867 303.417 123.764C302.913 123.652 302.511 123.428 302.213 123.092C301.914 122.747 301.765 122.271 301.765 121.664C301.765 121.263 301.825 120.903 301.947 120.586C302.077 120.259 302.273 119.984 302.535 119.76C302.796 119.527 303.127 119.349 303.529 119.228C303.939 119.107 304.425 119.046 304.985 119.046C305.545 119.046 306.021 119.107 306.413 119.228C306.805 119.34 307.127 119.508 307.379 119.732C307.631 119.947 307.813 120.208 307.925 120.516C308.037 120.815 308.093 121.146 308.093 121.51C308.093 122.014 307.967 122.467 307.715 122.868C307.463 123.269 307.047 123.563 306.469 123.75C307.113 123.89 307.612 124.161 307.967 124.562C308.321 124.954 308.499 125.472 308.499 126.116C308.499 126.555 308.424 126.956 308.275 127.32C308.135 127.684 307.92 128.001 307.631 128.272C307.341 128.533 306.977 128.739 306.539 128.888C306.1 129.037 305.587 129.112 304.999 129.112ZM305.013 127.908C305.806 127.908 306.385 127.749 306.749 127.432C307.113 127.115 307.295 126.653 307.295 126.046C307.295 125.458 307.099 125.024 306.707 124.744C306.315 124.464 305.745 124.324 304.999 124.324C304.224 124.324 303.645 124.478 303.263 124.786C302.889 125.085 302.703 125.495 302.703 126.018C302.703 126.345 302.759 126.629 302.871 126.872C302.992 127.105 303.155 127.301 303.361 127.46C303.566 127.609 303.809 127.721 304.089 127.796C304.369 127.871 304.677 127.908 305.013 127.908ZM304.971 123.386C305.643 123.386 306.137 123.241 306.455 122.952C306.772 122.653 306.931 122.266 306.931 121.79C306.931 121.249 306.777 120.857 306.469 120.614C306.17 120.371 305.671 120.25 304.971 120.25C304.271 120.25 303.753 120.381 303.417 120.642C303.09 120.903 302.927 121.295 302.927 121.818C302.927 122.247 303.095 122.616 303.431 122.924C303.767 123.232 304.28 123.386 304.971 123.386ZM310.096 129V128.146C311.114 127.278 311.944 126.541 312.588 125.934C313.242 125.327 313.755 124.8 314.128 124.352C314.502 123.904 314.754 123.507 314.884 123.162C315.024 122.817 315.094 122.476 315.094 122.14C315.094 121.552 314.917 121.099 314.562 120.782C314.208 120.455 313.718 120.292 313.092 120.292C312.514 120.283 312 120.385 311.552 120.6C311.104 120.815 310.722 121.118 310.404 121.51V120.096C310.526 119.975 310.68 119.853 310.866 119.732C311.053 119.601 311.268 119.489 311.51 119.396C311.753 119.293 312.028 119.214 312.336 119.158C312.644 119.102 312.976 119.074 313.33 119.074C314.273 119.093 315.006 119.349 315.528 119.844C316.06 120.339 316.326 121.025 316.326 121.902C316.326 122.322 316.266 122.728 316.144 123.12C316.023 123.503 315.818 123.899 315.528 124.31C315.239 124.721 314.861 125.164 314.394 125.64C313.928 126.107 313.354 126.625 312.672 127.194L311.902 127.852H316.606V129H310.096Z" fill="#404040"/>
<path d="M205.306 119.2H206.804V125.178H208.26V126.298H206.804V129H205.642V126.298H200.336V125.5L205.306 119.2ZM205.642 125.178V120.53L201.904 125.178H205.642ZM209.578 120.096C209.82 119.844 210.189 119.611 210.684 119.396C211.188 119.181 211.808 119.074 212.546 119.074C213.507 119.093 214.24 119.321 214.744 119.76C215.248 120.199 215.5 120.787 215.5 121.524C215.5 122.131 215.35 122.639 215.052 123.05C214.753 123.451 214.324 123.741 213.764 123.918C214.436 124.021 214.958 124.273 215.332 124.674C215.714 125.075 215.906 125.612 215.906 126.284C215.906 126.685 215.831 127.059 215.682 127.404C215.542 127.74 215.327 128.034 215.038 128.286C214.748 128.538 214.384 128.739 213.946 128.888C213.507 129.028 212.998 129.103 212.42 129.112C212.056 129.112 211.715 129.079 211.398 129.014C211.09 128.958 210.814 128.883 210.572 128.79C210.329 128.687 210.119 128.575 209.942 128.454C209.764 128.333 209.62 128.216 209.508 128.104V126.62C209.806 127.012 210.208 127.329 210.712 127.572C211.216 127.815 211.776 127.931 212.392 127.922C213.157 127.913 213.736 127.754 214.128 127.446C214.529 127.129 214.73 126.713 214.73 126.2C214.73 125.659 214.543 125.243 214.17 124.954C213.806 124.655 213.213 124.506 212.392 124.506H211.216V123.554H212.098C212.826 123.554 213.376 123.409 213.75 123.12C214.132 122.821 214.324 122.401 214.324 121.86C214.324 121.328 214.146 120.931 213.792 120.67C213.446 120.399 212.956 120.264 212.322 120.264C211.715 120.273 211.183 120.385 210.726 120.6C210.278 120.815 209.895 121.118 209.578 121.51V120.096ZM217.034 130.47C217.547 130.414 217.948 130.251 218.238 129.98C218.536 129.719 218.704 129.439 218.742 129.14H218.714C218.359 129.14 218.116 129.051 217.986 128.874C217.864 128.697 217.804 128.487 217.804 128.244C217.804 127.992 217.864 127.777 217.986 127.6C218.116 127.423 218.359 127.334 218.714 127.334C218.984 127.334 219.194 127.395 219.344 127.516C219.493 127.628 219.596 127.791 219.652 128.006C219.717 128.211 219.75 128.449 219.75 128.72C219.75 129.093 219.684 129.429 219.554 129.728C219.423 130.027 219.255 130.283 219.05 130.498C218.854 130.722 218.634 130.899 218.392 131.03C218.158 131.17 217.934 131.259 217.72 131.296L217.034 130.47ZM225.409 129.112C224.289 129.112 223.421 128.855 222.805 128.342C222.189 127.819 221.881 127.105 221.881 126.2C221.881 125.967 221.909 125.729 221.965 125.486C222.021 125.243 222.123 125.015 222.273 124.8C222.422 124.576 222.623 124.375 222.875 124.198C223.127 124.011 223.444 123.867 223.827 123.764C223.323 123.652 222.921 123.428 222.623 123.092C222.324 122.747 222.175 122.271 222.175 121.664C222.175 121.263 222.235 120.903 222.357 120.586C222.487 120.259 222.683 119.984 222.945 119.76C223.206 119.527 223.537 119.349 223.939 119.228C224.349 119.107 224.835 119.046 225.395 119.046C225.955 119.046 226.431 119.107 226.823 119.228C227.215 119.34 227.537 119.508 227.789 119.732C228.041 119.947 228.223 120.208 228.335 120.516C228.447 120.815 228.503 121.146 228.503 121.51C228.503 122.014 228.377 122.467 228.125 122.868C227.873 123.269 227.457 123.563 226.879 123.75C227.523 123.89 228.022 124.161 228.377 124.562C228.731 124.954 228.909 125.472 228.909 126.116C228.909 126.555 228.834 126.956 228.685 127.32C228.545 127.684 228.33 128.001 228.041 128.272C227.751 128.533 227.387 128.739 226.949 128.888C226.51 129.037 225.997 129.112 225.409 129.112ZM225.423 127.908C226.216 127.908 226.795 127.749 227.159 127.432C227.523 127.115 227.705 126.653 227.705 126.046C227.705 125.458 227.509 125.024 227.117 124.744C226.725 124.464 226.155 124.324 225.409 124.324C224.634 124.324 224.055 124.478 223.673 124.786C223.299 125.085 223.113 125.495 223.113 126.018C223.113 126.345 223.169 126.629 223.281 126.872C223.402 127.105 223.565 127.301 223.771 127.46C223.976 127.609 224.219 127.721 224.499 127.796C224.779 127.871 225.087 127.908 225.423 127.908ZM225.381 123.386C226.053 123.386 226.547 123.241 226.865 122.952C227.182 122.653 227.341 122.266 227.341 121.79C227.341 121.249 227.187 120.857 226.879 120.614C226.58 120.371 226.081 120.25 225.381 120.25C224.681 120.25 224.163 120.381 223.827 120.642C223.5 120.903 223.337 121.295 223.337 121.818C223.337 122.247 223.505 122.616 223.841 122.924C224.177 123.232 224.69 123.386 225.381 123.386ZM230.632 126.718C230.931 127.091 231.332 127.39 231.836 127.614C232.34 127.829 232.872 127.931 233.432 127.922C234.17 127.922 234.72 127.74 235.084 127.376C235.458 127.003 235.644 126.508 235.644 125.892C235.644 125.257 235.416 124.781 234.958 124.464C234.501 124.147 233.89 123.988 233.124 123.988C232.695 123.988 232.294 124.021 231.92 124.086C231.556 124.142 231.248 124.212 230.996 124.296L231.332 119.2H236.4V120.348H232.354L232.158 123.078C232.233 123.059 232.326 123.045 232.438 123.036C232.56 123.017 232.681 123.003 232.802 122.994C232.933 122.975 233.059 122.961 233.18 122.952C233.311 122.943 233.432 122.938 233.544 122.938C234.608 122.938 235.43 123.204 236.008 123.736C236.587 124.268 236.876 124.987 236.876 125.892C236.876 126.415 236.792 126.877 236.624 127.278C236.466 127.67 236.232 128.006 235.924 128.286C235.626 128.557 235.266 128.762 234.846 128.902C234.426 129.042 233.964 129.112 233.46 129.112C233.115 129.112 232.793 129.079 232.494 129.014C232.196 128.958 231.925 128.883 231.682 128.79C231.449 128.697 231.244 128.594 231.066 128.482C230.889 128.37 230.744 128.263 230.632 128.16V126.718Z" fill="#404040"/>
<path d="M125.306 119.2H126.804V125.178H128.26V126.298H126.804V129H125.642V126.298H120.336V125.5L125.306 119.2ZM125.642 125.178V120.53L121.904 125.178H125.642ZM129.578 126.718C129.876 127.091 130.278 127.39 130.782 127.614C131.286 127.829 131.818 127.931 132.378 127.922C133.115 127.922 133.666 127.74 134.03 127.376C134.403 127.003 134.59 126.508 134.59 125.892C134.59 125.257 134.361 124.781 133.904 124.464C133.446 124.147 132.835 123.988 132.07 123.988C131.64 123.988 131.239 124.021 130.866 124.086C130.502 124.142 130.194 124.212 129.942 124.296L130.278 119.2H135.346V120.348H131.3L131.104 123.078C131.178 123.059 131.272 123.045 131.384 123.036C131.505 123.017 131.626 123.003 131.748 122.994C131.878 122.975 132.004 122.961 132.126 122.952C132.256 122.943 132.378 122.938 132.49 122.938C133.554 122.938 134.375 123.204 134.954 123.736C135.532 124.268 135.822 124.987 135.822 125.892C135.822 126.415 135.738 126.877 135.57 127.278C135.411 127.67 135.178 128.006 134.87 128.286C134.571 128.557 134.212 128.762 133.792 128.902C133.372 129.042 132.91 129.112 132.406 129.112C132.06 129.112 131.738 129.079 131.44 129.014C131.141 128.958 130.87 128.883 130.628 128.79C130.394 128.697 130.189 128.594 130.012 128.482C129.834 128.37 129.69 128.263 129.578 128.16V126.718ZM137.034 130.47C137.547 130.414 137.948 130.251 138.238 129.98C138.536 129.719 138.704 129.439 138.742 129.14H138.714C138.359 129.14 138.116 129.051 137.986 128.874C137.864 128.697 137.804 128.487 137.804 128.244C137.804 127.992 137.864 127.777 137.986 127.6C138.116 127.423 138.359 127.334 138.714 127.334C138.984 127.334 139.194 127.395 139.344 127.516C139.493 127.628 139.596 127.791 139.652 128.006C139.717 128.211 139.75 128.449 139.75 128.72C139.75 129.093 139.684 129.429 139.554 129.728C139.423 130.027 139.255 130.283 139.05 130.498C138.854 130.722 138.634 130.899 138.392 131.03C138.158 131.17 137.934 131.259 137.72 131.296L137.034 130.47ZM148.433 121.58C148.153 121.188 147.779 120.866 147.313 120.614C146.846 120.362 146.328 120.25 145.759 120.278C144.928 120.315 144.27 120.637 143.785 121.244C143.299 121.841 143.052 122.751 143.043 123.974C143.043 124.133 143.047 124.287 143.057 124.436C143.066 124.585 143.08 124.73 143.099 124.87C143.248 124.254 143.57 123.75 144.065 123.358C144.569 122.966 145.199 122.77 145.955 122.77C146.431 122.77 146.86 122.849 147.243 123.008C147.635 123.157 147.961 123.367 148.223 123.638C148.493 123.909 148.699 124.226 148.839 124.59C148.988 124.954 149.063 125.351 149.063 125.78C149.063 126.331 148.969 126.816 148.783 127.236C148.596 127.647 148.344 127.992 148.027 128.272C147.719 128.552 147.355 128.762 146.935 128.902C146.524 129.042 146.095 129.112 145.647 129.112C145.068 129.112 144.545 129.009 144.079 128.804C143.621 128.589 143.229 128.281 142.903 127.88C142.585 127.469 142.338 126.965 142.161 126.368C141.993 125.771 141.909 125.089 141.909 124.324C141.909 123.419 142.002 122.639 142.189 121.986C142.375 121.333 142.637 120.796 142.973 120.376C143.309 119.947 143.71 119.629 144.177 119.424C144.653 119.219 145.171 119.107 145.731 119.088C146.076 119.079 146.389 119.107 146.669 119.172C146.958 119.237 147.215 119.321 147.439 119.424C147.672 119.517 147.868 119.625 148.027 119.746C148.195 119.867 148.33 119.984 148.433 120.096V121.58ZM145.689 123.848C144.979 123.848 144.41 124.053 143.981 124.464C143.551 124.865 143.313 125.402 143.267 126.074C143.435 126.634 143.71 127.087 144.093 127.432C144.475 127.768 144.989 127.936 145.633 127.936C146.305 127.936 146.841 127.749 147.243 127.376C147.653 126.993 147.859 126.48 147.859 125.836C147.859 125.22 147.667 124.735 147.285 124.38C146.902 124.025 146.37 123.848 145.689 123.848ZM154.09 129.112C152.97 129.112 152.102 128.855 151.486 128.342C150.87 127.819 150.562 127.105 150.562 126.2C150.562 125.967 150.59 125.729 150.646 125.486C150.702 125.243 150.805 125.015 150.954 124.8C151.104 124.576 151.304 124.375 151.556 124.198C151.808 124.011 152.126 123.867 152.508 123.764C152.004 123.652 151.603 123.428 151.304 123.092C151.006 122.747 150.856 122.271 150.856 121.664C150.856 121.263 150.917 120.903 151.038 120.586C151.169 120.259 151.365 119.984 151.626 119.76C151.888 119.527 152.219 119.349 152.62 119.228C153.031 119.107 153.516 119.046 154.076 119.046C154.636 119.046 155.112 119.107 155.504 119.228C155.896 119.34 156.218 119.508 156.47 119.732C156.722 119.947 156.904 120.208 157.016 120.516C157.128 120.815 157.184 121.146 157.184 121.51C157.184 122.014 157.058 122.467 156.806 122.868C156.554 123.269 156.139 123.563 155.56 123.75C156.204 123.89 156.704 124.161 157.058 124.562C157.413 124.954 157.59 125.472 157.59 126.116C157.59 126.555 157.516 126.956 157.366 127.32C157.226 127.684 157.012 128.001 156.722 128.272C156.433 128.533 156.069 128.739 155.63 128.888C155.192 129.037 154.678 129.112 154.09 129.112ZM154.104 127.908C154.898 127.908 155.476 127.749 155.84 127.432C156.204 127.115 156.386 126.653 156.386 126.046C156.386 125.458 156.19 125.024 155.798 124.744C155.406 124.464 154.837 124.324 154.09 124.324C153.316 124.324 152.737 124.478 152.354 124.786C151.981 125.085 151.794 125.495 151.794 126.018C151.794 126.345 151.85 126.629 151.962 126.872C152.084 127.105 152.247 127.301 152.452 127.46C152.658 127.609 152.9 127.721 153.18 127.796C153.46 127.871 153.768 127.908 154.104 127.908ZM154.062 123.386C154.734 123.386 155.229 123.241 155.546 122.952C155.864 122.653 156.022 122.266 156.022 121.79C156.022 121.249 155.868 120.857 155.56 120.614C155.262 120.371 154.762 120.25 154.062 120.25C153.362 120.25 152.844 120.381 152.508 120.642C152.182 120.903 152.018 121.295 152.018 121.818C152.018 122.247 152.186 122.616 152.522 122.924C152.858 123.232 153.372 123.386 154.062 123.386Z" fill="#404040"/>
<path d="M40.714 129V127.796C41.7313 126.928 42.548 126.205 43.164 125.626C43.78 125.038 44.2513 124.539 44.578 124.128C44.914 123.717 45.1333 123.372 45.236 123.092C45.348 122.812 45.404 122.546 45.404 122.294C45.404 121.809 45.2547 121.435 44.956 121.174C44.6573 120.913 44.242 120.782 43.71 120.782C43.15 120.773 42.6413 120.866 42.184 121.062C41.736 121.258 41.3487 121.543 41.022 121.916V120.054C41.1433 119.933 41.2973 119.816 41.484 119.704C41.68 119.583 41.904 119.475 42.156 119.382C42.408 119.289 42.6833 119.214 42.982 119.158C43.29 119.102 43.6167 119.074 43.962 119.074C44.998 119.083 45.782 119.345 46.314 119.858C46.8553 120.371 47.126 121.062 47.126 121.93C47.126 122.331 47.0653 122.719 46.944 123.092C46.832 123.465 46.6453 123.848 46.384 124.24C46.1227 124.632 45.7773 125.043 45.348 125.472C44.928 125.901 44.41 126.377 43.794 126.9L43.22 127.39H47.392V129H40.714ZM48.7771 124.114C48.7771 123.209 48.8751 122.439 49.0711 121.804C49.2671 121.16 49.5331 120.642 49.8691 120.25C50.2145 119.849 50.6111 119.555 51.0591 119.368C51.5165 119.181 52.0018 119.088 52.5151 119.088C53.0938 119.088 53.6165 119.191 54.0831 119.396C54.5498 119.601 54.9465 119.914 55.2731 120.334C55.6091 120.745 55.8658 121.267 56.0431 121.902C56.2205 122.527 56.3091 123.265 56.3091 124.114C56.3091 125.029 56.2065 125.808 56.0011 126.452C55.8051 127.087 55.5345 127.605 55.1891 128.006C54.8531 128.398 54.4565 128.687 53.9991 128.874C53.5511 129.051 53.0705 129.14 52.5571 129.14C51.9785 129.14 51.4558 129.037 50.9891 128.832C50.5225 128.627 50.1258 128.319 49.7991 127.908C49.4725 127.488 49.2205 126.965 49.0431 126.34C48.8658 125.705 48.7771 124.963 48.7771 124.114ZM50.4571 124.114C50.4571 124.739 50.5038 125.267 50.5971 125.696C50.6998 126.125 50.8398 126.475 51.0171 126.746C51.2038 127.007 51.4231 127.199 51.6751 127.32C51.9365 127.441 52.2305 127.502 52.5571 127.502C52.8931 127.502 53.1871 127.446 53.4391 127.334C53.7005 127.213 53.9198 127.021 54.0971 126.76C54.2745 126.489 54.4051 126.139 54.4891 125.71C54.5825 125.271 54.6291 124.739 54.6291 124.114C54.6291 123.489 54.5778 122.966 54.4751 122.546C54.3818 122.117 54.2418 121.771 54.0551 121.51C53.8778 121.239 53.6585 121.043 53.3971 120.922C53.1358 120.801 52.8465 120.735 52.5291 120.726C52.1931 120.726 51.8945 120.787 51.6331 120.908C51.3811 121.02 51.1665 121.211 50.9891 121.482C50.8118 121.743 50.6765 122.093 50.5831 122.532C50.4991 122.961 50.4571 123.489 50.4571 124.114ZM59.7268 121.146L57.6268 122.448V120.726L60.1468 119.102H61.3648V129H59.7268V121.146ZM63.886 126.256C64.0353 126.433 64.208 126.601 64.404 126.76C64.6 126.909 64.8146 127.04 65.048 127.152C65.2906 127.264 65.5473 127.348 65.818 127.404C66.0886 127.46 66.3733 127.479 66.672 127.46C67.4 127.413 67.9833 127.129 68.422 126.606C68.8606 126.083 69.0893 125.327 69.108 124.338C69.108 124.151 69.094 123.974 69.066 123.806C68.898 124.338 68.5806 124.767 68.114 125.094C67.6473 125.421 67.078 125.584 66.406 125.584C65.9113 125.584 65.468 125.505 65.076 125.346C64.6933 125.187 64.3666 124.968 64.096 124.688C63.8346 124.408 63.6293 124.081 63.48 123.708C63.34 123.325 63.27 122.915 63.27 122.476C63.27 121.935 63.3633 121.454 63.55 121.034C63.746 120.614 64.0026 120.259 64.32 119.97C64.6466 119.681 65.0246 119.461 65.454 119.312C65.8833 119.163 66.3313 119.088 66.798 119.088C67.3766 119.088 67.904 119.191 68.38 119.396C68.856 119.601 69.262 119.905 69.598 120.306C69.934 120.707 70.1953 121.207 70.382 121.804C70.5686 122.392 70.662 123.073 70.662 123.848C70.662 124.753 70.564 125.533 70.368 126.186C70.172 126.839 69.8966 127.381 69.542 127.81C69.1873 128.23 68.7673 128.547 68.282 128.762C67.7966 128.967 67.2693 129.084 66.7 129.112C66.3453 129.121 66.0186 129.093 65.72 129.028C65.4213 128.972 65.1506 128.893 64.908 128.79C64.6746 128.687 64.4693 128.575 64.292 128.454C64.1146 128.333 63.9793 128.221 63.886 128.118V126.256ZM66.826 124.1C67.4046 124.1 67.8806 123.937 68.254 123.61C68.6273 123.274 68.8373 122.826 68.884 122.266C68.744 121.79 68.5106 121.412 68.184 121.132C67.8573 120.852 67.414 120.712 66.854 120.712C66.2566 120.712 65.7853 120.875 65.44 121.202C65.104 121.519 64.936 121.93 64.936 122.434C64.936 122.919 65.0946 123.321 65.412 123.638C65.7386 123.946 66.21 124.1 66.826 124.1Z" fill="#404040"/>
<path d="M443.038 82.614L440.84 84V82.726L443.36 81.102H444.2V91H443.038V82.614ZM450.911 81.2H452.409V87.178H453.865V88.298H452.409V91H451.247V88.298H445.941V87.5L450.911 81.2ZM451.247 87.178V82.53L447.509 87.178H451.247ZM454.805 92.47C455.318 92.414 455.72 92.2507 456.009 91.98C456.308 91.7187 456.476 91.4387 456.513 91.14H456.485C456.13 91.14 455.888 91.0513 455.757 90.874C455.636 90.6967 455.575 90.4867 455.575 90.244C455.575 89.992 455.636 89.7773 455.757 89.6C455.888 89.4227 456.13 89.334 456.485 89.334C456.756 89.334 456.966 89.3947 457.115 89.516C457.264 89.628 457.367 89.7913 457.423 90.006C457.488 90.2113 457.521 90.4493 457.521 90.72C457.521 91.0933 457.456 91.4293 457.325 91.728C457.194 92.0267 457.026 92.2833 456.821 92.498C456.625 92.722 456.406 92.8993 456.163 93.03C455.93 93.17 455.706 93.2587 455.491 93.296L454.805 92.47ZM466.204 83.58C465.924 83.188 465.551 82.866 465.084 82.614C464.618 82.362 464.1 82.25 463.53 82.278C462.7 82.3153 462.042 82.6373 461.556 83.244C461.071 83.8413 460.824 84.7513 460.814 85.974C460.814 86.1327 460.819 86.2867 460.828 86.436C460.838 86.5853 460.852 86.73 460.87 86.87C461.02 86.254 461.342 85.75 461.836 85.358C462.34 84.966 462.97 84.77 463.726 84.77C464.202 84.77 464.632 84.8493 465.014 85.008C465.406 85.1573 465.733 85.3673 465.994 85.638C466.265 85.9087 466.47 86.226 466.61 86.59C466.76 86.954 466.834 87.3507 466.834 87.78C466.834 88.3307 466.741 88.816 466.554 89.236C466.368 89.6467 466.116 89.992 465.798 90.272C465.49 90.552 465.126 90.762 464.706 90.902C464.296 91.042 463.866 91.112 463.418 91.112C462.84 91.112 462.317 91.0093 461.85 90.804C461.393 90.5893 461.001 90.2813 460.674 89.88C460.357 89.4693 460.11 88.9653 459.932 88.368C459.764 87.7707 459.68 87.0893 459.68 86.324C459.68 85.4187 459.774 84.6393 459.96 83.986C460.147 83.3327 460.408 82.796 460.744 82.376C461.08 81.9467 461.482 81.6293 461.948 81.424C462.424 81.2187 462.942 81.1067 463.502 81.088C463.848 81.0787 464.16 81.1067 464.44 81.172C464.73 81.2373 464.986 81.3213 465.21 81.424C465.444 81.5173 465.64 81.6247 465.798 81.746C465.966 81.8673 466.102 81.984 466.204 82.096V83.58ZM463.46 85.848C462.751 85.848 462.182 86.0533 461.752 86.464C461.323 86.8653 461.085 87.402 461.038 88.074C461.206 88.634 461.482 89.0867 461.864 89.432C462.247 89.768 462.76 89.936 463.404 89.936C464.076 89.936 464.613 89.7493 465.014 89.376C465.425 88.9933 465.63 88.48 465.63 87.836C465.63 87.22 465.439 86.7347 465.056 86.38C464.674 86.0253 464.142 85.848 463.46 85.848ZM468.404 88.718C468.702 89.0913 469.104 89.39 469.608 89.614C470.112 89.8287 470.644 89.9313 471.204 89.922C471.941 89.922 472.492 89.74 472.856 89.376C473.229 89.0027 473.416 88.508 473.416 87.892C473.416 87.2573 473.187 86.7813 472.73 86.464C472.272 86.1467 471.661 85.988 470.896 85.988C470.466 85.988 470.065 86.0207 469.692 86.086C469.328 86.142 469.02 86.212 468.768 86.296L469.104 81.2H474.172V82.348H470.126L469.93 85.078C470.004 85.0593 470.098 85.0453 470.21 85.036C470.331 85.0173 470.452 85.0033 470.574 84.994C470.704 84.9753 470.83 84.9613 470.952 84.952C471.082 84.9427 471.204 84.938 471.316 84.938C472.38 84.938 473.201 85.204 473.78 85.736C474.358 86.268 474.648 86.9867 474.648 87.892C474.648 88.4147 474.564 88.8767 474.396 89.278C474.237 89.67 474.004 90.006 473.696 90.286C473.397 90.5567 473.038 90.762 472.618 90.902C472.198 91.042 471.736 91.112 471.232 91.112C470.886 91.112 470.564 91.0793 470.266 91.014C469.967 90.958 469.696 90.8833 469.454 90.79C469.22 90.6967 469.015 90.594 468.838 90.482C468.66 90.37 468.516 90.2627 468.404 90.16V88.718Z" fill="#404040"/>
<path d="M363.038 82.614L360.84 84V82.726L363.36 81.102H364.2V91H363.038V82.614ZM369.959 91.112C368.839 91.112 367.971 90.8553 367.355 90.342C366.739 89.8193 366.431 89.1053 366.431 88.2C366.431 87.9667 366.459 87.7287 366.515 87.486C366.571 87.2433 366.674 87.0147 366.823 86.8C366.973 86.576 367.173 86.3753 367.425 86.198C367.677 86.0113 367.995 85.8667 368.377 85.764C367.873 85.652 367.472 85.428 367.173 85.092C366.875 84.7467 366.725 84.2707 366.725 83.664C366.725 83.2627 366.786 82.9033 366.907 82.586C367.038 82.2593 367.234 81.984 367.495 81.76C367.757 81.5267 368.088 81.3493 368.489 81.228C368.9 81.1067 369.385 81.046 369.945 81.046C370.505 81.046 370.981 81.1067 371.373 81.228C371.765 81.34 372.087 81.508 372.339 81.732C372.591 81.9467 372.773 82.208 372.885 82.516C372.997 82.8147 373.053 83.146 373.053 83.51C373.053 84.014 372.927 84.4667 372.675 84.868C372.423 85.2693 372.008 85.5633 371.429 85.75C372.073 85.89 372.573 86.1607 372.927 86.562C373.282 86.954 373.459 87.472 373.459 88.116C373.459 88.5547 373.385 88.956 373.235 89.32C373.095 89.684 372.881 90.0013 372.591 90.272C372.302 90.5333 371.938 90.7387 371.499 90.888C371.061 91.0373 370.547 91.112 369.959 91.112ZM369.973 89.908C370.767 89.908 371.345 89.7493 371.709 89.432C372.073 89.1147 372.255 88.6527 372.255 88.046C372.255 87.458 372.059 87.024 371.667 86.744C371.275 86.464 370.706 86.324 369.959 86.324C369.185 86.324 368.606 86.478 368.223 86.786C367.85 87.0847 367.663 87.4953 367.663 88.018C367.663 88.3447 367.719 88.6293 367.831 88.872C367.953 89.1053 368.116 89.3013 368.321 89.46C368.527 89.6093 368.769 89.7213 369.049 89.796C369.329 89.8707 369.637 89.908 369.973 89.908ZM369.931 85.386C370.603 85.386 371.098 85.2413 371.415 84.952C371.733 84.6533 371.891 84.266 371.891 83.79C371.891 83.2487 371.737 82.8567 371.429 82.614C371.131 82.3713 370.631 82.25 369.931 82.25C369.231 82.25 368.713 82.3807 368.377 82.642C368.051 82.9033 367.887 83.2953 367.887 83.818C367.887 84.2473 368.055 84.616 368.391 84.924C368.727 85.232 369.241 85.386 369.931 85.386ZM374.805 92.47C375.318 92.414 375.72 92.2507 376.009 91.98C376.308 91.7187 376.476 91.4387 376.513 91.14H376.485C376.13 91.14 375.888 91.0513 375.757 90.874C375.636 90.6967 375.575 90.4867 375.575 90.244C375.575 89.992 375.636 89.7773 375.757 89.6C375.888 89.4227 376.13 89.334 376.485 89.334C376.756 89.334 376.966 89.3947 377.115 89.516C377.264 89.628 377.367 89.7913 377.423 90.006C377.488 90.2113 377.521 90.4493 377.521 90.72C377.521 91.0933 377.456 91.4293 377.325 91.728C377.194 92.0267 377.026 92.2833 376.821 92.498C376.625 92.722 376.406 92.8993 376.163 93.03C375.93 93.17 375.706 93.2587 375.491 93.296L374.805 92.47ZM380.02 91V90.146C381.037 89.278 381.868 88.5407 382.512 87.934C383.165 87.3273 383.679 86.8 384.052 86.352C384.425 85.904 384.677 85.5073 384.808 85.162C384.948 84.8167 385.018 84.476 385.018 84.14C385.018 83.552 384.841 83.0993 384.486 82.782C384.131 82.4553 383.641 82.292 383.016 82.292C382.437 82.2827 381.924 82.3853 381.476 82.6C381.028 82.8147 380.645 83.118 380.328 83.51V82.096C380.449 81.9747 380.603 81.8533 380.79 81.732C380.977 81.6013 381.191 81.4893 381.434 81.396C381.677 81.2933 381.952 81.214 382.26 81.158C382.568 81.102 382.899 81.074 383.254 81.074C384.197 81.0927 384.929 81.3493 385.452 81.844C385.984 82.3387 386.25 83.0247 386.25 83.902C386.25 84.322 386.189 84.728 386.068 85.12C385.947 85.5027 385.741 85.8993 385.452 86.31C385.163 86.7207 384.785 87.164 384.318 87.64C383.851 88.1067 383.277 88.6247 382.596 89.194L381.826 89.852H386.53V91H380.02ZM388.372 88.62C388.661 89.012 389.035 89.334 389.492 89.586C389.959 89.838 390.481 89.95 391.06 89.922C391.881 89.8847 392.535 89.5627 393.02 88.956C393.515 88.3493 393.767 87.4347 393.776 86.212C393.776 86.0533 393.767 85.904 393.748 85.764C393.739 85.6147 393.725 85.47 393.706 85.33C393.566 85.946 393.244 86.45 392.74 86.842C392.236 87.234 391.606 87.43 390.85 87.43C390.374 87.43 389.945 87.3553 389.562 87.206C389.179 87.0473 388.853 86.8327 388.582 86.562C388.321 86.2913 388.115 85.974 387.966 85.61C387.826 85.246 387.756 84.8493 387.756 84.42C387.756 83.8787 387.849 83.4027 388.036 82.992C388.223 82.572 388.47 82.222 388.778 81.942C389.095 81.662 389.459 81.452 389.87 81.312C390.281 81.1627 390.715 81.088 391.172 81.088C391.751 81.088 392.269 81.1953 392.726 81.41C393.183 81.6153 393.571 81.9233 393.888 82.334C394.215 82.7353 394.462 83.2347 394.63 83.832C394.807 84.4293 394.896 85.1107 394.896 85.876C394.896 86.7813 394.803 87.5607 394.616 88.214C394.429 88.8673 394.168 89.4087 393.832 89.838C393.496 90.258 393.09 90.5707 392.614 90.776C392.147 90.9813 391.634 91.0933 391.074 91.112C390.738 91.1213 390.425 91.0933 390.136 91.028C389.847 90.9627 389.59 90.8833 389.366 90.79C389.142 90.6873 388.946 90.5753 388.778 90.454C388.61 90.3327 388.475 90.216 388.372 90.104V88.62ZM391.116 86.352C391.816 86.352 392.381 86.1513 392.81 85.75C393.249 85.3487 393.491 84.8167 393.538 84.154C393.379 83.5847 393.109 83.1273 392.726 82.782C392.343 82.4367 391.83 82.264 391.186 82.264C390.514 82.264 389.973 82.4553 389.562 82.838C389.161 83.2113 388.96 83.72 388.96 84.364C388.96 84.98 389.151 85.4653 389.534 85.82C389.917 86.1747 390.444 86.352 391.116 86.352Z" fill="#404040"/>
<path d="M280.462 81.2H286.902V82.012L283.276 91H281.96L285.488 82.46H280.462V81.2ZM291.504 91.112C290.384 91.112 289.516 90.8553 288.9 90.342C288.284 89.8193 287.976 89.1053 287.976 88.2C287.976 87.9667 288.004 87.7287 288.06 87.486C288.116 87.2433 288.219 87.0147 288.368 86.8C288.518 86.576 288.718 86.3753 288.97 86.198C289.222 86.0113 289.54 85.8667 289.922 85.764C289.418 85.652 289.017 85.428 288.718 85.092C288.42 84.7467 288.27 84.2707 288.27 83.664C288.27 83.2627 288.331 82.9033 288.452 82.586C288.583 82.2593 288.779 81.984 289.04 81.76C289.302 81.5267 289.633 81.3493 290.034 81.228C290.445 81.1067 290.93 81.046 291.49 81.046C292.05 81.046 292.526 81.1067 292.918 81.228C293.31 81.34 293.632 81.508 293.884 81.732C294.136 81.9467 294.318 82.208 294.43 82.516C294.542 82.8147 294.598 83.146 294.598 83.51C294.598 84.014 294.472 84.4667 294.22 84.868C293.968 85.2693 293.553 85.5633 292.974 85.75C293.618 85.89 294.118 86.1607 294.472 86.562C294.827 86.954 295.004 87.472 295.004 88.116C295.004 88.5547 294.93 88.956 294.78 89.32C294.64 89.684 294.426 90.0013 294.136 90.272C293.847 90.5333 293.483 90.7387 293.044 90.888C292.606 91.0373 292.092 91.112 291.504 91.112ZM291.518 89.908C292.312 89.908 292.89 89.7493 293.254 89.432C293.618 89.1147 293.8 88.6527 293.8 88.046C293.8 87.458 293.604 87.024 293.212 86.744C292.82 86.464 292.251 86.324 291.504 86.324C290.73 86.324 290.151 86.478 289.768 86.786C289.395 87.0847 289.208 87.4953 289.208 88.018C289.208 88.3447 289.264 88.6293 289.376 88.872C289.498 89.1053 289.661 89.3013 289.866 89.46C290.072 89.6093 290.314 89.7213 290.594 89.796C290.874 89.8707 291.182 89.908 291.518 89.908ZM291.476 85.386C292.148 85.386 292.643 85.2413 292.96 84.952C293.278 84.6533 293.436 84.266 293.436 83.79C293.436 83.2487 293.282 82.8567 292.974 82.614C292.676 82.3713 292.176 82.25 291.476 82.25C290.776 82.25 290.258 82.3807 289.922 82.642C289.596 82.9033 289.432 83.2953 289.432 83.818C289.432 84.2473 289.6 84.616 289.936 84.924C290.272 85.232 290.786 85.386 291.476 85.386ZM296.35 92.47C296.863 92.414 297.265 92.2507 297.554 91.98C297.853 91.7187 298.021 91.4387 298.058 91.14H298.03C297.675 91.14 297.433 91.0513 297.302 90.874C297.181 90.6967 297.12 90.4867 297.12 90.244C297.12 89.992 297.181 89.7773 297.302 89.6C297.433 89.4227 297.675 89.334 298.03 89.334C298.301 89.334 298.511 89.3947 298.66 89.516C298.809 89.628 298.912 89.7913 298.968 90.006C299.033 90.2113 299.066 90.4493 299.066 90.72C299.066 91.0933 299.001 91.4293 298.87 91.728C298.739 92.0267 298.571 92.2833 298.366 92.498C298.17 92.722 297.951 92.8993 297.708 93.03C297.475 93.17 297.251 93.2587 297.036 93.296L296.35 92.47ZM305.677 81.2H307.175V87.178H308.631V88.298H307.175V91H306.013V88.298H300.707V87.5L305.677 81.2ZM306.013 87.178V82.53L302.275 87.178H306.013ZM311.817 82.614L309.619 84V82.726L312.139 81.102H312.979V91H311.817V82.614Z" fill="#404040"/>
<path d="M205.306 81.2H206.804V87.178H208.26V88.298H206.804V91H205.642V88.298H200.336V87.5L205.306 81.2ZM205.642 87.178V82.53L201.904 87.178H205.642ZM209.578 82.096C209.82 81.844 210.189 81.6107 210.684 81.396C211.188 81.1813 211.808 81.074 212.546 81.074C213.507 81.0927 214.24 81.3213 214.744 81.76C215.248 82.1987 215.5 82.7867 215.5 83.524C215.5 84.1307 215.35 84.6393 215.052 85.05C214.753 85.4513 214.324 85.7407 213.764 85.918C214.436 86.0207 214.958 86.2727 215.332 86.674C215.714 87.0753 215.906 87.612 215.906 88.284C215.906 88.6853 215.831 89.0587 215.682 89.404C215.542 89.74 215.327 90.034 215.038 90.286C214.748 90.538 214.384 90.7387 213.946 90.888C213.507 91.028 212.998 91.1027 212.42 91.112C212.056 91.112 211.715 91.0793 211.398 91.014C211.09 90.958 210.814 90.8833 210.572 90.79C210.329 90.6873 210.119 90.5753 209.942 90.454C209.764 90.3327 209.62 90.216 209.508 90.104V88.62C209.806 89.012 210.208 89.3293 210.712 89.572C211.216 89.8147 211.776 89.9313 212.392 89.922C213.157 89.9127 213.736 89.754 214.128 89.446C214.529 89.1287 214.73 88.7133 214.73 88.2C214.73 87.6587 214.543 87.2433 214.17 86.954C213.806 86.6553 213.213 86.506 212.392 86.506H211.216V85.554H212.098C212.826 85.554 213.376 85.4093 213.75 85.12C214.132 84.8213 214.324 84.4013 214.324 83.86C214.324 83.328 214.146 82.9313 213.792 82.67C213.446 82.3993 212.956 82.264 212.322 82.264C211.715 82.2733 211.183 82.3853 210.726 82.6C210.278 82.8147 209.895 83.118 209.578 83.51V82.096ZM217.034 92.47C217.547 92.414 217.948 92.2507 218.238 91.98C218.536 91.7187 218.704 91.4387 218.742 91.14H218.714C218.359 91.14 218.116 91.0513 217.986 90.874C217.864 90.6967 217.804 90.4867 217.804 90.244C217.804 89.992 217.864 89.7773 217.986 89.6C218.116 89.4227 218.359 89.334 218.714 89.334C218.984 89.334 219.194 89.3947 219.344 89.516C219.493 89.628 219.596 89.7913 219.652 90.006C219.717 90.2113 219.75 90.4493 219.75 90.72C219.75 91.0933 219.684 91.4293 219.554 91.728C219.423 92.0267 219.255 92.2833 219.05 92.498C218.854 92.722 218.634 92.8993 218.392 93.03C218.158 93.17 217.934 93.2587 217.72 93.296L217.034 92.47ZM222.249 91V90.146C223.266 89.278 224.097 88.5407 224.741 87.934C225.394 87.3273 225.907 86.8 226.281 86.352C226.654 85.904 226.906 85.5073 227.037 85.162C227.177 84.8167 227.247 84.476 227.247 84.14C227.247 83.552 227.069 83.0993 226.715 82.782C226.36 82.4553 225.87 82.292 225.245 82.292C224.666 82.2827 224.153 82.3853 223.705 82.6C223.257 82.8147 222.874 83.118 222.557 83.51V82.096C222.678 81.9747 222.832 81.8533 223.019 81.732C223.205 81.6013 223.42 81.4893 223.663 81.396C223.905 81.2933 224.181 81.214 224.489 81.158C224.797 81.102 225.128 81.074 225.483 81.074C226.425 81.0927 227.158 81.3493 227.681 81.844C228.213 82.3387 228.479 83.0247 228.479 83.902C228.479 84.322 228.418 84.728 228.297 85.12C228.175 85.5027 227.97 85.8993 227.681 86.31C227.391 86.7207 227.013 87.164 226.547 87.64C226.08 88.1067 225.506 88.6247 224.825 89.194L224.055 89.852H228.759V91H222.249ZM229.351 81.2H235.791V82.012L232.165 91H230.849L234.377 82.46H229.351V81.2Z" fill="#404040"/>
<path d="M125.306 81.2H126.804V87.178H128.26V88.298H126.804V91H125.642V88.298H120.336V87.5L125.306 81.2ZM125.642 87.178V82.53L121.904 87.178H125.642ZM136.06 83.58C135.78 83.188 135.406 82.866 134.94 82.614C134.473 82.362 133.955 82.25 133.386 82.278C132.555 82.3153 131.897 82.6373 131.412 83.244C130.926 83.8413 130.679 84.7513 130.67 85.974C130.67 86.1327 130.674 86.2867 130.684 86.436C130.693 86.5853 130.707 86.73 130.726 86.87C130.875 86.254 131.197 85.75 131.692 85.358C132.196 84.966 132.826 84.77 133.582 84.77C134.058 84.77 134.487 84.8493 134.87 85.008C135.262 85.1573 135.588 85.3673 135.85 85.638C136.12 85.9087 136.326 86.226 136.466 86.59C136.615 86.954 136.69 87.3507 136.69 87.78C136.69 88.3307 136.596 88.816 136.41 89.236C136.223 89.6467 135.971 89.992 135.654 90.272C135.346 90.552 134.982 90.762 134.562 90.902C134.151 91.042 133.722 91.112 133.274 91.112C132.695 91.112 132.172 91.0093 131.706 90.804C131.248 90.5893 130.856 90.2813 130.53 89.88C130.212 89.4693 129.965 88.9653 129.788 88.368C129.62 87.7707 129.536 87.0893 129.536 86.324C129.536 85.4187 129.629 84.6393 129.816 83.986C130.002 83.3327 130.264 82.796 130.6 82.376C130.936 81.9467 131.337 81.6293 131.804 81.424C132.28 81.2187 132.798 81.1067 133.358 81.088C133.703 81.0787 134.016 81.1067 134.296 81.172C134.585 81.2373 134.842 81.3213 135.066 81.424C135.299 81.5173 135.495 81.6247 135.654 81.746C135.822 81.8673 135.957 81.984 136.06 82.096V83.58ZM133.316 85.848C132.606 85.848 132.037 86.0533 131.608 86.464C131.178 86.8653 130.94 87.402 130.894 88.074C131.062 88.634 131.337 89.0867 131.72 89.432C132.102 89.768 132.616 89.936 133.26 89.936C133.932 89.936 134.468 89.7493 134.87 89.376C135.28 88.9933 135.486 88.48 135.486 87.836C135.486 87.22 135.294 86.7347 134.912 86.38C134.529 86.0253 133.997 85.848 133.316 85.848ZM137.881 92.47C138.395 92.414 138.796 92.2507 139.085 91.98C139.384 91.7187 139.552 91.4387 139.589 91.14H139.561C139.207 91.14 138.964 91.0513 138.833 90.874C138.712 90.6967 138.651 90.4867 138.651 90.244C138.651 89.992 138.712 89.7773 138.833 89.6C138.964 89.4227 139.207 89.334 139.561 89.334C139.832 89.334 140.042 89.3947 140.191 89.516C140.341 89.628 140.443 89.7913 140.499 90.006C140.565 90.2113 140.597 90.4493 140.597 90.72C140.597 91.0933 140.532 91.4293 140.401 91.728C140.271 92.0267 140.103 92.2833 139.897 92.498C139.701 92.722 139.482 92.8993 139.239 93.03C139.006 93.17 138.782 93.2587 138.567 93.296L137.881 92.47ZM142.798 88.718C143.097 89.0913 143.498 89.39 144.002 89.614C144.506 89.8287 145.038 89.9313 145.598 89.922C146.336 89.922 146.886 89.74 147.25 89.376C147.624 89.0027 147.81 88.508 147.81 87.892C147.81 87.2573 147.582 86.7813 147.124 86.464C146.667 86.1467 146.056 85.988 145.29 85.988C144.861 85.988 144.46 86.0207 144.086 86.086C143.722 86.142 143.414 86.212 143.162 86.296L143.498 81.2H148.566V82.348H144.52L144.324 85.078C144.399 85.0593 144.492 85.0453 144.604 85.036C144.726 85.0173 144.847 85.0033 144.968 84.994C145.099 84.9753 145.225 84.9613 145.346 84.952C145.477 84.9427 145.598 84.938 145.71 84.938C146.774 84.938 147.596 85.204 148.174 85.736C148.753 86.268 149.042 86.9867 149.042 87.892C149.042 88.4147 148.958 88.8767 148.79 89.278C148.632 89.67 148.398 90.006 148.09 90.286C147.792 90.5567 147.432 90.762 147.012 90.902C146.592 91.042 146.13 91.112 145.626 91.112C145.281 91.112 144.959 91.0793 144.66 91.014C144.362 90.958 144.091 90.8833 143.848 90.79C143.615 90.6967 143.41 90.594 143.232 90.482C143.055 90.37 142.91 90.2627 142.798 90.16V88.718ZM152.501 82.614L150.303 84V82.726L152.823 81.102H153.663V91H152.501V82.614Z" fill="#404040"/>
<path d="M40.714 91V89.796C41.7313 88.928 42.548 88.2047 43.164 87.626C43.78 87.038 44.2513 86.5387 44.578 86.128C44.914 85.7173 45.1333 85.372 45.236 85.092C45.348 84.812 45.404 84.546 45.404 84.294C45.404 83.8087 45.2547 83.4353 44.956 83.174C44.6573 82.9127 44.242 82.782 43.71 82.782C43.15 82.7727 42.6413 82.866 42.184 83.062C41.736 83.258 41.3487 83.5427 41.022 83.916V82.054C41.1433 81.9327 41.2973 81.816 41.484 81.704C41.68 81.5827 41.904 81.4753 42.156 81.382C42.408 81.2887 42.6833 81.214 42.982 81.158C43.29 81.102 43.6167 81.074 43.962 81.074C44.998 81.0833 45.782 81.3447 46.314 81.858C46.8553 82.3713 47.126 83.062 47.126 83.93C47.126 84.3313 47.0653 84.7187 46.944 85.092C46.832 85.4653 46.6453 85.848 46.384 86.24C46.1227 86.632 45.7773 87.0427 45.348 87.472C44.928 87.9013 44.41 88.3773 43.794 88.9L43.22 89.39H47.392V91H40.714ZM48.7771 86.114C48.7771 85.2087 48.8751 84.4387 49.0711 83.804C49.2671 83.16 49.5331 82.642 49.8691 82.25C50.2145 81.8487 50.6111 81.5547 51.0591 81.368C51.5165 81.1813 52.0018 81.088 52.5151 81.088C53.0938 81.088 53.6165 81.1907 54.0831 81.396C54.5498 81.6013 54.9465 81.914 55.2731 82.334C55.6091 82.7447 55.8658 83.2673 56.0431 83.902C56.2205 84.5273 56.3091 85.2647 56.3091 86.114C56.3091 87.0287 56.2065 87.808 56.0011 88.452C55.8051 89.0867 55.5345 89.6047 55.1891 90.006C54.8531 90.398 54.4565 90.6873 53.9991 90.874C53.5511 91.0513 53.0705 91.14 52.5571 91.14C51.9785 91.14 51.4558 91.0373 50.9891 90.832C50.5225 90.6267 50.1258 90.3187 49.7991 89.908C49.4725 89.488 49.2205 88.9653 49.0431 88.34C48.8658 87.7053 48.7771 86.9633 48.7771 86.114ZM50.4571 86.114C50.4571 86.7393 50.5038 87.2667 50.5971 87.696C50.6998 88.1253 50.8398 88.4753 51.0171 88.746C51.2038 89.0073 51.4231 89.1987 51.6751 89.32C51.9365 89.4413 52.2305 89.502 52.5571 89.502C52.8931 89.502 53.1871 89.446 53.4391 89.334C53.7005 89.2127 53.9198 89.0213 54.0971 88.76C54.2745 88.4893 54.4051 88.1393 54.4891 87.71C54.5825 87.2713 54.6291 86.7393 54.6291 86.114C54.6291 85.4887 54.5778 84.966 54.4751 84.546C54.3818 84.1167 54.2418 83.7713 54.0551 83.51C53.8778 83.2393 53.6585 83.0433 53.3971 82.922C53.1358 82.8007 52.8465 82.7353 52.5291 82.726C52.1931 82.726 51.8945 82.7867 51.6331 82.908C51.3811 83.02 51.1665 83.2113 50.9891 83.482C50.8118 83.7433 50.6765 84.0933 50.5831 84.532C50.4991 84.9613 50.4571 85.4887 50.4571 86.114ZM59.7268 83.146L57.6268 84.448V82.726L60.1468 81.102H61.3648V91H59.7268V83.146ZM67.022 91.126C66.4526 91.126 65.9346 91.0607 65.468 90.93C65.0106 90.79 64.6186 90.594 64.292 90.342C63.9746 90.09 63.7273 89.782 63.55 89.418C63.382 89.054 63.298 88.6433 63.298 88.186C63.298 87.9433 63.326 87.7007 63.382 87.458C63.438 87.206 63.5313 86.9727 63.662 86.758C63.7926 86.5433 63.97 86.352 64.194 86.184C64.4273 86.0067 64.712 85.8667 65.048 85.764C64.8613 85.7173 64.6793 85.638 64.502 85.526C64.3246 85.414 64.166 85.2693 64.026 85.092C63.8953 84.9147 63.788 84.7093 63.704 84.476C63.6293 84.2333 63.592 83.9627 63.592 83.664C63.592 82.8613 63.8766 82.2267 64.446 81.76C65.0246 81.284 65.8786 81.046 67.008 81.046C68.128 81.046 68.9586 81.2747 69.5 81.732C70.0413 82.1893 70.312 82.8007 70.312 83.566C70.312 84.0793 70.1906 84.532 69.948 84.924C69.7146 85.316 69.36 85.5913 68.884 85.75C69.5 85.89 69.9573 86.1653 70.256 86.576C70.564 86.9773 70.718 87.5 70.718 88.144C70.718 88.5827 70.6386 88.984 70.48 89.348C70.3213 89.712 70.088 90.0293 69.78 90.3C69.472 90.5613 69.0846 90.7667 68.618 90.916C68.1606 91.056 67.6286 91.126 67.022 91.126ZM67.036 89.46C67.7266 89.46 68.2306 89.3387 68.548 89.096C68.8746 88.844 69.038 88.466 69.038 87.962C69.038 87.4393 68.8606 87.0707 68.506 86.856C68.1606 86.632 67.666 86.52 67.022 86.52C65.678 86.52 65.006 86.9913 65.006 87.934C65.006 88.2047 65.0526 88.438 65.146 88.634C65.2486 88.83 65.3886 88.9887 65.566 89.11C65.7433 89.2313 65.958 89.32 66.21 89.376C66.462 89.432 66.7373 89.46 67.036 89.46ZM66.994 85.19C67.5913 85.19 68.0206 85.078 68.282 84.854C68.5433 84.6207 68.674 84.308 68.674 83.916C68.674 83.5053 68.548 83.202 68.296 83.006C68.044 82.81 67.61 82.712 66.994 82.712C66.378 82.712 65.93 82.8193 65.65 83.034C65.37 83.2393 65.23 83.5427 65.23 83.944C65.23 84.28 65.37 84.574 65.65 84.826C65.93 85.0687 66.378 85.19 66.994 85.19Z" fill="#404040"/>
<path d="M48.246 34.81H43.024V43H41.274V33.2H49.996V43H48.246V34.81ZM58.0416 42.3C57.9576 42.4027 57.8363 42.5053 57.6776 42.608C57.519 42.7013 57.3276 42.79 57.1036 42.874C56.8796 42.958 56.6276 43.0233 56.3476 43.07C56.077 43.1167 55.783 43.14 55.4656 43.14C54.299 43.1493 53.3936 42.846 52.7496 42.23C52.1056 41.6047 51.7836 40.6853 51.7836 39.472C51.7836 38.8933 51.8676 38.38 52.0356 37.932C52.213 37.4747 52.4603 37.092 52.7776 36.784C53.095 36.476 53.4683 36.2427 53.8976 36.084C54.3363 35.9253 54.8216 35.846 55.3536 35.846C56.371 35.8553 57.1643 36.1587 57.7336 36.756C58.3123 37.3533 58.6016 38.2027 58.6016 39.304V39.976H53.4076C53.5383 41.1427 54.243 41.726 55.5216 41.726C56.1656 41.726 56.6976 41.6187 57.1176 41.404C57.547 41.1893 57.855 40.928 58.0416 40.62V42.3ZM55.3116 37.274C54.7796 37.274 54.355 37.4047 54.0376 37.666C53.7203 37.9273 53.5196 38.31 53.4356 38.814H56.9636C56.945 38.338 56.791 37.9647 56.5016 37.694C56.2123 37.414 55.8156 37.274 55.3116 37.274ZM60.1073 36H61.6473V37.456C61.7126 37.26 61.8059 37.0687 61.9273 36.882C62.0579 36.686 62.2213 36.5133 62.4173 36.364C62.6226 36.2147 62.8653 36.0933 63.1453 36C63.4253 35.9067 63.7519 35.86 64.1253 35.86C64.5733 35.86 64.9793 35.93 65.3433 36.07C65.7166 36.2007 66.0339 36.406 66.2953 36.686C66.5659 36.966 66.7759 37.3253 66.9253 37.764C67.0746 38.2027 67.1493 38.73 67.1493 39.346C67.1493 40.0367 67.0746 40.6247 66.9253 41.11C66.7759 41.586 66.5613 41.978 66.2813 42.286C66.0106 42.5847 65.6793 42.804 65.2873 42.944C64.8953 43.084 64.4613 43.154 63.9853 43.154C63.4253 43.154 62.9539 43.0327 62.5713 42.79C62.1979 42.5473 61.9226 42.2627 61.7453 41.936V45.702H60.1073V36ZM61.7453 39.738C61.7453 40.3727 61.9133 40.8627 62.2493 41.208C62.5853 41.544 63.0426 41.712 63.6213 41.712C64.2839 41.712 64.7646 41.5393 65.0633 41.194C65.3619 40.8393 65.5113 40.2467 65.5113 39.416C65.5113 38.6507 65.3386 38.1093 64.9933 37.792C64.6573 37.4747 64.2093 37.316 63.6493 37.316C63.0053 37.316 62.5293 37.484 62.2213 37.82C61.9226 38.156 61.7639 38.618 61.7453 39.206V39.738ZM68.6525 36H70.2765V40.746L73.6365 36H75.1905V43H73.5665V38.198L70.2065 43H68.6525V36ZM80.3055 43.154C79.7548 43.154 79.2601 43.0793 78.8215 42.93C78.3828 42.7713 78.0048 42.538 77.6875 42.23C77.3701 41.922 77.1275 41.5393 76.9595 41.082C76.7915 40.6247 76.7075 40.088 76.7075 39.472C76.7075 38.8653 76.7961 38.338 76.9735 37.89C77.1508 37.4327 77.3981 37.0547 77.7155 36.756C78.0328 36.448 78.4155 36.2193 78.8635 36.07C79.3115 35.9207 79.8108 35.846 80.3615 35.846C80.9028 35.846 81.3928 35.9253 81.8315 36.084C82.2795 36.2427 82.6575 36.476 82.9655 36.784C83.2828 37.092 83.5255 37.4747 83.6935 37.932C83.8615 38.3893 83.9455 38.9213 83.9455 39.528C83.9455 40.1347 83.8568 40.6667 83.6795 41.124C83.5021 41.572 83.2548 41.9453 82.9375 42.244C82.6201 42.5427 82.2375 42.7713 81.7895 42.93C81.3415 43.0793 80.8468 43.154 80.3055 43.154ZM78.3735 39.514C78.3735 40.2887 78.5461 40.8533 78.8915 41.208C79.2368 41.5533 79.7175 41.726 80.3335 41.726C80.9588 41.726 81.4395 41.5487 81.7755 41.194C82.1115 40.83 82.2795 40.2747 82.2795 39.528V39.486C82.2795 38.7113 82.1021 38.1513 81.7475 37.806C81.4021 37.4513 80.9215 37.274 80.3055 37.274C79.6801 37.2833 79.1995 37.47 78.8635 37.834C78.5368 38.1887 78.3735 38.7347 78.3735 39.472V39.514ZM85.3462 41.516C85.4396 41.264 85.5236 40.9887 85.5982 40.69C85.6822 40.382 85.7522 40.0367 85.8082 39.654C85.8642 39.2713 85.9062 38.8467 85.9342 38.38C85.9622 37.904 85.9762 37.3767 85.9762 36.798V36H91.3522V41.516H92.4162V44.82H90.9322V43H86.0182V44.82H84.5342V41.516H85.3462ZM87.5022 37.61C87.4836 38.422 87.4322 39.1407 87.3482 39.766C87.2642 40.382 87.1242 40.9653 86.9282 41.516H89.7142V37.442H87.5022V37.61Z" fill="#4AA29A"/>
<path d="M128.498 34.81H125.194V43H123.444V34.81H120.196V33.2H128.498V34.81ZM129.507 33.928C129.806 33.7227 130.245 33.5267 130.823 33.34C131.411 33.1533 132.111 33.0553 132.923 33.046C133.717 33.046 134.44 33.1627 135.093 33.396C135.747 33.62 136.307 33.9513 136.773 34.39C137.24 34.8193 137.604 35.3513 137.865 35.986C138.127 36.6113 138.257 37.3207 138.257 38.114C138.257 38.8513 138.136 39.528 137.893 40.144C137.651 40.76 137.301 41.292 136.843 41.74C136.386 42.188 135.826 42.538 135.163 42.79C134.51 43.0327 133.768 43.154 132.937 43.154C132.517 43.154 132.121 43.1167 131.747 43.042C131.374 42.9673 131.033 42.874 130.725 42.762C130.427 42.6407 130.165 42.51 129.941 42.37C129.727 42.2207 129.559 42.0713 129.437 41.922V39.766C129.577 40.018 129.759 40.2513 129.983 40.466C130.207 40.6807 130.469 40.8673 130.767 41.026C131.066 41.1847 131.397 41.3107 131.761 41.404C132.135 41.4973 132.541 41.544 132.979 41.544C133.997 41.5347 134.795 41.2827 135.373 40.788C135.961 40.284 136.307 39.598 136.409 38.73H131.607V37.204H136.381C136.316 36.84 136.199 36.504 136.031 36.196C135.863 35.888 135.635 35.622 135.345 35.398C135.056 35.1647 134.711 34.9827 134.309 34.852C133.908 34.7213 133.446 34.656 132.923 34.656C132.531 34.656 132.163 34.7073 131.817 34.81C131.472 34.9033 131.155 35.0293 130.865 35.188C130.576 35.3467 130.315 35.5287 130.081 35.734C129.848 35.9393 129.657 36.1493 129.507 36.364V33.928ZM148.179 41.922C148.057 42.0713 147.885 42.2207 147.661 42.37C147.446 42.51 147.189 42.6407 146.891 42.762C146.592 42.874 146.256 42.9673 145.882 43.042C145.519 43.1167 145.127 43.154 144.707 43.154C143.904 43.154 143.176 43.0373 142.523 42.804C141.869 42.5707 141.309 42.2393 140.843 41.81C140.385 41.3713 140.026 40.8393 139.765 40.214C139.513 39.5887 139.387 38.8793 139.387 38.086C139.387 37.3487 139.513 36.672 139.765 36.056C140.017 35.44 140.376 34.908 140.843 34.46C141.309 34.012 141.869 33.6667 142.523 33.424C143.185 33.172 143.923 33.046 144.735 33.046C145.509 33.046 146.172 33.144 146.722 33.34C147.273 33.5267 147.693 33.7227 147.983 33.928V36.364C147.833 36.1493 147.647 35.9393 147.423 35.734C147.208 35.5287 146.961 35.3467 146.681 35.188C146.41 35.0293 146.107 34.9033 145.771 34.81C145.444 34.7073 145.099 34.656 144.735 34.656C144.203 34.656 143.722 34.74 143.293 34.908C142.863 35.076 142.499 35.3093 142.201 35.608C141.902 35.9067 141.673 36.2707 141.515 36.7C141.356 37.12 141.277 37.5867 141.277 38.1C141.277 38.576 141.347 39.024 141.487 39.444C141.636 39.8547 141.851 40.214 142.131 40.522C142.42 40.83 142.779 41.0773 143.209 41.264C143.638 41.4413 144.133 41.5347 144.693 41.544C145.122 41.544 145.514 41.4973 145.869 41.404C146.233 41.3107 146.559 41.1847 146.849 41.026C147.147 40.8673 147.409 40.6807 147.633 40.466C147.857 40.2513 148.039 40.018 148.179 39.766V41.922Z" fill="#4AA29A"/>
<path d="M207.924 34.81H203.024V43H201.274V33.2H207.924V34.81ZM209.042 33.928C209.341 33.7227 209.78 33.5267 210.358 33.34C210.946 33.1533 211.646 33.0553 212.458 33.046C213.252 33.046 213.975 33.1627 214.628 33.396C215.282 33.62 215.842 33.9513 216.308 34.39C216.775 34.8193 217.139 35.3513 217.4 35.986C217.662 36.6113 217.792 37.3207 217.792 38.114C217.792 38.8513 217.671 39.528 217.428 40.144C217.186 40.76 216.836 41.292 216.378 41.74C215.921 42.188 215.361 42.538 214.698 42.79C214.045 43.0327 213.303 43.154 212.472 43.154C212.052 43.154 211.656 43.1167 211.282 43.042C210.909 42.9673 210.568 42.874 210.26 42.762C209.962 42.6407 209.7 42.51 209.476 42.37C209.262 42.2207 209.094 42.0713 208.972 41.922V39.766C209.112 40.018 209.294 40.2513 209.518 40.466C209.742 40.6807 210.004 40.8673 210.302 41.026C210.601 41.1847 210.932 41.3107 211.296 41.404C211.67 41.4973 212.076 41.544 212.514 41.544C213.532 41.5347 214.33 41.2827 214.908 40.788C215.496 40.284 215.842 39.598 215.944 38.73H211.142V37.204H215.916C215.851 36.84 215.734 36.504 215.566 36.196C215.398 35.888 215.17 35.622 214.88 35.398C214.591 35.1647 214.246 34.9827 213.844 34.852C213.443 34.7213 212.981 34.656 212.458 34.656C212.066 34.656 211.698 34.7073 211.352 34.81C211.007 34.9033 210.69 35.0293 210.4 35.188C210.111 35.3467 209.85 35.5287 209.616 35.734C209.383 35.9393 209.192 36.1493 209.042 36.364V33.928ZM227.714 41.922C227.592 42.0713 227.42 42.2207 227.196 42.37C226.981 42.51 226.724 42.6407 226.426 42.762C226.127 42.874 225.791 42.9673 225.418 43.042C225.054 43.1167 224.662 43.154 224.242 43.154C223.439 43.154 222.711 43.0373 222.058 42.804C221.404 42.5707 220.844 42.2393 220.378 41.81C219.92 41.3713 219.561 40.8393 219.3 40.214C219.048 39.5887 218.922 38.8793 218.922 38.086C218.922 37.3487 219.048 36.672 219.3 36.056C219.552 35.44 219.911 34.908 220.378 34.46C220.844 34.012 221.404 33.6667 222.058 33.424C222.72 33.172 223.458 33.046 224.27 33.046C225.044 33.046 225.707 33.144 226.258 33.34C226.808 33.5267 227.228 33.7227 227.518 33.928V36.364C227.368 36.1493 227.182 35.9393 226.958 35.734C226.743 35.5287 226.496 35.3467 226.216 35.188C225.945 35.0293 225.642 34.9033 225.306 34.81C224.979 34.7073 224.634 34.656 224.27 34.656C223.738 34.656 223.257 34.74 222.828 34.908C222.398 35.076 222.034 35.3093 221.736 35.608C221.437 35.9067 221.208 36.2707 221.05 36.7C220.891 37.12 220.812 37.5867 220.812 38.1C220.812 38.576 220.882 39.024 221.022 39.444C221.171 39.8547 221.386 40.214 221.666 40.522C221.955 40.83 222.314 41.0773 222.744 41.264C223.173 41.4413 223.668 41.5347 224.228 41.544C224.657 41.544 225.049 41.4973 225.404 41.404C225.768 41.3107 226.094 41.1847 226.384 41.026C226.682 40.8673 226.944 40.6807 227.168 40.466C227.392 40.2513 227.574 40.018 227.714 39.766V41.922Z" fill="#4AA29A"/>
<path d="M290.094 43H288.232L287.294 40.676H282.8L281.876 43H280.098L284.074 33.2H286.062L290.094 43ZM286.65 39.066L285.04 35.048L283.43 39.066H286.65ZM291.244 33.928C291.542 33.7227 291.981 33.5267 292.56 33.34C293.148 33.1533 293.848 33.0553 294.66 33.046C295.453 33.046 296.176 33.1627 296.83 33.396C297.483 33.62 298.043 33.9513 298.51 34.39C298.976 34.8193 299.34 35.3513 299.602 35.986C299.863 36.6113 299.994 37.3207 299.994 38.114C299.994 38.8513 299.872 39.528 299.63 40.144C299.387 40.76 299.037 41.292 298.58 41.74C298.122 42.188 297.562 42.538 296.9 42.79C296.246 43.0327 295.504 43.154 294.674 43.154C294.254 43.154 293.857 43.1167 293.484 43.042C293.11 42.9673 292.77 42.874 292.462 42.762C292.163 42.6407 291.902 42.51 291.678 42.37C291.463 42.2207 291.295 42.0713 291.174 41.922V39.766C291.314 40.018 291.496 40.2513 291.72 40.466C291.944 40.6807 292.205 40.8673 292.504 41.026C292.802 41.1847 293.134 41.3107 293.498 41.404C293.871 41.4973 294.277 41.544 294.716 41.544C295.733 41.5347 296.531 41.2827 297.11 40.788C297.698 40.284 298.043 39.598 298.146 38.73H293.344V37.204H298.118C298.052 36.84 297.936 36.504 297.768 36.196C297.6 35.888 297.371 35.622 297.082 35.398C296.792 35.1647 296.447 34.9827 296.046 34.852C295.644 34.7213 295.182 34.656 294.66 34.656C294.268 34.656 293.899 34.7073 293.554 34.81C293.208 34.9033 292.891 35.0293 292.602 35.188C292.312 35.3467 292.051 35.5287 291.818 35.734C291.584 35.9393 291.393 36.1493 291.244 36.364V33.928ZM309.915 41.922C309.793 42.0713 309.621 42.2207 309.397 42.37C309.182 42.51 308.925 42.6407 308.627 42.762C308.328 42.874 307.992 42.9673 307.619 43.042C307.255 43.1167 306.863 43.154 306.443 43.154C305.64 43.154 304.912 43.0373 304.259 42.804C303.605 42.5707 303.045 42.2393 302.579 41.81C302.121 41.3713 301.762 40.8393 301.501 40.214C301.249 39.5887 301.123 38.8793 301.123 38.086C301.123 37.3487 301.249 36.672 301.501 36.056C301.753 35.44 302.112 34.908 302.579 34.46C303.045 34.012 303.605 33.6667 304.259 33.424C304.921 33.172 305.659 33.046 306.471 33.046C307.245 33.046 307.908 33.144 308.459 33.34C309.009 33.5267 309.429 33.7227 309.719 33.928V36.364C309.569 36.1493 309.383 35.9393 309.159 35.734C308.944 35.5287 308.697 35.3467 308.417 35.188C308.146 35.0293 307.843 34.9033 307.507 34.81C307.18 34.7073 306.835 34.656 306.471 34.656C305.939 34.656 305.458 34.74 305.029 34.908C304.599 35.076 304.235 35.3093 303.937 35.608C303.638 35.9067 303.409 36.2707 303.251 36.7C303.092 37.12 303.013 37.5867 303.013 38.1C303.013 38.576 303.083 39.024 303.223 39.444C303.372 39.8547 303.587 40.214 303.867 40.522C304.156 40.83 304.515 41.0773 304.945 41.264C305.374 41.4413 305.869 41.5347 306.429 41.544C306.858 41.544 307.25 41.4973 307.605 41.404C307.969 41.3107 308.295 41.1847 308.585 41.026C308.883 40.8673 309.145 40.6807 309.369 40.466C309.593 40.2513 309.775 40.018 309.915 39.766V41.922Z" fill="#4AA29A"/>
<path d="M361.274 43V33.2H365.53C367.733 33.2 368.834 34.012 368.834 35.636C368.834 36.196 368.717 36.6627 368.484 37.036C368.251 37.4093 367.882 37.694 367.378 37.89C367.985 37.9927 368.428 38.2353 368.708 38.618C368.988 38.9913 369.128 39.5 369.128 40.144C369.128 40.648 369.039 41.082 368.862 41.446C368.685 41.81 368.428 42.1087 368.092 42.342C367.765 42.566 367.364 42.734 366.888 42.846C366.421 42.9487 365.889 43 365.292 43H361.274ZM365.404 41.39C366.076 41.39 366.571 41.2827 366.888 41.068C367.205 40.844 367.364 40.494 367.364 40.018C367.364 39.542 367.196 39.206 366.86 39.01C366.524 38.814 366.048 38.716 365.432 38.716H363.024V41.39H365.404ZM365.278 37.344C365.838 37.344 366.277 37.2273 366.594 36.994C366.921 36.7607 367.084 36.434 367.084 36.014C367.084 35.622 366.944 35.3233 366.664 35.118C366.393 34.9127 365.945 34.81 365.32 34.81H363.024V37.344H365.278ZM370.464 33.928C370.763 33.7227 371.202 33.5267 371.78 33.34C372.368 33.1533 373.068 33.0553 373.88 33.046C374.674 33.046 375.397 33.1627 376.05 33.396C376.704 33.62 377.264 33.9513 377.73 34.39C378.197 34.8193 378.561 35.3513 378.822 35.986C379.084 36.6113 379.214 37.3207 379.214 38.114C379.214 38.8513 379.093 39.528 378.85 40.144C378.608 40.76 378.258 41.292 377.8 41.74C377.343 42.188 376.783 42.538 376.12 42.79C375.467 43.0327 374.725 43.154 373.894 43.154C373.474 43.154 373.078 43.1167 372.704 43.042C372.331 42.9673 371.99 42.874 371.682 42.762C371.384 42.6407 371.122 42.51 370.898 42.37C370.684 42.2207 370.516 42.0713 370.394 41.922V39.766C370.534 40.018 370.716 40.2513 370.94 40.466C371.164 40.6807 371.426 40.8673 371.724 41.026C372.023 41.1847 372.354 41.3107 372.718 41.404C373.092 41.4973 373.498 41.544 373.936 41.544C374.954 41.5347 375.752 41.2827 376.33 40.788C376.918 40.284 377.264 39.598 377.366 38.73H372.564V37.204H377.338C377.273 36.84 377.156 36.504 376.988 36.196C376.82 35.888 376.592 35.622 376.302 35.398C376.013 35.1647 375.668 34.9827 375.266 34.852C374.865 34.7213 374.403 34.656 373.88 34.656C373.488 34.656 373.12 34.7073 372.774 34.81C372.429 34.9033 372.112 35.0293 371.822 35.188C371.533 35.3467 371.272 35.5287 371.038 35.734C370.805 35.9393 370.614 36.1493 370.464 36.364V33.928ZM389.136 41.922C389.014 42.0713 388.842 42.2207 388.618 42.37C388.403 42.51 388.146 42.6407 387.848 42.762C387.549 42.874 387.213 42.9673 386.84 43.042C386.476 43.1167 386.084 43.154 385.664 43.154C384.861 43.154 384.133 43.0373 383.48 42.804C382.826 42.5707 382.266 42.2393 381.8 41.81C381.342 41.3713 380.983 40.8393 380.722 40.214C380.47 39.5887 380.344 38.8793 380.344 38.086C380.344 37.3487 380.47 36.672 380.722 36.056C380.974 35.44 381.333 34.908 381.8 34.46C382.266 34.012 382.826 33.6667 383.48 33.424C384.142 33.172 384.88 33.046 385.692 33.046C386.466 33.046 387.129 33.144 387.68 33.34C388.23 33.5267 388.65 33.7227 388.94 33.928V36.364C388.79 36.1493 388.604 35.9393 388.38 35.734C388.165 35.5287 387.918 35.3467 387.638 35.188C387.367 35.0293 387.064 34.9033 386.728 34.81C386.401 34.7073 386.056 34.656 385.692 34.656C385.16 34.656 384.679 34.74 384.25 34.908C383.82 35.076 383.456 35.3093 383.158 35.608C382.859 35.9067 382.63 36.2707 382.472 36.7C382.313 37.12 382.234 37.5867 382.234 38.1C382.234 38.576 382.304 39.024 382.444 39.444C382.593 39.8547 382.808 40.214 383.088 40.522C383.377 40.83 383.736 41.0773 384.166 41.264C384.595 41.4413 385.09 41.5347 385.65 41.544C386.079 41.544 386.471 41.4973 386.826 41.404C387.19 41.3107 387.516 41.1847 387.806 41.026C388.104 40.8673 388.366 40.6807 388.59 40.466C388.814 40.2513 388.996 40.018 389.136 39.766V41.922Z" fill="#4AA29A"/>
<path d="M449.366 41.922C449.245 42.0713 449.072 42.2207 448.848 42.37C448.633 42.51 448.377 42.6407 448.078 42.762C447.779 42.874 447.443 42.9673 447.07 43.042C446.706 43.1167 446.314 43.154 445.894 43.154C445.091 43.154 444.363 43.0373 443.71 42.804C443.057 42.5707 442.497 42.2393 442.03 41.81C441.573 41.3713 441.213 40.8393 440.952 40.214C440.7 39.5887 440.574 38.8793 440.574 38.086C440.574 37.3487 440.7 36.672 440.952 36.056C441.204 35.44 441.563 34.908 442.03 34.46C442.497 34.012 443.057 33.6667 443.71 33.424C444.373 33.172 445.11 33.046 445.922 33.046C446.697 33.046 447.359 33.144 447.91 33.34C448.461 33.5267 448.881 33.7227 449.17 33.928V36.364C449.021 36.1493 448.834 35.9393 448.61 35.734C448.395 35.5287 448.148 35.3467 447.868 35.188C447.597 35.0293 447.294 34.9033 446.958 34.81C446.631 34.7073 446.286 34.656 445.922 34.656C445.39 34.656 444.909 34.74 444.48 34.908C444.051 35.076 443.687 35.3093 443.388 35.608C443.089 35.9067 442.861 36.2707 442.702 36.7C442.543 37.12 442.464 37.5867 442.464 38.1C442.464 38.576 442.534 39.024 442.674 39.444C442.823 39.8547 443.038 40.214 443.318 40.522C443.607 40.83 443.967 41.0773 444.396 41.264C444.825 41.4413 445.32 41.5347 445.88 41.544C446.309 41.544 446.701 41.4973 447.056 41.404C447.42 41.3107 447.747 41.1847 448.036 41.026C448.335 40.8673 448.596 40.6807 448.82 40.466C449.044 40.2513 449.226 40.018 449.366 39.766V41.922ZM450.464 33.928C450.763 33.7227 451.202 33.5267 451.78 33.34C452.368 33.1533 453.068 33.0553 453.88 33.046C454.674 33.046 455.397 33.1627 456.05 33.396C456.704 33.62 457.264 33.9513 457.73 34.39C458.197 34.8193 458.561 35.3513 458.822 35.986C459.084 36.6113 459.214 37.3207 459.214 38.114C459.214 38.8513 459.093 39.528 458.85 40.144C458.608 40.76 458.258 41.292 457.8 41.74C457.343 42.188 456.783 42.538 456.12 42.79C455.467 43.0327 454.725 43.154 453.894 43.154C453.474 43.154 453.078 43.1167 452.704 43.042C452.331 42.9673 451.99 42.874 451.682 42.762C451.384 42.6407 451.122 42.51 450.898 42.37C450.684 42.2207 450.516 42.0713 450.394 41.922V39.766C450.534 40.018 450.716 40.2513 450.94 40.466C451.164 40.6807 451.426 40.8673 451.724 41.026C452.023 41.1847 452.354 41.3107 452.718 41.404C453.092 41.4973 453.498 41.544 453.936 41.544C454.954 41.5347 455.752 41.2827 456.33 40.788C456.918 40.284 457.264 39.598 457.366 38.73H452.564V37.204H457.338C457.273 36.84 457.156 36.504 456.988 36.196C456.82 35.888 456.592 35.622 456.302 35.398C456.013 35.1647 455.668 34.9827 455.266 34.852C454.865 34.7213 454.403 34.656 453.88 34.656C453.488 34.656 453.12 34.7073 452.774 34.81C452.429 34.9033 452.112 35.0293 451.822 35.188C451.533 35.3467 451.272 35.5287 451.038 35.734C450.805 35.9393 450.614 36.1493 450.464 36.364V33.928ZM469.136 41.922C469.014 42.0713 468.842 42.2207 468.618 42.37C468.403 42.51 468.146 42.6407 467.848 42.762C467.549 42.874 467.213 42.9673 466.84 43.042C466.476 43.1167 466.084 43.154 465.664 43.154C464.861 43.154 464.133 43.0373 463.48 42.804C462.826 42.5707 462.266 42.2393 461.8 41.81C461.342 41.3713 460.983 40.8393 460.722 40.214C460.47 39.5887 460.344 38.8793 460.344 38.086C460.344 37.3487 460.47 36.672 460.722 36.056C460.974 35.44 461.333 34.908 461.8 34.46C462.266 34.012 462.826 33.6667 463.48 33.424C464.142 33.172 464.88 33.046 465.692 33.046C466.466 33.046 467.129 33.144 467.68 33.34C468.23 33.5267 468.65 33.7227 468.94 33.928V36.364C468.79 36.1493 468.604 35.9393 468.38 35.734C468.165 35.5287 467.918 35.3467 467.638 35.188C467.367 35.0293 467.064 34.9033 466.728 34.81C466.401 34.7073 466.056 34.656 465.692 34.656C465.16 34.656 464.679 34.74 464.25 34.908C463.82 35.076 463.456 35.3093 463.158 35.608C462.859 35.9067 462.63 36.2707 462.472 36.7C462.313 37.12 462.234 37.5867 462.234 38.1C462.234 38.576 462.304 39.024 462.444 39.444C462.593 39.8547 462.808 40.214 463.088 40.522C463.377 40.83 463.736 41.0773 464.166 41.264C464.595 41.4413 465.09 41.5347 465.65 41.544C466.079 41.544 466.471 41.4973 466.826 41.404C467.19 41.3107 467.516 41.1847 467.806 41.026C468.104 40.8673 468.366 40.6807 468.59 40.466C468.814 40.2513 468.996 40.018 469.136 39.766V41.922Z" fill="#4AA29A"/>
</svg>
